<svg height="24" viewBox="0 0 24 24" width="24" xmlns="http://www.w3.org/2000/svg"><g fill="none" fill-rule="evenodd"><path d="m0 0h24v24h-24z" opacity="0"/><path d="m12 21c-4.97056275 0-9-4.0294373-9-9 0-4.97056275 4.02943725-9 9-9 4.9705627 0 9 4.02943725 9 9 0 4.9705627-4.0294373 9-9 9zm2.1654881-13.64516255-4.55493633 3.00741505c-.13133436.0867141-.21417741.2302025-.2236068.3872984l-.32702971 5.4483981c-.01654514.2756462.19349783.5125142.4691441.5290593.10799075.006482.21517081-.0222369.30545257-.0818457l4.55493627-3.0074151c.1313344-.0867141.2141774-.2302025.2236068-.3872984l.3270297-5.44839806c.0165452-.27564627-.1934978-.51251422-.4691441-.52905936-.1079907-.00648194-.2151708.02223687-.3054525.08184577z" fill="#000"/></g></svg>