<svg height="24" viewBox="0 0 24 24" width="24" xmlns="http://www.w3.org/2000/svg"><g fill="none" fill-rule="evenodd"><path d="m0 0h24v24h-24z" opacity="0"/><g fill="#000"><path d="m19 11h2c.5522847 0 1 .4477153 1 1s-.4477153 1-1 1h-2c-.5522847 0-1-.4477153-1-1s.4477153-1 1-1zm-16 0h2c.55228475 0 1 .4477153 1 1s-.44771525 1-1 1h-2c-.55228475 0-1-.4477153-1-1s.44771525-1 1-1zm9-9c.5522847 0 1 .44771525 1 1v2c0 .55228475-.4477153 1-1 1s-1-.44771525-1-1v-2c0-.55228475.4477153-1 1-1zm0 16c.5522847 0 1 .4477153 1 1v2c0 .5522847-.4477153 1-1 1s-1-.4477153-1-1v-2c0-.5522847.4477153-1 1-1z" fill-rule="nonzero" opacity=".3"/><circle cx="12" cy="12" opacity=".3" r="2"/><path d="m12 17c2.7614237 0 5-2.2385763 5-5 0-2.76142375-2.2385763-5-5-5-2.76142375 0-5 2.23857625-5 5 0 2.7614237 2.23857625 5 5 5zm0 2c-3.86599325 0-7-3.1340068-7-7 0-3.86599325 3.13400675-7 7-7 3.8659932 0 7 3.13400675 7 7 0 3.8659932-3.1340068 7-7 7z" fill-rule="nonzero"/></g></g></svg>