<svg height="24" viewBox="0 0 24 24" width="24" xmlns="http://www.w3.org/2000/svg"><g fill="none" fill-rule="evenodd"><path d="m0 0h24v24h-24z" opacity="0"/><g fill="#000"><path d="m14 9v-1c0-1.1045695-.8954305-2-2-2s-2 .8954305-2 2v1h-2v-1c0-2.209139 1.790861-4 4-4s4 1.790861 4 4v1zm0 0v-1c0-1.1045695-.8954305-2-2-2s-2 .8954305-2 2v1h-2v-1c0-2.209139 1.790861-4 4-4s4 1.790861 4 4v1z" fill-rule="nonzero" opacity=".3"/><path d="m6.84712709 9h10.30574581c.4888392 0 .9060293.35341304.9863939.83560101l1.4726002 8.83560099c.1815901 1.0895407-.5544492 2.1199957-1.6439899 2.3015858-.1086628.0181105-.2186362.0272122-.3287979.0272122h-11.27815836c-1.1045695 0-2-.8954305-2-2 0-.1101617.00910168-.2201351.02721216-.328798l1.47260016-8.83560099c.08036467-.48218797.49755478-.83560101.98639393-.83560101z"/></g></g></svg>