<svg height="24" viewBox="0 0 24 24" width="24" xmlns="http://www.w3.org/2000/svg"><g fill="none" fill-rule="evenodd"><path d="m0 0h24v24h-24z" opacity="0"/><g fill="#000"><path d="m4 4h8v16h-8z" opacity=".3"/><path d="m6 18h3c.66666667.1143819 1 .4477153 1 1s-.33333333.8856181-1 1h-5v-5c0-.6666667.33333333-1 1-1s1 .3333333 1 1zm12 0v-3c.1143819-.6666667.4477153-1 1-1s.8856181.3333333 1 1v5h-5c-.6666667 0-1-.3333333-1-1s.3333333-1 1-1zm0-12h-3c-.6666667-.11438192-1-.44771525-1-1s.3333333-.88561808 1-1h5v5c0 .66666667-.3333333 1-1 1s-1-.33333333-1-1zm-12 0v3c-.11438192.66666667-.44771525 1-1 1s-.88561808-.33333333-1-1v-5h5c.66666667 0 1 .33333333 1 1s-.33333333 1-1 1z" fill-rule="nonzero"/></g></g></svg>