<svg height="24" viewBox="0 0 24 24" width="24" xmlns="http://www.w3.org/2000/svg"><g fill="none" fill-rule="evenodd"><path d="m0 0h24v24h-24z" opacity="0"/><g fill="#000"><path d="m15 9h-2v-4h2zm0 6v5h-2v-5zm-10-6h-3v-3c0-.55228475.44771525-1 1-1h2zm0 6v5h-2c-.55228475 0-1-.4477153-1-1v-4zm13-6h-2v-4h2zm0 6v5h-2v-5zm4-6h-2v-4h1c.5522847 0 1 .44771525 1 1zm0 6v4c0 .5522847-.4477153 1-1 1h-1v-5z"/><path d="m9 9h-2v-4h2zm0 6v5h-2v-5z" opacity=".3"/><rect height="2" opacity=".3" rx="1" width="24" y="11"/></g></g></svg>