<svg height="24" viewBox="0 0 24 24" width="24" xmlns="http://www.w3.org/2000/svg"><g fill="none" fill-rule="evenodd"><path d="m0 0h24v24h-24z" opacity="0"/><g fill="#000"><rect height="5" opacity=".3" rx="1" width="2" x="11" y="2"/><rect height="5" opacity=".3" rx="1" width="2" x="11" y="16"/><path d="m17.875 14.086c0 .7346703-.1456652 1.3521642-.437 1.8525s-.6776643.9024985-1.159 1.2065-1.0291636.5224993-1.6435.6555-1.2444968.1995-1.8905.1995h-5.745v-13.452h5.745c.5193359 0 1.0513306.05383279 1.596.1615.5446694.1076672 1.0386644.29133204 1.482.551s.8043319.61116445 1.083 1.0545.418 1.00699658.418 1.691c0 .74733707-.2026646 1.3648309-.608 1.8525s-.93733.8391656-1.596 1.0545c.3800019.1013337.7378317.2184991 1.0735.3895s.6269988.3894987.874.6555.4433326.5763316.589.931.2185.7536645.2185 1.197zm-3.686-5.643c0-.45600228-.1741649-.78849895-.5225-.9975-.3483351-.20900104-.8644966-.3135-1.5485-.3135h-1.596v2.774h1.748c.608003 0 1.0798317-.12349876 1.4155-.3705.3356683-.24700123.5035-.61116426.5035-1.0925zm.437 5.339c0-.5573361-.2089979-.9436656-.627-1.159s-.9753299-.323-1.672-.323h-1.805v3.078h1.824c.2533346 0 .5161653-.0221664.7885-.0665s.5193322-.1234994.741-.2375.402166-.275499.5415-.4845.209-.478165.209-.8075z"/></g></g></svg>