<svg height="24" viewBox="0 0 24 24" width="24" xmlns="http://www.w3.org/2000/svg"><g fill="none" fill-rule="evenodd"><path d="m0 0h24v24h-24z" opacity="0"/><g fill="#000"><path d="m4 9.67471899 6.880262 3.97232111c.0740866.0427739.1517713.0736706.2308491.0932809v7.7041234l-6.62040983-3.9179714c-.30414988-.1799965-.49070127-.5071696-.49070127-.8605898zm16-.10560192v7.09676613c0 .3534202-.1865514.6805933-.4907013.8605898l-6.6204098 3.9179714v-7.7716169c.0161302-.0080579.0321178-.0166517.0479412-.0257874z"/><path d="m4.21611835 7.74669402c.08404004-.10612525.19011353-.19581828.31378245-.26168704l7-3.72835232c.2938581-.15651522.6463403-.15651522.9401984 0l7 3.72835232c.0953315.05077564.1802074.1157083.2525947.19141191l-7.6747526 4.43102051c-.0504652.029136-.0969925.0624733-.1393952.0993149-.0424028-.0368416-.0889301-.0701789-.1393952-.0993149z" opacity=".3"/></g></g></svg>