<svg height="24" viewBox="0 0 24 24" width="24" xmlns="http://www.w3.org/2000/svg"><g fill="none" fill-rule="evenodd"><path d="m0 0h24v24h-24z" opacity="0"/><g fill="#000"><path d="m20.4061385 6.73606154c.361128.16050134.5938615.51862283.5938615.91381155v8.76172361c0 .3631671-.1968919.6977877-.5143571.8741572l-8 4.4444445c-.3020225.1677903-.6692633.1677903-.9712858 0l-8.00000003-4.4444445c-.31746519-.1763695-.51435707-.5109901-.51435707-.8741572v-8.76172361c0-.39518872.23273352-.75331021.59386153-.91381155l7.99999997-3.55555556c.2585654-.11491793.5537116-.11491793.812277 0z" opacity=".3"/><path d="m14.9671522 4.22441676-7.3671523 4.09286236v4.58840338l2 1v-4.41159668l7.6550701-4.2528167z"/></g></g></svg>