<svg height="24" viewBox="0 0 24 24" width="24" xmlns="http://www.w3.org/2000/svg"><g fill="none" fill-rule="evenodd"><path d="m0 0h24v24h-24z" opacity="0"/><g fill="#000"><path d="m12 4.56204994-4.23177872 5.07813446c-.35356408.4242769-.98412878.481601-1.40840568.12803688-.4242769-.35356408-.48160096-.98412878-.12803688-1.40840568l4.99999998-6c.3997951-.47975413 1.1366475-.47975413 1.5364426 0l5 6c.3535641.4242769.29624 1.0548416-.1280369 1.40840568-.4242769.35356412-1.0548416.29624002-1.4084057-.12803688z" fill-rule="nonzero" opacity=".3"/><path d="m3.28077641 9h17.43844719c.5522847 0 1 .44771525 1 1 0 .0817618-.0100274.163215-.0298575.2425356l-2.1212678 8.4850713c-.3338753 1.335501-1.5338246 2.2723931-2.9104275 2.2723931h-9.31534158c-1.37660293 0-2.57655225-.9368921-2.9104275-2.2723931l-2.12126781-8.4850713c-.13394873-.53579488.19181196-1.07872937.72760687-1.2126781.07932061-.01983015.16077382-.0298575.24253563-.0298575zm8.71922359 3c-.5522847 0-1 .4477153-1 1v4c0 .5522847.4477153 1 1 1s1-.4477153 1-1v-4c0-.5522847-.4477153-1-1-1zm-5.03527618.1362967c-.5334661.1429418-.85004859.6912788-.70710678 1.2247449l1.03527618 3.8637033c.14294181.5334661.69127877.8500486 1.22474487.7071068.5334661-.1429419.85004859-.6912788.70710678-1.2247449l-1.03527618-3.8637033c-.14294181-.5334661-.69127877-.8500486-1.22474487-.7071068zm10.07055238 0c-.5334661-.1429418-1.0818031.1736407-1.2247449.7071068l-1.0352762 3.8637033c-.1429418.5334661.1736407 1.081803.7071068 1.2247449.5334661.1429418 1.0818031-.1736407 1.2247449-.7071068l1.0352762-3.8637033c.1429418-.5334661-.1736407-1.0818031-.7071068-1.2247449z"/></g></g></svg>