<svg height="24" viewBox="0 0 24 24" width="24" xmlns="http://www.w3.org/2000/svg"><g fill="none" fill-rule="evenodd"><path d="m0 0h24v24h-24z" opacity="0"/><g fill="#000"><path d="m18.1446364 11.84388-.6974737 4.1848418c-.0008058.004835-.0016472.0096639-.002524.0144865-.0987957.5433763-.619379.9037801-1.1627554.8049844l-11.36884538-2.0670628c-.37461055-.068111-.67803786-.3430465-.78263851-.7091487l-1.82479804-6.38679317c-.02552613-.08934147-.03847605-.1818046-.03847605-.27472113 0-.55228475.44771525-1 1-1h13.72585978l.6131879-2.62794814c.1246042-.5340179.6006903-.91180562 1.1490527-.91180562h2.0648564c.6516507 0 1.1799179.52826725 1.1799179 1.17991792s-.5282672 1.17991792-1.1799179 1.17991792h-1.1285583z" opacity=".3"/><path d="m6.5 21c-.82842712 0-1.5-.6715729-1.5-1.5s.67157288-1.5 1.5-1.5 1.5.6715729 1.5 1.5-.67157288 1.5-1.5 1.5zm9 0c-.8284271 0-1.5-.6715729-1.5-1.5s.6715729-1.5 1.5-1.5 1.5.6715729 1.5 1.5-.6715729 1.5-1.5 1.5z"/></g></g></svg>