<svg height="24" viewBox="0 0 24 24" width="24" xmlns="http://www.w3.org/2000/svg"><g fill="none" fill-rule="evenodd"><path d="m0 0h24v24h-24z" opacity="0"/><g fill="#000"><path d="m12 4.56204994-4.23177872 5.07813446c-.35356408.4242769-.98412878.481601-1.40840568.12803688-.4242769-.35356408-.48160096-.98412878-.12803688-1.40840568l4.99999998-6c.3997951-.47975413 1.1366475-.47975413 1.5364426 0l5 6c.3535641.4242769.29624 1.0548416-.1280369 1.40840568-.4242769.35356412-1.0548416.29624002-1.4084057-.12803688z" fill-rule="nonzero" opacity=".3"/><path d="m3.5 9h17c.5522847 0 1 .44771525 1 1 0 .132026-.0261438.2627452-.0769231.3846154l-3.6538461 8.7692308c-.4658087 1.1179408-1.5581282 1.8461538-2.7692308 1.8461538h-6c-1.21110255 0-2.3034221-.728213-2.76923077-1.8461538l-3.65384615-8.7692308c-.21241721-.50980132.02866023-1.09527511.53846154-1.30769232.12187017-.05077924.25258936-.07692308.38461538-.07692308zm8.5 8c1.1045695 0 2-.8954305 2-2s-.8954305-2-2-2-2 .8954305-2 2 .8954305 2 2 2z"/></g></g></svg>