<svg height="24" viewBox="0 0 24 24" width="24" xmlns="http://www.w3.org/2000/svg"><g fill="none" fill-rule="evenodd"><path d="m0 0h24v24h-24z" opacity="0"/><g fill="#000" fill-rule="nonzero"><path d="m5 19h15c.5522847 0 1 .4477153 1 1s-.4477153 1-1 1h-16c-.55228475 0-1-.4477153-1-1v-16c0-.55228475.44771525-1 1-1s1 .44771525 1 1z"/><path d="m8.7295372 14.6839411c-.37773025.4029123-1.01056606.4233264-1.41347833.0455961s-.42332633-1.0105661-.04559607-1.4134783l3.75-4.00000003c.3653097-.38966366.9723551-.42345599 1.3786565-.07674552l2.9597357 2.52564115 3.8562622-4.88459879c.3422201-.43347878.9710483-.50745857 1.4045271-.16523848.4334788.3422201.5074586.97104828.1652385 1.40452706l-4.5 5.70000001c-.3514855.445215-1.0025121.5092472-1.4340021.1410423l-3.0240513-2.5805238z" opacity=".3" transform="matrix(1 0 0 -1 0 21.499962)"/></g></g></svg>