<svg height="24" viewBox="0 0 24 24" width="24" xmlns="http://www.w3.org/2000/svg"><g fill="none" fill-rule="evenodd"><path d="m0 0h24v24h-24z" opacity="0"/><g fill="#000"><rect height="4" opacity=".3" rx="1" width="2" x="11.5" y="2"/><rect height="5" opacity=".3" rx="1" width="2" x="11.5" y="16"/><path d="m15.493 8.044c-.2786681-.35466844-.6428311-.63649896-1.0925-.8455-.4496689-.20900105-.8834979-.3135-1.3015-.3135-.2153344 0-.4338322.01899981-.6555.057s-.4211658.11083279-.5985.2185c-.1773342.1076672-.3261661.24699914-.4465.418-.1203339.17100085-.1805.38949867-.1805.6555 0 .22800114.0474995.41799924.1425.57s.2343324.28499943.418.399.4021654.21849952.6555.3135c.2533346.09500047.5383317.19316616.855.2945.4560023.15200076.9309975.3198324 1.425.5035s.9436646.4274985 1.349.7315.7409987.6808311 1.007 1.1305.399 1.0101633.399 1.6815c0 .7726705-.1424986 1.4408305-.4275 2.0045s-.6681643 1.0291648-1.1495 1.3965-1.0323302.6396658-1.653.817-1.26033.266-1.919.266c-.9626715 0-1.8936622-.1678317-2.793-.5035-.89933783-.3356683-1.64666369-.8138302-2.242-1.4345l2.128-2.166c.32933498.4053354.763164.7441653 1.3015 1.0165s1.0734973.4085 1.6055.4085c.2406679 0 .4749989-.0253331.703-.076s.4274991-.1329994.5985-.247.3071662-.2659991.4085-.456c.1013338-.190001.152-.4179987.152-.684 0-.2533346-.0633327-.4686658-.19-.646s-.3071655-.3388326-.5415-.4845-.5256649-.2786661-.874-.399-.7441645-.250166-1.1875-.3895c-.4306688-.139334-.8518313-.3039991-1.2635-.494-.41166873-.190001-.77899839-.4338318-1.102-.7315-.32300162-.2976682-.58266569-.6586645-.779-1.083-.19633432-.42433546-.2945-.94049696-.2945-1.5485 0-.74733707.15199848-1.38699734.456-1.919s.70299753-.96899829 1.197-1.311c.4940025-.34200171 1.0513302-.59216588 1.672-.7505.6206698-.15833413 1.2476635-.2375 1.881-.2375.7600038 0 1.5358294.13933194 2.3275.418s1.4851637.69033061 2.0805 1.235z"/></g></g></svg>