<svg height="24" viewBox="0 0 24 24" width="24" xmlns="http://www.w3.org/2000/svg"><g fill="none" fill-rule="evenodd"><path d="m0 0h24v24h-24z" opacity="0"/><g fill="#000"><path d="m4.3618034 10.2763932.5-1c.08469601-.16939201.25782757-.2763932.44721359-.2763932h9.88196601c.2761424 0 .5.22385763.5.5 0 .07762255-.0180725.15417908-.0527864.2236068l-.5 1c-.084696.169392-.2578276.2763932-.4472136.2763932h-9.88196601c-.27614237 0-.5-.2238576-.5-.5 0-.0776225.01807255-.1541791.05278641-.2236068zm10.2763932 3.4472136-.5 1c-.084696.169392-.2578276.2763932-.4472136.2763932h-8.88196601c-.27614237 0-.5-.2238576-.5-.5 0-.0776225.01807255-.1541791.05278641-.2236068l.5-1c.08469601-.169392.25782757-.2763932.44721359-.2763932h8.88196601c.2761424 0 .5.2238576.5.5 0 .0776225-.0180725.1541791-.0527864.2236068z" opacity=".3"/><path d="m17.369 7.618c-.392002-.53200266-.9029969-.92049878-1.533-1.1655-.6300032-.24500122-1.245997-.3675-1.848-.3675-.7700038 0-1.4699968.1399986-2.1.42-.6300031.2800014-1.1724977.66499755-1.6275 1.155-.45500227.49000245-.80499877 1.06399671-1.05 1.722-.24500122.6580033-.3675 1.3719961-.3675 2.142 0 .8120041.11899881 1.5539966.357 2.226s.5774978 1.2494976 1.0185 1.7325.9694969.8574987 1.5855 1.1235 1.3089962.399 2.079.399c.798004 0 1.5049969-.1574984 2.121-.4725s1.1129981-.7314974 1.491-1.2495l2.121 1.491c-.6580033.8260041-1.4629952 1.4664977-2.415 1.9215s-2.0649936.6825-3.339.6825c-1.1620058 0-2.2294951-.1924981-3.2025-.5775-.97300486-.3850019-1.8094965-.9239965-2.5095-1.617s-1.24599804-1.5189952-1.638-2.478-.588-2.0194942-.588-3.1815c0-1.190006.20649794-2.26449521.6195-3.2235.41300207-.95900479.9799964-1.77449664 1.701-2.4465.72100361-.67200336 1.5714951-1.18999818 2.5515-1.554s2.0439943-.546 3.192-.546c.4760024 0 .9729974.04549954 1.491.1365.5180026.09100045 1.0149976.23099906 1.491.42.4760024.18900095.9239979.4234986 1.344.7035s.7769985.61599804 1.071 1.008z"/></g></g></svg>