<svg height="24" viewBox="0 0 24 24" width="24" xmlns="http://www.w3.org/2000/svg"><g fill="none" fill-rule="evenodd"><path d="m0 0h24v24h-24z" opacity="0"/><g fill="#000"><path d="m4 6h16c.5522847 0 1 .44771525 1 1v1c0 .55228475-.4477153 1-1 1h-16c-.55228475 0-1-.44771525-1-1v-1c0-.55228475.44771525-1 1-1zm1 5h5c.5522847 0 1 .4477153 1 1v7c0 .5522847-.4477153 1-1 1h-5c-.55228475 0-1-.4477153-1-1v-7c0-.5522847.44771525-1 1-1zm9 0h5c.5522847 0 1 .4477153 1 1v7c0 .5522847-.4477153 1-1 1h-5c-.5522847 0-1-.4477153-1-1v-7c0-.5522847.4477153-1 1-1z"/><path d="m14.4452998 2.16794971c.4595287-.30635246 1.080398-.18217859 1.3867505.27735009.3063525.45952869.1821786 1.08039804-.2773501 1.38675049l-3.5547002 2.36980014-3.5547002-2.36980014c-.45952868-.30635245-.58370255-.9272218-.27735009-1.38675049.30635245-.45952868.9272218-.58370255 1.38675049-.27735009l2.4452998 1.63019986z" fill-rule="nonzero" opacity=".3"/></g></g></svg>