<svg height="24" viewBox="0 0 24 24" width="24" xmlns="http://www.w3.org/2000/svg"><g fill="none" fill-rule="evenodd"><path d="m0 0h24v24h-24z" opacity="0"/><g fill="#000"><path d="m10.8226874 8.36941377 1.909745 1.45357291c.6788188-.89185121 1.7268618-1.42298668 2.8675676-1.42298668 1.9882251 0 3.6 1.6117749 3.6 3.6s-1.6117749 3.6-3.6 3.6c-1.0185303 0-1.9636611-.4219453-2.6425959-1.1552324l-1.7610672 1.6305344c1.0959682 1.1837062 2.6632817 1.924698 4.4036631 1.924698 3.3137085 0 6-2.6862915 6-6s-2.6862915-6-6-6c-1.9492144 0-3.6813352.9294879-4.7773126 2.36941377z" fill-rule="nonzero" opacity=".3"/><path d="m8.4 18c-3.3137085 0-6-2.6862915-6-6s2.6862915-6 6-6 6 2.6862915 6 6-2.6862915 6-6 6z"/></g></g></svg>