<svg height="24" viewBox="0 0 24 24" width="24" xmlns="http://www.w3.org/2000/svg"><g fill="none" fill-rule="evenodd"><path d="m0 0h24v24h-24z" opacity="0"/><g fill="#000"><path d="m2 6h19c.5522847 0 1 .44771525 1 1v10c0 .5522847-.4477153 1-1 1h-19c-.55228475 0-1-.4477153-1-1v-10c0-.55228475.44771525-1 1-1zm9.5 10c2.209139 0 4-1.790861 4-4s-1.790861-4-4-4-4 1.790861-4 4 1.790861 4 4 4z" opacity=".3" transform="matrix(.96592583 .25881905 -.25881905 .96592583 3.497682 -2.567529)"/><path d="m2 6h19c.5522847 0 1 .44771525 1 1v10c0 .5522847-.4477153 1-1 1h-19c-.55228475 0-1-.4477153-1-1v-10c0-.55228475.44771525-1 1-1zm9.5 10c2.209139 0 4-1.790861 4-4s-1.790861-4-4-4-4 1.790861-4 4 1.790861 4 4 4zm0-2c1.1045695 0 2-.8954305 2-2s-.8954305-2-2-2-2 .8954305-2 2 .8954305 2 2 2z"/></g></g></svg>