<svg height="24" viewBox="0 0 24 24" width="24" xmlns="http://www.w3.org/2000/svg"><g fill="none" fill-rule="evenodd"><path d="m0 0h24v24h-24z" opacity="0"/><g fill="#000"><path d="m7.825 10.225c-.625-.75-.975-1.825-.975-2.85 0-2.825 2.3-5.325 5.5-5.325 3.1 0 5.45 2.4 5.525 5.375h-2.8c0-1.575-1.1-2.825-2.725-2.825-1.6 0-2.75 1.175-2.75 2.775 0 .89126781.4162926 1.68646809 1.0676674 2.20892078.045394.03640946.0561715 2.65010252.0323326 7.84107922h6.8444449c.2761424 0 .5.2238576.5.5 0 .0619142-.0114992.1232899-.0339128.1810047l-.6116504 1.575c-.0746799.1923005-.2597949.3189953-.4660873.3189953h-10.6327944c-.27614237 0-.5-.2238576-.5-.5v-1.575c0-.2761424.22385763-.5.5-.5h1.625v-4.95z"/><path d="m4.3618034 11.2763932.5-1c.08469601-.169392.25782757-.2763932.44721359-.2763932h9.88196601c.2761424 0 .5.2238576.5.5 0 .0776225-.0180725.1541791-.0527864.2236068l-.5 1c-.084696.169392-.2578276.2763932-.4472136.2763932h-9.88196601c-.27614237 0-.5-.2238576-.5-.5 0-.0776225.01807255-.1541791.05278641-.2236068z" opacity=".3"/></g></g></svg>