<svg height="24" viewBox="0 0 24 24" width="24" xmlns="http://www.w3.org/2000/svg"><g fill="none" fill-rule="evenodd"><path d="m0 0h24v24h-24z" opacity="0"/><g fill="#000" opacity=".3" transform="matrix(.70710678 .70710678 -.70710678 .70710678 15.681981 -.374369)"><path d="m.35355339 7.14644661h3c.05651821 0 .11194132-.0046887.16590157-.01369835.4079438 1.17234234 1.5227665 2.01369835 2.83409843 2.01369835 1.65685425 0 3-1.34314575 3-3s-1.34314575-3-3-3c-1.31133193 0-2.42615463.84135601-2.83409843 2.01369835-.05396025-.00900965-.10938336-.01369835-.16590157-.01369835h-2.91704156c.47607809-2.83771334 2.94404527-5 5.91704156-5 3.3137085 0 6.00000001 2.6862915 6.00000001 6v12.99999999c0 1.1045695-.8954305 2-2 2h-8.00000001c-1.1045695 0-2-.8954305-2-2z"/><rect height="2" rx="1" width="8" x="2.353553" y="13.146447"/><rect height="2" rx="1" width="6" x="3.353553" y="17.146447"/></g></g></svg>