<svg height="24" viewBox="0 0 24 24" width="24" xmlns="http://www.w3.org/2000/svg"><g fill="none" fill-rule="evenodd"><path d="m0 0h24v24h-24z" opacity="0"/><path d="m3.52270623 14.028695c-.69694164-.7011009-.69694164-1.833405 0-2.5345059l8.09005667-7.95368339c.33618-.33051308.7887501-.51572431 1.2601904-.51572431h6.4544639c.9927439 0 1.7975218.80477795 1.7975218 1.79752186v6.43600264c0 .48236-.1938657.9444803-.5380119 1.2824663l-8.0766116 7.9320386c-.337158.3375334-.7946678.5271892-1.2717467.5271892s-.9345887-.1896558-1.2717467-.5271892zm13.40801517-5.01217407c.9927439 0 1.7975218-.80477795 1.7975218-1.79752186s-.8047779-1.79752186-1.7975218-1.79752186-1.7975219.80477795-1.7975219 1.79752186.804778 1.79752186 1.7975219 1.79752186z" fill="#000" fill-rule="nonzero" opacity=".3"/></g></svg>