<svg height="24" viewBox="0 0 24 24" width="24" xmlns="http://www.w3.org/2000/svg"><g fill="none" fill-rule="evenodd"><path d="m0 0h24v24h-24z" opacity="0"/><g fill="#000"><path d="m5.3618034 16.2763932.5-1c.08469601-.169392.25782757-.2763932.44721359-.2763932h9.88196601c.2761424 0 .5.2238576.5.5 0 .0776225-.0180725.1541791-.0527864.2236068l-.5 1c-.084696.169392-.2578276.2763932-.4472136.2763932h-9.88196601c-.27614237 0-.5-.2238576-.5-.5 0-.0776225.01807255-.1541791.05278641-.2236068z" opacity=".3"/><path d="m8 3.716h5.107c.935338 0 1.7786629.08433249 2.53.253s1.3953306.44466475 1.932.828c.5366693.38333525.9506652.87399701 1.242 1.472s.437 1.31866245.437 2.162c0 .90467119-.168665 1.6636636-.506 2.277s-.7934971 1.1078315-1.3685 1.4835-1.2458295.6478325-2.0125.8165-1.579329.253-2.438.253h-2.231v6.739h-2.692zm4.716 7.107c.4753357 0 .9276645-.0344997 1.357-.1035s.812665-.1916658 1.15-.368.6056657-.4178318.805-.7245.299-.70533088.299-1.196c0-.47533571-.0996657-.8624985-.299-1.1615-.1993343-.29900149-.4638317-.53283249-.7935-.7015s-.7053312-.27983306-1.127-.3335c-.4216688-.05366693-.8548311-.0805-1.2995-.0805h-2.116v4.669z"/></g></g></svg>