<svg height="24" viewBox="0 0 24 24" width="24" xmlns="http://www.w3.org/2000/svg"><g fill="none" fill-rule="evenodd"><path d="m0 0h24v24h-24z" opacity="0"/><g fill="#000"><path d="m6.5 16h1c.82842712 0 1.5.6715729 1.5 1.5v2c0 .8284271-.67157288 1.5-1.5 1.5h-1c-.82842712 0-1.5-.6715729-1.5-1.5v-2c0-.8284271.67157288-1.5 1.5-1.5zm10 0h1c.8284271 0 1.5.6715729 1.5 1.5v2c0 .8284271-.6715729 1.5-1.5 1.5h-1c-.8284271 0-1.5-.6715729-1.5-1.5v-2c0-.8284271.6715729-1.5 1.5-1.5z" opacity=".3"/><path d="m5 4h14c1.1045695 0 2 .8954305 2 2v11c0 1.1045695-.8954305 2-2 2h-14c-1.1045695 0-2-.8954305-2-2v-11c0-1.1045695.8954305-2 2-2zm10.5 11c1.9329966 0 3.5-1.5670034 3.5-3.5 0-1.93299662-1.5670034-3.5-3.5-3.5s-3.5 1.56700338-3.5 3.5c0 1.9329966 1.5670034 3.5 3.5 3.5zm0-2c.8284271 0 1.5-.6715729 1.5-1.5s-.6715729-1.5-1.5-1.5-1.5.6715729-1.5 1.5.6715729 1.5 1.5 1.5zm-8.5-5c.55228475 0 1 .44771525 1 1v2c0 .5522847-.44771525 1-1 1-.55228475 0-1-.4477153-1-1v-2c0-.55228475.44771525-1 1-1z"/></g></g></svg>