<svg height="24" viewBox="0 0 24 24" width="24" xmlns="http://www.w3.org/2000/svg"><g fill="none" fill-rule="evenodd"><path d="m0 0h24v24h-24z" opacity="0"/><g fill="#000"><path d="m16.0322024 5.68722152-10.27429837 10.25852048c-.63651327.6355358-.63730567 1.6667353-.00176987 2.3032486.00029475.0002952.00058961.0005903.00088459.0008853.63602472.6360247 1.66722453.6360247 2.30324925 0 .00029498-.000295.00058984-.0005901.0008846-.0008853l10.2585205-10.2742984c.6308393-.63180952.630446-1.65526757-.0008785-2.28659215-.6313246-.63132458-1.6547827-.6317178-2.2865922-.00087853z" fill-rule="nonzero"/><path d="m9.85714286 6.92857143c0 1.6187337-1.31018956 2.92857143-2.92708258 2.92857143s-2.93006028-1.30983773-2.93006028-2.92857143 1.31316726-2.92857143 2.93006028-2.92857143 2.92708258 1.30983773 2.92708258 2.92857143zm10.14285714 10.14285717c0 1.6187337-1.3101896 2.9285714-2.9270826 2.9285714s-2.9300603-1.3098377-2.9300603-2.9285714c0-1.6217039 1.3131673-2.9285715 2.9300603-2.9285715s2.9270826 1.3068676 2.9270826 2.9285715z" opacity=".3"/></g></g></svg>