<svg height="24" viewBox="0 0 24 24" width="24" xmlns="http://www.w3.org/2000/svg"><g fill="none" fill-rule="evenodd"><path d="m0 0h24v24h-24z" opacity="0"/><g fill="#000"><path d="m12 20.0218549-3.52653961 1.7067619-1.60440067-3.5742715-3.79857148-.9593604 1.06845518-3.7693397-2.29320954-3.1765875 3.24136898-2.20069189.28517064-3.90745385 3.8976102.39768399 2.7301163-2.80997916 2.7301163 2.80997916 3.8976102-.39768399.2851706 3.90745385 3.241369 2.20069189-2.2932095 3.1765875 1.0684552 3.7693397-3.7985715.9593604-1.6044007 3.5742715z" opacity=".3"/><path d="m14.0890818 8.60255815-5.72828443 6.09888095 1.34788884 1.3478889 5.72828449-6.098881z"/><path d="m10.8543431 9.1753866c0 .9498727-.7688191 1.7184853-1.71848533 1.7184853-.94791896 0-1.71848534-.7686126-1.71848534-1.7184853 0-.94987273.77056638-1.71848534 1.71848534-1.71848534.94966623 0 1.71848533.76861261 1.71848533 1.71848534" opacity=".3"/><path d="m14.8641422 16.6221564c-.9479189 0-1.7184853-.7686126-1.7184853-1.7184853 0-.9516156.7705664-1.7184854 1.7184853-1.7184854.9496663 0 1.7184854.7668698 1.7184854 1.7184854 0 .9498727-.7688191 1.7184853-1.7184854 1.7184853z" opacity=".3"/></g></g></svg>