<svg height="24" viewBox="0 0 24 24" width="24" xmlns="http://www.w3.org/2000/svg"><g fill="none" fill-rule="evenodd"><path d="m0 0h24v24h-24z" opacity="0"/><g fill="#000"><path d="m4.5 7h5c.8284271 0 1.5.67157288 1.5 1.5s-.6715729 1.5-1.5 1.5h-5c-.82842712 0-1.5-.67157288-1.5-1.5s.67157288-1.5 1.5-1.5zm9 8h5c.8284271 0 1.5.6715729 1.5 1.5s-.6715729 1.5-1.5 1.5h-5c-.8284271 0-1.5-.6715729-1.5-1.5s.6715729-1.5 1.5-1.5z" opacity=".3"/><path d="m17 11c-1.6568542 0-3-1.34314575-3-3s1.3431458-3 3-3 3 1.34314575 3 3-1.3431458 3-3 3zm-11 8c-1.65685425 0-3-1.3431458-3-3s1.34314575-3 3-3 3 1.3431458 3 3-1.34314575 3-3 3z"/></g></g></svg>