<svg height="24" viewBox="0 0 24 24" width="24" xmlns="http://www.w3.org/2000/svg"><g fill="none" fill-rule="evenodd"><path d="m0 0h24v24h-24z" opacity="0"/><path d="m18.5 6c.8284271 0 1.5.67157288 1.5 1.5v11c0 .8284271-.6715729 1.5-1.5 1.5s-1.5-.6715729-1.5-1.5v-11c0-.82842712.6715729-1.5 1.5-1.5zm-6 5c.8284271 0 1.5.6715729 1.5 1.5v6c0 .8284271-.6715729 1.5-1.5 1.5s-1.5-.6715729-1.5-1.5v-6c0-.8284271.6715729-1.5 1.5-1.5zm-6 4c.82842712 0 1.5.6715729 1.5 1.5v2c0 .8284271-.67157288 1.5-1.5 1.5s-1.5-.6715729-1.5-1.5v-2c0-.8284271.67157288-1.5 1.5-1.5z" fill="#000"/></g></svg>