<svg height="24" viewBox="0 0 24 24" width="24" xmlns="http://www.w3.org/2000/svg"><g fill="none" fill-rule="evenodd"><path d="m0 0h24v24h-24z" opacity="0"/><path d="m3 10.0500091v-2.0500091c0-.55228475.44771525-1 1-1h5v2c0 .55228475.44771525 1 1 1 .5522847 0 1-.44771525 1-1v-2h10c.5522847 0 1 .44771525 1 1v2.0500091c-1.1411202.2316351-2 1.2405119-2 2.4499909s.8588798 2.2183558 2 2.4499909v2.0500091c0 .5522847-.4477153 1-1 1h-10v-2c0-.5522847-.4477153-1-1-1-.55228475 0-1 .4477153-1 1v2h-5c-.55228475 0-1-.4477153-1-1v-2.0500091c1.14112016-.2316351 2-1.2405119 2-2.4499909s-.85887984-2.2183558-2-2.4499909zm7 .9499909c-.55228475 0-1 .4477153-1 1v1c0 .5522847.44771525 1 1 1 .5522847 0 1-.4477153 1-1v-1c0-.5522847-.4477153-1-1-1z" fill="#000" opacity=".3" transform="matrix(.70710678 -.70710678 .70710678 .70710678 -5.17767 12.5)"/></g></svg>