<svg height="24" viewBox="0 0 24 24" width="24" xmlns="http://www.w3.org/2000/svg"><g fill="none" fill-rule="evenodd"><path d="m0 0h24v24h-24z" opacity="0"/><g fill="#000"><circle cx="20.5" cy="12.5" opacity=".3" r="1.5"/><rect height="7" opacity=".3" rx="1" transform="matrix(.96592583 -.25881905 .25881905 .96592583 -1.273434 3.327311)" width="18" x="3" y="3"/><path d="m22 9.33681558c-.4546277-.21597006-.9632014-.33681558-1.5-.33681558-1.9329966 0-3.5 1.5670034-3.5 3.5s1.5670034 3.5 3.5 3.5c.5367986 0 1.0453723-.1208455 1.5-.3368156v2.3368156c0 1.1045695-.8954305 2-2 2h-16c-1.1045695 0-2-.8954305-2-2v-12c0-1.1045695.8954305-2 2-2h16c1.1045695 0 2 .8954305 2 2z"/></g></g></svg>