<svg fill="none" height="48" viewBox="0 0 48 48" width="48" xmlns="http://www.w3.org/2000/svg"><path d="m43.6487 0h-39.29739c-2.40318 0-4.35131 1.94813-4.35131 4.35131v39.29739c0 2.4032 1.94813 4.3513 4.35131 4.3513h39.29739c2.4032 0 4.3513-1.9481 4.3513-4.3513v-39.29739c0-2.40318-1.9481-4.35131-4.3513-4.35131z" fill="#dc395f"/><path d="m16.0416 15.1022c1.5956 0 2.9323-1.2506 2.9323-2.8898 0-1.638-1.3367-2.88839-2.9323-2.88839s-2.932 1.25039-2.932 2.88839c0 1.639 1.3364 2.8898 2.932 2.8898zm-6.07989 15.4725c-.17231.7331-.25875 1.5247-.25875 2.1705 0 2.5446 1.37984 4.2337 4.31214 4.2337 2.4319 0 4.4034-1.4441 5.823-3.776l-.8668 3.4787h4.829l2.76-11.0698c.69-2.8028 2.0267-4.2576 4.0536-4.2576 1.5954 0 2.5871.9922 2.5871 2.6302 0 .4746-.0431.9915-.2156 1.5524l-1.4231 5.0881c-.2157.7332-.3015 1.4667-.3015 2.1561 0 2.4156 1.4225 4.1824 4.398 4.1824 2.5442 0 4.5707-1.6378 5.6919-5.562l-1.8971-.7324c-.9488 2.6289-1.7681 3.1043-2.415 3.1043s-.9919-.4309-.9919-1.2929c0-.3881.0866-.8188.2156-1.3374l1.3802-4.9571c.3448-1.164.4744-2.1962.4744-3.1446 0-3.7084-2.2425-5.6437-4.959-5.6437-2.544 0-5.1315 2.2948-6.4249 4.71l.9484-4.335h-7.3733l-1.035 3.8182h3.4499l-2.1244 8.505c-1.6682 3.7084-4.7325 3.7686-5.1171 3.6825-.6315-.1425-1.0354-.3823-1.0354-1.2028 0-.4734.0863-1.1535.3019-1.9734l3.2344-12.8295h-8.19301l-1.035 3.8182h3.40631l-2.19881 8.9839" fill="#fff"/></svg>