<svg height="24" viewBox="0 0 24 24" width="24" xmlns="http://www.w3.org/2000/svg"><g fill="none" fill-rule="evenodd"><path d="m0 0h24v24h-24z" opacity="0"/><path d="m5 10.5c0-4.5 3-7.5 7.5-7.5s7.5 3.75 7.5 7.5c0 2.3325623-2.1763387 5.53566-6.529016 9.6092932-.5555822.5199645-1.4124786.5415399-1.9935285.0501993-4.31830368-3.6516612-6.4774555-6.871492-6.4774555-9.6594925zm7.5 1.5c1.3807119 0 2.5-1.1192881 2.5-2.5 0-1.38071187-1.1192881-2.5-2.5-2.5s-2.5 1.11928813-2.5 2.5c0 1.3807119 1.1192881 2.5 2.5 2.5z" fill="#000" fill-rule="nonzero"/></g></svg>