<svg height="493" viewBox="0 0 600 493" width="600" xmlns="http://www.w3.org/2000/svg" xmlns:xlink="http://www.w3.org/1999/xlink"><linearGradient id="a"><stop offset="0" stop-color="#eaf1fc"/><stop offset="1" stop-color="#c0d4f4"/></linearGradient><linearGradient id="b" x1="18.146724%" x2="86.162807%" xlink:href="#a" y1="1.431468%" y2="89.343936%"/><linearGradient id="c"><stop offset="0" stop-color="#4c93f4"/><stop offset="1" stop-color="#0b63da"/></linearGradient><linearGradient id="d" x1="72.979445%" x2="39.293554%" xlink:href="#c" y1="7.162334%" y2="69.987275%"/><linearGradient id="e" x1="84.058599%" x2="48.747925%" xlink:href="#c" y1="1.450319%" y2="51.779469%"/><linearGradient id="f" x1="627.420563%" x2="-99.804993%" xlink:href="#a" y1="21.840577%" y2="56.243723%"/><linearGradient id="g"><stop offset="0" stop-color="#223762"/><stop offset="1" stop-color="#041b48"/></linearGradient><linearGradient id="h" x1="-83.665359%" x2="122.181973%" xlink:href="#g" y1="14.988925%" y2="78.583907%"/><linearGradient id="i"><stop offset="0" stop-color="#3769a5"/><stop offset="1" stop-color="#08448b"/></linearGradient><linearGradient id="j" x1="-104.416924%" x2="138.353707%" xlink:href="#i" y1="23.994268%" y2="69.511325%"/><linearGradient id="k" x1="25.059397%" x2="61.035876%" xlink:href="#i" y1="55.524634%" y2="50.767356%"/><linearGradient id="l" x1="25.144011%" x2="61.108142%" xlink:href="#g" y1="55.92593%" y2="50.629759%"/><linearGradient id="m" x1="-105.287107%" x2="130.148121%" xlink:href="#g" y1="-1.765455%" y2="91.646271%"/><linearGradient id="n" x1="66.646905%" x2="86.945696%" xlink:href="#g" y1="100.102669%" y2="161.088296%"/><linearGradient id="o" x1="33.35705%" x2="13.055852%" xlink:href="#g" y1="100.102669%" y2="161.088296%"/><linearGradient id="p" x1="-194.122257%" x2="97.962382%" xlink:href="#g" y1="73.530906%" y2="45.376799%"/><linearGradient id="q" x1="1.707942%" x2="59.479078%" xlink:href="#g" y1="96.24198%" y2="40.925756%"/><linearGradient id="r" x1="62.035295%" x2="57.090388%" xlink:href="#g" y1="435.755102%" y2="277.142857%"/><linearGradient id="s" x1="61.614334%" x2="60.40762%" xlink:href="#g" y1="103.01937%" y2="97.259147%"/><linearGradient id="t" x1="73.013548%" x2="63.566459%" xlink:href="#g" y1="222.369447%" y2="151.519875%"/><linearGradient id="u" x1="-19.405102%" x2="-10.546476%" xlink:href="#i" y1="145.595027%" y2="136.329084%"/><linearGradient id="v" x1="25.101125%" x2="61.221496%" xlink:href="#c" y1="53.098395%" y2="48.777494%"/><linearGradient id="w" x1="52.632048%" x2="72.361272%" xlink:href="#i" y1="52.041875%" y2="57.783763%"/><linearGradient id="x"><stop offset="0" stop-color="#f8a695"/><stop offset="1" stop-color="#e56045"/></linearGradient><linearGradient id="y" x1="72.86432%" x2="38.848205%" xlink:href="#x" y1="79.762981%" y2="33.905267%"/><linearGradient id="z" x1="113.346867%" x2="71.549618%" xlink:href="#x" y1="-298.591791%" y2="-344.148216%"/><linearGradient id="A"><stop offset="0" stop-color="#ffc063"/><stop offset=".95" stop-color="#e44d0b"/></linearGradient><linearGradient id="B" x1="6.397071%" x2="79.253441%" xlink:href="#A" y1="16.500429%" y2="53.318079%"/><linearGradient id="C"><stop offset="0" stop-color="#ffc063"/><stop offset="1" stop-color="#e58f0f"/></linearGradient><linearGradient id="D" x1="82.77664%" x2="41.074545%" xlink:href="#C" y1="13.930712%" y2="65.147765%"/><linearGradient id="E" x1="-2.806216%" x2="94.633842%" xlink:href="#A" y1="1.507836%" y2="75.316658%"/><linearGradient id="F" x1="28.92292%" x2="44.704924%" xlink:href="#x" y1="106.507931%" y2="56.220759%"/><linearGradient id="G" x1="87.858609%" x2="74.053545%" xlink:href="#g" y1="24.662791%" y2="35.526001%"/><linearGradient id="H" x1="20.951281%" x2="83.85057%" xlink:href="#x" y1="86.562774%" y2="10.326953%"/><linearGradient id="I" x1="49.54578%" x2="28.331782%" xlink:href="#g" y1="30.034493%" y2="99.106183%"/><linearGradient id="J" x1="82.102118%" x2="51.167776%" xlink:href="#g" y1="82.406037%" y2="37.906378%"/><linearGradient id="K" x1="23.97605%" x2="-36.577367%" xlink:href="#C" y1="90.749825%" y2="178.956439%"/><linearGradient id="L" x1="49.991601%" x2="49.991601%" xlink:href="#i" y1="71.050698%" y2="-19.414458%"/><linearGradient id="M" x1="50%" x2="50%" xlink:href="#i" y1="24.998587%" y2="-2.628158%"/><linearGradient id="N"><stop offset="0" stop-color="#a7bde5"/><stop offset="1" stop-color="#2f66cb"/></linearGradient><linearGradient id="O" x1="50%" x2="50%" xlink:href="#N" y1="65.946985%" y2="-1.006048%"/><linearGradient id="P" x1="-7305.32415%" x2="-7305.32415%" xlink:href="#N" y1="65.946985%" y2="-1.006048%"/><linearGradient id="Q" x1="17.760083%" x2="44.738076%" xlink:href="#c" y1="-24.276241%" y2="38.741478%"/><linearGradient id="R" x1="3.2403%" x2="-.232791%" xlink:href="#A" y1="182.453066%" y2="140.475594%"/><linearGradient id="S" x1="72.48349%" x2="27.477853%" xlink:href="#c" y1="90.743998%" y2="29.958315%"/><linearGradient id="T" x1="74.755035%" x2="-31.827129%" xlink:href="#N" y1="95.655221%" y2="-100.981079%"/><linearGradient id="U" x1="-8457.11406%" x2="-8457.11406%" xlink:href="#N" y1="48.793308%" y2="-21.573504%"/><linearGradient id="V" x1="-8254.48438%" x2="-8254.48438%" xlink:href="#N" y1="48.793308%" y2="-21.573504%"/><linearGradient id="W" x1="100%" x2="0%" xlink:href="#g" y1="50.047483%" y2="50.047483%"/><linearGradient id="X" x1="-144.648576%" x2="165.717149%" xlink:href="#i" y1="10.450013%" y2="78.227322%"/><linearGradient id="Y" x1="-2.271554%" x2="81.621064%" xlink:href="#c" y1="-13.290927%" y2="88.282558%"/><linearGradient id="Z" x1="3.694378%" x2="96.635092%" xlink:href="#g" y1="47.258908%" y2="52.761523%"/><linearGradient id="aa" x1="110.22731%" x2="-20.273949%" xlink:href="#g" y1="2.861554%" y2="89.857391%"/><linearGradient id="ab" x1=".032765%" x2="100.032765%" xlink:href="#i" y1="50.010264%" y2="50.010264%"/><linearGradient id="ac" x1="89.936556%" x2="-63.187266%" xlink:href="#c" y1="2.068477%" y2="129.909473%"/><linearGradient id="ad" x1="110.025111%" x2="7.392922%" xlink:href="#i" y1="-8.271561%" y2="91.316087%"/><linearGradient id="ae"><stop offset="0" stop-color="#ff9f5b"/><stop offset="1" stop-color="#e5670e"/></linearGradient><linearGradient id="af" x1="137.767088%" x2="3.300145%" xlink:href="#ae" y1="8.262427%" y2="68.293775%"/><linearGradient id="ag" x1="312.595628%" x2="259.480874%" xlink:href="#ae" y1="50%" y2="50%"/><linearGradient id="ah" x1="251.830986%" x2="181.267606%" xlink:href="#c" y1="-249.526066%" y2="-144.78673%"/><linearGradient id="ai" x1="376.461295%" x2="271.721959%" xlink:href="#c" y1="269.859155%" y2="199.295775%"/><linearGradient id="aj" x1="367.951669%" x2="291.714614%" xlink:href="#c" y1="264.271047%" y2="212.833676%"/><linearGradient id="ak" x1="413.751438%" x2="337.514384%" xlink:href="#c" y1="295.277207%" y2="243.839836%"/><linearGradient id="al" x1="6.384527%" x2="62.776501%" xlink:href="#i" y1="-5.152602%" y2="87.030667%"/><linearGradient id="am" x1="24.413794%" x2="80.81394%" xlink:href="#c" y1="-7.970431%" y2="84.212838%"/><linearGradient id="an" x1="16.481452%" x2="97.329657%" xlink:href="#c" y1="-20.939764%" y2="111.198126%"/><linearGradient id="ao" x1="251.642336%" x2="181.20438%" xlink:href="#c" y1="-249.692623%" y2="-144.877049%"/><linearGradient id="ap" x1="251.642336%" x2="181.20438%" xlink:href="#c" y1="-249.795082%" y2="-144.979508%"/><linearGradient id="aq" x1="376.639344%" x2="271.82377%" xlink:href="#c" y1="269.890511%" y2="199.270073%"/><linearGradient id="ar" x1="376.639344%" x2="271.82377%" xlink:href="#c" y1="269.708029%" y2="199.270073%"/><linearGradient id="as" x1="368.059701%" x2="291.716418%" xlink:href="#c" y1="264.095745%" y2="212.632979%"/><linearGradient id="at" x1="413.880597%" x2="337.537313%" xlink:href="#c" y1="294.946809%" y2="243.617021%"/><linearGradient id="au" x1="61.921431%" x2="56.971995%" xlink:href="#g" y1="401.959184%" y2="255.755102%"/><linearGradient id="av" x1="3.561765%" x2="40.523036%" xlink:href="#A" y1="61.840523%" y2="44.700036%"/><linearGradient id="aw" x1="61.430182%" x2="26.191831%" xlink:href="#A" y1="-23.859495%" y2="164.513416%"/><linearGradient id="ax" x1="3.561172%" x2="40.522688%" xlink:href="#A" y1="61.918294%" y2="44.756472%"/><linearGradient id="ay" x1="3.589891%" x2="40.522688%" xlink:href="#A" y1="61.898605%" y2="44.742019%"/><linearGradient id="az" x1="61.430212%" x2="26.191844%" xlink:href="#A" y1="-23.853016%" y2="164.462427%"/><linearGradient id="aA" x1="44.524967%" x2="52.505524%" xlink:href="#A" y1="-54.989968%" y2="104.653682%"/><linearGradient id="aB" x1="65.361329%" x2="26.531142%" xlink:href="#c" y1="-2.753944%" y2="138.984224%"/><linearGradient id="aC" x1="42.268786%" x2="-31.213873%" xlink:href="#A" y1="38.932633%" y2="113.954506%"/><linearGradient id="aD" x1="62.646061%" x2="40.670939%" xlink:href="#c" y1="59.446565%" y2="24.260496%"/><linearGradient id="aE" x1="76.917737%" x2="32.072197%" xlink:href="#c" y1="122.921348%" y2="9.88764%"/><linearGradient id="aF" x1="-.281591%" x2="99.436818%" xlink:href="#A" y1="38.974676%" y2="67.387276%"/><linearGradient id="aG" x1="0%" x2="100%" xlink:href="#c" y1="49.970606%" y2="49.970606%"/><linearGradient id="aH" x1="7.078246%" x2="105.283749%" xlink:href="#c" y1="36.506722%" y2="62.179416%"/><linearGradient id="aI" x1="2.617202%" x2="112.378072%" xlink:href="#c" y1="42.002434%" y2="60.27702%"/><g fill="none" fill-rule="evenodd" transform="translate(0 -1)"><path d="m413.49 47.69c-119.66 33.1-217.49-43.42-279.21-46.54-92.8-4.68-187.28 97.78-63.28 277.16s174.83 219.82 310.42 201.37c108.49-14.76 180.93-117.61 201.79-189.68 32.64-112.84-50.06-275.4-169.72-242.31z" fill="url(#b)" opacity=".49"/><path d="m136.78 24.91h152.18v110.02h-152.18z" fill="#223762"/><path d="m135.03 24.91h150.33v110.02h-150.33z" fill="url(#d)"/><path d="m140.92 31.32h138.57v97.22h-138.57z" fill="url(#e)"/><path d="m140.92 31.32h2.72v97.22h-2.72z" fill="#223762"/><path d="m143.63 111.85 36.37-24.1 42.51 9.01 44.39-48.68 12.59 13.87v66.58h-135.86z" fill="#d6e3fa"/><g fill="#fff"><ellipse cx="165.22" cy="56.84" rx="8.94" ry="11.2"/><path d="m164.55 97.99 12.23 5.28 10.4-7.12 21.43-2.34-28.61-6.06z"/><path d="m252.62 63.73 9.81 5.9 6.35-4.33 6.76 2.73 4.25-1.35-.3-4.73-12.59-13.87z"/><path d="m143.63 118.82c11.054377-7.187106 24.366591-10.055995 37.4-8.06 22.09 3.28 24 14.62 44.73 9.85s29.24-28.35 38.73-26.56 15.3 11.95 15.3 11.95l-.31 22.54h-135.85z"/></g><path d="m143.63 120.61s15.31-9.25 37.4-6.57 24 11.93 44.73 8 29.24-23.09 38.73-21.63 15.3 9.74 15.3 9.74l-.31 18.39h-135.85z" fill="#3769a5"/><path d="m56 315.81c2.52-12.51 19.18-15.23 25.69-4.26 15.39 25.93 49.13 72.54 80 99.46 43.32 37.77-29.12 74.87-70.47 58.14s-39.34-131.77-35.37-152.72z" fill="url(#f)" opacity=".49"/><path d="m158.2 248.18s-5.13-2.3-7.3-4.74-13.52-17.5-15.61-17.93c-1.916874-.44826-3.933093.025274-5.45 1.28-1.37 1.21 21.16 45.21 21.16 45.21l20.1-6.93z" fill="url(#h)"/><path d="m129.84 226.79s-1.14 0-2.2 2.13-.34 12 3.11 19.3 7.33 21 8.1 22.57c1.174355 1.835392 3.282473 2.852704 5.45 2.63 1.88-.38 5.29-.88 6.71-1.37s2.7-2.72-2.4-11.73-7.92-13.19-10.42-20.41-3.58-11.1-5.37-12.13c-.889303-.585672-1.917026-.927097-2.98-.99z" fill="url(#j)"/><path d="m323.29 297.8s-49.78-42.56-65.19-52-98.51 0-99.44 0-3.73 5.81-3.73 11.51 7.77 13 7.77 13l73 2.65 85 36.12z" fill="url(#k)"/><path d="m208.24 248.76c-12.4.92-37.42 5-53.28 7.75v.84c0 5.69 7.77 13 7.77 13l73 2.65 85 36.12 2.62-11.26s-23.14-19.78-42.75-35.37c-26.23-6.57-61.02-14.57-72.36-13.73z" fill="url(#l)"/><path d="m171.24 269.55s-4.57-3.28-6.2-6.11-9.74-19.85-11.7-20.7c-1.788999-.825225-3.861037-.766024-5.6.16-1.58.89 11.65 48.58 11.65 48.58l21.09-2.76z" fill="url(#m)"/><path d="m359.56 472.96-77.94 9.74h84.34v-9.74z" fill="url(#n)"/><path d="m372.36 472.96 77.93 9.74h-84.33v-9.74z" fill="url(#o)"/><path d="m359.56 354.87h12.76v118.1h-12.76z" fill="url(#p)"/><path d="m354.23 360.94h23.42v21.82h-23.42z" fill="url(#q)"/><path d="m254.31 344.47h111.63v12.25h-111.63z" fill="url(#r)"/><path d="m462.45 203.75h-113.36c-2.76 0-5 2.69-5 6v.25c-.22621 14.782312-1.227586 29.542586-3 44.22-1.376475 11.816704-3.504114 23.533751-6.37 35.08-2.92 11.39-6.76 21.87-11.53 29.66-5.298631 8.66174-12.411977 16.071902-20.85 21.72-8.41 5.56-17.87 8.91-27.35 8.91-6.464113.003503-12.830306-1.579461-18.54-4.61-2.53-1.33-5.47.08-6.57 3.15s.07 6.63 2.6 8c6.185396 3.275312 13.010599 5.162481 20 5.53l.15.07h113.54l50.41-30.43 16.55-28.4 10.14-76.55z" fill="url(#s)"/><path d="m338.38 344.47h27.31v12.83h-27.31z" fill="url(#t)"/><path d="m455.31 209.78v.22c-.226265 14.78231-1.227641 29.542581-3 44.22-1.376475 11.816704-3.504114 23.533751-6.37 35.08-2.92 11.39-6.76 21.87-11.53 29.66-5.298631 8.66174-12.411977 16.071902-20.85 21.72-8.41 5.56-17.87 8.91-27.35 8.91-6.464113.003503-12.830306-1.579461-18.54-4.61-2.53-1.33-5.47.08-6.57 3.15s.07 6.63 2.6 8c6.9288 3.680751 14.654225 5.606957 22.5 5.61 11.43 0 22.46-4 32.14-10.39 9.76217-6.536379 17.985626-15.118118 24.1-25.15 5.92-9.73 10.15-21.79 13.33-34.44 4.76-19 7.11-39.32 8.32-55s1.24-26.71 1.24-26.84c0-3.34-2.22-6.06-5-6.07s-5 2.69-5 6z" fill="url(#u)"/><path d="m395.26 314.95s-5.33 15.95-25.78 25.44-50.5 14-69.37 8c-32-10-63.41-67.91-63.41-67.91l-60.41 10.31c-3.715473-3.638587-5.867596-8.581296-6-13.78v-9.2s62.93-15.9 76.62-16.22 71 49.17 74.15 51.81 15.91-14.89 15.91-14.89z" fill="url(#v)"/><path d="m323.29 331c-18.67 1.46-35.22-8.3-49.09-17.78s-22.88-42.1-43.33-42.58c-15.68-.37-46.58 6.91-60.15 10.33.90002 3.736311 2.829741 7.145369 5.57 9.84l60.41-10.31s31.46 57.87 63.41 67.91c18.87 5.93 48.93 1.46 69.37-8s25.78-25.41 25.78-25.41l-38.75-17.55c-7.43 12.91-20.72 32.61-33.22 33.55z" fill="url(#w)"/><path d="m394.62 112.47s1.35-1.6 8-4.87 20.52-1.68 21-1.16 3.93 13.72-2.87 17.83-12.83 5.4-16.35 4.58-8.78-1.63-8.78-1.63z" fill="url(#y)"/><path d="m474.79 132.85s.94-5-6.12-11.82-21-11.54-26.43-7.57-3.93 13.24-3.89 13.79 17.65 6.75 17.65 6.75l-8.1 1s10.14 6.08 14.29 7 12.6-9.15 12.6-9.15z" fill="url(#z)"/><path d="m383.82 179.16s-21.59-8.69-27.43-22.33 42.8-27.58 42.8-27.58.91-6.69 1.62-11.71-6.25-6-6.25-6-16.8 3-45.19 13.48c-21.31 7.85-22 10-25.11 21.28s25.44 49.69 36.86 73.88c6.88 14.62 22.7-41.02 22.7-41.02z" fill="url(#B)"/><path d="m416.41 184.28s22.08 1.74 27.48 5.6 9.3 13.63 10.87 23.35-17.86 67-35.18 88.58-21.4 19.51-21.4 19.51-58-6.65-68.66-12.86-15.52-12.8-15.52-12.8 27.7-45.47 34.1-69.86 11.71-41.6 22.7-44.9 23.69-3.43 23.69-3.43z" fill="url(#D)"/><path d="m454.76 213.22c-.48252-3.008155-1.187794-5.976319-2.11-8.88l-13.44.94s4.55 16.67 2.09 23.13-16.56 19.22-32.69 22 4.3 9.27 6 14.88-33.92 17.19-55.53 11c-9.662736-2.701203-19.040132-6.334945-28-10.85-8.62 16.47-17 30.28-17 30.28s4.81 6.59 15.52 12.8 68.66 12.86 68.66 12.86 4.08 2.09 21.4-19.51 36.67-78.93 35.1-88.65z" fill="url(#E)"/><path d="m397.82 177.72c-1.352282.392711-2.506086 1.282176-3.23 2.49-1.529656 2.920686-.850745 6.509805 1.64 8.67 3.09 2.56 14.28 4.66 19.82 2.54s4.69-6.11 4.69-6.11z" fill="#fff"/><path d="m400.67 160.31-2.85 17.42s1.23 4 8 6.65 14.95.94 14.95.94l6.5-16.36z" fill="url(#F)"/><path d="m414.1 98.54s-10.34 22.46-13.7 30.46 5.82 13.85 5.82 13.85l20.48-9.68 2.79-26.58z" fill="url(#G)"/><path d="m403.62 126.11c-3 9.27-6.57 20.5-6.45 31.56s18.23 20.4 27.48 15.2 16.13-16.54 16.13-16.54 6.34 3 9.89-1.27 6-11.65 3.47-14.25-6.67-.37-6.67-.37 4.71-9 .29-17.46-30.76-16.25-32.6-15.58-8.53 9.44-11.54 18.71z" fill="url(#H)"/><path d="m438.59 150.71s6.9-10.74 8-16.35-.44-10.22-5.66-14.65-23.33-9-26.78-11.65-5-5.32-.67-12.47 19.52-13.66 34.52-6.05 19.77 17.52 23.08 24.23-4.82 18.42-10.39 28.74-15 23.65-20.23 27.59-11.85.05-11.85.05l12.39-14.89s2.16 2.15 6.52-.23 8-8.19 7.39-11.87-5.68-4.82-8.71-1.54-7.61 9.09-7.61 9.09z" fill="url(#I)"/><path d="m410.86 132.66s-6.5 10.82-7.23 13.85 7.56 3.79 7.56 3.79" stroke="#eb6057" stroke-linecap="round" stroke-linejoin="round"/><path d="m453.29 112.77c-6.95-6.29-34.4-8.42-36.59-13.18-.68-1.48-.57-4.29-.09-7.47-1.214831 1.0000998-2.261449 2.188517-3.1 3.52-4.29 7.15-2.77 9.86.67 12.47s21.55 7.22 26.78 11.65 6.8 9 5.66 14.65-8 16.35-8 16.35 21.62-31.7 14.67-37.99z" fill="url(#J)"/><path d="m446.25 145.46s2.77-.64 2.75 1.63-.84 4.15-3.82 4.41c-.980226.053546-1.84296-.640955-2-1.61" stroke="#eb6057" stroke-linecap="round" stroke-linejoin="round"/><path d="m418.22 128.4s1.13 7.69 5.35 8.75c2.344827.669188 4.848595.510274 7.09-.45" stroke="#eb6057" stroke-linecap="round" stroke-linejoin="round"/><path d="m413.08 126.17s-2.86 2.61-5.38 2-.82-4.73-.82-4.73" stroke="#eb6057" stroke-linecap="round" stroke-linejoin="round"/><path d="m440.39 188.95s50.65-6.17 57.71-12.07-36.51-34.05-36.51-34.05 6.54-11.28 10.63-11.93l4.09-.65s51.39 28.76 56.34 42.7-24.1 34-40.56 40.76-38 15.69-47.68 12.73-12.43-16.91-9.48-26.38 5.46-11.11 5.46-11.11z" fill="url(#K)"/><path d="m205.67 482.68h12.12l-47.41-176.93h-12.12z" fill="url(#L)"/><path d="m110.48 482.68h-12.12l47.41-176.93h12.12z" fill="url(#L)"/><path d="m486.31 482.68h12.13l-47.41-176.93h-12.13z" fill="url(#M)"/><path d="m391.13 482.68h-12.13l47.41-176.93h12.13z" fill="url(#M)"/><path d="m144.82 482.68h12.13l-47.41-176.93h-12.13z" fill="url(#O)"/><path d="m49.64 482.68h-12.13l47.41-176.93h12.13z" fill="url(#P)"/><rect fill="#223762" height="76.27" rx="1.34" transform="matrix(-.1777718 .98407174 -.98407174 -.1777718 234.988033 125.115512)" width="3.92" x="63.264706" y="122.593337"/><circle cx="124.140952" cy="198.708167" fill="#ef8c48" opacity=".48" r="11.22" transform="matrix(.84329766 -.5374468 .5374468 .84329766 -87.34189 97.857193)"/><rect fill="#223762" height="76.27" rx="1.34" transform="matrix(-.1777718 .98407174 -.98407174 -.1777718 228.990065 114.568566)" width="3.92" x="64.671903" y="114.814102"/><rect fill="#223762" height="153.64" rx="1.34" transform="matrix(.98274218 -.18498058 .18498058 .98274218 -40.47345 13.237731)" width="3.92" x="48.748584" y="146.709252"/><rect fill="url(#Q)" height="53.54" rx="2.97" transform="matrix(-.84329766 .5374468 -.5374468 -.84329766 299.343861 267.792437)" width="13.26" x="104.002064" y="150.765779"/><circle cx="124.140952" cy="198.708167" fill="url(#R)" r="7.99" transform="matrix(.84329766 -.5374468 .5374468 .84329766 -87.34189 97.857193)"/><path d="m108.31 173.88c11-7 28-.24 37.8 15.18l-40 25.49c-9.83-15.42-8.84-33.63 2.2-40.67z" fill="url(#S)"/><path d="m146.11 189.06-10.75 6.85c-7.19-11.28-16.55-19.43-25.31-23 11.02-5.35 26.74 1.51 36.06 16.15z" fill="#223762"/><rect fill="#223762" height="153.64" rx="1.34" transform="matrix(.98274218 -.18498058 .18498058 .98274218 -40.878105 11.824586)" width="3.92" x="40.972749" y="148.171354"/><circle cx="35.78" cy="151.04" fill="#223762" r="9.57"/><circle cx="34" cy="151.04" fill="#4c93f4" r="9.57"/><circle cx="34" cy="151.04" fill="#223762" r="4.79"/><path d="m37.51 291.48h462.31v14.27h-462.31z" fill="url(#T)" transform="matrix(-1 0 0 -1 537.33 597.23)"/><path d="m414.75 291.48h85.07v14.27h-85.07z" fill="#3769a5" transform="matrix(-1 0 0 -1 914.57 597.23)"/><path d="m37.51 301.11h462.31v4.64h-462.31z" fill="#83a4d6" transform="matrix(-1 0 0 -1 537.33 606.86)"/><path d="m415.16 301.11h84.66v4.64h-84.66z" fill="#223762" transform="matrix(-1 0 0 -1 914.98 606.86)"/><path d="m427.39 482.68h12.12l-47.4-176.93h-12.13z" fill="url(#U)"/><path d="m332.21 482.68h-12.13l47.41-176.93h12.13z" fill="url(#V)"/><path d="m0 493.21h600l-41.18-10.53h-520.84z" fill="url(#W)"/><path d="m147.75 242.9s-1.13-.18-2.59 1.64-2.74 11.68-.82 19.53 3 22 3.41 23.73c.781985 2.033244 2.642425 3.452748 4.81 3.67 1.92 0 5.36.19 6.85 0s3.19-2.12 0-12-5.11-14.51-6.12-22.09-1.28-11.59-2.83-13c-.760654-.718689-1.694192-1.228518-2.71-1.48z" fill="url(#X)"/><path d="m81.83 291.51h44.6l-12.47-59.74h-44.6z" fill="#223762"/><path d="m77.92 291.51h45.41l-12.7-59.74h-45.41z" fill="url(#Y)"/><path d="m88.31 250.33-15.1 41.18h23.86l-6.37-41.18z" fill="#223762"/><path d="m90.7 250.33-15.09 41.18h23.85z" fill="#4c93f4"/><path d="m501.25 307.89c-8.81 33.4-4.78 66.24 8.61 90.22 23.48-14.26 43.18-40.84 52-74.24s4.78-66.24-8.61-90.22c-23.49 14.26-43.19 40.84-52 74.24z" fill="url(#Z)"/><path d="m536.3 306.55c-5.520304 15.523013-10.085503 31.369295-13.67 47.45-6.37 28-4.76 61.28-4.76 61.28" stroke="#124" stroke-linecap="round" stroke-linejoin="round"/><path d="m499.18 296.94s3.82 32.06 8.54 56.86 7.91 57.45 7.91 57.45" stroke="#124" stroke-linecap="round" stroke-linejoin="round"/><path d="m491.52 350.85s7.66 20.92 13.26 34.47 10.85 27.5 10.85 27.5" stroke="#124" stroke-linecap="round" stroke-linejoin="round"/><path d="m523.7 179.46c-4 29.26-.53 56.26 8.11 74.5 13.21-15.26 23.8-40.33 27.8-69.6s.53-56.26-8.11-74.5c-13.21 15.26-23.8 40.33-27.8 69.6z" fill="url(#aa)"/><path d="m496.56 226.39c1.2-26.79 3-75.15 4-103.34-18.59 23-30.52 58.27-30.52 97.86 0 39.13 11.66 74 29.88 97-2.01-26.99-4.46-67.13-3.36-91.52z" fill="url(#ab)"/><path d="m532.67 220.91c0-40.16-12.26-75.88-31.31-98.87-.27.33-.52.68-.79 1-1 28.19-2.81 76.55-4 103.34-1.09 24.39 1.35 64.53 3.37 91.56.48.6.94 1.24 1.43 1.83 19.04-22.98 31.3-58.71 31.3-98.86z" fill="url(#ac)"/><path d="m532.87 248.33c-7.22 24.08-6.29 47.7 1 64.9 15.55-10.36 29.32-29.57 36.54-53.65s6.29-47.7-1-64.9c-15.55 10.32-29.32 29.58-36.54 53.65z" fill="url(#ad)"/><path d="m550.27 482.68h-68.92l-10.23-89.32h89.39z" fill="url(#af)"/><path d="m471.12 393.36 10.23 89.32h26.37l-7.63-89.32z" fill="url(#ag)"/><path d="m467.62 390.81h96.37v22.01h-96.37z" fill="#ffd46a"/><ellipse cx="502.73" cy="232.72" fill="url(#ah)" rx="3.55" ry="6.33"/><ellipse cx="510.932599" cy="239.718463" fill="url(#ai)" rx="6.33" ry="3.55" transform="matrix(.70710678 -.70710678 .70710678 .70710678 -19.857857 431.495818)"/><ellipse cx="509.778214" cy="273.334566" fill="url(#aj)" rx="8.69" ry="4.87" transform="matrix(.70710678 -.70710678 .70710678 .70710678 -43.966143 440.525473)"/><ellipse cx="507.770348" cy="290.655087" fill="url(#ak)" rx="8.69" ry="4.87" transform="matrix(.42214366 -.90652895 .90652895 .42214366 29.931064 628.265402)"/><path d="m449.48 309.35c11 27.75 29.25 49.08 48.71 59.74-26.95-30.44-54.19-136.63-54.19-136.63-6.83 21.1-5.51 49.14 5.48 76.89z" fill="url(#al)"/><path d="m492.75 292.2c-11-27.75-29.25-49.08-48.71-59.74 0 0 27.21 106.19 54.15 136.63 6.87-21.09 5.55-49.14-5.44-76.89z" fill="url(#am)"/><path d="m492.75 292.2c-11-27.75-29.25-49.08-48.71-59.74 0 0 27.21 106.19 54.15 136.63 6.87-21.09 5.55-49.14-5.44-76.89z" fill="url(#an)"/><ellipse cx="473.883537" cy="312.44026" fill="url(#ao)" rx="2.74" ry="4.88" transform="matrix(.9223359 -.38638903 .38638903 .9223359 -83.919752 207.36879)"/><ellipse cx="491.517023" cy="315.264569" fill="url(#ap)" rx="2.74" ry="4.88" transform="matrix(.9223359 -.38638903 .38638903 .9223359 -83.641545 214.401523)"/><ellipse cx="483.7361" cy="313.0846" fill="url(#aq)" rx="4.902639" ry="2.752712" transform="matrix(.37824522 -.92570543 .92570543 .37824522 10.941115 642.458982)"/><ellipse cx="483.230559" cy="324.408933" fill="url(#ar)" rx="4.88" ry="2.74" transform="matrix(.37897167 -.92540827 .92540827 .37897167 -.110843 648.652696)"/><ellipse cx="490.99593" cy="339.224125" fill="url(#as)" rx="6.7" ry="3.76" transform="matrix(.37897167 -.92540827 .92540827 .37897167 -8.998429 665.039489)"/><ellipse cx="494.729179" cy="352.143287" fill="url(#at)" rx="6.7" ry="3.76" transform="matrix(.03908542 -.99923587 .99923587 .03908542 123.518278 832.730763)"/><path d="m254.25 356.72h99.52l3.32-12.25h-102.84z" fill="url(#au)"/><path d="m248.27 178.71h-27.27c-2.060022 0-3.73 1.669978-3.73 3.73v16.79c-.010683.99617.377576 1.955218 1.078248 2.663404s1.655525 1.106653 2.651752 1.106596h6l5.62 7.68h2.06l7.68-7.68h6c2.060022 0 3.73-1.669978 3.73-3.73v-16.82c.002992-1.006784-.401132-1.972022-1.120531-2.676356-.7194-.704333-1.692974-1.087941-2.699469-1.063644z" fill="url(#av)"/><path d="m246.2 178.71h-27.26c-2.060022 0-3.73 1.669978-3.73 3.73v16.79c0 2.060022 1.669978 3.73 3.73 3.73h6l7.68 7.68 7.68-7.68h6c2.060022 0 3.73-1.669978 3.73-3.73v-16.78c.003067-1.008563-.402423-1.975382-1.124016-2.680018-.721593-.704637-1.697779-1.087026-2.705984-1.059982z" fill="url(#aw)"/><path d="m206.79 127.7h-27.26c-2.060022 0-3.73 1.669978-3.73 3.73v16.79c0 2.060022 1.669978 3.73 3.73 3.73h6l5.62 7.68h2.06l7.68-7.68h6c2.060022 0 3.73-1.669978 3.73-3.73v-16.79c.000362-1.00683-.406316-1.971045-1.127607-2.673503-.72129-.702458-1.695925-1.08349-2.702393-1.056497z" fill="url(#ax)"/><path d="m204.73 127.7h-27.26c-2.060022 0-3.73 1.669978-3.73 3.73v16.79c0 2.060022 1.669978 3.73 3.73 3.73h6l7.68 7.68 7.68-7.68h6c2.060022 0 3.73-1.669978 3.73-3.73v-16.79c.000362-1.00683-.406316-1.971045-1.127607-2.673503-.72129-.702458-1.695925-1.08349-2.702393-1.056497z" fill="url(#aw)"/><path d="m295.41 146.77h-27.27c-2.060022 0-3.73 1.669978-3.73 3.73v16.8c0 2.060022 1.669978 3.73 3.73 3.73h6l5.62 7.68h2.06l7.68-7.68h6c2.060022 0 3.73-1.669978 3.73-3.73v-16.8c.000293-1.00505-.405019-1.967689-1.124117-2.669845-.719099-.702156-1.691125-1.084406-2.695883-1.060155z" fill="url(#ay)"/><path d="m293.35 146.77h-27.27c-.989258 0-1.937998.392981-2.637508 1.092492-.699511.69951-1.092492 1.64825-1.092492 2.637508v16.8c0 .989258.392981 1.937998 1.092492 2.637508.69951.699511 1.64825 1.092492 2.637508 1.092492h6l7.68 7.68 7.68-7.68h6c2.060022 0 3.73-1.669978 3.73-3.73v-16.8c.000293-1.00505-.405019-1.967689-1.124117-2.669845-.719099-.702156-1.691125-1.084406-2.695883-1.060155z" fill="url(#az)"/><path d="m252.87 291.55s-34.07.38-47.9-.77-19.25-9.68-20.53-13.5c-.744176-2.095331-1.175477-4.2889-1.28-6.51h-43.44c.104523 2.2211.535824 4.414669 1.28 6.51 1.28 3.82 6.7 12.35 20.53 13.5s47.9.77 47.9.77z" fill="url(#aA)"/><rect fill="#223762" height="5.22" rx=".56" width="44.65" x="286.63" y="286.26"/><path d="m210.12 291.48h83.63c1.63 0 2.6-1.6 2.17-3.57l-14.17-65.12c-.43-2-2.1-3.57-3.72-3.57h-83.63c-1.63 0-2.6 1.6-2.17 3.57l14.17 65.12c.43 1.97 2.1 3.57 3.72 3.57z" fill="#223762"/><path d="m206 291.48h83.63c1.63 0 2.6-1.6 2.17-3.57l-14.17-65.12c-.43-2-2.1-3.57-3.72-3.57h-83.61c-1.63 0-2.6 1.6-2.17 3.57l14.17 65.12c.42 1.97 2.09 3.57 3.7 3.57z" fill="url(#aB)"/><path d="m235.88 248.53c-.452588-1.074092-.787865-2.193916-1-3.34-.949836-.026758-1.879477.277231-2.63.86-3 2.28-3.58 8.28-1.34 13.4s6.48 7.42 9.46 5.13c2.35-1.8 3.19-5.9 2.36-10.06-2.52-.05-5.22-2.26-6.85-5.99z" fill="#d6e3fa"/><path d="m317.71 249.5v-13.33l12.2-9.53 1.64 2.44-10.79 8.43v11.99z" fill="url(#aC)"/><path d="m329.37 292.24h-19.36l-3.58-41.92h26.53z" fill="url(#aD)"/><path d="m332.92 247.8h-26.26l-1.37 4.45h28.81z" fill="url(#aE)"/><path d="m342.26 270.03-3.8 3.2-3.08-1.6-.68 5.09 13.77 9.5 11.34-5.33 3.3-.97v-6.59z" fill="url(#aF)"/><path d="m337.71 291.79-4.75-17.01h34.61l-2.03 17.01z" fill="url(#aG)"/><path d="m365.54 291.79h18.52l4.94-17.01h-21.43z" fill="url(#aG)"/><path d="m345.88 256.37-7.42 16.02 34.17 5.55.72-17.11z" fill="url(#aH)"/><path d="m373.35 260.83 18.28 2.97 2.16 17.57-21.16-3.43z" fill="url(#aI)"/></g></svg>