<svg fill="none" height="266" viewBox="0 0 580 266" width="580" xmlns="http://www.w3.org/2000/svg"><path clip-rule="evenodd" d="m56 189.614 133.817-119.7316 26.764 14.086 92.967-78.8817 35.215 40.8495 36.624-29.5807 152.129 191.5695 46.484 26.764h-524z" fill="#fff" fill-rule="evenodd"/><path d="m0 235 56-46v45.495z" fill="#fff"/><g clip-rule="evenodd" fill="#000" fill-rule="evenodd"><path d="m272.797 225.825c-1.475-.176-2.854-.438-4.085-1.283-.43-.296-.905-.074-.896.549.007.493-.298 1.499.448 1.31 1.501-.383 3.051.173 4.533-.576zm72.414-1.54c-.039-.624-.045-1.284-.96-1.244-1.143.054-1.733.678-1.808 1.791-.042.617.155 1.256.874 1.129.898-.157 1.994-.295 1.894-1.676zm-.928 5.704c-.703.056-1.323-.238-1.634.267-.407.662.476.869.658 1.353.132.357.43.652.604.998.211.424.483.672.893.303.395-.355 1.499-.037 1.065-1.227-.335-.924-.017-2.37-1.586-1.694zm12.949-.22c-1.52-.909-2.768-2.188-4.631-1.278-.609.298-.914.489-.317 1.157.951 1.068 2.709 1.179 4.948.121zm-94.139-10.686c-4.674 2.505-9.911 3.412-14.16 6.577 1.377.21 2.712.141 4.039.228 1.489.099 2.828-.007 4.103-.983 1.468-1.124 3.006-2.269 4.696-2.958 1.494-.609 1.787-1.368 1.322-2.864zm107.506-9.236c.08 2.713-1.154 4.908-3.371 5.502-1.558.418-2.977 1.195-4.596 1.513-1.678.331-2.18 1.978-1.029 3.045 1.872 1.741 1.433 3.727.759 5.698-.628 1.844-2.163 2.996-3.976 4.225.62 0 .982.098 1.256-.015 3.826-1.57 7.948-.487 11.834-1.321 2.961-.637 5.926-.749 8.846-.224 3.522.633 7.05 1.296 10.503 2.286.734.21.859.638.852 1.222-.02 1.296-.12 2.59-.103 3.883.018 1.145-.618 1.216-1.416.92-2.873-1.072-5.902-1.566-8.824-2.45-4.052-1.225-8.23-1.346-12.36-.921-2.897.3-5.845.024-8.7.771-2.773.725-5.777.67-8.139 2.727-.906.79-2.106.384-2.982-.198-1.102-.729-2.244-.912-3.508-.966-7.199-.304-14.397-.642-21.592-1.006-.945-.049-1.881-.308-2.819-.478-2.642-.479-5.089.304-7.537 1.135-1.588.539-3.185 1.066-4.806 1.479-1.56.396-1.84.062-1.513-1.527.38-1.85.281-2.004-1.646-2.124-5.775-.355-11.573.105-17.345-.492-3.234-.334-6.473-.645-9.717-.82-2.017-.108-4.047.061-6.072.099-.447.007-.913.062-1.335-.042-.461-.114-.882-.641-1.37-.147-.515.526-.379 1.2-.09 1.736.6 1.108.823 2.231-.321 2.984-1.027.679-2.344.616-3.362-.054-1.334-.879-2.617-1.877-2.748-3.743-.067-.927-2.199-1.414-3.64-1.474-3.158-.126-5.306 2.012-7.897 3.14-1.4.609-2.673 1.822-4.268.445-.935.402-1.413.536-1.641-.167-.186-.571-.07-1.098.442-1.509.607-.486 1.485-.606 1.896-1.449-1.169-.745-2.491-.602-3.786-.652-8.214-.317-16.421-.951-24.645-.778-3.923.082-7.839.576-11.75.948-.581.055-1.306.315-1.658.735-1.401 1.676-3.001 1.772-4.829.893-1.934-.929-3.874-.091-5.808.003-.784.038-1.572.303-2.341.248-3.269-.238-6.532.206-9.736.53-3.436.346-6.849-.121-10.229.293-3.659.448-7.336.632-10.993 1.208-3.215.507-6.401 1.157-9.581 1.784-4.35.856-8.8 1.425-12.905 3.273-.764.344-1.581.671-2.204 1.204-.914.788-1.7 1.01-2.616.092-.3-.301-.669-.361-1.084-.213-4.984 1.775-10.22 2.63-15.27 4.142-4.866 1.458-9.657 3.17-14.469 4.809-6.9218 2.359-13.5084 5.471-20.0274 8.77-5.433 2.752-15.7053 2.93-21.289 5.364-1.0903.476-2.4144.852-3.7342.817-1.3819-.038-2.9172-1.061-3.1426-2.174-.2226-1.105.8156-2.51 2.2777-2.921 4.5765-1.288 13.4417-1.117 17.6238-3.335 2.0932-1.108 4.2935-2.203 6.5331-3.141 2.706-1.132 5.3302-2.61 8.0248-3.782 3.6709-1.597 7.3586-3.197 11.1608-4.537 5.269-1.857 10.718-3.093 15.968-5.001 3.345-1.217 6.766-2.165 10.292-2.831 2.651-.501 5.174-1.669 7.77-2.49 2.544-.805 4.803-2.253 7.302-3.153.443-.159.827-.394.855-.931.024-.503-.177-.841-.691-1.011-1.861-.623-1.488-2.399-1.612-3.699-.08-.838 1.019-1.464 1.964-1.847 1.356-.551 1.413-1.193.327-2.21-1.788-1.675-1.516-3.455.739-4.351 5.811-2.309 11.317-5.199 16.591-8.545.418-.264.969-.381.945-1.039-.02-.492-.014-.982-.75-.581-2.71 1.482-5.779 1.909-8.653 2.913-.736.258-1.524.343-2.324.179-1.169-.236-2.307-.262-3.468.21-.642.261-1.475.413-1.87-.525-.339-.804.154-1.344.757-1.627 2.017-.945 3.158-2.902 4.914-4.14 1.912-1.348 3.989-2.395 6.106-3.379 1.669-.776 3.304-1.633 4.964-2.433.324-.156.649-.268.463-.714-.167-.407-.536-.363-.862-.29-.821.184-1.639.386-2.451.611-2.179.606-4.961-.475-5.744-2.28-.544-1.254-.38-2.365 1.007-2.906 3.567-1.396 7.054-3.015 10.852-3.767 3.334-.661 3.344-.71 5.019 2.278.241.431.458.811.942.835 3.208.161 4.46 2.296 4.744 5.043.183 1.756 1.036 1.828 2.341 1.617 2.816-.455 5.274 1.769 5.191 4.661-.022.735-.363 1.056-1.062 1.283-1.848.602-3.661 1.313-5.488 1.972-.322.117-.625.243-.83.768 3.611.076 2.758 3.348 3.832 5.282.184.333-.045.758-.366.836-1.579.37-1.178.877-.344 1.814.93 1.041.969 2.561 1.43 3.855.25.702-.474 1.399-1.122 1.406-1.332.014-2.304.808-3.431 1.254-3.733 1.474-7.364 3.16-10.75 5.331-.455.292-.964.287-1.429.461-.415.155-.873.453-.796.925.078.473.623.413.995.381 1.51-.133 3.014-.35 4.527-.451 3.957-.265 7.909-.523 11.887-.403 1.53.046 3.067-.597 4.659-.42.315.035.855-.06.691-.477-.665-1.691 1.057-3.271-.118-5.19-.747-1.218 1.23-2.51 2.273-2.735 3.16-.682 5.738-2.403 8.412-3.978 2.095-1.234 4.426-2.045 6.391-3.467-.222-.724-.831-.679-1.141-.51-1.504.819-3.251.739-4.81 1.574-2.237 1.2-4.751 1.889-7.146 2.797-3.226 1.562-4.457 1.219-6.072-1.273-1.358-2.093-.716-3.619 2.393-4.606 4.651-1.478 9.187-3.198 13.59-5.294.703-.334 1.171-.735 1.53-1.856-2.686 1.179-5.098 2.158-7.438 3.285-2.665 1.284-5.404.442-6.767-2.158-.733-1.4-.366-2.365.932-3.16 1.793-1.097 3.794-1.542 5.802-1.987 4.044-.899 7.481-3.139 11.074-5.025 2.103-1.104 4.123-2.368 6.205-3.513.346-.191.776-.196.717-.737-.075-.672-.62-.633-1.026-.553-1.866.37-3.742.725-5.575 1.228-2.578.707-5.178 1.323-7.747 2.074-1.71.501-2.638-1.226-3.665-2.22-1.579-1.526-.936-3.398 1.19-3.961.701-.188 1.386-.447 2.062-.713 3.827-1.51 7.35-3.589 10.815-5.782.885-.56 1.857-.982 2.58-1.991-1.425-.569-2.533.338-3.654.685-2.42.748-4.366.173-6.057-1.602-1.295-1.358-1.379-2.438-.037-3.69 3.648-3.402 7.429-6.645 11.759-9.179.72-.421 1.338-1.017 2.065-1.422 1.49-.832 2.851-.457 3.733 1.007.429.711.896 1.446 1.101 2.235.298 1.131.646 2.445-1.239 2.633-1.093.614-1.85 1.007-1.669 1.594.215.702 1.105.551 1.625.323 1.417-.621 2.996-.372 4.413-.945 2.813.424 4.65 3.499 4.239 5.299-.124.541-.448.649-.867.858-3.745 1.853-7.005 4.49-10.582 6.617-.25.15-.648.267-.637.934 1.675.302 3.372.052 5.061-.129 1.895-.205 3.786-.434 5.642-.896 1.305-.326 2.203.286 2.679 1.451.29.711.596 1.424.862 2.138.517 1.392-.143 2.241-1.553 2.548-.321.069-.76.044-.814.451-.055.42.227.735.638.876 2.078.718 1.822 2.888 2.632 4.375.308.571-.558 1.097-1.162 1.412-3.194 1.662-6.594 2.91-9.685 4.786-.281.17-.579.315-.86.485-.395.235-.809.478-.579 1.046.228.566.783.528 1.146.354.846-.403 1.805-.238 2.616-.579 1.793-.757 3.095-.058 3.671 1.517.899 2.455 2.69 4.485 3.158 7.148.203 1.164-.692 2.236-.438 2.944.245.685 1.596 1.129 1.837 2.151.242 1.022.321 2.046.839 3.025.454.853-.248 1.3-1.049 1.512-1.657.439-3.392.563-4.926 1.484-1.617.97-3.314 1.81-4.986 2.693-.269.142-.499.283-.412.624.152.597.627.534 1.086.516 1.574-.061 3.15-.186 4.722-.153 2.534.055 5.064.215 7.595.338.509.026 1.157.195 1.469-.169 1.095-1.267 2.157-2.518 3.658-3.369.434-.246.255-.925-.122-1.478-1.573-2.291-1.219-3.282 1.248-4.754 1.983-1.183 4.262-1.555 6.302-2.58 5.332-2.681 10.15-6.16 15.141-9.381 3.639-2.349 7.022-5.032 10.608-7.438.41-.275.569-.522.445-.934-.131-.441-.548-.353-.853-.293-.489.096-.964.271-1.44.426-6.901 2.252-13.631 4.933-20.147 8.127-2.443 1.198-4.803 2.578-6.987 4.211-1.111.832-2.027.776-2.963-.175-3.302-3.322-2.895-4.813 1.334-6.953 5.699-2.883 11.551-5.505 16.673-9.428.83-.636 1.888-.963 2.812-1.486.45-.256 1.289-.501 1.042-1.072-.268-.622-.944-.203-1.438.065-.54.29-1.09.566-1.655.799-4.163 1.718-8.181 3.785-12.507 5.105-.307.092-.576.323-.852.509-1.334.906-2.557.895-3.808-.245-1.82-1.659-2.204-2.665-1.523-4.407.181-.458.413-.692.932-.817 5.811-1.393 10.889-4.34 15.963-7.377 3.53-2.112 6.719-4.72 10.314-6.715.292-.162.541-.4.814-.598.289-.212.538-.495.397-.846-5.789.21-10.349 2.106-15.09 3.22-.907.213-1.765.681-2.61 1.103-1.807.906-3.782.244-4.623-1.591-1.078-2.361-.742-2.988 1.841-4.057 3.869-1.603 7.473-3.702 10.874-6.147.674-.485 1.279-1.082 2.123-1.305.44-.117.651-.46.542-.904-.101-.42-.505-.394-.829-.408-.392-.019-.786.011-1.179.04-2.477.195-4.901-2.189-4.712-4.642.032-.443.076-.816.518-1.15 3.873-2.927 7.703-5.912 11.573-8.843.977-.741 1.894-.661 2.809.318 1.702 1.823 2.013 3.657.861 5.339-.542.792-1.695.625-2.162 1.586.85.668 1.662.224 2.515.054 1.996-.4 3.937-1.158 6.033-.985 1.705.141 4.056 3.507 3.544 5.122-.215.68-.873.932-1.398 1.079-2.678.748-4.751 2.622-7.212 3.772-1.053.491-2.132.93-3.182 1.424-.409.19-.71.397-.634.851.069.407.473.46.8.472.562.021 1.156.094 1.679-.055 3.678-1.053 7.468-1.779 10.79-3.85 1.961-1.224 3.792-.499 4.35 1.697.102.409.418.676.501 1.029.287 1.229.425 2.327-1.009 3.168-2.283 1.342-4.424 2.924-6.634 4.396-.332.221-.78.414-.511.889 3.475-.817 6.127-1.455 8.586-2.675 2.171-1.076 3.614-.41 4.146 1.986.218.98 1.403 1.661 1.024 2.707-.38 1.048-1.692.91-2.53 1.436-3.796 2.373-7.664 4.631-11.495 6.947-.336.201-1.07.2-.795.848.283.665.803.329 1.274.101 2.543-1.232 5.269-2.109 7.578-3.795.863-.631 1.51-.404 2.413.031 1.51.729 1.169 2.274 1.825 3.357.893 1.471.23 2.314-1.118 3.196-1.989 1.302-3.858 2.824-5.616 4.43-1.136 1.036-2.41 1.891-3.649 2.719-.811.544-1.081 1.307-1.704 1.903.992-.186 1.858-.557 2.755-.982 2.949-1.401 5.97-2.671 9.286-2.938 1.114-.09 1.772.486 2.035 1.58.158.654.266 1.413.669 1.893 1.203 1.433.354 2.096-.767 2.926-1.506 1.114-3.027 2.197-4.785 3.182.91.737 1.689.435 2.504.092 2.002-.846 3.47-.619 4.367.629 1.182 1.638.749 4.239-1.003 5.077-1.389.665-2.426 1.766-3.708 2.533-.874.522-.835 1.101-.274 1.762.777.915 1.548 1.848 2.41 2.68 1.532 1.478 1.497 3.484-.244 4.697-1.754 1.222-3.24 2.82-5.271 3.665-.494.205-1.3.587-1.066 1.272.194.569.983.335 1.534.362 10.233.487 20.489.47 30.7 1.351 2.379.205 4.174-.97 6.007-1.895 2.332-1.179 4.717-2.192 7.137-3.133.682-.265 1.03-1.035 1.906-.973-.748-.737-1.7-.576-2.509-.809-1.394-.4-1.751-1.249-1.537-2.534.074-.443.16-.886.216-1.332.203-1.609-.23-2.029-1.851-1.734-4.758.867-9.555 1.255-14.388 1.249-1.319-.001-1.977-.441-1.896-1.893.195-3.405 1.332-4.422 4.781-4.931 1.83-.272 3.564-1.212 5.332-1.875.284-.107.365-.42.307-.716-.069-.352-.376-.386-.654-.393-.673-.015-1.394-.158-2.014.027-1.728.514-3.337-.192-4.975-.4-1.047-.135-1.796-1.005-1.567-2.222.196-1.035.446-2.083.847-3.052.451-1.085 1.195-1.837 2.595-1.503 2.011.479 3.694-.452 5.582-1.578-1.428-.218-2.667-.018-3.743.344-1.891.637-3.78.551-5.657.337-.826-.096-1.514.508-2.387.086-1.786-.865-2.3-2.457-1.351-4.85.93-2.34 3.099-3.303 5.099-4.364.779-.413.785-.554.441-1.289-.624-1.332-.011-2.552.552-3.819.648-1.46 1.533-1.89 3.124-1.859 1.433.027 2.718-.949 4.009-1.62.178-.093.44-.398.406-.458-.131-.224-.349-.524-.563-.548-.551-.063-1.127-.064-1.672.034-2.392.433-5.042-1.642-6.064-3.548-.655-1.227.321-2.148.352-3.24.057-2.048 1.174-3.657 2.522-5.075.417-.438.902-1.004 1.703-.887.746.108 1.158-.337 1.661-.882 1.055-1.143 1.968-2.444 3.396-3.191-.481-.856-1.087-.442-1.582-.431-1.812.043-2.242-.484-1.618-2.046.132-.33.127-.661-.099-.958-.236-.31-.59-.62-.221-1.022.323-.35.727-.452 1.227-.291 2.571.823 5.278.175 7.298-.933 2.61-1.432 5.16-.955 7.742-1.256.389-.047.79.038 1.18.001 1.109-.101 2.348-.507 2.515 1.261.201 2.134-.344 2.816-2.326 3.03-2.554.276-4.941.992-6.905 2.755 1.979.118 3.764-.627 5.587-1.115 1.922-.516 2.707-.107 2.922 1.801.045.386.192.759.285 1.14.406 1.679-.041 2.562-1.716 2.966-3.247.782-6.54 1.379-9.768 2.224-2.367.622-4.776 1.148-7.046 2.115-.514.219-1.15.363-.941 1.142.177.666.744.876 1.328.758 3.651-.738 7.408-.727 10.991-2.069 4.221-1.579 8.549-2.903 12.943-3.974.977-.237 1.973-.469 2.894-.862 1.193-.51 1.819-.379 2.46.932 1.249 2.556.377 4.862-2.315 5.508-4.123.989-7.975 2.692-12.128 4.578 1.899.934 3.285-.131 4.683-.438 4.84-1.061 9.503-2.872 14.507-3.26 1.435-.111 2.883-.432 4.259-.864.888-.281 1.246-.013 1.534.711.561 1.401.606 2.875.36 4.313-.141.81-.763 1.393-1.742 1.483-6.714.617-13.095 2.464-19.3 5.077-3.889 1.637-7.888 3.013-11.858 4.453-.553.201-1.029.404-.844.986.175.542.806.369 1.181.222 4.074-1.606 8.442-2.076 12.652-3.113 3.219-.793 6.561-1.307 9.842-1.963 3.196-.64 6.364-1.229 9.637-1.015 2.929-1.203 3.568-.78 3.588 1.66.037 4.156-.776 5.259-4.745 5.675-4.933.515-9.559 2.173-14.227 3.64-1.485.466-3.108.365-4.494 1.217-.403.246-.928.448-.814.883.144.541.742.375 1.169.268 4.267-1.074 8.497-2.326 12.806-3.191 4.005-.807 8.053-1.493 12.162-1.635 2.721-.655 2.978-.486 3.082 1.463.019.337.036.676.028 1.013-.069 2.923-.771 3.834-3.723 4.105-3.692.338-7.34.887-10.99 1.528-4.255.748-8.352 2.03-12.431 3.381-3.12 1.034-6.186 2.218-9.297 3.282-.583.198-.953.422-.759 1.034.189.588.778.446 1.162.333 4.142-1.215 8.489-1.584 12.566-3.025 1.232-.435 2.518-.527 3.753-.783 5.681-1.174 11.159-3.087 16.783-4.466 2.684-.656 5.453-1.118 8.07-2.094.943-.352 1.561-.228 1.585 1.084.024 1.248-.017 2.489-.232 3.695-.27 1.499-1.637 1.781-2.86 2.157-.886.273-1.958-.123-2.673.748-2.822.125-5.422 1.229-8.106 1.938-2.876.759-5.662 1.872-8.484 2.844-.36.124-1.071.001-.893.641.167.598.708.739 1.365.49 1.705-.645 3.413-1.295 5.157-1.819 2.96-.887 5.787-2.188 8.86-2.736.774-.14 1.985-.058 2.05-1.409 1.222.245 2.621.138 2.678 2.048z"/><path d="m312.015 3.30848c3.527 3.79048 6.657 8.12462 10.526 11.43922 5.728 4.9058 9.932 11.6077 15.137 17.1199 1.582 1.6755 3.022 3.541 4.571 5.2727.651.7254.935.6841 1.641.1834 5.506-3.9045 10.88-8.0205 15.919-12.7346 1.546-1.4492 3.409-2.3546 5.389-2.7082 2.307-.4115 4.471-1.2178 6.568-2.4406 2.313-1.3483 4.495-.0892 6.528 1.0658 2.68 1.5218 4.995 3.7492 7.202 6.074.804.8477 1.457 1.9548 2.007 3.0602 2.632 5.2825 6.657 8.9293 10.597 12.7082 2.212 2.1199 4.753 3.7706 6.795 6.0641 2.344 2.6322 4.38 5.6642 6.4 8.6632 2.994 4.4531 5.824 9.0599 8.796 13.5377 1.389 2.0935 3.337 3.5344 4.932 5.4263 3.614 4.2895 6.915 8.7707 9.192 14.2284 1.643 3.9359 3.956 7.3909 5.976 11.0578 2.331 4.23 4.54 8.557 6.269 13.18 1.124 3.003 2.892 5.49 4.536 8.061 3.412 5.333 6.864 10.634 10.427 15.827 1.765 2.575 4.253 4.265 6.444 6.307 3.726 3.474 7.785 6.431 11.352 10.167 4.086 4.277 7.95 8.817 11.75 13.426 2.751 3.334 5.394 6.778 8.493 9.687 3.172 2.978 14.722 7.847 18.167 10.397 3.85 2.848 37.55 9.487 42.54 11.816 4.991 2.33 12.835.01 14.18 2.432.612 1.097-6.419-.392-8.131 0-4.867 1.113-40.03-7.457-49.77-10.703-10.635-3.545-15.789-6.341-21.808-12.897-3.373-3.675-6.551-7.603-9.728-11.53-5.02-6.212-10.604-11.691-16.546-16.696-7.048-5.938-13.251-12.868-17.809-21.698-1.58-3.056-3.645-5.78-5.621-8.526-2.123-2.955-3.533-6.393-4.985-9.776-2.154-5.02-4.745-9.719-7.199-14.5222-1.774-3.47-3.499-6.9713-5.24-10.4643-1.572-3.1544-3.741-5.7453-6.021-8.1362-3.855-4.045-7.055-8.7161-10.13-13.5393-3.323-5.2132-6.836-10.2462-11.037-14.5225-2.238-2.2786-4.756-4.1771-7.057-6.3748-3.132-2.9924-6.106-6.2227-8.636-9.9124-.932-1.3632-1.485-3.1031-2.599-4.3952-1.61-1.8688-3.521-3.0387-5.675-3.7674-.809-.2743-1.455.1785-2.086.5172-1.964 1.0526-4.117.5056-6.119 1.1253-2.427.7485-4.255 2.6701-6.198 4.3803-3.337 2.9379-6.698 5.8411-10.055 8.7509-3.653 3.3096-3.699 3.3509-1.388 7.115 3.994 6.5052 7.805 13.2138 12.545 19.0069 4.225 5.1652 7.809 10.998 12.352 15.8427 2.046 2.1844 3.586 5.0198 5.373 7.543 1.184 1.6672 2.823 2.8271 3.74 4.8149.4.8708.783 1.7184.351 2.5793-.51 1.0096-1.387.5255-2.099.2859-1.065-.3619-2.139-.656-3.217-.9501-1.083-.2941-2.35-.8047-2.172-2.8619.114-1.3285-.878-2.2984-1.545-3.3262-2.906-4.4646-6.518-8.1907-9.523-12.5479-4.141-6.0112-8.876-11.421-12.785-17.6702-2.76-4.4117-5.043-9.2449-8.407-13.1394-.673-.78-1.299-1.0559-2.185-1.084-2.811-.0842-4.14-1.7135-4.047-5.0479.03-1.0129-.433-1.5416-.935-2.0985-4.775-5.2974-9.226-10.9716-13.873-16.416-1.764-2.0671-3.968-3.5873-5.812-5.6246-2.383-2.6339-5.026-4.9472-7.45-7.53473-1.321-1.41111-1.848-2.001-3.681-.23629-3.064 2.94942-5.148 6.91342-8.004 10.04462-1.356 1.4904-2.931 2.7098-4.778 3.2469-.918.266-1.656.9302-2.27 1.6011-4.609 5.0248-10.103 8.5476-15.33 12.5033-5.549 4.1986-11.494 7.6884-16.586 12.6983-2.588 2.5462-5.061 5.2544-7.588 7.8883-4.483 4.6679-8.845 9.5406-13.779 13.531-5.325 4.3061-11.127 7.7248-16.898 11.1468-6.899 4.0928-13.242 9.1391-19.237 14.843-4.489 4.2733-9.17 8.2333-14.302 11.4163-4.047 2.508-7.991 5.264-12.119 7.571-6.834 3.822-12.53 9.55-18.564 14.721-3.282 2.81-6.607 5.525-10.034 8.108-4.955 3.737-10.038 7.214-15.118 10.687-4.366 2.984-67.7016 21.594-72.3317 24.017-.6057.317-1.1466 1.659-1.9847.667-.8889-1.051-1.8495-2.181-2.0355-3.708-.1465-1.219.8748-1.735 1.5946-2.25 5.0935-3.645 47.6423-10.624 65.1753-20.257 17.534-9.633 15.964-10.51 19.336-12.775 2.378-1.598 4.564-3.6 6.798-5.481 4.696-3.956 9.369-7.946 14.048-11.928 4.965-4.227 10.173-7.948 15.733-11.044 4.561-2.542 9.016-5.397 13.103-8.9033 4.921-4.2217 9.599-8.8367 14.59-12.9362 3.862-3.1741 7.999-5.879 12.222-8.4137 4.385-2.6339 8.803-5.2264 13.079-8.0899 3.288-2.1993 6.047-5.3074 8.88-8.2667 3.717-3.883 7.678-7.4455 11.383-11.3434 2.448-2.576 4.899-5.0991 7.57-7.3661 2.362-2.0093 4.812-3.8054 7.33-5.5205 2.626-1.7879 5.015-4.0664 7.678-5.7601 6.219-3.9557 11.313-9.8199 17.418-13.921 3.683-2.4752 5.569-6.75811 8.225-10.27266.979-1.29709 2.01-2.54626 3.073-3.74752.852-.963316 1.922-1.3169178 3.024-1.085589 2.436-.2594187 4.064 1.477199 5.573 3.098149z"/><path d="m56.0028 124.243c.0662-.364-.0385-.699.5584-.983 3.3629-1.616 6.6008-3.359 10.8692-3.308 6.2813.075 12.1732-1.152 16.9705-4.295 6.6762-4.369 14.6178-6.858 22.6471-9.013 5.826-1.564 11.865-2.779 17.652-4.449 4.722-1.362 9.207-3.2324 13.472-5.3425 1.425-.7043 3.043-1.0846 4.608-1.1945 2.948-.2099 4.895-1.4283 6.765-2.9919 3.823-3.1975 7.445-6.5176 10.887-9.963 1.052-1.0523 1.828-2.2045 2.724-3.3145 2.924-3.6201 7.6-5.5766 12.318-7.4613 2.417-.9663 4.588-2.2017 6.775-3.4215 2.034-1.134 6.982-1.1762 8.491.3423 2.842 2.858 7.139 3.9131 10.739 5.8259 4.112 2.1834 8.834 3.6821 12.41 6.4895.816.6409 1.181 1.2564.645 1.8748-.564.6536-1.313.1367-2.048-.1775-5.705-2.4523-11.446-4.8512-17.178-7.2627-.755-.3169-1.67-.5001-2.265-.9396-3.362-2.4861-6.321-1.479-9.534.3085-2.202 1.2269-4.848 1.9763-7.232 3.0243-3.589 1.5762-6.583 3.5821-7.549 6.8627-.11.3677-.389.5902-.663.8325-4.676 4.1455-9.431 8.2403-14.013 12.445-1.958 1.796-4.125 2.8425-7.257 3.0915-4.255.34-7.659 2.464-11.295 3.963-5.38 2.217-11.015 3.81-16.82 5.15-4.75 1.098-9.391 2.444-14.067 3.706-4.487 1.211-8.3952 3.054-12.2172 5.069-2.7568 1.454-5.014 3.482-8.1731 4.473-2.8798.904-5.8202 1.691-9.0142 1.794-2.2553.072-4.5052.341-6.7441.597-1.1626.134-2.0919.662-3.0102 1.244-.8577.542-1.5832 1.25-2.8266 1.433-3.4143.505-6.7386-1.674-6.6248-4.409z"/></g></svg>