<svg height="623" viewBox="0 0 596 623" width="596" xmlns="http://www.w3.org/2000/svg" xmlns:xlink="http://www.w3.org/1999/xlink"><linearGradient id="a"><stop offset="0" stop-color="#eaf1fc"/><stop offset="1" stop-color="#c0d4f4"/></linearGradient><linearGradient id="b" x1="-148.662233%" x2="-162.537924%" xlink:href="#a" y1="-92.867266%" y2="-102.861724%"/><linearGradient id="c"><stop offset="0" stop-color="#223762"/><stop offset="1" stop-color="#041b48"/></linearGradient><linearGradient id="d" x1="-1.455616%" x2="101.273567%" xlink:href="#c" y1="51.457467%" y2="49.693762%"/><linearGradient id="e" x1="105.837733%" x2="2.534089%" xlink:href="#c" y1="1.732133%" y2="90.552783%"/><linearGradient id="f"><stop offset="0" stop-color="#3769a5"/><stop offset="1" stop-color="#08448b"/></linearGradient><linearGradient id="g" x1="2.693272%" x2="76.071648%" xlink:href="#f" y1="51.685525%" y2="49.982663%"/><linearGradient id="h"><stop offset="0" stop-color="#4c93f4"/><stop offset="1" stop-color="#0b63da"/></linearGradient><linearGradient id="i" x1="65.570767%" x2="1.371976%" xlink:href="#h" y1=".546086%" y2="131.444467%"/><linearGradient id="j" x1="99.109269%" x2="15.274701%" xlink:href="#f" y1="-9.012727%" y2="91.7604%"/><linearGradient id="k" x1="252.033133%" x2="181.400602%" xlink:href="#h" y1="-249.535865%" y2="-144.810127%"/><linearGradient id="l" x1="376.540084%" x2="271.814346%" xlink:href="#h" y1="270.105422%" y2="199.472892%"/><linearGradient id="m" x1="368.111931%" x2="291.789668%" xlink:href="#h" y1="264.254386%" y2="212.828947%"/><linearGradient id="n" x1="413.96064%" x2="337.638376%" xlink:href="#h" y1="295.120614%" y2="243.695175%"/><linearGradient id="o" x1="1.319689%" x2="65.97433%" xlink:href="#f" y1="-5.314213%" y2="88.048051%"/><linearGradient id="p" x1="19.285685%" x2="83.941874%" xlink:href="#h" y1="-9.262018%" y2="84.104303%"/><linearGradient id="q" x1="10.191806%" x2="102.865465%" xlink:href="#h" y1="-22.392412%" y2="111.43443%"/><linearGradient id="r" x1="251.65692%" x2="181.189084%" xlink:href="#h" y1="-249.562363%" y2="-144.803063%"/><linearGradient id="s" x1="251.65692%" x2="181.189084%" xlink:href="#h" y1="-249.507659%" y2="-144.803063%"/><linearGradient id="t" x1="376.531729%" x2="271.827133%" xlink:href="#h" y1="269.785575%" y2="199.317739%"/><linearGradient id="u" x1="376.531729%" x2="271.827133%" xlink:href="#h" y1="269.688109%" y2="199.220273%"/><linearGradient id="v" x1="368.181818%" x2="291.826156%" xlink:href="#h" y1="264.438122%" y2="212.944523%"/><linearGradient id="w" x1="295.305832%" x2="243.883357%" xlink:href="#h" y1="-313.995215%" y2="-237.639553%"/><linearGradient id="x"><stop offset="0" stop-color="#ffc063"/><stop offset=".95" stop-color="#e44d0b"/></linearGradient><linearGradient id="y" x1="3.529412%" x2="40.557276%" xlink:href="#x" y1="61.866382%" y2="44.728685%"/><linearGradient id="z" x1="61.578186%" x2="26.234249%" xlink:href="#x" y1="-23.822342%" y2="164.356214%"/><linearGradient id="A" x1="-402.809407%" x2="-436.460984%" xlink:href="#a" y1="967.351666%" y2="1032.55356%"/><linearGradient id="B" x1="37.113402%" x2="69.661267%" xlink:href="#c" y1="96.041974%" y2="-20.121502%"/><linearGradient id="C" x1="46.334764%" x2="71.762897%" xlink:href="#h" y1="102.422213%" y2="-23.611658%"/><linearGradient id="D" x1="37.094993%" x2="69.661267%" xlink:href="#c" y1="96.041974%" y2="-20.121502%"/><linearGradient id="E" x1="42.308441%" x2="76.031222%" xlink:href="#h" y1="97.374711%" y2="-13.842716%"/><linearGradient id="F" x1="37.087275%" x2="69.641264%" xlink:href="#c" y1="96.019989%" y2="-20.132072%"/><linearGradient id="G" x1="31.864019%" x2="83.963058%" xlink:href="#x" y1="22.385265%" y2="171.24237%"/><linearGradient id="H"><stop offset="0" stop-color="#f8a695"/><stop offset="1" stop-color="#e56045"/></linearGradient><linearGradient id="I" x1="29.083565%" x2="132.124867%" xlink:href="#H" y1="45.371228%" y2="92.115991%"/><linearGradient id="J" x1="-82.785471%" x2="106.810248%" xlink:href="#H" y1="31.929182%" y2="52.05851%"/><linearGradient id="K" x1="-18.313506%" x2="-7.696297%" xlink:href="#x" y1="36.1382%" y2="37.755707%"/><linearGradient id="L"><stop offset="0" stop-color="#ffc063"/><stop offset="1" stop-color="#e58f0f"/></linearGradient><linearGradient id="M" x1="107.608945%" x2="-29.95494%" xlink:href="#L" y1="-8.203774%" y2="141.059709%"/><linearGradient id="N" x1="-67.254793%" x2="-21.405565%" xlink:href="#x" y1="21.560001%" y2="31.764243%"/><linearGradient id="O" x1="57.548889%" x2="55.112018%" xlink:href="#H" y1="104.450737%" y2="43.422379%"/><linearGradient id="P" x1="62.343534%" x2="54.674993%" xlink:href="#c" y1="12.786459%" y2="26.4666%"/><linearGradient id="Q" x1="37.350076%" x2="62.414362%" xlink:href="#H" y1="87.374219%" y2="-8.393491%"/><linearGradient id="R" x1="50.175724%" x2="66.733834%" xlink:href="#c" y1="28.502975%" y2="101.180064%"/><linearGradient id="S" x1="100.6195%" x2="53.384885%" xlink:href="#c" y1="66.793598%" y2="25.445243%"/><linearGradient id="T" x1="-31.979128%" x2="-14.519255%" xlink:href="#H" y1="94.734649%" y2="85.210335%"/><linearGradient id="U" x1="49.018193%" x2="54.442122%" xlink:href="#h" y1="92.237888%" y2="-14.947596%"/><linearGradient id="V" x1="70.133886%" x2="64.478801%" xlink:href="#h" y1="-89.616822%" y2="-29.317757%"/><linearGradient id="W" x1="71.055869%" x2="66.509482%" xlink:href="#h" y1="-244.986408%" y2="-157.28932%"/><linearGradient id="X" x1="28.060397%" x2="66.448949%" xlink:href="#H" y1="34.271742%" y2="48.73832%"/><linearGradient id="Y" x1="-13.858908%" x2="107.500771%" xlink:href="#x" y1="-20.789869%" y2="100.58126%"/><linearGradient id="Z" x1="141.331602%" x2="-10.343783%" xlink:href="#L" y1="-77.508596%" y2="196.749243%"/><g fill="none" fill-rule="evenodd"><path d="m128.59 465.33c.79-127.24-102.19-204.79-122-265.33-29.76-90.91 47.24-210.85 260.23-133.5s267.18 117.42 285.35 256.73c14.54 111.48-68.8 209.65-135.31 248.77-104.06 61.18-289.06 20.57-288.27-106.67z" fill="url(#b)" opacity=".49"/><path d="m106.83 382.06c-5.21 64.45 21 124.31 53.59 164.07 38.56-34 66.08-89.51 71.29-154s-13.05-123.64-45.65-163.4c-38.57 34.06-74.06 88.88-79.23 153.33z" fill="url(#d)"/><path d="m131 135.15c-1.52 55.27 10.4 104.81 30.16 137 21.5-31.07 36.13-79.88 37.65-135.15s-10.37-104.79-30.13-137c-21.5 31.07-36.13 79.88-37.68 135.15z" fill="url(#e)"/><path d="m90 228c-3.18-50.12-9.64-140.48-13.45-193.14-29.94 46.59-45 114.62-37 188.3 7.94 72.84 36.69 135.38 75.26 174.55-9.23-49.9-21.91-124.1-24.81-169.71z" fill="url(#g)"/><path d="m156.1 210.48c-8.1-74.73-38.17-138.74-78.28-177.66-.44.66-.84 1.37-1.27 2 3.81 52.7 10.27 143.06 13.45 193.18 2.9 45.62 15.58 119.82 24.81 169.72 1 1 2 2.11 3 3.11 30.84-46.65 46.41-115.62 38.29-190.35z" fill="url(#i)"/><path d="m162 261.48c-8.56 46.27-2 90 15 120.58 26.85-22.42 48.58-61 57.14-107.24s2-90-15-120.58c-26.82 22.42-48.55 60.97-57.14 107.24z" fill="url(#j)"/><ellipse cx="102.778348" cy="238.513463" fill="url(#k)" rx="6.64" ry="11.85" transform="matrix(.9941321 -.10817287 .10817287 .9941321 -25.197592 12.517402)"/><ellipse cx="119.451402" cy="249.880847" fill="url(#l)" rx="11.85" ry="6.64" transform="matrix(.62646778 -.77944732 .77944732 .62646778 -150.150008 186.444622)"/><ellipse cx="124.104444" cy="312.658269" fill="url(#m)" rx="16.26" ry="9.12" transform="matrix(.62646778 -.77944732 .77944732 .62646778 -197.34364 213.520813)"/><ellipse cx="123.899767" cy="345.318504" fill="url(#n)" rx="16.26" ry="9.12" transform="matrix(.32160473 -.94687401 .94687401 .32160473 -242.920102 351.579909)"/><path d="m27.05 391.23c25.21 49.87 62.86 86.53 100.95 103.11-55.4-52.18-124.15-245.52-124.15-245.52-9.22 40.5-2.01 92.55 23.2 142.41z" fill="url(#o)"/><path d="m104.8 351.92c-25.22-49.86-62.87-86.52-100.95-103.1 0 0 68.75 193.35 124.15 245.52 9.22-40.5 2-92.56-23.2-142.42z" fill="url(#p)"/><path d="m104.8 351.92c-25.22-49.86-62.87-86.52-100.95-103.1 0 0 68.75 193.35 124.15 245.52 9.22-40.5 2-92.56-23.2-142.42z" fill="url(#q)"/><ellipse cx="73.037997" cy="392.870274" fill="url(#r)" rx="5.13" ry="9.14" transform="matrix(.8835205 -.46839249 .46839249 .8835205 -175.510056 79.971782)"/><ellipse cx="106.409011" cy="395.144443" fill="url(#s)" rx="5.13" ry="9.14" transform="matrix(.8835205 -.46839249 .46839249 .8835205 -172.688221 95.867408)"/><ellipse cx="88.249708" cy="396.266979" fill="url(#t)" rx="9.14" ry="5.13" transform="matrix(.29353983 -.95594684 .95594684 .29353983 -316.465264 364.308866)"/><ellipse cx="93.8801" cy="411.7823" fill="url(#u)" rx="9.166012" ry="5.1446" transform="matrix(.28917702 -.95727564 .95727564 .28917702 -327.457032 382.573453)"/><ellipse cx="109.519939" cy="439.919939" fill="url(#v)" rx="12.54" ry="7.03" transform="matrix(.29353983 -.95594684 .95594684 .29353983 -343.168602 415.481154)"/><ellipse cx="118.688974" cy="463.362277" fill="url(#w)" rx="7.03" ry="12.54" transform="matrix(.99866583 -.05163877 .05163877 .99866583 -23.769106 6.747157)"/><path d="m259.27 269.42h-38c-2.877404 0-5.21 2.332596-5.21 5.21v23.42c0 2.877404 2.332596 5.21 5.21 5.21h8.3l7.8 10.74h2.88l10.75-10.74h8.3c2.877404 0 5.21-2.332596 5.21-5.21v-23.42c.000023-1.386991-.553002-2.716742-1.536565-3.694674-.983563-.977931-2.316467-1.523313-3.703435-1.515326z" fill="url(#y)"/><path d="m256.39 269.42h-38c-2.877404 0-5.21 2.332596-5.21 5.21v23.42c0 2.877404 2.332596 5.21 5.21 5.21h8.3l10.68 10.74 10.71-10.71h8.3c2.877404 0 5.21-2.332596 5.21-5.21v-23.45c.000005-2.873503-2.326502-5.204485-5.2-5.21z" fill="url(#z)"/><path d="m448.45 109.5c3.06 10.53-8.19 19.14-17.32 13.32-21.57-13.76-64.84-36.11-98.25-44.55-46.88-11.85-7.88-68.56 29.24-72s80.88 85.15 86.17 102.73z" fill="url(#A)" opacity=".49"/><path d="m452.38 266.86h54.32v54.32h-54.32z" fill="url(#B)" opacity=".45"/><path d="m436.15 313 8.28-2.42c8.28-2.42 8-19.6 8-19.6v-28.76h54.27v28.78s.33 17.19-8 19.6l-8.23 2.4z" fill="url(#C)"/><path d="m537.317699 328.591543h54.32v54.32h-54.32z" fill="url(#D)" opacity=".45" transform="matrix(.99226708 .12412104 -.12412104 .99226708 48.521311 -67.312564)"/><path d="m519.06 369.18 8.52-1.37c8.52-1.37 10.32-18.46 10.32-18.46l3.57-28.51 53.9 6.74-3.57 28.51s-1.8 17.09-10.32 18.46l-8.48 1.38z" fill="url(#E)"/><path d="m463.224914 180.552014h56.03v56.03h-56.03z" fill="url(#F)" opacity=".45" transform="matrix(.95376942 -.30053934 .30053934 .95376942 -39.972286 157.279094)"/><path d="m454.42 240.67 7.4-4.94c7.4-4.94 1.75-21.75 1.75-21.75l-8.91-28.27 53.43-16.84 8.91 28.27s5.65 16.8-1.75 21.75l-7.4 4.94z" fill="url(#G)"/><g transform="translate(112 129)"><path d="m62.7 249s2-20.7-5.16-30.35-16.58-12.7-18.81-15-26.4-26.25-31.49-28.17c-1.92-.72-9-2.33-5.36 8.21s22.68 20.14 21.74 23.35-10.58 5.89-14.07 15.62-5 19.62 5.49 22.53 32.25 19.61 32.25 19.61z" fill="url(#I)"/><path d="m47.48 257.05s-10.61-7.47-10.61-11.69 4.13-24.58 4.13-24.58-5.94 17-18 24.92c-1 .62-1.86 1.16-2.75 1.66 10.68 5.23 25.4 16.4 26.6 17.31l.35-4.44z" fill="url(#J)"/><path d="m185.27 202.93-52.14 97.69-67.22-67.06s-17.81 12.11-20.77 23.2l-3 11.09s77.82 76.69 88.69 83.32 72.93-37.17 72.93-37.17z" fill="url(#K)"/><path d="m278 188.67s50 17.72 62 30.18-7.1 133.94-7.06 157.72 3.33 109.28 3.33 109.28-77.88 15.27-118.48 3.05c-41.18-12.39-50.29-16-50.29-16s-1.37-153-.69-180.34 8.74-78.13 18.42-89.68 39.18-13 39.18-13z" fill="url(#M)"/><path d="m207 322.64s32.16 37.88 56.58 55.69 25.53 48 17.91 65.2-74.37 14.75-93 20.22c-7.281627 2.240015-14.268216 5.345539-20.81 9.25 1.29.49 11.85 4.37 50.14 15.9 40.59 12.22 118.48-3.05 118.48-3.05s-3.3-85.5-3.3-109.28c0-7.61 1.94-25.23 4.21-46.07z" fill="url(#N)"/><path d="m224.24 189.05-11.72 2.3s-1.13 8.41 8.57 16.88 22.13 7.17 35.18.83 21.73-20.39 21.73-20.39l-8.34-1.89z" fill="#fff"/><path d="m217 157.68 7.45 32.32s5 6 18.59 5.86 26.63-9 26.63-9l-.39-33.06z" fill="url(#O)"/><path d="m196.16 40.82s-1.9 46.45-2.05 62.68 20 19.9 20 19.9l28.64-31.4-14.14-48.2z" fill="url(#P)"/><path d="m197.64 96.19c1.39 18.25 3.23 40.29 11.34 59.41s46.23 22.4 58.57 6.77 16.2-40.25 16.2-40.25 13.13.6 16.27-9.27 2-24.48-4.14-27.22-11.88 4.12-11.88 4.12 1.77-19-12-30.52-65-6.28-67.75-3.78-8 22.49-6.61 40.74z" fill="url(#Q)"/><path d="m275.95 113.92s4.32-23.58 2.29-34.14-8.06-17.44-20.3-21.4-47 1-54.82-1.1-12.4-5.7-10.06-21.17 24-37.63 55.6-35.15 46.84 16.31 57.39 25.6 4.79 35.43 2.49 57.33-9.2 51.8-15.43 62.37-20.54 8.55-20.54 8.55l10.89-34.74s5.29 2.2 11.16-5.06 8-19.9 4.35-25.9-13.31-4.32-16.23 3.55-6.79 21.26-6.79 21.26z" fill="url(#R)"/><path d="m214.9 102.4s-3.56 23.44-2.67 29.22 15.83 1.18 15.83 1.18" stroke="#eb6057" stroke-linecap="round" stroke-linejoin="round"/><path d="m274.38 37.54c-16.56-6-65.76 10-73 3.25-2.23-2.08-4-7-5.49-12.91-1.395906 2.605351-2.36488 5.4177395-2.87 8.33-2.34 15.48 2.22 19.11 10.06 21.17s42.58-2.86 54.82 1.1 18.27 10.84 20.3 21.4-2.25 34.12-2.25 34.12 14.99-70.49-1.57-76.46z" fill="url(#S)"/><path d="m285.49 99.34s4.35-3.09 5.93.87 1.51 7.81-3.49 10.39c-2.79 1.44-4.6-1.38-4.6-1.38" stroke="#eb6057" stroke-linecap="round" stroke-linejoin="round"/><path d="m204.07 284.63s-6.31-11.23-12.49-16-18.79-4.07-18.79-4.07l5.1 17z" fill="url(#T)"/><path d="m190.09 336-11.46-120.37c-.398165-3.42486-3.17152-6.084931-6.61-6.34l-84.76-3.8c-1.2896024-.071185-2.5603186.33459-3.57 1.14l-4.69 3.15 3 3.92 11.22 117.95c.3981655 3.42486 3.1715202 6.084931 6.61 6.34l81.49 3.65 1.88 2.42 4.58-3.11.17-.12.17-.12c1.43201-1.119861 2.178274-2.904075 1.97-4.71z" fill="#223762"/><path d="m179.6 345.22-84.76-3.8c-3.4384798-.255069-6.2118345-2.91514-6.61-6.34l-11.45-120.36c-.2060069-1.531755.2895535-3.074751 1.3489371-4.200104s2.5696691-1.713108 4.1110629-1.599896l84.76 3.8c3.43848.255069 6.211835 2.91514 6.61 6.34l11.45 120.36c.206007 1.531755-.289554 3.074751-1.348937 4.200104-1.059384 1.125353-2.569669 1.713108-4.111063 1.599896z" fill="url(#U)"/><path d="m128.6 253c-.434002-1.195266-.683526-2.449634-.74-3.72-1.415776-.208467-2.861049-.067716-4.21.41-5.1 1.85-7.48 8.06-5.32 13.88s8 9 13.14 7.19c4-1.45 6.3-5.62 6.05-10.16-4.136939-.716815-7.555365-3.629375-8.92-7.6z" fill="#d6e3fa"/><path d="m147.92 324.31-30.79-1.38-.58-6.11 30.79 1.38z" fill="url(#V)"/><path d="m152.31 329.13-38.69-1.74-.33-3.41 38.7 1.73z" fill="url(#W)"/><path d="m212.94 291.34s-19.44-15.17-27.81-19.34-32.4-4.25-37.23-1.67-4.47 17.5-2.79 22.73 20.18 13.73 31.24 17 33.34 9.89 33.34 9.89z" fill="url(#X)"/><path d="m288.69 258.06s-5.49 36.82-11.12 40.23-37.13.68-37.13.68l46.27 46.14s32.1-.76 33.23-1.53 4.22-51.33 4.22-51.33z" fill="url(#Y)"/><path d="m294.41 226.18s10.68-15.17 27.45-13.69c3.15.28 5.91.65 8.3 1.07 8.179674 1.427021 14.298799 8.300162 14.77 16.59 1.77 30.61 5.87 110 1.91 126.89-.153333.666667-.323333 1.316667-.51 1.95-6.09 20.69-30.68 29.47-49.13 18.3l-93.7-56.75s-5.84-19.47 1.23-27.52l7.08-8s74.56 36.93 81.6 38.17-12.78-51-8.83-70.1 9.83-26.91 9.83-26.91z" fill="url(#Z)"/></g></g></svg>