<svg fill="none" height="72" viewBox="0 0 96 72" width="96" xmlns="http://www.w3.org/2000/svg" xmlns:xlink="http://www.w3.org/1999/xlink"><mask id="a" height="29" maskUnits="userSpaceOnUse" width="51" x="23" y="7"><path d="m23.207 7.53717h50.1819v19.38343l-21.5548 8.1868h-14.0245l-13.1192-5.7509z" fill="#fff"/></mask><path clip-rule="evenodd" d="m47.8005 34.9184c6.1756 2.3071 9.2635 5.2445 9.2635 8.8122s-3.0879 5.4492-9.2635 5.6444c-8.5206.9467-12.781 2.0283-12.781 3.2448 0 1.2166 4.2604 7.6766 12.781 19.3802h23.3709c-16.3213-9.1567-24.1116-14.6759-23.3709-16.5576 1.1111-2.8226 16.0677-2.5697 16.0677-7.1407 0-4.5711-4.7464-10.895-6.8042-10.895-1.3719 0-3.4918-.8294-6.3596-2.4883z" fill="#fff" fill-rule="evenodd"/><g mask="url(#a)"><path d="m47.8026 56.7273c12.0498 0 21.8181-10.168 21.8181-22.7108s-9.7683-22.7107-21.8181-22.7107c-12.0499 0-21.8182 10.1679-21.8182 22.7107s9.7683 22.7108 21.8182 22.7108z" fill="#fff"/></g><g clip-rule="evenodd" fill="#000" fill-rule="evenodd"><path d="m45.1264 34.2888c.0569.0063.1137.0128.1706.0194-.0569-.0065-.1137-.0129-.1706-.0194zm8.6556-1.6744c-.0262.0093-.0526.0184-.0789.0275.0262-.0093.0527-.0184.0789-.0275zm38.8648-8.2164c-.4635.0079-.927.0292-1.3898.0521-1.0219.0512-2.0416.1246-3.0634.1809-1.0086.055-2.02.0612-3.0302.09-1.0024.0286-2.0034.0636-3.0058.0906-1.031.0281-2.0617.0437-3.0925.0786-1.0681.0373-2.135.1589-3.19.2995-.9526.1263-1.9003.28-2.8551.396-1.0605.128-2.1217.2496-3.1762.4101-.9512.1453-1.8893.3759-2.7956.6543-1.0633.3258-2.1259.6689-3.1214 1.121-.4233.1923-.8475.3925-1.2376.6284-.4469.2697-.8925.5404-1.3366.8118-.7782.4757-1.6259.8596-2.4898 1.2136-.9229.3781-1.8258.7797-2.721 1.2016-.3964.1869-.7956.3751-1.2072.5392-.473.1889-.948.3693-1.4285.5445-.9774.3397-1.9595.6832-2.9762.9301-.6116.148-1.2267.2772-1.8486.3954-.5553.1056-1.1133.2123-1.6767.2869-.4748.0402-.944.0363-1.4213.0039-.1957-.0126-.3914-.0346-.5865-.0527-1.3067-.1516-2.6182-.3299-3.8861-.6375-1.3973-.3394-2.7709-.733-4.123-1.1799-.8846-.3202-1.751-.6641-2.6091-1.0315-.8398-.3603-1.6609-.7481-2.5154-1.0843-1.0314-.4057-2.0803-.7747-3.1415-1.1229-.8917-.2926-1.8091-.5319-2.7215-.7736-.9382-.2483-1.8727-.5163-2.8254-.7228-.3618-.0787-.7196-.1532-1.0876-.2112-.8086-.1279-1.6258-.1767-2.4469-.1388-.5051.0229-1.0087.0861-1.5075.1566-.2449.0345-.4911.0643-.7334.1113-.2642.0511-.5284.1021-.7927.1538-.2775.0533-.5501.1376-.8226.2059-.4947.1234-.981.2859-1.4562.4527-.9424.3311-1.881.6737-2.7984 1.0507-.4685.1921-.9353.3838-1.3954.588-.47661.2118-.93957.4391-1.40447.6679-.17498.0861-.33968.1877-.50705.2829-.18755.1068-.37705.2106-.55823.3248-.44914.2841-.89881.5668-1.34918.8497-.88748.5572-1.83463 1.0444-2.68898 1.6371-.53628.3723-.98931.8268-1.44323 1.2651-.33614.3254-.64466.6707-.99196.9881-.09316.0854-.193401.1622-.298424.2355-.109273.062-.219255.1228-.330477.1821-.252551.1349-.440636.3191-.5215733.5629-.0809368.2428-.03949434.5078.1140553.7253.301609.4281 1.032879.6162 1.553209.338.35137-.1883.69389-.3879.99621-.6284.16453-.1307.30639-.2811.45233-.4251.1771-.1739.34535-.354.52511-.5255.2035-.1946.40469-.3903.61509-.5796.34942-.3148.70558-.6128 1.10247-.8855.30905-.1874.61845-.3729.93423-.553.36466-.2083.73534-.413 1.09026-.6328.38679-.2399.77412-.4791 1.1595-.719.39087-.2433.7929-.4681 1.19687-.6954.14381-.0809.29824-.1498.44824-.2227.2076-.1009.4123-.2099.6254-.3034.4013-.1767.8005-.3564 1.2087-.5222.8466-.3437 1.7015-.6711 2.5597-.9952.6613-.2291 1.324-.45 2.0117-.6206.2014-.0493.4028-.0993.604-.1491.2097-.0522.4303-.0821.6434-.1228.3685-.0706.7412-.1192 1.1147-.1702.7093-.0659 1.4115-.0824 2.1231-.0211 1.4376.1853 2.82.6095 4.2006.9773.5963.1584 1.1899.3214 1.7822.4889.5621.1582 1.1127.3438 1.6642.5257.8604.3057 1.7114.6256 2.5461.9783.8489.3585 1.6715.7591 2.5251 1.109.4628.1893.9251.3855 1.3995.5561.5715.2053 1.1443.4049 1.722.5984.9396.3143 1.9129.5674 2.8773.8239.9338.2479 1.89.4229 2.8517.5773.4766.0762.9601.1388 1.4409.1933.7874.0896 1.5761.1899 2.373.1772.7728-.012 1.5435-.1537 2.2962-.2914.4925-.09.9844-.1836 1.4735-.2857.9236-.1934 1.8284-.4453 2.7126-.7403 1.0543-.3516 2.1031-.7108 3.1283-1.1171.8489-.3368 1.6397-.7608 2.4712-1.1229.9374-.4079 1.8977-.7803 2.8172-1.2152.8765-.4154 1.6713-.9388 2.4849-1.4316.3549-.2152.734-.4073 1.1186-.583.2007-.0918.3985-.1899.6054-.2708.2357-.0918.472-.1836.7079-.2754.3453-.1181.6903-.2355 1.0403-.3442.487-.151.9755-.2875 1.4701-.4211.4318-.1165.8772-.1974 1.3173-.291.2262-.0482.4642-.0729.6946-.109.1929-.0298.3859-.0638.5804-.0878.9789-.1205 1.9591-.2358 2.9353-.3712.8898-.1234 1.7782-.2528 2.6685-.3719.4123-.0428.8238-.0855 1.2376-.1118.5617-.0356 1.12-.0591 1.6825-.0786 1.0079-.0351 2.0172-.043 3.0253-.0701.936-.0246 1.8712-.0631 2.808-.0837 1.0204-.0223 2.0409-.0425 3.0593-.109.727-.0482 1.4542-.0947 2.1819-.1309.3383-.0172.6765-.0333 1.015-.0464.4581-.0179.9161-.0395 1.3732-.0079.3043.0454.6042.1075.8987.1862.6135.1648 1.2895-.1864 1.4547-.6845.0838-.2529.0402-.5289-.1195-.7555-.1654-.2354-.4076-.3582-.7065-.4505-.6907-.2139-1.409-.3145-2.1444-.3145-.0476 0-.0949.0004-.1427.0013z"/><path d="m48.931 34.779c-.0817.2301-.0395.4813.1147.6877.1571.2096.3952.3333.6837.41 1.2775.3402 2.5542.6736 3.8056 1.0682.6823.2416 1.3093.5399 1.9173.8826.2234.1256.4373.2621.6545.3941-.0603-.0363-.1207-.0724-.1805-.109.6392.4118 1.2667.8283 1.8604 1.2804.4994.3806.9486.7995 1.3863 1.2237.4858.519.9592 1.0448 1.3915 1.593.2241.2848.4455.571.64.8688.2017.308.3898.6171.5729.9313.1423.2739.2855.5482.3977.8303.0761.1918.1487.3831.2144.5775.0491.1446.0824.2912.1175.4376.0508.35.0848.6976.0494 1.0502-.0567.2315-.1399.4557-.2466.6759-.0761.1258-.159.2471-.2571.363-.1258.1114-.2613.2129-.4065.3084-.2836.1538-.5824.2827-.8959.3943-1.1278.3441-2.3279.5517-3.5019.7753-.8779.168-1.7656.3101-2.6574.4262-.9513.1231-1.9033.2426-2.8524.3776-.4664.0665-.923.1567-1.3755.2647-.5175.1238-1.0122.3106-1.4902.5057-.4885.1993-.9368.4873-1.3084.8038-.2123.1811-.3937.3891-.5423.6051-.0914.1329-.1564.2766-.229.416-.0935.1799-.119.3749-.1509.5651-.1591.9561.3549 1.901 1.0822 2.6519.6149.6352 1.2493 1.2626 1.964 1.8319 1.329 1.0594 2.7888 2.0107 4.1878 3.0123 2.8989 2.0755 5.8034 4.1472 8.6594 6.2585.5977.4424 1.1829.8952 1.7697 1.3467.274.2113.5492.4209.8301.6272.2567.1892.5383.3734.8337.5214.4187.2091.9963.2522 1.4322.0535.3908-.1788.6787-.5365.6275-.8963-.0007-.1675-.0546-.3231-.1619-.4679-.1277-.1704-.325-.3057-.5565-.3836-.1135-.0867-.2244-.1761-.3381-.2614-.1715-.1296-.3459-.2571-.5176-.3868-.3402-.256-.6794-.5132-1.0189-.7698-.6449-.4872-1.2952-.9712-1.9553-1.4461-1.4812-1.067-2.9596-2.136-4.4403-3.203-1.4107-1.0173-2.8379-2.0211-4.2646-3.0247-.6739-.4744-1.3657-.9335-2.0354-1.411-.7196-.5133-1.4059-1.0476-2.0513-1.6181-.2053-.1819-.4026-.3682-.601-.5545-.3244-.3342-.6323-.671-.8687-1.0503-.0498-.109-.0905-.2183-.1224-.3317-.0092-.1093-.0103-.2179-.0021-.3274.0193-.0632.0416-.1248.0676-.1861.0516-.077.1072-.1513.1683-.2237.1135-.0983.2349-.1899.3638-.2759.3053-.1635.6298-.294.9644-.4155.4017-.1145.8048-.2071 1.2214-.2885.4725-.0918.9603-.1485 1.4397-.216.907-.1286 1.8169-.2442 2.7225-.3797.9029-.1352 1.7961-.3123 2.6838-.4965.4973-.1032.9934-.2107 1.4888-.3194 1.2281-.2689 2.4382-.6692 3.3623-1.3726.4775-.3635.7549-.8169.9984-1.2922.2657-.5197.3654-1.093.3445-1.6493-.0157-.4354-.1038-.8752-.2088-1.3014-.0885-.3576-.2395-.7082-.3978-1.0508-.1897-.4089-.4054-.8097-.6365-1.2052-.8199-1.4063-1.9595-2.6833-3.1924-3.8852-.5028-.49-1.086-.94-1.6818-1.3594-.6933-.4872-1.4293-.9324-2.169-1.3753-.7873-.4716-1.6707-.8066-2.5882-1.0917-.3923-.1222-.7886-.2351-1.1857-.348-.8344-.2366-1.6826-.4457-2.5234-.6699-.1009-.0268-.204-.0393-.3062-.0393-.4945 0-.9688.2921-1.0995.6633z"/><path d="m54.657 46.2892c-.0519.0172-.1039.0344-.156.0516.0519-.0172.104-.0344.156-.0516zm-9.7218-11.8406c-.2714.124-.4749.3301-.5582.567-.0868.245-.0423.5123.1222.7313.1687.2249.4193.3507.7262.4359.2462.0685.49.1405.7342.2124.2765.093.5493.1896.8125.3063.3326.147.6436.3237.9587.4906.402.213.7949.4359 1.1934.6527.8223.4478 1.6454.8937 2.4501 1.3596.5257.3228 1.0391.6572 1.5355 1.0079.5679.401 1.0852.8283 1.575 1.2866.7086.7383 1.3566 1.5074 1.8484 2.3479.1716.344.327.6915.4153 1.0539.0025.0585.0014.1157-.0027.1733-.0163.0576-.0355.1139-.0583.1701-.0362.0533-.0753.1048-.1178.1555-.1105.0967-.2284.1857-.3544.2699-.4548.2441-.9513.4182-1.4561.5858-.8555.2595-1.7127.5157-2.586.7361-.9336.2358-1.8743.4494-2.8186.6581-1.7674.3908-3.5697.6672-5.3518 1.0127-.9358.1815-1.8723.3664-2.7867.6071-.9837.2591-1.9681.535-2.9011.8939-.4276.1649-.8282.3475-1.2121.5682-.2298.1317-.4443.2716-.6485.4266-.2478.1876-.4568.4126-.6533.6327-.1881.2102-.3075.4607-.42.6988-.1534.3241-.1959.6803-.2506 1.0201-.0361.2218-.0215.4436.0103.6646.0389.2684.0946.5303.193.7889.2028.5355.5714 1.0317.9548 1.4989.2671.3258.5623.6376.8552.9499 1.0857 1.1589 2.28 2.256 3.4265 3.3787 1.1088 1.1498 2.176 2.3232 3.2825 3.474.5346.5567 1.0518 1.1221 1.5294 1.7093.2216.2727.4292.5535.62.8398.0916.1387.1771.2807.2721.4178.0917.1319.2117.2576.3361.3697.1283.1166.2707.2315.4505.3009.3068.1183.6166.1703.956.0976.3096-.0666.579-.2287.7415-.4455.2339-.3123.2115-.6838-.0064-.976l.0064-.002c-.0363-.0651-.091-.1253-.1383-.1859-.054-.0705-.0992-.1454-.1457-.2185-.0972-.1513-.1909-.3036-.291-.4538-.1992-.3003-.4297-.5898-.6629-.8745-.504-.6141-1.0713-1.1953-1.6384-1.7743-1.1996-1.2229-2.3188-2.4952-3.5552-3.6955-.9723-.9436-1.9637-1.8748-2.9239-2.8258-.5934-.6199-1.2178-1.2458-1.6363-1.95-.085-.1829-.1498-.3665-.196-.5567-.0191-.1835-.0176-.3639.0026-.5479.04-.1813.0935-.3581.1673-.5335.0648-.0998.1377-.195.2191-.2881.1559-.1444.3236-.2772.507-.4014.2736-.1536.5556-.2945.8583-.4135.3149-.1233.6336-.2371.9558-.3463.8879-.2726 1.7886-.512 2.7049-.7196.87-.1966 1.7536-.3609 2.636-.5187.9615-.1724 1.9225-.3448 2.8804-.5285.9261-.1774 1.8412-.3887 2.7554-.5986.8707-.2 1.7288-.4255 2.5847-.6614.4749-.1306.9435-.277 1.412-.4212.7262-.2227 1.4691-.458 2.1195-.7974.5471-.2851 1.0317-.657 1.3525-1.1081.1527-.2146.2568-.457.313-.6982.0389-.1665.0611-.3378.0702-.5069-.0029-.0765-.0112-.1534-.0265-.2293-.018-.1214-.0402-.2423-.0666-.3626-.0784-.3774-.2617-.746-.4353-1.1017-.3485-.7112-.8296-1.3736-1.3683-2.0069-.5742-.6748-1.2094-1.3107-1.9237-1.8989-.3041-.2499-.6416-.4771-.9727-.7049-.3318-.227-.6664-.4553-1.0157-.6667-.8024-.484-1.6217-.9455-2.4547-1.3976-.7866-.4266-1.5663-.8618-2.3577-1.2832-.7976-.4238-1.7113-.696-2.6166-.9476-.0958-.0263-.1999-.0384-.3057-.0384-.2219 0-.4521.0526-.6307.1345z"/><path d="m32.3115 23.96c-.0044.0105-.0089.0209-.0132.0315.0043-.0106.0088-.021.0132-.0315zm11.7919-10.6006c-.8447.1585-1.6785.3385-2.5075.5658-.7458.204-1.4874.4639-2.2085.7422-.5161.1992-1.0233.4116-1.5287.636-.829.367-1.5724.9275-2.248 1.5255-.6031.5347-1.1965 1.0811-1.7846 1.6325-.8884.8327-1.7907 1.6673-2.4429 2.7081-.4994.7973-.889 1.6486-1.1792 2.5439-.2321.7157-.2884 1.4764-.3686 2.2208-.0283.2599.1276.5592.3044.7361.1943.1945.4604.3049.7356.3049.2745 0 .5413-.1104.7349-.3049.0547-.0701.1085-.1403.1632-.2105.0941-.1625.1415-.3378.1419-.5256.0261-.2413.0534-.4822.0809-.7235.0468-.3026.1061-.6038.204-.8945.0491-.1468.09-.3009.1484-.4443.0411-.0977.0825-.1955.1237-.2934-.0034.0082-.0068.0163-.0102.0244.1378-.2838.2777-.5615.4311-.8368.1615-.288.3465-.5648.5439-.8305.6086-.7487 1.3399-1.3967 2.0572-2.0391.642-.5747 1.2764-1.1633 1.9504-1.7014.4687-.3464.9655-.6385 1.4942-.8868-.0074.0032-.0149.0064-.0223.0095.19-.0806.3803-.161.5744-.2315.3237-.117.6473-.2322.9741-.3419.5804-.1944 1.1648-.3888 1.7582-.5418 1.1582-.2978 2.3298-.5119 3.5129-.6811.4206-.0423.8394-.0841 1.2615-.1096.1965-.0119.3968-.0367.5946-.0342.2925.0031.5857.0054.8782.0084.8153.0082 1.6255.1025 2.4336.2014.867.1465 1.7242.3081 2.5697.5563.7944.2339 1.5698.5068 2.3357.818.5678.2724 1.1272.559 1.6837.8553.5107.2715.9845.5959 1.4458.9419.7087.5801 1.4016 1.1776 2.0773 1.795.6713.6134 1.3275 1.2402 1.9036 1.9447.2406.3299.4707.6661.676 1.0196.1176.2017.2236.4092.3381.6125.0229.0403.045.0805.0678.1206.0306.0582.0671.1122.1102.1626.1074.1819.2518.3264.4336.4337.1887.1417.4806.2257.7157.2257.2565 0 .4621-.081.6863-.1974.4658-.2411.6768-.8429.5419-1.3331-.0707-.2579-.2308-.4864-.4467-.6432-.0459-.094-.0906-.1888-.1383-.2806-.0912-.1771-.1918-.3511-.2968-.5202-.2614-.4201-.5448-.8249-.853-1.2132-.5-.6292-1.0635-1.1878-1.6491-1.7373-.572-.537-1.1613-1.0547-1.7589-1.5635-.6823-.582-1.3849-1.1321-2.1419-1.6133-.3201-.2033-.6661-.3767-1.0025-.5501-.3931-.2021-.7875-.3978-1.1869-.588-.4513-.2153-.9286-.3862-1.3962-.5633-.3775-.1422-.7661-.258-1.1504-.3797-1.6922-.5364-3.4709-.771-5.2352-.8958-.3789-.0268-.7584-.0395-1.1382-.0395-1.3385 0-2.6778.1576-3.9921.4042z"/><path d="m72.9865 16.5531c-.1891.1739-.3795.3465-.5786.5086-.4808.3493-.995.6501-1.5141.9383-.4643.2574-.6139.8817-.35 1.3321.1276.2179.339.3808.5827.4478.2608.0714.5161.0257.7513-.0982.3121-.1647.6286-.3295.9267-.5187.1576-.1001.3169-.1988.4703-.3057.3939-.2734.7556-.5858 1.1075-.9098.3957-.3643.3682-1.0265 0-1.3944-.1845-.1843-.4374-.2887-.6982-.2887-.2695 0-.5021.1087-.6976.2887z"/><path d="m49.2542.963968c-.003.100252-.007.199322-.014.298832-.0494.389-.1172.77443-.1834 1.15928-.086.49592-.1733.99185-.261 1.48762-.178 1.00802-.374 2.01084-.5723 3.01248-.1027.51965.1281 1.06303.5499 1.20778.405.1391.8654-.16625.9681-.6859.1997-1.00846.3975-2.01766.5764-3.03265.0925-.52603.1844-1.05206.2741-1.57912.104-.61235.2057-1.24145.2085-1.868322.0023-.525437-.3535-.963968-.7729-.963968-.4339 0-.7566.439124-.7734.963968z"/><path d="m31.1455 2.86737c-.4233.11299-.6984.55949-.5713.97289.1966.64094.4411 1.2686.7378 1.87292.0669.13593.1339.27238.2009.40884.0716.14505.1659.28346.2481.42356.1423.2428.2889.47752.4448.71223.3522.53043.7127 1.05474 1.0747 1.57865.4017.58087.7875 1.17294 1.1775 1.76134.1206.1818.2878.3183.5065.3763.2182.058.4569.028.6525-.0825.3863-.2183.5528-.7438.3042-1.11952-.3759-.56653-.7543-1.13111-1.1322-1.69568-.253-.3773-.5223-.74482-.7747-1.12303-.1798-.26991-.3595-.53916-.5398-.80894-.1381-.20722-.2577-.42669-.3842-.64055-.2321-.38916-.425-.79656-.6102-1.20774-.116-.28998-.2277-.58022-.3274-.87645-.0669-.19901-.1861-.36504-.3763-.47243-.1261-.07116-.2703-.10778-.4151-.10778-.0726 0-.1453.00912-.2158.02789z"/><path d="m64.1559 4.36349c-.218.30333-.4244.60835-.6139.93316-.1408.2415-.271.48791-.4036.73478-.2229.41656-.4315.84264-.6407 1.26764-.5722 1.1627-1.1378 2.32954-1.7046 3.49533-.2263.465-.1106 1.0488.317 1.3227.4026.2584.9818.1181 1.2081-.3471.5568-1.1441 1.1121-2.2893 1.6745-3.43051.214-.43329.4266-.86842.6532-1.29404.2772-.52074.5536-1.03796.8883-1.51804.0793-.1499.1194-.31162.12-.48484 0-.25362-.0933-.49988-.257-.67908-.1642-.17921-.3887-.2817-.6203-.2817-.2088 0-.4852.09344-.621.2817z"/><path d="m16.5851 17.4382c-.1192.1769-.1516.392-.0891.5896.0628.1974.2095.3481.4054.4566.6728.3739 1.3921.6939 2.1044 1.0071.4679.2053.933.4145 1.4079.6078.5817.2366 1.1742.4514 1.785.6264.5628.1606 1.138.2724 1.7186.3702.2423.0412.469.0332.6876-.0776.1996-.1016.3485-.2691.41-.4624.0631-.1998.0308-.4174-.0901-.5961-.1096-.1624-.3146-.3186-.5331-.3556-.4543-.0768-.9055-.1601-1.3507-.2715-.4212-.1055-.8352-.232-1.2412-.3759-.7573-.2866-1.4941-.6133-2.2274-.9426-.6016-.2695-1.2076-.5362-1.7807-.8507-.132-.0722-.2806-.1055-.4291-.1056-.3089 0-.6179.1439-.7775.3803z"/></g></svg>