<svg height="546" viewBox="0 0 600 546" width="600" xmlns="http://www.w3.org/2000/svg" xmlns:xlink="http://www.w3.org/1999/xlink"><linearGradient id="a" x1="46.374388%" x2="51.865753%" y1="9.310997%" y2="53.781949%"><stop offset="0" stop-color="#eaf1fc"/><stop offset="1" stop-color="#c0d4f4"/></linearGradient><linearGradient id="b"><stop offset="0" stop-color="#4c93f4"/><stop offset="1" stop-color="#0b63da"/></linearGradient><linearGradient id="c" x1="72.973481%" x2="39.289073%" xlink:href="#b" y1="7.151511%" y2="69.976871%"/><linearGradient id="d" x1="-.199227%" x2="100.199227%" xlink:href="#b" y1="50.005274%" y2="50.005274%"/><linearGradient id="e" x1="-.202288%" x2="100.169186%" xlink:href="#b" y1="49.997927%" y2="49.997927%"/><linearGradient id="f"><stop offset="0" stop-color="#ffc063"/><stop offset=".95" stop-color="#e44d0b"/></linearGradient><linearGradient id="g" x1="108.64487%" x2="47.938675%" xlink:href="#f" y1="58.473736%" y2="50.069376%"/><linearGradient id="h"><stop offset="0" stop-color="#223762"/><stop offset="1" stop-color="#041b48"/></linearGradient><linearGradient id="i" x1="48.916218%" x2="69.442706%" xlink:href="#h" y1="67.659785%" y2="27.872819%"/><linearGradient id="j" x1="-.023089%" x2="100%" xlink:href="#h" y1="50.071327%" y2="50.071327%"/><linearGradient id="k"><stop offset="0" stop-color="#3769a5"/><stop offset="1" stop-color="#08448b"/></linearGradient><linearGradient id="l" x1="45.11895%" x2="76.3272%" xlink:href="#k" y1="77.670815%" y2="27.333543%"/><linearGradient id="m" x1="107.584824%" x2="35.657551%" xlink:href="#h" y1="110.701631%" y2="33.832898%"/><linearGradient id="n" x1="-.027372%" x2="99.955173%" xlink:href="#b" y1="49.992414%" y2="49.992414%"/><linearGradient id="o" x1="223.262841%" x2="28.993418%" xlink:href="#k" y1="111.178063%" y2="32.870347%"/><linearGradient id="p" x1="3.014324%" x2="95.972523%" xlink:href="#h" y1="47.418618%" y2="52.921589%"/><linearGradient id="q" x1="113.159865%" x2="-17.442388%" xlink:href="#h" y1="1.873612%" y2="88.871817%"/><linearGradient id="r" x1="0%" x2="100%" xlink:href="#k" y1="49.997542%" y2="49.997542%"/><linearGradient id="s" x1="89.966231%" x2="-63.121167%" xlink:href="#b" y1="2.064053%" y2="129.909395%"/><linearGradient id="t" x1="110.086251%" x2="7.358962%" xlink:href="#k" y1="-8.295547%" y2="91.295204%"/><linearGradient id="u"><stop offset="0" stop-color="#ff9f5b"/><stop offset="1" stop-color="#e5670e"/></linearGradient><linearGradient id="v" x1="137.78135%" x2="3.301179%" xlink:href="#u" y1="8.258258%" y2="68.286143%"/><linearGradient id="w" x1="312.562157%" x2="259.434703%" xlink:href="#u" y1="50%" y2="50%"/><linearGradient id="x" x1="252.027027%" x2="181.351351%" xlink:href="#b" y1="-249.394856%" y2="-144.704992%"/><linearGradient id="y" x1="376.323752%" x2="271.633888%" xlink:href="#b" y1="270.27027%" y2="199.594595%"/><linearGradient id="z" x1="367.971334%" x2="291.675854%" xlink:href="#b" y1="264.468504%" y2="213.090551%"/><linearGradient id="A" x1="413.781698%" x2="337.486218%" xlink:href="#b" y1="295.374016%" y2="243.897638%"/><linearGradient id="B" x1="6.360181%" x2="62.773863%" xlink:href="#k" y1="-5.153916%" y2="87.027558%"/><linearGradient id="C" x1="24.408255%" x2="80.808231%" xlink:href="#b" y1="-7.972793%" y2="84.215693%"/><linearGradient id="D" x1="16.463672%" x2="97.321146%" xlink:href="#b" y1="-20.938223%" y2="111.205385%"/><linearGradient id="E" x1="251.573427%" x2="181.118881%" xlink:href="#b" y1="-249.313725%" y2="-144.705882%"/><linearGradient id="F" x1="376.27451%" x2="271.568627%" xlink:href="#b" y1="269.755245%" y2="199.300699%"/><linearGradient id="G" x1="376.27451%" x2="271.568627%" xlink:href="#b" y1="269.93007%" y2="199.300699%"/><linearGradient id="H" x1="368.240343%" x2="291.845494%" xlink:href="#b" y1="264.413265%" y2="213.010204%"/><linearGradient id="I" x1="414.091559%" x2="337.76824%" xlink:href="#b" y1="295.153061%" y2="243.75%"/><linearGradient id="J" x1="29.701835%" x2="86.811927%" xlink:href="#b" y1="30.717236%" y2="90.048817%"/><linearGradient id="K" x1="0%" x2="99.640288%" xlink:href="#b" y1="50%" y2="50%"/><linearGradient id="L"><stop offset="0" stop-color="#f8a695"/><stop offset="1" stop-color="#e56045"/></linearGradient><linearGradient id="M" x1="44.8005%" x2="68.691841%" xlink:href="#L" y1="35.668515%" y2="87.044114%"/><linearGradient id="N" x1="34.130966%" x2="59.444343%" xlink:href="#f" y1="90.244291%" y2="-14.932022%"/><linearGradient id="O" x1="108.715216%" x2="-19.972389%" xlink:href="#L" y1="85.349935%" y2="28.180504%"/><linearGradient id="P" x1="58.615309%" x2="45.520398%" xlink:href="#L" y1="73.411986%" y2="27.998678%"/><linearGradient id="Q" x1="96.931864%" x2="45.312548%" xlink:href="#f" y1="188.698018%" y2="15.738554%"/><linearGradient id="R" x1="41.350799%" x2="66.609569%" xlink:href="#h" y1="31.894178%" y2="86.496109%"/><linearGradient id="S" x1="92.463571%" x2="52.592273%" xlink:href="#h" y1="18.382024%" y2="53.572999%"/><linearGradient id="T" x1="85.707143%" x2="54.655296%" xlink:href="#f" y1="85.090731%" y2="48.827857%"/><linearGradient id="U" x1="37.091462%" x2="69.647834%" xlink:href="#h" y1="96.022295%" y2="-20.116544%"/><linearGradient id="V" x1="46.33124%" x2="71.750021%" xlink:href="#b" y1="102.52306%" y2="-23.629951%"/><linearGradient id="W" x1="37.066126%" x2="69.622498%" xlink:href="#h" y1="96.047631%" y2="-20.116544%"/><linearGradient id="X" x1="43.41589%" x2="74.817725%" xlink:href="#b" y1="98.91066%" y2="-16.528911%"/><linearGradient id="Y" x1="46.576428%" x2="78.200972%" xlink:href="#b" y1="96.452545%" y2="-18.379967%"/><linearGradient id="Z" x1="37.07803%" x2="69.645822%" xlink:href="#h" y1="96.043166%" y2="-20.116215%"/><linearGradient id="aa" x1="49.998719%" x2="49.998719%" xlink:href="#f" y1="10.278436%" y2="224.377962%"/><linearGradient id="ab" x1="37.520904%" x2="70.076836%" xlink:href="#h" y1="94.186097%" y2="-21.636462%"/><linearGradient id="ac" x1="53.375985%" x2="34.970853%" xlink:href="#f" y1="14.021094%" y2="208.723187%"/><linearGradient id="ad" x1="100%" x2="-.00173%" xlink:href="#h" y1="49.965917%" y2="49.965917%"/><linearGradient id="ae" x1="-.927816%" x2="100.927816%" xlink:href="#b" y1="50.016551%" y2="50.016551%"/><linearGradient id="af" x1="-.919625%" x2="100.919625%" xlink:href="#b" y1="49.971894%" y2="49.971894%"/><linearGradient id="ag" x1="-3.516174%" x2="103.586498%" xlink:href="#b" y1="50%" y2="50%"/><linearGradient id="ah" x1="-3.516174%" x2="103.516174%" xlink:href="#b" y1="50%" y2="50%"/><linearGradient id="ai" x1="-3.586498%" x2="103.516174%" xlink:href="#b" y1="50%" y2="50%"/><linearGradient id="aj" x1="-.942685%" x2="100.942685%" xlink:href="#b" y1="50%" y2="50%"/><linearGradient id="ak" x1="55.43227%" x2="-3.867639%" xlink:href="#f" y1="29.34134%" y2="158.835869%"/><linearGradient id="al" x1="-2.101723%" x2="102.101723%" xlink:href="#b" y1="50%" y2="50%"/><linearGradient id="am" x1="-1.884659%" x2="101.884659%" xlink:href="#b" y1="50%" y2="50%"/><linearGradient id="an" x1="-2.13858%" x2="102.13858%" xlink:href="#b" y1="50%" y2="50%"/><linearGradient id="ao" x1="-2.236136%" x2="102.236136%" xlink:href="#b" y1="50%" y2="50%"/><linearGradient id="ap" x1="-2.788622%" x2="102.788622%" xlink:href="#b" y1="50%" y2="50%"/><linearGradient id="aq" x1="-1.836885%" x2="101.836885%" xlink:href="#b" y1="50%" y2="50%"/><g fill="none" fill-rule="evenodd"><path d="m164.76 89c130.62 18.63 224.32-73.34 289.24-84.64 97.47-17 210.19 76.74 101.7 278.61s-157 250.36-302.65 249c-116.51-1.11-206-98.1-237.12-170-48.71-112.53 18.22-291.59 148.83-272.97z" fill="url(#a)" opacity=".49"/><path d="m122.82 44.31h376.76v272.39h-376.76z" fill="#223762"/><path d="m118.48 44.31h372.19v272.39h-372.19z" fill="url(#c)"/><path d="m124.48 50.17h360.2v260.65h-360.2z" fill="#fff"/><path d="m124.48 50.17 360.2 260.65h-362.32z" fill="#d6e3fa" opacity=".34"/><path d="m159.19 90.61s69.16-1.78 91.63 17.16 28.49 73 39.08 109.52c14.44 49.87 87.44 69.46 120.26 51.73" stroke="url(#d)" stroke-linecap="round"/><path d="m149.31 65.62s2.54 172.49 0 197.53l-2.54 25s230.53 4.61 251.23 4.1l20.66-.51" stroke="url(#e)" stroke-linecap="round"/><path d="m92.07 212.7s-11 48.31-11.35 57.65 28.16 43.25 28.16 43.25l13.48-63.83z" fill="url(#g)"/><path d="m52.25 464.89-13.94 10.52s9 21.13 11.15 23.73 13.06 10.06 16.14 9.86 4-3.2 2.7-6.53-6.36-9.92-7.06-12.27 2.76-14.96 2.76-14.96z" fill="url(#i)"/><path d="m134.28 501.42-4.6 21.34s17.24 7.42 21.09 8 21.9 0 21.9 0 .72 0 0-3.13-13.6-6.26-16.85-7c-1.977569-.429354-3.501344-2.008395-3.86-4l-1.55-8.28z" fill="url(#j)"/><path d="m94.44 319.16s-3.34 19.5-1.55 29.84 9.49 64 9.49 64l-52.71 50.11s2.41 9.34 9.15 11.84 7.58 2.17 7.58 2.17 56.45-42.89 61.74-51.07 6.86-102.21 6.86-102.21z" fill="url(#l)"/><path d="m99.47 216.9c.887174.609974 1.805046 1.174048 2.75 1.69-.445283.399886-.589606 1.037309-.36 1.59 8 16.46 2.62 71.58-.32 96.51h72.85c-2.18-20.12-6.3-60.78-4.39-64.59 1.11-2.22 1.17-6.72.89-11.08-.37-5.64-1.31-11.07-1.31-11.07 1.21-4.15 52.81-13.62 57.8-22.77s21.39-66.78 21.39-66.78l-1.1-.65c2-3.13 6-10.12 4.69-13.27-.160431-.39006-.361543-.762117-.6-1.11l6.05-1 5-3.85 2.8-.47-.46-2.74-2.77.47-6-2-.9.15c.160326-.211987.238476-.474855.22-.74-.34-1.49 0-2.74-3.31-2.86-2.05-.07-6.82 2.54-10.59 5.91l-9.89 1.68c-.470886.08064-.890399.345167-1.166125.73531-.275726.390144-.385045.873895-.303875 1.34469l.86 5c.08064.470886.345167.890399.73531 1.166125.390144.275726.873895.385045 1.34469.303875l2.86-.48c-.289093 3.159145-.201814 6.34145.26 9.48-.78.18-1.28.34-1.28.34l-24.26 56c-.4.91-24.62 5.12-25.6 5.31l-35.1 7.88-3.39.48c1.764685-4.827205 2.854964-9.874791 3.24-15 2.15-.7 3.62-1.28 4.4-5.25.36-1.84.15-5.4.07-9.61 1.22.1 3 0 2.85-1.56-.21-2-1.84-8.64-2.31-10.49.1-.67.21-1.34.35-2 .357015-2.236804.143764-4.527533-.62-6.66.882738-1.07072 1.600653-2.267245 2.13-3.55 3-7-8.05-24.64-27.42-22.65-8.75.9-15.19 3.09-20.25 9.56-2.033728 2.524621-3.715719 5.313361-5 8.29-5.72 12.73 3.46 14.8-5 32.2-8.23 17-4.41 32.97.16 36.14z" fill="url(#m)" opacity=".09"/><path d="m105.89 312.1c-1.889169 10.860599-2.71973 21.878925-2.48 32.9.48 17.52 43.76 75.34 43.76 75.34l-14 82.6s3.2 4.73 10.91 5.81l7.7 1.08s23.11-81.21 23.59-95.73-13.27-96.9-13.27-96.9z" fill="url(#n)"/><path d="m118.47 340.54c6-.45 28.41-6.79 45.49-11.83-1.13-7-1.88-11.5-1.88-11.5l-56.21-5.1c-1.888523 10.857314-2.719082 21.872259-2.48 32.89.48 17.52 43.76 75.34 43.76 75.34l-14 82.6c1.883207 2.367717 4.438354 4.110655 7.33 5 4.2-10.07 10.71-26.84 11.9-36.52 1.78-14.48-3.3-30.23-1-42.94s14.24-14 13.8-19.31-9.72-3.3-19.63-7.62-29.73-36.59-34-45.22-3.16-15.03 6.92-15.79z" fill="url(#o)"/><path d="m489 348.61c-9.19 34.86-5 69.14 9 94.17 24.51-14.88 45.07-42.63 54.26-77.49s5-69.14-9-94.17c-24.53 14.88-45.1 42.63-54.26 77.49z" fill="url(#p)"/><path d="m525.56 347.21c-5.761797 16.196907-10.527365 32.731121-14.27 49.51-6.65 29.22-5 64-5 64" stroke="#124" stroke-linecap="round" stroke-linejoin="round"/><path d="m486.81 337.17s4 33.52 8.91 59.35 8.26 60 8.26 60" stroke="#124" stroke-linecap="round" stroke-linejoin="round"/><path d="m478.82 393.45s8 21.83 13.84 36 11.34 28.68 11.34 28.68" stroke="#124" stroke-linecap="round" stroke-linejoin="round"/><path d="m512.41 214.55c-4.17 30.54-.55 58.72 8.46 77.77 13.79-15.93 24.84-42.1 29-72.64s.55-58.72-8.46-77.77c-13.78 15.92-24.83 42.09-29 72.64z" fill="url(#q)"/><path d="m484.07 263.54c1.26-28 3.12-78.44 4.19-107.86-19.4 24-31.85 60.82-31.85 102.14 0 40.84 12.17 77.26 31.19 101.29-2.12-28.22-4.67-70.11-3.53-95.57z" fill="url(#r)"/><path d="m521.76 257.82c0-41.91-12.79-79.2-32.68-103.2-.28.34-.55.71-.82 1.05-1.07 29.42-2.93 79.9-4.19 107.86-1.14 25.46 1.41 67.36 3.52 95.57.5.63 1 1.29 1.49 1.91 19.92-24.01 32.68-61.28 32.68-103.19z" fill="url(#s)"/><path d="m522 286.44c-7.53 25.13-6.56 49.79 1 67.75 16.23-10.81 30.61-30.87 38.14-56s6.56-49.79-1-67.75c-16.26 10.81-30.63 30.87-38.14 56z" fill="url(#t)"/><path d="m540.14 531.06h-71.94l-10.68-93.24h93.3z" fill="url(#v)"/><path d="m457.52 437.82 10.68 93.24h27.53l-7.97-93.24z" fill="url(#w)"/><path d="m453.87 435.16h100.59v22.98h-100.59z" fill="#ffd46a"/><ellipse cx="490.52" cy="270.14" fill="url(#x)" rx="3.7" ry="6.61"/><ellipse cx="499.072558" cy="277.450995" fill="url(#y)" rx="6.61" ry="3.7" transform="matrix(.70710678 -.70710678 .70710678 .70710678 -50.012512 434.161105)"/><ellipse cx="497.869335" cy="312.524829" fill="url(#z)" rx="9.07" ry="5.08" transform="matrix(.70710678 -.70710678 .70710678 .70710678 -75.165874 443.583186)"/><ellipse cx="495.780271" cy="330.605373" fill="url(#A)" rx="9.07" ry="5.08" transform="matrix(.42214366 -.90652895 .90652895 .42214366 -13.213568 640.481576)"/><path d="m434.94 350.13c11.48 29 30.53 51.22 50.84 62.36-28.13-31.77-56.52-142.61-56.52-142.61-7.17 22.02-5.8 51.29 5.68 80.25z" fill="url(#B)"/><path d="m480.1 332.23c-11.48-29-30.53-51.22-50.84-62.36 0 0 28.4 110.84 56.52 142.61 7.17-22.02 5.79-51.29-5.68-80.25z" fill="url(#C)"/><path d="m480.1 332.23c-11.48-29-30.53-51.22-50.84-62.36 0 0 28.4 110.84 56.52 142.61 7.17-22.02 5.79-51.29-5.68-80.25z" fill="url(#D)"/><ellipse cx="460.413237" cy="353.350018" fill="url(#E)" rx="2.86" ry="5.1" transform="matrix(.9223359 -.38638903 .38638903 .9223359 -100.772992 205.341234)"/><ellipse cx="478.817152" cy="356.306711" fill="url(#E)" rx="2.86" ry="5.1" transform="matrix(.9223359 -.38638903 .38638903 .9223359 -100.486102 212.681933)"/><ellipse cx="468.667998" cy="355.992818" fill="url(#F)" rx="5.1" ry="2.86" transform="matrix(.37897167 -.92540827 .92540827 .37897167 -38.382595 654.790869)"/><ellipse cx="470.161727" cy="365.847577" fill="url(#G)" rx="5.1" ry="2.86" transform="matrix(.37897167 -.92540827 .92540827 .37897167 -46.574622 662.293263)"/><ellipse cx="478.267463" cy="381.314461" fill="url(#H)" rx="6.99" ry="3.92" transform="matrix(.37897167 -.92540827 .92540827 .37897167 -55.853913 679.399751)"/><ellipse cx="482.164514" cy="394.800151" fill="url(#I)" rx="6.99" ry="3.92" transform="matrix(.03908542 -.99923587 .99923587 .03908542 68.820439 861.165302)"/><path d="m231.569626 104.431071h6.36c.651696 0 1.18.528304 1.18 1.18v25.45h-8.72v-25.44c0-.312955.124321-.613093.345614-.834386s.521431-.345614.834386-.345614z" fill="url(#J)" transform="matrix(-.16711291 -.98593776 .98593776 -.16711291 157.889022 368.871481)"/><path d="m248.61 119.81 4.99-3.85-.43-2.74-6.02-2z" fill="#d6e3fa"/><path d="m253.386486 112.931603h2.78v2.84h-2.78z" fill="url(#K)" transform="matrix(-.16711291 -.98593776 .98593776 -.16711291 184.609363 384.654991)"/><path d="m227.61 135.2s-1.83-9 0-14.86 12.23-12.69 15.54-12.57 3 1.37 3.31 2.86-7.43 7.2-7.89 8.23 2.86-1 4.57 3.09-5.71 14.84-5.71 14.84z" fill="url(#M)"/><path d="m141 202.4 35.09-7.83c1-.19 25.2-4.4 25.6-5.31l24.26-56s5.87-2 9.71.3l3.84 2.26s-16.39 57.64-21.39 66.78-56.59 18.62-57.8 22.77c0 0 3 17 .42 22.12s5.63 75.73 5.63 75.73-25.49 7-46.15 6.15-29.51-4.86-29.51-4.86 12.29-87.45 1.9-108.95c-3.01-6.23 48.4-13.16 48.4-13.16z" fill="url(#N)"/><path d="m145.76 160.48s2.19 8.66 2.43 11-3.94 1.41-3.94 1.41z" fill="url(#O)"/><path d="m146.23 159c1.76-8.57-9.12-21.33-11-22.11s-30.18 3.5-35.88 10.57-2 15.48-2 15.48 3.45-1.7.53.36-6.47 8.32-5.76 12.27c.9 5 10.1 2.1 10.1 2.1s5.67 10.72 14.58 16.24l.44.24-.6 5c3.857346 2.462089 8.471104 3.455822 13 2.8 7.85-1.2 8-2.88 8-2.88l-.25-9.81c4.08-2.27 6.69-.83 7.84-6.64.77-3.72-.85-14.62 1-23.62z" fill="url(#P)"/><path d="m140.77 202.44c-3.94.54-51 7.16-48.11 13.17 1.49 3.09 2.51 7.54 3.18 12.89 13.82 6.39 40.83 10.85 44.93-26.06z" fill="url(#Q)"/><path d="m147.74 148.78c-3 7-8.61 6.81-8.19 10.08 9.7 75.58-37.09 59.18-48.61 51.18-4.47-3.11-8.21-18.73-.15-35.35 8.25-17-.73-19.05 4.87-31.5s13.14-15.88 24.65-17.06c19.37-1.98 30.38 15.62 27.43 22.65z" fill="url(#R)"/><path d="m131.84 198.11c-4.67 4.85-11.95 5.79-16.8 4.33s-9.34-6.57-6.91-19.08-1.68-28.57 0-35.66 9-14.94 20.35-17.55c2.630003-.548135 5.33063-.673039 8-.37-4.950057-2.747706-10.63481-3.880462-16.26-3.24-11.77 1.21-19.46 4.69-25.2 17.45s3.46 14.8-5 32.2c-8.24 17-4.42 33 .15 36.14 10.14 7.05 47.07 20.47 50.74-25.41-2.779634 3.921103-5.809254 7.65886-9.07 11.19z" fill="url(#S)"/><path d="m218.18 202.64c5-9.15 21.39-66.78 21.39-66.78l-2.27-1.33s-17.32 55.59-22.4 61-61.9 16.81-67.58 21.77 14.37 19.18 14.37 19.18c-.37-5.64-1.31-11.07-1.31-11.07 1.21-4.15 52.8-13.62 57.8-22.77z" fill="url(#T)"/><path d="m359.54 72.51h39.47v39.47h-39.47z" fill="url(#U)" opacity=".45"/><path d="m347.74 106 6-1.76c6-1.76 5.78-14.24 5.78-14.24v-20.86h39.48v20.86s.24 12.49-5.78 14.24l-6 1.76z" fill="url(#V)"/><path d="m409.388338 132.793862h39.47v39.47h-39.47z" fill="url(#W)" opacity=".45" transform="matrix(.9989144 -.04658343 .04658343 .9989144 -6.639462 20.15562)"/><path d="m393.63 163.47 6.15-1.22c6.15-1.22 7-13.68 7-13.68l1.83-20.8 39.31 3.45-1.83 20.78s-.85 12.46-7 13.68l-6.15 1.22z" fill="url(#X)"/><path d="m242.85 448.19 4.65-1c4.65-1 5.32-10.65 5.32-10.65l1.42-16.17 29.76 2.63-1.42 16.17s-.67 9.69-5.32 10.65l-4.65 1z" fill="url(#Y)"/><path d="m302.22 114.17h36.14v36.14h-36.14z" fill="url(#Z)" opacity=".45"/><path d="m291.42 144.85 5.51-1.61c5.51-1.61 5.29-13 5.29-13v-19.15h36.14v19.11s.22 11.43-5.29 13l-5.51 1.61z" fill="url(#aa)"/><path d="m216.937124 231.793582h35.4v36.97h-35.4z" fill="url(#ab)" opacity=".45" transform="matrix(.99988735 .01500927 -.01500927 .99988735 3.782929 -3.493539)"/><path d="m201.7 259.45 5.67-.88c5.67-.88 6.94-12.25 6.94-12.25l2.48-19 35.83 4.68-2.48 19s-1.26 11.37-6.94 12.25l-5.67.88z" fill="url(#ac)"/><path d="m1.32 545.73h578.13l-39.68-14.67h-501.85z" fill="url(#ad)"/><path d="m262.88 107.77 19.06-30.21h34.83" stroke="url(#ae)" stroke-linecap="round"/><path d="m323.1 243.47 21.84-17.79h32.53" stroke="url(#af)" stroke-linecap="round"/><circle cx="180.05" cy="90.93" r="7.11" stroke="url(#ag)" stroke-linecap="round"/><circle cx="262.88" cy="124.85" r="7.11" stroke="url(#ah)" stroke-linecap="round"/><circle cx="284.67" cy="193.72" r="7.11" stroke="url(#ag)" stroke-linecap="round"/><circle cx="314.89" cy="252.74" r="7.11" stroke="url(#ai)" stroke-linecap="round"/><path d="m277.56 204.09-14.68 17.02h-38.36" stroke="url(#aj)" stroke-linecap="round"/><path d="m333.31 393.47 5.38 1.81c5.38 1.81 10.35-6.42 10.35-6.42l8.62-13.57 30.5 19.38-8.62 13.57s-5 8.23-10.35 6.42l-5.38-1.81z" fill="url(#ak)"/><g stroke-linecap="round"><path d="m364.89 76.45h27.44" stroke="#fff"/><path d="m364.89 83.81 21.53.84" stroke="#fff"/><path d="m364.89 92.24h21.53" stroke="#fff"/><path d="m308.46 119.14 20.22.67" stroke="#fff"/><path d="m308.46 127.76h23.27" stroke="#fff"/><path d="m428 139c-9.34-.76-11.05 4-11.62 8.39s4.89 10.54 11.18 8.69 7.88-4.31 7.5-9.45-4.19-6.48-4.19-6.48" stroke="#fff"/><path d="m425.67 147.34 14.11-4.67" stroke="#fff"/><path d="m220.45 236.48 22.36 2.96" stroke="#fff"/><path d="m220.45 246.55 16.19 1.27" stroke="#fff"/><path d="m218.67 252.74 24.14 1.18" stroke="#fff"/><path d="m284.67 63.88 23.79-1.78" stroke="url(#al)"/><path d="m284.67 70.23h26.53" stroke="url(#am)"/><path d="m346.72 213.78h23.38" stroke="url(#an)"/><path d="m347.74 219.74h22.36" stroke="url(#ao)"/><path d="m228.55 213.78h17.93" stroke="url(#ap)"/><path d="m228.55 208.69h27.22" stroke="url(#aq)"/></g><ellipse cx="307.77" cy="6.65" fill="#ffd46a" rx="6.16" ry="6.65"/><ellipse cx="516.8" cy="126.38" fill="#ffd46a" rx="6.16" ry="6.65"/><ellipse cx="80.72" cy="126.38" fill="#ffd46a" rx="6.16" ry="6.65"/><ellipse cx="192.93" cy="354.35" fill="#ffd46a" rx="6.16" ry="6.65"/></g></svg>