<svg fill="none" height="72" viewBox="0 0 90 72" width="90" xmlns="http://www.w3.org/2000/svg"><path d="m43.9344 44.9032c7.0549 0 12.7741-7.5823 12.7741-16.9355s-5.7192-16.9355-12.7741-16.9355c-7.055 0-12.7742 7.5823-12.7742 16.9355s5.7192 16.9355 12.7742 16.9355z" fill="#fff"/><g clip-rule="evenodd" fill-rule="evenodd"><path d="m37.4231 72-5.1028-20.1042 28.8387-1.7668v21.871z" fill="#fff"/><path d="m57.3325 18.5141c.0061.019.012.0382.0181.0574-.0061-.0192-.0122-.0384-.0181-.0574zm-11.1985-5.9086c.0603.0133.1208.0266.1815.0401-.0605-.0133-.1212-.0265-.1815-.0401zm-2.1117-2.3761c-.5089.0089-1.0189.0331-1.525.0831-.4322.0432-.8625.1014-1.2933.1555-.4207.0519-.8468.0805-1.2648.1521-.6308.1088-1.2485.2865-1.8413.5269-.5996.2435-1.1429.6253-1.6863.9685-.3597.2279-.7235.4846-1.0439.765-.7249.6346-1.378 1.3517-1.9958 2.0903-.2744.3278-.504.6778-.7282 1.0408-.2473.4013-.4751.8143-.6783 1.2401-.1721.3602-.3406.723-.4849 1.0961-.1858.4791-.2956.9846-.3693 1.4922-.0529.3628-.0692.7278-.0901 1.0927-.0278.4859.3258.9224.821.9622.4797.0386.9349-.333.9648-.819.0149-.2399.023-.4832.0548-.7211.023-.1704.052-.339.0851-.5074.0926-.3602.2154-.7025.3736-1.0415.1256-.2693.2582-.5356.3937-.8001.2582-.4739.5435-.9294.8541-1.3719.1783-.2528.3896-.4805.5982-.7076.1566-.1704.3136-.3403.4705-.5099.3131-.3271.637-.6356.9834-.9274.312-.2621.6528-.4865.9932-.7104.1681-.1028.3354-.206.5075-.3021.3832-.2127.7644-.4018 1.1753-.551.3373-.0944.6736-.1752 1.021-.2321.3508-.0582.7079-.0845 1.0615-.1244.6865-.0775 1.3693-.1666 2.0587-.2123.483-.0144.9601-.0023 1.4424.0495.5038.0539 1.0022.1493 1.4976.2531.8362.1856 1.6704.383 2.4974.6077.4335.1177.8529.2684 1.2797.4083.2303.0756.4601.1514.687.2358.1581.0592.3107.1315.4618.2071.4121.2291.8026.4817 1.1857.758.3389.2451.656.5243.9664.8058.1276.1287.2513.2592.373.3938.1289.1423.2385.307.3478.4659.2998.4928.5752 1.0001.8602 1.5013.3116.5488.5284 1.1448.752 1.734.1457.3846.6198.59 1.0066.5197.2365-.0432.4512-.179.5902-.3744.1354-.1899.2174-.4711.1571-.702-.0664-.2536-.144-.5024-.2241-.7512-.0763-.2439-.1514-.4886-.2393-.7282-.0711-.1946-.1688-.3785-.2648-.5615-.2-.3839-.4086-.7644-.6213-1.1408-.254-.4509-.5196-.9157-.8657-1.3036-.3476-.39-.7385-.7367-1.1315-1.0794-.3333-.2912-.6883-.5514-1.0534-.8013-.1674-.1142-.3436-.2156-.5177-.3191-.2458-.146-.5026-.2858-.7628-.4048-.4023-.1837-.8203-.3209-1.2329-.4785-.3923-.1486-.7811-.3007-1.1862-.4142-.9451-.2656-1.8977-.4906-2.857-.6988-.8007-.1728-1.6229-.3105-2.4446-.3105-.0396 0-.0793.0003-.1188.001z" fill="#2c2c2c"/><path d="m54.8804 35.5658c-.3014.4644-.4363 1.0164-.6321 1.5301-.1743.4588-.3483.9146-.5635 1.3562-.2749.5058-.542 1.0191-.8375 1.5125-.2586.431-.5964.8199-.9355 1.1924-.1899.1977-.3839.3904-.5718.5897-.2287.2429-.4453.4969-.6684.7454-.5895.6207-1.1933 1.2253-1.8918 1.7245-.1534.0823-.3109.1455-.4746.2022-.235.0664-.4714.1244-.7102.1763-.2333.0507-.4749.069-.7144.0851-.7457.0152-1.4908-.0644-2.2346-.1168-.7314-.051-1.4603-.0975-2.1821-.2283-.5845-.1523-1.1546-.3533-1.7342-.5232-.5615-.1642-1.1436-.2772-1.6796-.5142-.3334-.2065-.6362-.4605-.9276-.7231-.7069-.6735-1.3694-1.3934-1.9183-2.2024-.1595-.2588-.3187-.5179-.4864-.7719-.1279-.1931-.26-.3832-.3889-.5756-.2185-.3839-.3959-.7844-.5811-1.1854-.2175-.4704-.4242-.9436-.6213-1.4226-.1864-.4528-.7669-.6332-1.1951-.4339-.2154.1-.3841.2832-.4648.5062-.0846.2318-.0615.4609.0299.6859.2351.5779.4755 1.1536.7181 1.7294.1036.246.2019.5014.3327.7353.1555.2776.325.546.497.8136.2154.3493.4131.7088.6296 1.0569.2506.4015.5284.7826.8149 1.1591.542.7109 1.1721 1.3583 1.8516 1.9389.3786.3243.8021.6034 1.2756.7729.4051.1461.8184.2644 1.2324.3832.4151.1198.8251.2556 1.2376.3846.502.1568 1.0142.2819 1.5359.3568.8704.1251 1.7599.1365 2.6378.1744.9527.0411 1.9112.0797 2.8427-.1602.4567-.1175.9112-.2635 1.3406-.4582.2942-.1337.5665-.3446.8226-.5427.1599-.1242.3197-.252.4707-.3865.6877-.6136 1.2981-1.307 1.8956-2.0058.0432-.0507.0876-.1003.1323-.1498.4253-.4453.8408-.8936 1.2097-1.3882.1674-.2251.3226-.4548.4648-.6961.1646-.2798.311-.5697.4669-.8542.3252-.5934.6455-1.1826.8814-1.8186.1042-.2818.2086-.5643.3109-.8475.0982-.2711.1793-.5509.2973-.8145.0638-.1224.1131-.241.1261-.3959.0338-.4-.2154-.7839-.5928-.921-.0975-.0355-.2017-.0528-.3066-.0528-.2892 0-.5812.1318-.7415.3778z" fill="#2c2c2c"/><path d="m60.4804 50.6877h.0005c.0088.0249.0168.05.0238.0756-.0082-.0252-.0162-.0503-.0243-.0756zm-7.354-2.4817c-.8713.0204-1.7407.0911-2.6099.1427-1.7378.0777-3.4824.0426-5.2217.0228-.9693-.0107-1.9381-.0161-2.9075.0007-.559.0102-1.118.0535-1.6747.096-.4343.0338-.8659.0987-1.2988.1419-.6433.0637-1.2879.1152-1.932.1659-.1924.0069-.3837.0102-.5772.0078-.2534-.0033-.5082-.0365-.7602-.0635-.5372-.0581-1.0718-.0893-1.6116-.1048-.2819-.0075-.542.0581-.763.2413-.2181.1805-.3569.4467-.3799.7292-.0448.5548.3949 1.1197.9727 1.1401.3151.0107.6287.0263.9424.0547.2744.0244.5474.0676.8204.1048.2757.0371.5501.0587.8286.0668.3786.0109.7607-.0195 1.1388-.0465.5765-.04 1.1531-.0846 1.7289-.1379.3049-.0284.6084-.067.9126-.0974.2697-.0265.5394-.045.8096-.0637 1.8114-.0588 3.6208.0171 5.4325.0469.8982.0149 1.798.0344 2.6956.0081.9397-.0276 1.8762-.1024 2.8145-.1557.6581-.0283 1.3163-.0472 1.9752-.0579.7221-.0121 1.4436-.0426 2.1658-.0547.7221-.0123 1.4368-.006 2.1557.0702.3326.0352.6632.0852.9937.1379.2297.0365.46.059.6903.0845.0534.2553.0761.512.0919.7717-.0111.4741-.0366.9417-.0714 1.4145-.0306.4156-.0753.8299-.0996 1.2455-.0589 1.028-.1118 2.0558-.1585 3.085-.0853 1.8923-.1727 3.7844-.2804 5.6754-.0724 1.2754-.2283 2.5433-.3991 3.809-.0704.0538-.1328.1178-.1844.1903-.1496.2102-.1734.4304-.151.6785.0191.2178.0371.436.0551.654-.0029.1244-.0088.2595.0134.3732.025.1285.063.252.111.3743.1254.3165.4736.5306.8035.5569.1701.0128.3333-.0162.4885-.0878.2113-.0987.4444-.3108.502-.5467.1477-.6014.237-1.2111.3333-1.8219.0636-.4075.1321-.8158.1802-1.2246.107-.9117.2161-1.8246.2622-2.7417.0935-1.8882.1599-3.7764.2249-5.6659.0495-1.4387.109-2.8748.2127-4.3116.021-.294.0522-.5921.0569-.8867.0034-.1953.0067-.3904.0095-.5858.004-.2116-.0184-.4271-.0298-.638-.0082-.1535-.0278-.3048-.0462-.4574-.0182-.1542-.0548-.3062-.0988-.4549-.0331-.1244-.0758-.2453-.128-.3629-.0604-.1474-.1701-.2818-.2655-.4088-.1457-.194-.3802-.3765-.6091-.4623-.1809-.0676-.3706-.1007-.5597-.14-.0922-.0188-.1845-.0366-.2766-.0548-.3972-.096-.7934-.1972-1.1982-.2614-.4274-.067-.8549-.1142-1.2865-.1379-.3889-.0216-.7798-.0142-1.1693-.0202-.4152-.0075-.8306-.0249-1.2465-.0345-.4332-.0102-.8666-.0157-1.2998-.0157-.376 0-.7518.0041-1.1275.013z" fill="#2c2c2c"/><path d="m36.8965 70.6634c-.0027-.0082-.0052-.0163-.0078-.0246.0026.0083.0054.0166.008.0249-.0002 0-.0002-.0002-.0002-.0003zm-4.7355-21.4302c-.2676.0486-.4552.2209-.6238.4183-.1072.1256-.2074.2567-.3077.3879-.2709.3534-.1611.8873.1932 1.1387.073.0519.1509.0894.2309.1138.0343.692.078 1.3825.1694 2.0704.1193.894.3151 1.7774.525 2.6538.2188.9171.4559 1.8301.6762 2.7472.1273.5271.254 1.0548.3807 1.5826.1125.4697.1964.9489.2941 1.4219.0879.4279.1455.8604.2105 1.2915.0632.4169.122.8313.1688 1.2501.1389 1.2457.2587 2.4932.376 3.7412.0522.5556.1219 1.1092.1979 1.6626.0371.2689.0799.5467.1469.8102.0529.2069.1165.409.1857.611.0555.1628.1585.3054.2601.4426.1185.1602.319.2697.4959.3446.2953.1258.6673.0421.9084-.1574.1282-.1068.221-.2386.2785-.3946.0176-.0812.0352-.1616.0528-.2419.0097-.1213-.0038-.2382-.0399-.3514-.0944-.466-.1348-.9401-.1837-1.4125-.0487-.4649-.0954-.9306-.1415-1.3955-.0914-.9259-.1863-1.851-.2853-2.7762-.0989-.9252-.2343-1.8435-.3881-2.7606-.0711-.4211-.1457-.8339-.2406-1.2503-.1002-.4426-.1916-.8886-.3082-1.3271-.3862-1.4484-.796-2.8899-1.1876-4.3367-.1476-.5453-.277-1.0941-.3949-1.6469-.1762-.834-.2886-1.6767-.3651-2.5248-.017-.1879-.034-.3764-.0515-.5643-.0184-.2042-.0468-.4062-.0902-.6062-.0622-.2865-.2012-.6049-.4485-.7799-.1549-.1095-.356-.1746-.5503-.1746-.0487 0-.0969.004-.1441.0125z" fill="#2c2c2c"/><path d="m31.3723 50.4281c-.3408.5102-.6951 1.0164-1.0007 1.5489-.3245.5664-.6212 1.1684-.8677 1.7733-.2074.5095-.4153 1.0191-.6233 1.5286-.3212.7874-.6273 1.5815-.9518 2.3681-.3598.8737-.7223 1.7461-1.0759 2.6235-.1781.4425-.3679.8824-.5352 1.3291-.1951.5204-.3896 1.0408-.5847 1.5612-.2105.5623-.4023 1.132-.6063 1.6969-.2478.6866-.5054 1.3684-.773 2.0483-.1144.2907-.2289.5811-.3387.8746-.1056.2811-.1788.5771-.2513.8683-.0834.3352-.1666.6704-.2554 1.0036-.0867.3243-.2012.6576-.139.9968.0665.3642.3327.6616.6695.8008.2263.0933.445.0933.6835.0601.42-.0581.7459-.4479.779-.8588.0108-.1336-.0076-.2678-.052-.3931.1082-.3133.2126-.6276.311-.9458.1233-.4027.2899-.7804.4694-1.1603.1924-.4061.3828-.813.5528-1.2292.2004-.49.3869-.9834.5704-1.4794.33-.8894.6307-1.7909.9505-2.6843.2866-.8002.5921-1.5936.8989-2.3856.4357-1.1224.8679-2.2456 1.2914-3.3729.1795-.479.3611-.9568.5439-1.434.3134-.8166.6242-1.6273 1.0145-2.411.2952-.5352.6424-1.0421.9792-1.5511.3049-.4616.2236-1.0874-.2396-1.4159-.1738-.1232-.383-.1836-.5916-.1836-.3214 0-.6412.1438-.8278.4229z" fill="#2c2c2c"/><path d="m63.2415 53.9963c.0139.022.0277.0441.0416.0661-.014-.022-.0279-.0441-.0416-.0661zm-1.0677-2.706c-.3596.1644-.5522.5204-.6673.8786-.1564.4852.0657 1.0198.5603 1.1989.2285.0832.4841.0673.7038-.0279.2047.2545.3843.5286.5625.8029.6663 1.0768 1.2084 2.2216 1.745 3.367.4058.8663.7798 1.7469 1.1537 2.6268.3536.8306.6795 1.674 1.0128 2.512.3483.8771.7005 1.7523 1.0366 2.6335.1597.4185.3025.8421.4405 1.2679.1363.4746.2654.9507.3845 1.4306.0631.2527.1275.5041.2019.7536.0563.1858.1179.3662.1958.5439.0596.1351.1294.2635.1864.4002.166.4.6395.6202 1.0555.5446.2479-.0453.4728-.1872.6192-.3927.1578-.2217.1972-.4717.1639-.7358-.0541-.4339-.1287-.8678-.2012-1.2989-.0765-.4528-.1674-.9016-.2839-1.3464-.252-.965-.5793-1.9172-.9593-2.8397-.7343-1.7847-1.4911-3.5586-2.304-5.3089-.2338-.5035-.4823-.9995-.7256-1.4989-.1003-.2056-.2073-.4076-.3117-.6109-.1205-.236-.2336-.4772-.3644-.7076-.506-.8941-1.0067-1.7909-1.5804-2.6444-.1918-.2859-.3897-.5657-.6119-.8292-.1408-.1669-.3075-.3123-.4735-.4529-.1626-.1365-.3773-.2277-.5711-.3095-.1179-.05-.2601-.0702-.3876-.0749-.0178-.0007-.0357-.0011-.053-.0011-.1872 0-.3528.0395-.5275.1192z" fill="#2c2c2c"/><path d="m33.7701 26.1934c-.0697.0216-.145.0385-.2121.0662-.0744.0305-.1387.0703-.2065.1142-.103.067-.2026.1405-.2975.219-.113.094-.2268.1879-.3401.2819-.1666.1384-.3298.2816-.4944.4223-.1918.1641-.3842.3276-.5767.4913-.1678.1419-.3258.2932-.4998.4277-.1491.1143-.1897.3332-.1125.4994.0468.1.1328.1784.237.2163.0928.0337.2331.0418.3212-.0135.2033-.1284.4017-.2595.5921-.4074.1693-.1319.3292-.2772.4877-.4225.1762-.1609.3517-.3216.5265-.4832.0845-.0779.1698-.1571.2567-.2346.1101.0159.2251-.0095.307-.0898.0541-.0528.1084-.1061.1625-.1581.0928-.0898.1972-.1723.2581-.2872.0433-.0616.0685-.1305.0745-.2055.0054-.0717-.0067-.1405-.0373-.2061-.0305-.0656-.0751-.1188-.134-.1616-.0626-.0436-.1547-.0792-.2394-.0792-.0253 0-.0501.0031-.073.0104z" fill="#2c2c2c"/><path d="m33.6629 29.4229c-.0272.0177-.0544.0348-.082.0521.0274-.0173.0546-.0348.082-.0521zm.3795-1.3022c-.6356.3419-1.2629.6953-1.8347 1.1374-.2033.1574-.2215.4704-.0616.6629.0807.0972.1991.1588.3252.1689.1301.0102.235-.0345.3394-.1075.2452-.1714.497-.3335.7499-.4944.2928-.1732.5888-.3379.8875-.4997.1144-.0614.2025-.1453.248-.2702.0433-.1183.0379-.2514-.0157-.3655-.0775-.1661-.2606-.28-.4438-.28-.0666 0-.1328.0151-.1942.0481z" fill="#2c2c2c"/><path d="m34.6266 30.1236c-.1517.0589-.3028.1184-.4539.1777-.2405.0947-.4587.2244-.6734.3664-.0867.0575-.1382.1824-.1464.2817-.0088.1055.0252.2116.0928.2934.0699.0837.1729.1372.2825.1458.1145.0089.2012-.0316.2935-.0932.0203-.0126.0402-.0258.0602-.0389.2799-.1659.5869-.2772.8895-.3948.2081-.0805.2874-.3502.1979-.5407-.0455-.0981-.1294-.1743-.2303-.2109-.045-.0162-.089-.0233-.1325-.0233-.0604 0-.1197.0137-.1799.0368z" fill="#2c2c2c"/><path d="m45.7939 12.9039c-.061.4439-.0969.8901-.1186 1.338-.025.4962-.0534.9915-.0846 1.4875-.0548.8785-.149 1.7557-.1532 2.6369-.0007.1142.0217.2163.097.307.0732.0877.1809.1432.2953.1525.2324.0191.441-.1593.4606-.3911.0732-.8725.1417-1.7463.1891-2.6209.0263-.4878.0508-.9764.0711-1.4644.0191-.4609.0494-.919.1112-1.3766.0312-.2345-.1728-.4486-.3991-.467-.0125-.001-.0246-.0015-.0369-.0015-.2285 0-.4015.177-.4319.3996z" fill="#2c2c2c"/><path d="m43.3777 12.4764c-.063.9934-.0772 1.9895-.1159 2.9843-.0176.4697-.065.9387-.1023 1.4078-.0399.5013-.0758 1.0029-.1023 1.5049-.0217.423-.0182.8474-.063 1.2685-.0196.1851.1031.3655.2758.4285.1042.0377.2215.0324.3224-.0142.0923-.0432.1918-.1346.2175-.2373.065-.2561.1051-.5088.1226-.7723.0156-.2374.0312-.4746.0461-.7125.0306-.4695.0665-.9392.1036-1.4089.0366-.4725.0787-.9455.0915-1.4185.0143-.5171.0257-1.034.0339-1.5509.0074-.4698.0258-.9395.0549-1.4092.0143-.2397-.1626-.4567-.4072-.4764-.0114-.0009-.0225-.0012-.0336-.0012-.225 0-.4293.1782-.444.4074z" fill="#2c2c2c"/><path d="m40.1464 34.4092c-.0204.0074-.0411.0141-.062.0198.0206-.0065.0412-.0133.062-.0198zm10.5929-13.2742c.8389.0675 1.6724.1662 2.5138.2053.7902.0364 1.583.035 2.3737.0385.4073.0014.8138-.0021 1.2211-.0067.3595-.0037.7098.0321 1.061.0968.1725.0425.3421.0895.5067.1571.1538.092.3012.1931.4404.3062.1045.1072.2004.2189.2897.3406.1024.1815.1879.3675.2602.563.1667.626.2187 1.2617.2578 1.9053.0243.7002.0407 1.3998.026 2.1003-.0156.7273-.1022 1.4498-.1813 2.1724-.0812.7429-.1597 1.4857-.2482 2.2279-.0831.6977-.1448 1.4032-.2641 2.0965-.0166.0543-.0356.107-.0573.1595-.0608.0955-.1255.1874-.196.2765-.0459.0422-.0934.0819-.1431.1196-.0957.0489-.1927.0909-.2938.129-.4927.1374-1.0012.2055-1.5115.241-.7719.0198-1.5318-.0825-2.2953-.1838-.5863-.0783-1.1729-.1445-1.7634-.1905-.5663-.0439-1.1359-.077-1.7041-.073-.5624.0037-1.1201.0668-1.6799.107-.1323-.0036-.261-.0157-.3914-.0364-.0736-.0194-.1465-.0408-.2186-.0663-.0091-.0063-.0183-.0131-.0275-.0197-.0267-.0318-.0521-.0639-.0769-.0969-.2237-.3996-.3863-.8252-.545-1.2545-.125-.339-.2232-.6894-.3719-1.0191-.1502-.3341-.3282-.6509-.5149-.9662-.2232-.3762-.466-.7442-.7542-1.0751-.1576-.1803-.3363-.3437-.5169-.5005-.1751-.152-.3841-.2463-.5891-.3525-.0419-.0121-.0838-.0242-.1264-.0365-.1408-.0513-.2856-.0722-.433-.062-.2604-.0021-.3843.0318-.6277.1154-.5028.1709-.8931.5795-1.213.9853-.138.1749-.2585.3708-.3728.5618-.3999.6656-.7493 1.3549-1.1023 2.045-.2045.3802-.4121.7586-.6153 1.1398-.1993.3738-.3983.7505-.6565 1.0877-.0213.0032-.0426.0058-.064.0082-.3034.0026-.6068-.013-.9097-.0242-.3722-.0128-.7435-.0189-1.1149-.0175-.7894.0019-1.5796.0061-2.3689.0087-.4059.002-.8118.0041-1.2177.0155-.4132.0116-.8245.0258-1.2379.0055-.3734-.0176-.7434-.0662-1.1142-.1122-.3289-.0406-.6617-.0586-.9906-.104-.1169-.0372-.2279-.0839-.3384-.1356-.06-.0397-.116-.0817-.1705-.1267-.092-.0989-.1775-.201-.2572-.3105-.2178-.3755-.3903-.7748-.5415-1.1818-.0887-.3378-.155-.6742-.2047-1.0222-.0533-.3795-.0731-.7658-.1034-1.1481-.0291-.3618-.0873-.7164-.1455-1.0749-.0533-.3311-.0848-.6641-.1072-.9982-.0207-.8328.0624-1.6621.1031-2.4933.0216-.4503.0724-.8934.1401-1.3391.0642-.4234.1623-.8528.1771-1.281.0002-.0042.0004-.0083.0004-.0125.1058-.0178.2114-.0354.3176-.0517.4229-.0655.8496-.1087 1.2751-.1505.8233-.0811 1.6493-.1392 2.4726-.2215.7961-.0797 1.5795-.2202 2.3588-.3985.3855-.0885.7732-.1647 1.1661-.2121.3729-.0451.7463-.0719 1.121-.0932.8738-.034 1.7465-.0717 2.6186-.1404.8314-.0655 1.6614-.1505 2.4914-.2221.8328-.0716 1.6622-.1722 2.4936-.2526.7819-.0757 1.5658-.1277 2.3507-.1701.7819-.0292 1.5599-.0434 2.3411.0188zm-1.8635-2.2042c-.9972.0433-1.9957.1033-2.9894.2027-1.1303.1134-2.2573.2532-3.3885.3618-1.0309.0996-2.0573.2119-3.0908.2737-.9564.0409-1.9222.0605-2.866.2295-.4229.0756-.8368.1857-1.2569.2742-.4377.0918-.8775.1769-1.3212.2364-.9099.1222-1.823.2161-2.7343.3248-.4573.0546-.9126.1255-1.3665.2031-.4064.0697-.8023.1777-1.2115.2324-.0298.0034-.0589.0074-.0887.0116-.4764.0603-.8049.5348-.7831.9938-.1314.1691-.2033.3705-.2336.5916-.0554.4046-.1332.8063-.186 1.2116-.0589.447-.1103.892-.1292 1.3425-.0405.9548-.098 1.9057-.0323 2.8599.0303.4437.0859.8847.1589 1.3229.0703.4222.1211.8407.1583 1.2669.0398.4612.0771.9259.1737 1.3797.1096.5152.2632 1.0264.4899 1.5032.0934.1958.1893.389.2956.5781.1129.2005.2368.3957.3713.5821.1387.1917.324.3613.5007.5158.121.1069.2388.2013.378.2851.1429.0851.2991.1553.4492.2296.28.1378.5791.2189.8889.2654.4208.0634.8443.1059 1.2651.1742.4315.0688.8617.1134 1.2988.1283.4518.0162.9071-.0135 1.3596-.0163.2381-.0012.4762-.0006.715-.0006.1853.0006.3708.0006.5568 0 .8652-.0019 1.7317-.0161 2.5969.0027.5195.0114 1.043.0479 1.5613-.0067.2659-.0277.5317-.1027.7631-.2363.1487-.0858.2699-.1683.3929-.2824.1177-.1094.2274-.2411.3309-.3659.1441-.1743.2712-.3648.393-.5545.2618-.4059.4824-.8395.7157-1.2615.2478-.4481.4851-.9008.7206-1.3551.1473-.2722.2985-.5424.4525-.8112.1704-.2977.3467-.5937.5536-.867.1489.1795.2837.37.4141.5645.2461.4043.4767.8175.649 1.2594.2042.524.3869 1.0507.6183 1.5633.3368.7455.8679 1.4681 1.6905 1.7031.3159.0898.6434.1587.9713.183.3403.0256.6981-.0344 1.0377-.0683.218-.0217.4355-.0397.6541-.0539.9159-.01 1.8332.0467 2.7452.1255.4573.0399.9133.0946 1.3693.1445.2102.023.4213.0372.6317.0548.5472.0459 1.0952.0263 1.6417-.0209.2746-.0237.5507-.0669.8214-.1161.3165-.0574.6284-.1466.932-.2512.1347-.046.2639-.0953.3931-.1534.1746-.0776.3354-.1945.4925-.3011.2246-.1541.4071-.3869.5689-.603.1622-.2182.2895-.4661.3964-.7145.088-.2047.1196-.4445.1583-.6606.0244-.1357.0472-.2714.0696-.4071.1422-.857.2558-1.72.3612-2.5825.0582-.4726.1138-.9453.1685-1.4181.0501-.4234.1048-.8495.132-1.275.0594-.9441.0466-1.8854.0161-2.8302-.0154-.5063-.0338-1.0217-.0987-1.5248-.0189-.1452-.0373-.2904-.0615-.4349-.0556-.3249-.1557-.6354-.2565-.9481-.0824-.256-.2076-.4949-.347-.7233-.1711-.2821-.3552-.5321-.5864-.7671-.5169-.524-1.1542-.8969-1.8711-1.0684-.2924-.0701-.5845-.1322-.8822-.1754-.2218-.0325-.4492-.036-.6731-.0413-.8727-.0217-1.746-.0101-2.6186-.0291-.9132-.0195-1.819-.0837-2.7282-.1736-.466-.0465-.9308-.0802-1.3989-.1013-.124-.0055-.2482-.0077-.3727-.0077-.3004 0-.6019.0134-.9003.0267z" fill="#2c2c2c"/><path d="m25.9302 27.1965c-.0703.2182-.1394.4329-.1934.6558-.0745.3046-.1434.6165-.1597.9299-.0102.1984.0061.4052.0529.5983.0621.2559.1818.4659.3489.6678.1056.1264.3356.2965.4965.3411.1131.0331.2274.06.3431.0804.1096-.0055.2197-.0109.3293-.0169.1564-.0088.4006-.1418.5196-.2324.182-.1391.3011-.3058.3931-.5126.1129-.2525.1501-.5456.1569-.8197.0109-.4011-.0386-.8096-.2137-1.1737-.0456-.0941-.1045-.1762-.1734-.2457-.0322-.3824-.2642-.7217-.6405-.8585-.105-.038-.2155-.0562-.3258-.0563-.4033 0-.8053.2428-.9338.6425z" fill="#2c2c2c"/><path d="m41.9257 20.1432c-.012.0007-.0241.0014-.036.0019.0119-.0007.024-.0014.036-.0019zm-17.7383-.6179c.0233.0052.047.0104.0705.0156-.0235-.0052-.0472-.0102-.0705-.0156zm64.6332-19.51679255c-.1182.02100815-.2621.09618655-.3234.20608855-.1155.206262-.2377.406274-.3667.605071-.1122.172926-.2472.333703-.3755.494303-.1371.17223-.2911.3337-.4389.49655-.1307.1455-.2635.28891-.3959.43249-.2873.30714-.5726.6174-.8691.91568-.3437.34655-.6936.68372-1.0568 1.00926-.7103.63754-1.4269 1.26883-2.1623 1.8772-1.4648 1.21066-2.9619 2.3833-4.4846 3.5193-.1774.13248-.364.25436-.546.38076-.3776.23559-.7565.46649-1.1396.69279-.4134.2442-.8272.487-1.2385.7332-.7814.4679-1.558.9453-2.3689 1.3591-1.7032.8695-3.4645 1.6237-5.2674 2.2598-1.0015.354-2.0139.6824-3.024 1.0105-1.0321.3361-2.0642.671-3.0973 1.0034-1.7958.5439-3.6128 1.0191-5.4325 1.4721-.9029.2245-1.8173.3953-2.7356.5412-.9678.154-1.9356.3106-2.9052.4517-1.4323.2075-2.8795.2997-4.324.3777-.7483.0401-1.4944.1119-2.2421.1649-.6718.0479-1.3441.0905-2.0166.1271-.8742.0384-1.7492.0465-2.6239.0491-.9367.0021-1.8727-.0074-2.8086-.0345-.4505-.0136-.9009-.0292-1.3507-.0448-.4775-.0176-.9543-.0373-1.4297-.0861-.9724-.0997-1.94-.2476-2.9099-.3716-.5105-.0651-1.0243-.0998-1.5369-.1493-.316-.0306-.628-.0691-.9427-.1118-.2448-.0337-.4878-.087-.7307-.1344-.6827-.1597-1.3595-.3366-2.0374-.5155-.6955-.1831-1.4044-.3141-2.1087-.4589-.1923-.0463-.3854-.0904-.5748-.146-.2554-.0746-.5087-.1526-.7626-.234-.4125-.1314-.8305-.2467-1.2499-.3547-.4357-.1118-.8746-.2197-1.3007-.3634-.4443-.1493-.8812-.312-1.3175-.4849-.4632-.1839-.9244-.3704-1.3917-.5447-.4438-.1654-.8848-.3344-1.3224-.5134-.8448-.3451-1.7057-.6525-2.533-1.0396-.2238-.1049-.4463-.2117-.6688-.3204-.5152-.2767-1.0233-.5653-1.5414-.8354-.4745-.2469-.95843-.4766-1.43488-.7204-.27867-.1526-.5539-.3092-.82341-.478-.30721-.1925-.59971-.4069-.89741-.6137-.59695-.4145-1.19528-.8268-1.78427-1.2527-.57188-.41304-1.1142-.86602-1.68677-1.27767-.2932-.21165-.5902-.41843-.88668-.62539-.29113-.20192-.56272-.42658-.8274-.66063-.11185-.10677-.22387-.21407-.32743-.32884-.12758-.14115-.24911-.2856-.37013-.43197-.11341-.13768-.23356-.26998-.3544-.40158-.13882-.14949-.29683-.28231-.43323-.43388-.07105-.12119-.162675-.21442-.298903-.26391-.137783-.05017-.291644-.0434-.424069.01823-.132942.06251-.2370147.1764-.2869763.31478-.0541107.14914-.03301962.28144.0181521.42589.0938722.26373.3174032.45506.5072232.65108.141068.14515.277641.29499.407299.45038.126894.15244.251884.30783.389494.45159.18913.1974.385.38665.58899.56895.33763.30332.70707.56375 1.0791.8221.39365.27397.78124.55537 1.16278.84707.35803.2726.71122.552 1.0772.8138.39036.2788.78262.5535 1.17833.8233.36339.2483.72332.5006 1.08723.7461.38707.2597.78141.5005 1.1913.721.67612.3632 1.37286.6872 2.05726 1.0348.4073.2233.8097.4616 1.2281.6648.4038.196.8084.3925 1.2229.5655.4369.1811.8779.3521 1.3189.5229.4687.1804.932.375 1.4.5575.4408.1716.8886.3262 1.3296.4985.4147.1614.8246.3378 1.2419.4917.4227.1561.8482.3052 1.2824.424.4659.1267.9339.2462 1.4005.3701.2317.0618.4613.1372.6895.2103.2674.0849.5348.1656.8044.245.2572.0751.5233.1295.786.185.2825.0596.5659.1186.8492.177.4279.096.8528.1986 1.2767.3133.4118.112.8231.2299 1.2392.3263.4875.1139.9771.2359 1.4734.3038.2317.032.462.0658.695.0882.2661.0257.5321.0502.7982.0726.9494.0814 1.8928.2163 2.8369.3431.2182.0298.4362.0564.6543.0849.2189.0277.4424.0527.6625.0665.4687.0284.936.0508 1.4053.0651.9657.0297 1.93.0581 2.8957.0663.9023.0082 1.805 0 2.7059-.0203 1.8342-.0413 3.6609-.2252 5.4896-.3519.4565-.032.915-.0455 1.3723-.078.4693-.0333.9378-.074 1.4065-.1181.9638-.0903 1.9207-.2252 2.8769-.3743.8757-.1363 1.755-.2646 2.6261-.4301.4722-.0895.9462-.1783 1.4135-.2956.5098-.1282 1.0191-.2584 1.5282-.3921.8955-.2338 1.7903-.4714 2.6831-.7162.9062-.2482 1.8022-.5337 2.6944-.828 1.8078-.5962 3.6242-1.1637 5.4185-1.7994.8888-.3139 1.7593-.6754 2.6283-1.0389.8658-.3622 1.7079-.7759 2.5439-1.2018.4241-.2157.8346-.4586 1.2452-.6985.3904-.2287.7768-.4646 1.1651-.6973.3983-.2373.7995-.47 1.1992-.7047.1912-.1125.3836-.2238.5721-.341.2282-.1418.4631-.2767.684-.4301.3904-.2706.7759-.5446 1.1528-.83351.412-.31529.823-.63198 1.2331-.95005.7422-.5766 1.4735-1.16448 2.1994-1.7607.7212-.59205 1.4174-1.20927 2.1144-1.8291.366-.32554.7266-.65525 1.0798-.99502.3188-.30575.6186-.63198.9211-.95492.3911-.41704.784-.83824 1.1541-1.27421.1748-.20557.3451-.41183.5004-.63215.1654-.23595.3106-.48354.4512-.735116.0695-.124834.112-.241507.0857-.387349-.0237-.129522-.098-.247584-.2054-.3241514-.0864-.0616355-.1903-.0946236-.2949-.0946236-.0304 0-.0605.00295156-.0906.00850745z" fill="#2c2c2c"/><path d="m32.2804 39.4496c-.8981.1271-1.796.2536-2.6824.448-.8797.1931-1.7522.4211-2.6196.6611-.4034.1118-.8047.2349-1.2047.3574-.4627.1405-.9244.2824-1.3824.4386-.4508.1539-.8974.3201-1.344.4856-.3891.1446-.7789.2858-1.1659.4358-.848.3289-1.6898.6768-2.529 1.0286-.4135.1736-.8189.3678-1.2241.561-.3925.1864-.7863.3692-1.1775.559-.8338.4056-1.6411.8622-2.4693 1.2786-.3661.1838-.7356.362-1.0951.5592-.4391.24-.8741.4863-1.3107.7305-.7491.4189-1.5091.8145-2.23651 1.2713-.40469.2535-.79985.5172-1.19033.7924-.36883.2596-.72553.5367-1.08275.8105-.33227.2544-.65986.5127-.98659.7736-.34042.2724-.66524.5657-.99353.8529-.2822.2469-.56372.4939-.83917.7487-.28688.2657-.5535.555-.81544.8449-.22192.2448-.42149.5105-.61846.7749-.10758.1446-.21239.2914-.31737.4372-.05284.0727-.10014.1467-.14622.2234-.06427.1069-.11156.2133-.12993.337-.0142.099-.01004.1877.00884.2853.05214.2623.30732.4439.57515.3954.24912-.045.40209-.2595.40278-.497.1502-.2301.31738-.4501.4797-.6721.16649-.2266.33972-.4465.52509-.6578.36692-.3821.74857-.7453 1.14979-1.0918.45943-.3968.91488-.7985 1.38124-1.1879.22053-.1849.45267-.3585.68065-.5348.22071-.1702.44055-.3403.66264-.5079.49061-.3699.98591-.7284 1.49952-1.0675.3593-.2219.7214-.4386 1.0882-.6492.3709-.2125.7504-.4096 1.1246-.6161.3837-.2111.7607-.4331 1.1444-.6451.4169-.2294.8378-.45 1.2635-.6638.7889-.3963 1.5631-.8201 2.3481-1.223.4183-.2153.8487-.409 1.2736-.6122.4047-.1924.8073-.3882 1.2162-.571.4999-.2241 1.0103-.4266 1.5177-.6337.4785-.1952.9556-.3949 1.4394-.5752.4988-.1863.9976-.372 1.4968-.5548.5314-.1938 1.0653-.3755 1.6046-.547l-.1258.0403c.8681-.2636 1.735-.5273 2.6135-.7541.8445-.2178 1.6951-.4372 2.5558-.5805.9428-.1573 1.8895-.2805 2.8342-.4203.2602-.0388.52-.0792.7797-.1204-.0495-.0429-.0965-.0875-.1389-.14-.0981-.1224-.1914-.2252-.2632-.3578-.0013-.0033-.0034-.0067-.0055-.0095-.0419-.0423-.0852-.0826-.1306-.1224-.1015-.0732-.2029-.1473-.297-.2299-.0171-.015-.0341-.031-.0507-.0477-.3642.0547-.7283.108-1.093.1593z" fill="#2c2c2c"/><path d="m53.0103 39.9876c-.0925.1365-.1871.2824-.3033.3979-.0204.0203-.0412.0396-.0625.0585.0313.0062.0628.0124.0943.0185.4998.0993 1.0005.1966 1.5003.2938.5311.1034 1.0599.2136 1.589.327 1.7692.4175 3.5372.8417 5.2917 1.3214.8659.2371 1.7246.5011 2.5886.7443.898.2533 1.7876.5315 2.6781.81.4424.1385.8856.2742 1.3268.4174.4059.1311.8052.2857 1.2025.4418.4107.1614.8208.3248 1.2369.4728.4161.1479.8342.2878 1.2524.4303.8276.2824 1.6553.5729 2.4705.8911.4331.1688.8647.3396 1.2917.5227.4291.1839.8559.3703 1.289.5432.4305.1723.8628.3391 1.3026.4856.4127.1378.8282.2675 1.2423.4007.9133.2938 1.8186.6099 2.734.897.4122.129.8208.2661 1.222.4249.404.1594.8115.3142 1.2081.4911.8234.3675 1.6355.76 2.4501 1.1443.1413.0669.2817.1345.4216.2026.083.0453.1634.0919.2445.1418.1372.0846.2567.1946.3784.2994.0972.0837.2581.1067.3796.0844.1277-.023.2439-.0965.319-.2027.0776-.1095.1087-.2478.0844-.3796-.0251-.1378-.1-.2303-.202-.3189-.0946-.0816-.1899-.1613-.2878-.2384-.0851-.0675-.1839-.1216-.2771-.177-.1878-.1101-.3863-.2047-.5823-.2993-.2317-.1127-.4635-.2241-.6964-.335-.3689-.1757-.7357-.3572-1.1074-.5283-.4133-.1897-.8275-.3809-1.2518-.5464-.4337-.1695-.8673-.3371-1.3052-.4951-.4019-.1453-.8173-.2547-1.2227-.3898-.4742-.1587-.9484-.3189-1.4221-.479-.837-.2836-1.6869-.5269-2.517-.8301-.8838-.3223-1.7436-.7054-2.6132-1.0633-.8222-.3377-1.6618-.6343-2.4989-.9335-.8268-.2952-1.6645-.5566-2.4833-.8741-.4007-.1553-.7986-.3208-1.2019-.4689-.4357-.1601-.8715-.3154-1.3146-.4532-.8863-.275-1.7693-.562-2.6583-.8282-.41-.1229-.8228-.2371-1.2343-.3567-.4316-.1256-.8626-.2546-1.295-.3803-.8721-.254-1.7464-.5025-2.6273-.7261-.885-.225-1.772-.4472-2.6597-.6606-.9234-.2217-1.849-.4284-2.7813-.6101-.3243-.0628-.6487-.1271-.973-.1916-.0451.1781-.1152.3493-.22.5037z" fill="#2c2c2c"/><path d="m38.3858 39.6955c-.0206.0032-.041.0059-.0616.009.0585-.0031.1172-.0057.1758-.0086-.0059-.0062-.0117-.0121-.0175-.0185-.0318.0074-.0643.0135-.0967.0181z" fill="#2c2c2c"/><path d="m20.5221 42.863c-.0002.0117-.0003.0236-.0003.0353 0-.0117.0001-.0236.0003-.0353zm-.3931-22.996c-.0002.0099-.0001.02-.0001.0299 0-.0099-.0001-.0199.0001-.0299zm.3203-1.7813c-.1021.0133-.1963.068-.2598.1498-.0709.0919-.086.1907-.0826.3039.0138.4274.0216.8545.0221 1.2822-.0167.9147-.025 1.8297-.0479 2.7439-.0121.4582-.0229.9157-.0268 1.3743-.0046.4843.0195.9715.044 1.4548.049.9633.0973 1.9267.159 2.8895.0274.4363.0663.8713.1009 1.3066.0166.209.0334.4173.0458.6265.0132.227.0327.4541.0386.6812.0246.9945.0398 1.9891.0665 2.9829.023.8677.0746 1.7343.0927 2.6017.0085.4153.0264.8304.0254 1.2459-.0008.375-.0014.7507-.0023 1.1264-.0138.6367-.0266 1.2734-.0505 1.9103-.0248.6792-.0476 1.3579-.052 2.0383-.0011.0605-.0044.1191-.0127.178-.0027.0063-.0055.0124-.0082.0188-.0737.1666-.0178.3725.1193.4838.0846.0682.1937.0999.3008.0854.0933-.0125.2119-.067.2636-.1528.0105-.0183.0215-.0358.0318-.0532.0391-.0484.0632-.1021.074-.1629.0226-.0815.0384-.155.0471-.2392.0078-.0739.0085-.1494.0118-.2243.006-.1276.0109-.2545.0163-.3823.0087-.2147.0186-.4292.0288-.6439.0221-.4706.0398-.9406.0549-1.4116.016-.4825.0299-.9658.0294-1.4485-.0006-.4316.0069-.864-.0038-1.2957-.0113-.4579-.0174-.9165-.0357-1.3743-.0189-.4784-.0374-.9562-.0569-1.4348-.0409-.9977-.0705-1.9957-.0881-2.9944-.0077-.4158-.0161-.8324-.0397-1.2472-.0283-.4808-.0636-.9609-.102-1.4411-.0754-.9389-.1275-1.8785-.1759-2.8193-.0387-.7601-.0767-1.5197-.094-2.2813.0042-.482.0151-.9638.0244-1.4461.0093-.5125.0085-1.0256.0094-1.5385l.0001.1085c.0026-.4334.0114-.8672.0065-1.301-.0048-.4506-.0178-.9004-.0332-1.3508-.0034-.1004-.0722-.2054-.1459-.2655-.064-.0524-.1433-.0828-.2243-.0871-.0236-.0012-.0474-.0001-.0709.0031z" fill="#2c2c2c"/><path d="m2.52782 50.9056c.00002.0039.00003.0079.00005.0119-.00002-.004-.00003-.008-.00005-.0119zm.31-24.3739c.00024.002.00017.0039.00011.0058-.00009-.0019-.00002-.0038-.00011-.0058zm-.69384-19.27069c-.01881.17669-.03575.35278-.05225.52955-.01254.1338-.03288.27048-.03694.40441-.0084.2758-.01739.55091-.02592.82604-.00448.12831.00547.25827.00951.38539.00586.19439.01235.38815.01823.58188.0073.23692.02075.47412.033.71072.02606.4943.05338.9879.07281 1.4822.01986.5173.03676 1.0358.07053 1.5523.03693.5625.07573 1.125.11575 1.6876.0371.5224.05438 1.0475.06971 1.5711.01689.5539.03487 1.1074.05284 1.6614.0073.2235.02477.4473.03747.6708.01569.2747.0314.5489.0471.8235.03042.5415.06993 1.0835.10531 1.6245.03474.5372.05881 1.0754.08816 1.6124.0292.5281.03889 1.0586.0579 1.5869.01867.5074.02077 1.0167.02986 1.5246.00407.9874.00582 1.9748-.01865 2.9625-.02783 1.1103-.06123 2.2212-.0832 3.3318-.04041 2.071-.03689 4.1423-.05677 6.2127-.00996 1.0446-.02176 2.0891-.05161 3.1336-.01514.5394-.03106 1.0793-.0456 1.6192-.01446.551-.03744 1.1031-.04451 1.6543-.01932 1.5687-.0374 3.1374-.01862 4.7054-.00045-.04-.00092-.0795-.00122-.1194.00036.0071.00014.0135.00035.0206l.00136.1201c.00307.2655.00627.5314.0093.7977.00012.0496-.00126.0981.00215.1459.00031.0221.00045.0446.00075.0669.00091.0799.00351.1601.00485.2407.00934.4389.0182.8785.03524 1.3178.01712.4281.03221.857.05458 1.2847.0249.479.04609.9582.10473 1.4337.02754.2267.23454.3875.44415.3542.22111-.0356.35023-.2497.33292-.478-.02681-.3538-.03738-.7089-.05028-1.0635-.0128-.3578-.0262-.7156-.0353-1.0732-.01708-.6897-.02922-1.3797-.03936-2.0692 0-.0002.00001-.0004.00017-.0007.00432-.0396.0037-.0793-.00144-.1176-.01912-2.0134-.02535-4.0292.02739-6.0427.05583-2.133.11642-4.2652.12772-6.3992.01165-2.1436.02635-4.2865.07036-6.4296.02102-1.0126.06775-2.0242.07844-3.0365.00577-.5449.01215-1.0897.00823-1.6354-.00317-.5627-.00947-1.124-.02237-1.6862-.02394-1.0581-.06354-2.1142-.12536-3.1695-.06156-1.0497-.13812-2.0979-.1997-3.1469-.01702-.2896-.03404-.5792-.05109-.8681-.01613-.2799-.01771-.5612-.02661-.8407-.01562-.4844-.01916-.9701-.04311-1.4541-.02891-.5718-.06017-1.1424-.09867-1.7133-.03368-.5012-.06366-1.0027-.08529-1.5046-.03075-.6913-.05829-1.3818-.09566-2.0732-.01694-.3095-.03617-.6198-.05419-.9295-.01909-.32301-.02503-.64752-.03639-.97107.00663-.26066.01296-.52117.01927-.78135.00293-.11928.0204-.23987.03116-.35822.01628-.19229.03455-.38452.05391-.57671.02449-.23774-.13585-.45883-.35954-.48596-.01075-.0012-.02136-.00207-.03214-.00244-.20896-.0073-.39948.16356-.42342.38976z" fill="#2c2c2c"/><path d="m65.3001 15.9589c-.0609.0568-.1095.1259-.1591.1949-.0593.0826-.119.1644-.1783.2463-.1251.1712-.067.4459.0844.5677.0735.0588.1651.0846.2542.0717-.0004.2505-.0066.5012-.009.7512-.0017.1977-.0035.3946-.0054.5914-.0047.5083-.0095 1.0159-.0131 1.524-.0072.9887-.0167 1.9767-.0155 2.9653.0005 1.0003.0119 1.9997.0268 2.9993.0168 1.0706.0276 2.141.0366 3.2116.0077.9191.0227 1.8379.0257 2.7569.0035 1.0348.0054 2.0694.0054 3.1034-.0006 1.999-.0156 3.9987.0203 5.997.006.3499.0192.699.0305 1.0483.006.1813.0138.3641.0274.5453.0066.0922.0144.1835.0258.2755.0059.0493.015.0975.0257.1455.0132.0617.0323.1204.0568.1774.0366.0913.0963.1488.1628.2103.1436.1341.3732.107.5102-.0217.155-.1451.1907-.3925.1019-.5867-.0229-.1379-.0247-.2828-.0307-.4219.0016.0331.0032.0666.0048.0998-.0628-1.9596-.0575-3.9209-.0599-5.8812-.0023-2.0037-.0017-4.0082-.028-6.0112-.0138-1.0361-.0245-2.0714-.0395-3.1075-.0144-1.0299-.0412-2.0605-.0634-3.0904-.021-.9922-.021-1.9848-.0251-2.9776-.0048-.9968-.0085-1.9937-.012-2.9905-.0018-.3653-.0043-.7302-.0066-1.0955-.0012-.2382-.0053-.4757-.0228-.7132-.0035-.048-.0076-.0962-.0119-.1442-.0072-.0819-.0359-.1597-.0604-.2361-.0251-.0468-.0508-.0922-.0784-.1367-.0364-.0596-.134-.1273-.192-.151-.0395-.0163-.0812-.0241-.1233-.0241-.0952 0-.1919.0395-.2649.1067z" fill="#2c2c2c"/><path d="m87.6609 51.9915c0 .0003-.0001.0008-.0001.0014-.0008.0036-.0016.0076-.0024.0112.0008-.0041.0017-.0085.0025-.0126zm-.8569-49.06633c-.0419.63682-.0763 1.27295-.1027 1.91029-.0221.53808-.0269 1.07736-.0356 1.61613-.0171 1.09417-.0148 2.18904-.0196 3.28338-.0081 2.13153-.0364 4.26463.027 6.39493.0332 1.113.0761 2.2249.1038 3.3381.0271 1.0962.0301 2.1932.0326 3.2896.0019 1.0697.016 2.1383.0368 3.2075.0111.5684.027 1.1376.0405 1.7067.0129.5372.0136 1.0753.0197 1.6132.0055.5353-.0061 1.0699-.0135 1.6052-.0074.5319-.0345 1.0637-.0552 1.595-.0209.5388-.04 1.0767-.0596 1.6155-.0216.5765-.0209 1.1544-.0309 1.731-.0078.4622.0038.9244.01 1.3866.0048.37.0103.7402.0154 1.1104.0023.1679.0036.3356.014.5035l.1217 2.0178c.0283.4692.0761.9353.1209 1.4029.075.7796.1598 1.5571.2458 2.3354.0417.3775.0799.7559.1192 1.1335.0184.1807.0246.3633.0368.5447.012.1736.0238.3466.0359.52.0087.4118.0181.8236.0263 1.2361.0091.4405-.0038.8832-.0057 1.3242-.0017.4089-.0061.8175-.0024 1.2257.0019.2158.0013.431.0062.6462.0091.3837-.0062.783.0687 1.1586.0338.1677.1321.3078.2814.3674.142.0568.3158.0298.4301-.0819.0429-.0394.0816-.0827.1167-.13.0289-.0514.0528-.1055.0719-.1618.0135-.0594.0245-.119.0331-.1793.0117-.0743.021-.1488.0307-.2226.0187-.1417-.0371-.2772-.1286-.3714-.0093-.9845.0031-1.969.0106-2.9525.0045-.5686-.0048-1.1356-.0141-1.704-.0042-.2544-.0226-.5075-.0381-.7613-.0147-.2422-.0232-.4865-.0473-.7282-.1087-1.0962-.2346-2.1905-.3439-3.2875-.0474-.4757-.1009-.95-.1315-1.4278l-.1309-2.0505c-.0003-.0045-.0004-.0088-.0008-.0133-.0091-.5822-.0185-1.1652-.0281-1.7474-.0036-.2341-.0072-.469-.0116-.703-.003-.2147.0074-.4305.0105-.6457.0085-.5346.0116-1.0699.0313-1.6045.0203-.5528.0406-1.1056.0613-1.6586.0216-.5651.0419-1.1274.048-1.6925.0031-.2978.0068-.5948.0099-.8926.0024-.2389-.0068-.4791-.0099-.7187-.0074-.5163-.0135-1.0327-.0271-1.5496-.0147-.5454-.03-1.0916-.0423-1.6377-.0122-.5515-.0264-1.103-.0308-1.6552-.0042-.5528-.0085-1.1058-.011-1.6586-.0055-1.1158-.0222-2.2311-.0541-3.3463-.0325-1.1118-.081-2.223-.1186-3.3348-.0343-1.0327-.0355-2.0674-.0387-3.1008-.0074-2.1755-.0226-4.35189-.0067-6.52811.0037-.48264.0086-.9651.0253-1.44757.0197-.58606.0503-1.17074.0877-1.75611.0155-.23682-.1462-.45129-.3636-.47017-.0103-.00087-.0204-.00139-.0308-.00139-.2016 0-.381.17584-.3961.40192z" fill="#2c2c2c"/></g></svg>