<svg viewBox="0 0 600 525.41" xmlns="http://www.w3.org/2000/svg" xmlns:xlink="http://www.w3.org/1999/xlink"><linearGradient id="a" gradientTransform="matrix(-1 -.13 -.14 1.09 -1156.39 -164.42)" gradientUnits="userSpaceOnUse" x1="-1293.44" x2="-1985.56" y1="172.58" y2="373.61"><stop offset="0" stop-color="#eaf1fc"/><stop offset="1" stop-color="#c0d4f4"/></linearGradient><linearGradient id="b" gradientTransform="matrix(-1 0 0 1 -4244.8 0)" gradientUnits="userSpaceOnUse" x1="-4825.83" x2="-4244.8" y1="518.87" y2="518.87"><stop offset="0" stop-color="#223762"/><stop offset="1" stop-color="#041b48"/></linearGradient><linearGradient id="c" gradientTransform="matrix(-.53 .85 .85 .53 719.29 -348.38)" x1="569.15" x2="477.36" xlink:href="#a" y1="-152.37" y2="-40.54"/><linearGradient id="d" gradientTransform="matrix(-1 0 0 1 -768.76 0)" x1="-1280.49" x2="-1237.34" xlink:href="#b" y1="500.56" y2="500.56"/><linearGradient id="e" gradientTransform="matrix(-.99 -.15 -.15 .99 -918.67 -152.04)" x1="-1534.77" x2="-1528.94" xlink:href="#b" y1="426.89" y2="409.45"/><linearGradient id="f" gradientTransform="translate(1262.65)" gradientUnits="userSpaceOnUse" x1="-757.43" x2="-752.58" y1="490.79" y2="314.11"><stop offset="0" stop-color="#3769a5"/><stop offset="1" stop-color="#08448b"/></linearGradient><linearGradient id="g" gradientTransform="translate(1262.65)" x1="-757.3" x2="-752.56" xlink:href="#b" y1="485.86" y2="313.26"/><linearGradient id="h" gradientTransform="translate(1262.65)" gradientUnits="userSpaceOnUse" x1="-760.14" x2="-754.88" y1="497.08" y2="305.43"><stop offset="0" stop-color="#4c93f4"/><stop offset="1" stop-color="#0b63da"/></linearGradient><linearGradient id="i" gradientTransform="translate(1381.02 -1118.36)" x1="-983.17" x2="-978.26" xlink:href="#h" y1="1311.1" y2="1326.69"/><linearGradient id="j" gradientTransform="translate(1380.08 -1118.39)" x1="-982.8" x2="-980.06" xlink:href="#h" y1="1336.2" y2="1336.2"/><linearGradient id="k" gradientTransform="translate(1262.65)" gradientUnits="userSpaceOnUse" x1="-856.25" x2="-844.97" y1="200.23" y2="200.23"><stop offset="0" stop-color="#f8a695"/><stop offset="1" stop-color="#e56045"/></linearGradient><linearGradient id="l" gradientTransform="translate(1262.65)" gradientUnits="userSpaceOnUse" x1="-872.22" x2="-816.05" y1="220.36" y2="200.8"><stop offset="0" stop-color="#ffc063"/><stop offset=".95" stop-color="#e44d0b"/></linearGradient><linearGradient id="m" x1="-733.77" x2="-784.1" xlink:href="#l" y1="190.81" y2="274.68"/><linearGradient id="n" x1="-769.9" x2="-771.76" xlink:href="#k" y1="148.49" y2="136.45"/><linearGradient id="o" gradientTransform="matrix(.99 -.15 .15 .99 1335.45 -318.55)" x1="-891.9" x2="-908.16" xlink:href="#b" y1="303.92" y2="292.48"/><linearGradient id="p" gradientTransform="matrix(.99 -.15 .15 .99 1335.45 -318.55)" x1="-902.33" x2="-902.07" xlink:href="#k" y1="299.18" y2="279.55"/><linearGradient id="q" gradientTransform="matrix(.99 -.15 .15 .99 1335.45 -318.55)" x1="-907" x2="-886.78" xlink:href="#b" y1="313.57" y2="241.42"/><linearGradient id="r" gradientTransform="matrix(1 -.09 .09 1 1363.21 -106.77)" x1="-991.18" x2="-987.01" xlink:href="#k" y1="219.86" y2="219.86"/><linearGradient id="s" x1="-705.83" x2="-736.67" xlink:href="#l" y1="185.82" y2="249.38"/><linearGradient id="t" x1="-805.16" x2="-808.17" xlink:href="#h" y1="226.18" y2="212.89"/><linearGradient id="u" x1="-783.82" x2="-759.76" xlink:href="#k" y1="237.04" y2="225.89"/><linearGradient id="v" x1="-735.85" x2="-724.77" xlink:href="#l" y1="189.27" y2="266.52"/><linearGradient id="w" x1="-714.91" x2="-755.1" xlink:href="#f" y1="324.89" y2="407.72"/><linearGradient id="x" x1="306.94" x2="323.77" xlink:href="#b" y1="513.72" y2="519.56"/><linearGradient id="y" gradientTransform="matrix(-1 0 0 1 -4116.13 0)" x1="-4478.38" x2="-4461.55" xlink:href="#b" y1="513.72" y2="519.56"/><linearGradient id="z" x1="303.95" x2="340.59" xlink:href="#b" y1="473.41" y2="440.72"/><linearGradient id="A" x1="323.46" x2="336.76" xlink:href="#b" y1="414.64" y2="402.78"/><linearGradient id="B" gradientTransform="matrix(-1 0 0 1 -4244.8 0)" x1="-4445.1" x2="-4445.1" xlink:href="#f" y1="463.34" y2="305.96"/><linearGradient id="C" gradientTransform="matrix(-1 0 0 1 -4244.8 0)" x1="-4386.21" x2="-4386.21" xlink:href="#f" y1="463.34" y2="305.96"/><linearGradient id="D" gradientTransform="matrix(-1 0 0 1 -4244.8 0)" x1="-4721.04" x2="-4721.04" xlink:href="#f" y1="383.22" y2="335.16"/><linearGradient id="E" gradientTransform="matrix(-1 0 0 1 -4244.8 0)" x1="-4662.14" x2="-4662.14" xlink:href="#f" y1="383.22" y2="335.16"/><linearGradient id="F" gradientTransform="matrix(-1 0 0 1 -4244.8 0)" gradientUnits="userSpaceOnUse" x1="-4385.28" x2="-4385.28" y1="454.45" y2="337.98"><stop offset="0" stop-color="#a7bde5"/><stop offset="1" stop-color="#2f66cb"/></linearGradient><linearGradient id="G" x1="281.69" x2="277.19" xlink:href="#b" y1="543.14" y2="527.32"/><linearGradient id="H" x1="189.62" x2="185.12" xlink:href="#b" y1="543.14" y2="527.32"/><linearGradient id="I" x1="244.26" x2="241.79" xlink:href="#b" y1="404.97" y2="396.27"/><linearGradient id="J" x1="349.58" x2="347.04" xlink:href="#b" y1="399.46" y2="390.52"/><linearGradient id="K" x1="253.31" x2="282.3" xlink:href="#l" y1="309.87" y2="284.62"/><linearGradient id="L" x1="177.19" x2="244.75" xlink:href="#f" y1="471.82" y2="411.53"/><linearGradient id="M" x1="180.34" x2="246.27" xlink:href="#b" y1="469.68" y2="410.86"/><linearGradient id="N" gradientUnits="userSpaceOnUse" x1="376.89" x2="289.13" y1="208.65" y2="480.87"><stop offset="0" stop-color="#ffc063"/><stop offset="1" stop-color="#e58f0f"/></linearGradient><linearGradient id="O" x1="376.31" x2="288.62" xlink:href="#l" y1="208.52" y2="480.52"/><linearGradient id="P" x1="288.01" x2="402.13" xlink:href="#l" y1="307.28" y2="307.28"/><linearGradient id="Q" x1="249.8" x2="319.42" xlink:href="#h" y1="454.9" y2="392.78"/><linearGradient id="R" x1="388.85" x2="386.04" xlink:href="#f" y1="462.28" y2="460.52"/><linearGradient id="S" x1="333.4" x2="368.55" xlink:href="#k" y1="322.45" y2="309.47"/><linearGradient id="T" x1="327.09" x2="324.54" xlink:href="#b" y1="405.86" y2="396.91"/><linearGradient id="U" x1="355.89" x2="454.85" xlink:href="#l" y1="249.12" y2="353.34"/><linearGradient id="V" x1="309.44" x2="318.56" xlink:href="#f" y1="465.56" y2="451.18"/><linearGradient id="W" gradientTransform="matrix(.99976582 -.02164039 .02164039 .99976582 25.02 -45.15)" x1="322.28" x2="322.28" xlink:href="#k" y1="265.03" y2="251.59"/><linearGradient id="X" gradientTransform="matrix(.99863865 -.05216166 .05216166 .99863865 59.54 -109.87)" x1="271.26" x2="268.86" xlink:href="#b" y1="259.89" y2="265.64"/><linearGradient id="Y" gradientTransform="matrix(.99976582 -.02164039 .02164039 .99976582 25.02 -45.15)" x1="317.62" x2="334.28" xlink:href="#k" y1="243.52" y2="184.07"/><linearGradient id="Z" gradientTransform="matrix(.99863865 -.05216166 .05216166 .99863865 59.54 -109.87)" x1="286.2" x2="292.08" xlink:href="#b" y1="257.54" y2="316.84"/><linearGradient id="aa" gradientTransform="translate(127.73)" x1="321.17" x2="265.76" xlink:href="#h" y1="248.77" y2="317.75"/><linearGradient id="ab" x1="-4326.39" x2="-4326.39" xlink:href="#F" y1="454.45" y2="337.98"/><linearGradient id="ac" x1="-4327.55" x2="-4282.66" xlink:href="#b" y1="380.77" y2="380.77"/><linearGradient id="ad" x1="-4267.46" x2="-4304.98" xlink:href="#b" y1="228.33" y2="305.49"/><linearGradient id="ae" gradientTransform="matrix(-1 0 0 1 -4244.8 0)" x1="-4342.91" x2="-4318.69" xlink:href="#f" y1="305.56" y2="305.56"/><linearGradient id="af" gradientTransform="matrix(-1 0 0 1 -4244.8 0)" x1="-4296.12" x2="-4340.32" xlink:href="#h" y1="230.66" y2="431.28"/><linearGradient id="ag" gradientTransform="matrix(-1 0 0 1 -4244.8 0)" x1="-4247.04" x2="-4297.89" xlink:href="#f" y1="295.18" y2="382.86"/><linearGradient id="ah" gradientTransform="matrix(-1 0 0 1 -4244.8 0)" gradientUnits="userSpaceOnUse" x1="-4244.33" x2="-4339.73" y1="448.6" y2="491.15"><stop offset="0" stop-color="#ff9f5b"/><stop offset="1" stop-color="#e5670e"/></linearGradient><linearGradient id="ai" x1="-4251.27" x2="-4266.7" xlink:href="#ah" y1="478.19" y2="478.19"/><linearGradient id="aj" gradientTransform="matrix(-1 0 0 1 -4244.8 0)" x1="-4305.61" x2="-4309.59" xlink:href="#h" y1="285.16" y2="295.68"/><linearGradient id="ak" gradientTransform="matrix(-1 0 0 1 -2212.57 -1082.83)" x1="-2265.86" x2="-2269.83" xlink:href="#h" y1="1370.84" y2="1381.36"/><linearGradient id="al" gradientTransform="matrix(-1 0 0 1 -2193.45 -1075.67)" x1="-2243.47" x2="-2247.45" xlink:href="#h" y1="1379.29" y2="1389.82"/><linearGradient id="am" gradientTransform="matrix(-1 0 0 1 -3194.87 -793.77)" x1="-3244.09" x2="-3248.06" xlink:href="#h" y1="1104.84" y2="1115.37"/><linearGradient id="an" gradientTransform="matrix(1 0 0 -1 4803.98 665.44)" x1="-4411.86" x2="-4896.34" xlink:href="#F" y1="326.31" y2="353.9"/><linearGradient id="ao" x1="-4663.1" x2="-4663.1" xlink:href="#F" y1="424.61" y2="302.2"/><linearGradient id="ap" x1="-4604.21" x2="-4604.21" xlink:href="#F" y1="424.61" y2="302.2"/><linearGradient id="aq" x1="266.47" x2="170.13" xlink:href="#h" y1="182.35" y2="350.24"/><linearGradient id="ar" gradientTransform="matrix(-1 0 0 1 -4244.8 0)" x1="-4363.96" x2="-4337.83" xlink:href="#f" y1="309.46" y2="409.42"/><linearGradient id="as" gradientTransform="matrix(-1 0 0 1 -4244.8 0)" x1="-4352.25" x2="-4326.12" xlink:href="#h" y1="306.4" y2="406.36"/><linearGradient id="at" gradientTransform="matrix(-1 0 0 1 -4244.8 0)" x1="-4355.93" x2="-4318.47" xlink:href="#h" y1="292.34" y2="435.62"/><linearGradient id="au" gradientTransform="matrix(0 -1 -1 0 -576.97 -4524.09)" x1="-4893.84" x2="-4896.91" xlink:href="#h" y1="-695.26" y2="-687.15"/><linearGradient id="av" gradientTransform="matrix(0 -1 -1 0 -583.49 -4509.8)" x1="-4881.8" x2="-4884.87" xlink:href="#h" y1="-687.78" y2="-679.67"/><linearGradient id="aw" gradientTransform="matrix(-1 0 0 1 -3303.64 -739.24)" x1="-3382.88" x2="-3385.94" xlink:href="#h" y1="1094.47" y2="1102.58"/><linearGradient id="ax" gradientTransform="matrix(-1 0 0 1 -3300.89 -738.25)" x1="-3378.98" x2="-3382.05" xlink:href="#h" y1="1100.97" y2="1109.08"/><linearGradient id="ay" gradientTransform="matrix(-1 0 0 1 -3296.89 -735.04)" x1="-3365.61" x2="-3368.67" xlink:href="#h" y1="1100.99" y2="1109.11"/><linearGradient id="az" gradientTransform="matrix(-1 0 0 1 -4137.49 -88.06)" x1="-4201.39" x2="-4204.46" xlink:href="#h" y1="459.41" y2="467.52"/><linearGradient id="aA" x1="374.08" x2="352.33" xlink:href="#b" y1="154.08" y2="134.9"/><path d="m468.47 121.66c-124.28.75-200-97-259.12-115.83-88.82-28.25-205.96 44.86-130.41 247.08s114.68 253.66 250.75 270.91c108.88 13.81 204.76-65.32 243-128.47 59.71-98.79 20.05-274.44-104.22-273.69z" fill="url(#a)" opacity=".49"/><path d="m0 524.04h581.03l-39.87-10.34h-504.38z" fill="url(#b)"/><path d="m290.05 4.79s73.29 11.62 93.13 12.46 49.54 2 47.52 34.47-6.6 38.56-35.5 40.93c-23.36 1.92-112.29-56-118-68.83s-1.4-15.18 2.2-17.6 10.65-1.43 10.65-1.43z" fill="url(#c)" opacity=".49"/><path d="m120.78 356.68v-110.81h67.22v-142.51l34.22-27.67 36 29.09v141.09h84.63v-112.82h30.59l53.83 43.52h78v90.75h93.63c4.28 44.66-4.22 91.58-26.27 128a228.27 228.27 0 0 1 -13.22 19.4h-408.86c-10-16.72-19.78-35.91-29.77-58.04z" fill="#4c93f4" opacity=".1"/><path d="m506.78 485.94 5 28s-17.42.41-21.22 1-21.62 0-21.62 0-.71 0 0-3.09 13.42-6.18 16.63-6.89a5 5 0 0 0 3.81-3.94l1.53-8.17z" fill="url(#d)"/><path d="m538.1 474.82 11.73 12.63s-12.37 19-14.93 21.13-14.42 7.53-17.37 6.76-3.34-3.8-1.49-6.81 7.89-8.54 9-10.7-.13-15-.13-15z" fill="url(#e)"/><path d="m471.72 282.26 2.49 102.29s49.12 102.34 50.15 103.94 7.06 2.4 14.08-.8 6.27-7.48 6.27-7.48l-30.84-107.08 30.86-94.94z" fill="url(#f)"/><path d="m471.72 282.26 2.49 102.29 11.69 24.34a25.6 25.6 0 0 0 9.17-2.81c14.29-7.27 13 12.54 20.06 29.08 4.79 11.29 18.69 35.78 27 50.19 3-2.62 2.55-5.15 2.55-5.15l-30.81-107.07 30.86-94.94z" fill="url(#g)"/><path d="m546.54 266.5s2.33.23 3.1 17.78-.42 38-11.25 50.31-45.58 57.88-45.58 57.88l16.54 92.81s-.9 4.87-7.71 7.81-11.64 1.81-11.64 1.81-29.76-95.36-25.73-114.2 26-111.27 26-111.27z" fill="url(#h)"/><path d="m396.48 184.67h6.24a1.18 1.18 0 0 1 1.18 1.18v25.1a0 0 0 0 1 0 0h-8.6a0 0 0 0 1 0 0v-25.1a1.18 1.18 0 0 1 1.18-1.18z" fill="url(#i)" transform="matrix(.99890626 .04675777 -.04675777 .99890626 9.68 -18.45)"/><path d="m394.69 210.73 2.66 5.62 2.74.16 3.19-5.38z" fill="#d6e3fa"/><path d="m397.29 216.42h2.74v2.8h-2.74z" fill="url(#j)" transform="matrix(.99890626 .04675777 -.04675777 .99890626 10.61 -18.39)"/><path d="m415.61 197.46a19.94 19.94 0 0 0 -4.51-6.2c-3.48-3.48-14.86-1.32-16.83 1.13s-.28 2.73 1.5 3.29 7.8-.28 7.8-.28l-.3 13.83a14.32 14.32 0 0 0 7.26-.66c4-1.3 3.48 2.44 3.48 2.44z" fill="url(#k)"/><path d="m474.18 152.61s-22.3 62.44-22.33 62.63v.19l-35.54-18.62s-4.7 4.32-6.39 8.84l-1.69 4.51s25.39 20.12 39.3 25.95 38.22-24.26 38.22-24.26z" fill="url(#l)"/><path d="m513.87 149.33s25.82 3.48 31.84 10.37 6.14 15.29 6.14 26.58-5.64 40.62-4.14 62.8 4.14 33.85 4.14 33.85-15.8 16.92-44 12.79-41.09-11.89-41.09-11.89 7.5-53 7.75-61-9.36-21.9-9.07-30.93 2.86-31.84 6.27-36.18l3.42-4.34z" fill="url(#m)"/><path d="m479.55 147.46a13.06 13.06 0 0 0 -4.42 3.94c-2.44 3.1 1.82 8.12 8.52 7.05a7.89 7.89 0 0 0 5-2.55 8.19 8.19 0 0 0 3.32 6.24c2.57 2.12 6.4 4.48 13.79-1.44s8.14-11.38 8.14-11.38l-8.18-1.32z" fill="#fff"/><path d="m480.49 132.61-.94 14.84s2.81 5 10.93 5.15 15.24-4.6 15.24-4.6l-4.62-14.39z" fill="url(#n)"/><path d="m452.42 79.7s-6 8.85-.69 28.28c3 11.12 7.7 19.45 9.26 28.74s5.72 10.1 10.24 10.69 20.44-6 26.6-6 13.8 1.48 19.35-2.41c3.12-2.19 4.69-26.93 4.69-26.93l-19.2-37.7-11.44-6.37z" fill="url(#o)"/><path d="m456.6 103.94c2.22 10.65 5 23.49 11.22 34.13s28.94 9.66 35-.49 6.47-24.95 6.47-24.95 7.78-.65 8.88-6.71-.67-14.58-4.52-15.72-6.65 3.34-6.65 3.34-.41-11.3-9.38-17.07-38.75 1.26-40.2 3-3.03 13.82-.82 24.47z" fill="url(#p)"/><path d="m454.23 73.65s-2.67 4.64-2.36 13.55 6.13 11.8 15.78 12.66 16.4-2.73 22-2.48 9.34 13.72 9.37 27.71 6.29 15.07 11.76 16 26.65-13.2 13.88-38.78c-10.54-20.96-7.85-31.06-25.66-38.31s-33 .56-38 3.75-6.77 5.9-6.77 5.9z" fill="url(#q)"/><path d="m465.44 113.08s1.13 13.15 1.13 16 3.93.23 5.14 0" fill="none" stroke="#eb6057" stroke-linecap="round" stroke-linejoin="round"/><path d="m395.06 196.88s3.07.09 4.39 4.13.4 9.69-1.81 9.61-4.94-1.93-5.91-7.35 3.33-6.39 3.33-6.39z" fill="url(#r)"/><path d="m537.26 184.57s.63 13.16 0 15.17-41.36 25.94-41.36 25.94l3.9 13.93s25.55-2.76 31.13-4.14 9.72 5.64 4.7 12.41-17.93 8.27-17 15.17-8 12.79-18.11 15.92c-7 2.19-23.93 3.89-33.48 4.71v.14s12.88 7.75 41.09 11.89 44-12.79 44-12.79-2.63-11.66-4.14-33.85c-1.49-21.92 4-50.8 4.13-62.37z" fill="url(#s)"/><path d="m491.68 260.18s-5.91-42.31-17.24-50.21-14.53 6.54-14.53 6.54h-31.79s3.2-14.44 14.53-6.54 17.24 50.21 17.24 50.21z" fill="url(#t)"/><g fill="#fff"><path d="m437.45 207.69h-2c-5.54.87-7.3 8.82-7.3 8.82h31.75s1.76-7.94 7.3-8.82z"/><path d="m467.21 207.69h2a6.8 6.8 0 0 0 -2 0z"/><path d="m435.43 207.69h2a6.8 6.8 0 0 0 -2 0z"/></g><path d="m496.57 226.39s-2.35-2.08-7.9-2.13l-5.55-.05 1 3.17s.76 1.4-3.76 1.9-6.77-2.44-9.59-.94-2.95 4.64 1.19 9 9.9 6.71 17.3 6.21a14.69 14.69 0 0 0 11-6.27z" fill="url(#u)"/><path d="m540.28 159.36a7.4 7.4 0 0 1 8.83 3.56 337.67 337.67 0 0 1 14.57 31.55c9.4 23.27-14.63 29.15-33.22 36.43a171 171 0 0 1 -30.87 8.71s-4-5.37-3.94-9.65v-4.28l47.65-24s-11.19-8.36-13.4-21.46 4.52-19 10.33-20.9z" fill="url(#v)"/><path d="m543.57 327c-8.59 1.35-18.89 3.71-23.34 7.65-8.23 7.35-23.13 43.46-33.1 49.35s-18.05 11.57-10.34 17.21 6.77 34.41 9.4 49.08c1.94 10.82 14.31 30 20.67 39.38a9.67 9.67 0 0 0 2.64-4.43l-16.5-92.77s34.74-45.52 45.58-57.88a36.1 36.1 0 0 0 4.99-7.59z" fill="url(#w)"/><path d="m328.31 504.14-76.63 9.57h82.92v-9.57z" fill="url(#x)"/><path d="m340.88 504.14 76.63 9.57h-82.91v-9.57z" fill="url(#y)"/><path d="m328.31 388.03h12.55v116.11h-12.55z" fill="url(#z)"/><path d="m323.07 394h23.03v21.45h-23.03z" fill="url(#A)"/><path d="m217.65 513.7h11.92l-46.61-173.97h-11.92z" fill="url(#B)"/><path d="m124.07 513.7h-11.93l46.61-173.97h11.93z" fill="url(#C)"/><path d="m493.58 513.7h11.93l-46.62-173.97h-11.92z" fill="url(#D)"/><path d="m400 513.7h-11.92l46.61-173.97h11.92z" fill="url(#E)"/><path d="m157.83 513.7h11.92l-46.61-173.97h-11.93z" fill="url(#F)"/><path d="m301 495s1.87 8.53 2 11.81a24.28 24.28 0 0 1 -1 6.87h-53.39s-7 .38-8.77-2.31.95-5.53 8.07-8.36c11.75-4.68 31.33-8 31.33-8l2.34-11.34z" fill="url(#G)"/><path d="m208.92 495s1.87 8.53 2 11.81a24.28 24.28 0 0 1 -1 6.87h-53.38s-7 .38-8.77-2.31.95-5.53 8.07-8.36c11.75-4.68 31.33-8 31.33-8l2.34-11.34z" fill="url(#H)"/><path d="m224.82 377.8h26.86v12.05h-26.86z" fill="url(#I)"/><path d="m429.47 239.45h-111.47c-2.71 0-4.92 2.64-4.93 5.93v.19a415.71 415.71 0 0 1 -3 43.48 275.5 275.5 0 0 1 -6.26 34.49c-2.87 11.2-6.65 21.5-11.33 29.16a69.07 69.07 0 0 1 -20.48 21.3c-8.26 5.46-17.57 8.76-26.89 8.76a38.84 38.84 0 0 1 -18.23-4.53c-2.49-1.3-5.38.08-6.46 3.1s.07 6.52 2.56 7.82a47.33 47.33 0 0 0 19.64 5.44l.14.07h111.71l49.53-29.88 16.28-27.93 10-75.27z" fill="url(#J)"/><path d="m314.25 225.06-52.78 77.24-57.64 11.63 3.25 15.19s64.44-.35 70.4-1.75 53-62.78 53-62.78z" fill="url(#K)"/><path d="m275.62 348.41c-17.19 2.46-26.07 4.21-33.55 13.68s-56.39 125.56-56.39 125.56 7 5.93 15.66 6.65l8.7.72 61.73-105.93z" fill="url(#L)"/><path d="m248.08 372.26c1.93 17.19-2.48 36.83-4.4 46.82s-35.06 41.39-42.43 58a89.63 89.63 0 0 0 -5.51 16 24.37 24.37 0 0 0 5.58 1.17l8.7.72 61.73-105.93 3.86-40.68c-10.49 1.5-17.88 2.75-23.76 5.64a29.69 29.69 0 0 0 -3.77 18.26z" fill="url(#M)"/><path d="m370.31 208.07s19.79 5.87 29.06 17-11.76 141.16-11.76 141.16l-6.61-.76-93-10.62s12.48-117.6 22.48-127.43 26.33-16.05 26.33-16.05z" fill="url(#N)"/><path d="m301 353.55a5.42 5.42 0 0 1 4.82 3.29l11.54 1.32a5.41 5.41 0 0 1 10.64 1.21l10.93 1.25c0-.18 0-.35 0-.53a5.44 5.44 0 1 1 10.61 1.73l11.64 1.33a5.38 5.38 0 0 1 -.52-2.43 5.44 5.44 0 1 1 9.72 3.48l10.84 1.24 3.32.38a5.41 5.41 0 0 1 4.84-9.5c.5-3.3 1.11-7.3 1.78-11.84a5.43 5.43 0 1 1 1.23-8.47c5.59-39.13 13.6-103.31 7.21-111s-17.79-12.84-24.25-15.32a5.4 5.4 0 0 1 -10-1.17l-12.15 1.2a5.38 5.38 0 0 1 -8 .79l-8.18.81s-16.33 6.22-26.33 16.05a6 6 0 0 0 -.68.85 5.39 5.39 0 0 1 -1.31 2.41 81.66 81.66 0 0 0 -4 13.12 5.42 5.42 0 1 1 -2.29 10.52c-.8 4-1.59 8.33-2.37 12.83a5.42 5.42 0 1 1 -1.19 7.09c-5.93 36.46-10.61 80.61-10.61 80.61l8.28.95a5.43 5.43 0 0 1 4.48-2.2zm90.79-129.46a5.44 5.44 0 1 1 -5.59 5.28 5.44 5.44 0 0 1 5.62-5.28zm-.65 22.17a5.44 5.44 0 1 1 -5.59 5.28 5.44 5.44 0 0 1 5.62-5.28zm-.65 22.17a5.44 5.44 0 1 1 -5.59 5.28 5.44 5.44 0 0 1 5.63-5.28zm-.65 22.17a5.44 5.44 0 1 1 -5.59 5.28 5.44 5.44 0 0 1 5.63-5.29zm-.65 22.17a5.44 5.44 0 1 1 -5.59 5.28 5.44 5.44 0 0 1 5.64-5.29zm-19.15-89.3a5.44 5.44 0 1 1 -5.59 5.28 5.44 5.44 0 0 1 5.63-5.29zm-.65 22.17a5.44 5.44 0 1 1 -5.59 5.28 5.44 5.44 0 0 1 5.64-5.29zm-.65 22.17a5.44 5.44 0 1 1 -5.59 5.28 5.44 5.44 0 0 1 5.64-5.3zm-.59 22.19a5.44 5.44 0 1 1 -5.59 5.28 5.44 5.44 0 0 1 5.59-5.28zm-.65 22.17a5.44 5.44 0 1 1 -5.59 5.28 5.44 5.44 0 0 1 5.59-5.32zm-.63 21.59a5.44 5.44 0 1 1 -5.59 5.28 5.44 5.44 0 0 1 5.59-5.32zm-18.52-110.93a5.44 5.44 0 1 1 -5.59 5.28 5.44 5.44 0 0 1 5.59-5.28zm-.65 22.17a5.44 5.44 0 1 1 -5.59 5.28 5.44 5.44 0 0 1 5.59-5.28zm-.65 22.17a5.44 5.44 0 1 1 -5.59 5.28 5.44 5.44 0 0 1 5.6-5.29zm-.65 22.17a5.44 5.44 0 1 1 -5.59 5.28 5.44 5.44 0 0 1 5.6-5.29zm-.65 22.17a5.44 5.44 0 1 1 -5.59 5.28 5.44 5.44 0 0 1 5.6-5.3zm-.63 21.59a5.44 5.44 0 1 1 -5.59 5.28 5.44 5.44 0 0 1 5.61-5.3zm-18.51-110.91a5.44 5.44 0 1 1 -5.59 5.28 5.44 5.44 0 0 1 5.59-5.28zm-.61 22.17a5.44 5.44 0 1 1 -5.59 5.28 5.44 5.44 0 0 1 5.59-5.28zm-.65 22.17a5.44 5.44 0 1 1 -5.59 5.28 5.44 5.44 0 0 1 5.56-5.28zm-.65 22.17a5.44 5.44 0 1 1 -5.59 5.28 5.44 5.44 0 0 1 5.56-5.29zm-.7 22.16a5.44 5.44 0 1 1 -5.59 5.28 5.44 5.44 0 0 1 5.59-5.28zm-.63 21.59a5.44 5.44 0 1 1 -5.59 5.28 5.44 5.44 0 0 1 5.62-5.28zm-20.46-44.39a5.44 5.44 0 1 1 -5.59 5.28 5.44 5.44 0 0 1 5.62-5.28zm-.65 22.17a5.44 5.44 0 1 1 -5.59 5.28 5.44 5.44 0 0 1 5.62-5.28zm-.63 21.59a5.44 5.44 0 1 1 -5.59 5.28 5.44 5.44 0 0 1 5.62-5.28z" fill="url(#O)"/><path d="m373.34 248.34s6.44 11.69 6.09 20.1c-1.61 39.16-89.45 69-89.45 69l-2 17.39 99.61 11.37 14.52-94.15z" fill="url(#P)"/><path d="m385.31 366s-80.58-35.25-112.78-19.65c-24.18 11.65 6.31 147.65 6.31 147.65s9.09 4.21 16.29 3.51l7.2-.7 5.19-118.82 48.58 10.62 26.83-10.17z" fill="url(#Q)"/><path d="m383 378.4 2.34-12.4a389.29 389.29 0 0 0 -37.25-13.58c-1.36 3.32-3.22 7-5.29 8.72-4.2 3.45-43.13-3.45-53.83 0s-2.28 10.87 3.86 19.44-8.07 27.15-3.86 50.65l4.21 23.5 1.42 42.82h.56l7.2-.7 5.19-118.82 48.58 10.62z" fill="url(#R)"/><path d="m353.77 311.06a48.15 48.15 0 0 0 -14.48-.53c-7.58 1-11.88 7.86-11.88 7.86s22.22 6.17 25.57 6.26 8.48-2.78 8.48-2.78z" fill="url(#S)"/><path d="m307.48 377.8h26.86v12.61h-26.86z" fill="url(#T)"/><path d="m400 225.93s29.16 56.5 28.16 65.81-67.89 31.55-67.89 31.55-7.49-11.53-7.8-13.2c-.44-2.35 46.64-28 46.64-28s-24.9-24.42-26.66-37.29 10.08-21.8 17.55-21.8 10 2.93 10 2.93z" fill="url(#U)"/><path d="m422.45 245.37v.19a415.74 415.74 0 0 1 -3 43.48 275.5 275.5 0 0 1 -6.26 34.49c-2.87 11.2-6.65 21.5-11.33 29.16a69.07 69.07 0 0 1 -20.5 21.31c-8.26 5.46-17.57 8.76-26.89 8.76a38.84 38.84 0 0 1 -18.23-4.53c-2.49-1.3-5.38.08-6.46 3.1s.07 6.52 2.56 7.82a47.23 47.23 0 0 0 22.12 5.51c11.24 0 22.09-3.93 31.6-10.21a79.67 79.67 0 0 0 23.7-24.73c5.82-9.56 10-21.42 13.11-33.86 4.68-18.65 7-38.66 8.18-54.1s1.22-26.26 1.22-26.39c0-3.29-2.18-6-4.89-6s-4.92 2.64-4.93 5.93z" fill="url(#V)"/><path d="m342.26 208.07-5.44 3.3s-1.52 1.67 3.45 6.22 11.5 4 18.4.88 11.64-10.4 11.64-10.4l-4.31-1.07z" fill="#fff"/><path d="m338.74 191.07 3.52 17s2.53 3.22 9.66 3.3 14.08-4.37 14.08-4.37l.21-17.31z" fill="url(#W)"/><path d="m329.33 129.64s-1.58 24.29-1.86 32.79 10.21 10.67 10.21 10.67l15.4-16.1-6.8-25.38z" fill="url(#X)"/><path d="m329.41 158.64c.5 9.57 1.18 21.13 5.19 31.24s23.92 12.31 30.58 4.28 9-20.86 9-20.86 6.86.48 8.64-4.65 1.37-12.79-1.83-14.3-6.25 2-6.25 2 1.16-9.9-5.88-16.13-33.93-4.11-35.42-2.83-4.53 11.68-4.03 21.25z" fill="url(#Y)"/><path d="m370.17 168.91s2.56-12.29 1.63-17.84-4-9.23-10.36-11.46-24.6-.09-28.68-1.27-6.42-3.14-5-11.21 13.06-19.4 29.55-17.7 24.31 9.13 29.72 14.12 2.06 18.61.58 30-5.47 27-8.86 32.45-10.86 4.22-10.86 4.22l6.14-18s2.74 1.22 5.91-2.51 4.43-10.32 2.6-13.5-6.92-2.43-8.54 1.66-3.83 11.04-3.83 11.04z" fill="url(#Z)"/><path d="m428.52 325.7h-50.7l14.18-67.91h50.7z" fill="#223762"/><path d="m432.97 325.7h-51.62l14.43-67.91h51.62z" fill="url(#aa)"/><path d="m421.15 278.9 17.16 46.8h-27.11l7.23-46.8z" fill="#223762"/><path d="m418.43 278.9 17.17 46.8h-27.12z" fill="#4c93f4"/><path d="m330.52 320.89 24.5 4.74-11.12.07h-13.38z" fill="#3769a5"/><path d="m330.97 321.44 23.86 4.19v-3.39l-23.86-4.19z" fill="#4c93f4"/><path d="m252 318c-1.54 0-2.79 1.71-2.79 3.83s1.25 3.83 2.79 3.83h79.1v-7.66z" fill="#223762"/><path d="m64.24 513.7h-11.92l46.61-173.97h11.93z" fill="url(#ab)"/><path d="m81.47 377.8c3.81 27.15-1.09 52.46-11.79 69.81-15.06-13.73-26.73-36.72-30.54-63.87s1.09-52.46 11.79-69.81c15.07 13.73 26.73 36.72 30.54 63.87z" fill="url(#ac)"/><path d="m47.18 373.47a320.5 320.5 0 0 1 10.82 37.64c5.05 22.21 3.78 48.63 3.78 48.63" fill="none" stroke="#124" stroke-linecap="round" stroke-linejoin="round"/><path d="m75 366.22s-3 25.49-6.78 45.13-6.28 45.59-6.28 45.59" fill="none" stroke="#124" stroke-linecap="round" stroke-linejoin="round"/><path d="m81.08 409s-6.08 16.61-10.52 27.36-8.61 21.82-8.61 21.82" fill="none" stroke="#124" stroke-linecap="round" stroke-linejoin="round"/><path d="m57.2 268.11c2.5 18.28-.86 35.3-8.1 46.94-10.1-9.28-17.9-24.77-20.4-43s.86-35.3 8.1-46.94c10.1 9.23 17.91 24.72 20.4 43z" fill="url(#ad)"/><path d="m77.08 310.23c-1-21.26-2.37-59.64-3.18-82 14.75 18.27 24.22 46.25 24.22 77.66 0 31.05-9.25 58.74-23.71 77 1.59-21.44 3.59-53.3 2.67-72.66z" fill="url(#ae)"/><path d="m48.43 305.88c0-31.87 9.73-60.22 24.85-78.46.21.26.42.54.63.8.81 22.37 2.23 60.75 3.18 82 .91 19.37-1.09 51.23-2.68 72.68-.38.48-.75 1-1.13 1.45-15.13-18.25-24.85-46.6-24.85-78.47z" fill="url(#af)"/><path d="m46.19 340.11c8.23 18.17 10 36.84 6.11 51.15-13.33-6.49-26.2-20.14-34.44-38.31s-10-36.84-6.11-51.15c13.33 6.49 26.25 20.14 34.44 38.31z" fill="url(#ag)"/><path d="m34.45 513.63h54.7l8.12-70.89h-70.94z" fill="url(#ah)"/><path d="m97.27 442.74-8.12 70.89h-20.93l6.06-70.89z" fill="url(#ai)"/><path d="m23.56 440.72h76.48v17.47h-76.48z" fill="#ffd46a" transform="matrix(-1 0 0 -1 123.6 898.9)"/><ellipse cx="72.18" cy="315.26" fill="url(#aj)" rx="2.82" ry="5.02"/><ellipse cx="65.68" cy="320.81" fill="url(#ak)" rx="2.82" ry="5.02" transform="matrix(.70710678 -.70710678 .70710678 .70710678 -207.61 140.4)"/><ellipse cx="66.59" cy="347.48" fill="url(#al)" rx="3.87" ry="6.89" transform="matrix(.70710678 -.70710678 .70710678 .70710678 -226.2 148.86)"/><ellipse cx="68.18" cy="361.24" fill="url(#am)" rx="3.87" ry="6.89" transform="matrix(.90652895 -.42214366 .42214366 .90652895 -146.13 62.55)"/><path d="m52.32 325.7h454.55v14.03h-454.55z" fill="url(#an)" transform="matrix(-1 0 0 -1 559.19 665.44)"/><path d="m423.23 325.7h83.64v14.03h-83.64z" fill="#3769a5" transform="matrix(-1 0 0 -1 930.09 665.44)"/><path d="m52.32 335.17h454.55v4.56h-454.55z" fill="#83a4d6" transform="matrix(-1 0 0 -1 559.19 674.91)"/><path d="m423.63 335.17h83.24v4.56h-83.24z" fill="#223762" transform="matrix(-1 0 0 -1 930.49 674.91)"/><path d="m435.65 513.7h11.92l-46.61-173.97h-11.92z" fill="url(#ao)"/><path d="m342.07 513.7h-11.93l46.61-173.97h11.93z" fill="url(#ap)"/><path d="m208.86 322.25h66.44a0 0 0 0 1 0 0v3.45a0 0 0 0 1 0 0h-64a2.4 2.4 0 0 1 -2.4-2.4v-1a0 0 0 0 1 -.04-.05z" fill="#3769a5" transform="matrix(-1 0 0 -1 484.16 647.96)"/><path d="m162.22 300.06h155a4.92 4.92 0 0 0 5-5.46l-8.71-99.52a6.08 6.08 0 0 0 -5.94-5.46h-155a4.92 4.92 0 0 0 -5 5.46l8.71 99.52a6.08 6.08 0 0 0 5.94 5.46z" fill="#223762"/><path d="m157.94 300.06h155a4.92 4.92 0 0 0 5-5.46l-8.71-99.52a6.08 6.08 0 0 0 -5.94-5.46h-155a4.92 4.92 0 0 0 -5 5.46l8.71 99.52a6.08 6.08 0 0 0 5.94 5.46z" fill="url(#aq)"/><path d="m162.63 325.7a1.28 1.28 0 0 1 -1.06-2 19.5 19.5 0 0 1 31.73 0 1.28 1.28 0 0 1 -1.06 2z" fill="#4c93f4"/><path d="m179.74 322.69a26.81 26.81 0 0 0 -4.74-7 19.69 19.69 0 0 1 2.42-.15 19.48 19.48 0 0 1 15.86 8.16 1.28 1.28 0 0 1 -1.06 2h-13.54c1.03 0 1.66-1.75 1.06-3.01z" fill="#223762"/><path d="m114.44 376.07c-8.73 22-23.21 38.95-38.66 47.41 21.38-24.16 43-108.43 43-108.43 5.43 16.75 4.39 39-4.34 61.02z" fill="url(#ar)"/><path d="m80.11 362.46c8.73-22 23.21-38.95 38.66-47.41 0 0-21.59 84.27-43 108.43-5.43-16.74-4.39-39 4.34-61.02z" fill="url(#as)"/><path d="m80.11 362.46c8.73-22 23.21-38.95 38.66-47.41 0 0-21.59 84.27-43 108.43-5.43-16.74-4.39-39 4.34-61.02z" fill="url(#at)"/><ellipse cx="95.08" cy="378.52" fill="url(#au)" rx="3.88" ry="2.17" transform="matrix(.38638903 -.9223359 .9223359 .38638903 -290.78 319.96)"/><ellipse cx="81.08" cy="380.77" fill="url(#av)" rx="3.88" ry="2.17" transform="matrix(.38638903 -.9223359 .9223359 .38638903 -301.44 308.43)"/><ellipse cx="88.79" cy="380.53" fill="url(#aw)" rx="2.17" ry="3.88" transform="matrix(.92540827 -.37897167 .37897167 .92540827 -137.59 62.04)"/><ellipse cx="87.65" cy="388.03" fill="url(#ax)" rx="2.17" ry="3.88" transform="matrix(.92540827 -.37897167 .37897167 .92540827 -140.51 62.16)"/><ellipse cx="81.5" cy="399.78" fill="url(#ay)" rx="2.98" ry="5.32" transform="matrix(.92540827 -.37897167 .37897167 .92540827 -145.43 60.71)"/><ellipse cx="78.52" cy="410.05" fill="url(#az)" rx="2.98" ry="5.32" transform="matrix(1 -.04 .04 1 -15.98 3.39)"/><path d="m226.1 325.7h-38.47l29.12-87.14h26.94z" fill="#3769a5"/><path d="m223.07 325.7h-38.47l29.12-87.14h26.94z" fill="#223762"/><path d="m228.33 215.57a9.62 9.62 0 0 1 -.37-2.74 5.72 5.72 0 0 0 -2.9.33c-3.57 1.4-5.44 6-4.18 10.29s5.18 6.63 8.74 5.24c2.81-1.1 4.54-4.19 4.54-7.55a7.45 7.45 0 0 1 -5.83-5.57z" fill="#d6e3fa"/><path d="m338.36 162.11s-2.16 12.22-1.76 15.26 8.27.82 8.27.82" fill="none" stroke="#eb6057" stroke-linecap="round" stroke-linejoin="round"/><path d="m370.31 128.91c-8.59-3.33-34.55 4.38-38.23.78-1.14-1.12-2-3.74-2.71-6.83a14.47 14.47 0 0 0 -1.61 4.33c-1.42 8.07.92 10 5 11.21s22.33-1 28.68 1.27 9.43 5.91 10.36 11.46-1.63 17.87-1.63 17.87 8.74-36.76.14-40.09z" fill="url(#aA)"/><ellipse cx="331.1" cy="321.88" fill="#4c93f4" rx="2.79" ry="3.83"/><path d="m375.35 161.4s2.32-1.56 3.09.53.69 4.11-2 5.39a1.89 1.89 0 0 1 -2.39-.78" fill="none" stroke="#eb6057" stroke-linecap="round" stroke-linejoin="round"/></svg>