<svg height="24" viewBox="0 0 24 24" width="24" xmlns="http://www.w3.org/2000/svg"><g fill="none" fill-rule="evenodd"><path d="m0 0h24v24h-24z" opacity="0"/><g fill="#000"><path d="m10.4289322 12.3786797-5.12132036-5.12132039c-.39052429-.39052429-.39052429-1.02368927 0-1.41421356.3905243-.39052429 1.02368928-.39052429 1.41421357 0l5.12132039 5.12132035 6.1923881-6.19238816c.3905243-.39052429 1.0236893-.39052429 1.4142136 0s.3905243 1.02368927 0 1.41421356l-6.1923882 6.1923882 6.1923882 6.1923881c.3905243.3905243.3905243 1.0236893 0 1.4142136s-1.0236893.3905243-1.4142136 0l-6.1923881-6.1923882-5.12132039 5.1213204c-.39052429.3905243-1.02368927.3905243-1.41421357 0-.39052429-.3905243-.39052429-1.0236893 0-1.4142136z" opacity=".3" transform="matrix(.70710678 .70710678 -.70710678 .70710678 12.37868 -5.127417)"/><path d="m3.51471863 12 2.12132034 2.1213203c.39052429.5522848.39052429 1.0236893 0 1.4142136s-.86192881.3905243-1.41421356 0l-3.53553391-3.5355339 3.53553391-3.53553391c.47140452-.47140452.94280904-.47140452 1.41421356 0s.47140452.94280905 0 1.41421357zm8.48528137 8.4852814 2.1213203-2.1213204c.5522848-.3905243 1.0236893-.3905243 1.4142136 0s.3905243.8619288 0 1.4142136l-3.5355339 3.5355339-3.53553391-3.5355339c-.47140452-.4714045-.47140452-.942809 0-1.4142136.47140452-.4714045.94280905-.4714045 1.41421357 0zm8.4852814-8.4852814-2.1213204-2.12132034c-.3905243-.55228475-.3905243-1.02368927 0-1.41421357.3905243-.39052429.8619288-.39052429 1.4142136 0l3.5355339 3.53553391-3.5355339 3.5355339c-.4714045.4714045-.942809.4714045-1.4142136 0-.4714045-.4714045-.4714045-.942809 0-1.4142136zm-8.4852814-8.48528137-2.12132034 2.12132034c-.55228475.39052429-1.02368927.39052429-1.41421357 0-.39052429-.39052429-.39052429-.86192881 0-1.41421356l3.53553391-3.53553391 3.5355339 3.53553391c.4714045.47140452.4714045.94280904 0 1.41421356s-.942809.47140452-1.4142136 0z" fill-rule="nonzero"/></g></g></svg>