<svg height="24" viewBox="0 0 24 24" width="24" xmlns="http://www.w3.org/2000/svg"><g fill="none" fill-rule="evenodd"><path d="m0 0h24v24h-24z" opacity="0"/><g fill="#000"><path d="m4.95312427 14.3025791-1.90624854-.6051582c1.60413392-5.05302187 4.62630424-7.6974209 8.95312427-7.6974209 4.32682 0 7.3489903 2.64439903 8.9531243 7.6974209l-1.9062486.6051582c-1.358829-4.2803115-3.669992-6.3025791-7.0468757-6.3025791-3.37688367 0-5.68804669 2.0222676-7.04687573 6.3025791zm7.04687573-6.3025791c.5522847 0 1-.44771525 1-1s-.4477153-1-1-1-1 .44771525-1 1 .4477153 1 1 1z" fill-rule="nonzero" opacity=".3"/><path d="m5.73243561 6h3.4382701c.41183641-1.16519237 1.52307549-2 2.82929429-2s2.4174579.83480763 2.8292943 2h3.4382701c.3458094-.59780137.9921532-1 1.7324356-1 1.1045695 0 2 .8954305 2 2s-.8954305 2-2 2c-.7402824 0-1.3866262-.40219863-1.7324356-1h-3.4382701c-.4118364 1.16519237-1.5230755 2-2.8292943 2s-2.41745788-.83480763-2.82929429-2h-3.4382701c-.34580942.59780137-.99215325 1-1.73243561 1-1.1045695 0-2-.8954305-2-2s.8954305-2 2-2c.74028236 0 1.38662619.40219863 1.73243561 1zm6.26756439 2c.5522847 0 1-.44771525 1-1s-.4477153-1-1-1-1 .44771525-1 1 .4477153 1 1 1zm-8 11c-1.65685425 0-3-1.3431458-3-3s1.34314575-3 3-3 3 1.3431458 3 3-1.34314575 3-3 3zm0-2c.55228475 0 1-.4477153 1-1s-.44771525-1-1-1-1 .4477153-1 1 .44771525 1 1 1zm16 2c-1.6568542 0-3-1.3431458-3-3s1.3431458-3 3-3 3 1.3431458 3 3-1.3431458 3-3 3zm0-2c.5522847 0 1-.4477153 1-1s-.4477153-1-1-1-1 .4477153-1 1 .4477153 1 1 1z"/></g></g></svg>