<svg height="24" viewBox="0 0 24 24" width="24" xmlns="http://www.w3.org/2000/svg"><g fill="none" fill-rule="evenodd"><path d="m0 0h24v24h-24z" opacity="0"/><g fill="#000"><path d="m13.5 6c-.16257 2.28571429-.7200455 3.78571429-1.6724265 4.5 0 0 .6724265-6.5-1.2540882-8.5 0 0 0 3.92857143-1.78571424 7.14285714-.83705219 1.50669396-1.78571429 2.99896806-1.78571429 4.99999996 0 2.8571429 3.46766093 3.8571429 5.00288073 3.8571429 1.7976047 0 4.9950625-1 4.9950625-4.5 0-1.4391798-1.1666667-3.93917984-3.5-7.5z"/><path d="m9.72075922 20h4.55848158c.4304304 0 .8125692.2754301.9486833.6837722l.7720759 2.3162278h-8l.77207592-2.3162278c.13611405-.4083421.51825289-.6837722.9486833-.6837722z" opacity=".3"/></g></g></svg>