<svg height="24" viewBox="0 0 24 24" width="24" xmlns="http://www.w3.org/2000/svg"><g fill="none" fill-rule="evenodd"><path d="m0 0h24v24h-24z" opacity="0"/><g fill="#000"><path d="m5 5v10c0 .5948613.25970314 1.1290656.6719139 1.4954176.04786717.0425419.09490998.083473.14174142.1224486.01159401.011594 9.18634468-9.16315668 9.18634468-9.16315668 0-.45845802 0-1.27669453 0-2.45470952zm0-2h10c1.1045695 0 2 .8954305 2 2v10c0 2.209139-1.790861 4-4 4h-6c-2.209139 0-4-1.790861-4-4v-10c0-1.1045695.8954305-2 2-2z" fill-rule="nonzero" transform="matrix(.70710678 .70710678 -.70710678 .70710678 10.707107 -3.849242)"/><path d="m20 22c1.6568542 0 3-1.3431458 3-3 0-1.1045695-1-2.7712362-3-5-2 2.2287638-3 3.8954305-3 5 0 1.6568542 1.3431458 3 3 3z" opacity=".3"/></g></g></svg>