<svg height="24" viewBox="0 0 24 24" width="24" xmlns="http://www.w3.org/2000/svg"><g fill="none" fill-rule="evenodd"><path d="m0 0h24v24h-24z" opacity="0"/><g fill="#000"><path d="m12 10.9996338c.8356605-.627689 1.8743941-.9996338 3-.9996338 2.7614237 0 5 2.2385763 5 5s-2.2385763 5-5 5c-1.1256059 0-2.1643395-.3719448-3-.9996338-.8356605.627689-1.8743941.9996338-3 .9996338-2.76142375 0-5-2.2385763-5-5s2.23857625-5 5-5c1.1256059 0 2.1643395.3719448 3 .9996338zm1.3336047 1.5047202c.4238693.7344486.6663953 1.5867248.6663953 2.495646 0 .9088933-.2425111 1.761145-.6663562 2.4955783.4852448.325091 1.0602028.5044217 1.6663562.5044217 1.6568542 0 3-1.3431458 3-3s-1.3431458-3-3-3c-.6069413 0-1.1824029.18044-1.6663953.504354z" fill-rule="nonzero" opacity=".3"/><circle cx="12" cy="9" r="5"/></g></g></svg>