<svg height="24" viewBox="0 0 24 24" width="24" xmlns="http://www.w3.org/2000/svg"><g fill="none" fill-rule="evenodd"><path d="m0 0h24v24h-24z" opacity="0"/><path d="m12.7442084 3.27882877 6.503129 3.71607373c.4673625.26706429.7557916.76407944.7557916 1.30236472v7.40546558c0 .5382853-.2884291 1.0353004-.7557916 1.3023647l-6.503129 3.7160737c-.461149.2635137-1.0272678.2635137-1.4884168 0l-6.50312904-3.7160737c-.46736249-.2670643-.75579159-.7640794-.75579159-1.3023647v-7.40546558c0-.53828528.2884291-1.03530043.75579159-1.30236472l6.50312904-3.71607373c.461149-.26351371 1.0272678-.26351371 1.4884168 0zm-.7442084 11.22117123c1.3807119 0 2.5-1.1192881 2.5-2.5s-1.1192881-2.5-2.5-2.5-2.5 1.1192881-2.5 2.5 1.1192881 2.5 2.5 2.5z" fill="#000"/></g></svg>