<svg height="24" viewBox="0 0 24 24" width="24" xmlns="http://www.w3.org/2000/svg"><g fill="none" fill-rule="evenodd"><path d="m0 0h24v24h-24z" opacity="0"/><g fill="#000" fill-rule="nonzero"><path d="m10 6h4.5c2.209139 0 3.5 1.290861 3.5 3.5v4.5h-2v-4.5c0-1.1045695-.3954305-1.5-1.5-1.5h-4.5zm-2 0v2h-4c-.55228475 0-1-.44771525-1-1s.44771525-1 1-1zm10 10v4c0 .5522847-.4477153 1-1 1s-1-.4477153-1-1v-4z" opacity=".3"/><path d="m7 5c-.55228475 0-1-.44771525-1-1s.44771525-1 1-1h10.5c2.209139 0 3.5 1.290861 3.5 3.5v10.5c0 .5522847-.4477153 1-1 1s-1-.4477153-1-1v-10.5c0-1.1045695-.3954305-1.5-1.5-1.5z" transform="matrix(-1 0 0 -1 27 21)"/></g></g></svg>