<svg height="24" viewBox="0 0 24 24" width="24" xmlns="http://www.w3.org/2000/svg"><g fill="none" fill-rule="evenodd"><path d="m0 0h24v24h-24z" opacity="0"/><g fill="#000"><path d="m9.07117914 12.5710461h4.76148356c.2761423 0 .5-.2238576.5-.5v-11.90370876c0-.27614238-.2238577-.5-.5-.5-.2044523 0-.3883067.12447547-.4642384.31430466l-4.7614835 11.9037088c-.10255671.2563918.02215124.547377.278543.6499337.05906014.023624.12208563.0357616.18569534.0357616z" opacity=".3" transform="matrix(0 1 -1 0 17.571046 -5.332662)"/><path d="m9.23851648 24.5h4.76148352c.2761424 0 .5-.2238576.5-.5v-11.9037088c0-.2761424-.2238576-.5-.5-.5-.2044523 0-.3883067.1244755-.4642383.3143047l-4.76148356 11.9037088c-.10255671.2563917.02215124.5473769.278543.6499336.05906014.0236241.12208563.0357617.18569534.0357617z" transform="matrix(0 -1 -1 0 29.5 29.5)"/><rect height="20" opacity=".3" rx="1" transform="matrix(0 1 -1 0 24 0)" width="2" x="11" y="2"/></g></g></svg>