<svg height="24" viewBox="0 0 24 24" width="24" xmlns="http://www.w3.org/2000/svg"><g fill="none" fill-rule="evenodd"><path d="m0 0h24v24h-24z" opacity="0"/><g fill="#000"><path d="m3.73851648 19h4.76148352c.27614237 0 .5-.2238576.5-.5v-11.9037088c0-.27614237-.22385763-.5-.5-.5-.20445229 0-.38830667.12447547-.46423835.31430466l-4.76148351 11.90370884c-.10255671.2563917.02215124.5473769.278543.6499336.05906014.0236241.12208563.0357617.18569534.0357617z" opacity=".3"/><path d="m15.7385165 19h4.7614835c.2761424 0 .5-.2238576.5-.5v-11.9037088c0-.27614237-.2238576-.5-.5-.5-.2044523 0-.3883067.12447547-.4642383.31430466l-4.7614836 11.90370884c-.1025567.2563917.0221513.5473769.278543.6499336.0590602.0236241.1220857.0357617.1856954.0357617z" transform="matrix(-1 0 0 1 36 0)"/><rect height="20" opacity=".3" rx="1" width="2" x="11" y="2"/></g></g></svg>