<svg height="24" viewBox="0 0 24 24" width="24" xmlns="http://www.w3.org/2000/svg"><g fill="none" fill-rule="evenodd"><path d="m0 0h24v24h-24z" opacity="0"/><g fill="#000"><path d="m21 12c0 .5522847-.4477153 1-1 1h-1c-.5522847 0-1-.4477153-1-1s.4477153-1 1-1h1c.5522847 0 1 .4477153 1 1zm-5 0c0 .5522847-.4477153 1-1 1h-1c-.5522847 0-1-.4477153-1-1s.4477153-1 1-1h1c.5522847 0 1 .4477153 1 1zm-5 0c0 .5522847-.4477153 1-1 1h-1c-.55228475 0-1-.4477153-1-1s.44771525-1 1-1h1c.5522847 0 1 .4477153 1 1zm-5 0c0 .5522847-.44771525 1-1 1h-1c-.55228475 0-1-.4477153-1-1s.44771525-1 1-1h1c.55228475 0 1 .4477153 1 1z"/><path d="m14.9596876 21h-5.91937518c-.27614237 0-.5-.2238576-.5-.5 0-.1135357.03864038-.223691.1095656-.3123475l2.95968758-3.6996095c.1725048-.215631.487151-.2505916.7027819-.0780869.0288324.0230659.055021.0492546.0780869.0780869l2.9596876 3.6996095c.1725048.2156309.1375441.5302771-.0780869.7027819-.0886565.0709252-.1988118.1095656-.3123475.1095656zm-5.91937518-18h5.91937518c.2761424 0 .5.22385763.5.5 0 .11353575-.0386404.223691-.1095656.31234752l-2.9596876 3.69960947c-.1725048.21563097-.487151.25059166-.7027819.07808689-.0288324-.02306589-.055021-.04925453-.0780869-.07808689l-2.95968758-3.69960947c-.17250478-.21563096-.13754409-.53027715.07808688-.70278192.08865652-.07092522.19881178-.1095656.31234752-.1095656z" opacity=".3"/></g></g></svg>