<svg height="24" viewBox="0 0 24 24" width="24" xmlns="http://www.w3.org/2000/svg"><g fill="none" fill-rule="evenodd"><path d="m0 0h24v24h-24z" opacity="0"/><g fill="#000"><path d="m6 9v6c0 1.6568542 1.34314575 3 3 3h6v.8181818c0 1.4143063-.7675119 2.1818182-2.1818182 2.1818182h-7.63636362c-1.41430632 0-2.18181818-.7675119-2.18181818-2.1818182v-7.6363636c0-1.41430634.76751186-2.1818182 2.18181818-2.1818182zm11 7v-6c0-1.65685425-1.3431458-3-3-3h-6v-.81818182c0-1.41430632.76751186-2.18181818 2.1818182-2.18181818h7.6363636c1.4143063 0 2.1818182.76751186 2.1818182 2.18181818v7.63636362c0 1.4143063-.7675119 2.1818182-2.1818182 2.1818182z" fill-rule="nonzero" opacity=".3"/><path d="m9.27272727 9h4.45454543c.825012 0 1.2727273.44771525 1.2727273 1.2727273v4.4545454c0 .825012-.4477153 1.2727273-1.2727273 1.2727273h-4.45454543c-.82501202 0-1.27272727-.4477153-1.27272727-1.2727273v-4.4545454c0-.82501205.44771525-1.2727273 1.27272727-1.2727273z"/></g></g></svg>