<svg height="24" viewBox="0 0 24 24" width="24" xmlns="http://www.w3.org/2000/svg"><g fill="none" fill-rule="evenodd"><path d="m0 0h24v24h-24z" opacity="0"/><g fill="#000"><path d="m12.9336061 16.072447 6.4263939-5.1159709.1581585-.125238c.6494663-.514281.7590558-1.4576846.2447748-2.10715097-.0712101-.08992854-.1525006-.17139199-.2422776-.24279302l-6.5869703-5.23871966c-.5465653-.43469186-1.3208055-.43469186-1.8673708 0l-6.59148676 5.24231164c-.64837186.51566019-.75595592 1.45929462-.24029573 2.10766651.07047094.0886075.15074688.168952.23929425.2394985l.15617364.124425 6.4359024 5.1165887c.546772.4346877 1.3212194.4344315 1.8677037-.0006178z" fill-rule="nonzero"/><path d="m11.0563554 18.6706981-5.72042516-4.5477791c-.3903903-.3103631-.95846317-.2454882-1.26882627.1449021-.00238719.0030027-.00475523.0060207-.00710397.0090536-.30742712.3969792-.23483084.9680133.16214834 1.2754404.00143931.0011146.00288196.0022249.00432793.0033309l6.86080133 5.2474896c.5377958.4113336 1.2844794.4114019 1.8223504.0001667l6.8581505-5.2434743c.4015407-.3070023.4781791-.8813899.1711768-1.2829306-.0013124-.0017165-.0026308-.0034283-.0039553-.0051355-.3083063-.3973812-.8803791-.4695907-1.2777603-.1612844-.0028877.0022405-.0057619.0044982-.0086225.0067733l-5.7251128 4.553271c-.5464824.4346259-1.3205845.434699-1.867149.0001763z" opacity=".3"/></g></g></svg>