<svg height="24" viewBox="0 0 24 24" width="24" xmlns="http://www.w3.org/2000/svg"><g fill="none" fill-rule="evenodd"><path d="m0 0h24v24h-24z" opacity="0"/><g fill="#000"><path d="m1 12v2h5v-2zm-1-2h20c.5522847 0 1 .4477153 1 1v4c0 .5522847-.4477153 1-1 1h-20c-.55228475 0-1-.4477153-1-1v-4c0-.5522847.44771525-1 1-1z" fill-rule="nonzero" transform="matrix(-.70710678 .70710678 -.70710678 -.70710678 26.263456 15.12132)"/><path d="m17.5 12h1c.2761424 0 .5.2238576.5.5v1c0 .2761424-.2238576.5-.5.5h-1c-.2761424 0-.5-.2238576-.5-.5v-1c0-.2761424.2238576-.5.5-.5zm3-3h1c.2761424 0 .5.22385763.5.5v1c0 .2761424-.2238576.5-.5.5h-1c-.2761424 0-.5-.2238576-.5-.5v-1c0-.27614237.2238576-.5.5-.5zm1 4h1c.2761424 0 .5.2238576.5.5v1c0 .2761424-.2238576.5-.5.5h-1c-.2761424 0-.5-.2238576-.5-.5v-1c0-.2761424.2238576-.5.5-.5z" opacity=".3"/></g></g></svg>