<svg height="24" viewBox="0 0 24 24" width="24" xmlns="http://www.w3.org/2000/svg"><g fill="none" fill-rule="evenodd"><path d="m0 0h24v24h-24z" opacity="0"/><g fill="#000"><path d="m7.67514486 18.731359c2.00521854-1.3461989 3.32485514-3.6346701 3.32485514-6.231359 0-2.91132078-1.65880235-5.43520751-4.08281946-6.67807261 1.3820092-1.13831894 3.15258166-1.82192739 5.08281946-1.82192739 4.418278 0 8 3.581722 8 8s-3.581722 8-8 8c-1.5933247 0-3.07785733-.4657945-4.32485514-1.268641z" opacity=".3"/><path d="m6.39268296 17.7059641c-1.47679861-1.4514251-2.39268296-3.4717365-2.39268296-5.7059641 0-1.9319146.68479668-3.70388635 1.82489501-5.08642026 1.9014776 1.13415034 3.17510499 3.21154946 3.17510499 5.58642026 0 2.1298467-1.02437531 4.0204376-2.60731704 5.2059641z"/></g></g></svg>