<svg height="24" viewBox="0 0 24 24" width="24" xmlns="http://www.w3.org/2000/svg"><g fill="none" fill-rule="evenodd"><path d="m0 0h24v24h-24z" opacity="0"/><g fill="#000"><path d="m11.2928932 5.63603897 7.0710678 7.07106783-6.363961 6.363961-7.07106781-7.0710678zm-2.82842711 5.65685423c-.39052429.3905243-.39052429 1.0236893 0 1.4142136.3905243.3905243 1.02368927.3905243 1.41421357 0 .39052424-.3905243.39052424-1.0236893 0-1.4142136-.3905243-.3905243-1.02368927-.3905243-1.41421357 0zm2.82842711-2.82842711c-.3905243.3905243-.3905243 1.02368927 0 1.41421357.3905243.39052424 1.0236893.39052424 1.4142136 0 .3905243-.3905243.3905243-1.02368927 0-1.41421357-.3905243-.39052429-1.0236893-.39052429-1.4142136 0zm0 5.65685421c-.3905243.3905243-.3905243 1.0236893 0 1.4142136s1.0236893.3905243 1.4142136 0 .3905243-1.0236893 0-1.4142136c-.3905243-.3905242-1.0236893-.3905242-1.4142136 0zm2.8284271-2.8284271c-.3905242.3905243-.3905242 1.0236893 0 1.4142136.3905243.3905243 1.0236893.3905243 1.4142136 0s.3905243-1.0236893 0-1.4142136-1.0236893-.3905243-1.4142136 0z"/><path d="m10.5150629 20.4145579c-1.94136915 1.286206-4.58277595 1.0740782-6.29323749-.6363833s-1.92258931-4.3518683-.6363833-6.2932375z" opacity=".3"/><path d="m12.7778303 4.29254889c1.9413692-1.28620601 4.582776-1.07407824 6.2932375.6363833 1.7104616 1.71046154 1.9225893 4.35186834.6363833 6.29323751z" opacity=".3"/></g></g></svg>