<svg height="24" viewBox="0 0 24 24" width="24" xmlns="http://www.w3.org/2000/svg"><g fill="none" fill-rule="evenodd"><path d="m0 0h24v24h-24z" opacity="0"/><g fill="#000"><path d="m3 16h2c.55228475 0 1-.4477153 1-1s-.44771525-1-1-1h-2v-2h2c.55228475 0 1-.4477153 1-1s-.44771525-1-1-1h-2v-2h2c.55228475 0 1-.44771525 1-1s-.44771525-1-1-1h-2v-2c0-.55228475.44771525-1 1-1h6c.5522847 0 1 .44771525 1 1v15c0 .5522847-.4477153 1-1 1h-6c-.55228475 0-1-.4477153-1-1z" opacity=".3"/><path d="m16 3h3c1.1045695 0 2 .8954305 2 2v10.2485298c0 .4844463-.1758365.9524262-.4948466 1.3170092l-2.6288651 3.0044172c-.181841.2078183-.4977223.228877-.7055406.047036-.0167054-.0146172-.0324188-.0303306-.047036-.047036l-2.6288651-3.0044172c-.3190101-.364583-.4948466-.8325629-.4948466-1.3170092v-10.2485298c0-1.1045695.8954305-2 2-2z"/></g></g></svg>