<svg height="24" viewBox="0 0 24 24" width="24" xmlns="http://www.w3.org/2000/svg"><g fill="none" fill-rule="evenodd"><path d="m0 0h24v24h-24z" opacity="0"/><g fill="#000"><path d="m11 3v8c0 .0862364.0109158.1699233.0314412.2497543-.6150975.341113-1.0314412.9970582-1.0314412 1.7502457 0 1.1045695.8954305 2 2 2s2-.8954305 2-2c0-.7531875-.4163437-1.4091327-1.0314412-1.7502457.0205254-.079831.0314412-.1635179.0314412-.2497543v-8l4.7925828 9.5851656c.1315481.2630963.1405894.5707659.0247178.8411329l-2.6874262 6.2706611c-.0787894.183842-.2595584.3030404-.4595725.3030404h-5.34060382c-.20001406 0-.38078312-.1191984-.45957252-.3030404l-2.6874262-6.2706611c-.11587158-.270367-.10683029-.5780366.02471784-.8411329z"/><path d="m10 21h4c.5522847 0 1 .4477153 1 1v1h-6v-1c0-.5522847.44771525-1 1-1z" opacity=".3"/></g></g></svg>