<svg height="24" viewBox="0 0 24 24" width="24" xmlns="http://www.w3.org/2000/svg"><g fill="none" fill-rule="evenodd"><path d="m0 0h24v24h-24z" opacity="0"/><g fill="#000"><path d="m10.232233 10.232233 3.535534 3.535534-5.30330091 5.3033008c-.97631073.9763107-2.55922317.9763107-3.5355339 0s-.97631073-2.5592232 0-3.5355339z"/><path d="m13.767767 6.69669914 1.7677669-1.76776695c.9763107-.97631073 2.5592232-.97631073 3.5355339 0s.9763107 2.55922317 0 3.5355339l-1.7677669 1.76776691 1.0606601 1.0606602c.5857865.5857865.5857865 1.5355339 0 2.1213204-.5857864.5857864-1.5355339.5857864-2.1213203 0l-5.6568543-5.65685429c-.5857864-.58578643-.5857864-1.5355339 0-2.12132034.5857865-.58578644 1.5355339-.58578644 2.1213204 0z" opacity=".3"/></g></g></svg>