<svg height="24" viewBox="0 0 24 24" width="24" xmlns="http://www.w3.org/2000/svg"><g fill="none" fill-rule="evenodd"><path d="m0 0h24v24h-24z" opacity="0"/><g fill="#000"><path d="m7 14c0 2.7614237 2.23857625 5 5 5 2.7614237 0 5-2.2385763 5-5 0-1.6257837-1.6297087-4.13147183-5-7.30077018-3.37029128 3.16929835-5 5.67498648-5 7.30077018zm5 7c-3.86599325 0-7-3.1340068-7-7 0-2.5773288 2.33333333-5.91066217 7-10 4.6666667 4.08933783 7 7.4226712 7 10 0 3.8659932-3.1340068 7-7 7z" fill-rule="nonzero"/><path d="m12 4c4.6666667 4.08933783 7 7.4226712 7 10 0 3.8659932-3.1340068 7-7 7z"/></g></g></svg>