<svg height="24" viewBox="0 0 24 24" width="24" xmlns="http://www.w3.org/2000/svg"><g fill="none" fill-rule="evenodd"><path d="m0 0h24v24h-24z" opacity="0"/><g fill="#000"><path d="m18.5 8c-1.3807119 0-2.5-1.11928813-2.5-2.5s1.1192881-2.5 2.5-2.5 2.5 1.11928813 2.5 2.5-1.1192881 2.5-2.5 2.5zm0 13c-1.3807119 0-2.5-1.1192881-2.5-2.5s1.1192881-2.5 2.5-2.5 2.5 1.1192881 2.5 2.5-1.1192881 2.5-2.5 2.5zm-13 0c-1.38071187 0-2.5-1.1192881-2.5-2.5s1.11928813-2.5 2.5-2.5 2.5 1.1192881 2.5 2.5-1.11928813 2.5-2.5 2.5z" opacity=".3"/><path d="m5.5 8c-1.38071187 0-2.5-1.11928813-2.5-2.5s1.11928813-2.5 2.5-2.5 2.5 1.11928813 2.5 2.5-1.11928813 2.5-2.5 2.5zm5.5-4h2c.5522847 0 1 .44771525 1 1s-.4477153 1-1 1h-2c-.5522847 0-1-.44771525-1-1s.4477153-1 1-1zm0 14h2c.5522847 0 1 .4477153 1 1s-.4477153 1-1 1h-2c-.5522847 0-1-.4477153-1-1s.4477153-1 1-1zm-6-8c.55228475 0 1 .4477153 1 1v2c0 .5522847-.44771525 1-1 1s-1-.4477153-1-1v-2c0-.5522847.44771525-1 1-1zm14 0c.5522847 0 1 .4477153 1 1v2c0 .5522847-.4477153 1-1 1s-1-.4477153-1-1v-2c0-.5522847.4477153-1 1-1z"/></g></g></svg>