<svg height="24" viewBox="0 0 24 24" width="24" xmlns="http://www.w3.org/2000/svg"><g fill="none" fill-rule="evenodd"><path d="m0 0h24v24h-24z" opacity="0"/><g fill="#000"><path d="m12.9863016 8.83409843c.0090097.05396025.0136984.10938336.0136984.16590157v2h4c1.1045695 0 2 .8954305 2 2v3h-14v-3c0-1.1045695.8954305-2 2-2h4v-2c0-.05651821.0046887-.11194132.0136984-.16590157-1.17234239-.40794379-2.0136984-1.5227665-2.0136984-2.83409843 0-1.65685425 1.3431458-3 3-3s3 1.34314575 3 3c0 1.31133193-.841356 2.42615464-2.0136984 2.83409843z"/><rect height="2" opacity=".3" rx="1" width="14" x="5" y="18"/></g></g></svg>