<svg height="24" viewBox="0 0 24 24" width="24" xmlns="http://www.w3.org/2000/svg"><g fill="none" fill-rule="evenodd"><path d="m0 0h24v24h-24z" opacity="0"/><g fill="#000"><path d="m6 9v6c0 1.6568542 1.34314575 3 3 3h6v.8181818c0 1.4143063-.7675119 2.1818182-2.1818182 2.1818182h-7.63636362c-1.41430632 0-2.18181818-.7675119-2.18181818-2.1818182v-7.6363636c0-1.41430634.76751186-2.1818182 2.18181818-2.1818182z" fill-rule="nonzero"/><path d="m10.1818182 4h7.6363636c1.4143063 0 2.1818182.76751186 2.1818182 2.18181818v7.63636362c0 1.4143063-.7675119 2.1818182-2.1818182 2.1818182h-7.6363636c-1.41430634 0-2.1818182-.7675119-2.1818182-2.1818182v-7.63636362c0-1.41430632.76751186-2.18181818 2.1818182-2.18181818z" opacity=".3"/></g></g></svg>