<svg height="24" viewBox="0 0 24 24" width="24" xmlns="http://www.w3.org/2000/svg"><g fill="none" fill-rule="evenodd"><path d="m0 0h24v24h-24z" opacity="0"/><g fill="#000"><path d="m12 3c.5522847 0 1 .44771525 1 1v1c0 .55228475-.4477153 1-1 1s-1-.44771525-1-1v-1c0-.55228475.4477153-1 1-1zm0 5c.5522847 0 1 .44771525 1 1v1c0 .5522847-.4477153 1-1 1s-1-.4477153-1-1v-1c0-.55228475.4477153-1 1-1zm0 5c.5522847 0 1 .4477153 1 1v1c0 .5522847-.4477153 1-1 1s-1-.4477153-1-1v-1c0-.5522847.4477153-1 1-1zm0 5c.5522847 0 1 .4477153 1 1v1c0 .5522847-.4477153 1-1 1s-1-.4477153-1-1v-1c0-.5522847.4477153-1 1-1z"/><path d="m21 9.04031242v5.91937518c0 .2761424-.2238576.5-.5.5-.1135357 0-.223691-.0386404-.3123475-.1095656l-3.6996095-2.9596876c-.215631-.1725048-.2505916-.487151-.0780869-.7027819.0230659-.0288324.0492546-.055021.0780869-.0780869l3.6996095-2.95968758c.2156309-.17250478.5302771-.13754409.7027819.07808688.0709252.08865652.1095656.19881178.1095656.31234752zm-18 5.91937518v-5.91937518c0-.27614237.22385763-.5.5-.5.11353575 0 .223691.03864038.31234752.1095656l3.69960947 2.95968758c.21563097.1725048.25059166.487151.07808689.7027819-.02306589.0288324-.04925453.055021-.07808689.0780869l-3.69960947 2.9596876c-.21563096.1725048-.53027715.1375441-.70278192-.0780869-.07092522-.0886565-.1095656-.1988118-.1095656-.3123475z" opacity=".3"/></g></g></svg>