<svg fill="none" height="122" viewBox="0 0 43 122" width="43" xmlns="http://www.w3.org/2000/svg"><path d="m27.7833.279065c3.732-.675 6.381.368016 8.041 3.248015 1.477.226 2.83.22799 4.029.65799 2.301.825 3.123 2.36101 2.572 4.67001-.525 2.19302-1.189 4.35902-1.908 6.49902-1.184 3.529-2.465 7.026-3.695 10.54-.26.746-.475 1.509-.697 2.222.893 1.603 1.773 3.056 2.518 4.577.332.682.633 1.536.521 2.246-.365 2.347-.752 4.714-1.438 6.98-3.426 11.325-7.07 22.585-10.404 33.938-3.258 11.104-5.713 22.397-6.729 33.9559-.256 2.908-.291 5.835-.48 8.75-.049.764-.293 1.514-.432 2.196-4.137.875-4.514.304-7.125-2.6-1.986-2.207-2.502-4.548-2.66597-7.168-.105-1.708-.73402-3.026-1.89502-4.239-2.01-2.1-3.86498-4.348-5.91598-6.402-.717-.7189-1.176021-1.3909-1.193021-2.3749-.066-3.584-.163988-7.168-.187988-10.752-.016-2.493.919989-4.94.054993-7.507-.287-.853.435986-2.011.563986-3.046.242-1.974.23602-3.988.60502-5.934 1.041-5.467 2.12699-10.915 3.48199-16.328 1.971-7.859 4.18401-15.638 6.48799-23.396.643-2.161 1.385-4.304 2.238-6.39 2.162-5.278 4.404-10.523 6.641-15.77101.256-.603.553-1.35502 1.059-1.65802 2.742-1.637 3.979-4.54901 5.953-6.914005z" fill="#000"/></svg>