<svg fill="none" height="116" viewBox="0 0 93 116" width="93" xmlns="http://www.w3.org/2000/svg"><path d="m79.318 42.42c-1.047.303-1.9799-.23-2.8729.564.373.226.6019.446.8689.514 1.77.449 3.2031 1.373 4.3501 2.806 1.562 1.954 3.455 3.499 5.672 4.71 2.811 1.535 4.508 3.983 5.291 7.094.32 1.276.172 2.362-.812 3.293-2.961 2.797-5.568 5.965-8.828 8.452-.381.29-.7231.632-1.0621.97-3.309 3.281-6.9549 6.123-10.9589 8.507-.547.325-1.0371.743-1.5491 1.124-.514.382-.996.807-1.531 1.154-5.096 3.307-10.195 6.607-15.301 9.897-1.879 1.211-3.7709 2.401-5.6739 3.575-.68.419-1.3871.805-2.1151 1.127-4.111 1.818-7.9259 4.123-11.5799 6.736-2.34 1.672-4.811 3.162-7.25 4.688-2.777 1.736-5.5271 3.529-8.3981 5.097-2.756 1.506-5.7229 2.448-8.94694 2.278-2.141-.113-3.816-1.018-5.09-2.736-1.686-2.271-2.37101-4.875-2.46701-7.639-.084-2.477-.00199-4.959-.05099-7.438-.023005-1.194-.188015-2.386-.273015-3.579-.068-.956-.130999-1.913-.167999-2.87-.131-3.268-.21498-6.539-.38498-9.806-.1089994-2.081-.1250045-4.14.175995-6.218.215-1.493.204979-3.03.177979-4.546-.098-5.214.63302-10.355 1.26202-15.509.291-2.377.453-4.769.68-7.153.234-2.464.42001-4.935.73001-7.389.213-1.68.25598-3.336.05298-5.017-.271-2.216-.50598-4.438-.69098-6.664-.072-.87.00999-1.756.05899-2.632.088-1.513.25799-3.023.29699-4.538.064-2.556-.09998-5.121.42402-7.651.047-.233.06198-.48.04498-.717-.236-3.22601.77302-6.15699 2.16202-8.98499.348-.707.81397-1.36902 1.31097-1.98502.576-.715 1.36902-1.103998 2.30902-1.094998 3.19704.031 6.40604-.094004 9.58604.158996 3.209.256002 6.2049 1.508012 9.1659 2.721012 1.477.605 2.9101 1.32799 4.3201 2.07699 2.486 1.32 4.5199 3.28 6.7579 4.95201 1.148.859 2.2031 1.847 3.3241 2.746 3.506 2.812 6.514 6.143 9.703 9.283 2.291 2.254 4.781 4.211 7.518 5.914 4.545 2.829 8.9729 5.851 13.5059 8.701 2.041 1.284 4.0201 2.612 5.7051 4.346.154.166.2869.356.5499.682zm-69.59694-40.60799c-.174.157-.32001.28899-.46701.42099.104.099.23601.29701.30301.27701.182-.057.336-.20501.50004-.31601-.09404-.107-.18804-.21399-.33604-.38199zm16.42704 75.16699c-.01-.076-.0201-.152-.0291-.229-.107.034-.2149.068-.3199.104.047.062.0819.152.1429.177.054.021.1361-.033.2061-.052zm.7639 12.482-.0289.186.1719-.061zm-13.2399-58.632.1499-.032-.0919-.131z" fill="#000"/></svg>