<svg fill="none" height="91" viewBox="0 0 184 91" width="184" xmlns="http://www.w3.org/2000/svg"><g fill="#000"><path d="m183.861 90.676c-.645.018-1.268.092-1.883.042-3.584-.288-7.168-.603-10.75-.919-.477-.041-.969-.076-1.416-.225-2.533-.843-5.166-.972-7.797-1.138-2.793-.177-5.584-.368-8.373-.579-7.977-.606-15.969-.771-23.961-.932-3.754-.074-7.508-.114-11.26-.166-8.072-.111-16.145-.196-24.2168-.34-3.914-.068-7.826-.215-11.738-.383-3.592-.153-7.184-.314-10.766-.598s-7.152-.725-10.727-1.094c-2.143-.221-4.287-.414-6.426-.654-4.127-.463-8.262-.866-12.371-1.455-3.553-.509-7.07-1.271-10.611-1.864-3.309-.554-6.627-1.033-9.941-1.542-2.525-.389-5.055-.752-7.574-1.166-1.109-.182-2.197-.395-3.316-.062-.703.209-1.215-.133-1.676-.647-.816-.909-.93399-2.006-.88299-3.138.025-.539.40199-.887.93899-.911.555-.024 1.117.023 1.67.091 3.41.418 6.814.891 10.23 1.268 6.994.77 13.91 2.061 20.84 3.231 4.344.733 8.705 1.226 13.074 1.685 5.162.543 10.348.856 15.508 1.42 7.717.844 15.453 1.207 23.207 1.311 5.35.071 10.7028.024 16.0528.127 8.23.156 16.461.405 24.693.595 2.717.062 5.439-.013 8.154.105 5.988.261 11.98.511 17.957.939 6.055.434 12.094 1.056 18.135 1.644 1.186.115 2.361.402 3.514.711.418.111.961.439 1.094.799.431 1.171.958 2.364.618 3.845z"/><path d="m15.541 53.8029c.715-.174 1.236-.416 1.752-.402 1.676.039 3.352.16 5.025.273 3.584.244 7.164.65 10.75.73 8.861.197 17.723.734 26.594.234 4.143-.234 8.291-.402 12.439-.582 2.393-.104 4.787-.172 7.18-.258.639-.022 1.281-.023 1.916-.086 5.332-.52 10.688-.547 16.031-.795 3.83-.179 7.658-.432 11.49-.568 4.549-.164 9.104-.37 13.654-.328 10.873.102 21.738-.133 32.605-.457 4.311-.127 8.629-.027 12.943.042 1.432.022 2.861.267 4.289.431 1.082.125 1.984.635 2.629 1.5.693.934 1.662 1.733 1.756 3.207-.48.096-.92.283-1.344.252-2.305-.169-4.604-.445-6.912-.577-1.672-.095-3.355-.065-5.031-.015-5.342.158-10.682.371-16.021.523-2.156.061-4.314.014-6.471.028-2.156.014-4.311.069-6.467.058-4.625-.023-9.252-.179-13.875-.094-5.506.104-11.01.401-16.516.615-1.428.057-2.857.104-4.287.178-2.865.148-5.73.301-8.596.475-2.869.174-5.736.393-8.607.562-3.027.178-6.057.299-9.084.481-3.025.183-6.045.444-9.072.614-6.623.371-13.254.279-19.883.184-2.311-.034-4.609-.328-6.916-.461-5.17-.297-10.334-.807-15.475-1.432-1.498-.184-2.977-.364-4.482-.386-.959-.014-1.547-.407-1.725-1.275-.158-.771-.176-1.571-.289-2.671z"/><path d="m1.25602 29.021c1.092-.042 2.12101-.1089 3.15201-.1149 8.87297-.052 17.74597-.015 26.61697-.164 6.711-.113 13.418-.5741 20.129-.6731 6.232-.092 12.467.064 18.699.158 4.234.063 8.471.1671 12.703.3221 7.738.284 15.473.6309 23.211.9289 5.51.213 11.021.366 16.529.591 4.072.167 8.141.412 12.213.611 1.756.086 3.514.1521 5.271.2131 9.268.32 18.537.6179 27.803.9639 3.115.117 6.232.284 9.338.564 1.66.15 3.311.5251 4.932.9331.566.143 1.283.585 1.484 1.074.377.919.865 1.899.543 2.979-.156.521-.646.791-1.35.702-1.428-.178-2.85-.3921-4.277-.5551-6.506-.744-13.045-1.046-19.582-1.323-6.469-.274-12.945-.372-19.416-.636-4.551-.186-9.096-.521-13.643-.789-2.697-.159-5.396-.301-8.092-.474-2.146-.138-4.293-.2819-6.434-.4779-1.502-.138-2.979-.3211-4.512-.1791-1.572.146-3.184.0111-4.768-.1259-1.342-.117-2.662-.4751-4.004-.6091-1.021-.103-2.08-.142-3.092 0-2.799.39-5.562-.149-8.34-.161-2.068-.008-4.123-.21-6.191-.238-1.955-.026-3.951.2321-5.902-.2719-.602-.155-1.287-.1831-1.895-.0661-.713.137-1.377.421-2.012-.166-.047-.044-.18-.07-.223-.038-1.232.94-2.461-.053-3.691-.005-1.35.052-2.701-.106-4.035.315-.502.158-1.129.1471-1.637-.0009-1.258-.366-2.492-.1251-3.74-.0601-1.271.066-2.578.3031-3.807.0931-1.289-.221-2.527-.1751-3.785-.0371-2.217.243-4.434-.1339-6.645.0201-3.309.231-6.639.123-9.926.69-.701.121-1.426.168-2.139.151-2.293-.054-4.584.25-6.885-.275-1.197-.273-2.523-.4481-3.766.1789-.324.163-.779.1131-1.17.0911-4.693-.27-9.38298-.095-14.06998.113-.32.014-.641.026-.957.069-2.283.316-3.263997-.9351-3.024997-3.3681.026-.223.173997-.436.386997-.953z"/><path d="m182.207 16.842c-1.088-.401-2.021-.769-2.973-1.09-.902-.305-1.83-.328-2.793-.361-3.109-.109-6.223-.329-9.309-.716-1.775-.223-3.496.046-5.242.069-.957.013-1.867.032-2.818-.255-.725-.219-1.631-.234-2.35-.004-1.434.46-2.799.08-4.195-.006-2.047-.127-4.061-.546-6.156-.163-1.461.267-3.004.068-4.512.088-1.99.026-3.982.101-5.973.083-1.188-.011-2.373-.157-3.559-.246-.236-.018-.514-.149-.699-.067-1.777.782-3.621.062-5.432.244-1.402.141-2.852-.214-4.281-.293-1.029-.057-2.072-.107-3.094-.011-2.549.239-5.078-.325-7.627-.123-1.189.095-2.398-.065-3.588.035-2.646.225-5.258-.13-7.881-.32-.549-.04-1.127-.08-1.654.039-.717.162-1.402.113-2.123.094-2.852-.076-5.705-.032-8.525-.583-.385-.075-.797-.039-1.195-.028-4.869.127-9.699-.406-14.527-.903-5.078-.522-10.145-1.167-15.217-1.734-1.58-.176-3.174-.216-4.746-.426-2.686-.35896-5.346-.95396-8.039-1.17196-3.18-.257-6.287-.99301-9.469-1.21301-1.824-.127-3.637-.447-5.449-.707-3.865-.553-7.73-1.105-11.59-1.698-1.336-.205-2.656-.523-3.982-.798-1.637-.339-3.27098-.684-4.95498-.4-.506-.849-.123-1.21799.4-1.84799.641-.774 1.29299-.34102 1.94898-.45102.277-.393.545-.77.887-1.253997 1.396.091 2.836.109016 4.254.291016 5.469.701001 10.934 1.438981 16.396 2.190981 6.096.84 12.182 1.736 18.281 2.557 3.248.438 6.51.77901 9.768 1.14301 5.559.621 11.113 1.29699 16.684 1.81299 3.816.354 7.652.54102 11.486.68802 6.307.24 12.617.46998 18.928.55298 7.668.101 15.34.09002 23.01.04602 11.109-.064 22.219-.24902 33.33-.28202 3.914-.011 7.83.23101 11.742.44098 1.43.077 2.855.352 4.266.621.695.133 1.389.388 2.018.714.852.442 1.141 1.217.922 2.223-.117.542-.4 1.056-.467 1.6-.063.518.058 1.055.099 1.619zm-171.949-13.59896c.051-.113.111-.22299.146-.33999.006-.022-.125-.11902-.145-.10602-.102.067-.186.15699-.27699.23999.09199.068.18399.13702.27599.20602zm32.359 4.344c-.113.057-.295.09099-.322.17599-.033.101.066.246.107.371.154-.072.311-.14501.465-.21701-.082-.109-.166-.21898-.25-.32998zm-28.873-4.45002c-.061.02-.121.03902-.182.05902.08.05.158.108.244.141.02.008.072-.073.109-.112-.056-.03-.114-.05802-.171-.08802z"/></g></svg>