<svg fill="none" height="185" viewBox="0 0 78 185" width="78" xmlns="http://www.w3.org/2000/svg"><path d="m74.1071 56.3471c0 .408.041 1.519-.008 2.625-.154 3.521-.367 7.039-.508 10.56-.139 3.423-.143 6.829.256 10.259.441 3.803 1.25 7.525 1.896 11.284.408 2.375.52 4.802.727 7.209.689 8.0429.781 16.1039.629 24.1679-.043 2.309-.312 4.616-.547 6.917-.412 4.008-.771 8.023-1.35 12.008-.506 3.483-1.275 6.929-1.945 10.388-.383 1.978-.77 3.954-1.201 5.921-.412 1.867-1.008 3.673-1.654 5.481-.67 1.871-1.115 3.919-1.156 5.9-.121 5.644-3.451 8.87-8.107 10.964-2.555 1.148-5.346 1.813-8.08 2.496-2.832.707-5.723 1.182-8.592 1.737-.59.114-1.213.258-1.797.187-3.693-.451-7.447-.479-11.039-1.633-1.83-.588-3.551-1.358-5.23-2.32-2.797-1.602-5.811-2.849-8.346-4.873-4.205-3.356-8.082-7.01-9.93-12.284-.199-.57-.43601-1.136-.56201-1.722-.836-3.864-2.54899-7.434-3.71699-11.179-1.316-4.228-2.656-8.502-3.327998-12.858-.6090001-3.949-.4819934-8.033.113007-12.053.473001-3.186 1.018001-6.368.879001-9.617-.039-.9-.00001-1.827.17199-2.709.432-2.203.32999-4.387.20099-6.615-.119-2.088.19099-4.211.42999-6.305.443-3.8999 1.03503-7.7809 1.02903-11.7269-.004-1.906.28499-3.811.36899-5.72.043-.997.01999-2.015-.13901-2.997-.26-1.615-.30701-3.206.02499-4.808.102-.493.20702-.991.24002-1.492.232-3.614.61299-7.229.62299-10.844.012-4.452.51202-8.834 1.07202-13.236.457-3.588.52898-7.224.83398-10.833.518-6.122.951-12.262 3.223-18.074.182-.468.32201-.957.44101-1.445 1.639-6.723 5.678-11.93203 10.486-16.65903 1.039-1.023 2.273-1.587013 3.709-1.885013 2.598-.5410002 5.166-.5869883 7.807-.243988 4 .52 7.99 1.047991 11.893 2.110991 4.475 1.218 8.975 2.41602 13.186 4.36902 5.58 2.587 9.834 6.43302 11.9 12.54702 2.111 6.248 3.617 12.598 4.301 19.13.502 4.804.734 9.637 1.037 14.46.057.897-.119 1.807-.242 3.411zm-5.027 46.6019c-.17.053-.338.106-.506.16.107.104.207.281.324.295.162.018.336-.09.506-.143-.107-.103-.216-.207-.324-.312zm-59.94899-46.5389.207.035-.07401-.191z" fill="#000"/></svg>