<svg fill="none" height="81" viewBox="0 0 184 81" width="184" xmlns="http://www.w3.org/2000/svg"><path d="m106.27 57.509c.947-.345 1.889-.975 2.842-.995 22.098-.461 44.195-.859 66.293-1.254 1.031-.019 2.08.0149 3.096.1739 3.021.472 4.678 2.0721 4.795 4.5101.145 3.049-1.391 5.824-3.943 6.562-2.146.619-4.381 1.0139-6.605 1.2769-7.027.836-14.07 1.56-21.105 2.336-.842.094-1.676.2501-2.67.4001-.553 1.334-.924 2.666-1.617 3.801-1.006 1.65-2.354 2.6109-4.545 2.8589-13.549 1.531-27.102 2.6991-40.76 2.5641-7.199-.07-14.404.37-21.609.412-2.193.013-4.391-.7871-6.588-.7851-15.209.01-30.23-1.975-45.24-4.096-7.162-1.012-14.316-2.1049-21.44695-3.3119-4.31401-.729-6.18201-2.6661-6.49001-6.1831-.262-2.977 1.318-5.0159 4.289-5.3729 1.018-.123 2.06599.021 3.10199.057 7.03097.243 14.06397.4899 21.17797.3209-2.279-.378-4.561-.7349-6.834-1.1399-1.514-.271-3.094-.406-4.506-.957-3.094-1.207-3.744-2.729-3-6.159.635-2.925 1.914-3.921 5.102-3.972 4.816-.076 9.635-.152 14.307-.227.24-.742.533-1.24.422-1.359-3.021-3.221-4.031-7.896-7.752-10.62-1.742-1.276-2.088-3.1911-1.504-5.1221.578-1.906 1.914-3.302 3.971-3.687 1.666-.312 3.363-.458 5.104-.685.482-2.675-.607-4.2289-2.75-5.0789-7.256-2.881-7.996-4.8411-6.875-11.4641-1.051-.94896-2.186-1.97496-3.467-3.13296.041-.899.121-1.92198.129-2.94598.018-1.965 1.186-2.79002 2.947-2.89102 5.162-.295 10.348-.950981 15.488-.703981 11.725.562001 23.416 1.772001 35.139 2.358001 14.322.716 28.662 1.06199 42.994 1.56699 8.799.311 17.602.542 26.395.996 1.812.093 3.854.629 5.311 1.647 2.242 1.566 4.543 2.136 7.186 2.457 2.299.279 4.494 1.41105 7.08 2.28205-.645 3.277-1.195 6.079-1.824 9.288 1.6.214 3.086.463 4.582.595 1.027.091 2.078-.0481 3.107.0359 3.604.295 5.809 1.703 6.051 3.793.367 3.17-1.988 6.0821-5.547 6.8571-4.543.989-4.543.989-5.504 6.343 1.562.071 3.084.0959 4.6.2179 3.324.267 4.838 1.446 5.168 3.94.479 3.614-1.055 6.5341-4.209 7.2861-3.518.84-7.096 1.6349-10.691 1.9159-16.012 1.247-32.039 2.299-48.059 3.436-1.998.143-4.264-.4309-5.537 1.8691-1.479-1.775-3.18-1.301-4.818-.621 1.55.199 3.183.403 4.818.607zm46.273-18.9421c-.01.387-.021.773-.031 1.16 1.592-.099 3.184-.1979 4.775-.2959.004-.127.008-.255.012-.383-1.584-.16-3.17-.3201-4.756-.4811zm10.281.351c-.127-.085-.252-.2329-.381-.2369-.145-.004-.291.125-.438.195.188.145.375.2889.562.4329.085-.13.171-.26.257-.391zm-49.781-18.1679-.086-.284-.357.161z" fill="#000"/></svg>