<svg fill="none" height="139" viewBox="0 0 121 139" width="121" xmlns="http://www.w3.org/2000/svg"><path d="m119.922 68.063c.355 5.612-.084 11.487-2.121 17.172-.238.669-.396 1.427-.35 2.127.189 2.913-1.107 5.279-2.488 7.694-4.029 7.046-8.619 13.729-13.691 20.023-3.246 4.029-7.105 7.601-10.936 11.109-3.297 3.023-6.951 5.652-10.957 7.725-1.025.529-2.016 1.211-3.105 1.516-6.689 1.873-13.34 3.424-20.473 2.283-6.352-1.018-12.445-2.542-18.193-5.398-1.547-.768-3.029-1.676-4.518-2.557-1.49-.883-2.898-1.922-4.443-2.692-1.475-.735-2.617-1.726-3.592-3.034-.771-1.037-1.596-2.131-2.641-2.848-3.16-2.169-5.42-5.157-7.826-8.041-6.91795-8.297-11.16397-17.809-13.11897-28.395-.690999-3.739-.599991-7.475-.15399-11.223.17-1.434.305-2.871.451-4.307.648-6.316 1.084-12.665 2.004-18.941.818-5.583 2.66799-10.943 4.61299-16.245.596-1.625 1.25-3.257 1.586-4.943.93197-4.665 3.18397-8.752 5.98597-12.4 1.889-2.458 4.48-4.574 7.152-6.192 6.566-3.97599 13.518-7.19898 21.117-8.76598.99-.205 1.982-.531 2.979-.548 8.373-.141 16.785-.846007 25.068.90499 2.803.592 5.57 1.57901 8.193 2.74701 5.684 2.533 10.986 5.78198 16.254 9.09098 4.539 2.853 7.809 6.913 10.457 11.386 2.936 4.963 5.348 10.237 8.004 15.368 3.26 6.3 4.391 13.104 4.725 20.084.112 2.31.018 4.628.018 7.3zm-116.56796 9.142c.293 3.699.146 6.953.877 9.996 1.488 6.191 3.71899 12.217 7.28896 17.512 2.975 4.41 6.295 8.662 9.949 12.521 8.119 8.57 17.828 14.395 29.562 17.012 8.551 1.906 16.613 1.023 24.654-1.873 3.012-1.085 5.842-2.516 8.244-4.672 2.896-2.602 5.742-5.258 8.648-7.85 8.207-7.325 13.639-16.732 19.416-25.876.449-.712.998-1.594.941-2.354-.281-3.802 1.568-6.892 3.068-10.119.48-1.031 1.008-2.104 1.164-3.207.402-2.85.727-5.723.873-8.597.285-5.646-.213-11.215-1.367-16.784-.74-3.574-1.67-6.989-3.314-10.243-2.215-4.374-4.303-8.811-6.477-13.206-2.959-5.979-7.283-10.697-13.047-14.093-3.107-1.831-6.117-3.833-9.277-5.56599-4.318-2.367-8.832-4.30599-13.756-5.04999-1.711-.259-3.453-.314-5.166-.569-5.18-.771-10.379-.58-15.562-.229-2.871.194-5.801.45998-8.553 1.23098-6.859 1.923-13.248 5.007-19.059 9.122-3.938 2.789-7.074 6.318-8.648 11.081-1.359 4.108-3.16 8.073-4.44697 12.2-1.416 4.536-2.975 9.049-3.332 13.87-.256 3.448-.88699 6.866-1.23999 10.308-.544 5.306-.995 10.621-1.44 15.435z" fill="#000"/></svg>