<svg fill="none" height="159" viewBox="0 0 122 159" width="122" xmlns="http://www.w3.org/2000/svg"><path d="m43.3108 158.858c-2.689-.375-6.668-.772-10.582-1.517-4.717-.896-9.314-2.233-13.662-4.382-5.758-2.847-10.75601-6.656-14.66001-11.73-3.332-4.333-4.786997-9.346-4.237997-14.864.102-1.031.17199-2.077.11699-3.109-.3300007-6.273.475008-12.438 1.609007-18.586.812-4.398 1.605-8.808 2.178-13.242.377-2.921.38701-5.894.48401-8.846.109-3.353.05899-6.71.21699-10.06.131-2.791.52-5.57.691-8.36.301-4.939.54299-9.882.77099-14.825.133-2.872.06201-5.758.30901-8.618.529-6.175 2.59801-11.823 6.12501-16.938 1.541-2.233 2.953-4.554 4.49-6.789 1.705-2.482 3.908-4.481 6.605-5.795 6.252-3.04198 12.344-6.42497 18.896-8.82997 1.443-.53 2.84-.90001 4.412-.88501 1.662.018 3.359-.19899 4.986-.558991 3.152-.697001 6.039.147981 8.865 1.311981 7.369 3.035 13.662 7.593 18.902 13.60399 1.154 1.324 2.389 2.579 3.568 3.882 3.189 3.518 5.631 7.515 7.855 11.702 5.572 10.487 8.355 21.924 11.5552 33.221 2.311 8.162 4.758 16.256 8.529 23.903 3.447 6.988 5.914 14.311 7.197 22.035.43 2.584 1.533 5.049 2.131 7.613.541 2.323.896 4.699 1.164 7.07.113 1-.156 2.06-.346 3.074-.645 3.467-2.633 5.918-5.738 7.535-5.455 2.842-10.764 5.972-16.5452 8.166-1.789.679-3.516 1.538-5.23 2.396-4.76 2.38-9.844 3.727-14.992 4.946-3.496.828-6.902 2.022-10.385 2.923-4.639 1.2-9.279 2.439-13.979 3.346-3.278.633-6.661.736-11.299 1.207z" fill="#000"/></svg>