<svg fill="none" height="160" viewBox="0 0 260 160" width="260" xmlns="http://www.w3.org/2000/svg"><path d="m259.455 70.69c.094 10.735-1.17 20.786-2.732 30.81-.973 6.239-1.982 12.473-2.93 18.716-.521 3.442-.777 6.936-1.484 10.337-.395 1.902-1.248 3.805-2.289 5.457-1.467 2.324-2.299 4.767-2.568 7.459-.1.991-.176 2-.434 2.955-.924 3.426-3.213 5.502-6.74 5.607-3.979.119-8.006.169-11.947-.298-13.406-1.589-26.85-1.854-40.316-1.487-3.146.086-6.281.607-9.416.977-4.289.505-8.564 1.137-12.859 1.568-4.791.48-9.598 1.07-14.4 1.105-4.303.033-8.611-.592-12.912-.983-2.812-.255-5.648-.431-8.414-.959-5.309-1.014-10.578-.53-15.867-.022-.662.063-1.328.16-1.988.136-10.111-.361-19.7872 2.347-29.5022 4.464-8.512 1.855-17.008 2.965-25.705 2.588-4.836-.209-9.09-1.827-12.689-5.082-3.941-3.565-7.832-7.186-11.803-10.719-1.611-1.433-3.301-2.805-5.084-4.012-3.941-2.667-6.934-6.08-9.277-10.238-4.77-8.451-8.89599-17.114-10.44099-26.807-.104-.655-.26201-1.305-.42801-1.948-1.039-4.021-1.992-8.066-3.152-12.052-1.863-6.412-3.506003-12.857-3.098003-19.604.170003-2.805.576013-5.603 1.027013-8.379.293-1.799.79499-3.574 1.31799-5.325 2.391-7.993 3.75-16.181 4.561-24.46.506-5.174 1.71701-10.113 3.811-14.881 1.654-3.767 4.016-6.77203 7.5-9.05403 8.688-5.686997 17.951-7.239998 28.115-5.069 6.555 1.4 12.744 3.74802 19.01 5.95502 7.984 2.81201 16.119 3.68301 24.547 2.36398 7.873-1.233 15.7812-2.44499 23.7212-3.01999 8.768-.634 17.59-1.032 26.336.805 10.445 2.194 21.018 3.22302 31.707 2.90102 2.99-.09 5.99.065 8.98-.048 12.377-.47303 23.994 2.565 35.406 7.085 6.004 2.377 11.172 5.856 16.016 9.935 4.953 4.169 9.859 8.405 14.619 12.791 1.934 1.781 3.717 3.866 5.062 6.115 2.129 3.558 3.904 7.337 5.697 11.085 1.402 2.937 1.197 6.167 1.271 9.313.033 1.49-.17 2.986-.229 3.919zm-71.143 39.097-.301-.189-.045.308z" fill="#000"/></svg>