<svg fill="none" height="204" viewBox="0 0 51 204" width="51" xmlns="http://www.w3.org/2000/svg"><g fill="#000"><path d="m40.4381.995028c.041.252002.18.568022.121.843022-1.25 5.841-.793 11.71895-.469 17.60395.184 3.369.564 6.702 1.113 10.029.221 1.333-.014 2.734.098 4.094.352 4.297.66 8.603 1.186 12.88.551 4.482 1.346 8.935 2.008 13.403.293 1.977.57 3.958.773 5.945.641 6.277 1.412 12.549 1.797 18.842.236 3.86-.168 7.758-.23 11.64-.025 1.561.082 3.125.156 4.687.1 2.1.217 4.198.34 6.296.205 3.465.438 6.928.627 10.394.176 3.252.305 6.508.467 9.761.188 3.78.223 7.577.623 11.336.672 6.296.703 12.606.764 18.919.059 5.995.049 11.989.699 17.961.115 1.044.148 2.105.105 3.154-.15 3.785-.389 7.566-.516 11.353-.064 1.884.039 3.772.072 5.659.018 1.053.07 2.105.059 3.157-.008.595-.4.953-.955 1.085-.582.137-1.295-.335-1.418-.965-.1-.51-.143-1.039-.141-1.56.008-4.837-.139-9.665.271-14.509.291-3.438-.051-6.934-.158-10.402-.062-1.998-.281-3.992-.32-5.99-.145-7.262-.176-14.525-.387-21.784-.098-3.36-.6-6.708-.758-10.068-.182-3.885-.188-7.778-.273-11.668-.008-.419 0-.842-.047-1.258-.467-4.076-.912-8.147-.992-12.26-.129-6.626-.588-13.244-.383-19.877.191-6.226-.287-12.408-1.199-18.565-.262-1.769-.324-3.565-.564-5.338-.859-6.359-1.842-12.705-2.607-19.076-.514-4.279-.703-8.596-1.107-12.89-.355-3.769-.826-7.525-1.211-11.292-.525-5.124-.82-10.261-.432-15.40795.143-1.887.334-3.79202 1.33-5.47702.317-.538.688-1.114002 1.558-.655002z"/><path d="m26.3357 199.151c-.371-.039-.836.03-1.15-.153-.322-.19-.6449-.6-.7149-.963-.158-.814-.1071-1.667-.2341-2.49-.988-6.479-1.0139-13.01-1.1019-19.537-.1-7.368-.1581-14.736-.3071-22.104-.098-4.838-.498-9.674-.457-14.509.078-8.953-.49-17.886-.625-26.831-.088-5.789-.273-11.586.305-17.359.34-3.389-.3199-6.719-.3769-10.081-.039-2.314-.2751-4.628-.2521-6.939.045-4.319-.406-8.605-.691-12.903-.201-3.039-.5269-6.071-.7849-9.107-.17-1.992-.2791-3.99-.4841-5.979-.547-5.261-.2809-10.524-.0469-15.783.168-3.795.0919-7.555-.3541-11.342-.539-4.593-.7289-9.227-1.0859-13.84198-.113-1.469-.3501-2.93099-.3981-4.39999-.02-.578.26-1.19602.521-1.73902.098-.202.551-.35498.814-.32098.252.032.5041.30797.6891.53097.123.147.1619.39003.1799.59403.27 3.355.523 6.71097.793 10.06597.27 3.354.6291 6.701.8071 10.06.184 3.465.2829 6.939.2639 10.408-.023 4.31-.273 8.618-.285 12.927-.004 1.666.4021 3.33.5681 5.001.166 1.674.2479 3.355.3979 5.031.188 2.09.445 4.174.605 6.265.273 3.564.566 7.129.723 10.7.197 4.509.162 9.03.414 13.536.32 5.685.162 11.344-.268 17.016-.166 2.18.0901 4.391.1501 6.588.215 7.57.4409 15.14.6349 22.71.141 5.47.219 10.941.355 16.411.17 6.83.408 13.659.541 20.49.059 3.151-.174 6.309-.084 9.458.129 4.413.418 8.822.68 13.23.049.834.332 1.651.441 2.485.123.917.359 1.855-.182 2.875z"/><path d="m3.34411 18.314c.209 3.453.41601 6.905.62301 10.358.145 2.411.309 4.822.43 7.235.295 5.882.36698 11.784.91198 17.642.488 5.23.78303 10.472 1.21903 15.703.418 5.021 1.139 10.038.836 15.105-.037.625.004 1.272.129 1.886.861 4.262.67198 8.599.99398 12.898.459 6.085.102 12.188.525 18.271.32 4.623.79901 9.223 1.64799 13.783.289 1.547.453 3.124.564 4.694.455 6.508.9 13.017 1.289 19.529.412 6.941.309 13.904-.205 20.818-.637 8.558-.084 17.022.848 25.501.033.311.072.648-.018.936-.08.266-.287.602-.518.683-.221.077-.674-.049-.793-.235-.332-.51-.717-1.082-.771-1.659-.684-7.115-1.50798-14.24-1.09798-21.396.48198-8.417.55898-16.828.31998-25.248-.049-1.683-.139-3.366-.266-5.044-.27699-3.668-.75997-7.329-.84197-11-.094-4.131-.77302-8.173-1.36502-12.23-.73-5.009-1.12299-10.038-1.20899-15.093-.119-6.839-.20302-13.676-.76602-20.5-.717-8.702-1.36499-17.409-1.95099-26.12-.658-9.759-1.23401-19.522-1.79901-29.286-.189-3.256-.05099-6.541-.39499-9.776-.436-4.108-.24399-8.195-.17999-12.297.033-2.21-.08-4.42402-.785005-6.55902-.131-.396-.17199-.82299-.23999-1.23699-.092-.543-.057026-1.03801.491974-1.35901.490001-.287.979021.01001 1.365021.89001.684 1.556 1.10498 3.17701 1.13098 4.88501.039 2.737.06601 5.474.10001 8.21-.074.005-.148.009-.224.012z"/></g></svg>