<svg fill="none" height="87" viewBox="0 0 110 87" width="110" xmlns="http://www.w3.org/2000/svg"><path d="m18.0448.875c1.047.247 2.467.50001 3.834.92001 3.766 1.154 7.297 2.84598 10.705 4.80298.484.279.945.61101 1.453.84101 2.057.931 3.871 2.228 5.672 3.569 1.666 1.241 3.404 2.385 5.115 3.566 1.643 1.134 3.312 2.231 4.932 3.397 5.197 3.743 10.596 7.133 16.342 9.997 4.504 2.245 8.982 4.564 13.137 7.448 2.217 1.538 4.074 3.341 5.121 5.88.184.443.438.855.629 1.295 1.441 3.3 3.725 5.858 6.486 8.175 2.488 2.09 4.986 4.197 7.107 6.752 2.0352 2.453 4.1722 4.832 6.2032 7.3 2.232 2.714 3.555 5.866 4.58 9.157.783 2.511.32 4.887-1.146 7.068-.49.73-.963 1.471-1.439 2.211-.258.404-.49.826-.758 1.223-1.107 1.65-2.662 2.227-4.578 1.816-.779-.168-1.5452-.411-2.3012-.67-4.355-1.493-8.26-3.81-11.863-6.637-3.527-2.77-7.219-5.298-11.021-7.662-3.393-2.109-6.816-4.169-10.227-6.25-.137-.083-.2661-.18-.41-.248-3.758-1.773-7.48-3.631-11.441-4.93-2.209-.725-4.307-1.655-6.381-2.723-3.195-1.644-6.258-3.538-9.582-4.953-1.971-.838-3.74-2.143-5.625-3.19-1.604-.892-3.273-1.667-4.861-2.585-2.281-1.316-4.635-2.554-6.744-4.114-4.305-3.184-8.514-6.513-12.10203-10.528-1.76-1.97-3.10899-4.246-4.55699-6.448-2.223-3.384-2.908-7.222-3.377001-11.126-.066-.539.062001-1.113.168001-1.658.152-.784.389-1.552.549-2.336.854-4.20901 3.67802-6.623 7.49202-8.002 1.406-.509 2.957-.64001 4.455-.86801 1.339-.202 2.697-.30199 4.433-.48999zm-1.836 2.01599c-2.42-.262-4.752.24802-7.04501 1.01102-1.795.598-3.22301 1.64999-4.35001 3.20999-2.398 3.319-2.521 7.055-1.838 10.804.605 3.327 2.12701 6.431 4.15401 9.101 2.88701 3.806 5.89801 7.569 9.97101 10.264.396.262.699.658 1.08.947 2.412 1.833 4.635 3.924 7.361 5.327 2.557 1.315 5.135 2.598 7.611 4.052 2.896 1.702 5.846 3.282 8.9 4.679 1.016.463 1.957 1.083 2.939 1.618 2.033 1.108 4.062 2.228 6.115 3.3.561.294 1.199.441 1.801.656 2.027.725 4.104 1.339 6.07 2.202 2.777 1.218 5.473 2.616 8.199 3.946.285.14.535.348.805.52 2.354 1.501 4.707 3.004 7.064 4.502 4.588 2.917 9.17 5.865 13.361 9.322 3.654 3.016 7.879 4.82 12.1602 6.6 1.152.479 2.217.271 3.121-.545.77-.694 1.506-1.436 2.188-2.217 1.314-1.506 1.934-3.277 1.918-5.287-.023-2.969-1.049-5.672-2.447-8.184-1-1.798-2.383-3.397-3.693-5.005-1.6642-2.04-3.4222-4.005-5.1542-5.989-.418-.479-.859-.95-1.35-1.352-2.037-1.673-4.135-3.273-6.139-4.984-2.443-2.086-4.727-4.32-5.82-7.478-.234-.675-.643-1.287-.934-1.944-.9-2.028-2.354-3.578-4.072-4.944-3.65-2.905-7.77-5.036-11.834-7.259-3.785-2.07-7.641-4.017-11.199-6.48-2.168-1.5-4.385-2.925-6.582-4.38-2.26-1.498-4.529-2.979-6.779-4.489-3.51-2.354-6.756-5.12299-10.715-6.76299-.072-.03-.139-.07901-.209-.11801-2.496-1.446-5.15-2.541-7.836-3.577-2.191-.849-4.437-1.33001-6.822-1.06601z" fill="#000"/></svg>