<svg fill="none" height="166" viewBox="0 0 183 166" width="183" xmlns="http://www.w3.org/2000/svg"><path d="m2.34805 65.6701c1.68-2.68 3.221-5.4591 5.068-8.0181 3.40395-4.713 7.31795-9.016 11.21095-13.33 3.184-3.528 6.273-7.141 9.453-10.672 2.539-2.819 4.799-5.929 7.988-8.096 2.967-2.015 5.998-3.934 8.971-5.938 1.4-.942 2.773-1.934 4.084-2.992 2.402-1.937 4.912-3.652 7.873-4.642.791-.265 1.5411-.697 2.2601-1.135 4.055-2.47898 8.0719-5.02097 12.1519-7.45997 1.625-.972 3.3281-1.84999 5.0801-2.562985 2.01-.81800014 4.1269-.8469918 6.2129-.153992 2.104.698997 4.211 1.383997 6.293 2.141997 1.223.445 2.432.744 3.707.345 1.527-.478 2.8961-.00801 4.2911.57099 2.471 1.028 4.4919 2.75899 6.6989 4.19799.883.576 1.662 1.32 2.566 1.853 1.172.68997 2.367 1.41797 3.648 1.82497 3.045.966 5.846 2.341 8.561 4.03 5.92 3.681 12.016 7.0561 18.656 9.3121 3.893 1.322 7.846 2.4789 11.68 3.9509 4.234 1.625 8.422 3.392 12.207 5.969 1.568 1.068 3.186 2.062 4.793 3.071 5.637 3.536 9.451 8.704 12.566 14.398 1.732 3.165 2.258 6.792 3.035 10.298.859 3.869.713 7.783.465 11.678-.281 4.422-.773 8.831-1.203 13.243-.203 2.064-1.131 3.783-2.473 5.373-3 3.557-5.742 7.291-7.678 11.577-.965 2.138-1.582 4.359-2.182 6.605-.818 3.059-1.701 6.091-2.98 9.008-2.143 4.877-5.137 9.185-8.467 13.294-.387.479-.697 1.061-.889 1.646-.957 2.936-2.58 5.521-4.021 8.223-2.625 4.92-6.338 8.944-9.887 13.125-.477.562-.965 1.143-1.549 1.58-3.637 2.719-7.285 5.4-11.676 6.875-2.057.692-4.111 1.031-6.229.674-2.287-.385-4.668-.635-6.791-1.486-2.316-.931-4.408-2.443-6.549-3.781-1.521-.951-2.908-2.118-4.443-3.041-3.434-2.064-6.928-4.028-10.387-6.049-1.094-.638-2.1639-1.314-3.2339-1.99-.445-.283-.828-.678-1.297-.906-4.656-2.273-8.9101-5.248-13.4431-7.713-4.629-2.517-9.387-4.863-14.602-6.03-.514-.115-1.051-.2-1.527-.412-6.029-2.673-12.549-3.687-18.814-5.558-3.748-1.119-7.475-2.238-11-3.988-3.594-1.785-7.2599-3.432-10.9079-5.105-3.236-1.484-5.8651-3.698-8.1351-6.418-2.24996-2.699-4.18196-5.565-5.43596-8.869-1.244-3.275-2.14499-6.619-2.36499-10.131-.066-1.053-.16601-2.111-.36501-3.145-.996-5.184-1.803-10.387-2.411998-15.636-.395-3.404.080008-6.5029 1.422008-9.6059zm55.54295 64.6189c-.051-.061-.1-.121-.15-.182-.059.051-.1599.096-.1659.15-.004.055.0819.159.1389.165.052.007.116-.084.177-.133zm53.834 30.091c-.047-.058-.09-.153-.143-.16-.051-.007-.113.082-.17.129.047.057.09.153.143.158s.113-.081.17-.127zm29.806-75.0849.039.2059.166-.132z" fill="#000"/></svg>