<svg fill="none" height="147" viewBox="0 0 112 147" width="112" xmlns="http://www.w3.org/2000/svg"><g fill="#000"><path d="m105.918 145.582c-3.361 1.759-6.1988 1.553-8.6428-.701-1.479.227-2.77.628-4.043.575-2.441-.101-3.686-1.321-3.848-3.69-.154-2.25-.166-4.516-.119-6.771.078-3.722.256-7.441.381-11.163.027-.79.004-1.581.004-2.328-1.33-1.263-2.605-2.388-3.77-3.617-.52-.551-1.062-1.278-1.168-1.988-.352-2.349-.689-4.724-.711-7.091-.109-11.832.01-23.667-.197-35.496-.203-11.571-1.23-23.082-3.711-34.417-.623-2.853-1.463-5.657-2.152-8.495-.18-.743-.172-1.532-.242-2.225 3.688-2.07 4.217-1.638 7.576.354 2.553 1.515 3.744 3.594 4.682 6.047.611 1.598 1.605 2.669 3.076 3.48 2.543 1.404 4.984 2.996 7.5568 4.345.898.472 1.535.977 1.846 1.911 1.135 3.4 2.297 6.792 3.389 10.206.758 2.374.596 4.989 2.186 7.181.529.729.186 2.05.373 3.076.357 1.956.965 3.877 1.191 5.844.639 5.527 1.229 11.052 1.549 16.624.465 8.088.674 16.173.789 24.266.031 2.254-.037 4.52-.23 6.766-.488 5.683-1.062 11.358-1.631 17.033-.064.652-.125 1.459-.518 1.898-2.126 2.382-2.438 5.53-3.616 8.376z"/><path d="m22.084 124.248c-1.217 1.384-.994 2.914-1.238 4.332-.605 3.494-4.75 5.142-7.68 3.111-1.061-.734-1.672-1.683-1.775-2.949-.053-.661-.061-1.329-.041-1.992.234-7.959.543-15.917.688-23.877.053-2.891.029-5.768-1.064-8.616-.791-2.059-.953-4.412-1.105-6.654-.344-5.037-.51397-10.086-.74197-15.131-.328-7.299-.66002-14.599-.95502-21.899-.07-1.77-.48999-3.435-1.36099-4.947-1.258-2.184-2.615-4.309-3.938-6.453-.9-1.457-1.81401-2.904-2.686008-4.297 1.321998-3.627 4.063988-2.423 6.642988-2.231.098-.831.28901-1.583.25601-2.325-.162-3.583-.322-7.169-.604-10.744-.334-4.228-.78899-8.445-1.19299-12.66801-.064-.66-.217-1.32001-.207-1.97901.02-1.286-.49201-2.95198.98599-3.58798 1.779-.766998 3.80702-1.4199874 5.53299.28601.99.978 2.189 1.324 3.486 1.724 3.377 1.042 6.26 2.81799 7.326 6.51499.695 2.41 1.324 4.841 1.982 7.263.242.895.342 1.858.742 2.677 1.566 3.205 1.568 6.61 1.525 10.054-.098 7.562.277 15.105 1.096 22.626.057.522.188 1.131-.006 1.571-1.447 3.275-.48 6.738-.814 10.097-.275 2.749-.229 5.521.24 8.317.34 2.027.361 4.189-.305 6.309-.379 1.212-.219 2.632-.133 3.948.459 7.022.934 14.045 1.477 21.062.4 5.169.078 10.338.145 15.506.039 2.971-1.07 4.194-4.139 4.732-.385.068-.797-.026-1.191 0-.261.014-.514.115-.948.22z"/><path d="m57.553 126.904c-.922.327-1.785.65-2.658.94-2.744.911-4.75-.471-5.836-2.745-.449-.94-.629-2.01-.963-3.128-.814-.136-1.594-.232-2.359-.398-2.422-.526-3.771-2.003-3.641-4.438.164-3.046.613-6.076.908-9.117.729-7.53 1.447-15.061 2.154-22.593.223-2.374.502-4.749.576-7.13.369-11.725-1.143-23.327-2.328-34.952-.797-7.796-1.494-15.603-2.334-23.394-.312-2.894-.924-5.755-1.363-8.637-.275-1.81603-.775-3.64103-.068-5.57403 2.203-1.073 4.273-1.06201 6.271.55099.922.745 1.938 1.37501 3.039 2.14701.758 2.23803 1.074 4.82503 3.01 6.65703 1.166 3.8 2.439 7.571 3.459 11.41.641 2.413.9 4.928 1.322 7.354 1.117.647 1.381-.511 1.973-.862 1.738-1.035 3.354-1.388 5.129-.006.924.718 2.086 1.131 3.234 1.73 0 2.556.078 5.174-.018 7.785-.166 4.507-.445 9.01-.666 13.514-.248 5.035-.229 10.1-.785 15.1-1.07 9.61-1.664 19.251-2.168 28.895-.34 6.505-.82 12.985-1.574 19.451-.158 1.357-.312 2.574-1.932 3.118-.631.211-1.16 1.037-1.506 1.702-.417.8-.591 1.727-.876 2.62z"/></g></svg>