<svg fill="none" height="201" viewBox="0 0 134 201" width="134" xmlns="http://www.w3.org/2000/svg"><path d="m19.0311.187012c7.83.621 15.662 1.238978 23.492 1.862978 7.209.574 14.416 1.17503 21.627 1.72803 10.074.772 20.131 1.56298 30.008 3.71698 7.4489 1.625 14.5229 4.036 21.2499 7.298 3.633 1.762 6.316 4.382 7.99 7.782 3.502 7.115 6.213 14.476 7.879 22.109.646 2.957.848 6.006 1.049 9.023.33 4.921.494 9.85.729 14.776.021.448.115.904.064 1.346-1.197 10.339.885 20.616.717 30.935-.098 6.066-.26 12.134-.283 18.201-.014 3.369.324 6.739.281 10.106-.049 3.701-.365 7.399-.545 11.099-.066 1.347-.201 2.705-.086 4.042 1.07 12.454-.98 24.63-3.988 36.72-1.643 6.604-5.529 12.025-11.279 16.293-1.467 1.089-3.49 1.85-5.379 2.154-6.166.995-12.371 1.246-18.6429.463-6.92-.865-13.891-1.391-20.834-2.111-8.699-.904-17.254-2.465-25.68-4.615-10.023-2.558-19.594-6.099-28.543-10.885-7.244-3.876-11.17804-9.713-11.92804-17.33-.475-4.8-1.336-9.568-1.828-14.367-.297-2.894-.146-5.823-.342-8.729-.096-1.437-.56599-2.85-.77099-4.285-.123-.857-.20101-1.757-.05101-2.601.436-2.452.756-4.877.225-7.364-.234-1.089-.07601-2.242-.13701-3.364-.457-8.521-.91399-17.042-1.39499-25.562-.254-4.484-.523-8.969-.852-13.45-.236-3.246-.72301-6.482-.850007-9.731-.295-7.633-.536989-15.27-.616989-22.906-.051-4.827.336001-9.656.332001-14.484-.004-5.053-.414005-10.108-.324005-15.158.088-4.835.783-9.629 2.561-14.25199 2.414-6.278 5.311-8.180025 12.75404-8.232025 1.125-.009 2.25-.001984 3.375-.001984.007-.077.014-.151989.022-.226989zm-16.46705 47.101988h.05101c0 7.422-.006 14.843.006 22.264.002 1.123-.023 2.262.16 3.366 2.203 13.245 2.18199 26.646 3.40999 39.96.887 9.613.84401 19.308.89101 28.967.037 7.565.961 15.019 2.209 22.473 1.26004 7.523 5.59604 13.241 12.76804 16.992 4.73 2.474 9.812 4.467 14.898 6.318 10.012 3.645 20.535 5.658 31.16 7.189 4.055.585 8.197.662 12.279 1.126 9.396 1.067 18.723 2.61 28.3009 1.608 4.619-.483 8.258-1.955 11.283-5.185 4-4.272 6.268-9.218 7.414-14.554 2.111-9.827 3.459-19.749 3.389-29.791-.031-4.497.123-8.998-.002-13.492-.438-15.834.719-31.679-.945-47.515-.82-7.8-.514-15.7-.59-23.556-.025-2.574.441-5.149.52-7.729.064-2.123.107-4.28-.223-6.374-1.236-7.829-3.912-15.291-7.068-22.663-2.094-4.887-5.438-8.448-10.617-10.791-10.988-4.97-22.6909-7.526-34.8539-8.591-7.328-.641-14.66-1.23702-21.994-1.83902-6.711-.552-13.422-1.10299-20.135-1.61599-4.229-.324-8.461-.66299-12.697-.83499-2.846-.115-5.707-.003-8.557.104-3.80104.145-6.22104 2.14601-7.75004 5.07501-.736 1.412-1.42401 2.92699-1.65601 4.45399-.68 4.444-1.418 8.909-1.58 13.382-.26 7.079-.071 14.169-.071 21.253z" fill="#000"/></svg>