<svg viewBox="0 0 855 653" fill="none"
    xmlns="http://www.w3.org/2000/svg">
    <path fill-rule="evenodd" clip-rule="evenodd" d="M638.762 81.215C633.031 81.215 627.327 81.335 621.652 81.563C514.779 85.703 506.677 78.89 449.587 43.108C407.367 15.836 357.072 0 303.077 0C177.84 0 72.502 85.158 41.724 200.742C22.434 267.722 -8.99996 299.5 3.50002 328.5C16 357.5 15.9999 407 104 435.5C290.5 454.5 235 416.5 303.077 499.5C344.907 550.5 390.947 557.131 415 550.5C496.736 529.626 489.28 573.198 597 636.5C660.52 675.434 675.5 636.5 753.5 593.5C824 490 854 572.573 854 341.5C854 110.428 869.749 81.215 638.762 81.215Z" fill="#3C3C3C" fill-opacity="0.43"/>
    <svg class="stars starInner--animated css-bclhwr">
        <svg class="star star--gatsby" x="12%" y="58%">
            <g class="starContent css-vcsoa9" transform="scale(0.4)">
                <g class="starInner">
                    <path fill="#fd2d5575" fill-rule="evenodd" class="starBackground css-1rxdz5j" d="M13.136,5.728 C11.5573333,5.728 10.272,4.44266667 10.272,2.864 C10.272,1.29066667 9.248,0 8,0 C6.752,0 5.728,1.29066667 5.728,2.864 C5.728,4.44266667 4.44266667,5.728 2.864,5.728 C1.29066667,5.728 0,6.752 0,8 C0,9.248 1.29066667,10.272 2.864,10.272 C4.44266667,10.272 5.728,11.5573333 5.728,13.136 C5.728,14.7093333 6.752,16 8,16 C9.248,16 10.272,14.7093333 10.272,13.136 C10.272,11.5573333 11.5573333,10.272 13.136,10.272 C14.7093333,10.272 16,9.248 16,8 C16,6.752 14.7093333,5.728 13.136,5.728 Z"></path>
                </g>
            </g>
        </svg>
        <svg class="star star--gatsby" x="30%" y="70%">
            <g class="starContent css-vcsoa9" transform="scale(0.25)">
                <g class="starInner">
                    <path fill="#fd2d5575" fill-rule="evenodd" class="starBackground css-1rxdz5j" d="M13.136,5.728 C11.5573333,5.728 10.272,4.44266667 10.272,2.864 C10.272,1.29066667 9.248,0 8,0 C6.752,0 5.728,1.29066667 5.728,2.864 C5.728,4.44266667 4.44266667,5.728 2.864,5.728 C1.29066667,5.728 0,6.752 0,8 C0,9.248 1.29066667,10.272 2.864,10.272 C4.44266667,10.272 5.728,11.5573333 5.728,13.136 C5.728,14.7093333 6.752,16 8,16 C9.248,16 10.272,14.7093333 10.272,13.136 C10.272,11.5573333 11.5573333,10.272 13.136,10.272 C14.7093333,10.272 16,9.248 16,8 C16,6.752 14.7093333,5.728 13.136,5.728 Z"></path>
                </g>
            </g>
        </svg>
        <svg class="star star--bright" x="65%" y="52%">
            <g class="starContent css-vcsoa9" transform="scale(0.35)">
                <g class="starInner">
                    <path fill="#fd2d5575" fill-rule="evenodd" class="starBackground css-1rxdz5j" d="M13.136,5.728 C11.5573333,5.728 10.272,4.44266667 10.272,2.864 C10.272,1.29066667 9.248,0 8,0 C6.752,0 5.728,1.29066667 5.728,2.864 C5.728,4.44266667 4.44266667,5.728 2.864,5.728 C1.29066667,5.728 0,6.752 0,8 C0,9.248 1.29066667,10.272 2.864,10.272 C4.44266667,10.272 5.728,11.5573333 5.728,13.136 C5.728,14.7093333 6.752,16 8,16 C9.248,16 10.272,14.7093333 10.272,13.136 C10.272,11.5573333 11.5573333,10.272 13.136,10.272 C14.7093333,10.272 16,9.248 16,8 C16,6.752 14.7093333,5.728 13.136,5.728 Z"></path>
                </g>
            </g>
        </svg>
        <svg class="star star--accent" x="25%" y="35%">
            <g class="starContent css-vcsoa9" transform="scale(0.25)">
                <g class="starInner">
                    <path fill="#fd2d5575" fill-rule="evenodd" class="starBackground css-1rxdz5j" d="M13.136,5.728 C11.5573333,5.728 10.272,4.44266667 10.272,2.864 C10.272,1.29066667 9.248,0 8,0 C6.752,0 5.728,1.29066667 5.728,2.864 C5.728,4.44266667 4.44266667,5.728 2.864,5.728 C1.29066667,5.728 0,6.752 0,8 C0,9.248 1.29066667,10.272 2.864,10.272 C4.44266667,10.272 5.728,11.5573333 5.728,13.136 C5.728,14.7093333 6.752,16 8,16 C9.248,16 10.272,14.7093333 10.272,13.136 C10.272,11.5573333 11.5573333,10.272 13.136,10.272 C14.7093333,10.272 16,9.248 16,8 C16,6.752 14.7093333,5.728 13.136,5.728 Z"></path>
                </g>
            </g>
        </svg>
        <svg class="star star--bright" x="38%" y="52%">
            <g class="starContent css-vcsoa9" transform="scale(0.3)">
                <g class="starInner">
                    <path fill="#fd2d5575" fill-rule="evenodd" class="starBackground css-1rxdz5j" d="M13.136,5.728 C11.5573333,5.728 10.272,4.44266667 10.272,2.864 C10.272,1.29066667 9.248,0 8,0 C6.752,0 5.728,1.29066667 5.728,2.864 C5.728,4.44266667 4.44266667,5.728 2.864,5.728 C1.29066667,5.728 0,6.752 0,8 C0,9.248 1.29066667,10.272 2.864,10.272 C4.44266667,10.272 5.728,11.5573333 5.728,13.136 C5.728,14.7093333 6.752,16 8,16 C9.248,16 10.272,14.7093333 10.272,13.136 C10.272,11.5573333 11.5573333,10.272 13.136,10.272 C14.7093333,10.272 16,9.248 16,8 C16,6.752 14.7093333,5.728 13.136,5.728 Z"></path>
                </g>
            </g>
        </svg>
        <svg class="star star--bright" x="60%" y="50%">
            <g class="starContent css-vcsoa9" transform="scale(0.4)">
                <g class="starInner">
                    <path fill="#fd2d5575" fill-rule="evenodd" class="starBackground css-1rxdz5j" d="M13.136,5.728 C11.5573333,5.728 10.272,4.44266667 10.272,2.864 C10.272,1.29066667 9.248,0 8,0 C6.752,0 5.728,1.29066667 5.728,2.864 C5.728,4.44266667 4.44266667,5.728 2.864,5.728 C1.29066667,5.728 0,6.752 0,8 C0,9.248 1.29066667,10.272 2.864,10.272 C4.44266667,10.272 5.728,11.5573333 5.728,13.136 C5.728,14.7093333 6.752,16 8,16 C9.248,16 10.272,14.7093333 10.272,13.136 C10.272,11.5573333 11.5573333,10.272 13.136,10.272 C14.7093333,10.272 16,9.248 16,8 C16,6.752 14.7093333,5.728 13.136,5.728 Z"></path>
                </g>
            </g>
        </svg>
        <svg class="star star--accent" x="20%" y="30%">
            <g class="starContent css-vcsoa9" transform="scale(0.25)">
                <g class="starInner">
                    <path fill="#fd2d5575" fill-rule="evenodd" class="starBackground css-1rxdz5j" d="M13.136,5.728 C11.5573333,5.728 10.272,4.44266667 10.272,2.864 C10.272,1.29066667 9.248,0 8,0 C6.752,0 5.728,1.29066667 5.728,2.864 C5.728,4.44266667 4.44266667,5.728 2.864,5.728 C1.29066667,5.728 0,6.752 0,8 C0,9.248 1.29066667,10.272 2.864,10.272 C4.44266667,10.272 5.728,11.5573333 5.728,13.136 C5.728,14.7093333 6.752,16 8,16 C9.248,16 10.272,14.7093333 10.272,13.136 C10.272,11.5573333 11.5573333,10.272 13.136,10.272 C14.7093333,10.272 16,9.248 16,8 C16,6.752 14.7093333,5.728 13.136,5.728 Z"></path>
                </g>
            </g>
        </svg>
        <svg class="star star--gatsby" x="85%" y="20%">
            <g class="starContent css-vcsoa9" transform="scale(0.25)">
                <g class="starInner">
                    <path fill="#fd2d5575" fill-rule="evenodd" class="starBackground css-1rxdz5j" d="M13.136,5.728 C11.5573333,5.728 10.272,4.44266667 10.272,2.864 C10.272,1.29066667 9.248,0 8,0 C6.752,0 5.728,1.29066667 5.728,2.864 C5.728,4.44266667 4.44266667,5.728 2.864,5.728 C1.29066667,5.728 0,6.752 0,8 C0,9.248 1.29066667,10.272 2.864,10.272 C4.44266667,10.272 5.728,11.5573333 5.728,13.136 C5.728,14.7093333 6.752,16 8,16 C9.248,16 10.272,14.7093333 10.272,13.136 C10.272,11.5573333 11.5573333,10.272 13.136,10.272 C14.7093333,10.272 16,9.248 16,8 C16,6.752 14.7093333,5.728 13.136,5.728 Z"></path>
                </g>
            </g>
        </svg>
        <svg class="star star--bright" x="70%" y="20%">
            <g class="starContent css-vcsoa9" transform="scale(0.35)">
                <g class="starInner">
                    <path fill="#fd2d5575" fill-rule="evenodd" class="starBackground css-1rxdz5j" d="M13.136,5.728 C11.5573333,5.728 10.272,4.44266667 10.272,2.864 C10.272,1.29066667 9.248,0 8,0 C6.752,0 5.728,1.29066667 5.728,2.864 C5.728,4.44266667 4.44266667,5.728 2.864,5.728 C1.29066667,5.728 0,6.752 0,8 C0,9.248 1.29066667,10.272 2.864,10.272 C4.44266667,10.272 5.728,11.5573333 5.728,13.136 C5.728,14.7093333 6.752,16 8,16 C9.248,16 10.272,14.7093333 10.272,13.136 C10.272,11.5573333 11.5573333,10.272 13.136,10.272 C14.7093333,10.272 16,9.248 16,8 C16,6.752 14.7093333,5.728 13.136,5.728 Z"></path>
                </g>
            </g>
        </svg>
        <svg class="star star--accent" x="90%" y="10%">
            <g class="starContent css-vcsoa9" transform="scale(0.35)">
                <g class="starInner">
                    <path fill="#fd2d5575" fill-rule="evenodd" class="starBackground css-1rxdz5j" d="M13.136,5.728 C11.5573333,5.728 10.272,4.44266667 10.272,2.864 C10.272,1.29066667 9.248,0 8,0 C6.752,0 5.728,1.29066667 5.728,2.864 C5.728,4.44266667 4.44266667,5.728 2.864,5.728 C1.29066667,5.728 0,6.752 0,8 C0,9.248 1.29066667,10.272 2.864,10.272 C4.44266667,10.272 5.728,11.5573333 5.728,13.136 C5.728,14.7093333 6.752,16 8,16 C9.248,16 10.272,14.7093333 10.272,13.136 C10.272,11.5573333 11.5573333,10.272 13.136,10.272 C14.7093333,10.272 16,9.248 16,8 C16,6.752 14.7093333,5.728 13.136,5.728 Z"></path>
                </g>
            </g>
        </svg>
        <svg class="star star--bright" x="15%" y="10%">
            <g class="starContent css-vcsoa9" transform="scale(0.25)">
                <g class="starInner">
                    <path fill="#fd2d5575" fill-rule="evenodd" class="starBackground css-1rxdz5j" d="M13.136,5.728 C11.5573333,5.728 10.272,4.44266667 10.272,2.864 C10.272,1.29066667 9.248,0 8,0 C6.752,0 5.728,1.29066667 5.728,2.864 C5.728,4.44266667 4.44266667,5.728 2.864,5.728 C1.29066667,5.728 0,6.752 0,8 C0,9.248 1.29066667,10.272 2.864,10.272 C4.44266667,10.272 5.728,11.5573333 5.728,13.136 C5.728,14.7093333 6.752,16 8,16 C9.248,16 10.272,14.7093333 10.272,13.136 C10.272,11.5573333 11.5573333,10.272 13.136,10.272 C14.7093333,10.272 16,9.248 16,8 C16,6.752 14.7093333,5.728 13.136,5.728 Z"></path>
                </g>
            </g>
        </svg>
        <svg class="star star--accent" x="21%" y="36%">
            <g class="starContent css-vcsoa9" transform="scale(0.3)">
                <g class="starInner">
                    <path fill="#fd2d5575" fill-rule="evenodd" class="starBackground css-1rxdz5j" d="M13.136,5.728 C11.5573333,5.728 10.272,4.44266667 10.272,2.864 C10.272,1.29066667 9.248,0 8,0 C6.752,0 5.728,1.29066667 5.728,2.864 C5.728,4.44266667 4.44266667,5.728 2.864,5.728 C1.29066667,5.728 0,6.752 0,8 C0,9.248 1.29066667,10.272 2.864,10.272 C4.44266667,10.272 5.728,11.5573333 5.728,13.136 C5.728,14.7093333 6.752,16 8,16 C9.248,16 10.272,14.7093333 10.272,13.136 C10.272,11.5573333 11.5573333,10.272 13.136,10.272 C14.7093333,10.272 16,9.248 16,8 C16,6.752 14.7093333,5.728 13.136,5.728 Z"></path>
                </g>
            </g>
        </svg>
        <svg class="star star--bright" x="28%" y="5%">
            <g class="starContent css-vcsoa9" transform="scale(0.2)">
                <g class="starInner">
                    <path fill="#fd2d5575" fill-rule="evenodd" class="starBackground css-1rxdz5j" d="M13.136,5.728 C11.5573333,5.728 10.272,4.44266667 10.272,2.864 C10.272,1.29066667 9.248,0 8,0 C6.752,0 5.728,1.29066667 5.728,2.864 C5.728,4.44266667 4.44266667,5.728 2.864,5.728 C1.29066667,5.728 0,6.752 0,8 C0,9.248 1.29066667,10.272 2.864,10.272 C4.44266667,10.272 5.728,11.5573333 5.728,13.136 C5.728,14.7093333 6.752,16 8,16 C9.248,16 10.272,14.7093333 10.272,13.136 C10.272,11.5573333 11.5573333,10.272 13.136,10.272 C14.7093333,10.272 16,9.248 16,8 C16,6.752 14.7093333,5.728 13.136,5.728 Z"></path>
                </g>
            </g>
        </svg>
        <svg class="star star--accent" x="40%" y="7%">
            <g class="starContent css-vcsoa9" transform="scale(0.25)">
                <g class="starInner">
                    <path fill="#fd2d5575" fill-rule="evenodd" class="starBackground css-1rxdz5j" d="M13.136,5.728 C11.5573333,5.728 10.272,4.44266667 10.272,2.864 C10.272,1.29066667 9.248,0 8,0 C6.752,0 5.728,1.29066667 5.728,2.864 C5.728,4.44266667 4.44266667,5.728 2.864,5.728 C1.29066667,5.728 0,6.752 0,8 C0,9.248 1.29066667,10.272 2.864,10.272 C4.44266667,10.272 5.728,11.5573333 5.728,13.136 C5.728,14.7093333 6.752,16 8,16 C9.248,16 10.272,14.7093333 10.272,13.136 C10.272,11.5573333 11.5573333,10.272 13.136,10.272 C14.7093333,10.272 16,9.248 16,8 C16,6.752 14.7093333,5.728 13.136,5.728 Z"></path>
                </g>
            </g>
        </svg>
        <svg class="star star--bright" x="35%" y="10%">
            <g class="starContent css-vcsoa9" transform="scale(0.35)">
                <g class="starInner">
                    <path fill="#fd2d5575" fill-rule="evenodd" class="starBackground css-1rxdz5j" d="M13.136,5.728 C11.5573333,5.728 10.272,4.44266667 10.272,2.864 C10.272,1.29066667 9.248,0 8,0 C6.752,0 5.728,1.29066667 5.728,2.864 C5.728,4.44266667 4.44266667,5.728 2.864,5.728 C1.29066667,5.728 0,6.752 0,8 C0,9.248 1.29066667,10.272 2.864,10.272 C4.44266667,10.272 5.728,11.5573333 5.728,13.136 C5.728,14.7093333 6.752,16 8,16 C9.248,16 10.272,14.7093333 10.272,13.136 C10.272,11.5573333 11.5573333,10.272 13.136,10.272 C14.7093333,10.272 16,9.248 16,8 C16,6.752 14.7093333,5.728 13.136,5.728 Z"></path>
                </g>
            </g>
        </svg>
        <svg class="star star--gatsby" x="87%" y="13%">
            <g class="starContent css-vcsoa9" transform="scale(0.3)">
                <g class="starInner">
                    <path fill="#fd2d5575" fill-rule="evenodd" class="starBackground css-1rxdz5j" d="M13.136,5.728 C11.5573333,5.728 10.272,4.44266667 10.272,2.864 C10.272,1.29066667 9.248,0 8,0 C6.752,0 5.728,1.29066667 5.728,2.864 C5.728,4.44266667 4.44266667,5.728 2.864,5.728 C1.29066667,5.728 0,6.752 0,8 C0,9.248 1.29066667,10.272 2.864,10.272 C4.44266667,10.272 5.728,11.5573333 5.728,13.136 C5.728,14.7093333 6.752,16 8,16 C9.248,16 10.272,14.7093333 10.272,13.136 C10.272,11.5573333 11.5573333,10.272 13.136,10.272 C14.7093333,10.272 16,9.248 16,8 C16,6.752 14.7093333,5.728 13.136,5.728 Z"></path>
                </g>
            </g>
        </svg>
        <svg class="star star--bright" x="25%" y="8%">
            <g class="starContent css-vcsoa9" transform="scale(0.25)">
                <g class="starInner">
                    <path fill="#fd2d5575" fill-rule="evenodd" class="starBackground css-1rxdz5j" d="M13.136,5.728 C11.5573333,5.728 10.272,4.44266667 10.272,2.864 C10.272,1.29066667 9.248,0 8,0 C6.752,0 5.728,1.29066667 5.728,2.864 C5.728,4.44266667 4.44266667,5.728 2.864,5.728 C1.29066667,5.728 0,6.752 0,8 C0,9.248 1.29066667,10.272 2.864,10.272 C4.44266667,10.272 5.728,11.5573333 5.728,13.136 C5.728,14.7093333 6.752,16 8,16 C9.248,16 10.272,14.7093333 10.272,13.136 C10.272,11.5573333 11.5573333,10.272 13.136,10.272 C14.7093333,10.272 16,9.248 16,8 C16,6.752 14.7093333,5.728 13.136,5.728 Z"></path>
                </g>
            </g>
        </svg>
        <svg class="star star--accent" x="41%" y="12%">
            <g class="starContent css-vcsoa9" transform="scale(0.35)">
                <g class="starInner">
                    <path fill="#fd2d5575" fill-rule="evenodd" class="starBackground css-1rxdz5j" d="M13.136,5.728 C11.5573333,5.728 10.272,4.44266667 10.272,2.864 C10.272,1.29066667 9.248,0 8,0 C6.752,0 5.728,1.29066667 5.728,2.864 C5.728,4.44266667 4.44266667,5.728 2.864,5.728 C1.29066667,5.728 0,6.752 0,8 C0,9.248 1.29066667,10.272 2.864,10.272 C4.44266667,10.272 5.728,11.5573333 5.728,13.136 C5.728,14.7093333 6.752,16 8,16 C9.248,16 10.272,14.7093333 10.272,13.136 C10.272,11.5573333 11.5573333,10.272 13.136,10.272 C14.7093333,10.272 16,9.248 16,8 C16,6.752 14.7093333,5.728 13.136,5.728 Z"></path>
                </g>
            </g>
        </svg>
    </svg>
</svg>