<svg viewBox="0 0 715 394" fill="none" xmlns="http://www.w3.org/2000/svg"><path fill-rule="evenodd" clip-rule="evenodd" d="M619.762 81.215C614.031 81.215 608.327 81.335 602.652 81.563C495.779 85.703 487.677 78.89 430.587 43.108C388.367 15.836 338.072 0 284.077 0C158.84 0 53.502 85.158 22.724 200.742C3.43401 267.722 -6.49998 277 6 306C18.5 335 17.9999 362 106 390.5C292.5 409.5 292.5 333.5 367 316C430.587 293.5 411 336.5 456 367C514 385.5 526.5 359 602.652 367C629.5 359 654 346.5 689.5 337.5C704 324 710 244.5 715 193.5C715 139.5 673.5 98.5 619.762 81.215Z" fill="#3C3C3C" fill-opacity=".43"/><svg class="stars starInner--animated css-bclhwr"><svg class="star star--gatsby" x="12%" y="58%"><g class="starContent css-vcsoa9"><g class="starInner"><path fill="#fd2d5575" fill-rule="evenodd" class="starBackground css-1rxdz5j" d="M13.136,5.728 C11.5573333,5.728 10.272,4.44266667 10.272,2.864 C10.272,1.29066667 9.248,0 8,0 C6.752,0 5.728,1.29066667 5.728,2.864 C5.728,4.44266667 4.44266667,5.728 2.864,5.728 C1.29066667,5.728 0,6.752 0,8 C0,9.248 1.29066667,10.272 2.864,10.272 C4.44266667,10.272 5.728,11.5573333 5.728,13.136 C5.728,14.7093333 6.752,16 8,16 C9.248,16 10.272,14.7093333 10.272,13.136 C10.272,11.5573333 11.5573333,10.272 13.136,10.272 C14.7093333,10.272 16,9.248 16,8 C16,6.752 14.7093333,5.728 13.136,5.728 Z" transform="scale(0.4)"/></g></g></svg><svg class="star star--gatsby" x="30%" y="70%"><g class="starContent css-vcsoa9"><g class="starInner"><path fill="#fd2d5575" fill-rule="evenodd" class="starBackground css-1rxdz5j" d="M13.136,5.728 C11.5573333,5.728 10.272,4.44266667 10.272,2.864 C10.272,1.29066667 9.248,0 8,0 C6.752,0 5.728,1.29066667 5.728,2.864 C5.728,4.44266667 4.44266667,5.728 2.864,5.728 C1.29066667,5.728 0,6.752 0,8 C0,9.248 1.29066667,10.272 2.864,10.272 C4.44266667,10.272 5.728,11.5573333 5.728,13.136 C5.728,14.7093333 6.752,16 8,16 C9.248,16 10.272,14.7093333 10.272,13.136 C10.272,11.5573333 11.5573333,10.272 13.136,10.272 C14.7093333,10.272 16,9.248 16,8 C16,6.752 14.7093333,5.728 13.136,5.728 Z" transform="scale(0.25)"/></g></g></svg><svg class="star star--bright" x="65%" y="52%"><g class="starContent css-vcsoa9"><g class="starInner"><path fill="#fd2d5575" fill-rule="evenodd" class="starBackground css-1rxdz5j" d="M13.136,5.728 C11.5573333,5.728 10.272,4.44266667 10.272,2.864 C10.272,1.29066667 9.248,0 8,0 C6.752,0 5.728,1.29066667 5.728,2.864 C5.728,4.44266667 4.44266667,5.728 2.864,5.728 C1.29066667,5.728 0,6.752 0,8 C0,9.248 1.29066667,10.272 2.864,10.272 C4.44266667,10.272 5.728,11.5573333 5.728,13.136 C5.728,14.7093333 6.752,16 8,16 C9.248,16 10.272,14.7093333 10.272,13.136 C10.272,11.5573333 11.5573333,10.272 13.136,10.272 C14.7093333,10.272 16,9.248 16,8 C16,6.752 14.7093333,5.728 13.136,5.728 Z" transform="scale(0.35)"/></g></g></svg><svg class="star star--accent" x="25%" y="35%"><g class="starContent css-vcsoa9"><g class="starInner"><path fill="#fd2d5575" fill-rule="evenodd" class="starBackground css-1rxdz5j" d="M13.136,5.728 C11.5573333,5.728 10.272,4.44266667 10.272,2.864 C10.272,1.29066667 9.248,0 8,0 C6.752,0 5.728,1.29066667 5.728,2.864 C5.728,4.44266667 4.44266667,5.728 2.864,5.728 C1.29066667,5.728 0,6.752 0,8 C0,9.248 1.29066667,10.272 2.864,10.272 C4.44266667,10.272 5.728,11.5573333 5.728,13.136 C5.728,14.7093333 6.752,16 8,16 C9.248,16 10.272,14.7093333 10.272,13.136 C10.272,11.5573333 11.5573333,10.272 13.136,10.272 C14.7093333,10.272 16,9.248 16,8 C16,6.752 14.7093333,5.728 13.136,5.728 Z" transform="scale(0.25)"/></g></g></svg><svg class="star star--bright" x="38%" y="52%"><g class="starContent css-vcsoa9"><g class="starInner"><path fill="#fd2d5575" fill-rule="evenodd" class="starBackground css-1rxdz5j" d="M13.136,5.728 C11.5573333,5.728 10.272,4.44266667 10.272,2.864 C10.272,1.29066667 9.248,0 8,0 C6.752,0 5.728,1.29066667 5.728,2.864 C5.728,4.44266667 4.44266667,5.728 2.864,5.728 C1.29066667,5.728 0,6.752 0,8 C0,9.248 1.29066667,10.272 2.864,10.272 C4.44266667,10.272 5.728,11.5573333 5.728,13.136 C5.728,14.7093333 6.752,16 8,16 C9.248,16 10.272,14.7093333 10.272,13.136 C10.272,11.5573333 11.5573333,10.272 13.136,10.272 C14.7093333,10.272 16,9.248 16,8 C16,6.752 14.7093333,5.728 13.136,5.728 Z" transform="scale(0.3)"/></g></g></svg><svg class="star star--bright" x="60%" y="50%"><g class="starContent css-vcsoa9"><g class="starInner"><path fill="#fd2d5575" fill-rule="evenodd" class="starBackground css-1rxdz5j" d="M13.136,5.728 C11.5573333,5.728 10.272,4.44266667 10.272,2.864 C10.272,1.29066667 9.248,0 8,0 C6.752,0 5.728,1.29066667 5.728,2.864 C5.728,4.44266667 4.44266667,5.728 2.864,5.728 C1.29066667,5.728 0,6.752 0,8 C0,9.248 1.29066667,10.272 2.864,10.272 C4.44266667,10.272 5.728,11.5573333 5.728,13.136 C5.728,14.7093333 6.752,16 8,16 C9.248,16 10.272,14.7093333 10.272,13.136 C10.272,11.5573333 11.5573333,10.272 13.136,10.272 C14.7093333,10.272 16,9.248 16,8 C16,6.752 14.7093333,5.728 13.136,5.728 Z" transform="scale(0.4)"/></g></g></svg><svg class="star star--accent" x="20%" y="30%"><g class="starContent css-vcsoa9"><g class="starInner"><path fill="#fd2d5575" fill-rule="evenodd" class="starBackground css-1rxdz5j" d="M13.136,5.728 C11.5573333,5.728 10.272,4.44266667 10.272,2.864 C10.272,1.29066667 9.248,0 8,0 C6.752,0 5.728,1.29066667 5.728,2.864 C5.728,4.44266667 4.44266667,5.728 2.864,5.728 C1.29066667,5.728 0,6.752 0,8 C0,9.248 1.29066667,10.272 2.864,10.272 C4.44266667,10.272 5.728,11.5573333 5.728,13.136 C5.728,14.7093333 6.752,16 8,16 C9.248,16 10.272,14.7093333 10.272,13.136 C10.272,11.5573333 11.5573333,10.272 13.136,10.272 C14.7093333,10.272 16,9.248 16,8 C16,6.752 14.7093333,5.728 13.136,5.728 Z" transform="scale(0.25)"/></g></g></svg><svg class="star star--gatsby" x="85%" y="20%"><g class="starContent css-vcsoa9"><g class="starInner"><path fill="#fd2d5575" fill-rule="evenodd" class="starBackground css-1rxdz5j" d="M13.136,5.728 C11.5573333,5.728 10.272,4.44266667 10.272,2.864 C10.272,1.29066667 9.248,0 8,0 C6.752,0 5.728,1.29066667 5.728,2.864 C5.728,4.44266667 4.44266667,5.728 2.864,5.728 C1.29066667,5.728 0,6.752 0,8 C0,9.248 1.29066667,10.272 2.864,10.272 C4.44266667,10.272 5.728,11.5573333 5.728,13.136 C5.728,14.7093333 6.752,16 8,16 C9.248,16 10.272,14.7093333 10.272,13.136 C10.272,11.5573333 11.5573333,10.272 13.136,10.272 C14.7093333,10.272 16,9.248 16,8 C16,6.752 14.7093333,5.728 13.136,5.728 Z" transform="scale(0.25)"/></g></g></svg><svg class="star star--bright" x="70%" y="20%"><g class="starContent css-vcsoa9"><g class="starInner"><path fill="#fd2d5575" fill-rule="evenodd" class="starBackground css-1rxdz5j" d="M13.136,5.728 C11.5573333,5.728 10.272,4.44266667 10.272,2.864 C10.272,1.29066667 9.248,0 8,0 C6.752,0 5.728,1.29066667 5.728,2.864 C5.728,4.44266667 4.44266667,5.728 2.864,5.728 C1.29066667,5.728 0,6.752 0,8 C0,9.248 1.29066667,10.272 2.864,10.272 C4.44266667,10.272 5.728,11.5573333 5.728,13.136 C5.728,14.7093333 6.752,16 8,16 C9.248,16 10.272,14.7093333 10.272,13.136 C10.272,11.5573333 11.5573333,10.272 13.136,10.272 C14.7093333,10.272 16,9.248 16,8 C16,6.752 14.7093333,5.728 13.136,5.728 Z" transform="scale(0.35)"/></g></g></svg><svg class="star star--accent" x="90%" y="10%"><g class="starContent css-vcsoa9"><g class="starInner"><path fill="#fd2d5575" fill-rule="evenodd" class="starBackground css-1rxdz5j" d="M13.136,5.728 C11.5573333,5.728 10.272,4.44266667 10.272,2.864 C10.272,1.29066667 9.248,0 8,0 C6.752,0 5.728,1.29066667 5.728,2.864 C5.728,4.44266667 4.44266667,5.728 2.864,5.728 C1.29066667,5.728 0,6.752 0,8 C0,9.248 1.29066667,10.272 2.864,10.272 C4.44266667,10.272 5.728,11.5573333 5.728,13.136 C5.728,14.7093333 6.752,16 8,16 C9.248,16 10.272,14.7093333 10.272,13.136 C10.272,11.5573333 11.5573333,10.272 13.136,10.272 C14.7093333,10.272 16,9.248 16,8 C16,6.752 14.7093333,5.728 13.136,5.728 Z" transform="scale(0.35)"/></g></g></svg><svg class="star star--bright" x="15%" y="10%"><g class="starContent css-vcsoa9"><g class="starInner"><path fill="#fd2d5575" fill-rule="evenodd" class="starBackground css-1rxdz5j" d="M13.136,5.728 C11.5573333,5.728 10.272,4.44266667 10.272,2.864 C10.272,1.29066667 9.248,0 8,0 C6.752,0 5.728,1.29066667 5.728,2.864 C5.728,4.44266667 4.44266667,5.728 2.864,5.728 C1.29066667,5.728 0,6.752 0,8 C0,9.248 1.29066667,10.272 2.864,10.272 C4.44266667,10.272 5.728,11.5573333 5.728,13.136 C5.728,14.7093333 6.752,16 8,16 C9.248,16 10.272,14.7093333 10.272,13.136 C10.272,11.5573333 11.5573333,10.272 13.136,10.272 C14.7093333,10.272 16,9.248 16,8 C16,6.752 14.7093333,5.728 13.136,5.728 Z" transform="scale(0.25)"/></g></g></svg><svg class="star star--accent" x="21%" y="36%"><g class="starContent css-vcsoa9"><g class="starInner"><path fill="#fd2d5575" fill-rule="evenodd" class="starBackground css-1rxdz5j" d="M13.136,5.728 C11.5573333,5.728 10.272,4.44266667 10.272,2.864 C10.272,1.29066667 9.248,0 8,0 C6.752,0 5.728,1.29066667 5.728,2.864 C5.728,4.44266667 4.44266667,5.728 2.864,5.728 C1.29066667,5.728 0,6.752 0,8 C0,9.248 1.29066667,10.272 2.864,10.272 C4.44266667,10.272 5.728,11.5573333 5.728,13.136 C5.728,14.7093333 6.752,16 8,16 C9.248,16 10.272,14.7093333 10.272,13.136 C10.272,11.5573333 11.5573333,10.272 13.136,10.272 C14.7093333,10.272 16,9.248 16,8 C16,6.752 14.7093333,5.728 13.136,5.728 Z" transform="scale(0.3)"/></g></g></svg><svg class="star star--bright" x="28%" y="5%"><g class="starContent css-vcsoa9"><g class="starInner"><path fill="#fd2d5575" fill-rule="evenodd" class="starBackground css-1rxdz5j" d="M13.136,5.728 C11.5573333,5.728 10.272,4.44266667 10.272,2.864 C10.272,1.29066667 9.248,0 8,0 C6.752,0 5.728,1.29066667 5.728,2.864 C5.728,4.44266667 4.44266667,5.728 2.864,5.728 C1.29066667,5.728 0,6.752 0,8 C0,9.248 1.29066667,10.272 2.864,10.272 C4.44266667,10.272 5.728,11.5573333 5.728,13.136 C5.728,14.7093333 6.752,16 8,16 C9.248,16 10.272,14.7093333 10.272,13.136 C10.272,11.5573333 11.5573333,10.272 13.136,10.272 C14.7093333,10.272 16,9.248 16,8 C16,6.752 14.7093333,5.728 13.136,5.728 Z" transform="scale(0.2)"/></g></g></svg><svg class="star star--accent" x="40%" y="7%"><g class="starContent css-vcsoa9"><g class="starInner"><path fill="#fd2d5575" fill-rule="evenodd" class="starBackground css-1rxdz5j" d="M13.136,5.728 C11.5573333,5.728 10.272,4.44266667 10.272,2.864 C10.272,1.29066667 9.248,0 8,0 C6.752,0 5.728,1.29066667 5.728,2.864 C5.728,4.44266667 4.44266667,5.728 2.864,5.728 C1.29066667,5.728 0,6.752 0,8 C0,9.248 1.29066667,10.272 2.864,10.272 C4.44266667,10.272 5.728,11.5573333 5.728,13.136 C5.728,14.7093333 6.752,16 8,16 C9.248,16 10.272,14.7093333 10.272,13.136 C10.272,11.5573333 11.5573333,10.272 13.136,10.272 C14.7093333,10.272 16,9.248 16,8 C16,6.752 14.7093333,5.728 13.136,5.728 Z" transform="scale(0.25)"/></g></g></svg><svg class="star star--bright" x="35%" y="10%"><g class="starContent css-vcsoa9"><g class="starInner"><path fill="#fd2d5575" fill-rule="evenodd" class="starBackground css-1rxdz5j" d="M13.136,5.728 C11.5573333,5.728 10.272,4.44266667 10.272,2.864 C10.272,1.29066667 9.248,0 8,0 C6.752,0 5.728,1.29066667 5.728,2.864 C5.728,4.44266667 4.44266667,5.728 2.864,5.728 C1.29066667,5.728 0,6.752 0,8 C0,9.248 1.29066667,10.272 2.864,10.272 C4.44266667,10.272 5.728,11.5573333 5.728,13.136 C5.728,14.7093333 6.752,16 8,16 C9.248,16 10.272,14.7093333 10.272,13.136 C10.272,11.5573333 11.5573333,10.272 13.136,10.272 C14.7093333,10.272 16,9.248 16,8 C16,6.752 14.7093333,5.728 13.136,5.728 Z" transform="scale(0.35)"/></g></g></svg><svg class="star star--gatsby" x="87%" y="13%"><g class="starContent css-vcsoa9"><g class="starInner"><path fill="#fd2d5575" fill-rule="evenodd" class="starBackground css-1rxdz5j" d="M13.136,5.728 C11.5573333,5.728 10.272,4.44266667 10.272,2.864 C10.272,1.29066667 9.248,0 8,0 C6.752,0 5.728,1.29066667 5.728,2.864 C5.728,4.44266667 4.44266667,5.728 2.864,5.728 C1.29066667,5.728 0,6.752 0,8 C0,9.248 1.29066667,10.272 2.864,10.272 C4.44266667,10.272 5.728,11.5573333 5.728,13.136 C5.728,14.7093333 6.752,16 8,16 C9.248,16 10.272,14.7093333 10.272,13.136 C10.272,11.5573333 11.5573333,10.272 13.136,10.272 C14.7093333,10.272 16,9.248 16,8 C16,6.752 14.7093333,5.728 13.136,5.728 Z" transform="scale(0.3)"/></g></g></svg><svg class="star star--bright" x="25%" y="8%"><g class="starContent css-vcsoa9"><g class="starInner"><path fill="#fd2d5575" fill-rule="evenodd" class="starBackground css-1rxdz5j" d="M13.136,5.728 C11.5573333,5.728 10.272,4.44266667 10.272,2.864 C10.272,1.29066667 9.248,0 8,0 C6.752,0 5.728,1.29066667 5.728,2.864 C5.728,4.44266667 4.44266667,5.728 2.864,5.728 C1.29066667,5.728 0,6.752 0,8 C0,9.248 1.29066667,10.272 2.864,10.272 C4.44266667,10.272 5.728,11.5573333 5.728,13.136 C5.728,14.7093333 6.752,16 8,16 C9.248,16 10.272,14.7093333 10.272,13.136 C10.272,11.5573333 11.5573333,10.272 13.136,10.272 C14.7093333,10.272 16,9.248 16,8 C16,6.752 14.7093333,5.728 13.136,5.728 Z" transform="scale(0.25)"/></g></g></svg><svg class="star star--accent" x="41%" y="12%"><g class="starContent css-vcsoa9"><g class="starInner"><path fill="#fd2d5575" fill-rule="evenodd" class="starBackground css-1rxdz5j" d="M13.136,5.728 C11.5573333,5.728 10.272,4.44266667 10.272,2.864 C10.272,1.29066667 9.248,0 8,0 C6.752,0 5.728,1.29066667 5.728,2.864 C5.728,4.44266667 4.44266667,5.728 2.864,5.728 C1.29066667,5.728 0,6.752 0,8 C0,9.248 1.29066667,10.272 2.864,10.272 C4.44266667,10.272 5.728,11.5573333 5.728,13.136 C5.728,14.7093333 6.752,16 8,16 C9.248,16 10.272,14.7093333 10.272,13.136 C10.272,11.5573333 11.5573333,10.272 13.136,10.272 C14.7093333,10.272 16,9.248 16,8 C16,6.752 14.7093333,5.728 13.136,5.728 Z" transform="scale(0.35)"/></g></g></svg></svg></svg>