<svg height="24" viewBox="0 0 24 24" width="24" xmlns="http://www.w3.org/2000/svg"><g fill="none" fill-rule="evenodd"><path d="m0 0h24v24h-24z" opacity="0"/><g fill="#000"><path d="m11.7573593 15.2426407h-2.99999999c-.55228475 0-1 .4477152-1 1 0 .5522847.44771525 1 1 1h2.99999999v1c0 1.1045695-.8954305 2-1.99999999 2h-4c-1.1045695 0-2-.8954305-2-2v-4c0-1.1045695.8954305-2 2-2h4c1.10456949 0 1.99999999.8954305 1.99999999 2z" opacity=".3" transform="matrix(.70710678 -.70710678 .70710678 .70710678 -9.213204 10.242641)"/><path d="m12.2426407 8.75735931h3c.5522847 0 1-.44771525 1-1s-.4477153-1-1-1h-3v-1c0-1.1045695.8954305-2 2-2h4c1.1045695 0 2 .8954305 2 2v4c0 1.10456949-.8954305 1.99999999-2 1.99999999h-4c-1.1045695 0-2-.8954305-2-1.99999999z" transform="matrix(.70710678 -.70710678 .70710678 .70710678 -.727922 13.757359)"/><path d="m5.89339828 3.42893219c.55228475 0 1 .44771525 1 1v2c0 .55228475-.44771525 1-1 1s-1-.44771525-1-1v-2c0-.55228475.44771525-1 1-1zm5.53553392 1.70710678c.3905243.39052429.3905243 1.02368927 0 1.41421356l-1.4142136 1.41421356c-.39052427.3905243-1.02368924.3905243-1.41421354 0-.39052429-.39052429-.39052429-1.02368927 0-1.41421356l1.41421354-1.41421356c.3905243-.39052429 1.0236893-.39052429 1.4142136 0zm-10.82842714 0c.3905243-.39052429 1.02368927-.39052429 1.41421357 0l1.41421356 1.41421356c.39052429.39052429.39052429 1.02368927 0 1.41421356-.39052429.3905243-1.02368927.3905243-1.41421356 0l-1.41421357-1.41421356c-.39052429-.39052429-.39052429-1.02368927 0-1.41421356z" opacity=".3" transform="matrix(.70710678 -.70710678 .70710678 .70710678 -2.370058 5.964466)"/><path d="m17.9142136 15.4497475c.5522847 0 1 .4477152 1 1v2c0 .5522847-.4477153 1-1 1-.5522848 0-1-.4477153-1-1v-2c0-.5522848.4477152-1 1-1zm5.5355339 1.7071067c.3905243.3905243.3905243 1.0236893 0 1.4142136l-1.4142136 1.4142136c-.3905243.3905243-1.0236893.3905243-1.4142136 0-.3905242-.3905243-.3905242-1.0236893 0-1.4142136l1.4142136-1.4142136c.3905243-.3905242 1.0236893-.3905242 1.4142136 0zm-10.8284272 0c.3905243-.3905242 1.0236893-.3905242 1.4142136 0l1.4142136 1.4142136c.3905243.3905243.3905243 1.0236893 0 1.4142136s-1.0236893.3905243-1.4142136 0l-1.4142136-1.4142136c-.3905242-.3905243-.3905242-1.0236893 0-1.4142136z" opacity=".3" transform="matrix(.70710678 -.70710678 -.70710678 -.70710678 17.914214 43.248737)"/></g></g></svg>