<svg height="24" viewBox="0 0 24 24" width="24" xmlns="http://www.w3.org/2000/svg"><g fill="none" fill-rule="evenodd"><path d="m0 0h24v24h-24z" opacity="0"/><g fill="#000"><path d="m12.4644661 14.5355339h-3.00000001c-.55228475 0-1 .4477153-1 1 0 .5522848.44771525 1 1 1h3.00000001v1c0 1.1045695-.8954305 2-2 2h-4.00000001c-1.1045695 0-2-.8954305-2-2v-4c0-1.1045695.8954305-2 2-2h4.00000001c1.1045695 0 2 .8954305 2 2z" opacity=".3" transform="matrix(.70710678 -.70710678 .70710678 .70710678 -8.506097 10.535534)"/><path d="m11.5355339 9.46446609h3c.5522848 0 1-.44771525 1-1s-.4477152-1-1-1h-3v-1c0-1.1045695.8954305-2 2-2h4c1.1045695 0 2 .8954305 2 2v4.00000001c0 1.1045695-.8954305 2-2 2h-4c-1.1045695 0-2-.8954305-2-2z" transform="matrix(.70710678 -.70710678 .70710678 .70710678 -1.435029 13.464466)"/></g></g></svg>