<svg height="24" viewBox="0 0 24 24" width="24" xmlns="http://www.w3.org/2000/svg"><g fill="none" fill-rule="evenodd"><path d="m0 0h24v24h-24z" opacity="0"/><path d="m12.8434797 16h-1.6869594l-.1713044.6393167c-.6499505 2.4256483-3.14321593 3.8651357-5.56886418 3.2151852-2.42564824-.6499505-3.86513569-3.1432159-3.2151852-5.5688641l1.71970057-6.41800991c.64995049-2.42564825 3.14321589-3.8651357 5.56886413-3.21518521 1.05244148.28200084 1.91923588.91100994 2.51026878 1.73094427.5910329-.81993433 1.4578273-1.44894343 2.5102688-1.73094427 2.4256482-.64995049 4.9189136.78953696 5.5688641 3.21518521l1.7197006 6.41800991c.6499505 2.4256482-.789537 4.9189136-3.2151852 5.5688641-2.4256483.6499505-4.9189137-.7895369-5.5688642-3.2151852zm4.6128705 2.1051865c1.5067295 0 2.7281751-1.2673898 2.7281751-2.8307942 0-1.5634045-1.2214456-2.8307942-2.7281751-2.8307942s-2.7281751 1.2673897-2.7281751 2.8307942c0 1.5634044 1.2214456 2.8307942 2.7281751 2.8307942zm-10.91270043 0c1.50672951 0 2.72817511-1.2673898 2.72817511-2.8307942 0-1.5634045-1.2214456-2.8307942-2.72817511-2.8307942s-2.72817512 1.2673897-2.72817512 2.8307942c0 1.5634044 1.22144561 2.8307942 2.72817512 2.8307942z" fill="#000"/></g></svg>