<svg height="24" viewBox="0 0 24 24" width="24" xmlns="http://www.w3.org/2000/svg"><g fill="none" fill-rule="evenodd"><path d="m0 0h24v24h-24z" opacity="0"/><path d="m14 16h-2v-3.5c0-.8284271-.6715729-1.5-1.5-1.5-.82842712 0-1.5.6715729-1.5 1.5v5c0 1.9329966 1.5670034 3.5 3.5 3.5s3.5-1.5670034 3.5-3.5v-10c0-1.93299662-1.5670034-3.5-3.5-3.5h-.5c-1.6568542 0-3 1.34314575-3 3h-2c0-2.76142375 2.23857625-5 5-5h.5c3.0375661 0 5.5 2.46243388 5.5 5.5v10c0 3.0375661-2.4624339 5.5-5.5 5.5-3.03756612 0-5.5-2.4624339-5.5-5.5v-5c0-1.9329966 1.56700338-3.5 3.5-3.5 1.9329966 0 3.5 1.5670034 3.5 3.5z" fill="#000" fill-rule="nonzero" transform="matrix(.70710678 .70710678 -.70710678 .70710678 12.5 -5.17767)"/></g></svg>