<svg height="24" viewBox="0 0 24 24" width="24" xmlns="http://www.w3.org/2000/svg"><g fill="none" fill-rule="evenodd"><path d="m0 0h24v24h-24z" opacity="0"/><g fill="#000"><path d="m2.70963455 10v9l1.15259873.3841996c1.22359763.4078659 2.50494804.6158004 3.79473319.6158004h3.59325633c1.4300431 0 2.6612875-1.009379 2.9417421-2.4116516l.7491986-3.7459932c.3249359-1.6246792-.7287144-3.2051546-2.3533936-3.5300904-.2592141-.0518428-.5241434-.0691976-.7879055-.0516135l-3.59022985.2393487.36419638-4.00616019c.06849317-.75342486-.48675367-1.41972107-1.24017853-1.48821423-.04123302-.00374846-.08261479-.00562558-.12401785-.00562558-.93059561 0-1.79295615.48826024-2.27174363 1.28623939z" transform="matrix(-1 0 0 1 17.709634 0)"/><rect height="11" opacity=".3" rx="1" transform="matrix(-1 0 0 1 39 0)" width="5" x="17" y="9"/></g></g></svg>