<svg height="24" viewBox="0 0 24 24" width="24" xmlns="http://www.w3.org/2000/svg"><g fill="none" fill-rule="evenodd"><path d="m0 0h24v24h-24z" opacity="0"/><g fill="#000"><path d="m15.9956071 6h-6.9956071c-1.65685425 0-3 1.34314575-3 3v6.9956071c-1.29814558-.063969-2-.8249652-2-2.1774253v-7.63636362c0-1.41430632.76751186-2.18181818 2.18181818-2.18181818h7.63636362c1.3524601 0 2.1134563.70185442 2.1774253 2z" fill-rule="nonzero" opacity=".3"/><path d="m10.1818182 8h7.6363636c1.4143063 0 2.1818182.76751186 2.1818182 2.1818182v7.6363636c0 1.4143063-.7675119 2.1818182-2.1818182 2.1818182h-7.6363636c-1.41430634 0-2.1818182-.7675119-2.1818182-2.1818182v-7.6363636c0-1.41430634.76751186-2.1818182 2.1818182-2.1818182z"/></g></g></svg>