<svg height="24" viewBox="0 0 24 24" width="24" xmlns="http://www.w3.org/2000/svg"><g fill="none" fill-rule="evenodd"><path d="m0 0h24v24h-24z" opacity="0"/><path d="m7.10343995 21.9419885-.3869014-13.90647029c-.01146651-.41214303.14721773-.81083466.43875963-1.10237656l3.07881112-3.0788111c.5857864-.58578644 1.5355339-.58578644 2.1213203 0l3.1059816 3.10598155c.2755005.27550049.4329953.6473874.4391525 1.03695527l.2193656 13.87929983c.0130919.8283237-.6477841 1.5104257-1.4761077 1.5235176-.0079011.0001249-.0158029.0001873-.0237049.0001873h-6.01725694c-.8121803 0-1.47683232-.6464175-1.49941981-1.4582836z" fill="#000" fill-rule="nonzero" transform="matrix(-.70710678 -.70710678 .70710678 -.70710678 10.011185 30.962031)"/></g></svg>