<svg height="24" viewBox="0 0 24 24" width="24" xmlns="http://www.w3.org/2000/svg"><g fill="none" fill-rule="evenodd"><path d="m0 0h24v24h-24z" opacity="0"/><g fill="#000"><path d="m10.5857864 12-5.12132031-5.12132034c-.39052429-.3905243-.39052429-1.02368927 0-1.41421357.3905243-.39052429 1.02368927-.39052429 1.41421357 0l5.12132034 5.12132031 6.1923882-6.19238812c.3905242-.39052429 1.0236892-.39052429 1.4142135 0s.3905243 1.02368927 0 1.41421356l-6.1923881 6.19238816 6.1923881 6.1923882c.3905243.3905242.3905243 1.0236892 0 1.4142135s-1.0236893.3905243-1.4142135 0l-6.1923882-6.1923881-5.12132034 5.1213203c-.3905243.3905243-1.02368927.3905243-1.41421357 0-.39052429-.3905243-.39052429-1.0236893 0-1.4142136z" opacity=".3"/><path d="m6 18h3c.66666667.1143819 1 .4477153 1 1s-.33333333.8856181-1 1h-5v-5c0-.6666667.33333333-1 1-1s1 .3333333 1 1zm12 0v-3c.1143819-.6666667.4477153-1 1-1s.8856181.3333333 1 1v5h-5c-.6666667 0-1-.3333333-1-1s.3333333-1 1-1zm0-12h-3c-.6666667-.11438192-1-.44771525-1-1s.3333333-.88561808 1-1h5v5c0 .66666667-.3333333 1-1 1s-1-.33333333-1-1zm-12 0v3c-.11438192.66666667-.44771525 1-1 1s-.88561808-.33333333-1-1v-5h5c.66666667 0 1 .33333333 1 1s-.33333333 1-1 1z" fill-rule="nonzero"/></g></g></svg>