<svg height="24" viewBox="0 0 24 24" width="24" xmlns="http://www.w3.org/2000/svg"><g fill="none" fill-rule="evenodd"><path d="m0 0h24v24h-24z" opacity="0"/><g fill="#000"><path d="m19.2078777 9.84836149c1.1225046 1.16953261 1.7921223 2.15163851 1.7921223 2.15163851s-4.0909091 6-9 6c-.3106559 0-.6120967-.0135155-.9044974-.0392635z" fill-rule="nonzero"/><path d="m14.5051465 6.49485351-2.5051465 2.50514649c-1.6568542 0-3 1.3431458-3 3l-3.47338536 3.4733854c-1.77655011-1.6398943-2.52661464-3.4733854-2.52661464-3.4733854s2.45454545-6 9-6c.8665422 0 1.7075911.18695134 2.5051465.49485351z" fill-rule="nonzero"/><path d="m3.024621 11.424621h19v2h-19z" opacity=".3" transform="matrix(.70710678 -.70710678 .70710678 .70710678 -5.117157 12.495332)"/></g></g></svg>