<svg height="24" viewBox="0 0 24 24" width="24" xmlns="http://www.w3.org/2000/svg"><g fill="none" fill-rule="evenodd"><path d="m0 0h24v24h-24z" opacity="0"/><g fill="#000"><path d="m9 10v9l1.1525987.3841996c1.2235977.4078659 2.5049481.6158004 3.7947332.6158004h3.5932564c1.4300431 0 2.6612875-1.009379 2.941742-2.4116516l.7491987-3.7459932c.3249358-1.6246792-.7287144-3.2051546-2.3533937-3.5300904-.2592141-.0518428-.5241433-.0691976-.7879054-.0516135l-3.5902299.2393487.3641964-4.00616019c.0684931-.75342486-.4867537-1.41972107-1.2401785-1.48821423-.0412331-.00374846-.0826148-.00562558-.1240179-.00562558-.9305956 0-1.7929561.48826024-2.2717436 1.28623939z"/><rect height="11" opacity=".3" rx="1" width="5" x="2" y="9"/></g></g></svg>