<svg height="24" viewBox="0 0 24 24" width="24" xmlns="http://www.w3.org/2000/svg"><g fill="none" fill-rule="evenodd"><path d="m0 0h24v24h-24z" opacity="0"/><g fill="#000"><path d="m10 14h-5c-.66666667-.1143819-1-.4477153-1-1s.33333333-.8856181 1-1h7v7c0 .6666667-.3333333 1-1 1s-1-.3333333-1-1zm5-5h5c.6666667.11438192 1 .44771525 1 1 0 .5522847-.3333333.8856181-1 1h-7v-7c0-.66666667.3333333-1 1-1s1 .33333333 1 1z" fill-rule="nonzero"/><path d="m3.87867966 18.7071068 2.82842712-2.8284271c.39052429-.3905243 1.02368927-.3905243 1.41421356 0 .3905243.3905242.3905243 1.0236892 0 1.4142135l-2.82842712 2.8284271c-.39052429.3905243-1.02368927.3905243-1.41421356 0-.3905243-.3905242-.3905243-1.0236892 0-1.4142135zm13.00000004-13.00000002 2.8284271-2.82842712c.3905243-.3905243 1.0236893-.3905243 1.4142135 0 .3905243.39052429.3905243 1.02368927 0 1.41421356l-2.8284271 2.82842712c-.3905243.3905243-1.0236893.3905243-1.4142135 0-.3905243-.39052429-.3905243-1.02368927 0-1.41421356z" opacity=".3"/></g></g></svg>