<svg height="24" viewBox="0 0 24 24" width="24" xmlns="http://www.w3.org/2000/svg"><g fill="none" fill-rule="evenodd"><path d="m0 0h24v24h-24z" opacity="0"/><g fill="#000" fill-rule="nonzero"><path d="m7.70696074 11.6465196-3.55035733-1.89352388c-.19492403-.10395949-.26866537-.34625245-.16470588-.54117647.09171319-.17196223.29400974-.25279691.47897349-.19139065l5.10118129 1.6935452zm5.02533816 2.6801804 3.6363764-1.3563099 2.2630064.7512973-.001729.0008639c1.3785349.4699564 2.3700473 1.7759828 2.3700473 3.3135893 0 1.9329966-1.5670034 3.5-3.5 3.5s-3.5-1.5670034-3.5-3.5c0-.648108.176158-1.255072.4832056-1.7756237zm4.7677011 1.2094406c-.8284271 0-1.5.6715728-1.5 1.5 0 .8284271.6715729 1.5 1.5 1.5s1.5-.6715729 1.5-1.5c0-.8284272-.6715729-1.5-1.5-1.5z" opacity=".3"/><path d="m17.5 9c.8284271 0 1.5-.67157288 1.5-1.5s-.6715729-1.5-1.5-1.5-1.5.67157288-1.5 1.5.6715729 1.5 1.5 1.5zm-3.0167944.27562366c-.3070476-.52055169-.4832056-1.12751572-.4832056-1.77562366 0-1.93299662 1.5670034-3.5 3.5-3.5s3.5 1.56700338 3.5 3.5c0 1.53760648-.9915124 2.8436328-2.3700473 3.3135893l.001729.0008638-14.16081068 4.7012589c-.18496375.0614062-.3872603-.0194285-.47897349-.1913907-.10395949-.194924-.03021815-.437217.16470588-.5411765z"/></g></g></svg>