<svg height="24" viewBox="0 0 24 24" width="24" xmlns="http://www.w3.org/2000/svg"><g fill="none" fill-rule="evenodd"><path d="m0 0h24v24h-24z" opacity="0"/><g fill="#000"><path d="m7 3h10c2.209139 0 4 1.790861 4 4s-1.790861 4-4 4h-10c-2.209139 0-4-1.790861-4-4s1.790861-4 4-4zm0 6c1.1045695 0 2-.8954305 2-2s-.8954305-2-2-2-2 .8954305-2 2 .8954305 2 2 2z"/><path d="m7 13h10c2.209139 0 4 1.790861 4 4s-1.790861 4-4 4h-10c-2.209139 0-4-1.790861-4-4s1.790861-4 4-4zm10 6c1.1045695 0 2-.8954305 2-2s-.8954305-2-2-2-2 .8954305-2 2 .8954305 2 2 2z" opacity=".3"/></g></g></svg>