<svg height="24" viewBox="0 0 24 24" width="24" xmlns="http://www.w3.org/2000/svg"><g fill="none" fill-rule="evenodd"><path d="m0 0h24v24h-24z" opacity="0"/><g fill="#000"><path d="m4 4 7.6314229-1.4308918c.2435956-.04567417.4935586-.04567417.7371542 0l7.6314229 1.4308918v9.2830094c0 2.9343767-1.5116536 5.6617741-4 7.2169906l-3.4700011 2.1687507c-.3242702.2026689-.7357276.2026689-1.0599978 0l-3.4700011-2.1687507c-2.48834642-1.5552165-4-4.2826139-4-7.2169906z" opacity=".3"/><path d="m11.1750002 14.75c-.2395833 0-.4791667-.0958333-.6708333-.2875l-1.91666671-1.9166667c-.38333333-.3833333-.38333333-.9583333 0-1.3416666.38333333-.3833334 1.00625-.3833334 1.34166667 0l1.24583334 1.2458333 3.1625-3.1625c.3833333-.38333333.9583333-.38333333 1.3416667 0 .3833333.38333333.3833333.9583333 0 1.3416667l-3.8333334 3.8333333c-.1916666.1916667-.43125.2875-.6708333.2875z"/></g></g></svg>