<svg height="24" viewBox="0 0 24 24" width="24" xmlns="http://www.w3.org/2000/svg"><g fill="none" fill-rule="evenodd"><path d="m0 0h24v24h-24z" opacity="0"/><g fill="#000"><path d="m4 4 7.6314229-1.4308918c.2435956-.04567417.4935586-.04567417.7371542 0l7.6314229 1.4308918v9.2830094c0 2.9343767-1.5116536 5.6617741-4 7.2169906l-3.4700011 2.1687507c-.3242702.2026689-.7357276.2026689-1.0599978 0l-3.4700011-2.1687507c-2.48834642-1.5552165-4-4.2826139-4-7.2169906z" opacity=".3"/><path d="m14.5 11c.5522847 0 1 .4477153 1 1v3c0 .5522847-.4477153 1-1 1h-5c-.55228475 0-1-.4477153-1-1v-3c0-.5522847.44771525-1 1-1v-.5c0-1.38071187 1.1192881-2.5 2.5-2.5s2.5 1.11928813 2.5 2.5zm-2.5-2c-.8284271 0-1.5.67157288-1.5 1.5v.5h3v-.5c0-.82842712-.6715729-1.5-1.5-1.5z"/></g></g></svg>