<svg height="24" viewBox="0 0 24 24" width="24" xmlns="http://www.w3.org/2000/svg"><g fill="none" fill-rule="evenodd"><path d="m0 0h24v24h-24z" opacity="0"/><g fill="#000"><path d="m4 4 7.6314229-1.4308918c.2435956-.04567417.4935586-.04567417.7371542 0l7.6314229 1.4308918v9.2830094c0 2.9343767-1.5116536 5.6617741-4 7.2169906l-3.4700011 2.1687507c-.3242702.2026689-.7357276.2026689-1.0599978 0l-3.4700011-2.1687507c-2.48834642-1.5552165-4-4.2826139-4-7.2169906z" opacity=".3"/><path d="m10.5857864 12-1.41421352-1.4142136c-.3905243-.3905243-.3905243-1.02368923 0-1.41421352.39052429-.3905243 1.02368922-.3905243 1.41421352 0l1.4142136 1.41421352 1.4142136-1.41421352c.3905243-.3905243 1.0236892-.3905243 1.4142135 0 .3905243.39052429.3905243 1.02368922 0 1.41421352l-1.4142135 1.4142136 1.4142135 1.4142136c.3905243.3905243.3905243 1.0236892 0 1.4142135s-1.0236892.3905243-1.4142135 0l-1.4142136-1.4142135-1.4142136 1.4142135c-.3905243.3905243-1.02368923.3905243-1.41421352 0-.3905243-.3905243-.3905243-1.0236892 0-1.4142135z"/></g></g></svg>