<svg height="24" viewBox="0 0 24 24" width="24" xmlns="http://www.w3.org/2000/svg"><g fill="none" fill-rule="evenodd"><path d="m0 0h24v24h-24z" opacity="0"/><g fill="#000"><path d="m18 6h-7c-.6666667-.11438192-1-.44771525-1-1s.3333333-.88561808 1-1h9v9c0 .6666667-.3333333 1-1 1s-1-.3333333-1-1zm-12 12h7c.6666667.1143819 1 .4477153 1 1s-.3333333.8856181-1 1h-9v-9c0-.6666667.33333333-1 1-1s1 .3333333 1 1z" fill-rule="nonzero"/><rect height="2" opacity=".3" rx="1" transform="matrix(.70710678 -.70710678 .70710678 .70710678 -4.970563 12)" width="10" x="7" y="11"/></g></g></svg>