<svg height="24" viewBox="0 0 24 24" width="24" xmlns="http://www.w3.org/2000/svg"><g fill="none" fill-rule="evenodd"><path d="m0 0h24v24h-24z" opacity="0"/><path d="m12 18-4.08438037 2.1472858c-.48884459.2570008-1.09347174.0690543-1.35047255-.4197903-.10233907-.1946604-.13765374-.4176285-.1004769-.6343861l.78004724-4.5480244-3.30433313-3.2209288c-.39548358-.3855012-.40357589-1.0186145-.01807467-1.41409803.1535086-.15748364.35465101-.25997082.57228804-.29159533l4.56647608-.66354781 2.04219016-4.13792928c.2444223-.49525366.8440482-.69859266 1.3393018-.45417036.1972126.09733023.3568401.25695776.4541704.45417036l2.0421902 4.13792928 4.566476.66354781c.5465449.07941762.9252264.58686046.8458087 1.13340536-.0316245.217637-.1341117.4187794-.2915953.572288l-3.3043331 3.2209288.7800472 4.5480244c.093361.5443364-.2722268 1.0612923-.8165632 1.1546533-.2167577.0371769-.4397258.0018622-.6343862-.1004769z" fill="#000"/></g></svg>