<svg height="24" viewBox="0 0 24 24" width="24" xmlns="http://www.w3.org/2000/svg"><g fill="none" fill-rule="evenodd"><path d="m0 0h24v24h-24z" opacity="0"/><g fill="#000"><path d="m16.3740377 19.9389434 5.8486122-8.7729183c.2297643-.3446465.1366339-.8102985-.2080126-1.0400628-.1232006-.0821338-.2679564-.1259623-.4160251-.1259623h-4.5986122v-5.52291827c0-.41421356-.3357864-.75-.75-.75-.2507649 0-.4849384.12532585-.6240377.33397485l-5.8486122 8.77291832c-.22976435.3446465-.13663394.8102985.20801257 1.0400628.12320063.0821338.26795643.1259623.41602513.1259623h4.5986122v5.5229183c0 .4142135.3357864.75.75.75.2507649 0 .4849384-.1253259.6240377-.3339749z"/><path d="m4.5 5h5c.8284271 0 1.5.67157288 1.5 1.5s-.6715729 1.5-1.5 1.5h-5c-.82842712 0-1.5-.67157288-1.5-1.5s.67157288-1.5 1.5-1.5zm0 12h5c.8284271 0 1.5.6715729 1.5 1.5s-.6715729 1.5-1.5 1.5h-5c-.82842712 0-1.5-.6715729-1.5-1.5s.67157288-1.5 1.5-1.5zm-2-6h4c.82842712 0 1.5.6715729 1.5 1.5s-.67157288 1.5-1.5 1.5h-4c-.82842712 0-1.5-.6715729-1.5-1.5s.67157288-1.5 1.5-1.5z" opacity=".3"/></g></g></svg>