<svg height="24" viewBox="0 0 24 24" width="24" xmlns="http://www.w3.org/2000/svg"><g fill="none" fill-rule="evenodd"><path d="m0 0h24v24h-24z" opacity="0"/><g fill="#000"><path d="m6 8v12.5c0 .8284271.67157288 1.5 1.5 1.5h9c.8284271 0 1.5-.6715729 1.5-1.5v-12.5z" fill-rule="nonzero"/><path d="m14 4.5v-.5c0-.55228475-.4477153-1-1-1h-2c-.5522847 0-1 .44771525-1 1v.5h-4.5c-.27614237 0-.5.22385763-.5.5v.5c0 .27614237.22385763.5.5.5h13c.2761424 0 .5-.22385763.5-.5v-.5c0-.27614237-.2238576-.5-.5-.5z" opacity=".3"/></g></g></svg>