<svg height="24" viewBox="0 0 24 24" width="24" xmlns="http://www.w3.org/2000/svg"><g fill="none" fill-rule="evenodd"><path d="m0 0h24v24h-24z" opacity="0"/><path d="m8.43296491 7.17429118.97485836.68260318c.08834304.06185846.1543175.15062292.18807943.25304896.08644751.26226216-.05607843.5449472-.31834059.63139471l-3.38676645 1.11635439c-.04610533.01519735-.09417813.02359928-.14270502.02494127-.27603684.00763371-.50599725-.20995003-.51363096-.48598687l-.09835834-3.55666505c-.00296709-.10729099.02866979-.21268903.0902329-.30061026.15838876-.22620259.47016165-.28117656.69636424-.12278781l.80640394.56465012c1.43636156-1.25940958 3.29487818-1.98123382 5.27089758-1.98123382 4.418278 0 8 3.581722 8 8s-3.581722 8-8 8-8-3.581722-8-8h2c0 3.3137085 2.6862915 6 6 6s6-2.6862915 6-6-2.6862915-6-6-6c-1.3114664 0-2.55232754.42282109-3.56703509 1.17429118z" fill="#000" fill-rule="nonzero"/></g></svg>