<svg fill="none" height="128" viewBox="0 0 128 128" width="128" xmlns="http://www.w3.org/2000/svg"><circle cx="64" cy="64" fill="#7757b1" r="64"/><path d="m65.9633 89c10.6722 0 17.1517-5.4054 17.1517-14.2065 0-6.6182-4.747-11.5038-11.5384-12.1622v-.2772c5.1282-.8316 9.1129-5.5093 9.1129-10.8801 0-7.5883-5.8558-12.474-14.9341-12.474h-20.7554v50zm-12.0236-43.0353h9.5634c5.3361 0 8.3507 2.4601 8.3507 6.826 0 4.6431-3.4997 7.2765-9.7367 7.2765h-8.1774zm0 36.0706v-15.6271h9.5981c6.8607 0 10.4643 2.668 10.4643 7.7616 0 5.1282-3.4997 7.8655-10.0832 7.8655z" fill="#fff"/></svg>