<svg fill="none" height="128" viewBox="0 0 128 128" width="128" xmlns="http://www.w3.org/2000/svg"><circle cx="64" cy="64" fill="#81b441" r="64"/><path d="m83.0305 33.4702c-1.8072-.9943-6.9833-.3777-13.2033 1.5282-10.8829 7.3635-20.0727 18.2132-20.7131 35.6362-.114.4168-1.1887-.0608-1.4037-.1867-2.9389-5.5746-4.1057-11.4445-1.6493-19.9151.4562-.7554-1.0396-1.6845-1.3072-1.4197-.5351.5297-2.781 2.9002-4.2768 5.4575-7.3956 12.6906-2.5573 28.9587 10.3785 36.079 3.0757 1.6949 6.4587 2.7735 9.9556 3.1743s7.0394.1159 10.4251-.8384 6.5483-2.5593 9.3073-4.7233c2.759-2.1641 5.0603-4.8449 6.7725-7.8893 8.3344-14.7702.5966-44.2022-4.2856-46.9027z" fill="#fff"/></svg>