<svg height="24" viewBox="0 0 24 24" width="24" xmlns="http://www.w3.org/2000/svg"><g fill="none" fill-rule="evenodd"><path d="m0 0h24v24h-24z" opacity="0"/><g fill="#000"><path d="m17 12.9170416v7.5829584c0 .8284271-.6715729 1.5-1.5 1.5s-1.5-.6715729-1.5-1.5v-9.027787c.8261591.7394324 1.8584259 1.2533087 3 1.4448286z" opacity=".3"/><path d="m10 11.472213v9.027787c0 .8284271-.67157288 1.5-1.5 1.5s-1.5-.6715729-1.5-1.5v-7.5829584c1.14157414-.1915199 2.17384092-.7053962 3-1.4448286z" opacity=".3"/><path d="m18 12c-2.7614237 0-5-2.23857625-5-5s2.2385763-5 5-5 5 2.23857625 5 5-2.2385763 5-5 5zm-3.25-5.5c-.4142136 0-.75.33578644-.75.75s.3357864.75.75.75h.5c.4142136 0 .75-.33578644.75-.75s-.3357864-.75-.75-.75zm6.25-1.5c-.5522847 0-1 .44771525-1 1v2c0 .55228475.4477153 1 1 1s1-.44771525 1-1v-2c0-.55228475-.4477153-1-1-1z"/><path d="m6 12c-2.76142375 0-5-2.23857625-5-5s2.23857625-5 5-5 5 2.23857625 5 5-2.23857625 5-5 5zm2.75-5.5c-.41421356 0-.75.33578644-.75.75s.33578644.75.75.75h.5c.41421356 0 .75-.33578644.75-.75s-.33578644-.75-.75-.75zm-5.75-1.5c-.55228475 0-1 .44771525-1 1v2c0 .55228475.44771525 1 1 1s1-.44771525 1-1v-2c0-.55228475-.44771525-1-1-1z"/></g></g></svg>