<svg height="24" viewBox="0 0 24 24" width="24" xmlns="http://www.w3.org/2000/svg"><g fill="none" fill-rule="evenodd"><path d="m0 0h24v24h-24z" opacity="0"/><g fill="#000"><path d="m16.4505 4.17581303c.4798324.27345793.6471321.88412045.3736742 1.36395293-.273458.47983248-.8841205.64713212-1.363953.37367419-1.0454253-.59579092-2.2285346-.91344015-3.4602212-.91344015-3.86599325 0-7 3.13400675-7 7 0 3.8659932 3.13400675 7 7 7 1.219344 0 2.3911317-.3112977 3.4290477-.89578.4812281-.2709943 1.0910249-.1005661 1.3620192.3806621.2709943.4812281.1005661 1.0910249-.380662 1.3620192-1.3355678.7520991-2.8450116 1.1530987-4.4104049 1.1530987-4.97056275 0-9-4.0294373-9-9 0-4.97056275 4.02943725-9 9-9 1.5812651 0 3.1053118.40918641 4.4505 1.17581303z" fill-rule="nonzero" opacity=".3"/><path d="m18.5 6c1.3807119 0 2.5 1.11928813 2.5 2.5v7c0 1.3807119-1.1192881 2.5-2.5 2.5s-2.5-1.1192881-2.5-2.5v-7c0-1.38071187 1.1192881-2.5 2.5-2.5zm0 6c.8284271 0 1.5-.6715729 1.5-1.5 0-.82842712-.6715729-1.5-1.5-1.5s-1.5.67157288-1.5 1.5c0 .8284271.6715729 1.5 1.5 1.5z"/></g></g></svg>