<svg height="24" viewBox="0 0 24 24" width="24" xmlns="http://www.w3.org/2000/svg"><g fill="none" fill-rule="evenodd"><path d="m0 0h24v24h-24z" opacity="0"/><g fill="#000"><path d="m4 9v6h13v-6zm0-2h13c1.1045695 0 2 .8954305 2 2v6c0 1.1045695-.8954305 2-2 2h-13c-1.1045695 0-2-.8954305-2-2v-6c0-1.1045695.8954305-2 2-2z" fill-rule="nonzero"/><path d="m10.3561738 14.0547828 1.383875-1.7298438c.0690019-.0862524.0550176-.2121109-.0312348-.2811128-.0354626-.02837-.0795247-.0438262-.124939-.0438262h-.583875v-1.8394449c0-.1104569-.0895431-.19999997-.2-.19999997-.0668706 0-.1293169.03342022-.1664101.08905997l-1.42629654 2.1394449c-.06127049.0919057-.03643572.2160796.05547002.2773501.0328535.0219023.07145504.0335899.11094004.0335899h.62629658v1.4298438c0 .1104569.0895431.2.2.2.0607567 0 .1182193-.027618.1561738-.075061z" opacity=".3"/><path d="m20 10h1c.5522847 0 1 .4477153 1 1v2c0 .5522847-.4477153 1-1 1h-1z" opacity=".3"/></g></g></svg>