<svg height="24" viewBox="0 0 24 24" width="24" xmlns="http://www.w3.org/2000/svg"><g fill="none" fill-rule="evenodd"><path d="m0 0h24v24h-24z" opacity="0"/><g fill="#000" fill-rule="nonzero"><path d="m12 13.8453624v4.9136006l3.3125397-1.9323148zm-2-1.8-3.66896473-3.30206825c-.41051002-.36945902-.44378844-1.00174886-.07432942-1.41225888s1.00174886-.44378844 1.41225888-.07432942l9.99999997 9.00000005c.5036433.4532789.420188 1.2656587-.1650937 1.607073l-6 3.5c-.6666566.388883-1.503871-.0919881-1.503871-.8637789z" opacity=".3"/><path d="m12 10.4375595 3.3984747-2.88870347-3.3984747-2.54885603zm-2-7.4375595c0-.82404532.9407637-1.29442719 1.6-.8l6 4.5c.5131546.38486597.5363893 1.14650959.0476484 1.56193932l-9.99999998 8.49999998c-.42080747.3576864-1.05190139.3065166-1.40958774-.1142909-.35768634-.4208074-.30651657-1.0519014.1142909-1.4095877l3.64764842-3.1005012z"/></g></g></svg>