<svg height="24" viewBox="0 0 24 24" width="24" xmlns="http://www.w3.org/2000/svg"><g fill="none" fill-rule="evenodd"><path d="m0 0h24v24h-24z" opacity="0"/><g fill="#000"><path d="m5 7h14c1.1045695 0 2 .8954305 2 2v8c0 1.1045695-.8954305 2-2 2h-14c-1.1045695 0-2-.8954305-2-2v-8c0-1.1045695.8954305-2 2-2zm7 10c2.209139 0 4-1.790861 4-4s-1.790861-4-4-4-4 1.790861-4 4 1.790861 4 4 4z"/><rect height="2" opacity=".3" rx="1" width="6" x="9" y="4"/><circle cx="12" cy="13" opacity=".3" r="2"/></g></g></svg>