<svg height="24" viewBox="0 0 24 24" width="24" xmlns="http://www.w3.org/2000/svg"><g fill="none" fill-rule="evenodd"><path d="m0 0h24v24h-24z" opacity="0"/><g fill="#000"><path d="m6 4h12l2 2.5h-16z" opacity=".3"/><path d="m5 6h14c1.1045695 0 2 .8954305 2 2l-.000006 9.0000172c0 1.1045662-.8954278 1.999994-1.999994 1.999994-1.5194982-.0000075-2.5194949-.0000112-3-.0000112-1 0-1.5-2-4-2s-2.5 2-4 2c-.68613688 0-1.68612963.0000034-2.99997827.0000102v.0000114c-1.1045758.0000057-2.00001604-.8954253-2.00002173-2.0000011 0-.0000035 0-.0000069 0-.0000103v-9.0000102c0-1.1045695.8954305-2 2-2zm3 8c1.1045695 0 2-.8954305 2-2s-.8954305-2-2-2-2 .8954305-2 2 .8954305 2 2 2zm8 0c1.1045695 0 2-.8954305 2-2s-.8954305-2-2-2-2 .8954305-2 2 .8954305 2 2 2z"/></g></g></svg>