<svg height="24" viewBox="0 0 24 24" width="24" xmlns="http://www.w3.org/2000/svg"><g fill="none" fill-rule="evenodd"><path d="m0 0h24v24h-24z" opacity="0"/><g fill="#000"><rect height="2" opacity=".3" rx="1" width="14" x="5" y="15"/><path d="m6.5 15c1.38071187 0 2.5-1.1192881 2.5-2.5s-1.11928813-2.5-2.5-2.5-2.5 1.1192881-2.5 2.5 1.11928813 2.5 2.5 2.5zm0 2c-2.48528137 0-4.5-2.0147186-4.5-4.5s2.01471863-4.5 4.5-4.5 4.5 2.0147186 4.5 4.5-2.01471863 4.5-4.5 4.5z" fill-rule="nonzero"/><path d="m17.5 15c1.3807119 0 2.5-1.1192881 2.5-2.5s-1.1192881-2.5-2.5-2.5-2.5 1.1192881-2.5 2.5 1.1192881 2.5 2.5 2.5zm0 2c-2.4852814 0-4.5-2.0147186-4.5-4.5s2.0147186-4.5 4.5-4.5 4.5 2.0147186 4.5 4.5-2.0147186 4.5-4.5 4.5z" fill-rule="nonzero"/></g></g></svg>