<svg height="24" viewBox="0 0 24 24" width="24" xmlns="http://www.w3.org/2000/svg"><g fill="none" fill-rule="evenodd"><path d="m0 0h24v24h-24z" opacity="0"/><g fill="#000"><rect height="18" opacity=".3" rx="1" width="18" x="3" y="3"/><path d="m11 11v2h2v-2zm-1-2h4c.5522847 0 1 .44771525 1 1v4c0 .5522847-.4477153 1-1 1h-4c-.55228475 0-1-.4477153-1-1v-4c0-.55228475.44771525-1 1-1z" fill-rule="nonzero" opacity=".3"/><rect height="2" opacity=".3" rx=".5" width="2" x="5" y="5"/><rect height="2" opacity=".3" rx=".5" width="2" x="5" y="9"/><rect height="2" opacity=".3" rx=".5" width="2" x="5" y="13"/><rect height="2" opacity=".3" rx=".5" width="2" x="9" y="5"/><rect height="2" opacity=".3" rx=".5" width="2" x="13" y="5"/><rect height="2" opacity=".3" rx=".5" width="2" x="17" y="5"/><rect height="2" opacity=".3" rx=".5" width="2" x="17" y="9"/><rect height="2" opacity=".3" rx=".5" width="2" x="17" y="13"/><rect height="2" opacity=".3" rx=".5" width="2" x="5" y="17"/><rect height="2" opacity=".3" rx=".5" width="2" x="9" y="17"/><rect height="2" opacity=".3" rx=".5" width="2" x="13" y="17"/><rect height="2" opacity=".3" rx=".5" width="2" x="17" y="17"/></g></g></svg>