<svg height="24" viewBox="0 0 24 24" width="24" xmlns="http://www.w3.org/2000/svg"><g fill="none" fill-rule="evenodd"><path d="m0 0h24v24h-24z" opacity="0"/><g fill="#000"><rect height="16" opacity=".3" rx="2" width="16" x="4" y="4"/><path d="m9 9h6v6h-6z" opacity=".3"/><path d="m20 7h1c.5522847 0 1 .44771525 1 1 0 .55228475-.4477153 1-1 1h-1z"/><path d="m20 11h1c.5522847 0 1 .4477153 1 1 0 .5522847-.4477153 1-1 1h-1z"/><path d="m20 15h1c.5522847 0 1 .4477153 1 1 0 .5522847-.4477153 1-1 1h-1z"/><path d="m3 7h1v2h-1c-.55228475 0-1-.44771525-1-1 0-.55228475.44771525-1 1-1z"/><path d="m3 11h1v2h-1c-.55228475 0-1-.4477153-1-1 0-.5522847.44771525-1 1-1z"/><path d="m3 15h1v2h-1c-.55228475 0-1-.4477153-1-1 0-.5522847.44771525-1 1-1z"/></g></g></svg>