<svg height="24" viewBox="0 0 24 24" width="24" xmlns="http://www.w3.org/2000/svg"><g fill="none" fill-rule="evenodd"><path d="m0 0h24v24h-24z" opacity="0"/><g fill="#000"><rect height="18" opacity=".3" rx="2" width="20" x="2" y="3"/><path d="m9.9486833 13.3162278c-.13611405.4083421-.51825289.6837722-.9486833.6837722h-4c-.55228475 0-1-.4477153-1-1s.44771525-1 1-1h3.27924078l1.77207592-5.31622777c.3163693-.9491078 1.6761816-.89688446 1.9188258.07369214l1.8443638 7.37745513.7910665-1.5821331c.169392-.338784.5156551-.5527864.8944272-.5527864h3.5c.5522847 0 1 .4477153 1 1s-.4477153 1-1 1h-2.881966l-1.7236068 3.4472136c-.4151959.8303918-1.6393981.6960084-1.8645697-.204678l-1.6671186-6.6684745z" fill-rule="nonzero"/><circle cx="19" cy="6" opacity=".3" r="1"/></g></g></svg>