<svg height="24" viewBox="0 0 24 24" width="24" xmlns="http://www.w3.org/2000/svg"><g fill="none" fill-rule="evenodd"><path d="m0 0h24v24h-24z" opacity="0"/><g fill="#000"><path d="m6 7v8h12v-8z" opacity=".3"/><path d="m11 19v-3c0-.5522847.4477153-1 1-1s1 .4477153 1 1v3h1.5c.2761424 0 .5.2238576.5.5s-.2238576.5-.5.5h-5c-.27614237 0-.5-.2238576-.5-.5s.22385763-.5.5-.5z" opacity=".3"/><path d="m6 7v8h12v-8zm0-2h12c1.1045695 0 2 .8954305 2 2v8c0 1.1045695-.8954305 2-2 2h-12c-1.1045695 0-2-.8954305-2-2v-8c0-1.1045695.8954305-2 2-2z" fill-rule="nonzero"/></g></g></svg>