<svg height="24" viewBox="0 0 24 24" width="24" xmlns="http://www.w3.org/2000/svg"><g fill="none" fill-rule="evenodd"><path d="m0 0h24v24h-24z" opacity="0"/><g fill="#000"><path d="m11 20v-3c0-.5522847.4477153-1 1-1s1 .4477153 1 1v3h2.5c.2761424 0 .5.2238576.5.5s-.2238576.5-.5.5h-7c-.27614237 0-.5-.2238576-.5-.5s.22385763-.5.5-.5z" opacity=".3"/><path d="m3 5h18c.5522847 0 1 .44771525 1 1v10c0 .5522847-.4477153 1-1 1h-18c-.55228475 0-1-.4477153-1-1v-10c0-.55228475.44771525-1 1-1zm1.5 3c-.27614237 0-.5.22385763-.5.5s.22385763.5.5.5h9c.2761424 0 .5-.22385763.5-.5s-.2238576-.5-.5-.5zm0 2c-.27614237 0-.5.2238576-.5.5s.22385763.5.5.5h3c.27614237 0 .5-.2238576.5-.5s-.22385763-.5-.5-.5z"/></g></g></svg>