<svg height="24" viewBox="0 0 24 24" width="24" xmlns="http://www.w3.org/2000/svg"><g fill="none" fill-rule="evenodd"><path d="m0 0h24v24h-24z" opacity="0"/><g fill="#000"><path d="m12.9486833 9.31622777-1.8973666-.63245554c.7647076-2.29412288 1.9913605-3.72521795 3.7061477-4.15391473.8928226-.22320566 2.2425356-1.66034691 2.2425356-2.5298575h2c0 1.79715607-1.9836203 4.02668149-3.7574644 4.4701425-.9518795.23796988-1.7252266 1.14020815-2.2938523 2.84608527z" fill-rule="nonzero" opacity=".3"/><path d="m7.05661608 8.02781729c.14520951-.01835707.29319194-.02781729.44338392-.02781729h9c.150192 0 .2981744.00946022.4433839.02781729.1830405-.01839598.3687281-.02781729.5566161-.02781729 3.0375661 0 5.5 2.4624339 5.5 5.5s-2.4624339 5.5-5.5 5.5c-1.7079369 0-3.2340462-.7784967-4.2428379-2h-2.5143242c-1.00879166 1.2215033-2.53490096 2-4.2428379 2-3.03756612 0-5.5-2.4624339-5.5-5.5s2.46243388-5.5 5.5-5.5c.18788804 0 .37357561.00942131.55661608.02781729zm-1.55661608 1.97218271c-.27614237 0-.5.2238576-.5.5v1c0 .2761424.22385763.5.5.5h1c.27614237 0 .5-.2238576.5-.5v-1c0-.2761424-.22385763-.5-.5-.5zm2 2c-.27614237 0-.5.2238576-.5.5v1c0 .2761424.22385763.5.5.5h1c.27614237 0 .5-.2238576.5-.5v-1c0-.2761424-.22385763-.5-.5-.5zm11.5 0c.5522847 0 1-.4477153 1-1s-.4477153-1-1-1-1 .4477153-1 1 .4477153 1 1 1zm-1 3c.5522847 0 1-.4477153 1-1s-.4477153-1-1-1-1 .4477153-1 1 .4477153 1 1 1zm-12.5-1c-.27614237 0-.5.2238576-.5.5v1c0 .2761424.22385763.5.5.5h1c.27614237 0 .5-.2238576.5-.5v-1c0-.2761424-.22385763-.5-.5-.5zm-2-2c-.27614237 0-.5.2238576-.5.5v1c0 .2761424.22385763.5.5.5h1c.27614237 0 .5-.2238576.5-.5v-1c0-.2761424-.22385763-.5-.5-.5z"/></g></g></svg>