<svg height="24" viewBox="0 0 24 24" width="24" xmlns="http://www.w3.org/2000/svg"><g fill="none" fill-rule="evenodd"><path d="m0 0h24v24h-24z" opacity="0"/><g fill="#000"><path d="m12.9486833 8.31622777-1.8973666-.63245554c.7647076-2.29412288 1.9913605-3.72521795 3.7061477-4.15391473.8928226-.22320566 2.2425356-1.66034691 2.2425356-2.5298575h2c0 1.79715607-1.9836203 4.02668149-3.7574644 4.4701425-.9518795.23796988-1.7252266 1.14020815-2.2938523 2.84608527z" fill-rule="nonzero" opacity=".3"/><path d="m7.81798367 7h8.38458483c1.3561291-.27051387 2.7468948.42723712 3.3238885 1.72046451l3.4236647 7.67352709c.5164589 1.1575495.2496788 2.5147818-.6664886 3.3907317l-.4443959.424888c-.0204257.0195291-.0411634.0387292-.0622051.0575929-1.0865428.9740799-2.7570075.8829107-3.7310874-.2036321l-2.7464763-3.0635721h-6.43490526l-2.74647629 3.0635721c-.97407989 1.0865428-2.64454461 1.177712-3.7310874.2036321-.02104167-.0188637-.04177936-.0380638-.06220505-.0575929l-.46709097-.4465868c-.90499813-.8652709-1.17743943-2.2016004-.68340151-3.3520968l3.28716346-7.65501903c.56698516-1.32037311 1.97952977-2.03827641 3.35651829-1.75590867zm.18201633 7c1.1045695 0 2-.8954305 2-2s-.8954305-2-2-2-2 .8954305-2 2 .8954305 2 2 2zm9-2c.5522847 0 1-.4477153 1-1s-.4477153-1-1-1-1 .4477153-1 1 .4477153 1 1 1zm-2 2c.5522847 0 1-.4477153 1-1s-.4477153-1-1-1-1 .4477153-1 1 .4477153 1 1 1z"/></g></g></svg>