<svg height="24" viewBox="0 0 24 24" width="24" xmlns="http://www.w3.org/2000/svg"><g fill="none" fill-rule="evenodd"><path d="m0 0h24v24h-24z" opacity="0"/><g fill="#000"><rect height="14" opacity=".3" rx="2" width="20" x="2" y="6"/><path d="m5 4h2c.55228475 0 1 .44771525 1 1v1h-4v-1c0-.55228475.44771525-1 1-1zm12 0h2c.5522847 0 1 .44771525 1 1v1h-4v-1c0-.55228475.4477153-1 1-1z"/><path d="m7 12v-1c0-.5522847.44771525-1 1-1s1 .4477153 1 1v1h1c.5522847 0 1 .4477153 1 1s-.4477153 1-1 1h-1v1c0 .5522847-.44771525 1-1 1s-1-.4477153-1-1v-1h-1c-.55228475 0-1-.4477153-1-1s.44771525-1 1-1z"/><rect height="2" rx="1" width="4" x="14" y="12"/></g></g></svg>