<svg height="24" viewBox="0 0 24 24" width="24" xmlns="http://www.w3.org/2000/svg"><g fill="none" fill-rule="evenodd"><path d="m0 0h24v24h-24z" opacity="0"/><g fill="#000"><path d="m2 13h20v5c0 1.1045695-.8954305 2-2 2h-16c-1.1045695 0-2-.8954305-2-2zm16.5 5c.8284271 0 1.5-.6715729 1.5-1.5s-.6715729-1.5-1.5-1.5-1.5.6715729-1.5 1.5.6715729 1.5 1.5 1.5zm-5 0c.8284271 0 1.5-.6715729 1.5-1.5s-.6715729-1.5-1.5-1.5-1.5.6715729-1.5 1.5.6715729 1.5 1.5 1.5z"/><path d="m5.79268604 8h12.41462796c.3384757 0 .6539782.17121884.8384436.45501165l2.9542424 4.54498835h-20l2.95424243-4.54498835c.18446532-.28379281.49996789-.45501165.83844361-.45501165z" opacity=".3"/></g></g></svg>