<svg height="24" viewBox="0 0 24 24" width="24" xmlns="http://www.w3.org/2000/svg"><g fill="none" fill-rule="evenodd"><path d="m0 0h24v24h-24z" opacity="0"/><g fill="#000"><path d="m19 16v-4c0-3.86599325-3.1340068-7-7-7-3.86599325 0-7 3.13400675-7 7v4zm2 0h-18v-4c0-4.97056275 4.02943725-9 9-9 4.9705627 0 9 4.02943725 9 9z" fill-rule="nonzero" opacity=".3"/><path d="m5 14h1c1.1045695 0 2 .8954305 2 2v3c0 1.1045695-.8954305 2-2 2h-1c-1.1045695 0-2-.8954305-2-2v-3c0-1.1045695.8954305-2 2-2zm13 0h1c1.1045695 0 2 .8954305 2 2v3c0 1.1045695-.8954305 2-2 2h-1c-1.1045695 0-2-.8954305-2-2v-3c0-1.1045695.8954305-2 2-2z"/></g></g></svg>