<svg height="24" viewBox="0 0 24 24" width="24" xmlns="http://www.w3.org/2000/svg"><g fill="none" fill-rule="evenodd"><path d="m0 0h24v24h-24z" opacity="0"/><g fill="#000"><path d="m17.9284376 4.46474822c1.2689616 1.10013302 2.0715624 2.72396366 2.0715624 4.53525178v7c0 3.3137085-2.6862915 6-6 6h-4c-3.3137085 0-6-2.6862915-6-6v-7c0-1.81128812.80260084-3.43511876 2.07156236-4.53525178.44671036 1.43616205 2.93086784 2.53525178 5.92843764 2.53525178s5.4817273-1.09908973 5.9284376-2.53525178z" opacity=".3"/><path d="m15.3482135 3.66753404c-.824609-.41230451-2.0314698-.66753404-3.3482135-.66753404s-2.52360448.25522953-3.3482135.66753404c-.22562157.11281078-.40259964.22789432-.52658232.33246596.12398268.10457164.30096075.21965518.52658232.33246596.82460902.41230451 2.0314698.66753404 3.3482135.66753404s2.5236045-.25522953 3.3482135-.66753404c.2256216-.11281078.4025996-.22789432.5265823-.33246596-.1239827-.10457164-.3009607-.21965518-.5265823-.33246596z"/></g></g></svg>