<svg height="24" viewBox="0 0 24 24" width="24" xmlns="http://www.w3.org/2000/svg"><g fill="none" fill-rule="evenodd"><path d="m0 0h24v24h-24z" opacity="0"/><g fill="#000"><path d="m5 5v11h14v-11zm0-2h14c1.4201608 0 2 .7163444 2 1.6v12.8c0 .8836556-.5798392 1.6-2 1.6h-14c-1.42016079 0-2-.7163444-2-1.6v-12.8c0-.8836556.57983921-1.6 2-1.6zm7 15c.2761424 0 .5-.2238576.5-.5s-.2238576-.5-.5-.5-.5.2238576-.5.5.2238576.5.5.5z" fill-rule="nonzero"/><path d="m5 5v11h14v-11z" opacity=".3"/><rect height="1" opacity=".3" rx=".5" width="4" x="10" y="20"/></g></g></svg>