<svg height="24" viewBox="0 0 24 24" width="24" xmlns="http://www.w3.org/2000/svg"><g fill="none" fill-rule="evenodd"><path d="m0 0h24v24h-24z" opacity="0"/><g fill="#000"><path d="m8 2.5c-.69035594 0-1.25.55964406-1.25 1.25v16.5c0 .6903559.55964406 1.25 1.25 1.25h8c.6903559 0 1.25-.5596441 1.25-1.25v-16.5c0-.69035594-.5596441-1.25-1.25-1.25z" opacity=".3"/><path d="m8 2.5c-.69035594 0-1.25.55964406-1.25 1.25v16.5c0 .6903559.55964406 1.25 1.25 1.25h8c.6903559 0 1.25-.5596441 1.25-1.25v-16.5c0-.69035594-.5596441-1.25-1.25-1.25zm0-1.5h8c1.5187831 0 2.75 1.23121694 2.75 2.75v16.5c0 1.5187831-1.2312169 2.75-2.75 2.75h-8c-1.51878306 0-2.75-1.2312169-2.75-2.75v-16.5c0-1.51878306 1.23121694-2.75 2.75-2.75zm1.5.75h5c.2761424 0 .5.22385763.5.5v1c0 .27614237-.2238576.5-.5.5h-5c-.27614237 0-.5-.22385763-.5-.5v-1c0-.27614237.22385763-.5.5-.5z" fill-rule="nonzero"/></g></g></svg>