<svg height="24" viewBox="0 0 24 24" width="24" xmlns="http://www.w3.org/2000/svg"><g fill="none" fill-rule="evenodd"><path d="m0 0h24v24h-24z" opacity="0"/><g fill="#000"><path d="m11.9486833 8.31622777-1.8973666-.63245554c.7647076-2.29412288 1.9913605-3.72521795 3.7061477-4.15391473.8928226-.22320566 2.2425356-1.66034691 2.2425356-2.5298575h2c0 1.79715607-1.9836203 4.02668149-3.7574644 4.4701425-.9518795.23796988-1.7252266 1.14020815-2.2938523 2.84608527z" fill-rule="nonzero" opacity=".3"/><path d="m3 7h18c1.1045695 0 2 .8954305 2 2v10c0 1.1045695-.8954305 2-2 2h-18c-1.1045695 0-2-.8954305-2-2v-10c0-1.1045695.8954305-2 2-2zm4.5 2c-.27614237 0-.5.22385763-.5.5v1c0 .2761424.22385763.5.5.5h1c.27614237 0 .5-.2238576.5-.5v-1c0-.27614237-.22385763-.5-.5-.5zm-4 0c-.27614237 0-.5.22385763-.5.5v1c0 .2761424.22385763.5.5.5h1c.27614237 0 .5-.2238576.5-.5v-1c0-.27614237-.22385763-.5-.5-.5zm2 4c-.27614237 0-.5.2238576-.5.5v1c0 .2761424.22385763.5.5.5h1c.27614237 0 .5-.2238576.5-.5v-1c0-.2761424-.22385763-.5-.5-.5zm4 0c-.27614237 0-.5.2238576-.5.5v1c0 .2761424.22385763.5.5.5h1c.2761424 0 .5-.2238576.5-.5v-1c0-.2761424-.2238576-.5-.5-.5zm4 0c-.2761424 0-.5.2238576-.5.5v1c0 .2761424.2238576.5.5.5h1c.2761424 0 .5-.2238576.5-.5v-1c0-.2761424-.2238576-.5-.5-.5zm4 0c-.2761424 0-.5.2238576-.5.5v1c0 .2761424.2238576.5.5.5h1c.2761424 0 .5-.2238576.5-.5v-1c0-.2761424-.2238576-.5-.5-.5zm-6-4c-.2761424 0-.5.22385763-.5.5v1c0 .2761424.2238576.5.5.5h1c.2761424 0 .5-.2238576.5-.5v-1c0-.27614237-.2238576-.5-.5-.5zm-6 8c-.27614237 0-.5.2238576-.5.5v1c0 .2761424.22385763.5.5.5h13c.2761424 0 .5-.2238576.5-.5v-1c0-.2761424-.2238576-.5-.5-.5zm10-8c-.2761424 0-.5.22385763-.5.5v1c0 .2761424.2238576.5.5.5h1c.2761424 0 .5-.2238576.5-.5v-1c0-.27614237-.2238576-.5-.5-.5zm4 0c-.2761424 0-.5.22385763-.5.5v1c0 .2761424.2238576.5.5.5h1c.2761424 0 .5-.2238576.5-.5v-1c0-.27614237-.2238576-.5-.5-.5z"/></g></g></svg>