<svg height="24" viewBox="0 0 24 24" width="24" xmlns="http://www.w3.org/2000/svg"><g fill="none" fill-rule="evenodd"><path d="m0 0h24v24h-24z" opacity="0"/><g fill="#000"><path d="m6 8v8h12v-8zm14 8h1.381966c.3787721 0 .7250352.2140024.8944272.5527864l.2236068.4472136c.1706654.3413307.0323138.7563856-.309017.927051-.0959467.0479734-.2017453.072949-.309017.072949h-19.76393201c-.38161938 0-.69098301-.3093636-.69098301-.690983 0-.1072717.02497565-.2130703.07294902-.309017l.2236068-.4472136c.16939201-.338784.51565513-.5527864.89442719-.5527864h1.38196601v-8c0-1.1045695.8954305-2 2-2h12c1.1045695 0 2 .8954305 2 2z" fill-rule="nonzero"/><path d="m6 8v8h12v-8z" opacity=".3"/></g></g></svg>