<svg height="24" viewBox="0 0 24 24" width="24" xmlns="http://www.w3.org/2000/svg"><g fill="none" fill-rule="evenodd"><path d="m0 0h24v24h-24z" opacity="0"/><g fill="#000"><path d="m16.4508979 17.4029496-1.2724001-1.5430482c1.1460032-.9449962 1.8215022-2.3461542 1.8215022-3.8599014 0-1.5087915-.6710418-2.90581596-1.8106159-3.85089879l1.2767279-1.53946933c1.5929816 1.32110717 2.533888 3.27995571 2.533888 5.39036812 0 2.1173586-.9471394 4.0819686-2.5491021 5.4029496zm2.5702133 3.0652132-1.277301-1.5389938c2.0488934-1.7004965 3.2561898-4.2151593 3.2561898-6.929169 0-2.71025768-1.2039334-5.22179268-3.2479685-6.92233744l1.2791175-1.53748444c2.4960327 2.07658631 3.968851 5.14904422 3.968851 8.45982188 0 3.3153667-1.476926 6.3916375-3.9788888 8.4681628zm-11.47200913-3.0652132c-1.60196263-1.320981-2.54910207-3.285591-2.54910207-5.4029496 0-2.11041241.94090645-4.06926095 2.53388797-5.39036812l1.27672791 1.53946933c-1.13957406.94508283-1.81061588 2.34210729-1.81061588 3.85089879 0 1.5137472.67549895 2.9149052 1.82150222 3.8599014zm-2.57021327 3.0652132c-2.50196277-2.0765253-3.9788888-5.1527961-3.9788888-8.4681628 0-3.31077766 1.47281829-6.38323557 3.96885102-8.45982188l1.2791175 1.53748444c-2.04403513 1.70054476-3.24796852 4.21207976-3.24796852 6.92233744 0 2.7140097 1.20729644 5.2286725 3.25618985 6.929169z" fill-rule="nonzero" opacity=".3"/><path d="m11 14.2919782c-.8829524-.3857784-1.5-1.2668187-1.5-2.2919782 0-1.3807119 1.1192881-2.5 2.5-2.5s2.5 1.1192881 2.5 2.5c0 1.0251595-.6170476 1.9061998-1.5 2.2919782v5.7080218c0 .5522847-.4477153 1-1 1s-1-.4477153-1-1z"/></g></g></svg>