<svg height="24" viewBox="0 0 24 24" width="24" xmlns="http://www.w3.org/2000/svg"><g fill="none" fill-rule="evenodd"><path d="m0 0h24v24h-24z" opacity="0"/><g fill="#000"><path d="m12.9975507 17.929461c.0016238.0233021.0024493.0468242.0024493.070539v3c0 .5522847-.4477153 1-1 1s-1-.4477153-1-1v-3c0-.0237148.0008255-.0472369.0024493-.070539-3.39348814-.4841753-6.0024493-3.4021404-6.0024493-6.929461h2c0 2.7614237 2.23857625 5 5 5 2.7614237 0 5-2.2385763 5-5h2c0 3.5273206-2.6089612 6.4452857-6.0024493 6.929461z" fill-rule="nonzero"/><rect height="12" opacity=".3" rx="3" width="6" x="9" y="2"/></g></g></svg>