<svg height="24" viewBox="0 0 24 24" width="24" xmlns="http://www.w3.org/2000/svg"><g fill="none" fill-rule="evenodd"><path d="m0 0h24v24h-24z" opacity="0"/><g fill="#000"><path d="m16 17v4c0 .5522847-.4477153 1-1 1h-6c-.55228475 0-1-.4477153-1-1v-4h-3c-1.1045695 0-2-.8954305-2-2v-7c0-1.1045695.8954305-2 2-2h14c1.1045695 0 2 .8954305 2 2v7c0 1.1045695-.8954305 2-2 2zm1.5-6c.8284271 0 1.5-.6715729 1.5-1.5 0-.82842712-.6715729-1.5-1.5-1.5s-1.5.67157288-1.5 1.5c0 .8284271.6715729 1.5 1.5 1.5zm-7.5 3v6h4v-6z"/><rect height="2" opacity=".3" rx="1" width="8" x="8" y="2"/></g></g></svg>