<svg height="24" viewBox="0 0 24 24" width="24" xmlns="http://www.w3.org/2000/svg"><g fill="none" fill-rule="evenodd"><path d="m0 0h24v24h-24z" opacity="0"/><g fill="#000"><path d="m4 7h16c1.1045695 0 2 .8954305 2 2v10c0 1.1045695-.8954305 2-2 2h-16c-1.1045695 0-2-.8954305-2-2v-10c0-1.1045695.8954305-2 2-2zm12 11c2.209139 0 4-1.790861 4-4s-1.790861-4-4-4-4 1.790861-4 4 1.790861 4 4 4z" opacity=".3"/><path d="m20.6185961 7.09750181c-.1947923-.06329297-.4026993-.09750181-.6185961-.09750181h-2.7985987l-9.18863614-5.12672902c-.48229425-.26909237-.65512852-.87821158-.38603614-1.36050582.26909237-.48229425.87821158-.65512852 1.36050582-.38603614l11.12451176 6.20683594c.2935352.16377575.4724398.45350483.5068495.76393685z"/><path d="m16 16c1.1045695 0 2-.8954305 2-2s-.8954305-2-2-2-2 .8954305-2 2 .8954305 2 2 2z"/><rect height="2" opacity=".3" rx="1" width="5" x="4" y="11"/><rect height="2" opacity=".3" rx="1" width="5" x="4" y="15"/></g></g></svg>