<svg height="24" viewBox="0 0 24 24" width="24" xmlns="http://www.w3.org/2000/svg"><g fill="none" fill-rule="evenodd"><path d="m0 0h24v24h-24z" opacity="0"/><g fill="#000"><path d="m15 15v-5c0-.55228475.4477153-1 1-1s1 .44771525 1 1v5h3c1.1045695 0 2 .8954305 2 2v2c0 1.1045695-.8954305 2-2 2h-16c-1.1045695 0-2-.8954305-2-2v-2c0-1.1045695.8954305-2 2-2zm-10 2c-.55228475 0-1 .4477153-1 1s.44771525 1 1 1h5c.5522847 0 1-.4477153 1-1s-.4477153-1-1-1z"/><path d="m20.5 7.7155722-1.2866696 1.14157066c-.7879844-1.02817003-1.956339-1.63421349-3.2185759-1.63421349-1.2581047 0-2.4230125.60204461-3.2110691 1.6244465l-1.2836854-1.14545344c1.1016042-1.42918952 2.7349886-2.273351 4.4947545-2.273351 1.7655578 0 3.4037464.84975359 4.5052455 2.28700077zm3-2.25504158-1.3637127 1.11089795c-1.5068213-1.78196948-3.7350807-2.83198281-6.1399828-2.83198281-2.4015774 0-4.6270653 1.04708841-6.1339293 2.82483253l-1.3623752-1.11247776c1.840077-2.17085677 4.5626024-3.45180053 7.4963045-3.45180053 2.9377685 0 5.6636726 1.28451636 7.5036955 3.46053062z" fill-rule="nonzero" opacity=".3"/></g></g></svg>