<svg height="24" viewBox="0 0 24 24" width="24" xmlns="http://www.w3.org/2000/svg"><g fill="none" fill-rule="evenodd"><path d="m0 0h24v24h-24z" opacity="0"/><g fill="#000"><rect height="7" rx="2" width="18" x="3" y="13"/><path d="m17.4029496 9.54910207-1.5430482 1.27240013c-.9449962-1.14600325-2.3461542-1.8215022-3.8599014-1.8215022-1.5087915 0-2.90581596.67104182-3.85089879 1.8106159l-1.53946933-1.27672793c1.32110717-1.59298152 3.27995571-2.53388797 5.39036812-2.53388797 2.1173586 0 4.0819686.94713944 5.4029496 2.54910207zm3.0652132-2.57021327-1.5389938 1.27730105c-1.7004965-2.04889341-4.2151593-3.25618985-6.929169-3.25618985-2.71025768 0-5.22179268 1.20393339-6.92233744 3.24796852l-1.53748444-1.2791175c2.07658631-2.49603273 5.14904422-3.96885102 8.45982188-3.96885102 3.3153667 0 6.3916375 1.47692603 8.4681628 3.9788888z" fill-rule="nonzero" opacity=".3"/></g></g></svg>