<svg height="24" viewBox="0 0 24 24" width="24" xmlns="http://www.w3.org/2000/svg"><g fill="none" fill-rule="evenodd"><path d="m0 0h24v24h-24z" opacity="0"/><g fill="#000"><path d="m7 2h10c1.1045695 0 2 .8954305 2 2v16c0 1.1045695-.8954305 2-2 2h-10c-1.1045695 0-2-.8954305-2-2v-16c0-1.1045695.8954305-2 2-2zm5 17c-2.209139 0-4-1.790861-4-4s1.790861-4 4-4 4 1.790861 4 4-1.790861 4-4 4zm0-12c-.8284271 0-1.5-.67157288-1.5-1.5s.6715729-1.5 1.5-1.5 1.5.67157288 1.5 1.5-.6715729 1.5-1.5 1.5z"/><path d="m12 17c1.1045695 0 2-.8954305 2-2s-.8954305-2-2-2-2 .8954305-2 2 .8954305 2 2 2z" opacity=".3"/></g></g></svg>