<svg height="24" viewBox="0 0 24 24" width="24" xmlns="http://www.w3.org/2000/svg"><g fill="none" fill-rule="evenodd"><path d="m0 0h24v24h-24z" opacity="0"/><g fill="#000"><path d="m3 5h18c.5522847 0 1 .44771525 1 1v11c0 .5522847-.4477153 1-1 1h-18c-.55228475 0-1-.4477153-1-1v-11c0-.55228475.44771525-1 1-1zm6.632 5.066h1.4v-1.022h-3.997v1.022h1.4v3.934h1.197zm5.303 3.934 1.911-4.956h-1.323l-1.141 3.514h-.028l-1.148-3.514h-1.344l1.876 4.956z"/><rect height="1" opacity=".3" rx=".5" width="18" x="3" y="19"/></g></g></svg>