<svg height="24" viewBox="0 0 24 24" width="24" xmlns="http://www.w3.org/2000/svg"><g fill="none" fill-rule="evenodd"><path d="m0 0h24v24h-24z" opacity="0"/><g fill="#000"><path d="m11.5 17.4497475-4.94974747-4.9497475c-.39052429-.3905243-.39052429-1.0236893 0-1.4142136l7.07106777-7.07106777c.7810486-.78104859 2.0473786-.78104859 2.8284272 0l3.5355339 3.5355339c.7810486.78104859.7810486 2.04737854 0 2.82842717l-7.0710678 7.0710678c-.3905243.3905243-1.0236893.3905243-1.4142136 0z"/><path d="m6.90380592 19.9246212-2.82842712-2.8284271c-.19526215-.1952622-.19526215-.5118447 0-.7071068l2.47487373-2.4748737 3.53553387 3.5355339-2.4748737 2.4748737c-.19526214.1952621-.51184463.1952621-.70710678 0z" opacity=".3"/></g></g></svg>