<svg height="24" viewBox="0 0 24 24" width="24" xmlns="http://www.w3.org/2000/svg"><g fill="none" fill-rule="evenodd"><path d="m0 0h24v24h-24z" opacity="0"/><g fill="#000"><path d="m9 17h6v3.5c0 .8284271-.6715729 1.5-1.5 1.5h-3c-.82842712 0-1.5-.6715729-1.5-1.5z" opacity=".3"/><path d="m12 17c2.7614237 0 5-2.2385763 5-5 0-2.76142375-2.2385763-5-5-5-2.76142375 0-5 2.23857625-5 5 0 2.7614237 2.23857625 5 5 5z" opacity=".3"/><path d="m10.5 2h3c.8284271 0 1.5.67157288 1.5 1.5v3.5h-6v-3.5c0-.82842712.67157288-1.5 1.5-1.5z" opacity=".3"/><path d="m12 17c2.7614237 0 5-2.2385763 5-5 0-2.76142375-2.2385763-5-5-5-2.76142375 0-5 2.23857625-5 5 0 2.7614237 2.23857625 5 5 5zm0 2c-3.86599325 0-7-3.1340068-7-7 0-3.86599325 3.13400675-7 7-7 3.8659932 0 7 3.13400675 7 7 0 3.8659932-3.1340068 7-7 7z" fill-rule="nonzero"/></g></g></svg>