<svg height="24" viewBox="0 0 24 24" width="24" xmlns="http://www.w3.org/2000/svg"><g fill="none" fill-rule="evenodd"><path d="m0 0h24v24h-24z" opacity="0"/><g fill="#000"><path d="m9 8c-.55228475 0-1 .44771525-1 1v6c0 .5522847.44771525 1 1 1h6c.5522847 0 1-.4477153 1-1v-6c0-.55228475-.4477153-1-1-1zm0-2h6c1.6568542 0 3 1.34314575 3 3v6c0 1.6568542-1.3431458 3-3 3h-6c-1.65685425 0-3-1.3431458-3-3v-6c0-1.65685425 1.34314575-3 3-3z" fill-rule="nonzero"/><path d="m9 8c-.55228475 0-1 .44771525-1 1v6c0 .5522847.44771525 1 1 1h6c.5522847 0 1-.4477153 1-1v-6c0-.55228475-.4477153-1-1-1z" opacity=".3"/><path d="m9 18h6v2.5c0 .8284271-.6715729 1.5-1.5 1.5h-3c-.82842712 0-1.5-.6715729-1.5-1.5z" opacity=".3"/><path d="m10.5 2h3c.8284271 0 1.5.67157288 1.5 1.5v2.5h-6v-2.5c0-.82842712.67157288-1.5 1.5-1.5z" opacity=".3"/></g></g></svg>