<svg height="24" viewBox="0 0 24 24" width="24" xmlns="http://www.w3.org/2000/svg"><g fill="none" fill-rule="evenodd"><path d="m0 0h24v24h-24z" opacity="0"/><g fill="#000"><path d="m19.366142 13.9305937-2.1041567 1.7350911c-1.2886311-1.5627317-3.1993011-2.4838666-5.2635018-2.4838666-2.05744305 0-3.96247635.915057-5.25122566 2.4690216l-2.09927636-1.7409926c1.80150978-2.1722475 4.47266687-3.4553017 7.35050202-3.4553017 2.8873071 0 5.5663207 1.2915537 7.3676585 3.4760482zm4.1798362-3.5048362-2.0986279 1.7417741c-2.3188589-2.79394555-5.7479445-4.44025887-9.4488668-4.44025887-3.69580597 0-7.12062642 1.64172735-9.43955109 4.42904797l-2.0965697-1.7442511c2.83170862-3.40368103 7.02142395-5.4120696 11.53612079-5.4120696 4.5209545 0 8.7158693 2.01399004 11.5474947 5.4257575z" fill-rule="nonzero" opacity=".3"/><path d="m15.1189503 17.3544974-2.0797061 1.7643239-1.077321.8811787-1.0287396-.8514185-2.12828749-1.7054058c.77063023-.9617199 1.93648089-1.5340848 3.19358739-1.5340848 1.2165955 0 2.3489685.5359987 3.1204668 1.4454065z"/></g></g></svg>