<svg height="24" viewBox="0 0 24 24" width="24" xmlns="http://www.w3.org/2000/svg"><g fill="none" fill-rule="evenodd"><path d="m0 0h24v24h-24z" opacity="0"/><g fill="#000"><path d="m5.74714567 13.0425758c-1.65304205-1.0685402-2.74714567-2.9277872-2.74714567-5.0425758 0-3.3137085 2.6862915-6 6-6 2.7957591 0 5.1449096 1.91215918 5.8109738 4.5h2.4390262c2.0710678 0 3.75 1.67893219 3.75 3.75 0 2.0710678-1.6789322 3.75-3.75 3.75h-9c-.96182105 0-1.83906822-.3621038-2.50285433-.9574242z" opacity=".3"/><path d="m11.1288761 15.7336977v1.9564735h-2.00767129c-.27614237 0-.5.2238576-.5.5v1.0232987c0 .2761424.22385763.5.5.5h2.00767129v1.9564735c0 .2761424.2238576.5.5.5.1183116 0 .2327903-.0419538.3230849-.1184032l3.5056612-2.9681228c.2107501-.1784349.2369467-.4939317.0585119-.7046818-.0178538-.0210871-.0374248-.0406581-.0585119-.0585119l-3.5056612-2.9681228c-.2107501-.1784349-.5262468-.1522382-.7046817.0585119-.0764494.0902947-.1184032.2047733-.1184032.3230849z" fill-rule="nonzero" transform="matrix(0 -1 1 0 -6.701811 30.621205)"/></g></g></svg>