<svg height="24" viewBox="0 0 24 24" width="24" xmlns="http://www.w3.org/2000/svg"><g fill="none" fill-rule="evenodd"><path d="m0 0h24v24h-24z" opacity="0"/><g fill="#000"><path d="m5.85714286 2h7.87926854c.3546848 0 .6978952.12568431.9686994.35473959l4.7635886 4.02920201c.3369538.28500673.5313006.70393663.5313006 1.14526041v12.55413129c0 1.7905418-.0204479 1.9166667-1.8571429 1.9166667h-12.28571424c-1.83669499 0-1.85714286-.1261249-1.85714286-1.9166667v-16.16666663c0-1.79054178.02044787-1.91666667 1.85714286-1.91666667z" fill-rule="nonzero" opacity=".3"/><rect height="3.142857" opacity=".3" rx=".75" transform="matrix(.70710678 -.70710678 .70710678 .70710678 -5.94373 9.904762)" width="3.142857" x="7.412812" y="10.555669"/><rect height="3.142857" opacity=".3" rx=".75" transform="matrix(.70710678 -.70710678 .70710678 .70710678 -4.102687 14.349433)" width="3.142857" x="13.698526" y="10.555669"/><rect height="3.142857" rx=".75" transform="matrix(.70710678 -.70710678 .70710678 .70710678 -7.245544 13.04762)" width="3.142857" x="10.555669" y="13.698526"/><rect height="3.142857" rx=".75" transform="matrix(.70710678 -.70710678 .70710678 .70710678 -2.800872 11.206576)" width="3.142857" x="10.555669" y="7.412812"/></g></g></svg>