<svg height="24" viewBox="0 0 24 24" width="24" xmlns="http://www.w3.org/2000/svg"><g fill="none" fill-rule="evenodd"><path d="m0 0h24v24h-24z" opacity="0"/><g fill="#000"><path d="m2 13c0-.5.5-1 1-1s1 .5 1 1v5c0 1.1045695.8954305 2 2 2h12c1.1045695 0 2-.8954305 2-2v-5c0-.5522847.4477153-1 1-1s1 .4477153 1 1v5c0 2.209139-1.790861 4-4 4h-12c-2.209139 0-4-1.790861-4-4 0-3 0-4.6666667 0-5z" fill-rule="nonzero" opacity=".3"/><rect height="14" opacity=".3" rx="1" transform="matrix(-1 0 0 -1 24 16)" width="2" x="11" y="1"/><path d="m7.70710678 15.7071068c-.39052429.3905243-1.02368927.3905243-1.41421356 0s-.39052429-1.0236893 0-1.4142136l4.99999998-4.99999998c.3760817-.37608169.9807432-.39198283 1.3760715-.03618737l5 4.50000005c.4105101.369459.4437885 1.0017488.0743294 1.4122588-.369459.4105101-1.0017488.4437885-1.4122588.0743294l-4.2947978-3.865318z" fill-rule="nonzero" transform="matrix(-1 0 0 -1 24.000008 24.999998)"/></g></g></svg>