<svg height="24" viewBox="0 0 24 24" width="24" xmlns="http://www.w3.org/2000/svg"><g fill="none" fill-rule="evenodd"><path d="m0 0h24v24h-24z" opacity="0"/><g fill="#000"><path d="m5.85714286 2h7.87926854c.3546848 0 .6978952.12568431.9686994.35473959l4.7635886 4.02920201c.3369538.28500673.5313006.70393663.5313006 1.14526041v12.55413129c0 1.7905418-.0204479 1.9166667-1.8571429 1.9166667h-12.28571424c-1.83669499 0-1.85714286-.1261249-1.85714286-1.9166667v-16.16666663c0-1.79054178.02044787-1.91666667 1.85714286-1.91666667z" fill-rule="nonzero" opacity=".3"/><path d="m14.8875071 11.8306874h-1.9564735v-2.00767134c0-.27614237-.2238576-.5-.5-.5h-1.0232987c-.2761424 0-.5.22385763-.5.5v2.00767134h-1.9564735c-.27614237 0-.5.2238576-.5.5 0 .1183116.04195378.2327902.11840318.3230849l2.96812282 3.5056611c.1784349.2107501.4939317.2369468.7046818.0585119.0210871-.0178538.0406581-.0374247.0585119-.0585119l2.9681228-3.5056611c.1784349-.2107501.1522382-.5262469-.0585119-.7046818-.0902947-.0764494-.2047733-.1184031-.3230849-.1184031z"/></g></g></svg>