<svg height="24" viewBox="0 0 24 24" width="24" xmlns="http://www.w3.org/2000/svg"><g fill="none" fill-rule="evenodd"><path d="m0 0h24v24h-24z" opacity="0"/><g fill="#000"><path d="m3.5 21h17c.8284271 0 1.5-.6715729 1.5-1.5v-11c0-.82842712-.6715729-1.5-1.5-1.5h-10.5l-2.56066017-2.56066017c-.28130457-.28130457-.66283544-.43933983-1.06066017-.43933983h-2.87867966c-.82842712 0-1.5.67157288-1.5 1.5v14c0 .8284271.67157288 1.5 1.5 1.5z" opacity=".3"/><path d="m14.8875071 12.8306874h-1.9564735v-2.0076713c0-.2761424-.2238576-.5-.5-.5h-1.0232987c-.2761424 0-.5.2238576-.5.5v2.0076713h-1.9564735c-.27614237 0-.5.2238576-.5.5 0 .1183116.04195378.2327902.11840318.3230849l2.96812282 3.5056611c.1784349.2107501.4939317.2369468.7046818.0585119.0210871-.0178538.0406581-.0374247.0585119-.0585119l2.9681228-3.5056611c.1784349-.2107501.1522382-.5262469-.0585119-.7046818-.0902947-.0764494-.2047733-.1184031-.3230849-.1184031z"/></g></g></svg>