<svg height="24" viewBox="0 0 24 24" width="24" xmlns="http://www.w3.org/2000/svg"><g fill="none" fill-rule="evenodd"><path d="m0 0h24v24h-24z" opacity="0"/><g fill="#000"><path d="m5.85714286 2h7.87926854c.3546848 0 .6978952.12568431.9686994.35473959l4.7635886 4.02920201c.3369538.28500673.5313006.70393663.5313006 1.14526041v12.55413129c0 1.7905418-.0204479 1.9166667-1.8571429 1.9166667h-12.28571424c-1.83669499 0-1.85714286-.1261249-1.85714286-1.9166667v-16.16666663c0-1.79054178.02044787-1.91666667 1.85714286-1.91666667z" fill-rule="nonzero" opacity=".3"/><path d="m8.63657261 15.4632487c-.98328307-.619635-1.63657261-1.7151499-1.63657261-2.9632487 0-1.9329966 1.56700338-3.5 3.5-3.5 1.763236 0 3.2219407 1.3038529 3.4645556 3h1.0354444c1.1045695 0 2 .8954305 2 2s-.8954305 2-2 2h-5c-.52689348 0-1.00619927-.2037471-1.36342739-.5367513z"/></g></g></svg>