<svg height="24" viewBox="0 0 24 24" width="24" xmlns="http://www.w3.org/2000/svg"><g fill="none" fill-rule="evenodd"><path d="m0 0h24v24h-24z" opacity="0"/><g fill="#000"><path d="m5.85714286 2h7.87926854c.3546848 0 .6978952.12568431.9686994.35473959l4.7635886 4.02920201c.3369538.28500673.5313006.70393663.5313006 1.14526041v12.55413129c0 1.7905418-.0204479 1.9166667-1.8571429 1.9166667h-12.28571424c-1.83669499 0-1.85714286-.1261249-1.85714286-1.9166667v-16.16666663c0-1.79054178.02044787-1.91666667 1.85714286-1.91666667zm5.01785714 13.75c.2395833 0 .4791667-.0958333.6708333-.2875l3.8333334-3.8333333c.3833333-.3833334.3833333-.9583334 0-1.3416667-.3833334-.38333333-.9583334-.38333333-1.3416667 0l-3.1625 3.1625-1.24583333-1.2458333c-.33541667-.3833334-.95833334-.3833334-1.34166667 0-.38333333.3833333-.38333333.9583333 0 1.3416666l1.9166667 1.9166667c.1916666.1916667.43125.2875.6708333.2875z" fill-rule="nonzero" opacity=".3"/><path d="m10.875 15.75c-.2395833 0-.4791667-.0958333-.6708333-.2875l-1.9166667-1.9166667c-.38333333-.3833333-.38333333-.9583333 0-1.3416666.38333333-.3833334 1.00625-.3833334 1.34166667 0l1.24583333 1.2458333 3.1625-3.1625c.3833333-.38333333.9583333-.38333333 1.3416667 0 .3833333.3833333.3833333.9583333 0 1.3416667l-3.8333334 3.8333333c-.1916666.1916667-.43125.2875-.6708333.2875z"/></g></g></svg>