<svg height="24" viewBox="0 0 24 24" width="24" xmlns="http://www.w3.org/2000/svg"><g fill="none" fill-rule="evenodd"><path d="m0 0h24v24h-24z" opacity="0"/><g fill="#000"><path d="m3.5 21h17c.8284271 0 1.5-.6715729 1.5-1.5v-11c0-.82842712-.6715729-1.5-1.5-1.5h-10.5l-2.56066017-2.56066017c-.28130457-.28130457-.66283544-.43933983-1.06066017-.43933983h-2.87867966c-.82842712 0-1.5.67157288-1.5 1.5v14c0 .8284271.67157288 1.5 1.5 1.5z" opacity=".3"/><path d="m11 13v-2c0-.5522847.4477153-1 1-1s1 .4477153 1 1v2h2c.5522847 0 1 .4477153 1 1s-.4477153 1-1 1h-2v2c0 .5522847-.4477153 1-1 1s-1-.4477153-1-1v-2h-2c-.55228475 0-1-.4477153-1-1s.44771525-1 1-1z"/></g></g></svg>