<svg height="24" viewBox="0 0 24 24" width="24" xmlns="http://www.w3.org/2000/svg"><g fill="none" fill-rule="evenodd"><path d="m0 0h24v24h-24z" opacity="0"/><g fill="#000"><path d="m3.5 21h17c.8284271 0 1.5-.6715729 1.5-1.5v-11c0-.82842712-.6715729-1.5-1.5-1.5h-10.5l-2.56066017-2.56066017c-.28130457-.28130457-.66283544-.43933983-1.06066017-.43933983h-2.87867966c-.82842712 0-1.5.67157288-1.5 1.5v14c0 .8284271.67157288 1.5 1.5 1.5z" opacity=".3"/><path d="m12.6706167 18.7881514 3.2991282-4.9486922c.2297643-.3446465.1366339-.8102985-.2080126-1.0400629-.1232007-.0821337-.2679564-.1259623-.4160252-.1259623h-2.6864991v-2.97343419c0-.41421356-.3357865-.75-.75-.75-.2507649 0-.4849384.12532585-.6240377.33397485l-3.29912818 4.94869224c-.22976435.3446465-.13663394.8102985.20801257 1.0400628.12320064.0821338.26795641.1259623.41602515.1259623h2.68649916v2.9734343c0 .4142135.3357864.75.75.75.2507649 0 .4849384-.1253259.6240377-.3339749z" opacity=".3"/></g></g></svg>