<svg height="24" viewBox="0 0 24 24" width="24" xmlns="http://www.w3.org/2000/svg"><g fill="none" fill-rule="evenodd"><path d="m0 0h24v24h-24z" opacity="0"/><g fill="#000"><path d="m2 13.1500272v-7.6500272c0-.82842712.67157288-1.5 1.5-1.5h2.87867966c.39782473 0 .7793556.15803526 1.06066017.43933983l2.56066017 2.56066017h10.5c.8284271 0 1.5.67157288 1.5 1.5v11c0 .8284271-.6715729 1.5-1.5 1.5h-9.5164023c.0108776-.1652618.0164023-.3319857.0164023-.5 0-4.1421356-3.35786438-7.5-7.5-7.5-.51369876 0-1.01533509.0516454-1.5.1500272z"/><path d="m4.5 16c.55228475 0 1 .4477153 1 1v2c0 .5522847-.44771525 1-1 1s-1-.4477153-1-1v-2c0-.5522847.44771525-1 1-1zm0 7c-.55228475 0-1-.4477153-1-1s.44771525-1 1-1 1 .4477153 1 1-.44771525 1-1 1z" opacity=".3"/></g></g></svg>