<svg height="24" viewBox="0 0 24 24" width="24" xmlns="http://www.w3.org/2000/svg"><g fill="none" fill-rule="evenodd"><path d="m0 0h24v24h-24z" opacity="0"/><g fill="#000"><path d="m3.5 21h17c.8284271 0 1.5-.6715729 1.5-1.5v-11c0-.82842712-.6715729-1.5-1.5-1.5h-10.5l-2.56066017-2.56066017c-.28130457-.28130457-.66283544-.43933983-1.06066017-.43933983h-2.87867966c-.82842712 0-1.5.67157288-1.5 1.5v14c0 .8284271.67157288 1.5 1.5 1.5z" opacity=".3"/><path d="m14.35 10.5c-.80475 0-1.745875.9123161-2.25 1.5-.504125-.5876839-1.44525-1.5-2.25-1.5-1.4245 0-2.25 1.1110899-2.25 2.5252044 0 1.5665304 1.5 3.2247956 4.5 4.9747956 3-1.75 4.5-3.375 4.5-4.875 0-1.4141144-.8255-2.625-2.25-2.625z" fill-rule="nonzero" opacity=".3"/></g></g></svg>