<svg height="24" viewBox="0 0 24 24" width="24" xmlns="http://www.w3.org/2000/svg"><g fill="none" fill-rule="evenodd"><path d="m0 0h24v24h-24z" opacity="0"/><g fill="#000"><path d="m3.5 21h17c.8284271 0 1.5-.6715729 1.5-1.5v-11c0-.82842712-.6715729-1.5-1.5-1.5h-10.5l-2.56066017-2.56066017c-.28130457-.28130457-.66283544-.43933983-1.06066017-.43933983h-2.87867966c-.82842712 0-1.5.67157288-1.5 1.5v14c0 .8284271.67157288 1.5 1.5 1.5z" opacity=".3"/><path d="m8.63657261 16.4632487c-.98328307-.619635-1.63657261-1.7151499-1.63657261-2.9632487 0-1.9329966 1.56700338-3.5 3.5-3.5 1.763236 0 3.2219407 1.3038529 3.4645556 3h1.0354444c1.1045695 0 2 .8954305 2 2s-.8954305 2-2 2h-5c-.52689348 0-1.00619927-.2037471-1.36342739-.5367513z"/></g></g></svg>