<svg height="24" viewBox="0 0 24 24" width="24" xmlns="http://www.w3.org/2000/svg"><g fill="none" fill-rule="evenodd"><path d="m0 0h24v24h-24z" opacity="0"/><g fill="#000"><rect height="12" opacity=".3" rx="1" transform="matrix(-1 0 0 -1 24 14)" width="2" x="11" y="1"/><path d="m17 8c-.5522847 0-1-.44771525-1-1s.4477153-1 1-1h1c2.209139 0 4 1.790861 4 4v8c0 2.209139-1.790861 4-4 4h-12c-2.209139 0-4-1.790861-4-4v-8.00694311c0-2.20913899 1.790861-4 4-4h1.00000482c.55228475 0 1 .44771525 1 1s-.44771525 1-1 1h-1.00000482c-1.1045695 0-2 .8954305-2 2v8.00694311c0 1.1045695.8954305 2 2 2h12c1.1045695 0 2-.8954305 2-2v-8c0-1.1045695-.8954305-2-2-2z" fill-rule="nonzero" opacity=".3"/><path d="m14.2928932 10.2928932c.3905243-.39052427 1.0236893-.39052427 1.4142136 0 .3905243.3905243.3905243 1.0236893 0 1.4142136l-3 3c-.3905243.3905243-1.0236893.3905243-1.4142136 0l-2.99999998-3c-.39052429-.3905243-.39052429-1.0236893 0-1.4142136.39052429-.39052427 1.02368927-.39052427 1.41421356 0l2.29289322 2.2928932z" fill-rule="nonzero"/></g></g></svg>