<svg height="24" viewBox="0 0 24 24" width="24" xmlns="http://www.w3.org/2000/svg"><g fill="none" fill-rule="evenodd"><path d="m0 0h24v24h-24z" opacity="0"/><g fill="#000"><path d="m3.5 21h17c.8284271 0 1.5-.6715729 1.5-1.5v-11c0-.82842712-.6715729-1.5-1.5-1.5h-10.5l-2.56066017-2.56066017c-.28130457-.28130457-.66283544-.43933983-1.06066017-.43933983h-2.87867966c-.82842712 0-1.5.67157288-1.5 1.5v14c0 .8284271.67157288 1.5 1.5 1.5z" opacity=".3"/><path d="m10.782158 17.5100514 4.4034508-3.0100066c.2279718-.1558316.286453-.4669657.1306214-.6949375-.0347715-.0508685-.078646-.0948718-.1294124-.1297924l-4.4034508-3.0289876c-.2275139-.1564993-.5388181-.0989306-.6953174.1285834-.0573474.0833699-.0880496.1821777-.0880496.283367v6.0389943c0 .2761423.2238576.5.5.5.1006894 0 .199033-.0304.282158-.0872206z"/></g></g></svg>