<svg height="24" viewBox="0 0 24 24" width="24" xmlns="http://www.w3.org/2000/svg"><g fill="none" fill-rule="evenodd"><path d="m0 0h24v24h-24z" opacity="0"/><g fill="#000"><path d="m5.85714286 2h7.87926854c.3546848 0 .6978952.12568431.9686994.35473959l4.7635886 4.02920201c.3369538.28500673.5313006.70393663.5313006 1.14526041v12.55413129c0 1.7905418-.0204479 1.9166667-1.8571429 1.9166667h-12.28571424c-1.83669499 0-1.85714286-.1261249-1.85714286-1.9166667v-16.16666663c0-1.79054178.02044787-1.91666667 1.85714286-1.91666667z" fill-rule="nonzero" opacity=".3"/><path d="m10.782158 15.8052934 4.4034508-3.0100066c.2279718-.1558316.286453-.4669657.1306214-.6949374-.0347715-.0508686-.078646-.0948719-.1294124-.1297924l-4.4034508-3.02898771c-.2275139-.15649928-.5388181-.09893054-.6953174.12858339-.0573474.0833699-.0880496.18217777-.0880496.28336701v6.03899431c0 .2761424.2238576.5.5.5.1006894 0 .199033-.0303999.282158-.0872206z"/></g></g></svg>