<svg height="24" viewBox="0 0 24 24" width="24" xmlns="http://www.w3.org/2000/svg"><g fill="none" fill-rule="evenodd"><path d="m0 0h24v24h-24z" opacity="0"/><g fill="#000"><path d="m5.85714286 2h7.87926854c.3546848 0 .6978952.12568431.9686994.35473959l4.7635886 4.02920201c.3369538.28500673.5313006.70393663.5313006 1.14526041v12.55413129c0 1.7905418-.0204479 1.9166667-1.8571429 1.9166667h-12.28571424c-1.83669499 0-1.85714286-.1261249-1.85714286-1.9166667v-16.16666663c0-1.79054178.02044787-1.91666667 1.85714286-1.91666667z" fill-rule="nonzero" opacity=".3"/><path d="m9.83333333 17c-1.01252204 0-1.83333333-.6840094-1.83333333-1.5277778 0-.8437683.82081129-1.5277778 1.83333333-1.5277778.21427717 0 .41996847.0306341.61111107.0869335v-4.23977677c0-.31336037.1954218-.59036069.482436-.68382826l3.5138889-1.07466097c.4427023-.14416814.892564.20048857.892564.68382826v1.07466097c0 .35822037-.3354001.58699977-.6111111.65284327-.3966925.0947356-1.415211.2984393-3.0555555.6111112v4.4479658c0 .0548648-.0044493.1056623-.0131263.1524655-.1089167.757122-.8823164 1.3440131-1.82020707 1.3440131z"/></g></g></svg>