<svg height="24" viewBox="0 0 24 24" width="24" xmlns="http://www.w3.org/2000/svg"><g fill="none" fill-rule="evenodd"><path d="m0 0h24v24h-24z" opacity="0"/><g fill="#000"><path d="m5.85714286 2h7.87926854c.3546848 0 .6978952.12568431.9686994.35473959l4.7635886 4.02920201c.3369538.28500673.5313006.70393663.5313006 1.14526041v12.55413129c0 1.7905418-.0204479 1.9166667-1.8571429 1.9166667h-12.28571424c-1.83669499 0-1.85714286-.1261249-1.85714286-1.9166667v-16.16666663c0-1.79054178.02044787-1.91666667 1.85714286-1.91666667z" fill-rule="nonzero" opacity=".3"/><path d="m14.5 12c.5522847 0 1 .4477153 1 1v3c0 .5522847-.4477153 1-1 1h-5c-.55228475 0-1-.4477153-1-1v-3c0-.5522847.44771525-1 1-1v-.5c0-1.3807119 1.1192881-2.5 2.5-2.5s2.5 1.1192881 2.5 2.5zm-2.5-2c-.8284271 0-1.5.6715729-1.5 1.5v.5h3v-.5c0-.8284271-.6715729-1.5-1.5-1.5z"/></g></g></svg>