<svg height="24" viewBox="0 0 24 24" width="24" xmlns="http://www.w3.org/2000/svg"><g fill="none" fill-rule="evenodd"><path d="m0 0h24v24h-24z" opacity="0"/><g fill="#000"><path d="m3.5 21h17c.8284271 0 1.5-.6715729 1.5-1.5v-11c0-.82842712-.6715729-1.5-1.5-1.5h-10.5l-2.56066017-2.56066017c-.28130457-.28130457-.66283544-.43933983-1.06066017-.43933983h-2.87867966c-.82842712 0-1.5.67157288-1.5 1.5v14c0 .8284271.67157288 1.5 1.5 1.5z" opacity=".3"/><path d="m8.54301601 14.4923287h2.12308399v2.0076713c0 .2761424.2238576.5.5.5h1.16782c.2761424 0 .5-.2238576.5-.5v-2.0076713h2.1230839c.2761424 0 .5-.2238576.5-.5 0-.1241988-.0462239-.2439521-.1296708-.335941l-3.206994-3.5352732c-.1855351-.20452711-.501743-.21992319-.7062701-.0343881-.0120137.0108981-.02349.0223744-.0343881.0343881l-3.206994 3.5352732c-.18553509.2045271-.17013901.520735.03438811.7062701.09198886.0834469.2117422.1296709.335941.1296709z"/></g></g></svg>