<svg height="24" viewBox="0 0 24 24" width="24" xmlns="http://www.w3.org/2000/svg"><g fill="none" fill-rule="evenodd"><path d="m0 0h24v24h-24z" opacity="0"/><g fill="#000"><path d="m2 13c0-.5.5-1 1-1s1 .5 1 1v5c0 1.1045695.8954305 2 2 2h12c1.1045695 0 2-.8954305 2-2v-5c0-.5522847.4477153-1 1-1s1 .4477153 1 1v5c0 2.209139-1.790861 4-4 4h-12c-2.209139 0-4-1.790861-4-4 0-3 0-4.6666667 0-5z" fill-rule="nonzero" opacity=".3"/><rect height="14" opacity=".3" rx="1" width="2" x="11" y="2"/><path d="m12.0362375 3.37797611-4.32913072 4.32913067c-.39052429.39052429-1.02368927.39052429-1.41421356 0s-.39052429-1.02368927 0-1.41421356l4.99999998-5c.3760817-.37608169.9807432-.39198283 1.3760715-.03618737l5 4.5c.4105101.36945902.4437885 1.00174886.0743294 1.41225888-.369459.41051002-1.0017488.44378844-1.4122588.07432942z" fill-rule="nonzero"/></g></g></svg>