<svg height="24" viewBox="0 0 24 24" width="24" xmlns="http://www.w3.org/2000/svg"><g fill="none" fill-rule="evenodd"><path d="m0 0h24v24h-24z" opacity="0"/><g fill="#000"><path d="m5.85714286 2h7.87926854c.3546848 0 .6978952.12568431.9686994.35473959l4.7635886 4.02920201c.3369538.28500673.5313006.70393663.5313006 1.14526041v12.55413129c0 1.7905418-.0204479 1.9166667-1.8571429 1.9166667h-12.28571424c-1.83669499 0-1.85714286-.1261249-1.85714286-1.9166667v-16.16666663c0-1.79054178.02044787-1.91666667 1.85714286-1.91666667z" fill-rule="nonzero" opacity=".3"/><path d="m8.95128003 13.8153448h1.95647347v2.0076713c0 .2761423.2238577.5.5.5h1.0232987c.2761424 0 .5-.2238577.5-.5v-2.0076713h1.9564735c.2761424 0 .5-.2238577.5-.5 0-.1183117-.0419537-.2327903-.1184032-.323085l-2.9681228-3.50566108c-.1784349-.21075011-.4939316-.23694678-.7046817-.0585119-.0210872.01785377-.0406582.03742474-.0585119.0585119l-2.96812289 3.50566108c-.17843488.2107501-.15223821.5262469.0585119.7046818.09029468.0764494.20477329.1184032.32308492.1184032z"/></g></g></svg>