<svg height="24" viewBox="0 0 24 24" width="24" xmlns="http://www.w3.org/2000/svg"><g fill="none" fill-rule="evenodd"><path d="m0 0h24v24h-24z" opacity="0"/><g fill="#000"><path d="m3.5 21h17c.8284271 0 1.5-.6715729 1.5-1.5v-11c0-.82842712-.6715729-1.5-1.5-1.5h-10.5l-2.56066017-2.56066017c-.28130457-.28130457-.66283544-.43933983-1.06066017-.43933983h-2.87867966c-.82842712 0-1.5.67157288-1.5 1.5v14c0 .8284271.67157288 1.5 1.5 1.5z" opacity=".3"/><path d="m12 13c-1.1045695 0-2-.8954305-2-2s.8954305-2 2-2 2 .8954305 2 2-.8954305 2-2 2z" opacity=".3"/><path d="m7.00036205 18.4995035c.21533713-2.9829311 2.36736703-4.4995035 4.99038315-4.4995035 2.6599306 0 4.8453013 1.4332455 5.0080961 4.5.0064853.1221713 0 .5-.4173413.5-2.0586534 0-5.117764 0-9.1773321 0-.13932781 0-.41553554-.3380125-.40380585-.5004965z" opacity=".3"/></g></g></svg>