<svg height="24" viewBox="0 0 24 24" width="24" xmlns="http://www.w3.org/2000/svg"><g fill="none" fill-rule="evenodd"><path d="m0 0h24v24h-24z" opacity="0"/><g fill="#000"><path d="m10.1573188 15.7101991c.5746129.1612649 1.1800484.247441 1.8053586.247441s1.2307457-.0861761 1.8053586-.247441l.5103641 1.3782872c.017749.0479328.0268406.0987078.0268406.1499 0 .2357789-.1887352.4269155-.4215518.4269155l-1.0779079-.0271821c.0558946 1.1877534.4883844 1.8703793 1.6111334 2.2493907.4417385.1491197.6804717.6326612.5332256 1.0800201-.1472462.447359-.6247126.6891297-1.0664511.5400101-1.8113719-.611473-2.7052608-1.9192262-2.7620701-3.8422388h-1.0799528c-.05054914 0-.10068616-.0092073-.14801676-.0271821-.21799302-.0827875-.32844192-.3288667-.24669454-.5496334z" fill-rule="nonzero"/><path d="m12 16c-3.86599325 0-7-3.1340068-7-7 0-3.86599325 3.13400675-7 7-7 3.8659932 0 7 3.13400675 7 7 0 3.8659932-3.1340068 7-7 7zm-3.18404227-7.19922647c-.02528231-.36155398-.3388751-.63415604-.70042909-.60887372s-.63415604.33887511-.60887372.7004291c.11613705 1.66083719.89001545 2.97121769 2.28836746 3.87481039.30441262.1967065.71064992.1093935.90735642-.195019.1967066-.3044126.1093936-.7106499-.195019-.9073565-1.0513713-.6793793-1.60408274-1.6152657-1.69140207-2.86399027z" opacity=".3"/></g></g></svg>