<svg height="24" viewBox="0 0 24 24" width="24" xmlns="http://www.w3.org/2000/svg"><g fill="none" fill-rule="evenodd"><path d="m0 0h24v24h-24z" opacity="0"/><g fill="#000"><path d="m7.14319965 19.3575259c.52802178.4039916 1.10784444.7436906 1.72777567 1.0074048l-.97892467 1.6955472c-.27614237.4782927-.88773278.6421678-1.3660254.3660254-.47829262-.2761423-.64216778-.8877327-.3660254-1.3660254zm7.99350885 1.0041314c.6196365-.2643578 1.1991113-.6046612 1.7267301-1.0092158l.9686126 1.6776863c.2761424.4782926.1122672 1.089883-.3660254 1.3660254s-1.089883.1122672-1.3660254-.3660254z"/><path d="m12 21c-4.418278 0-8-3.581722-8-8s3.581722-8 8-8 8 3.581722 8 8-3.581722 8-8 8zm7.068812-17.74592407 1.7493224 1.7493224c.5857864.58578644.5857864 1.53553391 0 2.12132035-.5857865.58578644-1.5355339.58578644-2.1213204 0l-1.7493224-1.74932241c-.5857864-.58578643-.5857864-1.5355339 0-2.12132034.5857865-.58578644 1.5355339-.58578644 2.1213204 0zm-13.77018294-.37199794c.58578644-.58578644 1.53553391-.58578644 2.12132035 0s.58578644 1.53553391 0 2.12132034l-2.12132035 2.12132035c-.58578643.58578644-1.5355339.58578644-2.12132034 0s-.58578644-1.53553391 0-2.12132035z" opacity=".3"/><path d="m11.9630156 7.5h.0844906c.2568757 0 .4719585.19464724.4975186.45024814l.4549752 4.54975186 3.2480695 1.8560397c.1557875.0890214.2519305.2546931.2519305.4341216v.2098387c0 .2109164-.1709815.3818979-.3818979.3818979-.0339439 0-.0677362-.0045254-.100484-.0134566l-4.6189569-1.2597155c-.2313788-.0631033-.3853626-.2816072-.3669686-.5207302l.4327957-5.62634385c.0200384-.26049858.2372591-.46165175.4985273-.46165175z"/></g></g></svg>