<svg height="24" viewBox="0 0 24 24" width="24" xmlns="http://www.w3.org/2000/svg"><g fill="#000" fill-rule="evenodd"><path d="m20 8h-1.826087c-1.1045695 0-2 .8954305-2 2v2c0 .5522847-.4477152 1-1 1h-6.30434778c-.55228475 0-1-.4477153-1-1v-2c0-1.1045695-.8954305-2-2-2h-1.86956522v-2c0-1.65685425 1.34314575-3 3-3h10c1.6568542 0 3 1.34314575 3 3z" opacity=".3"/><path d="m6.15999985 21.0604779 2-3.4641016c.27614237-.4782926.88773278-.6421678 1.3660254-.3660254.47829265.2761424.64216775.8877328.3660254 1.3660254l-2 3.4641016c-.27614237.4782927-.88773278.6421678-1.3660254.3660254-.47829262-.2761423-.64216778-.8877327-.3660254-1.3660254zm11.67205135-.0303501c.2761424.4782926.1122672 1.089883-.3660254 1.3660254s-1.089883.1122672-1.3660254-.3660254l-2-3.4641016c-.2761424-.4782927-.1122672-1.0898831.3660254-1.3660254.4782926-.2761424 1.089883-.1122673 1.3660254.3660254z" opacity=".3"/><path d="m20 10v5c0 1.6568542-1.3431458 3-3 3h-10c-1.65685425 0-3-1.3431458-3-3v-5h1.86956522v2c0 1.6568542 1.34314575 3 3 3h6.30434778c1.6568543 0 3-1.3431458 3-3v-2z"/></g></svg>