<svg height="24" viewBox="0 0 24 24" width="24" xmlns="http://www.w3.org/2000/svg"><g fill="none" fill-rule="evenodd"><path d="m0 0h24v24h-24z" opacity="0"/><g fill="#000"><path d="m11.9998486 2c2.2982478 0 4.3992434 1.29848669 5.427051 3.35410197l3.322949 6.64589803c1.7066538 3.4133075.3231376 7.5638561-3.0901699 9.2705098-.9594675.4797338-2.0174527.7294902-3.09017.7294902h-5.13932018c-3.81619376 0-6.90983005-3.0936363-6.90983005-6.9098301 0-1.0727172.24975644-2.1307024.72949017-3.0901699l3.32294901-6.64589803c1.02780764-2.05561528 3.12880324-3.35410197 5.42705095-3.35410197z" opacity=".3"/><path d="m6.43734864 16.5 1.125-1.5c1.5129151 1.1346863 2.98708486 1.6875 4.43749996 1.6875s2.9245849-.5528137 4.4375-1.6875l1.125 1.5c-1.8204182 1.3653137-3.6795817 2.0625-5.5625 2.0625-1.8829182 0-3.74208174-.6971863-5.56249996-2.0625z" opacity=".3"/></g></g></svg>