<svg height="24" viewBox="0 0 24 24" width="24" xmlns="http://www.w3.org/2000/svg"><g fill="none" fill-rule="evenodd"><path d="m0 0h24v24h-24z" opacity="0"/><g fill="#000"><path d="m4 22h-2c0-2.7614237 2.23857625-4 5-4h10c2.7614237 0 5 1.2385763 5 4h-2c0-1.6568542-1.3431458-2-3-2h-10c-1.65685425 0-3 .3431458-3 2z" fill-rule="nonzero" opacity=".3"/><rect height="6" rx="1" width="22" x="1" y="14"/><path d="m13 13h-2v-1c0-.5522847-.4477153-1-1-1h-4c-.55228475 0-1 .4477153-1 1v1h-1c-.55228475 0-1-.4477153-1-1v-4c0-1.1045695.8954305-2 2-2h14c1.1045695 0 2 .8954305 2 2v4c0 .5522847-.4477153 1-1 1h-1v-1c0-.5522847-.4477153-1-1-1h-4c-.5522847 0-1 .4477153-1 1z" opacity=".3"/></g></g></svg>