<svg height="24" viewBox="0 0 24 24" width="24" xmlns="http://www.w3.org/2000/svg"><g fill="none" fill-rule="evenodd"><path d="m0 0h24v24h-24z" opacity="0"/><g fill="#000"><path d="m10.5278225 22.5278225-1.73016938-1.7301694 1.19780956-2.3512558-2.63961737.909448-2.30689249-2.3068925 3.1054322-5.4123247-5.41232468 3.1054322-1.44180781-1.4418078 7.96523439-5.26898875c2.07569478-1.37306853 4.86310158-.88026887 6.34218318 1.12126647 1.5584098 2.10888448 1.5142823 4.99945148-.1077749 7.05978278z" opacity=".3"/><path d="m22.4246212 4.91054166-4.0175037 4.01750368c-.7810486.78104859-2.0473785.78104859-2.8284271 0-.7810486-.78104858-.7810486-2.04737854 0-2.82842712l4.0242394-4.02423942c.178813.33960376.3849639.66899057.6185007.98501916.5975919.80867833 1.3577056 1.42993951 2.2031907 1.8501437z" transform="matrix(-1 0 0 -1 37.417526 11.58921)"/></g></g></svg>