<svg height="24" viewBox="0 0 24 24" width="24" xmlns="http://www.w3.org/2000/svg"><g fill="none" fill-rule="evenodd"><path d="m0 0h24v24h-24z" opacity="0"/><path d="m13.5 21v-3c0-.5522847-.4477153-1-1-1h-1c-.5522847 0-1 .4477153-1 1v3h-5.5v-17c0-1.1045695.8954305-2 2-2h10c1.1045695 0 2 .8954305 2 2v17zm-4.5-17c-.55228475 0-1 .44771525-1 1v1c0 .55228475.44771525 1 1 1h1c.5522847 0 1-.44771525 1-1v-1c0-.55228475-.4477153-1-1-1zm5 0c-.5522847 0-1 .44771525-1 1v1c0 .55228475.4477153 1 1 1h1c.5522847 0 1-.44771525 1-1v-1c0-.55228475-.4477153-1-1-1zm-5 4c-.55228475 0-1 .44771525-1 1v1c0 .5522847.44771525 1 1 1h1c.5522847 0 1-.4477153 1-1v-1c0-.55228475-.4477153-1-1-1zm0 4c-.55228475 0-1 .4477153-1 1v1c0 .5522847.44771525 1 1 1h1c.5522847 0 1-.4477153 1-1v-1c0-.5522847-.4477153-1-1-1zm5 0c-.5522847 0-1 .4477153-1 1v1c0 .5522847.4477153 1 1 1h1c.5522847 0 1-.4477153 1-1v-1c0-.5522847-.4477153-1-1-1z" fill="#000"/><rect fill="#fff" height="3" rx="1" width="3" x="13" y="8"/><path d="m4 21h16c.5522847 0 1 .4477153 1 1v.4c0 .3313708-.2686292.6-.6.6h-16.8c-.33137085 0-.6-.2686292-.6-.6v-.4c0-.5522847.44771525-1 1-1z" fill="#000" opacity=".3"/></g></svg>