<svg height="24" viewBox="0 0 24 24" width="24" xmlns="http://www.w3.org/2000/svg"><g fill="none" fill-rule="evenodd"><path d="m0 0h24v24h-24z" opacity="0"/><g fill="#000"><path d="m5.11245763 2.03825554c1.94953026-.69217036 4.24528699-1.03825554 6.88727017-1.03825554 2.6420623 0 4.9379717.34610591 6.887728 1.03831773l.0000033-.00000943c1.0409211.36955279 1.5851726 1.51296779 1.2156199 2.55388888-.0353047.09944281-.0784241.19593557-.1289545.28857453l-4.9741245 9.11922829h-6l-4.97416438-9.11931928c-.52892319-.96969251-.17160905-2.18456057.79808346-2.71348376.09262774-.05052423.1891084-.09363927.28853855-.12894142z" opacity=".3"/><path d="m10 20h4c0 1.1045695-.8954305 2-2 2-1.1045695 0-2-.8954305-2-2z" opacity=".3"/><path d="m13 10v8c0 .5522847-.4477153 1-1 1s-1-.4477153-1-1v-8h-.5c-.2761424 0-.5-.22385763-.5-.5s.2238576-.5.5-.5h3c.2761424 0 .5.22385763.5.5s-.2238576.5-.5.5z" opacity=".3"/><path d="m9 18c-.55228475 0-1-.4477153-1-1s.44771525-1 1-1c-.55228475 0-1-.4477153-1-1s.44771525-1 1-1h6c.5522847 0 1 .4477153 1 1s-.4477153 1-1 1c.5522847 0 1 .4477153 1 1s-.4477153 1-1 1c.5522847 0 1 .4477153 1 1s-.4477153 1-1 1h-6c-.55228475 0-1-.4477153-1-1s.44771525-1 1-1z"/></g></g></svg>