<svg height="24" viewBox="0 0 24 24" width="24" xmlns="http://www.w3.org/2000/svg"><g fill="none" fill-rule="evenodd"><path d="m0 0h24v24h-24z" opacity="0"/><g fill="#000"><circle cx="12" cy="9" opacity=".3" r="8"/><path d="m14.5297296 11h-5.06788472l2.51399002 6.4645458zm-3.9617343 8.3624463-4.02984018-10.3624463h10.93211528l-4.095774 10.3674279-1.3985559-.5525159z" fill-rule="nonzero" opacity=".3"/><path d="m10 22h4c0 1.1045695-.8954305 2-2 2-1.1045695 0-2-.8954305-2-2z" opacity=".3"/><path d="m9 20c-.55228475 0-1-.4477153-1-1s.44771525-1 1-1c-.55228475 0-1-.4477153-1-1s.44771525-1 1-1h6c.5522847 0 1 .4477153 1 1s-.4477153 1-1 1c.5522847 0 1 .4477153 1 1s-.4477153 1-1 1c.5522847 0 1 .4477153 1 1s-.4477153 1-1 1h-6c-.55228475 0-1-.4477153-1-1s.44771525-1 1-1z"/></g></g></svg>