<svg height="24" viewBox="0 0 24 24" width="24" xmlns="http://www.w3.org/2000/svg"><g fill="none" fill-rule="evenodd"><path d="m0 0h24v24h-24z" opacity="0"/><g fill="#000"><path d="m12 2c1.8385982 0 3.5193947 1.03878936 4.3416408 2.68328157l2.6583592 5.31671843c1.365323 2.730646.25851 6.0510849-2.472136 7.4164079-.7675739.3837869-1.6139621.5835921-2.4721359.5835921h-4.11145619c-3.05295501 0-5.52786405-2.474909-5.52786405-5.527864 0-.8581738.19980516-1.704562.58359214-2.472136l2.65835921-5.31671843c.82224611-1.64449221 2.50304259-2.68328157 4.34164079-2.68328157zm-4.45 11.6c1.45633458 1.0922509 2.9436654 1.65 4.45 1.65s2.9936654-.5577491 4.45-1.65l-.9-1.2c-1.2103321.9077491-2.3896679 1.35-3.55 1.35s-2.33966792-.4422509-3.55-1.35z"/><path d="m6.15999985 21.0604779 2-3.4641016c.27614237-.4782926.88773278-.6421678 1.3660254-.3660254.47829265.2761424.64216775.8877328.3660254 1.3660254l-2 3.4641016c-.27614237.4782927-.88773278.6421678-1.3660254.3660254-.47829262-.2761423-.64216778-.8877327-.3660254-1.3660254zm11.67205135-.0303501c.2761424.4782926.1122672 1.089883-.3660254 1.3660254s-1.089883.1122672-1.3660254-.3660254l-2-3.4641016c-.2761424-.4782927-.1122672-1.0898831.3660254-1.3660254.4782926-.2761424 1.089883-.1122673 1.3660254.3660254z" opacity=".3"/></g></g></svg>