<svg height="24" viewBox="0 0 24 24" width="24" xmlns="http://www.w3.org/2000/svg"><g fill="none" fill-rule="evenodd"><path d="m0 0h24v24h-24z" opacity="0"/><g fill="#000"><path d="m6.54246133 21.5014597 1.59815707-5.9644033c.14294181-.5334661.69127876-.8500486 1.22474487-.7071068.5334661.1429418.85004863.6912788.70710673 1.2247449l-1.59815701 5.9644033c-.14294181.5334661-.69127877.8500486-1.22474487.7071068-.53346611-.1429418-.8500486-.6912788-.70710679-1.2247449zm10.90712837-.0303501c.1429418.5334661-.1736407 1.081803-.7071068 1.2247449-.5334661.1429418-1.081803-.1736407-1.2247449-.7071068l-1.3028884-4.8624457c-.1429418-.5334661.1736407-1.0818031.7071068-1.2247449s1.0818031.1736407 1.2247449.7071068z" opacity=".3"/><path d="m7.36092084 1h9.27815836c1.1045695 0 2 .8954305 2 2 0 .11016172-.0091017.22013512-.0272122.32879797l-1.5422336 9.25340153c-.0401823.241094-.2487774.4178005-.4931969.4178005h-9.15287296c-.24441957 0-.45301463-.1767065-.49319696-.4178005l-1.54223358-9.25340153c-.18159011-1.08954064.55444923-2.11999571 1.64398987-2.30158582.10866285-.01811047.21863625-.02721215.32879797-.02721215zm-1.86092084 13h13c.8284271 0 1.5.6715729 1.5 1.5s-.6715729 1.5-1.5 1.5h-13c-.82842712 0-1.5-.6715729-1.5-1.5s.67157288-1.5 1.5-1.5z"/></g></g></svg>