<svg height="24" viewBox="0 0 24 24" width="24" xmlns="http://www.w3.org/2000/svg"><g fill="none" fill-rule="evenodd"><path d="m0 0h24v24h-24z" opacity="0"/><g fill="#000"><path d="m12 22c-4.97056275 0-9-4.0294373-9-9 0-4.97056275 4.02943725-9 9-9 4.9705627 0 9 4.02943725 9 9 0 4.9705627-4.0294373 9-9 9z" opacity=".3"/><path d="m11.9630156 7.5h.0844906c.2568757 0 .4719585.19464724.4975186.45024814l.4549752 4.54975186 3.2480695 1.8560397c.1557875.0890214.2519305.2546931.2519305.4341216v.2098387c0 .2109164-.1709815.3818979-.3818979.3818979-.0339439 0-.0677362-.0045254-.100484-.0134566l-4.6189569-1.2597155c-.2313788-.0631033-.3853626-.2816072-.3669686-.5207302l.4327957-5.62634385c.0200384-.26049858.2372591-.46165175.4985273-.46165175z"/></g></g></svg>