<svg height="24" viewBox="0 0 24 24" width="24" xmlns="http://www.w3.org/2000/svg"><g fill="#000" fill-rule="evenodd"><path d="m6 20h-2c0-2.7614237 2.23857625-4 5-4h6c2.7614237 0 5 1.2385763 5 4h-2c0-1.6568542-1.3431458-2-3-2h-6c-1.65685425 0-3 .3431458-3 2z" fill-rule="nonzero" opacity=".3"/><path d="m23 8h-1.826087c-1.1045695 0-2 .8954305-2 2v2c0 .5522847-.4477152 1-1 1h-12.30434778c-.55228475 0-1-.4477153-1-1v-2c0-1.1045695-.8954305-2-2-2h-1.86956522c0-1.65685425 1.34314575-3 3-3h16c1.6568542 0 3 1.34314575 3 3z" opacity=".3"/><path d="m23 10v5c0 1.6568542-1.3431458 3-3 3h-16c-1.65685425 0-3-1.3431458-3-3v-5h1.86956522v2c0 1.6568542 1.34314575 3 3 3h12.30434778c1.6568543 0 3-1.3431458 3-3v-2z"/></g></svg>