<svg height="24" viewBox="0 0 24 24" width="24" xmlns="http://www.w3.org/2000/svg"><g fill="none" fill-rule="evenodd"><path d="m0 0h24v24h-24z" opacity="0"/><g fill="#000"><path d="m21.9819854 8.18909235c-.0511434.26667002-.2099801.51389485-.4674896.66840058l-5 2.99999997c-.1554154.0932493-.3332519.1425071-.5144958.1425071h-8c-.18124395 0-.35908035-.0492578-.51449576-.1425071l-5-2.99999997c-.25750954-.15450573-.41634624-.40173056-.46748967-.66840058l-.99859525-4.99297621c-.10831195-.54155976.24290479-1.06838487.78446454-1.17669682.54155976-.10831195 1.06838487.24290479 1.17669682.78446454l.63355365 3.16776825 2.67875889-2.67875889c.39052429-.39052429 1.02368927-.39052429 1.41421356 0s.39052429 1.02368927 0 1.41421356l-3.09435432 3.09435432 3.6642315 2.1985389h7.44603204l3.6642315-2.1985389-3.0943543-3.09435432c-.3905243-.39052429-.3905243-1.02368927 0-1.41421356s1.0236893-.39052429 1.4142136 0l2.6787589 2.67875889.6335536-3.16776825c.108312-.54155975.6351371-.89277649 1.1766968-.78446454.5415598.10831195.8927765.63513706.7844646 1.17669682zm-6.929199.70533484c-.4939785-.24698925-.6942028-.84766229-.4472136-1.34164079.2469893-.49397849.8476623-.69420284 1.3416408-.44721359l3 1.5c.7057838.3528919.7439215 1.34593652.0672822 1.75192009l-2.5 1.5c-.1554154.0932493-.3332519.1425071-.5144958.1425071h-8c-.18124395 0-.35908035-.0492578-.51449576-.1425071l-2.5-1.5c-.64733899-.38840337-.64733899-1.32658243 0-1.71498583l2.5-1.5c.47358027-.28414816 1.08784053-.13058309 1.37198869.34299717.28414816.47358027.13058309 1.08784053-.34299717 1.37198869l-1.07084513.64250707.83333333.5h7.44603204l.7004164-.42024981z" fill-rule="nonzero" opacity=".3"/><path d="m9.85539998 10h4.28920002c1.1045695 0 2 .8954305 2 2 0 .233105-.0407511.4644155-.1204131.6834861l-2.6824438 7.3767205c-.2051679.5642116-.7413861.9397934-1.3417431.9397934-.600357 0-1.1365752-.3755818-1.3417431-.9397934l-2.68244376-7.3767205c-.37747897-1.0380671.15803357-2.185594 1.19610072-2.5630729.21907058-.0796621.45038109-.1204132.68348612-.1204132z"/></g></g></svg>