<svg height="24" viewBox="0 0 24 24" width="24" xmlns="http://www.w3.org/2000/svg"><g fill="none" fill-rule="evenodd"><path d="m0 0h24v24h-24z" opacity="0"/><g fill="#000"><path d="m7 4.89473684v16.10526316h-2v-18h6v1.89473684z" fill-rule="nonzero" opacity=".3"/><path d="m10.1782982 2.24743315 8 1.44961325c.4757637.08620917.8217018.50046526.8217018.98397651v14.63798349c0 .4835113-.3459381.8977674-.8217018.9839765l-8 1.4496133c-.54343525.0984713-1.06380334-.2622431-1.1622747-.8056783-.01066085-.0588342-.0160235-.118506-.0160235-.1782982v-17.53721004c0-.55228475.44771525-1 1-1 .0597922 0 .119464.00536264.1782982.01602349zm1.7383685 10.65858975c.6903559 0 1.25-.6084505 1.25-1.3590124 0-.7505618-.5596441-1.3590124-1.25-1.3590124-.690356 0-1.25.6084506-1.25 1.3590124 0 .7505619.559644 1.3590124 1.25 1.3590124z"/></g></g></svg>