<svg height="24" viewBox="0 0 24 24" width="24" xmlns="http://www.w3.org/2000/svg"><g fill="none" fill-rule="evenodd"><path d="m0 0h24v24h-24z" opacity="0"/><g fill="#000"><circle cx="12" cy="12" opacity=".3" r="9"/><path d="m11.7357634 20.9961946c-4.84836288-.1398032-8.7357634-4.1140234-8.7357634-8.9961946 0-.0831633.00112797-.1660631.00336944-.248685.65896065.0630191 1.85299874.2060704 1.90925898.6690888.07786538.6405153 0 1.4411904.54541814 1.6813682.54541813.2401778.70126905-.9608348 1.16870164-.6405153.46743259.3203194 1.71411977.6286608 1.71411977 1.1949618 0 .5661775-.23371629 1.4472411 0 1.6074008.2337163.1601597 1.16810083 1.2810307 1.16834116 1.4411904.00036049.1601597.32936574.9745416.23119288 1.2858466-.08135009.2580831-.4918256 1.0594991-.8898042 1.4239026.90255577.3475032 1.87298679.5512153 2.88516559.5814955zm-3.45303352-17.19507361c1.13311162-.51455678 2.39172552-.80112099 3.71727012-.80112099 3.5114513 0 6.5532143 2.01097452 8.0364482 4.94408274.0332088.78003903.027385 1.44727047.199678 1.68865306.877067 1.2273148-2.1366115 2.07158-1.6787919 3.9278026.2016328.8189508-2.0045529.5591389-2.5433621 1.3258556-.5391696.7663463-1.8565124.251415-2.1619658.1040977s-1.4753567.343658-1.3730983-.4909753c.1016576-.8348804.8133808-.8839038 1.5766538-1.2275618.7629124-.3432876 1.8633617-1.4847805 1.3226299-1.6339501-2.5458854-.7017638-3.4144208-3.15948055-3.4144208-3.15948055-.1527267-.02951286-.1143948-1.73743029-.7754094-1.78645373-.6616154-.04927041-1.0178976.19634074-1.98400504 0-.96670828-.19634073-.76291247-.83463335-.91563916-2.20951244-.03417746-.30840092-.03252604-.52538696-.00598752-.68143679zm12.71644722 8.07591471c.000548.0409228.0008229.0819114.0008229.1229643 0 4.9406923-3.9811532 8.9515364-8.9104912 8.9995641 4.8807242-.0492315 8.8442023-4.1111261 8.9096683-9.1225284z" opacity=".3"/></g></g></svg>