<svg height="24" viewBox="0 0 24 24" width="24" xmlns="http://www.w3.org/2000/svg"><g fill="none" fill-rule="evenodd"><path d="m0 0h24v24h-24z" opacity="0"/><g fill="#000"><path d="m17 20v-8c0-2.76142375-2.2385763-5-5-5-2.76142375 0-5 2.23857625-5 5v8h-2c-1.1045695 0-2-.8954305-2-2v-12c0-1.1045695.8954305-2 2-2h14c1.1045695 0 2 .8954305 2 2v12c0 1.1045695-.8954305 2-2 2z" opacity=".3"/><path d="m12.9717525 11.7005668c-.1619588 1.6195874-.647835 2.48612-1.4576287 2.5995978 0 0 .7288143-2.8425359-.2429381-4.3001646 0 0-.1030456 1.5618236-1.1442447 3.4359819-.48806125.8785102-1.04219839 1.4707263-1.04219839 2.637471 0 1.6659185 1.70612479 2.5268763 2.91803639 2.5268763s2.9124784-.5830715 2.9124784-2.6238217c0-.8391447-.647835-2.2644582-1.9435049-4.2759407z"/></g></g></svg>