<svg height="24" viewBox="0 0 24 24" width="24" xmlns="http://www.w3.org/2000/svg"><g fill="none" fill-rule="evenodd"><path d="m0 0h24v24h-24z" opacity="0"/><g fill="#000"><path d="m6 10v-4h12v4c-2 1.5197922-3 2.8531255-3 4v4 2c0 1.1045695-.8954305 2-2 2h-2c-1.1045695 0-2-.8954305-2-2v-2-4c0-1.6666667-1-3-3-4zm6 1c-1.1045695 0-2 .8954305-2 2v2c0 1.1045695.8954305 2 2 2s2-.8954305 2-2v-2c0-1.1045695-.8954305-2-2-2zm0 3c-.5522847 0-1-.4477153-1-1s.4477153-1 1-1 1 .4477153 1 1-.4477153 1-1 1z"/><path d="m7 2h10c.5522847 0 1 .44771525 1 1v1h-12v-1c0-.55228475.44771525-1 1-1z" opacity=".3"/></g></g></svg>