<svg height="24" viewBox="0 0 24 24" width="24" xmlns="http://www.w3.org/2000/svg"><g fill="none" fill-rule="evenodd"><path d="m0 0h24v24h-24z" opacity="0"/><g fill="#000"><path d="m9 1c-4.07638889 6.82926829-4.07638889 11.8292683 0 15 3.9097222-3.1707317 3.9097222-8.17073171 0-15z" opacity=".3" transform="matrix(-.8660254 .5 .5 .8660254 12.427602 -3.329966)"/><path d="m15 1c-4.0763889 6.82926829-4.0763889 11.8292683 0 15 3.9097222-3.1707317 3.9097222-8.17073171 0-15z" opacity=".3" transform="matrix(.8660254 .5 -.5 .8660254 6.251246 -6.329966)"/><path d="m12 1c-4.07638889 6.82926829-4.07638889 11.8292683 0 15 3.9097222-3.1707317 3.9097222-8.17073171 0-15z" opacity=".3"/><path d="m6.34403065 13h11.31193865c.5522848 0 1 .4477153 1 1 0 .0973246-.0142077.1941279-.0421737.2873479l-2.1862043 7.2873479c-.2537904.8459679-1.0324362 1.4253042-1.9156526 1.4253042h-5.0238774c-.88321644 0-1.66186219-.5793363-1.91565257-1.4253042l-2.18620436-7.2873479c-.15869786-.5289929.14148555-1.0864763.6704784-1.2451742.09322002-.027966.19002332-.0421737.28734788-.0421737z"/></g></g></svg>