<svg height="24" viewBox="0 0 24 24" width="24" xmlns="http://www.w3.org/2000/svg"><g fill="none" fill-rule="evenodd"><path d="m0 0h24v24h-24z" opacity="0"/><g fill="#000"><path d="m3.95709826 8.41510662 7.52145174-4.59644273c.3201124-.19562422.7227876-.19562422 1.0429 0l7.52145 4.59644168c.5945094.36331127.9571 1.00983097.9571 1.70656363v8.878395c0 1.1045695-.8954305 2-2 2l-14.00001845.0000031c-1.1045695 0-2-.8954305-2-2 0-.000001 0-.0000021 0-.0000031l.00001673-8.878397c.00000107-.69673159.36259156-1.34324988.95709998-1.70656058z" opacity=".3"/><path d="m13.8 12c-.6438 0-1.3967.7298529-1.8 1.2-.4033-.4701471-1.1562-1.2-1.8-1.2-1.1396 0-1.8.8888719-1.8 2.0201635 0 1.2532243 1.2 2.5798365 3.6 3.9798365 2.4-1.4 3.6-2.7 3.6-3.9 0-1.1312916-.6604-2.1-1.8-2.1z" opacity=".3"/></g></g></svg>