<svg height="24" viewBox="0 0 24 24" width="24" xmlns="http://www.w3.org/2000/svg"><g fill="none" fill-rule="evenodd"><path d="m0 0h24v24h-24z" opacity="0"/><path d="m3.95709826 8.41510662 7.52145174-4.59644273c.3201124-.19562422.7227876-.19562422 1.0429 0l7.52145 4.59644168c.5945094.36331127.9571 1.00983097.9571 1.70656363v8.878395c0 1.1045695-.8954305 2-2 2l-14.00001845.0000031c-1.1045695 0-2-.8954305-2-2l.00001673-8.8784001c.00000107-.69673159.36259156-1.34324988.95709998-1.70656058zm6.04290174 4.58489338c-.55228475 0-1 .4477153-1 1v3c0 .5522847.44771525 1 1 1h4c.5522847 0 1-.4477153 1-1v-3c0-.5522847-.4477153-1-1-1z" fill="#000"/></g></svg>