<svg height="24" viewBox="0 0 24 24" width="24" xmlns="http://www.w3.org/2000/svg"><g fill="none" fill-rule="evenodd"><path d="m0 0h24v24h-24z" opacity="0"/><g fill="#000"><path d="m6.89784488 10.6187476-.13332324 8.8695005 2.12132034 2.1213203 2.12132032-2.1213203-1.41421354-1.4142136 1.37304264-1.3730426-1.41421353-1.4142136 1.45538443-1.4553844-.1234152-3.2126463z" opacity=".3" transform="matrix(.70710678 .70710678 -.70710678 .70710678 13.997033 -1.563512)"/><path d="m15.9852814 14.9852814c-3.3137085 0-6.00000003-2.6862915-6.00000003-6.00000003 0-3.31370849 2.68629153-6 6.00000003-6s6 2.68629151 6 6c0 3.31370853-2.6862915 6.00000003-6 6.00000003zm.1923881-5.91421359c.8284272 0 1.5-.67157287 1.5-1.5 0-.82842712-.6715728-1.5-1.5-1.5-.8284271 0-1.5.67157288-1.5 1.5 0 .82842713.6715729 1.5 1.5 1.5z" transform="matrix(.70710678 .70710678 -.70710678 .70710678 11.035534 -8.671573)"/></g></g></svg>