<svg height="24" viewBox="0 0 24 24" width="24" xmlns="http://www.w3.org/2000/svg"><g fill="none" fill-rule="evenodd"><path d="m0 0h24v24h-24z" opacity="0"/><g fill="#000"><path d="m7 5h10c.5522847 0 1 .44771525 1 1s-.4477153 1-1 1h-10c-.55228475 0-1-.44771525-1-1s.44771525-1 1-1zm0 4h10c.5522847 0 1 .44771525 1 1 0 .5522847-.4477153 1-1 1h-10c-.55228475 0-1-.4477153-1-1 0-.55228475.44771525-1 1-1zm0 4h10c.5522847 0 1 .4477153 1 1s-.4477153 1-1 1h-10c-.55228475 0-1-.4477153-1-1s.44771525-1 1-1zm0 4h10c.5522847 0 1 .4477153 1 1s-.4477153 1-1 1h-10c-.55228475 0-1-.4477153-1-1s.44771525-1 1-1z" opacity=".3"/><path d="m5.5 2c.82842712 0 1.5.67157288 1.5 1.5v17c0 .8284271-.67157288 1.5-1.5 1.5s-1.5-.6715729-1.5-1.5v-17c0-.82842712.67157288-1.5 1.5-1.5zm13 0c.8284271 0 1.5.67157288 1.5 1.5v17c0 .8284271-.6715729 1.5-1.5 1.5s-1.5-.6715729-1.5-1.5v-17c0-.82842712.6715729-1.5 1.5-1.5z"/></g></g></svg>