<svg height="24" viewBox="0 0 24 24" width="24" xmlns="http://www.w3.org/2000/svg"><g fill="none" fill-rule="evenodd"><path d="m0 0h24v24h-24z" opacity="0"/><g fill="#000"><path d="m12 2c.5522847 0 1 .44771525 1 1v8c0 .5522847-.4477153 1-1 1s-1-.4477153-1-1v-8c0-.55228475.4477153-1 1-1z" opacity=".3"/><path d="m8.12601749 19h7.74796501c-.4440428 1.7252272-2.0101431 3-3.8739825 3s-3.42993972-1.2747728-3.87398251-3z" opacity=".3"/><path d="m12 8c4.9705627 0 9 4.0294373 9 9h-18c0-4.9705627 4.02943725-9 9-9z"/></g></g></svg>