<svg height="24" viewBox="0 0 24 24" width="24" xmlns="http://www.w3.org/2000/svg"><g fill="none" fill-rule="evenodd"><path d="m0 0h24v24h-24z" opacity="0"/><g fill="#000"><path d="m5 3h1c.55228475 0 1 .44771525 1 1v16c0 .5522847-.44771525 1-1 1h-1c-.55228475 0-1-.4477153-1-1v-16c0-.55228475.44771525-1 1-1zm5 0h1c.5522847 0 1 .44771525 1 1v16c0 .5522847-.4477153 1-1 1h-1c-.55228475 0-1-.4477153-1-1v-16c0-.55228475.44771525-1 1-1z"/><rect height="18" opacity=".3" rx="1" transform="matrix(.94551858 -.32556815 .32556815 .94551858 -2.917918 6.454246)" width="3" x="16.325568" y="2.945519"/></g></g></svg>