<svg height="24" viewBox="0 0 24 24" width="24" xmlns="http://www.w3.org/2000/svg"><g fill="none" fill-rule="evenodd"><path d="m0 0h24v24h-24z" opacity="0"/><g fill="#000"><path d="m8 6h12.5c.8284271 0 1.5.67157288 1.5 1.5s-.6715729 1.5-1.5 1.5h-12.5v10.5c0 .8284271-.67157288 1.5-1.5 1.5s-1.5-.6715729-1.5-1.5v-10.5h-1.5c-.82842712 0-1.5-.67157288-1.5-1.5s.67157288-1.5 1.5-1.5h1.5v-1.5c0-.82842712.67157288-1.5 1.5-1.5s1.5.67157288 1.5 1.5z"/><path d="m10 11h10.5c.8284271 0 1.5.6715729 1.5 1.5v2.5c0 2.209139-1.790861 4-4 4h-6.5c-.8284271 0-1.5-.6715729-1.5-1.5zm10 1c-.5522847 0-1 .4477153-1 1v3c0 .5522847.4477153 1 1 1s1-.4477153 1-1v-3c0-.5522847-.4477153-1-1-1z" opacity=".3"/></g></g></svg>