<svg height="24" viewBox="0 0 24 24" width="24" xmlns="http://www.w3.org/2000/svg"><g fill="none" fill-rule="evenodd"><path d="m0 0h24v24h-24z" opacity="0"/><g fill="#000"><path d="m13 17.0484323v.9515677h1c1.1045695 0 2 .8954305 2 2h-8c0-1.1045695.8954305-2 2-2h1v-.9517688c-4.10155183-.455684-7.41314298-3.6790501-7.92444991-7.82784378-.06755375-.5481377.32203651-1.04725424.8701742-1.11480799.5481377-.06755376 1.04725424.3220365 1.114808.8701742.42913401 3.48203477 3.39995935 6.12775927 6.94028681 6.12775927 3.5768249 0 6.5673748-2.6992121 6.9516681-6.22579164.0598286-.54903459.5534098-.9456144 1.1024444-.8857858.5490345.05982861.9456144.55340975.8857857 1.10244435-.4582957 4.20568399-3.7935576 7.49420409-7.9407173 7.95405249z" fill-rule="nonzero"/><path d="m12 14c-3.3137085 0-6-2.6862915-6-6s2.6862915-6 6-6 6 2.6862915 6 6-2.6862915 6-6 6zm-3.18404227-6.19922647c-.02528231-.36155398-.3388751-.63415604-.70042909-.60887372s-.63415604.33887511-.60887372.7004291c.11613705 1.66083721.89001545 2.97121769 2.28836746 3.87481039.30441262.1967065.71064992.1093935.90735642-.195019.1967066-.3044126.1093936-.7106499-.195019-.9073565-1.0513713-.67937926-1.60408274-1.61526567-1.69140207-2.86399027z" opacity=".3"/></g></g></svg>