<svg height="24" viewBox="0 0 24 24" width="24" xmlns="http://www.w3.org/2000/svg"><g fill="none" fill-rule="evenodd"><path d="m0 0h24v24h-24z" opacity="0"/><path d="m15 7v1c0 .55228475.4477153 1 1 1s1-.44771525 1-1v-1h2v3c0 .5522847.4477153 1 1 1s1-.4477153 1-1v-3c1.1045695 0 2 .8954305 2 2v6c0 1.1045695-.8954305 2-2 2h-18c-1.1045695 0-2-.8954305-2-2v-6c0-1.1045695.8954305-2 2-2v3c0 .5522847.44771525 1 1 1s1-.4477153 1-1v-3h2v1c0 .55228475.44771525 1 1 1s1-.44771525 1-1v-1h2v3c0 .5522847.4477153 1 1 1s1-.4477153 1-1v-3z" fill="#000" transform="matrix(.70710678 -.70710678 .70710678 .70710678 -4.970563 12)"/></g></svg>