<svg height="24" viewBox="0 0 24 24" width="24" xmlns="http://www.w3.org/2000/svg"><g fill="none" fill-rule="evenodd"><path d="m0 0h24v24h-24z" opacity="0"/><g fill="#000"><path d="m12 21c-4.418278 0-8-3.581722-8-8s3.581722-8 8-8 8 3.581722 8 8-3.581722 8-8 8z" opacity=".3"/><path d="m13 5.06189375c-.3275942-.04085042-.6613397-.06189375-1-.06189375s-.6724058.02104333-1 .06189375v-1.06189375h-1c-.55228475 0-1-.44771525-1-1s.44771525-1 1-1h4c.5522847 0 1 .44771525 1 1s-.4477153 1-1 1h-1z"/><path d="m16.7099142 6.53272645.8256197-.82561967c.3905243-.39052429 1.0236893-.39052429 1.4142136 0s.3905243 1.02368927 0 1.41421356l-.7826114.78261133c-.4263559-.51538213-.9160751-.97642908-1.4572219-1.37120522z"/><path d="m11.9630156 7.5h.0739688c.2612682 0 .4784889.20115317.4985273.46165175l.4230769 5.50000005c.0211791.2753289-.18485.5156963-.460179.5368754-.0127592.0009815-.0255514.0014728-.0383482.0014728h-.9201228c-.2761423 0-.5-.2238576-.5-.5 0-.0127969.0004913-.0255891.0014728-.0383482l.4230769-5.50000005c.0200384-.26049858.2372591-.46165175.4985273-.46165175z"/></g></g></svg>