<svg height="24" viewBox="0 0 24 24" width="24" xmlns="http://www.w3.org/2000/svg"><g fill="#000" fill-rule="evenodd"><rect height="4" opacity=".3" rx="1" width="12" x="6" y="1"/><path d="m17.8608177 12.8865418c.0911472.5196928.1391823 1.0595635.1391823 1.6134582 0 4.1421356-2.6862915 7.5-6 7.5s-6-3.3578644-6-7.5c0-.5538947.04803512-1.0937654.13918227-1.6134582l.64182641-5.13461127c.12510721-1.00085764.97590922-1.75193053 1.98455576-1.75193053h6.46887116c1.0086465 0 1.8594485.75107289 1.9845557 1.75193053zm-5.8608177 7.1134582c2.209139 0 4-2.2385763 4-5s-1.790861-5-4-5-4 2.2385763-4 5 1.790861 5 4 5z"/><path d="m11 14h2c.2761424 0 .5.2238576.5.5v1c0 .8284271-.6715729 1.5-1.5 1.5-.8284271 0-1.5-.6715729-1.5-1.5v-1c0-.2761424.2238576-.5.5-.5z" opacity=".3"/></g></svg>