<svg height="24" viewBox="0 0 24 24" width="24" xmlns="http://www.w3.org/2000/svg"><g fill="none" fill-rule="evenodd"><path d="m0 0h24v24h-24z" opacity="0"/><path d="m18 16h-9c-.55228475 0-1-.4477153-1-1s.44771525-1 1-1h8c.5522847 0 1-.4477153 1-1s-.4477153-1-1-1h-8c-1.65685425 0-3 1.3431458-3 3s1.34314575 3 3 3h10.5c1.5 0 1.5.5 1.5 1s0 1-1.5 1h-12.5c-2.209139 0-4-1.790861-4-4v-8c0-2.209139 1.790861-4 4-4h10c2.209139 0 4 1.790861 4 4v5.0000005c0 1.6568537-1.3431458 2.9999995-3 2.9999995z" fill="#000"/></g></svg>