<svg height="24" viewBox="0 0 24 24" width="24" xmlns="http://www.w3.org/2000/svg"><g fill="none" fill-rule="evenodd"><path d="m0 0h24v24h-24z" opacity="0"/><g fill="#000"><path d="m6 8h12l-.893465 11.6150447c-.060115.7814958-.7117772 1.3849553-1.4955817 1.3849553h-7.22190659c-.78380446 0-1.43546667-.6034595-1.49558173-1.3849553zm2 2 .45438229 4.0894406 7.09740621-.055537.4482115-4.0339036z" fill-rule="nonzero"/><path d="m14 4.5v-1c0-.27614237-.2238576-.5-.5-.5h-3c-.2761424 0-.5.22385763-.5.5v1h-4.5c-.27614237 0-.5.22385763-.5.5v.5c0 .27614237.22385763.5.5.5h13c.2761424 0 .5-.22385763.5-.5v-.5c0-.27614237-.2238576-.5-.5-.5z" opacity=".3"/></g></g></svg>