<svg height="24" viewBox="0 0 24 24" width="24" xmlns="http://www.w3.org/2000/svg"><g fill="none" fill-rule="evenodd"><path d="m0 0h24v24h-24z" opacity="0"/><g fill="#000"><path d="m8 18c2.209139 0 4 1.790861 4 4h-8c0-2.209139 1.790861-4 4-4z" opacity=".3"/><path d="m7 12.1260175v-4.1260175c0-3.3137085 2.6862915-6 6-6s6 2.6862915 6 6v1h-2v-1c0-2.209139-1.790861-4-4-4s-4 1.790861-4 4v4.1260175c1.7252272.4440428 3 2.0101431 3 3.8739825 0 2.209139-1.790861 4-4 4s-4-1.790861-4-4c0-1.8638394 1.27477279-3.4299397 3-3.8739825zm1 5.8739825c1.1045695 0 2-.8954305 2-2s-.8954305-2-2-2-2 .8954305-2 2 .8954305 2 2 2z"/><path d="m18 17c1.1045695 0 2-.8954305 2-2 0-.7363797-.6666667-1.7363797-2-3-1.3333333 1.2636203-2 2.2636203-2 3 0 1.1045695.8954305 2 2 2z" opacity=".3"/></g></g></svg>