<svg height="24" viewBox="0 0 24 24" width="24" xmlns="http://www.w3.org/2000/svg"><g fill="none" fill-rule="evenodd"><path d="m0 0h24v24h-24z" opacity="0"/><g fill="#000"><path d="m8.42034438 20h12.57965562c1.1045695 0 2-.8954305 2-2v-12c0-1.1045695-.8954305-2-2-2h-12.57965562c-.26366006 0-.51665141.10412727-.70392292.28972363l-7.06318035 6.99999997c-.39227481.3887659-.39511934 1.0219245-.00635344 1.4141993.00210828.0021273.00422612.0042452.00635344.0063535l7.06318035 7c.18727151.1855963.44026286.2897236.70392292.2897236z" opacity=".3"/><path d="m12.5857864 12-1.4142135-1.4142136c-.3905243-.3905243-.3905243-1.02368923 0-1.41421352.3905243-.3905243 1.0236892-.3905243 1.4142135 0l1.4142136 1.41421352 1.4142136-1.41421352c.3905243-.3905243 1.0236892-.3905243 1.4142135 0 .3905243.39052429.3905243 1.02368922 0 1.41421352l-1.4142135 1.4142136 1.4142135 1.4142136c.3905243.3905243.3905243 1.0236892 0 1.4142135s-1.0236892.3905243-1.4142135 0l-1.4142136-1.4142135-1.4142136 1.4142135c-.3905243.3905243-1.0236892.3905243-1.4142135 0s-.3905243-1.0236892 0-1.4142135z"/></g></g></svg>