<svg height="24" viewBox="0 0 24 24" width="24" xmlns="http://www.w3.org/2000/svg"><g fill="none" fill-rule="evenodd"><path d="m0 0h24v24h-24z" opacity="0"/><path d="m9 15h-1.5c-.82842712 0-1.5.6715729-1.5 1.5s.67157288 1.5 1.5 1.5 1.5-.6715729 1.5-1.5zm0 0v-6h6v6zm6 1.5c0 .8284271.6715729 1.5 1.5 1.5s1.5-.6715729 1.5-1.5-.6715729-1.5-1.5-1.5h-1.5zm1.5-7.5c.8284271 0 1.5-.67157288 1.5-1.5s-.6715729-1.5-1.5-1.5-1.5.67157288-1.5 1.5v1.5zm-7.5-1.5c0-.82842712-.67157288-1.5-1.5-1.5s-1.5.67157288-1.5 1.5.67157288 1.5 1.5 1.5h1.5zm2 5.5h2v-2h-2zm2-2v-3.5c0-1.93299662 1.5670034-3.5 3.5-3.5s3.5 1.56700338 3.5 3.5-1.5670034 3.5-3.5 3.5zm3.5 2c1.9329966 0 3.5 1.5670034 3.5 3.5s-1.5670034 3.5-3.5 3.5-3.5-1.5670034-3.5-3.5v-3.5zm-5.5 3.5c0 1.9329966-1.56700338 3.5-3.5 3.5s-3.5-1.5670034-3.5-3.5 1.56700338-3.5 3.5-3.5h3.5zm-3.5-5.5c-1.93299662 0-3.5-1.56700338-3.5-3.5s1.56700338-3.5 3.5-3.5 3.5 1.56700338 3.5 3.5v3.5z" fill="#000" fill-rule="nonzero"/></g></svg>