<svg height="24" viewBox="0 0 24 24" width="24" xmlns="http://www.w3.org/2000/svg"><g fill="none" fill-rule="evenodd"><path d="m0 0h24v24h-24z" opacity="0"/><g fill="#000"><path d="m17.2718029 8.68536757c-.3785165-.40217375-.3593385-1.03504822.0428353-1.41356469.4021737-.37851647 1.0350482-.35933846 1.4135647.04283529l4 4.25000003c.3624.38505.3624.9856794 0 1.3707294l-4 4.25c-.3785165.4021737-1.011391.4213517-1.4135647.0428353-.4021738-.3785165-.4213518-1.011391-.0428353-1.4135647l3.3549509-3.5646353zm-10.54360578-.00000287-3.35495087 3.5646353 3.35495087 3.5646353c.37851647.4021738.35933846 1.0350482-.04283529 1.4135647s-1.03504822.3593384-1.4135647-.0428353l-4-4.25c-.3624-.38505-.3624-.9856794 0-1.3707294l4-4.25c.37851648-.40217375 1.01139095-.42135176 1.4135647-.04283529s.42135176 1.01139094.04283529 1.41356469z" fill-rule="nonzero"/><rect height="16" opacity=".3" rx="1" transform="matrix(.96592583 .25881905 -.25881905 .96592583 3.514719 -2.696938)" width="2" x="11" y="4"/></g></g></svg>