<svg height="24" viewBox="0 0 24 24" width="24" xmlns="http://www.w3.org/2000/svg"><g fill="none" fill-rule="evenodd"><path d="m0 0h24v24h-24z" opacity="0"/><g fill="#000"><path d="m20.5 11h2c.8284271 0 1.5.6715729 1.5 1.5s-.6715729 1.5-1.5 1.5h-2c-.8284271 0-1.5-.6715729-1.5-1.5s.6715729-1.5 1.5-1.5zm-19 0h2c.82842712 0 1.5.6715729 1.5 1.5s-.67157288 1.5-1.5 1.5h-2c-.82842712 0-1.5-.6715729-1.5-1.5s.67157288-1.5 1.5-1.5z" opacity=".3"/><path d="m12 16c1.6568542 0 3-1.3431458 3-3s-1.3431458-3-3-3-3 1.3431458-3 3 1.3431458 3 3 3zm0 2c-2.76142375 0-5-2.2385763-5-5s2.23857625-5 5-5c2.7614237 0 5 2.2385763 5 5s-2.2385763 5-5 5z" fill-rule="nonzero"/></g></g></svg>