<svg height="24" viewBox="0 0 24 24" width="24" xmlns="http://www.w3.org/2000/svg"><g fill="none" fill-rule="evenodd"><path d="m0 0h24v24h-24z" opacity="0"/><g fill="#000"><path d="m2.56066017 10.6819805 2.12132035-2.12132033c.58578643-.58578644 1.5355339-.58578644 2.12132034 0l2.12132034 2.12132033c.58578644.5857865.58578644 1.5355339 0 2.1213204l-2.12132034 2.1213203c-.58578644.5857864-1.53553391.5857864-2.12132034 0l-2.12132035-2.1213203c-.58578644-.5857865-.58578644-1.5355339 0-2.1213204zm12.00000003 0 2.1213203-2.12132033c.5857865-.58578644 1.5355339-.58578644 2.1213204 0l2.1213203 2.12132033c.5857864.5857865.5857864 1.5355339 0 2.1213204l-2.1213203 2.1213203c-.5857865.5857864-1.5355339.5857864-2.1213204 0l-2.1213203-2.1213203c-.5857865-.5857865-.5857865-1.5355339 0-2.1213204z" opacity=".3"/><path d="m8.56066017 16.6819805 2.12132033-2.1213203c.5857865-.5857865 1.5355339-.5857865 2.1213204 0l2.1213203 2.1213203c.5857864.5857865.5857864 1.5355339 0 2.1213204l-2.1213203 2.1213203c-.5857865.5857864-1.5355339.5857864-2.1213204 0l-2.12132033-2.1213203c-.58578644-.5857865-.58578644-1.5355339 0-2.1213204zm0-11.99999998 2.12132033-2.12132035c.5857865-.58578644 1.5355339-.58578644 2.1213204 0l2.1213203 2.12132035c.5857864.58578643.5857864 1.5355339 0 2.12132034l-2.1213203 2.12132034c-.5857865.58578644-1.5355339.58578644-2.1213204 0l-2.12132033-2.12132034c-.58578644-.58578644-.58578644-1.53553391 0-2.12132034z"/></g></g></svg>