<svg height="24" viewBox="0 0 24 24" width="24" xmlns="http://www.w3.org/2000/svg"><g fill="none" fill-rule="evenodd"><path d="m0 0h24v24h-24z" opacity="0"/><g fill="#000" fill-rule="nonzero"><path d="m16.5428932 17.4571068-5.5428932-5.5428932v-7.9142136c0-.55228475.4477153-1 1-1s1 .44771525 1 1v7.0857864l4.9571068 4.9571068 2.1893398-2.1893398c.1952622-.1952622.5118446-.1952622.7071068 0 .0937682.0937682.1464466.2209451.1464466.3535534v5.2928932c0 .2761424-.2238576.5-.5.5h-5.2928932c-.2761424 0-.5-.2238576-.5-.5 0-.1326082.0526784-.2597852.1464466-.3535534z"/><path d="m7.24478854 17.1447885 2.00165806 2.0016581c.09376819.0937682.14644661.2209452.14644661.3535534 0 .2761424-.22385762.5-.5.5h-5.36396103c-.27614237 0-.5-.2238576-.5-.5v-5.363961c0-.1326083.05267842-.2597852.14644661-.3535534.19526215-.1952622.51184464-.1952622.70710678 0l1.94318744 1.9431874 3.02838475-2.5624794 1.29188444 1.5267726z" opacity=".3"/></g></g></svg>