<svg height="24" viewBox="0 0 24 24" width="24" xmlns="http://www.w3.org/2000/svg"><g fill="none" fill-rule="evenodd"><path d="m0 0h24v24h-24z" opacity="0"/><g fill="#000"><circle cx="12" cy="12" opacity=".3" r="10"/><path d="m14.5 11c.5522847 0 1 .4477153 1 1v3c0 .5522847-.4477153 1-1 1h-5c-.55228475 0-1-.4477153-1-1v-3c0-.5522847.44771525-1 1-1v-.5c0-1.38071187 1.1192881-2.5 2.5-2.5s2.5 1.11928813 2.5 2.5zm-2.5-2c-.8284271 0-1.5.67157288-1.5 1.5v.5h3v-.5c0-.82842712-.6715729-1.5-1.5-1.5z"/></g></g></svg>