<svg height="24" viewBox="0 0 24 24" width="24" xmlns="http://www.w3.org/2000/svg"><g fill="none" fill-rule="evenodd"><path d="m0 0h24v24h-24z" opacity="0"/><g fill="#000"><path d="m7.38979581 2.8349582c1.26237154-.53752514 2.65155329-.8349582 4.11020419-.8349582 5.7989899 0 10.5 4.70101013 10.5 10.5 0 5.7989899-4.7010101 10.5-10.5 10.5-5.79898987 0-10.5-4.7010101-10.5-10.5 0-.9848676.13559454-1.9380655.38913364-2.84194349l1.92567711.54015519c-.20809062.7418523-.31481075 1.5137147-.31481075 2.3017883 0 4.6944204 3.80557963 8.5 8.5 8.5 4.6944204 0 8.5-3.8055796 8.5-8.5 0-4.69442037-3.8055796-8.5-8.5-8.5-.95124 0-1.87763931.15592757-2.75127809.45446326l1.19076117 1.41909391c.06932272.08261555.11007522.18543088.11617692.29310507.0156234.27570006-.19521035.51186441-.4709104.52748784l-4.86697029.27580265c-.04846769.00274658-.09707702-.00157994-.14429774-.01284335-.26860686-.06407-.43441675-.33375789-.37034675-.60236475l1.12850341-4.73113399c.02490295-.10440308.08274085-.19802154.16496194-.26701323.21153733-.17750089.52691513-.14990891.70441603.06162842z" opacity=".3"/><path d="m14.5 11c.5522847 0 1 .4477153 1 1v3c0 .5522847-.4477153 1-1 1h-5c-.55228475 0-1-.4477153-1-1v-3c0-.5522847.44771525-1 1-1v-.5c0-1.38071187 1.1192881-2.5 2.5-2.5s2.5 1.11928813 2.5 2.5zm-2.5-2c-.8284271 0-1.5.67157288-1.5 1.5v.5h3v-.5c0-.82842712-.6715729-1.5-1.5-1.5z"/></g></g></svg>