<svg height="24" viewBox="0 0 24 24" width="24" xmlns="http://www.w3.org/2000/svg"><g fill="none" fill-rule="evenodd"><path d="m0 0h24v24h-24z" opacity="0"/><path d="m19 11h1c1.6568542 0 3 1.3431458 3 3s-1.3431458 3-3 3h-1v3c0 1.1045695-.8954305 2-2 2h-12c-1.1045695 0-2-.8954305-2-2v-3h2c1.65685425 0 3-1.3431458 3-3s-1.34314575-3-3-3h-2v-3c0-1.1045695.8954305-2 2-2h3v-1c0-1.65685425 1.34314575-3 3-3 1.6568542 0 3 1.34314575 3 3v1h3c1.1045695 0 2 .8954305 2 2z" fill="#000" opacity=".3"/></g></svg>