<svg height="24" viewBox="0 0 24 24" width="24" xmlns="http://www.w3.org/2000/svg"><g fill="none" fill-rule="evenodd"><path d="m0 0h24v24h-24z" opacity="0"/><g fill="#000"><circle cx="12" cy="12" opacity=".3" r="10"/><path d="m12 16c.5522847 0 1 .4477153 1 1s-.4477153 1-1 1-1-.4477153-1-1 .4477153-1 1-1zm-1.409-1.132v-1.659h1.26c1.596 0 2.751-1.218 2.751-2.814s-1.155-2.814-2.751-2.814c-1.617 0-2.73 1.218-2.73 2.814h-1.785c0-2.52 1.974-4.473 4.515-4.473s4.536 1.953 4.536 4.473-1.995 4.473-4.536 4.473z"/></g></g></svg>