<svg height="24" viewBox="0 0 24 24" width="24" xmlns="http://www.w3.org/2000/svg"><g fill="none" fill-rule="evenodd"><path d="m0 0h24v24h-24z" opacity="0"/><g fill="#000"><path d="m18.6225 9.75h.1275c1.2426407 0 2.25 1.0073593 2.25 2.25s-1.0073593 2.25-2.25 2.25l-.0645088-.000006c-.1943036.000775-.3695934.116861-.4461363.2954546-.083674.1896975-.0450638.4026384.0884752.5392213l.0447049.0447051c.4224984.4220286.659895.9947042.659895 1.591875s-.2373966 1.1698464-.659305 1.591285c-.4220286.4224984-.9947042.659895-1.591875.659895s-1.1698464-.2373966-1.5915801-.6595999l-.0391186-.0391832c-.1424643-.1393558-.3554052-.177966-.5451027-.094292-.1785936.0765429-.2946796.2518327-.2954486.4431451v.1275c0 1.2426407-1.0073593 2.25-2.25 2.25s-2.25-1.0073593-2.25-2.25c-.00447591-.2500815-.13101461-.4270014-.36282401-.5138531-.18232206-.080466-.39526301-.0418558-.5318459.0916832l-.04470509.0447049c-.42202858.4224984-.99470419.659895-1.591875.659895s-1.16984642-.2373966-1.59128501-.659305c-.42249834-.4220286-.65989497-.9947042-.65989497-1.591875s.23739663-1.1698464.65959989-1.5915801l.03918315-.0391186c.13935583-.1424643.177966-.3554052.09429207-.5451027-.0765429-.1785936-.25183277-.2946796-.44314513-.2954486h-.1275c-1.24264069 0-2.25-1.0073593-2.25-2.25s1.00735931-2.25 2.25-2.25c.25008154-.00447591.42700139-.13101461.51385306-.36282401.080466-.18232206.04185583-.39526301-.09168315-.5318459l-.04470492-.04470509c-.42249834-.42202858-.65989497-.99470419-.65989497-1.591875s.23739663-1.16984642.65930498-1.59128501c.42202858-.42249834.99470419-.65989497 1.591875-.65989497s1.16984642.23739663 1.59158009.65959989l.03911863.03918315c.14246426.13935583.35540521.177966.53772727.0975l.10767065-.02270329c.15556649-.08426003.25444386-.24713504.25515336-.42364977v-.1275c0-1.24264069 1.0073593-2.25 2.25-2.25s2.25 1.00735931 2.25 2.25l-.000006.06450877c.000775.19430359.116861.36959346.30283.44934429.1823221.080466.395263.04185583.5318459-.09168315l.0447051-.04470492c.4220286-.42249834.9947042-.65989497 1.591875-.65989497s1.1698464.23739663 1.591285.65930498c.4224984.42202858.659895.99470419.659895 1.591875s-.2373966 1.16984642-.6595999 1.59158009l-.0391832.03911863c-.1393558.14246426-.177966.35540521-.0975.53772727l.0227033.10767065c.0842601.15556649.2471351.25444386.4236498.25515336z" fill-rule="nonzero" opacity=".3"/><path d="m12 15c1.6568542 0 3-1.3431458 3-3s-1.3431458-3-3-3-3 1.3431458-3 3 1.3431458 3 3 3z"/></g></g></svg>