<svg height="24" viewBox="0 0 24 24" width="24" xmlns="http://www.w3.org/2000/svg"><g fill="none" fill-rule="evenodd"><path d="m0 0h24v24h-24z" opacity="0"/><path d="m12.5936684 18.0752333v-3.6689017h6v-5.99999999h-6v-3.67424379l-6.67157297 6.66635328zm2-11.66890169h5c.5522847 0 1 .44771525 1 1v7.99999999c0 .5522848-.4477153 1-1 1h-5v4.6883381c0 .199014-.0790982.3898683-.2198773.5305374-.2930078.2927787-.7678815.292593-1.0606601-.0004147l-9.68934026-9.6969202c-.29277858-.2930078-.29259275-.7678815.00041506-1.0606601l9.6893401-9.68175946c.1406353-.14052535.3313118-.21946242.5301225-.21946242.4142136 0 .75.33578643.75.75z" fill="#000" fill-rule="nonzero" transform="matrix(0 1 1 0 .593668 -.593668)"/></g></svg>