<svg height="24" viewBox="0 0 24 24" width="24" xmlns="http://www.w3.org/2000/svg"><g fill="none" fill-rule="evenodd"><path d="m0 0h24v24h-24z" opacity="0"/><g fill="#000"><path d="m12 3c4.418278 0 8 3.581722 8 8v10c0 .5522847-.4477153 1-1 1h-14c-.55228475 0-1-.4477153-1-1v-10c0-4.418278 3.581722-8 8-8zm-3 7c-1.65685425 0-3 1.3431458-3 3s1.34314575 3 3 3h6c1.6568542 0 3-1.3431458 3-3s-1.3431458-3-3-3z"/><path d="m15 14c-.5522847 0-1-.4477153-1-1s.4477153-1 1-1 1 .4477153 1 1-.4477153 1-1 1zm-6 0c-.55228475 0-1-.4477153-1-1s.44771525-1 1-1 1 .4477153 1 1-.44771525 1-1 1z" opacity=".3"/></g></g></svg>