<svg height="24" viewBox="0 0 24 24" width="24" xmlns="http://www.w3.org/2000/svg"><g fill="none" fill-rule="evenodd"><path d="m0 0h24v24h-24z" opacity="0"/><path d="m12 22c-5.5228475 0-10-4.4771525-10-10s4.4771525-10 10-10 10 4.4771525 10 10-4.4771525 10-10 10zm0-2c4.418278 0 8-3.581722 8-8s-3.581722-8-8-8-8 3.581722-8 8 3.581722 8 8 8zm7.0710678-15.07106781c.3905243.39052429.3905243 1.02368927 0 1.41421356l-12.72792205 12.72792205c-.39052429.3905243-1.02368927.3905243-1.41421356 0-.39052429-.3905243-.39052429-1.0236893 0-1.4142136l12.72792201-12.72792201c.3905243-.39052429 1.0236893-.39052429 1.4142136 0z" fill="#000" fill-rule="nonzero" opacity=".3"/></g></svg>