<svg height="24" viewBox="0 0 24 24" width="24" xmlns="http://www.w3.org/2000/svg"><g fill="none" fill-rule="evenodd"><path d="m0 0h24v24h-24z" opacity="0"/><g fill="#000"><path d="m10.9630156 7.5h.0844906c.2568757 0 .4719585.19464724.4975186.45024814l.4549752 4.54975186 3.2480695 1.8560397c.1557875.0890214.2519305.2546931.2519305.4341216v.2098387c0 .2109164-.1709815.3818979-.3818979.3818979-.0339439 0-.0677362-.0045254-.100484-.0134566l-4.6189569-1.2597155c-.2313788-.0631033-.3853626-.2816072-.3669686-.5207302l.4327957-5.62634385c.0200384-.26049858.2372591-.46165175.4985273-.46165175z"/><path d="m7.38979581 2.8349582c1.26237154-.53752514 2.65155329-.8349582 4.11020419-.8349582 5.7989899 0 10.5 4.70101013 10.5 10.5 0 5.7989899-4.7010101 10.5-10.5 10.5-5.79898987 0-10.5-4.7010101-10.5-10.5 0-.9848676.13559454-1.9380655.38913364-2.84194349l1.92567711.54015519c-.20809062.7418523-.31481075 1.5137147-.31481075 2.3017883 0 4.6944204 3.80557963 8.5 8.5 8.5 4.6944204 0 8.5-3.8055796 8.5-8.5 0-4.69442037-3.8055796-8.5-8.5-8.5-.95124 0-1.87763931.15592757-2.75127809.45446326l1.19076117 1.41909391c.06932272.08261555.11007522.18543088.11617692.29310507.0156234.27570006-.19521035.51186441-.4709104.52748784l-4.86697029.27580265c-.04846769.00274658-.09707702-.00157994-.14429774-.01284335-.26860686-.06407-.43441675-.33375789-.37034675-.60236475l1.12850341-4.73113399c.02490295-.10440308.08274085-.19802154.16496194-.26701323.21153733-.17750089.52691513-.14990891.70441603.06162842z" opacity=".3"/></g></g></svg>