<svg height="24" viewBox="0 0 24 24" width="24" xmlns="http://www.w3.org/2000/svg"><g fill="none" fill-rule="evenodd"><path d="m0 0h24v24h-24z" opacity="0"/><g fill="#000"><path d="m11.1669899 4.49941818-8.34163272 15.01493892c-.26821318.4827837-.09426938 1.091587.38851435 1.3598002.148558.0825322.31569868.1258427.48564293.1258427h17.51742874c.5522847 0 1-.4477153 1-1 0-.1840048-.0507689-.3644421-.1467182-.52145l-9.175796-15.0149389c-.2879889-.47125454-.9034773-.61982071-1.3747318-.33183182-.1473378.09003974-.2688504.21669655-.3527073.3676389z" opacity=".3"/><rect height="7" rx="1" width="2" x="11" y="9"/><rect height="2" rx="1" width="2" x="11" y="17"/></g></g></svg>