<svg height="24" viewBox="0 0 24 24" width="24" xmlns="http://www.w3.org/2000/svg"><g fill="none" fill-rule="evenodd"><path d="m0 0h24v24h-24z" opacity="0"/><g fill="#000"><path d="m19.802 9.244c-.3360017-.45600228-.7739973-.78899895-1.314-.999s-1.0679974-.315-1.584-.315c-.6600033 0-1.2599973.1199988-1.8.36s-1.004998.5699979-1.395.99c-.3900019.4200021-.6899989.9119972-.9 1.476-.210001.5640028-.315 1.1759967-.315 1.836 0 .6960035.101999 1.3319971.306 1.908s.4949981 1.0709979.873 1.485.8309974.7349989 1.359.963 1.1219967.342 1.782.342c.6840034 0 1.2899974-.1349987 1.818-.405s.9539984-.6269978 1.278-1.071l1.818 1.278c-.5640028.7080035-1.2539959 1.256998-2.07 1.647-.8160041.3900019-1.7699945.585-2.862.585-.996005 0-1.9109958-.1649983-2.745-.495-.8340042-.3300016-1.550997-.791997-2.151-1.386s-1.0679983-1.3019959-1.404-2.124-.504-1.730995-.504-2.727c0-1.0200051.1769982-1.9409959.531-2.763.3540018-.82200411.8399969-1.52099712 1.458-2.097s1.3469958-1.01999844 2.187-1.332 1.7519951-.468 2.736-.468c.408002 0 .8339978.03899961 1.278.117s.869998.19799919 1.278.36.7919982.3629988 1.152.603.6659987.52799832.918.864z"/><path d="m2.72 8.92c0-.39600198.07499925-.76799826.225-1.116s.35699868-.65399868.621-.918.56999826-.47099925.918-.621.71999802-.225 1.116-.225.76799826.07499925 1.116.225.65399868.35699868.918.621.47099925.56999826.621.918.225.71999802.225 1.116-.07499925.76799826-.225 1.116c-.15000075.3480017-.35699868.6539987-.621.918s-.56999826.4709992-.918.621c-.34800174.1500007-.71999802.225-1.116.225s-.76799826-.0749993-1.116-.225c-.34800174-.1500008-.65399868-.3569987-.918-.621s-.47099925-.5699983-.621-.918c-.15000075-.34800174-.225-.71999802-.225-1.116zm1.404 0c0 .40800204.14399856.75599856.432 1.044.28800144.2880014.63599796.432 1.044.432s.75599856-.1439986 1.044-.432c.28800144-.28800144.432-.63599796.432-1.044s-.14399856-.75599856-.432-1.044-.63599796-.432-1.044-.432-.75599856.14399856-1.044.432-.432.63599796-.432 1.044z" opacity=".3"/></g></g></svg>