<svg height="24" viewBox="0 0 24 24" width="24" xmlns="http://www.w3.org/2000/svg"><g fill="none" fill-rule="evenodd"><path d="m0 0h24v24h-24z" opacity="0"/><g fill="#000"><path d="m18.0438023 3.00018787c-.425358.73539096-.6688023 1.58917182-.6688023 2.49981213 0 2.74680825 2.2149426 4.9762889 4.9561977 4.9998121-.8644968 1.4946071-2.4804143 2.5001879-4.3311977 2.5001879-2.7614237 0-5-2.2385763-5-5 0-2.76142375 2.2385763-5 5-5 .0146155 0 .0292164.00006271.0438023.00018787z" opacity=".3" transform="matrix(.93358043 -.35836795 .35836795 .93358043 -1.692147 6.86999)"/><path d="m5.74714567 18.0425758c-1.65304205-1.0685402-2.74714567-2.9277872-2.74714567-5.0425758 0-3.3137085 2.6862915-6 6-6 2.7957591 0 5.1449096 1.91215918 5.8109738 4.5h2.4390262c2.0710678 0 3.75 1.6789322 3.75 3.75s-1.6789322 3.75-3.75 3.75h-9c-.96182105 0-1.83906822-.3621038-2.50285433-.9574242z"/></g></g></svg>