<svg height="24" viewBox="0 0 24 24" width="24" xmlns="http://www.w3.org/2000/svg"><g fill="none" fill-rule="evenodd"><path d="m0 0h24v24h-24z" opacity="0"/><g fill="#000"><path d="m5.74714567 14.0425758c-1.65304205-1.0685402-2.74714567-2.9277872-2.74714567-5.0425758 0-3.3137085 2.6862915-6 6-6 2.7957591 0 5.1449096 1.91215918 5.8109738 4.5h2.4390262c2.0710678 0 3.75 1.67893219 3.75 3.75 0 2.0710678-1.6789322 3.75-3.75 3.75h-9c-.96182105 0-1.83906822-.3621038-2.50285433-.9574242z"/><path d="m4.5 17h16c.2761424 0 .5.2238576.5.5s-.2238576.5-.5.5h-16c-.27614237 0-.5-.2238576-.5-.5s.22385763-.5.5-.5zm0 2h4c.27614237 0 .5.2238576.5.5s-.22385763.5-.5.5h-4c-.27614237 0-.5-.2238576-.5-.5s.22385763-.5.5-.5zm12 2h4c.2761424 0 .5.2238576.5.5s-.2238576.5-.5.5h-4c-.2761424 0-.5-.2238576-.5-.5s.2238576-.5.5-.5zm-5-2h9c.2761424 0 .5.2238576.5.5s-.2238576.5-.5.5h-9c-.2761424 0-.5-.2238576-.5-.5s.2238576-.5.5-.5zm-7 2h9c.2761424 0 .5.2238576.5.5s-.2238576.5-.5.5h-9c-.27614237 0-.5-.2238576-.5-.5s.22385763-.5.5-.5z" opacity=".3"/></g></g></svg>