<svg height="24" viewBox="0 0 24 24" width="24" xmlns="http://www.w3.org/2000/svg"><g fill="none" fill-rule="evenodd"><path d="m0 0h24v24h-24z" opacity="0"/><g fill="#000"><path d="m13 16c-2.209139 0-4-1.790861-4-4s1.790861-4 4-4 4 1.790861 4 4-1.790861 4-4 4zm7.5-5.5h1.5c.8284271 0 1.5.6715729 1.5 1.5s-.6715729 1.5-1.5 1.5h-1.5c-.8284271 0-1.5-.6715729-1.5-1.5s.6715729-1.5 1.5-1.5zm-3.4393398-4.62867966 1.0606601-1.06066017c.5857865-.58578644 1.5355339-.58578644 2.1213204 0 .5857864.58578644.5857864 1.53553391 0 2.12132035l-1.0606602 1.06066017c-.5857864.58578643-1.5355339.58578643-2.1213203 0-.5857865-.58578644-.5857865-1.53553391 0-2.12132035zm-4.0606602-4.37132034c.8284271 0 1.5.67157288 1.5 1.5v1.5c0 .82842712-.6715729 1.5-1.5 1.5s-1.5-.67157288-1.5-1.5v-1.5c0-.82842712.6715729-1.5 1.5-1.5zm-7.18933983 3.31066017c.58578644-.58578644 1.53553391-.58578644 2.12132035 0l1.06066017 1.06066017c.58578643.58578644.58578643 1.53553391 0 2.12132035-.58578644.58578643-1.53553391.58578643-2.12132035 0l-1.06066017-1.06066017c-.58578644-.58578644-.58578644-1.53553391 0-2.12132035z" fill-rule="nonzero" opacity=".3"/><path d="m4.74714567 20.0425758c-1.65304205-1.0685402-2.74714567-2.9277872-2.74714567-5.0425758 0-3.3137085 2.6862915-6 6-6 2.7957591 0 5.1449096 1.9121592 5.8109738 4.5h2.4390262c2.0710678 0 3.75 1.6789322 3.75 3.75s-1.6789322 3.75-3.75 3.75h-9c-.96182105 0-1.83906822-.3621038-2.50285433-.9574242z"/></g></g></svg>