<svg height="24" viewBox="0 0 24 24" width="24" xmlns="http://www.w3.org/2000/svg"><g fill="none" fill-rule="evenodd"><path d="m0 0h24v24h-24z" opacity="0"/><g fill="#000"><path d="m6.5 24c-.82842712 0-1.5-.6715729-1.5-1.5 0-.5522847.5-1.3856181 1.5-2.5 1 1.1143819 1.5 1.9477153 1.5 2.5 0 .8284271-.67157288 1.5-1.5 1.5zm5 0c-.8284271 0-1.5-.6715729-1.5-1.5 0-.5522847.5-1.3856181 1.5-2.5 1 1.1143819 1.5 1.9477153 1.5 2.5 0 .8284271-.6715729 1.5-1.5 1.5zm5 0c-.8284271 0-1.5-.6715729-1.5-1.5 0-.5522847.5-1.3856181 1.5-2.5 1 1.1143819 1.5 1.9477153 1.5 2.5 0 .8284271-.6715729 1.5-1.5 1.5zm-3-11c-1.9329966 0-3.5-1.5670034-3.5-3.5 0-1.93299662 1.5670034-3.5 3.5-3.5s3.5 1.56700338 3.5 3.5c0 1.9329966-1.5670034 3.5-3.5 3.5zm6.2419575-4.125h1.3125c.7248738 0 1.3125.58762627 1.3125 1.3125 0 .7248737-.5876262 1.3125-1.3125 1.3125h-1.3125c-.7248737 0-1.3125-.5876263-1.3125-1.3125 0-.72487373.5876263-1.3125 1.3125-1.3125zm-3.0094223-4.0500947.9280776-.92807765c.5125632-.51256313 1.3435922-.51256313 1.8561553 0 .5125632.51256313.5125632 1.34359217 0 1.8561553l-.9280776.92807765c-.5125632.51256313-1.3435922.51256313-1.8561553 0-.5125632-.51256313-.5125632-1.34359217 0-1.8561553zm-3.5530777-3.8249053c.7248738 0 1.3125.58762627 1.3125 1.3125v1.3125c0 .72487373-.5876262 1.3125-1.3125 1.3125-.7248737 0-1.3125-.58762627-1.3125-1.3125v-1.3125c0-.72487373.5876263-1.3125 1.3125-1.3125zm-6.29067233 2.89682765c.51256313-.51256313 1.34359217-.51256313 1.8561553 0l.92807765.92807765c.51256318.51256313.51256318 1.34359217 0 1.8561553-.51256313.51256313-1.34359216.51256313-1.8561553 0l-.92807765-.92807765c-.51256313-.51256313-.51256313-1.34359217 0-1.8561553z" opacity=".3"/><path d="m4.74714567 18.0425758c-1.65304205-1.0685402-2.74714567-2.9277872-2.74714567-5.0425758 0-3.3137085 2.6862915-6 6-6 2.7957591 0 5.1449096 1.91215918 5.8109738 4.5h2.4390262c2.0710678 0 3.75 1.6789322 3.75 3.75s-1.6789322 3.75-3.75 3.75h-9c-.96182105 0-1.83906822-.3621038-2.50285433-.9574242z"/></g></g></svg>