<svg height="24" viewBox="0 0 24 24" width="24" xmlns="http://www.w3.org/2000/svg"><g fill="none" fill-rule="evenodd"><path d="m0 0h24v24h-24z" opacity="0"/><g fill="#000"><path d="m17.2283644 2.20458594c-.1335654.8389813-.0548725 1.72329701.2714718 2.57345298.9843681 2.56436642 3.8511695 3.85200153 6.4187816 2.89158433-.271458 1.70514382-1.419679 3.22302745-3.1475342 3.88628885-2.5780111.9896058-5.4701361-.2980512-6.4597418-2.87606234-.9896058-2.57801116.2980512-5.47013611 2.8760623-6.45974188.0136448-.00523772.0272983-.01041166.0409603-.01552194zm-10.7283644 19.79541406c-.82842712 0-1.5-.6715729-1.5-1.5 0-.5522847.5-1.3856181 1.5-2.5 1 1.1143819 1.5 1.9477153 1.5 2.5 0 .8284271-.67157288 1.5-1.5 1.5zm5 0c-.8284271 0-1.5-.6715729-1.5-1.5 0-.5522847.5-1.3856181 1.5-2.5 1 1.1143819 1.5 1.9477153 1.5 2.5 0 .8284271-.6715729 1.5-1.5 1.5zm5 0c-.8284271 0-1.5-.6715729-1.5-1.5 0-.5522847.5-1.3856181 1.5-2.5 1 1.1143819 1.5 1.9477153 1.5 2.5 0 .8284271-.6715729 1.5-1.5 1.5z" opacity=".3"/><path d="m5.74714567 16.0425758c-1.65304205-1.0685402-2.74714567-2.9277872-2.74714567-5.0425758 0-3.3137085 2.6862915-6 6-6 2.7957591 0 5.1449096 1.91215918 5.8109738 4.5h2.4390262c2.0710678 0 3.75 1.6789322 3.75 3.75s-1.6789322 3.75-3.75 3.75h-9c-.96182105 0-1.83906822-.3621038-2.50285433-.9574242z"/></g></g></svg>