<svg height="24" viewBox="0 0 24 24" width="24" xmlns="http://www.w3.org/2000/svg"><g fill="none" fill-rule="evenodd"><path d="m0 0h24v24h-24z" opacity="0"/><g fill="#000"><path d="m12.880982 3.00020666c-.4678939.80893006-.7356826 1.748089-.7356826 2.74979334 0 3.02148908 2.4364368 5.4739178 5.4518175 5.4997933-.9509465 1.6440678-2.7284557 2.7502067-4.7643175 2.7502067-3.0375661 0-5.49999998-2.4624339-5.49999998-5.5 0-3.03756612 2.46243388-5.5 5.49999998-5.5.0160771 0 .032138.00006898.0481826.00020666z"/><path d="m2.5 16h19c.2761424 0 .5.2238576.5.5s-.2238576.5-.5.5h-19c-.27614237 0-.5-.2238576-.5-.5s.22385763-.5.5-.5zm0 2h5c.27614237 0 .5.2238576.5.5s-.22385763.5-.5.5h-5c-.27614237 0-.5-.2238576-.5-.5s.22385763-.5.5-.5zm12 2h7c.2761424 0 .5.2238576.5.5s-.2238576.5-.5.5h-7c-.2761424 0-.5-.2238576-.5-.5s.2238576-.5.5-.5zm-5-2h12c.2761424 0 .5.2238576.5.5s-.2238576.5-.5.5h-12c-.27614237 0-.5-.2238576-.5-.5s.22385763-.5.5-.5zm-7 2h10c.2761424 0 .5.2238576.5.5s-.2238576.5-.5.5h-10c-.27614237 0-.5-.2238576-.5-.5s.22385763-.5.5-.5z" opacity=".3"/></g></g></svg>