<svg height="24" viewBox="0 0 24 24" width="24" xmlns="http://www.w3.org/2000/svg"><g fill="none" fill-rule="evenodd"><path d="m0 0h24v24h-24z" opacity="0"/><g fill="#000"><path d="m5.07063123 16c.48812061-3.4218711 3.43411226-6 6.92936877-6 3.4955057 0 6.4413027 2.5784053 6.9293689 6h-2.029387c-.4632703-2.2822403-2.481024-4-4.8999819-4-2.41895791 0-4.43671155 1.7177597-4.89998188 4zm4.09932643 0c.4135069-1.1721885 1.53386804-2 2.83004234-2 1.2962528 0 2.4165517.8278812 2.8300407 2z" opacity=".3"/><path d="m12 6c5.7380426 0 10.4499282 4.3935 10.955157 10h-2.0100856c-.008552-.0773607-.0180843-.1544258-.0285844-.2311828-.600275-4.3880751-4.3635737-7.7688172-8.916487-7.7688172-4.54950846 0-8.31058288 3.3756875-8.91513498 7.7589741-.01103529.080011-.02101884.1603578-.02993624.2410259h-2.01009397c.50523698-5.6065 5.21712263-10 10.95516519-10z"/><path d="m12 6c5.7380426 0 10.4499282 4.3935 10.955157 10h-2.0100856c-.008552-.0773607-.0180843-.1544258-.0285844-.2311828-.600275-4.3880751-4.3635737-7.7688172-8.916487-7.7688172-4.54950846 0-8.31058288 3.3756875-8.91513498 7.7589741-.01103529.080011-.02101884.1603578-.02993624.2410259h-2.01009397c.50523698-5.6065 5.21712263-10 10.95516519-10z"/></g></g></svg>