<svg height="24" viewBox="0 0 24 24" width="24" xmlns="http://www.w3.org/2000/svg"><g fill="none" fill-rule="evenodd"><path d="m0 0h24v24h-24z" opacity="0"/><g fill="#000"><path d="m4.30769231 13c-1.27450327 0-2.30769231-1.0073593-2.30769231-2.25 0-.82842712.76923077-2.07842712 2.30769231-3.75 1.53846154 1.67157288 2.30769231 2.92157288 2.30769231 3.75 0 1.2426407-1.03318904 2.25-2.30769231 2.25zm15.38461539 0c-1.2745033 0-2.3076923-1.0073593-2.3076923-2.25 0-.82842712.7692308-2.07842712 2.3076923-3.75 1.5384615 1.67157288 2.3076923 2.92157288 2.3076923 3.75 0 1.2426407-1.033189 2.25-2.3076923 2.25zm-11.38461539 7c-1.27450327 0-2.30769231-1.0073593-2.30769231-2.25 0-.8284271.76923077-2.0784271 2.30769231-3.75 1.53846154 1.6715729 2.30769229 2.9215729 2.30769229 3.75 0 1.2426407-1.03318902 2.25-2.30769229 2.25zm7.69230769 0c-1.2745033 0-2.3076923-1.0073593-2.3076923-2.25 0-.8284271.7692308-2.0784271 2.3076923-3.75 1.5384615 1.6715729 2.3076923 2.9215729 2.3076923 3.75 0 1.2426407-1.033189 2.25-2.3076923 2.25z" opacity=".3"/><path d="m12 13c1.2745033 0 2.3076923-1.0073593 2.3076923-2.25 0-.82842712-.7692308-2.07842712-2.3076923-3.75-1.5384615 1.67157288-2.30769231 2.92157288-2.30769231 3.75 0 1.2426407 1.03318901 2.25 2.30769231 2.25z"/></g></g></svg>