<svg height="24" viewBox="0 0 24 24" width="24" xmlns="http://www.w3.org/2000/svg"><g fill="none" fill-rule="evenodd"><path d="m0 0h24v24h-24z" opacity="0"/><g fill="#000"><path d="m5.74714567 14.0425758c-1.65304205-1.0685402-2.74714567-2.9277872-2.74714567-5.0425758 0-3.3137085 2.6862915-6 6-6 2.7957591 0 5.1449096 1.91215918 5.8109738 4.5h2.4390262c2.0710678 0 3.75 1.67893219 3.75 3.75 0 2.0710678-1.6789322 3.75-3.75 3.75h-9c-.96182105 0-1.83906822-.3621038-2.50285433-.9574242z"/><path d="m8.90586666 16.1192596c.5334661.1429418.85004859.6912788.70710678 1.2247449l-1.03527618 3.8637033c-.14294181.5334661-.69127877.8500486-1.22474487.7071068-.53346611-.1429418-.8500486-.6912788-.70710678-1.2247449l1.03527618-3.8637033c.14294181-.5334661.69127876-.8500486 1.22474487-.7071068zm8.00000004 0c.5334661.1429418.8500486.6912788.7071067 1.2247449l-1.0352761 3.8637033c-.1429419.5334661-.6912788.8500486-1.2247449.7071068s-.8500486-.6912788-.7071068-1.2247449l1.0352762-3.8637033c.1429418-.5334661.6912788-.8500486 1.2247449-.7071068zm-4 0c.5334661.1429418.8500486.6912788.7071067 1.2247449l-1.0352761 3.8637033c-.1429419.5334661-.6912788.8500486-1.2247449.7071068s-.8500486-.6912788-.7071068-1.2247449l1.0352762-3.8637033c.1429418-.5334661.6912788-.8500486 1.2247449-.7071068z" opacity=".3"/></g></g></svg>