<svg height="24" viewBox="0 0 24 24" width="24" xmlns="http://www.w3.org/2000/svg"><g fill="none" fill-rule="evenodd"><path d="m0 0h24v24h-24z" opacity="0"/><g fill="#000"><path d="m11 10.4165357v-6.4165357c0-.55228475.4477153-1 1-1s1 .44771525 1 1v6.317478l5.38531-3.10921017c.4782926-.27614237 1.089883-.11226722 1.3660254.3660254.2761424.47829263.1122672 1.08988303-.3660254 1.36602541l-5.4710964 3.15873896 5.38531 3.1092102c.4782926.2761424.6421678.8877328.3660254 1.3660254-.2761424.4782927-.8877328.6421678-1.3660254.3660254l-5.2995236-3.0596813v6.1193627c0 .5522847-.4477153 1-1 1s-1-.4477153-1-1v-6.2184204l-5.47109645 3.158739c-.47829262.2761424-1.08988303.1122673-1.3660254-.3660254-.27614238-.4782926-.11226722-1.089883.3660254-1.3660254l5.38531001-3.1092102-5.47109645-3.15873896c-.47829262-.27614238-.64216778-.88773278-.3660254-1.36602541.27614237-.47829262.88773278-.64216777 1.3660254-.3660254z" opacity=".3"/><path d="m7.85831393 9.7796456c.01629077.03957093.03022758.08063657.04159886.12307476.14294181.53346614-.17364068 1.08180304-.70710678 1.22474484l-1.93185165.5176381c-.5334661.1429418-1.08180306-.1736407-1.22474487-.7071068s.17364067-1.08180302.70710678-1.22474483l1.93185165-.51763809c.04243819-.01137128.08497048-.01983446.12738531-.02551171-.01629078-.03957094-.03022759-.08063658-.04159887-.12307476l-.51763809-1.93185165c-.14294181-.53346611.17364068-1.08180306.70710678-1.22474487.5334661-.14294182 1.08180306.17364067 1.22474487.70710678l.51763809 1.93185165c.14294181.5334661-.17364068 1.08180306-.70710678 1.22474487-.04243818.01137128-.08497048.01983446-.1273853.02551171zm9.16755997 5.2928932c.0162908.039571.0302276.0806366.0415989.1230748l.5176381 1.9318516c.1429418.5334661-.1736407 1.0818031-.7071068 1.2247449s-1.0818031-.1736407-1.2247449-.7071068l-.5176381-1.9318516c-.1429418-.5334661.1736407-1.0818031.7071068-1.2247449.0424382-.0113713.0849705-.0198345.1273853-.0255117-.0162908-.0395709-.0302276-.0806366-.0415989-.1230748-.1429418-.5334661.1736407-1.081803.7071068-1.2247448l1.9318517-.5176381c.5334661-.1429418 1.081803.1736406 1.2247448.7071067.1429418.5334662-.1736406 1.0818031-.7071067 1.2247449l-1.9318517.5176381c-.0424382.0113713-.0849705.0198345-.1273853.0255117zm-1.0557607-5.2928932c-.0424148-.00567725-.0849471-.01414043-.1273853-.02551171-.5334661-.14294181-.8500486-.69127877-.7071068-1.22474487l.5176381-1.93185165c.1429418-.53346611.6912788-.8500486 1.2247449-.70710678.5334661.14294181.8500486.69127876.7071068 1.22474487l-.5176381 1.93185165c-.0113713.04243818-.0253081.08350382-.0415989.12307476.0424148.00567725.0849471.01414043.1273853.02551171l1.9318517.51763809c.5334661.14294181.8500485.69127873.7071067 1.22474483s-.6912787.8500486-1.2247448.7071068l-1.9318517-.5176381c-.5334661-.1429418-.8500486-.6912787-.7071068-1.22474484.0113713-.04243819.0253081-.08350383.0415989-.12307476zm-9.16755997 5.2928932c-.04241483-.0056772-.08494712-.0141404-.12738531-.0255117l-1.93185165-.5176381c-.53346611-.1429418-.85004859-.6912787-.70710678-1.2247449.14294181-.5334661.69127877-.8500485 1.22474487-.7071067l1.93185165.5176381c.5334661.1429418.85004859.6912787.70710678 1.2247448-.01137128.0424382-.02530809.0835039-.04159886.1230748.04241482.0056772.08494712.0141404.1273853.0255117.5334661.1429418.85004859.6912788.70710678 1.2247449l-.51763809 1.9318516c-.14294181.5334661-.69127877.8500486-1.22474487.7071068s-.85004859-.6912788-.70710678-1.2247449l.51763809-1.9318516c.01137128-.0424382.02530809-.0835038.04159887-.1230748zm5.11166037-7.63456795c-.0261241.03389369-.0547196.06649615-.0857865.09756306-.3905243.39052429-1.0236892.39052429-1.4142135 0l-1.4142136-1.41421357c-.39052429-.39052429-.39052429-1.02368927 0-1.41421356s1.0236893-.39052429 1.4142136 0l1.4142135 1.41421356c.0310669.03106691.0596624.06366937.0857865.09756306.026124-.03389369.0547195-.06649615.0857864-.09756306l1.4142136-1.41421356c.3905243-.39052429 1.0236892-.39052429 1.4142135 0s.3905243 1.02368927 0 1.41421356l-1.4142135 1.41421357c-.3905243.39052429-1.0236893.39052429-1.4142136 0-.0310669-.03106691-.0596624-.06366937-.0857864-.09756306zm0 10.58578645c-.0261241.0338937-.0547196.0664961-.0857865.097563l-1.4142135 1.4142136c-.3905243.3905243-1.02368931.3905243-1.4142136 0s-.39052429-1.0236893 0-1.4142136l1.4142136-1.4142135c.3905243-.3905243 1.0236892-.3905243 1.4142135 0 .0310669.0310669.0596624.0636693.0857865.097563.026124-.0338937.0547195-.0664961.0857864-.097563.3905243-.3905243 1.0236893-.3905243 1.4142136 0l1.4142135 1.4142135c.3905243.3905243.3905243 1.0236893 0 1.4142136s-1.0236892.3905243-1.4142135 0l-1.4142136-1.4142136c-.0310669-.0310669-.0596624-.0636693-.0857864-.097563z" opacity=".3"/></g></g></svg>