<svg height="24" viewBox="0 0 24 24" width="24" xmlns="http://www.w3.org/2000/svg"><g fill="none" fill-rule="evenodd"><path d="m0 0h24v24h-24z" opacity="0"/><g fill="#000"><rect height="2" rx="1" width="14" x="8" y="2"/><path d="m6 6h12c.5522847 0 1 .44771525 1 1s-.4477153 1-1 1h-12c-.55228475 0-1-.44771525-1-1s.44771525-1 1-1zm2 4h7c.5522847 0 1 .4477153 1 1s-.4477153 1-1 1h-7c-.55228475 0-1-.4477153-1-1s.44771525-1 1-1zm3 4h6c.5522847 0 1 .4477153 1 1s-.4477153 1-1 1h-6c-.5522847 0-1-.4477153-1-1s.4477153-1 1-1zm1 4h3c.5522847 0 1 .4477153 1 1s-.4477153 1-1 1h-3c-.5522847 0-1-.4477153-1-1s.4477153-1 1-1zm-1 3h1c.5522847 0 1 .4477153 1 1s-.4477153 1-1 1h-1c-.5522847 0-1-.4477153-1-1s.4477153-1 1-1z" opacity=".3"/></g></g></svg>