<svg height="24" viewBox="0 0 24 24" width="24" xmlns="http://www.w3.org/2000/svg"><g fill="none" fill-rule="evenodd"><path d="m0 0h24v24h-24z" opacity="0"/><path d="m13.9985481 12.5339049-.9985481-.5776289v-6.956276c0-.26704772-.5169918-.99120487-1-1-.5159071-.00939419-1 .71476297-1 1v6.956276l-.9985481.5776289c-1.22981552.7114099-2.0014519 2.0204632-2.0014519 3.4660951 0 2.209139 1.790861 4 4 4s4-1.790861 4-4c0-1.4456319-.7716364-2.7546852-2.0014519-3.4660951zm4.0014519 3.4660951c0 3.3137085-2.6862915 6-6 6s-6-2.6862915-6-6c0-2.2208471 1.20659589-4.1598786 3-5.1973068v-5.8026932c0-1.65685425 1.3431458-3 3-3s3 1.34314575 3 3v5.8026932c1.7934041 1.0374282 3 2.9764597 3 5.1973068z" fill="#000" fill-rule="nonzero"/></g></svg>