<svg height="24" viewBox="0 0 24 24" width="24" xmlns="http://www.w3.org/2000/svg"><g fill="none" fill-rule="evenodd"><path d="m0 0h24v24h-24z" opacity="0"/><path d="m18 16c0 3.3137085-2.6862915 6-6 6s-6-2.6862915-6-6c0-2.2208471 1.20659589-4.1598786 3-5.1973068v-5.8026932c0-1.65685425 1.3431458-3 3-3s3 1.34314575 3 3v5.8026932c1.7934041 1.0374282 3 2.9764597 3 5.1973068zm-6-12c-.5522847 0-1 .44771525-1 1v5c0 .5522847.4477153 1 1 1s1-.4477153 1-1v-5c0-.55228475-.4477153-1-1-1z" fill="#000" fill-rule="nonzero"/></g></svg>