<svg height="24" viewBox="0 0 24 24" width="24" xmlns="http://www.w3.org/2000/svg"><g fill="none" fill-rule="evenodd"><path d="m0 0h24v24h-24z" opacity="0"/><g fill="#000"><path d="m17.2283644.20458594c-.1335654.8389813-.0548725 1.72329701.2714718 2.57345298.9843681 2.56436642 3.8511695 3.85200153 6.4187816 2.89158433-.271458 1.70514382-1.419679 3.22302743-3.1475342 3.8862889-2.5780111.98960575-5.4701361-.29805123-6.4597418-2.87606239-.9896058-2.57801116.2980512-5.47013611 2.8760623-6.45974188.0136448-.00523772.0272983-.01041166.0409603-.01552194zm-7.1394757 23.79541406v-4h-2.22222222l4.44444442-6v4h2.2222222z" opacity=".3"/><path d="m5.74714567 14.0425758c-1.65304205-1.0685402-2.74714567-2.9277872-2.74714567-5.0425758 0-3.3137085 2.6862915-6 6-6 2.7957591 0 5.1449096 1.91215918 5.8109738 4.5h2.4390262c2.0710678 0 3.75 1.67893219 3.75 3.75 0 2.0710678-1.6789322 3.75-3.75 3.75h-9c-.96182105 0-1.83906822-.3621038-2.50285433-.9574242z"/></g></g></svg>