<svg height="24" viewBox="0 0 24 24" width="24" xmlns="http://www.w3.org/2000/svg"><g fill="none" fill-rule="evenodd"><path d="m0 0h24v24h-24z" opacity="0"/><g fill="#000" fill-rule="nonzero"><path d="m3 13v-2h14.5c.8284271 0 1.5-.6715729 1.5-1.5v-.5c0-.55228475-.4477153-1-1-1s-1 .44771525-1 1v1h-2v-1c0-1.65685425 1.3431458-3 3-3s3 1.34314575 3 3v.5c0 1.9329966-1.5670034 3.5-3.5 3.5z"/><path d="m3 9v-2h6.5c.8284271 0 1.5-.67157288 1.5-1.5v-.5c0-.55228475-.4477153-1-1-1-.55228475 0-1 .44771525-1 1v1h-2v-1c0-1.65685425 1.34314575-3 3-3 1.6568542 0 3 1.34314575 3 3v.5c0 1.93299662-1.5670034 3.5-3.5 3.5zm0 6h6.5c1.9329966 0 3.5 1.5670034 3.5 3.5v.5c0 1.6568542-1.3431458 3-3 3-1.65685425 0-3-1.3431458-3-3v-1h2v1c0 .5522847.44771525 1 1 1 .5522847 0 1-.4477153 1-1v-.5c0-.8284271-.6715729-1.5-1.5-1.5h-6.5z" opacity=".3"/></g></g></svg>