<svg height="50" viewBox="0 0 50 50" width="50" xmlns="http://www.w3.org/2000/svg"><path d="m25 17a8 8 0 1 0 0 16 8 8 0 1 0 0-16z"/><path d="m25 2c-12.683 0-23 10.317-23 23s10.317 23 23 23 23-10.317 23-23-10.317-23-23-23zm-2.671 43.811 6.647-11.64c-1.22.531-2.563.829-3.976.829-3.559 0-6.682-1.875-8.454-4.683-.023-.029-.049-.053-.069-.085l-9.645-15.716c.371-.641.776-1.257 1.211-1.852l7.004 11.413c.468-5.082 4.751-9.077 9.953-9.077h18.462c.351.646.663 1.316.946 2h-13.434c2.438 1.825 4.026 4.727 4.026 8 0 1.787-.477 3.463-1.302 4.916-.007.014-.006.029-.014.043l-9.147 16.018c-.747-.017-1.482-.074-2.208-.166z"/></svg>