<svg height="125pt" viewBox="0 0 125 125" width="125pt" xmlns="http://www.w3.org/2000/svg"><path d="m7.932 62.349c.097.019.191.026.285.026.787 0 1.482-.563 1.621-1.364 1.937-11.135 8.728-18.328 17.3-18.328 5.944 0 10.945 3.258 14.2 9.14-3.09 4.701-5.363 10.538-6.48 17.331-.148.898.46 1.744 1.358 1.892.09.016.18.023.269.023.793 0 1.491-.573 1.623-1.38 1.107-6.734 3.315-12.41 6.351-16.81.027-.031.045-.068.069-.101 4.454-6.397 10.687-10.037 17.975-10.037 12.119 0 21.693 10.578 24.394 26.947.148.898.986 1.525 1.893 1.358.898-.148 1.504-.994 1.356-1.892-1.12-6.791-3.393-12.626-6.482-17.326 3.254-5.885 8.257-9.145 14.202-9.145 8.572 0 15.364 7.194 17.3 18.328.14.801.835 1.364 1.621 1.364.093 0 .188-.006.285-.026.896-.154 1.496-1.007 1.34-1.905-1.713-9.845-6.892-16.988-13.858-19.767 3.365-2.195 5.603-5.978 5.603-10.288 0-6.779-5.514-12.293-12.291-12.293-6.779 0-12.293 5.514-12.293 12.293 0 4.316 2.246 8.102 5.62 10.297-3.84 1.51-7.128 4.382-9.624 8.316-3.227-3.922-7.113-6.816-11.527-8.317 4.918-2.691 8.3-7.853 8.3-13.844 0-8.735-7.105-15.841-15.84-15.841s-15.841 7.107-15.841 15.841c0 5.99 3.381 11.152 8.3 13.844-4.416 1.5-8.302 4.394-11.529 8.314-2.495-3.932-5.782-6.804-9.621-8.312 3.374-2.194 5.62-5.981 5.62-10.297 0-6.779-5.514-12.293-12.293-12.293-6.777 0-12.291 5.514-12.291 12.293 0 4.309 2.238 8.093 5.603 10.288-6.966 2.778-12.144 9.922-13.858 19.767-.156.897.444 1.75 1.34 1.904zm80.937-31.959c0-4.961 4.036-8.998 8.998-8.998 4.961 0 8.997 4.038 8.997 8.998s-4.036 8.998-8.997 8.998c-4.962 0-8.998-4.037-8.998-8.998zm-38.912-3.549c0-6.917 5.628-12.547 12.547-12.547 6.917 0 12.545 5.63 12.545 12.547s-5.628 12.547-12.545 12.547c-6.918 0-12.547-5.63-12.547-12.547zm-31.815 3.549c0-4.961 4.036-8.998 8.997-8.998 4.962 0 8.998 4.038 8.998 8.998s-4.036 8.998-8.998 8.998c-4.961 0-8.997-4.037-8.997-8.998zm100.54 52.211c-13.063 17.833-34.044 28.478-56.125 28.478-22.079 0-43.06-10.646-56.125-28.478-.537-.737-.378-1.766.355-2.304.73-.54 1.761-.38 2.302.354 12.446 16.99 32.434 27.134 53.468 27.134 21.036 0 41.024-10.144 53.468-27.134.54-.727 1.57-.891 2.302-.354.733.537.892 1.567.355 2.304z" stroke="#fd2d55"/></svg>