<svg height="50" viewBox="0 0 50 50" width="50" xmlns="http://www.w3.org/2000/svg"><path d="m22.62 46.82c-4.21-.5-7.23-2.02-8.18-2.55-6.6-3.68-12.15-11.9-11.36-21.06 2.4-5.3 6.57-8.21 11.77-8.21h.03c3.75.01 7.73 1.61 10.54 4.01-.14-.02-.27-.02-.41-.02-1.2 0-2.37.36-3.33.99l-.01-.01c-6.35 4.32-9.06 11.4-6.9 18.03 1.3 3.99 4.13 7.06 7.85 8.82z"/><path d="m43.37 37.58-.09.12c-3.66 4.73-8.03 7.66-13.05 8.78-6.45-.02-11.74-3.54-13.55-9.1-1.37-4.21-.46-8.64 2.32-12.21-.01 1.14.24 2.19.61 3.01 2.99 6.6 8.72 8.33 10.6 8.89 1.33.4 3.02.62 4.75.62 2.06 0 3.98-.3 5.27-.83.34-.14.6-.24.83-.32.22-.08.4-.14.6-.23l.48-.22c.41-.18.89-.06 1.18.28.28.35.3.84.05 1.21z"/><path d="m44.26 29.24c-2.44 2.45-5.04 2.76-7.03 2.76-2.6 0-5.47-.82-6.74-1.62l-.26-.16c-.15-.1-.26-.18-.33-.24-.39-.36-.44-.96-.11-1.37l.09-.12c.17-.22.62-.77.92-1.94.26-1.03.45-2.66-.36-4.24h.01c-2.26-5.21-9.1-9.3-15.57-9.31h-.03c-4.17 0-7.76 1.59-10.47 4.57 3.32-8.89 11.41-14.57 20.92-14.57 1.43 0 2.87.14 4.27.41 11.53 2.2 15.64 11.54 16.63 14.35.58 1.66 2.16 7.38-1.94 11.48z"/></svg>