<svg height="50" viewBox="0 0 50 50" width="50" xmlns="http://www.w3.org/2000/svg"><path d="m48.579 18.621c-.103-.433-.492-.748-.937-.748-.005 0-.01 0-.013 0-.38-2.756-1.289-6.538-3.471-8.691-.185-.182-.429-.276-.675-.276-.18 0-.358.05-.516.151-.121.077-.219.177-.292.291-.538-.605-1.17-1.18-1.91-1.706-1.868-1.234-4.745-2.642-8.708-2.642-.651 0-1.335.018-2.054.056.367.002.702.024 1.049.039-.336-.014-.664-.034-1.018-.036-.011 0-.02-.003-.031-.003 2.908.025 5.061 2.851 5.31 3.635-.327-.067-.643-.095-.943-.1-.249-.004-.486.007-.707.032-.51.058-.945.174-1.256.283 4.629 1.974 9.544 4.665 8.899 8.899-.456-.771-1.389-1.336-1.856-1.336.008 0 .019.006.025.006-.019 0-.041-.006-.06-.005 1.351 2.698.996 6.189.275 9.372-.21-1.568-1.435-2.979-1.435-2.979s1.292 7.463-2.539 11.248c.602-1.488.52-3.669.52-3.669s-4.158 6.558-9.233 6.558-8.16-3.205-9-4c.318.026 1.077.064 1.381.064-.004 0-.009-.001-.013-.001.291.001.574-.011.851-.031 3.974-.296 6.264-2.625 6.503-2.797.357-.256.6-.351.868-.351.173 0 .355.039.585.101.061.017.133.01.205 0 .294-.039.621-.28.621-.649 0-.675-1.38-2.335-3.405-2.335-2.324 0-2.45 1.639-4.743 1.639-2.328 0-5.147-3.502-5.229-3.791 0-.368.066-1.587 1.371-1.782 1.711.271 2.91.6 3.255.615.316-1.769-.63-3.33-.779-3.629.673-.856 2.91-2.269 3.125-2.42.399-.279.826-.978.826-1.376 0-.344-.367-.428-.367-.428s-.524-.021-1.376-.092c-1.585-.133-1.712-.397-2.507-1.101-.569-.503-1.529-1.59-1.529-1.59s.245-2.079 3.456-4.984c-2.63 0-6.177 3.088-6.177 3.088s-.764-.367-1.896-.367c-2.049 0-3.425.704-3.425.704s-1.07-1.2-1.717-5.233c.001-.004.003-.007.006-.011 0-.002-.001-.004-.001-.007-.053-.365-.315-.666-.67-.774-.091-.027-.184-.04-.276-.04-.267 0-.527.111-.711.316-2.515 2.777-2.651 7.735-2.64 9.069-2.162 3.153-2.593 4.477-2.595 5.669 0 .838.098 1.232.375 1.507.123.122.271.204.428.247-.234 1.035-.435 2.342-.435 3.782 0 9.222 8.207 21.997 23.617 21.997 10.074 0 15.946-5.967 19.097-10.973 3.583-5.688 4.918-12.099 4.918-14.804-.001-1.837-.318-3.172-.421-3.611z"/><path d="m8.727 10.602c4.042-4.657 10.006-7.602 16.657-7.602 5.139 0 9.869 1.759 13.618 4.707" style="fill:none;stroke:#000;stroke-linecap:round;stroke-linejoin:round;stroke-miterlimit:10;stroke-width:2"/></svg>