<svg height="30" viewBox="0 0 30 30" width="30" xmlns="http://www.w3.org/2000/svg"><g fill="none" fill-rule="evenodd"><circle cx="15" cy="15" fill="#000" r="14.5" stroke="#000"/><g transform="matrix(0 1 -1 0 17 7)"><path d="m0 0h16v16h-16z" fill="none"/><path d="m1.70710678.29289322c-.39052429-.39052429-1.02368927-.39052429-1.41421356 0-.39052429.39052429-.39052429 1.02368927 0 1.41421356l4 4c.39052429.39052429 1.02368927.39052429 1.41421356 0l4-4c.39052432-.39052429.39052432-1.02368927 0-1.41421356-.39052429-.39052429-1.02368927-.39052429-1.41421356 0l-3.29289322 3.29289322z" fill="#fff" fill-rule="nonzero" transform="translate(3 5)"/></g><g transform="matrix(0 1 1 0 13 7)"><path d="m0 0h16v16h-16z" fill="none"/><path d="m1.70710678.29289322c-.39052429-.39052429-1.02368927-.39052429-1.41421356 0-.39052429.39052429-.39052429 1.02368927 0 1.41421356l4 4c.39052429.39052429 1.02368927.39052429 1.41421356 0l4-4c.39052432-.39052429.39052432-1.02368927 0-1.41421356-.39052429-.39052429-1.02368927-.39052429-1.41421356 0l-3.29289322 3.29289322z" fill="#fff" fill-rule="nonzero" transform="translate(3 5)"/></g></g></svg>