<svg height="24" viewBox="0 0 24 24" width="24" xmlns="http://www.w3.org/2000/svg"><g fill="none" fill-rule="evenodd"><path d="m0 0h24v24h-24z" opacity="0"/><g fill="#000" fill-rule="nonzero"><path d="m5.29288961 6.70710318c-.39052429-.3905243-.39052429-1.02368927 0-1.41421357.3905243-.39052429 1.02368927-.39052429 1.41421357 0l6.00000002 5.99999999c.3785789.378579.3918245.9881654.0300473 1.3828314l-5.49999996 6c-.37319241.407119-1.00575978.4346219-1.41287877.0614295s-.43462192-1.0057597-.06142951-1.4128787l4.85301634-5.2941997z" transform="matrix(-1 0 0 1 17.999994 0)"/><path d="m10.7071009 15.7071068c-.3905243.3905243-1.02368928.3905243-1.41421357 0s-.39052429-1.0236893 0-1.4142136l5.99999997-5.99999998c.378579-.37857894.9881654-.39182456 1.3828314-.03004736l6 5.50000004c.407119.3731924.434622 1.0057597.0614295 1.4128787-.3731924.407119-1.0057597.4346219-1.4128787.0614295l-5.2941996-4.8530163z" opacity=".3" transform="matrix(0 1 1 0 3.999998 -3.999998)"/></g></g></svg>