<svg height="24" viewBox="0 0 24 24" width="24" xmlns="http://www.w3.org/2000/svg"><g fill="none" fill-rule="evenodd"><path d="m0 0h24v24h-24z" opacity="0"/><g fill="#000" fill-rule="nonzero"><path d="m8.2928955 10.2071068c-.39052429-.39052431-.39052429-1.02368929 0-1.41421358.3905243-.39052429 1.02368928-.39052429 1.41421357 0l6.00000003 5.99999998c.3785789.378579.3918245.9881654.0300473 1.3828314l-5.5 6c-.37319238.407119-1.00575975.4346219-1.41287874.0614295s-.43462192-1.0057597-.06142951-1.4128787l4.85301635-5.2941997z" transform="matrix(0 -1 -1 0 27.500006 27.500006)"/><path d="m6.70710678 12.2071104c-.39052429.3905243-1.02368927.3905243-1.41421356 0s-.39052429-1.0236893 0-1.4142136l5.99999998-5.99999998c.378579-.37857893.9881654-.39182456 1.3828314-.03004736l6 5.50000004c.407119.3731924.4346219 1.0057597.0614295 1.4128787s-1.0057597.434622-1.4128787.0614295l-5.2941997-4.85301628z" opacity=".3" transform="matrix(-1 0 0 1 24.000006 0)"/></g></g></svg>