<svg height="24" viewBox="0 0 24 24" width="24" xmlns="http://www.w3.org/2000/svg"><g fill="none" fill-rule="evenodd"><path d="m0 0h24v24h-24z" opacity="0"/><g fill="#000" fill-rule="nonzero"><path d="m12.2928955 6.70710318c-.3905243-.3905243-.3905243-1.02368927 0-1.41421357.3905243-.39052429 1.0236893-.39052429 1.4142136 0l6 5.99999999c.3785789.378579.3918245.9881654.0300473 1.3828314l-5.5 6c-.3731924.407119-1.0057598.4346219-1.4128787.0614295-.407119-.3731924-.434622-1.0057597-.0614296-1.4128787l4.8530164-5.2941997z"/><path d="m3.70710678 15.7071068c-.39052429.3905243-1.02368927.3905243-1.41421356 0s-.39052429-1.0236893 0-1.4142136l6-5.99999998c.37857894-.37857894.98816537-.39182456 1.38283141-.03004736l5.99999997 5.50000004c.407119.3731924.4346219 1.0057597.0614295 1.4128787s-1.0057597.4346219-1.4128787.0614295l-5.29419965-4.8530163z" opacity=".3" transform="matrix(0 1 -1 0 21.000002 2.999996)"/></g></g></svg>