<svg height="24" viewBox="0 0 24 24" width="24" xmlns="http://www.w3.org/2000/svg"><g fill="none" fill-rule="evenodd"><path d="m0 0h24v24h-24z" opacity="0"/><g fill="#000" fill-rule="nonzero"><path d="m8.2928955 3.20710089c-.39052429-.39052429-.39052429-1.02368927 0-1.41421356.3905243-.39052429 1.02368928-.39052429 1.41421357 0l6.00000003 6c.3785789.37857893.3918245.98816537.0300473 1.38283141l-5.5 5.99999996c-.37319238.407119-1.00575975.434622-1.41287874.0614295-.40711899-.3731924-.43462192-1.0057597-.06142951-1.4128787l4.85301635-5.29419964z" transform="matrix(0 1 -1 0 20.5 -3.500006)"/><path d="m6.70710678 19.2071045c-.39052429.3905243-1.02368927.3905243-1.41421356 0s-.39052429-1.0236893 0-1.4142136l5.99999998-6c.378579-.3785789.9881654-.3918245 1.3828314-.0300473l6 5.5c.407119.3731924.4346219 1.0057598.0614295 1.4128787-.3731924.407119-1.0057597.434622-1.4128787.0614296l-5.2941997-4.8530164z" opacity=".3" transform="matrix(-1 0 0 -1 24.000006 30.999994)"/></g></g></svg>