<svg height="24" viewBox="0 0 24 24" width="24" xmlns="http://www.w3.org/2000/svg"><g fill="none" fill-rule="evenodd"><path d="m0 0h24v24h-24z" opacity="0"/><g fill="#000"><rect height="14" opacity=".3" rx="1" transform="matrix(0 -1 1 0 -2 22)" width="2" x="9" y="5"/><rect height="18" opacity=".3" rx="1" width="2" x="19" y="3"/><path d="m7.70710318 15.7071045c-.3905243.3905243-1.02368927.3905243-1.41421357 0-.39052429-.3905243-.39052429-1.0236893 0-1.4142136l5.99999999-5.99999997c.378579-.37857893.9881654-.39182456 1.3828314-.03004736l6 5.50000003c.407119.3731924.4346219 1.0057598.0614295 1.4128787-.3731924.407119-1.0057597.434622-1.4128787.0614296l-5.2941997-4.8530164z" fill-rule="nonzero" transform="matrix(0 -1 -1 0 24.999996 24.999996)"/></g></g></svg>