<svg height="24" viewBox="0 0 24 24" width="24" xmlns="http://www.w3.org/2000/svg"><g fill="none" fill-rule="evenodd"><path d="m0 0h24v24h-24z" opacity="0"/><g fill="#000"><rect height="14" opacity=".3" rx="1" transform="matrix(0 -1 1 0 2 26)" width="2" x="13" y="5"/><rect height="18" opacity=".3" rx="1" width="2" x="3" y="3"/><path d="m11.7071032 15.7071045c-.3905243.3905243-1.0236893.3905243-1.4142136 0-.39052428-.3905243-.39052428-1.0236893 0-1.4142136l6-5.99999997c.378579-.37857893.9881654-.39182456 1.3828314-.03004736l6 5.50000003c.407119.3731924.4346219 1.0057598.0614295 1.4128787-.3731924.407119-1.0057597.434622-1.4128787.0614296l-5.2941997-4.8530164z" fill-rule="nonzero" transform="matrix(0 -1 -1 0 28.999996 28.999996)"/></g></g></svg>