<svg height="24" viewBox="0 0 24 24" width="24" xmlns="http://www.w3.org/2000/svg"><g fill="none" fill-rule="evenodd"><path d="m0 0h24v24h-24z" opacity="0"/><g fill="#000"><rect height="14" opacity=".3" rx="1" transform="matrix(0 -1 -1 0 24 24)" width="2" x="11" y="5"/><path d="m3.7071045 15.7071045c-.3905243.3905243-1.02368928.3905243-1.41421357 0s-.39052429-1.0236893 0-1.4142136l6-5.99999997c.37857894-.37857893.98816538-.39182456 1.38283141-.03004736l5.99999996 5.50000003c.407119.3731924.434622 1.0057598.0614296 1.4128787-.3731925.407119-1.0057598.434622-1.4128788.0614296l-5.29419964-4.8530164z" fill-rule="nonzero" transform="matrix(0 -1 1 0 -2.999996 20.999998)"/></g></g></svg>