<svg height="24" viewBox="0 0 24 24" width="24" xmlns="http://www.w3.org/2000/svg"><g fill="none" fill-rule="evenodd"><path d="m0 0h24v24h-24z" opacity="0"/><g fill="#000"><rect height="2" opacity=".3" rx="1" transform="matrix(0 -1 1 0 0 24)" width="10" x="7" y="11"/><path d="m6.70710678 8.70710678c-.39052429.39052429-1.02368927.39052429-1.41421356 0s-.39052429-1.02368927 0-1.41421356l5.99999998-6c.378579-.37857894.9881654-.39182456 1.3828314-.03004736l6 5.5c.407119.37319241.4346219 1.00575978.0614295 1.41287877s-1.0057597.43462192-1.4128787.06142951l-5.2941997-4.85301632z" fill-rule="nonzero"/><path d="m6.70710678 22.7071068c-.39052429.3905243-1.02368927.3905243-1.41421356 0s-.39052429-1.0236893 0-1.4142136l5.99999998-6c.378579-.3785789.9881654-.3918245 1.3828314-.0300473l6 5.5c.407119.3731924.4346219 1.0057597.0614295 1.4128787s-1.0057597.4346219-1.4128787.0614295l-5.2941997-4.8530163z" fill-rule="nonzero" transform="matrix(-1 0 0 -1 24.000006 37.999998)"/></g></g></svg>