<svg height="24" viewBox="0 0 24 24" width="24" xmlns="http://www.w3.org/2000/svg"><g fill="none" fill-rule="evenodd"><path d="m0 0h24v24h-24z" opacity="0"/><g fill="#000"><rect height="2" opacity=".3" rx="1" width="10" x="7" y="11"/><path d="m13.7071045 15.7071104c-.3905243.3905243-1.0236893.3905243-1.4142136 0s-.3905243-1.0236893 0-1.4142136l6-5.99999998c.378579-.37857893.9881654-.39182456 1.3828314-.03004736l6 5.50000004c.407119.3731924.434622 1.0057597.0614296 1.4128787-.3731925.407119-1.0057598.434622-1.4128788.0614295l-5.2941996-4.8530163z" fill-rule="nonzero" transform="matrix(0 1 -1 0 31.000004 -6.999998)"/><path d="m-.29289551 15.7071104c-.39052429.3905243-1.02368927.3905243-1.41421356 0s-.39052429-1.0236893 0-1.4142136l6-5.99999998c.37857894-.37857893.98816538-.39182456 1.38283141-.03004736l5.99999996 5.50000004c.407119.3731924.434622 1.0057597.0614296 1.4128787-.3731925.407119-1.0057598.434622-1.4128788.0614295l-5.29419964-4.8530163z" fill-rule="nonzero" transform="matrix(0 -1 1 0 -7.000002 17.000004)"/></g></g></svg>