<svg height="24" viewBox="0 0 24 24" width="24" xmlns="http://www.w3.org/2000/svg"><g fill="none" fill-rule="evenodd"><path d="m0 0h24v24h-24z" opacity="0"/><g fill="#000" fill-rule="nonzero"><path d="m9.26193932 16.6476484c-.35768635.4208075-.98878027.4719773-1.40958774.1142909-.42080747-.3576863-.47197724-.9887803-.1142909-1.4095877l8.50000002-10.00000002c.3633011-.42741303 1.0070408-.47243856 1.4263031-.0997609l4.5 4c.4127828.36691802.4499635.99899042.0830455 1.41177312-.366918.4127828-.9989904.4499635-1.4117731.0830455l-3.7358508-3.32075624z" opacity=".3" transform="matrix(-1 0 0 -1 29.99999 22.000004)"/><path d="m4.26193932 17.6476484c-.35768635.4208075-.98878027.4719773-1.40958774.1142909-.42080747-.3576863-.47197724-.9887803-.1142909-1.4095877l8.50000002-10.00000002c.3633011-.42741303 1.0070408-.47243856 1.4263031-.0997609l4.5 4.00000002c.4127828.366918.4499635.9989904.0830455 1.4117731-.366918.4127828-.9989904.4499635-1.4117731.0830455l-3.7358508-3.32075624z" transform="matrix(-1 0 0 -1 19.99999 24.000004)"/></g></g></svg>