<svg height="24" viewBox="0 0 24 24" width="24" xmlns="http://www.w3.org/2000/svg"><g fill="none" fill-rule="evenodd"><path d="m0 0h24v24h-24z" opacity="0"/><g fill="#000"><rect height="12" opacity=".3" rx="1" transform="matrix(0 -1 1 0 7 19)" width="2" x="12"/><path d="m9.79289322 3.79289322c.39052428-.39052429 1.02368928-.39052429 1.41421358 0s.3905243 1.02368927 0 1.41421356l-3.00000002 3c-.39052429.39052429-1.02368927.39052429-1.41421356 0l-3-3c-.39052429-.39052429-.39052429-1.02368927 0-1.41421356s1.02368927-.39052429 1.41421356 0l2.29289322 2.29289322z" fill-rule="nonzero" transform="matrix(0 1 -1 0 13.5 -1.5)"/><rect height="12" opacity=".3" rx="1" transform="matrix(0 -1 -1 0 29 29)" width="2" x="10" y="12"/><path d="m18.7928932 15.7928932c.3905243-.3905243 1.0236893-.3905243 1.4142136 0s.3905243 1.0236893 0 1.4142136l-3 3c-.3905243.3905243-1.0236893.3905243-1.4142136 0l-3-3c-.3905243-.3905243-.3905243-1.0236893 0-1.4142136s1.0236893-.3905243 1.4142136 0l2.2928932 2.2928932z" fill-rule="nonzero" transform="matrix(0 1 1 0 -1.5 1.5)"/></g></g></svg>