<svg height="24" viewBox="0 0 24 24" width="24" xmlns="http://www.w3.org/2000/svg"><g fill="none" fill-rule="evenodd"><path d="m0 0h24v24h-24z" opacity="0"/><g fill="#000" fill-rule="nonzero"><path d="m4.7071045 12.7071045c-.3905243.3905243-1.02368928.3905243-1.41421357 0s-.39052429-1.0236893 0-1.4142136l6-5.99999997c.37857894-.37857893.98816537-.39182456 1.38283137-.03004736l6 5.50000003c.407119.3731924.434622 1.0057598.0614296 1.4128787-.3731925.407119-1.0057598.434622-1.4128788.0614296l-5.2941996-4.85301637z" transform="matrix(0 -1 1 0 1.000004 18.999998)"/><path d="m20 8c.5522847 0 1 .44771525 1 1s-.4477153 1-1 1h-6.5c-.5522847 0-1 .4477153-1 1v10.0415946c0 .5522847-.4477153 1-1 1s-1-.4477153-1-1v-10.0415946c0-1.65685425 1.3431458-3 3-3z" opacity=".3" transform="matrix(-1 0 0 1 31.5 0)"/></g></g></svg>