<svg height="24" viewBox="0 0 24 24" width="24" xmlns="http://www.w3.org/2000/svg"><g fill="none" fill-rule="evenodd"><path d="m0 0h24v24h-24z" opacity="0"/><g fill="#000" fill-rule="nonzero"><path d="m11.7071032 12.7071045c-.3905243.3905243-1.0236893.3905243-1.4142136 0-.39052428-.3905243-.39052428-1.0236893 0-1.4142136l6-5.99999997c.378579-.37857893.9881654-.39182456 1.3828314-.03004736l6 5.50000003c.407119.3731924.4346219 1.0057598.0614295 1.4128787-.3731924.407119-1.0057597.434622-1.4128787.0614296l-5.2941997-4.85301637z" transform="matrix(0 -1 -1 0 25.999996 25.999996)"/><path d="m15.5 8c.5522847 0 1 .44771525 1 1s-.4477153 1-1 1h-6.5c-.55228475 0-1 .4477153-1 1v10.0415946c0 .5522847-.44771525 1-1 1s-1-.4477153-1-1v-10.0415946c0-1.65685425 1.34314575-3 3-3z" opacity=".3"/></g></g></svg>