<svg height="24" viewBox="0 0 24 24" width="24" xmlns="http://www.w3.org/2000/svg"><g fill="none" fill-rule="evenodd"><path d="m0 0h24v24h-24z" opacity="0"/><g fill="#000"><path d="m14.0069431 7.00607258c-.5522847 0-1-.44752105-1-.99956624 0-.5520452.4477153-.99956625 1-.99956625h1c2.209139 0 4 1.79008421 4 3.99826498v5.99652993c0 2.2081808-1.790861 3.998265-4 3.998265h-11.99999999c-2.209139 0-4.00000001-1.7900842-4.00000001-3.998265v-6.00347002c0-2.20818078 1.79086101-3.99826498 4.00000001-3.99826498h1.00000482c.55228475 0 1 .44752105 1 .99956624 0 .5520452-.44771525.99956625-1 .99956625h-1.00000482c-1.1045695 0-2 .8950421-2 1.99913249v6.00347002c0 1.1040904.8954305 1.9991325 2 1.9991325h11.99999999c1.1045695 0 2-.8950421 2-1.9991325v-5.99652993c0-1.10409039-.8954305-1.99913249-2-1.99913249z" fill-rule="nonzero" opacity=".3" transform="matrix(0 -1 -1 0 21.006943 21.006943)"/><rect height="12" opacity=".3" rx="1" transform="matrix(0 1 -1 0 26 -2)" width="2" x="13" y="6"/><path d="m21.7928932 9.79289322c.3905243-.39052429 1.0236893-.39052429 1.4142136 0 .3905243.39052428.3905243 1.02368928 0 1.41421358l-3 3c-.3905243.3905243-1.0236893.3905243-1.4142136 0l-3-3c-.3905243-.3905243-.3905243-1.0236893 0-1.41421358.3905243-.39052429 1.0236893-.39052429 1.4142136 0l2.2928932 2.29289318z" fill-rule="nonzero" transform="matrix(0 -1 1 0 7.5 31.5)"/></g></g></svg>