<svg height="24" viewBox="0 0 24 24" width="24" xmlns="http://www.w3.org/2000/svg"><g fill="none" fill-rule="evenodd"><path d="m0 0h24v24h-24z" opacity="0"/><g fill="#000"><rect height="12" opacity=".3" rx="1" transform="matrix(-1 0 0 -1 12 22)" width="2" x="5" y="5"/><path d="m8.29289322 14.2928932c.39052429-.3905243 1.02368927-.3905243 1.41421356 0 .39052432.3905243.39052432 1.0236893 0 1.4142136l-3 3c-.39052429.3905243-1.02368927.3905243-1.41421356 0l-3-3c-.39052429-.3905243-.39052429-1.0236893 0-1.4142136s1.02368927-.3905243 1.41421356 0l2.29289322 2.2928932z" fill-rule="nonzero"/><rect height="12" opacity=".3" rx="1" transform="matrix(-1 0 0 1 36 0)" width="2" x="17" y="7"/><path d="m20.2928932 5.29289322c.3905243-.39052429 1.0236893-.39052429 1.4142136 0s.3905243 1.02368927 0 1.41421356l-3 3c-.3905243.39052432-1.0236893.39052432-1.4142136 0l-3-3c-.3905243-.39052429-.3905243-1.02368927 0-1.41421356s1.0236893-.39052429 1.4142136 0l2.2928932 2.29289322z" fill-rule="nonzero" transform="matrix(1 0 0 -1 0 15)"/></g></g></svg>