<svg height="24" viewBox="0 0 24 24" width="24" xmlns="http://www.w3.org/2000/svg"><g fill="none" fill-rule="evenodd"><path d="m0 0h24v24h-24z" opacity="0"/><path d="m19.5 10.5h1.5c.8284271 0 1.5.6715729 1.5 1.5s-.6715729 1.5-1.5 1.5h-1.5c-.8284271 0-1.5-.6715729-1.5-1.5s.6715729-1.5 1.5-1.5zm-3.4393398-4.62867966 1.0606601-1.06066017c.5857865-.58578644 1.5355339-.58578644 2.1213204 0 .5857864.58578644.5857864 1.53553391 0 2.12132035l-1.0606602 1.06066017c-.5857864.58578643-1.5355339.58578643-2.1213203 0-.5857865-.58578644-.5857865-1.53553391 0-2.12132035zm0 12.31066016c-.5857865-.5857864-.5857865-1.5355339 0-2.1213203.5857864-.5857865 1.5355339-.5857865 2.1213203 0l1.0606602 1.0606601c.5857864.5857865.5857864 1.5355339 0 2.1213204-.5857865.5857864-1.5355339.5857864-2.1213204 0zm-13.0606602-7.6819805h1.5c.82842712 0 1.5.6715729 1.5 1.5s-.67157288 1.5-1.5 1.5h-1.5c-.82842712 0-1.5-.6715729-1.5-1.5s.67157288-1.5 1.5-1.5zm9-9c.8284271 0 1.5.67157288 1.5 1.5v1.5c0 .82842712-.6715729 1.5-1.5 1.5s-1.5-.67157288-1.5-1.5v-1.5c0-.82842712.6715729-1.5 1.5-1.5zm0 16.5c.8284271 0 1.5.6715729 1.5 1.5v1.5c0 .8284271-.6715729 1.5-1.5 1.5s-1.5-.6715729-1.5-1.5v-1.5c0-.8284271.6715729-1.5 1.5-1.5zm-7.18933983-13.18933983c.58578644-.58578644 1.53553391-.58578644 2.12132035 0l1.06066017 1.06066017c.58578643.58578644.58578643 1.53553391 0 2.12132035-.58578644.58578643-1.53553391.58578643-2.12132035 0l-1.06066017-1.06066017c-.58578644-.58578644-.58578644-1.53553391 0-2.12132035zm0 14.43198053c-.58578644-.5857865-.58578644-1.5355339 0-2.1213204l1.06066017-1.0606601c.58578644-.5857865 1.53553391-.5857865 2.12132035 0 .58578643.5857864.58578643 1.5355339 0 2.1213203l-1.06066017 1.0606602c-.58578644.5857864-1.53553391.5857864-2.12132035 0z" fill="#000" fill-rule="nonzero" opacity=".3"/></g></svg>