<svg fill="none" height="36" viewBox="0 0 30 36" width="30" xmlns="http://www.w3.org/2000/svg"><path d="m24.6211 19.1257c.0508 5.448 4.8065 7.2609 4.8592 7.284-.0402.1278-.7599 2.5835-2.5055 5.1201-1.5091 2.1931-3.0752 4.3781-5.5424 4.4233-2.4243.0445-3.2038-1.4293-5.9754-1.4293-2.7708 0-3.6369 1.3841-5.93174 1.4738-2.38146.0897-4.19499-2.3714-5.71649-4.5565-3.109155-4.4695-5.48519-12.6297-2.29478-18.138 1.58493-2.7354 4.41732-4.46765 7.49163-4.51206 2.33858-.04436 4.54578 1.56436 5.97538 1.56436 1.4288 0 4.111-1.93463 6.9309-1.6505 1.1805.04885 4.4942.47414 6.6219 3.571-.1715.1057-3.9539 2.2951-3.9127 6.8498zm-4.5562-13.37776c1.2644-1.52174 2.1153-3.64014 1.8832-5.74794-1.8225.0728312-4.0262 1.20753-5.3334 2.72844-1.1715 1.34683-2.1975 3.50251-1.9206 5.56859 2.0313.15627 4.1064-1.02638 5.3708-2.54909z" fill="#000"/></svg>