<svg fill="none" height="36" viewBox="0 0 201 36" width="201" xmlns="http://www.w3.org/2000/svg"><path d="m0 .0207965c5.633.0074552 11.2682-.0784412 16.8985.0526723 4.3401.1011302 7.7406 3.0961612 8.4727 7.1870912.8285 4.63094-1.5365 8.58514-5.1851 9.64614-.0927.0269-.1681.1143-.2927.2026 3.4777 1.0115 5.5535 3.3501 6.138 6.8539.9638 5.781-2.1746 10.5312-8.1041 11.2033-1.3151.1488-2.6505.145-3.9767.152-4.65005.0251-9.30041.0243-13.95044057.0334zm7.48871 28.5858035c.09667.0337.19318.0968.28937.0968 2.33412.0038 4.67232.088 7.00142-.0242 2.41-.1162 3.8431-1.621 3.9069-3.8386.0643-2.2281-1.2594-3.8352-3.6196-4.123-1.492-.182-3.016-.0985-4.5257-.1201-1.00031-.0141-2.00115-.0026-3.05239-.0026zm-.05105-14.5858c2.17587 0 4.24184.0037 6.30774-.0033.3976-.0014.8042.002 1.1909-.0771 1.4588-.2976 2.5574-1.0575 2.9395-2.6024.6092-2.46292-.936-4.59071-3.4443-4.71696-1.1662-.05851-2.3373-.01621-3.5061-.01735-1.13353-.00145-2.2674-.00032-3.43621-.00032-.02329.2551-.04961.41068-.04977.56627-.00271 2.23735-.00176 4.47466-.00176 6.85116zm126.87934 21.9792c-.881-.1663-1.771-.2938-2.641-.5058-6.81-1.6585-10.281-7.6142-9.686-14.1949.499-5.5102 3.233-9.5386 8.44-11.40351 7.271-2.60379 15.702.91161 16.946 10.73991.164 1.2985.156 2.6196.234 4.0467h-18.775c.435 2.4213 1.637 4.12 3.733 5.0229 3.405 1.4673 6.595.7359 9.603-1.231.178-.1162.342-.2542.515-.3792.017-.0123.05-.0016.171-.0016.92 1.3761 1.87 2.7973 2.938 4.3943-.969.6138-1.862 1.2791-2.838 1.7773-1.795.9165-3.726 1.4023-5.731 1.572-.229.0193-.451.1068-.676.1627zm6.813-15.9683c.131-3.1731-2.845-5.5964-6.613-5.4453-3.134.1256-5.92 2.8219-5.585 5.4453zm20.146 15.9683c-1.084-.2215-2.185-.3781-3.248-.676-5.076-1.4226-8.577-5.7836-9.038-11.1135-.435-5.0275 1-9.2883 4.972-12.46 6.02-4.80614 17.85-3.7159 20.2 7.6556.168.8148.267 1.6512.318 2.4826.054.8828.012 1.7721.012 2.7932h-18.653c.163 1.4216.706 2.5645 1.608 3.5098 2.063 2.1633 4.637 2.5704 7.419 2.0745 1.773-.3162 3.409-1.0003 4.882-2.2823l3.002 4.4721c-.781.5315-1.489 1.0935-2.267 1.5259-1.934 1.0749-4.027 1.6421-6.218 1.8504-.255.0241-.504.1102-.756.1674-.745.0003-1.489.0003-2.233.0003zm-5.392-15.9728h12.21c.157-3.0758-2.748-5.5188-6.399-5.4463-3.24.064-6.044 2.6671-5.811 5.4463zm-118.0775 15.9728c-.798-.166-1.6012-.3097-2.393-.5016-4.905-1.1876-7.8023-4.9178-7.8067-10.0453-.0038-4.9149-.0007-9.83-.0007-14.7449v-.8808h6.63v.9385c0 4.6451.0134 9.29-.0061 13.9348-.0091 2.1069.6253 3.8911 2.5903 4.808 2.1298.9936 4.3107.9573 6.281-.4684 1.4432-1.0439 1.8511-2.6419 1.8541-4.3588.0088-4.618.0032-9.236.0032-13.8538v-1.01554h6.5579l.0003.91034c0 4.8611.0022 9.722-.0008 14.5831-.0033 5.8657-3.5969 9.8978-9.3559 10.5126-.2843.0304-.5626.1194-.8439.1812-1.17.0006-2.34.0006-3.5097.0006zm62.6025-.7293v-35.2260795h24.116v3.4170495c0 .75621-.05 1.5168.014 2.2675.063.74746-.232.89251-.909.88862-4.759-.02755-9.517-.01458-14.276-.01458h-1.505v7.41759h.898c3.589 0 7.178.0209 10.767-.0172.725-.0076.895.2266.878.9226-.044 1.856-.015 3.7138-.015 5.6629h-12.582v14.6816zm75.763-.0138v-.9267c0-7.8833 0-15.7662.001-23.6495 0-1.03482.001-1.04389 1.052-1.03401 3.639.03404 7.292-.12349 10.912.16126 5.158.40545 9.195 2.76565 11.106 7.93865 1.942 5.2565.462 11.2556-3.484 14.5422-2.326 1.9362-5.062 2.8897-8.008 2.9976-3.742.1376-7.492.0434-11.239.0462-.076.0002-.152-.0326-.34-.0757zm6.323-5.4064c1.271 0 2.461.0003 3.651 0 4.281-.0015 6.977-2.4528 7.457-6.7808.344-3.1075-1.311-6.1983-3.945-7.2957-2.321-.9662-4.746-.4525-7.163-.5891zm-117.6131-14.2692h-11.2333v-5.78032h20.308c0 1.09052-.0539 2.18642.0158 3.27462.0641 1.003-.2362 1.7779-.8595 2.5654-3.3775 4.2701-6.7018 8.5833-10.0434 12.8825-.1793.2306-.3499.4682-.6292.8429h11.6511v5.8913h-20.5043c0-1.6092-.0233-3.2177.022-4.8244.0078-.2759.2806-.5634.4728-.8118 3.4283-4.436 6.8634-8.8663 10.295-13.2997.1428-.1849.2646-.3869.505-.7405zm11.0242.0065c0-1.8241-.0016-3.4961.0024-5.1684.0003-.1844.0303-.3688.0517-.60805h20.2451c0 1.55405.0168 3.08315-.0177 4.61115-.0053.2303-.2289.4729-.3889.6796-3.486 4.4945-6.9776 8.9844-10.4662 13.4768-.1723.2219-.326.4588-.5944.8384h1.0164c3.2952 0 6.5907.0141 9.8863-.0122.6122-.0047.8408.1481.8229.811-.0448 1.6675-.0148 3.3373-.0148 5.0564h-20.523c0-1.6653-.0131-3.303.0166-4.9397.0035-.2052.2155-.4194.3599-.6061 3.3474-4.3305 6.6992-8.6574 10.0498-12.9856.2559-.3308.5063-.666.8764-1.1535z" fill="#adb5bd"/></svg>