<svg fill="none" height="36" viewBox="0 0 141 36" width="141" xmlns="http://www.w3.org/2000/svg"><path d="m47.7086 23.2v-10.4c0-.64.5199-1.16 1.1597-1.16.6399 0 1.1598.52 1.1598 1.16v10.4c0 .64-.5199 1.16-1.1598 1.16-.5998 0-1.1597-.52-1.1597-1.16zm13.2769.44-5.0388-8.04v7.6c0 .64-.5199 1.16-1.1598 1.16-.6398 0-1.1597-.52-1.1597-1.16v-10.08c0-.84.6798-1.56 1.5596-1.56h.08c.5199 0 1.0398.28 1.3197.72l4.9988 7.92v-7.48c0-.64.5199-1.16 1.1597-1.16.6399 0 1.1598.52 1.1598 1.16v10.08c0 .84-.6799 1.56-1.5597 1.56-.5598 0-1.0797-.24-1.3596-.72zm10.9973-9.84v9.52c0 .6-.4798 1.08-1.0797 1.08h-.16c-.5998 0-1.0797-.48-1.0797-1.08v-9.52h-2.6794c-.5998 0-1.0797-.48-1.0797-1.08s.4799-1.08 1.0797-1.08h7.7182c.5998 0 1.0797.48 1.0797 1.08s-.4799 1.08-1.0797 1.08zm5.6387 9.52v-10.68c0-.56.4799-1.04 1.0397-1.04h6.9984c.5598 0 1.0397.48 1.0397 1.04s-.4799 1.04-1.0397 1.04h-5.7187v2.96h4.9189c.5598 0 1.0397.48 1.0397 1.04s-.4799 1.04-1.0397 1.04h-4.9189v3.48h5.7187c.5598 0 1.0397.48 1.0397 1.04s-.4799 1.04-1.0397 1.04h-6.9984c-.5598.08-1.0397-.36-1.0397-.96zm18.8755.36-1.8396-4.12h-2.8393v3.68c0 .64-.5199 1.16-1.1597 1.16h-.04c-.6399 0-1.1597-.52-1.1597-1.16v-10.44c0-.64.5198-1.16 1.1597-1.16h4.239c3.0393 0 4.4389 1.92 4.4389 3.96 0 1.72-.9198 3.04-2.3194 3.56l1.5996 3.6c.3199.76-.2 1.6-1.0398 1.6-.4399 0-.8797-.24-1.0397-.68zm-1.5996-10.04h-3.0393v3.8h3.0793c1.3196 0 2.0795-.68 2.0795-1.88-.04-1-.7998-1.92-2.1195-1.92zm15.4366 9.44c-.96.96-2.28 1.52-3.639 1.52-1.36 0-2.64-.44-3.6-1.44-1.399-1.4-1.599-3.08-1.599-5.16s.2-3.8 1.599-5.16c.96-.96 2.24-1.44 3.6-1.44 1.359 0 2.679.52 3.639 1.48.32.36.6.72.799 1.16.36.76-.199 1.6-1.039 1.6-.48 0-.88-.28-1.08-.72-.08-.24-.24-.44-.4-.64-.4-.52-1.12-.8-1.919-.8-.72 0-1.44.32-1.96.84-.88.92-.88 2.48-.88 3.68 0 1.16 0 2.76.88 3.68.52.52 1.24.84 1.96.84.799 0 1.519-.28 1.919-.8.16-.2.32-.44.4-.68.16-.44.6-.72 1.08-.72.84 0 1.399.84 1.039 1.6-.199.44-.479.84-.799 1.16zm12.437.08c-.96.96-2.32 1.44-3.679 1.44-1.36 0-2.68-.48-3.68-1.44-1.399-1.4-1.599-3.08-1.599-5.16s.24-3.8 1.599-5.16c.96-.96 2.32-1.44 3.68-1.44 1.359 0 2.679.48 3.679 1.44 1.399 1.4 1.599 3.08 1.599 5.16.04 2.08-.2 3.8-1.599 5.16zm-1.64-8.8c-.52-.52-1.28-.84-1.999-.84-.72 0-1.52.32-2 .84-.88.92-.92 2.48-.92 3.68 0 1.16.04 2.72.92 3.64.52.52 1.28.84 2 .84.719 0 1.519-.32 1.999-.84.88-.92.92-2.48.92-3.64 0-1.2-.04-2.8-.92-3.68zm16.716 8.88v-7.96l-2.999 8.12c-.16.48-.64.8-1.16.8s-.96-.32-1.16-.8l-2.999-8.24v8.08c0 .64-.52 1.12-1.12 1.12-.639 0-1.119-.52-1.119-1.12v-9.88c0-.96.799-1.76 1.759-1.76h.16c.72 0 1.4.44 1.64 1.16l2.919 7.92 2.959-7.92c.24-.68.92-1.16 1.64-1.16.96 0 1.76.8 1.76 1.76v9.88c0 .64-.52 1.12-1.12 1.12-.68 0-1.16-.48-1.16-1.12zm-106.3345-23.24h-26.99358c-2.5194 0-4.51892 2-4.51892 4.48v27c0 2.52 1.99952 4.52 4.51892 4.52h26.99358c2.4794 0 4.4789-2 4.4789-4.48v-27c0-2.52-1.9995-4.52-4.4789-4.52zm-8.7179 6.6c0-.68.5198-1.2 1.1997-1.2.6798 0 1.1997.52 1.1997 1.2v16.04c0 .68-.5199 1.2-1.1997 1.2-.6799 0-1.1997-.52-1.1997-1.2zm-5.9986-.6c0-.68.5199-1.2 1.1997-1.2s1.1997.52 1.1997 1.2v17.4c0 .68-.5199 1.2-1.1997 1.2s-1.1997-.52-1.1997-1.2zm-5.9986.6c0-.68.5199-1.2 1.1997-1.2.6799 0 1.1998.52 1.1998 1.2v16.04c0 .68-.5199 1.2-1.1998 1.2-.6798 0-1.1997-.52-1.1997-1.2zm-5.99854 2.4c0-.68.51987-1.2 1.19971-1.2s1.19971.52 1.19971 1.2v10.8c0 .68-.51987 1.2-1.19971 1.2s-1.19971-.52-1.19971-1.2zm25.99384 18.32c-.2.16-4.6389 3.88-12.797 3.88-8.15805 0-12.59699-3.72-12.79694-3.88-.51988-.44-.55987-1.2-.11997-1.68.43989-.52 1.19971-.56 1.6796-.12.07998 0 4.03901 3.28 11.23731 3.28 7.2783 0 11.1973-3.28 11.1973-3.32.5199-.44 1.2797-.36 1.6796.12.4799.52.3999 1.28-.0799 1.72zm.3999-7.52c0 .68-.5199 1.2-1.1998 1.2-.6798 0-1.1997-.52-1.1997-1.2v-10.8c0-.68.5199-1.2 1.1997-1.2.6799 0 1.1998.52 1.1998 1.2z" fill="#2890ea"/></svg>