<svg fill="none" height="36" viewBox="0 0 121 36" width="121" xmlns="http://www.w3.org/2000/svg"><path d="m17.9999 0c-9.94086 0-17.9999 8.05882-17.9999 17.9997 0 9.9419 8.05904 18.0003 17.9999 18.0003 9.9413 0 17.9999-8.0584 17.9999-18.0003 0-9.94024-8.0582-17.99884089-18.0001-17.99884089zm8.2546 25.9607c-.3232.5303-1.0141.6964-1.5426.3733-4.2269-2.5833-9.5471-3.1669-15.81267-1.7356-.60377.1384-1.2056-.2401-1.34315-.8437-.13822-.6037.23857-1.2056.84385-1.3431 6.85667-1.5676 12.73807-.8929 17.48257 2.0062.5287.3246.6964 1.0146.3718 1.5433zm2.2032-4.9005c-.4071.6606-1.2708.8678-1.9304.4622-4.8373-2.9735-12.2135-3.8348-17.93628-2.0976-.74221.2241-1.52609-.1941-1.75135-.935-.22354-.7422.19495-1.5246.93586-1.7503 6.53707-1.9835 14.66357-1.0227 20.21977 2.3916.6599.4063.8684 1.2704.4622 1.9294zm.1891-5.1035c-5.8021-3.4458-15.3726-3.7626-20.91149-2.0816-.88942.2698-1.83001-.2323-2.09954-1.1217-.26954-.8899.23213-1.8298 1.12221-2.1002 6.35822-1.93021 16.92802-1.55729 23.60712 2.4077.8.4748 1.0624 1.5081.5883 2.307-.4729.8-1.5089 1.0638-2.3064.5888zm20.325.6603c-3.1079-.7412-3.6612-1.2613-3.6612-2.3543 0-1.0326.9722-1.7275 2.4179-1.7275 1.4014 0 2.791.5277 4.2479 1.614.0441.0329.0993.046.1537.0374.0544-.0082.1025-.038.1344-.083l1.5175-2.1391c.0623-.0881.0453-.2095-.0387-.2768-1.734-1.3913-3.6865-2.06776-5.9688-2.06776-3.3556 0-5.6996 2.01376-5.6996 4.89506 0 3.0898 2.022 4.1839 5.5161 5.0284 2.9739.685 3.4758 1.2589 3.4758 2.2848 0 1.1369-1.0149 1.8436-2.6483 1.8436-1.8141 0-3.2938-.6111-4.949-2.0445-.0411-.0355-.0974-.0516-.1494-.0486-.0548.0045-.1049.0299-.1397.0718l-1.7015 2.0249c-.0714.0841-.0623.2096.0202.2823 1.9259 1.7193 4.2945 2.6274 6.8506 2.6274 3.616 0 5.9526-1.9757 5.9526-5.0337.0065-2.5815-1.5389-4.0108-5.3241-4.9316zm13.5112-3.0651c-1.5673 0-2.8529.6173-3.913 1.8822v-1.4238c0-.1124-.0911-.2039-.2033-.2039h-2.7829c-.1124 0-.2033.0915-.2033.2039v15.8202c0 .1124.0909.204.2033.204h2.7829c.1122 0 .2033-.0916.2033-.204v-4.9937c1.0603 1.1899 2.3461 1.7713 3.913 1.7713 2.9123 0 5.8604-2.2418 5.8604-6.5274.0043-4.2865-2.9447-6.529-5.8572-6.529zm2.6245 6.5288c0 2.1824-1.3443 3.7052-3.2691 3.7052-1.9029 0-3.3383-1.5921-3.3383-3.7052 0-2.1128 1.4354-3.7051 3.3383-3.7051 1.8937-.0002 3.2693 1.5577 3.2693 3.7049zm10.7922-6.5288c-3.7505 0-6.6888 2.8879-6.6888 6.5755 0 3.6473 2.9181 6.505 6.6428 6.505 3.7639 0 6.7111-2.8783 6.7111-6.5517 0-3.6606-2.9275-6.5284-6.6653-6.5284zm0 10.2557c-1.9949 0-3.4988-1.6028-3.4988-3.7279 0-2.1342 1.4519-3.6829 3.4528-3.6829 2.0078 0 3.5218 1.6029 3.5218 3.7295 0 2.1337-1.4616 3.6813-3.4756 3.6813zm14.6741-10.0012h-3.0623v-3.1309c0-.1122-.0907-.2037-.2031-.2037h-2.7824c-.1126 0-.204.0915-.204.2037v3.1309h-1.338c-.112 0-.2027.0915-.2027.204v2.3916c0 .1122.0907.204.2027.204h1.338v6.1884c0 2.5008 1.2447 3.7688 3.6996 3.7688.9982 0 1.8263-.2061 2.6068-.6487.0634-.0355.1027-.1038.1027-.1765v-2.2775c0-.0703-.0365-.1367-.0967-.1734-.0606-.0381-.136-.04-.1982-.0093-.536.2698-1.0543.3942-1.6335.3942-.8929 0-1.2912-.4054-1.2912-1.3139v-5.751h3.0623c.1124 0 .2029-.0916.2029-.204v-2.3914c.0043-.1125-.086-.204-.1999-.204zm10.6702.0122v-.3845c0-1.1313.433-1.6357 1.406-1.6357.58 0 1.046.1152 1.568.2893.064.0202.131.0101.184-.0284s.084-.1001.084-.1655v-2.34501c0-.08964-.058-.16895-.144-.19539-.552-.16401-1.257-.3323-2.313-.3323-2.5705 0-3.9292 1.4474-3.9292 4.1843v.5889h-1.337c-.1121 0-.2041.0916-.2041.2038v2.4039c0 .1122.092.204.2041.204h1.337v9.5453c0 .1124.0907.204.2029.204h2.7833c.112 0 .204-.0916.204-.204v-9.5447h2.598l3.98 9.543c-.452 1.0027-.896 1.2022-1.503 1.2022-.49 0-1.006-.1464-1.534-.4353-.05-.0273-.109-.0318-.162-.0152-.053.0187-.098.0582-.121.1098l-.943 2.0693c-.045.0978-.006.2126.088.2633.984.5332 1.873.7609 2.972.7609 2.055 0 3.19-.9572 4.192-3.5322l4.827-12.4752c.025-.0628.017-.1337-.021-.1894-.038-.0552-.1-.0885-.168-.0885h-2.896c-.087 0-.165.0552-.193.1367l-2.968 8.4769-3.251-8.4825c-.029-.0789-.105-.1311-.19-.1311h-4.754zm-6.1865-.0122h-2.7829c-.1124 0-.2039.0915-.2039.204v12.1409c0 .1125.0915.204.2039.204h2.7829c.1122 0 .204-.0915.204-.204v-12.1401c0-.0268-.0052-.0534-.0155-.0782-.0102-.0248-.0252-.0473-.0442-.0662-.019-.019-.0415-.034-.0663-.0442s-.0514-.0155-.0782-.0154zm-1.3756-5.52812c-1.1025 0-1.9971.89243-1.9971 1.99492 0 1.103.8949 1.9966 1.9971 1.9966 1.102 0 1.9957-.8936 1.9957-1.9966 0-1.10227-.8941-1.99492-1.9946-1.99492zm24.3791 9.43162c-1.102 0-1.959-.8845-1.959-1.9585 0-1.0741.868-1.9687 1.969-1.9687s1.958.8843 1.958 1.9575c0 1.0741-.868 1.9697-1.969 1.9697zm.01-3.7324c-1.003 0-1.762.7974-1.762 1.7739 0 .976.754 1.7627 1.752 1.7627 1.003 0 1.763-.7968 1.763-1.7739 0-.976-.754-1.7627-1.752-1.7627zm.435 1.9641.553.7755h-.467l-.498-.7114h-.429v.7114h-.391v-2.0557h.917c.477 0 .791.2444.791.6558.002.337-.193.5429-.475.6244zm-.331-.9275h-.51v.6502h.51c.254 0 .406-.1244.406-.3254 0-.2115-.153-.3248-.406-.3248z" fill="#2ebd59"/></svg>