<svg fill="none" height="36" viewBox="0 0 141 36" width="141" xmlns="http://www.w3.org/2000/svg"><path d="m47.8017 23.2v-10.4c0-.64.5209-1.16 1.162-1.16s1.162.52 1.162 1.16v10.4c0 .64-.5209 1.16-1.162 1.16-.601 0-1.162-.52-1.162-1.16zm13.3028.44-5.0487-8.04v7.6c0 .64-.5209 1.16-1.162 1.16s-1.1619-.52-1.1619-1.16v-10.08c0-.84.6811-1.56 1.5626-1.56h.0802c.5208 0 1.0417.28 1.3222.72l5.0086 7.92v-7.48c0-.64.5209-1.16 1.162-1.16s1.162.52 1.162 1.16v10.08c0 .84-.6812 1.56-1.5627 1.56-.561 0-1.0819-.24-1.3623-.72zm11.0188-9.84v9.52c0 .6-.4808 1.08-1.0819 1.08h-.1602c-.6011 0-1.0819-.48-1.0819-1.08v-9.52h-2.6846c-.601 0-1.0818-.48-1.0818-1.08s.4808-1.08 1.0818-1.08h7.7332c.6011 0 1.0819.48 1.0819 1.08s-.4808 1.08-1.0819 1.08zm5.6496 9.52v-10.68c0-.56.4809-1.04 1.0418-1.04h7.012c.561 0 1.0418.48 1.0418 1.04s-.4808 1.04-1.0418 1.04h-5.7298v2.96h4.9284c.561 0 1.0418.48 1.0418 1.04s-.4808 1.04-1.0418 1.04h-4.9284v3.48h5.7298c.561 0 1.0418.48 1.0418 1.04s-.4808 1.04-1.0418 1.04h-7.012c-.5609.08-1.0418-.36-1.0418-.96zm18.9124.36-1.8432-4.12h-2.8448v3.68c0 .64-.5209 1.16-1.162 1.16h-.0401c-.6411 0-1.162-.52-1.162-1.16v-10.44c0-.64.5209-1.16 1.162-1.16h4.2473c3.0452 0 4.4476 1.92 4.4476 3.96 0 1.72-.9216 3.04-2.324 3.56l1.6027 3.6c.3206.76-.2003 1.6-1.0417 1.6-.4408 0-.8816-.24-1.0418-.68zm-1.6028-10.04h-3.0452v3.8h3.0853c1.3223 0 2.0836-.68 2.0836-1.88-.0401-1-.8014-1.92-2.1237-1.92zm15.4665 9.44c-.962.96-2.284 1.52-3.646 1.52-1.363 0-2.645-.44-3.606-1.44-1.403-1.4-1.603-3.08-1.603-5.16s.2-3.8 1.603-5.16c.961-.96 2.243-1.44 3.606-1.44 1.362 0 2.684.52 3.646 1.48.321.36.601.72.801 1.16.361.76-.2 1.6-1.041 1.6-.481 0-.882-.28-1.082-.72-.08-.24-.241-.44-.401-.64-.401-.52-1.122-.8-1.923-.8-.722 0-1.443.32-1.964.84-.881.92-.881 2.48-.881 3.68 0 1.16 0 2.76.881 3.68.521.52 1.242.84 1.964.84.801 0 1.522-.28 1.923-.8.16-.2.321-.44.401-.68.16-.44.601-.72 1.082-.72.841 0 1.402.84 1.041 1.6-.2.44-.48.84-.801 1.16zm12.461.08c-.961.96-2.324 1.44-3.686 1.44s-2.685-.48-3.686-1.44c-1.403-1.4-1.603-3.08-1.603-5.16s.24-3.8 1.603-5.16c.961-.96 2.324-1.44 3.686-1.44s2.685.48 3.686 1.44c1.403 1.4 1.603 3.08 1.603 5.16.04 2.08-.2 3.8-1.603 5.16zm-1.643-8.8c-.52-.52-1.282-.84-2.003-.84s-1.523.32-2.003.84c-.882.92-.922 2.48-.922 3.68 0 1.16.04 2.72.922 3.64.521.52 1.282.84 2.003.84s1.523-.32 2.003-.84c.882-.92.922-2.48.922-3.64 0-1.2-.04-2.8-.922-3.68zm16.749 8.88v-7.96l-3.005 8.12c-.16.48-.641.8-1.162.8s-.962-.32-1.162-.8l-3.005-8.24v8.08c0 .64-.521 1.12-1.122 1.12-.641 0-1.122-.52-1.122-1.12v-9.88c0-.96.801-1.76 1.763-1.76h.16c.722 0 1.403.44 1.643 1.16l2.925 7.92 2.965-7.92c.241-.68.922-1.16 1.643-1.16.962 0 1.763.8 1.763 1.76v9.88c0 .64-.521 1.12-1.122 1.12-.681 0-1.162-.48-1.162-1.12zm-106.542-23.24h-27.04626c-2.52432 0-4.52774 2-4.52774 4.48v27c0 2.52 2.00342 4.52 4.52774 4.52h27.04626c2.4842 0 4.4876-2 4.4876-4.48v-27c0-2.52-2.0034-4.52-4.4876-4.52zm-8.735 6.6c0-.68.5209-1.2 1.2021-1.2s1.2021.52 1.2021 1.2v16.04c0 .68-.5209 1.2-1.2021 1.2s-1.2021-.52-1.2021-1.2zm-6.0102-.6c0-.68.5209-1.2 1.202-1.2.6812 0 1.2021.52 1.2021 1.2v17.4c0 .68-.5209 1.2-1.2021 1.2-.6811 0-1.202-.52-1.202-1.2zm-6.0103.6c0-.68.5209-1.2 1.202-1.2.6812 0 1.2021.52 1.2021 1.2v16.04c0 .68-.5209 1.2-1.2021 1.2-.6811 0-1.202-.52-1.202-1.2zm-6.01028 2.4c0-.68.52089-1.2 1.20205-1.2.68117 0 1.20206.52 1.20206 1.2v10.8c0 .68-.52089 1.2-1.20206 1.2-.68116 0-1.20205-.52-1.20205-1.2zm26.04448 18.32c-.2003.16-4.6479 3.88-12.8219 3.88-8.17395 0-12.62155-3.72-12.8219-3.88-.52089-.44-.56095-1.2-.1202-1.68.44075-.52 1.20205-.56 1.68288-.12.08013 0 4.04692 3.28 11.25922 3.28 7.2925 0 11.2192-3.28 11.2192-3.32.5209-.44 1.2822-.36 1.6829.12.4808.52.4007 1.28-.0802 1.72zm.4007-7.52c0 .68-.5209 1.2-1.202 1.2-.6812 0-1.2021-.52-1.2021-1.2v-10.8c0-.68.5209-1.2 1.2021-1.2.6811 0 1.202.52 1.202 1.2z" fill="#adb5bd"/></svg>