<svg fill="none" height="36" viewBox="0 0 120 36" width="120" xmlns="http://www.w3.org/2000/svg"><g fill="#adb5bd"><path d="m42.8475 14.0442c0-3.5548 2.5955-6.03695 7.3123-6.03695 2.878 0 5.233.9176 6.5089 1.81648.1826.12835.5083.43977.313 1.01887-.2503.6237-.7094 1.5617-1.0387 2.171-.1918.3551-.6814.3083-.9322.1814-.9088-.4599-2.3994-1.2379-3.7688-1.3813-.3467-.0377-.6956-.0528-1.0443-.0451-1.206.0268-2.2135.445-2.5683 1.3638-.0696.1738-.1083.3584-.1146.5455-.0332 1.2107 1.6542 1.6485 3.6984 1.9993 3.8003.6501 6.6754 1.7627 6.6754 5.6687 0 3.317-2.6399 6.3147-7.8124 6.2228-3.4099-.0688-5.8291-1.2194-7.1254-2.3358-.0442-.0379-.5377-.5398-.2732-1.1434.3027-.777.8137-1.6675 1.2147-2.1403.2229-.3037.8112-.3519 1.1171-.1627 1.0685.6631 2.8271 1.7263 4.8542 1.7969.16.0055.3185.0064.4742.0024 1.8234-.0442 2.9265-.7346 2.9035-1.8976-.0197-1.0246-1.4655-1.6231-3.7676-2.0564-3.6718-.6906-6.6257-1.8992-6.6257-5.5876zm33.3574 5.0615c-2.5893.0339-4.9633.7406-5.0317 2.7612-.0008 1.6035 1.3018 2.391 3.13 2.2879 1.7537-.1687 3.0911-.9282 3.6804-1.936.2179-.3735.251-1.7711.2378-2.3684-.0033-.1272-.2551-.3678-.3654-.4141-.5501-.2315-.9573-.303-1.6514-.3311zm-8.6156-8.142c1.2108-1.08191 3.6115-2.76597 7.4375-2.67721 5.049.10484 7.7163 2.46851 7.9647 8.12281.1024 2.3318-.0672 8.8358-.1076 10.4563-.006.2324-.0848.3932-.3985.3992-.8315.0333-2.7524.0201-3.635.0086-.4454-.0216-.4971-.2423-.5029-.4733-.0038-.1511-.0168-.5993-.0261-.9646-.0051-.1938-.1874-.1883-.234-.1387-1.1844 1.2628-3.124 1.8726-5.1867 1.8726-3.1351 0-6.2605-1.8416-6.2509-5.4887.0096-3.7352 2.6618-5.5776 5.5754-6.012 1.8656-.2774 3.9686-.0307 5.5612.6011.1018.0408.3099-.0182.3115-.1624.0065-.4759-.0165-1.383-.1081-1.8129-.2337-1.0953-1.1488-1.9767-3.0711-2.2142-.3959-.0487-.7945-.0647-1.1935-.0331-1.5282.12-3.3672 1.3098-4.1287 1.7553-.1792.1046-.4598.0281-.5506-.0887-.4445-.5734-1.5616-2.2502-1.6495-2.5182-.0879-.2672.0361-.4923.1924-.6328zm17.0671 6.9531c-.0301-5.2093 3.6047-9.60392 9.5068-9.64254 3.6828-.02399 6.3588 1.64327 6.8298 2.42964.096.1847.047.339-.019.5249-.312.6573-1.0997 1.9273-1.6609 2.647-.239.3066-.4985.0439-.8-.1564-.8367-.5566-2.4266-1.2372-3.9912-1.2372-2.8386.0005-4.9525 1.9441-4.9289 5.52.0221 3.4315 2.0468 5.3173 4.9387 5.3856 1.5118.0379 2.9765-.8298 3.7645-1.5406.2475-.2156.5035-.1077.7863.113.5549.5664 1.3505 1.4408 1.7925 2.0427.289.3344.072.6617-.032.7931-1.1969 1.513-3.5094 2.7864-6.5698 2.8037-6.408.0448-9.5868-4.4544-9.6164-9.6822zm30.5886 9.448c.301-.0225 3.51-.4649 4.496-.6902.244-.0556.331-.261.194-.4644-.55-.8238-1.996-3.1632-3.511-5.2575-1.393-1.9257-2.862-3.6193-3.337-4.2709-.116-.1583-.11-.3142.017-.4371.903-.8828 4.683-4.5831 6.104-6.1113.55-.59442.219-.85015-.248-.98905-.902-.26868-2.362-.60357-3.193-.77845-.35-.07389-.771-.04798-1.077.26628-1.421 1.32302-5.757 5.66872-7.052 6.96772-.233.2344-.368.1823-.369-.1526-.011-2.5045-.061-13.22726-.15-14.990961-.006-.233178-.287-.4102201-.446-.4186164-.813-.04246129-2.87-.0546961-3.68-.007197-.227.0256687-.444.2566874-.464.4519614-.186 2.820203.08 23.522613.191 26.418613.008.2094.164.3718.363.3836.808.0468 2.808.0436 3.741.0261.46 0 .516-.3224.516-.3224l.069-5.5552s.047-.2471.124-.3287c.329-.3538 1.24-1.3283 1.628-1.7049.093-.0904.24-.084.335.0439.461.6213 1.777 2.6412 2.996 4.4452 1.12 1.6572 2.166 3.128 2.239 3.2319.169.2399.366.2495.514.2449zm-54.5896-.0192c.2823.0094 2.424.007 3.3729.0058.3195.0062.4855-.2354.4961-.4486.2016-4.0605.1153-23.39261-.012-26.445262-.0106-.263884-.1237-.3629602-.3041-.3869496-.8144-.1089121-3.1289-.0834835-3.8707.1103516-.1451.037663-.2306.147774-.2352.289312-.1816 7.868538-.0591 26.009348-.0207 26.352848.0382.344.2184.5105.5742.5225z"/><path d="m3.01795 19.1999c-1.32296.0101-2.443648-.7759-2.856862-2.0025-.015329-.0464-.02962-.093-.042862-.14-.450298-1.5709.422846-3.2143 1.987814-3.7405l25.10106-8.38334c.298-.08595.6065-.13086.9167-.13347 1.3581-.01056 2.5097.79265 2.933 2.04525l.0375.12099c.4696 1.6362-.6971 3.09667-2.0949 3.56477-.001.0007-.2553.0864-24.9619 8.4957-.3284.1116-.67261.17-1.01955.1731z"/><path d="m7.22233 31.7995c-1.32967.0095-2.45113-.7591-2.85842-1.9584-.01546-.0456-.02987-.0916-.04322-.1379-.45531-1.5767.41448-3.2239 1.98045-3.7466l25.03346-8.3915c.3235-.1072.6575-.1619.9935-.165 1.3332-.01 2.5046.7976 2.9179 2.0105l.0385.1262c.2418.8384.0989 1.7806-.3819 2.5242-.3583.5529-1.4884 1.0396-1.4884 1.0396l-25.12852 8.5191c-.34271.1151-.70155.1759-1.06335.1803z"/><path d="m28.179 31.7999c-.6443.0062-1.2741-.1945-1.7991-.5736-.525-.379-.9182-.9169-1.1233-1.5366l-8.2964-24.99871-.0415-.14031c-.4495-1.59417.415-3.25704 1.9643-3.786815.31-.105714.6305-.160869.9532-.163772.4793-.003628.9431.105955 1.38.324882.3599.180535.681.431455.9449.738335.2639.30689.4655.66367.593 1.04984l8.2956 24.99655.0241.0803c.4659 1.6551-.3966 3.319-1.9459 3.8488-.3061.1037-.6263.158-.9489.1611z"/><path d="m15.5714 35.9998c-.6443.0063-1.274-.1947-1.7989-.5741s-.918-.9177-1.1229-1.5379l-8.28903-24.9996c-.12844-.38568-.18068-.79329-.15372-1.1995.02695-.4062.13256-.80302.31078-1.16773.17822-.36472.42556-.69017.72785-.95772.30229-.26756.65359-.47196 1.0338-.60151.3063-.10394.62677-.15847.94971-.1616.64404-.00646 1.27357.19426 1.79832.57336s.91779.91713 1.12279 1.53696l8.2892 25.00064c.1285.3858.1808.7936.1537 1.2-.027.4064-.1328.8034-.3112 1.1682-.1785.3648-.4261.6903-.7287.9578-.3025.2676-.6541.4718-1.0346.6011-.3057.104-.6257.1585-.9481.1614h.001z"/><path d="m24.1267 26.4 5.8733-2.0316-1.92-5.7684-5.88 2.0103z"/><path d="m11.5372 30.6 5.8629-2.02-1.9313-5.78-5.8687 1.9997z"/><path d="m19.9127 13.8 5.8873-2.0473-1.9018-5.7527-5.8982 2.01266z"/><path d="m7.33018 18 5.86972-2.0282-1.9194-5.7718-5.8806 1.9937z"/></g></svg>