<svg fill="none" height="36" viewBox="0 0 169 36" width="169" xmlns="http://www.w3.org/2000/svg"><g clip-rule="evenodd" fill="#adb5bd" fill-rule="evenodd"><path d="m41.6843 9.70153h7.4485v20.98727h6.1895v-20.98727h7.4494v-5.31286h-21.0874zm15.4221 20.98727h6.5045l1.8536-5.312h7.5874l1.7849 5.312h6.3999l-9.0232-26.29922h-6.7671zm14.1587-10.0919h-4.5174l2.2704-6.3299zm10.4968 10.0919h5.9793v-9.4676h4.3026c.9079 0 1.9619-.1656 2.5006.5745s.4882 2.0285.4693 3.3604c-.0208 1.3318-.0145 2.7052.2869 3.6851.2996.9799.8392 1.8476 1.6216 1.8476h5.4018c-.62-.6539-1.06-1.4584-1.276-2.3344-.213-.8812-.183-1.8412-.144-2.9052.038-1.0631.084-2.2294-.039-3.1857-.122-.9582-.411-1.7055-.8836-2.2973-.4786-.5922-1.1223-1.0282-1.8491-1.2522 1.1407-.8206 2.0977-1.9127 2.6797-3.0708.58-1.1572.784-2.3796.861-3.5902.078-1.2105.027-2.40847-.354-3.54668-.383-1.13821-1.095-2.21761-2.0532-2.95772-.9683-.74486-2.1528-1.15188-3.3732-1.15902h-14.1316v26.29922zm12.9242-20.4797c.7192.4768 1.1578 1.3518 1.1469 2.2375-.0108.4525-.1275.896-.3405 1.295s-.5164.7423-.8858 1.0023c-.7508.5175-1.7588.4071-2.6964.4071h-4.1736v-5.19704h4.4028c.8789 0 1.8256-.22166 2.5466.25514zm10.1199-1.16534c-.899 1.33184-1.562 2.89524-1.922 4.89484-.359 1.9996-.417 4.4361-.093 6.5624.322 2.1271 1.027 3.943 1.884 5.3508.856 1.4079 1.864 2.4058 2.962 3.2581 1.099.8523 2.283 1.5581 3.619 1.9544 1.347.3904 2.762.4879 4.149.2859 1.335-.1991 2.519-.6849 3.442-1.1057.921-.4216 1.583-.7781 2.203-1.1961l1.05 1.6395h3.883l-.009-14.7452h-11.121v5.1446h5.215c.203.8876.081 1.8593-.368 2.6682-.45.8079-1.228 1.453-2.332 1.909-1.104.4551-2.531.7202-3.922.2977-1.389-.4225-2.739-1.5327-3.628-2.8039-.888-1.2694-1.317-2.7008-1.506-4.285-.186-1.5834-.133-3.3206.245-4.8352s1.082-2.8084 1.965-3.7403c.885-.93194 1.95-1.50104 3.291-1.74443 1.34-.24339 2.957-.15924 4.034.44334 1.079.60258 1.618 1.72269 1.929 2.43479.31.712.393 1.0151.403 1.3264h5.587c-.083-1.1636-.413-2.3009-1.079-3.60014-.667-1.29926-1.669-2.75867-3.093-3.7874s-3.269-1.62499-4.98-1.85118c-1.573-.21571-3.174-.10952-4.706.31215-1.416.39358-2.677 1.03688-3.874 1.90727-1.196.87311-2.33 1.97333-3.228 3.30516zm41.845 21.64504v-5.312h-12.327v-6.1018l10.594-.0217.002-4.8171h-10.596v-4.73376h12.327v-5.31286l-18.494.00362.03 26.2956zm.892-20.98727h7.451v20.98727h6.189v-20.98727h7.449v-5.31286h-21.089zm16.626 19.80737h.341v-.066c-.05.0009-.119-.0154-.148-.0814l-.259-.4307c.246-.0787.345-.3963.09-.5655-.111-.0597-.207-.0688-.349-.0724h-.629v.0588c.07-.0172.197.0353.17.1267-.005.3049.015.5908-.014.9147-.054.0688-.08.0426-.15.0498v.066h.615v-.066c-.066.0163-.197-.0344-.17-.1267v-.3854h.17zm-.504-.6387v-.4968c.15-.0072.382.0227.382.2009.013.0715 0 .2778-.175.2913-.063.01-.139.0037-.207.0046zm.148 1.1879c.216 0 .451-.0606.675-.2207.549-.456.631-1.0251.261-1.6087-.457-.5565-1.026-.6388-1.617-.2633-.553.4551-.634 1.0242-.262 1.6087.264.3529.61.4804.943.484zm0-.1266c-.191 0-.4-.0543-.599-.1964-.492-.4071-.566-.9129-.233-1.4395.403-.4913.911-.5627 1.431-.2307.492.4054.566.9147.235 1.435-.235.314-.544.4289-.834.4316z"/><path d="m20.8416 12.9132c-.9158-.5119-1.9734-.7869-3.0311-.7869s-2.1154.275-3.0312.7869c-.9207.5171-1.686 1.2584-2.2198 2.1504-.5302.8935-.8102 1.9058-.8122 2.9364 0 1.0255.2838 2.0502.8122 2.9373.5293.8872 1.3032 1.6377 2.2198 2.1496.9167.5118 1.9735.7868 3.0312.7868s2.1153-.2741 3.0311-.7868c.9158-.5128 1.6905-1.2624 2.2198-2.1496.5304-.8938.8104-1.9063.8122-2.9373 0-1.0246-.2829-2.0492-.8122-2.9364-.5338-.892-1.299-1.6333-2.2198-2.1504z"/><path d="m33.5889 8.99933c-1.5697-2.71966-3.8689-5.01869-6.5878-6.58838-2.7189-1.569691-5.8602-2.41095-9.0006-2.41095-3.1405 0-6.28.841259-8.99982 2.41095-2.73322 1.58402-5.00461 3.8553-6.5887 6.58838-1.570677 2.71967-2.41198 5.85997-2.41198 9.00017 0 3.1403.841303 6.2806 2.41198 9.0003 1.58356 2.7335 3.85507 5.0049 6.5887 6.5883 2.73802 1.5755 5.84082 2.407 8.99982 2.4119 3.1404 0 6.2808-.8413 9.0006-2.4119 2.7198-1.5696 5.0181-3.8687 6.5878-6.5883 1.5698-2.7197 2.4111-5.86 2.4111-9.0003 0-3.1402-.8413-6.2814-2.4111-9.00017zm-5.2744 14.95227c-1.0439 1.8021-2.5415 3.2996-4.3437 4.3435-1.8057 1.0381-3.8514 1.5861-5.9342 1.5895-2.0699 0-4.1398-.5542-5.9334-1.5895-1.7927-1.0354-3.30834-2.5509-4.34372-4.3435-1.03538-1.7927-1.58962-3.8633-1.58962-5.9331 0-2.0707.55424-4.1413 1.58962-5.934 1.03538-1.7926 2.55102-3.30903 4.34372-4.34346 1.8052-1.03841 3.8508-1.58641 5.9334-1.58955 2.0707 0 4.1406.55422 5.9342 1.58955 1.802 1.04416 3.2995 2.54156 4.3437 4.34346 1.0389 1.8054 1.5872 3.8511 1.5906 5.934-.0039 2.0825-.5522 4.1278-1.5906 5.9331z"/></g></svg>