<svg fill="none" height="36" viewBox="0 0 110 36" width="110" xmlns="http://www.w3.org/2000/svg"><path clip-rule="evenodd" d="m11.6172 2.5242-3.17828-.01403h-4.92581c-.34181 0-2.98349.02572-2.98349.02572l-.047246 4.28145-.482374.01344.0291641-4.81165-.0174985-1.9770413c1.6786844.0818403 7.7448144.1356233 14.0390344.1356233 7.3394 0 12.0675-.074241 13.9235-.1297763l-.0222 2.1904143.0391 4.86718-.5005-.00526c.0035-.39751-.0816-2.0127-.0769-2.17053.0023-.05905-.105-2.22841-.1202-2.39092l-2.1068-.02923-6.314-.00117-2.4195.00935.0035 30.02563c0 .0409.0455 1.9683.0537 2.3681.2432.0357 2.5833.1976 3.0062.1976l.1651-.0023v.8184c-.1254 0-.2818.0134-.4124.0122-1.3293-.0146-3.4752-.1747-5.0005-.1747-1.5008 0-3.6175.1484-5.1836.1724-.04142.0012-.36222-.0058-.48296-.0123l-.0035-.871c.01516 0 .11199-.0023.25839-.007.66144-.0275 2.28997-.1368 2.71517-.1724l.0653-.0106zm28.3557 33.436c-1.2319 0-3.3265-.2057-4.8949-.2057-1.5516 0-3.6572.2057-5.1726.2057-.1289 0-.3563-.0286-.4812-.0286v-.8529c.2993-.007 1.6396-.1292 2.0112-.1567.4369-.0321.8405-.0537 1.0201-.1128l.0094-2.6201c.0163-5.509.0484-21.081-.0024-28.12688-.0058-.74358-.0105-2.62825-.0105-2.90067-.284-.02806-.6806-.06605-.9653-.10405-.3552-.01929-1.8192-.159005-2.0689-.173619l-.0093-.8528976c1.4524 0 3.6082.1484816 5.358.1484816 1.6717 0 3.9395-.1484816 5.6573-.1484816l-.0035.8891396c-.2724.018706-.935.060212-.9572.062551-.5005.047936-1.9009.206946-2.2451.231496v2.74108c-.0011 6.30935-.0075 22.81545-.0105 28.37365v1.8016c0 .425.0024.6793.0065.6951.0087.0321.8865.114 1.0889.1268.3873.0456 1.9809.1152 2.0293.1269h.1073l-.0012.8529c-.1044-.0006-.3587.028-.4654.028zm11.0584-23.9635s-.7932 4.3937-1.9376 10.5925c-.6067 3.3491-1.8619 11.7237-1.9465 12.2761.7239.1088 2.1494.2251 2.5373.2122.0893 0 .2421.0035.3535.0035l-.0012.8483c-.1851.0151-.3707.0227-.5564.0228-1.3731-.0287-2.3623-.1339-3.8439-.1339-.3896 0-2.4503.1076-3.1759.1327-.3028.0134-.7309-.0193-.8131-.0158l.0011-.8406c.0706 0 .2147-.0298.3063-.0322.6562-.0298 1.667-.1315 2.5232-.2431.07-.4122.8102-4.541 1.0453-6.0037.9093-4.8397 3.5901-21.01081 3.9255-23.19187.2333-1.86757.4557-3.7365.6672-5.6066777.7105.0122762 1.9365-.01578379 1.9365-.01578379s2.3722 7.38730149 2.7578 8.46876149c.3855 1.08206 7.6352 19.77507 7.6352 19.77507s3.4028-8.0537 6.4353-16.6967c.6142-1.74962 1.4197-4.03181 2.0129-5.87907.8679-2.70367 1.8228-5.66923 1.8228-5.66923h1.8659s.4625 3.30169.6264 4.77132c.476 4.2791 3.5942 21.66498 4.689 27.38278.2724 1.4304.4795 2.6691.4795 2.6691.3225.0228 1.5824.1485 2.3296.2099.1563.0135.5751.0363.6708.0363l.0046.8622s-.3406.017-.5261.017c-1.6722-.0106-4.2766-.1608-5.8841-.1608-1.4296 0-2.805.1233-4.2346.1543-.2438.0047-.4888-.007-.7373-.007v-.8517c.0994-.0069.199-.0096.2986-.0082.6982-.0333 2.5496-.2157 2.7333-.2239.0012-.3127-.1003-1.3965-.2508-2.5026-.1038-.781-.28-2.1156-.4696-3.4308-.4065-2.5576-2.2911-13.153-2.8516-16.0946-.0922-.4823-.1493-.753-.1493-.753s-5.8375 15.0091-7.0152 17.9664c-.1137.29-.196.4946-.2234.5618-1.1257 2.8487-2.0689 5.3881-2.0689 5.3881l-1.6612-.0106-9.0951-23.4333zm57.7557-4.94261-.482.00117-.005-.25254c-.05-.6255-.155-2.39559-.288-3.88451-.012-.1327-.033-.23676-.033-.23676-.289-.00935-1.464-.04735-1.483-.06664-.019-.01754-.955-.0304-.975-.04033-.01-.00468-3.081-.02339-6.2482-.02572-2.1611-.00234-4.2883.01169-5.5925.01169-.3202-.00117-1.4699.04384-1.4699.04384l-.007 14.12861 9.0516.031c.043 0 2.398-.0736 2.455-.0725.142.0012 1.759-.0929 1.82-.1146 0 0 .024-.1479.063-.256.131-.8546.297-1.6672.338-2.3009 0 0 .042-.2718.044-.4554l.515-.0111c0 .0661.027.2286.024.4595-.004.8517-.066 2.6195-.063 3.7793.002 1.6684.046 3.1754.057 3.9301.007.2157-.007.5594-.007.5594h-.565c-.011-.0801-.02-.1619-.031-.249-.087-.8769-.198-1.7514-.332-2.6224-.004-.0503-.033-.2274-.045-.3402-.485-.0258-.97-.0449-1.456-.0573-.177-.007-2.383-.0228-4.8669-.0263-1.0172-.0012-2.8446.0467-3.6192.0444-.9082 0-2.4072.0585-3.386.0935l.0105 12.8128.0385 1.6497 5.4957.0958 7.8264-.007c.036 0 1.792-.0707 2.34-.0596.116.0023.351-.0181.351-.0181.052-.4145.116-1.2528.181-2.0531.005-.0947.2-2.2196.2-2.7913l.482-.0059c0 .5402-.103 7.2523-.103 7.2523-.882 0-3.589-.0023-6.932-.0514-2.029-.031-4.2882-.0287-6.5164-.0614-1.8082-.0263-3.5965-.0912-5.2233-.0877-2.3185.0023-4.5886.1543-5.4706.1555-.2018 0-.5582-.0135-.6357-.0135v-.8435h.1627c.5436-.0035 2.1418-.0982 2.9759-.2537 0-.1701.056-2.2594.056-2.3027l-.0047-27.71942c0-1.2814-.0227-3.41802-.0227-3.60743-.4719-.05612-.6393-.08535-.7385-.10639-.4998-.07073-1.4879-.157251-2.0164-.194664-.1324.001741-.2648-.008433-.3954-.030399 0 0-.0024-.8295167-.007-.8412083.1195.0070149.3669-.0116912.8102-.0087683.9332.0040921 2.6498.1420536 4.7484.1443916 1.3183.001169 3.4449-.063133 4.9684-.083009 2.1728 0 3.8223-.021044 5.9261-.0339047 3.435-.0233831 6.368-.047937 7.515-.05378277.335-.00116915.519-.00292128.519-.00292128 0 .06664175-.002.14205175-.002.22798475 0 .266567-.012.734812-.007 1.308871.012 1.78588.055 4.59594.055 5.51314z" fill="#adb5bd" fill-rule="evenodd"/></svg>