<svg fill="none" height="48" viewBox="0 0 143 48" width="143" xmlns="http://www.w3.org/2000/svg"><path clip-rule="evenodd" d="m6.18919 48c-3.41813 0-6.18919-2.7707-6.18919-6.1892v-.0002-35.62141c0-3.41813 2.77069-6.18919 6.18937-6.18919h35.62143c3.4181 0 6.1892 2.77069 6.1892 6.18937v35.62143c0 3.4181-2.7707 6.1892-6.1894 6.1892zm13.53441-33.7006v6.7975h6.4717c1.1398 0 2.076-.2713 2.8086-.8142.7327-.5426 1.0991-1.4246 1.0991-2.6458 0-.6782-.1222-1.2345-.3664-1.6687-.2443-.4341-.57-.7733-.9768-1.0176-.4071-.2443-.8753-.4138-1.4044-.5087-.5291-.095-1.0785-.1425-1.6485-.1425zm-6.3906 24.0966v-29.0625h13.6765c1.3839 0 2.6458.12206 3.7854.36637 1.1398.24413 2.1167.64443 2.9306 1.20073.8141.5563 1.4451 1.2958 1.8928 2.2183.4478.9227.6717 2.0623.6717 3.4191 0 1.4655-.3325 2.6865-.9972 3.6634-.6648.9768-1.6487 1.7775-2.9512 2.4015 1.791.5156 3.1275 1.4178 4.0095 2.7069.8818 1.2889 1.3228 2.8423 1.3228 4.6605 0 1.4653-.2848 2.7339-.8548 3.8059-.5698 1.0717-1.3365 1.947-2.2997 2.6254-.9634.6783-2.0623 1.1803-3.297 1.506-1.2347.3256-2.5033.4884-3.8059.4884zm6.3906-12.9439v7.978h6.8381c.6242 0 1.221-.0612 1.791-.183.5698-.1223 1.0719-.3257 1.506-.6107.4343-.2848.7802-.6717 1.038-1.1601s.3868-1.1124.3868-1.8724c0-1.4925-.4207-2.5575-1.2619-3.1952-.8413-.6378-1.9539-.9566-3.3378-.9566z" fill="#6c757d" fill-rule="evenodd"/><g fill="#adb5bd"><path d="m65.6543 29.0918c2.998 0 4.8047-1.5039 4.8047-3.9844 0-1.875-1.2891-3.2324-3.2031-3.4472v-.0782c1.4062-.2343 2.5097-1.5722 2.5097-3.0664 0-2.1289-1.6406-3.5156-4.1406-3.5156h-5.625v14.0918zm-3.4668-12.3047h2.9102c1.582 0 2.4804.7227 2.4804 2.0313 0 1.3964-1.0449 2.1777-2.9394 2.1777h-2.4512zm0 10.5176v-4.6387h2.8906c2.0703 0 3.1446.7813 3.1446 2.3047s-1.045 2.334-3.0176 2.334z"/><path d="m76.5039 29.2871c2.9395 0 4.8731-2.0215 4.8731-5.332 0-3.3008-1.9434-5.3223-4.8731-5.3223s-4.873 2.0215-4.873 5.3223c0 3.3105 1.9336 5.332 4.873 5.332zm0-1.7383c-1.6504 0-2.7246-1.3086-2.7246-3.5937 0-2.2754 1.0742-3.584 2.7246-3.584s2.7246 1.3086 2.7246 3.584c0 2.2851-1.0644 3.5937-2.7246 3.5937z"/><path d="m87.4219 29.2871c2.9394 0 4.873-2.0215 4.873-5.332 0-3.3008-1.9433-5.3223-4.873-5.3223s-4.8731 2.0215-4.8731 5.3223c0 3.3105 1.9336 5.332 4.8731 5.332zm0-1.7383c-1.6504 0-2.7246-1.3086-2.7246-3.5937 0-2.2754 1.0742-3.584 2.7246-3.584s2.7246 1.3086 2.7246 3.584c0 2.2851-1.0645 3.5937-2.7246 3.5937z"/><path d="m94.541 16.3867v2.4317h-1.4941v1.6699h1.4941v5.8984c0 1.9824.8106 2.7735 2.8906 2.7735.4688 0 .9375-.0391 1.1719-.0977v-1.6699c-.1367.0293-.4785.0488-.6933.0488-.8594 0-1.25-.4004-1.25-1.2891v-5.664h1.9531v-1.6699h-1.9531v-2.4317z"/><path d="m100.166 21.7285c0 1.4356.938 2.4024 2.793 2.8516l1.836.4492c1.074.2734 1.465.6348 1.465 1.2891 0 .83-.781 1.3574-2.051 1.3574-1.289 0-2.051-.5469-2.217-1.5332h-2.0897c.1657 1.8847 1.7777 3.1445 4.2087 3.1445 2.52 0 4.268-1.2891 4.268-3.1641 0-1.5136-.781-2.2949-2.852-2.7929l-1.728-.4004c-1.065-.2637-1.572-.6934-1.572-1.3281 0-.8106.761-1.3672 1.904-1.3672 1.181 0 1.933.5761 2.031 1.5039h1.983c-.069-1.8262-1.67-3.1055-3.956-3.1055-2.402 0-4.023 1.2598-4.023 3.0957z"/><path d="m110.635 16.3867v2.4317h-1.494v1.6699h1.494v5.8984c0 1.9824.81 2.7735 2.89 2.7735.469 0 .938-.0391 1.172-.0977v-1.6699c-.136.0293-.478.0488-.693.0488-.859 0-1.25-.4004-1.25-1.2891v-5.664h1.953v-1.6699h-1.953v-2.4317z"/><path d="m116.445 29.0918h2.11v-6.1523c0-1.4551.84-2.3633 2.197-2.3633.41 0 .781.0488.947.1172v-1.9629c-.156-.0293-.42-.0782-.722-.0782-1.211 0-2.129.7129-2.471 1.9141h-.049v-1.748h-2.012z"/><path d="m126.387 27.5977c-1.133 0-1.875-.586-1.875-1.4844 0-.8789.713-1.4356 1.972-1.5235l2.53-.1562v.8105c0 1.3379-1.153 2.3536-2.627 2.3536zm-.586 1.6699c1.347 0 2.646-.7227 3.242-1.8653h.049v1.6895h2.021v-7.0801c0-2.0605-1.592-3.3789-4.082-3.3789-2.539 0-4.121 1.3672-4.238 3.2227h1.992c.186-.918.947-1.5039 2.168-1.5039 1.289 0 2.061.6836 2.061 1.8261v.7911l-2.813.166c-2.441.1367-3.818 1.2402-3.818 3.0371 0 1.8457 1.406 3.0957 3.418 3.0957z"/><path d="m138.516 18.6523c-1.485 0-2.666.752-3.272 1.9336h-.039v-1.7675h-2.041v13.6718h2.109v-5.0879h.049c.586 1.1426 1.758 1.8653 3.233 1.8653 2.578 0 4.287-2.0606 4.287-5.3125 0-3.252-1.719-5.3028-4.326-5.3028zm-.557 8.8282c-1.621 0-2.695-1.3867-2.695-3.5254 0-2.1192 1.084-3.5254 2.695-3.5254 1.67 0 2.715 1.3769 2.715 3.5254 0 2.1582-1.045 3.5254-2.715 3.5254z"/></g></svg>