<svg fill="none" height="48" viewBox="0 0 32 48" width="32" xmlns="http://www.w3.org/2000/svg"><path d="m18.1653 14.2683v33.1152c0 .3519.3517.5718.6596.3958l12.7096-6.9044c.1319-.0881.2199-.2199.2199-.3958v-18.7786c0-.1759-.0881-.3079-.2199-.3958l-12.6656-7.4323c-.3078-.1759-.7036.044-.7036.3957zm-1.8032 33.2472v-47.056103c0-.307969-.3078-.5278758-.6157-.4398138l-15.436114 5.7170868c-.175876.08781-.30784459.21991-.30784459.43969v35.79794c0 .1759.13196859.3519.30784459.4398l15.436114 5.5412c.3079.088.6157-.1319.6157-.4398z" fill="#6c757d"/></svg>