<svg fill="none" height="48" viewBox="0 0 80 48" width="80" xmlns="http://www.w3.org/2000/svg"><g fill="#adb5bd"><path d="m21.0372 24.717c-.0563.0822-.1547.3382-.3001.7727-.1453.4345-.3212.9771-.5275 1.63s-.4314 1.3857-.6705 2.1936c-.2415.8079-.49 1.6347-.7432 2.4755-.2556.8431-.4994 1.6675-.7339 2.4778-.2344.8079-.4454 1.5407-.6306 2.1936s-.34 1.2002-.4642 1.6441c-.1243.4415-.1993.7022-.2275.7844-.0679.2607-.1781.5519-.3305.8713-.1524.3195-.3306.6201-.5369.9066-.2063.2866-.4338.5238-.6823.7117s-.504.2818-.7643.2818c-.4407 0-.7619-.148-.9612-.4415-.1993-.2936-.3001-.8338-.3001-1.6183v-.3429c0-.115.007-.2372.0211-.3663.014-.2607.1172-.7516.3095-1.4726.1922-.7187.4243-1.5314.6916-2.4403s.558-1.846.8674-2.8207c.3095-.9723.5885-1.8437.837-2.6117-.7314.8174-1.5215 1.63-2.3773 2.4403-.8534.8102-1.7302 1.536-2.6235 2.1818-.89559.6459-1.79822 1.1744-2.70789 1.5807-.90967.4086-1.78416.613-2.62349.613-.9636 0-1.79355-.2138-2.48987-.6365-.69631-.4251-1.27072-.9817-1.72555-1.6675-.454834-.6858-.792443-1.4632-1.012826-2.3299-.220383-.8666-.330574-1.7333-.330574-2.5999v-.3194c0-.0987.00703265-.195.0210997-.2936.0820573-1.5689.3071303-3.1801.6705283-4.8312.365742-1.6511.844022-3.2951 1.437182-4.9274.59316-1.6347 1.27775-3.2317 2.05613-4.7936.77837-1.5618 1.62474-3.0367 2.54144-4.42479.9167-1.38805 1.88967-2.66805 2.92359-3.83767 1.03393-1.16962 2.09363-2.17484 3.18153-3.01565 1.0878-.84081 2.1874-1.49843 3.2963-1.972855 1.109-.474425 2.2085-.711635 3.2964-.711635 1.2543 0 2.4664.342899 3.6363 1.0287 1.1699.6858 2.2648 1.79906 3.2847 3.33506.2344.3429.3821.6905.4431 1.0428.0609.35229.0938.68345.0938.99347 0 .73512-.1759 1.31524-.5275 1.74034-.3517.4251-.769.63648-1.2497.63648-.4407 0-.851-.23252-1.2285-.6999-.3798-.46503-.8018-1.13204-1.2707-1.99868-.4408-.78445-.9261-1.35282-1.4559-1.70511-.5299-.3523-1.1067-.5261-1.7256-.5261-.9636 0-1.9952.40162-3.0901 1.20251-1.0948.80088-2.1803 1.86011-3.2541 3.17535s-2.1054 2.81838-3.09008 4.51178c-.98469 1.691-1.85684 3.4243-2.61412 5.1975-.75727 1.7732-1.35981 3.5229-1.80761 5.2468s-.67053 3.274-.67053 4.648c0 .458.03048.9277.09378 1.4092.06331.4814.17819.9206.35168 1.3129.17115.3922.4056.7163.70335.9676.29541.2536.67053.3805 1.12536.3805.50876 0 1.08785-.1715 1.73493-.5144.64709-.3429 1.31994-.7915 2.01394-1.3481.6963-.5566 1.395-1.1861 2.0983-1.8883.7034-.7022 1.3575-1.4139 1.9624-2.1326.6048-.7187 1.1441-1.4091 1.6106-2.0715.4689-.6623.8206-1.2377 1.0527-1.7286l1.9225-5.7612c.2345-.62.5416-1.0615.9191-1.3246.3798-.2607.769-.3922 1.1675-.3922.1923 0 .3845.0329.5791.0986.1923.0658.3658.1668.5158.3077.1524.1386.272.3194.3611.5402.089.2208.1336.4791.1336.7727 0 .7844-.068 1.5196-.2063 2.2077-.1383.6882-.3142 1.3575-.5275 2.0104-.2134.653-.4502 1.3129-.7128 1.9729-.2579.6576-.5134 1.3481-.7596 2.0691zm26.0568 4.8053c-.6072.8174-1.3129 1.6136-2.1171 2.391-.8065.7774-1.6364 1.4679-2.4898 2.0715s-1.6951 1.0897-2.5204 1.4585c-.8276.3687-1.5708.5519-2.2319.5519-.6612 0-1.1981-.2208-1.6131-.6623-.4126-.4416-.6189-1.1931-.6189-2.2571 0-.7515.1102-1.6276.3306-2.6234-.3587.6388-.8065 1.2847-1.3434 1.9376s-1.1512 1.2495-1.8405 1.7897c-.6892.5402-1.4606.977-2.314 1.3105-.8534.3359-1.7842.5026-2.7899.5026-.4549 0-.8933-.0563-1.313-.1714-.4196-.1151-.7877-.31-1.1042-.5872-.3165-.2771-.5721-.6482-.7643-1.1156-.1923-.465-.2884-1.0498-.2884-1.7521 0-.0164.0281-.2653.082-.7468.054-.4815.2298-1.2425.5276-2.2805.2954-1.0381.7549-2.3816 1.3738-4.0327.6213-1.651 1.4958-3.6521 2.6235-6.0078.2884-.62.6237-1.0662 1.0011-1.3363.3799-.2701.7878-.404 1.2286-.404.1922 0 .3915.0282.6002.0845.2063.0588.3985.148.579.2701.1782.1222.3236.2772.4338.4651s.1664.4039.1664.6505c0 .1644-.0211.3195-.0633.4651-.068.2795-.2157.6412-.4454 1.0921-.2274.4509-.4924.9653-.7948 1.5454s-.6236 1.2048-.9612 1.8765c-.3377.6694-.6518 1.3646-.9402 2.0833s-.5369 1.4514-.7432 2.1936c-.2063.7445-.3235 1.4679-.3517 2.1702 0 .2935.068.5636.2063.8102.1384.2443.3658.3688.6823.3688.8956 0 1.749-.2936 2.5625-.8831.8136-.5872 1.5638-1.32 2.2531-2.1936.6893-.8737 1.3129-1.8132 1.8709-2.8208.558-1.0052 1.0246-1.9235 1.395-2.7573.2626-.5566.4923-1.1531.6916-1.7896s.4173-1.226.6518-1.7662c.2344-.5402.5017-.9888.8065-1.3481.3024-.3593.6822-.5402 1.1371-.5402.4947 0 .8885.1879 1.1769.5637s.4338.8267.4338 1.3481c0 .2936-.0915.6999-.279 1.2142-.1876.5144-.4197 1.1039-.7034 1.7662-.2813.6623-.5885 1.3693-.919 2.1208-.3306.7516-.6377 1.5173-.9191 2.2923-.2837.7774-.5158 1.536-.7033 2.2805-.1853.7445-.279 1.435-.279 2.0715 0 .5895.3024.8831.9096.8831.4267 0 .9566-.148 1.592-.4415.6353-.2936 1.2988-.707 1.9951-1.2378s1.3903-1.1555 2.0866-1.8765c.6963-.7187 1.313-1.4961 1.8498-2.3299z"/><path d="m47.9651 28.4202c-.1493.381-.2939.8239-.4363 1.3311-.1423.5049-.2112.9573-.2112 1.355 0 .2476.0413.4477.1217.5977.0803.15.2365.2238.4661.2238.2824 0 .636-.1024 1.0631-.3119.4247-.2072.8839-.481 1.3753-.8216.4937-.3381 1.0057-.7286 1.5384-1.1692.5327-.4381 1.063-.8953 1.5888-1.3668.5258-.4739 1.0287-.9454 1.5086-1.4169.4798-.4738.9069-.9072 1.2858-1.3049.1079-.1167.2365-.2.3834-.2477.1469-.05.2755-.0738.3834-.0738.2687 0 .4937.1167.6682.3477s.2617.5381.2617.9192c0 .3476-.0941.7381-.2824 1.1692-.1882.431-.5189.8548-.9919 1.2668-.8633.9787-1.7335 1.905-2.6106 2.7837s-1.7496 1.6526-2.6198 2.3241-1.7335 1.2049-2.59 1.605c-.8564.3977-1.6899.5953-2.5004.5953-.5533 0-1.0148-.0905-1.3868-.2738-.372-.1834-.6682-.4311-.8909-.7454s-.3811-.6882-.4753-1.1192c-.0941-.431-.1423-.8858-.1423-1.3668 0-.812.0987-1.6455.2939-2.498.1951-.8525.427-1.6359.698-2.3479.473-1.293.9505-2.5765 1.4373-3.8529.4845-1.2764.9299-2.4456 1.3363-3.5052l6.1305-16.03548c.2434-.64532.5694-1.10253.9827-1.36685.411-.26432.8266-.39767 1.2445-.39767s.799.14049 1.1434.42148c.3445.28099.5167.7382.5167 1.36685 0 .29766-.0574.61437-.1722.94536-.1149.331-.2595.68819-.434 1.06919-.3375.77868-.7393 1.73119-1.2031 2.85752-.4661 1.1263-.9644 2.3527-1.4971 3.6791-.5327 1.3263-1.0791 2.7051-1.6394 4.1386-.5602 1.4335-1.1067 2.829-1.6394 4.1887-.5326 1.3597-1.0309 2.6479-1.497 3.8648-.4707 1.2192-.8725 2.2765-1.2077 3.1718z"/><path d="m77.7269 23.6172c.197-.1337.382-.2412.5502-.3248.1681-.0836.3315-.1242.4877-.1242.3099 0 .5429.1385.6991.4108.1561.2746.233.6113.233 1.0102 0 .4322-.0937.8716-.2859 1.3206-.1898.4489-.4757.8215-.8576 1.1224-1.5112 1.3302-2.859 2.5433-4.0434 3.6395-1.1868 1.0961-2.3039 2.0394-3.3562 2.8299-1.0523.7904-2.0781 1.3994-3.0799 1.8316-1.0018.4323-2.0757.6472-3.2193.6472-1.0739 0-1.9027-.234-2.4889-.6973-.5862-.4657-.8793-1.1057-.8793-1.92v-.1863c0-.0573.0072-.129.0216-.2126.0552-.4991.2763-1.0722.6559-1.7194.3819-.6472.8408-1.3206 1.3766-2.0203.5357-.6997 1.1075-1.4042 1.7153-2.1183.6078-.714 1.1676-1.3922 1.6841-2.0323.5141-.64.9418-1.2251 1.2805-1.7576.3388-.5326.5093-.9624.5093-1.2967 0-.2006-.072-.3583-.2114-.4729-.1417-.117-.3748-.1743-.6991-.1743-.5646 0-1.1459.1456-1.7466.437-.6006.2913-1.194.6806-1.7778 1.1702-.5862.4895-1.158 1.0507-1.7153 1.6836-.5574.6328-1.0787 1.2872-1.5664 1.9702s-.9322 1.366-1.3334 2.0561c-.4012.6902-.7447 1.3254-1.0258 1.9081-.0841.1839-.2042.4418-.3604.7738-.1561.3319-.3243.7069-.5069 1.1224-.185.4155-.3772.843-.5838 1.2824-.2042.4418-.3916.8573-.5598 1.2466-.1705.3916-.3219.7379-.4564 1.0484-.1346.308-.2307.5182-.2859.6352-.0721.1505-.1874.4323-.3508.8478-.1633.4155-.3483.9003-.5622 1.4591-.2114.5564-.4348 1.1415-.6654 1.7577-.2331.6161-.4517 1.1964-.6559 1.7457-.2042.5492-.3844 1.0292-.5406 1.4448-.1561.4155-.2546.6973-.2979.8478-.1417.4322-.3075.8382-.4973 1.2227-.1898.3821-.4084.7188-.6558 1.0101-.2475.2914-.5286.523-.8481.6974-.3171.1743-.6751.2603-1.0691.2603-.5093 0-.9273-.1218-1.2613-.3606-.3315-.2412-.4973-.7021-.4973-1.3828 0-.3319.0433-.6734.1274-1.0221.084-.3486.1921-.6949.3171-1.034.1273-.3415.257-.6735.3916-.9959.1345-.3247.257-.6352.37-.9361.7615-1.6621 1.5399-3.329 2.3303-4.9983.7904-1.6717 1.5496-3.3242 2.2751-4.9625.728-1.6358 1.4007-3.2454 2.0229-4.824.6198-1.5785 1.1364-3.0926 1.5448-4.5374.1129-.2985.2691-.7236.4661-1.2728.197-.5493.4228-1.089.6774-1.6215.2547-.5326.5406-.9935.8577-1.3828.3171-.3916.6607-.585 1.0259-.585.5645 0 .973.1289 1.2276.3868.2547.2579.382.6353.382 1.1344 0 .1003-.0144.2579-.0432.4728-.0289.215-.0649.4442-.1058.6854-.0432.2412-.0888.4705-.1369.6854-.0504.2149-.0961.3725-.1369.4728.5213-.5659 1.0859-1.1248 1.6937-1.6836.6078-.5564 1.2349-1.0603 1.8859-1.5093.6487-.4489 1.3118-.8143 1.9892-1.0985.6775-.2818 1.355-.4227 2.0325-.4227.4661 0 .9274.0669 1.3862.2006.4589.1338.8673.3272 1.2277.5851.3603.2579.6534.5827.8793.972.2258.3916.3387.843.3387 1.3588 0 .683-.173 1.409-.5189 2.1827-.346.7738-.7808 1.5499-1.3021 2.3308-.5238.7809-1.0883 1.5427-1.6938 2.2807-.6078.7403-1.1748 1.4137-1.7057 2.0203-.5285.6066-.973 1.1224-1.3334 1.5451-.3603.4251-.5477.7117-.5621.8597 0 .2006.0648.3606.1898.4872.1249.1266.3387.1863.6366.1863.2403 0 .5934-.1338 1.0595-.3988.4661-.2651 1.1195-.726 1.958-1.3828.8384-.6567 1.9051-1.5379 3.1976-2.6436 1.2926-1.1033 2.8854-2.4956 4.7761-4.1744z"/></g></svg>