<svg fill="none" height="48" viewBox="0 0 65 48" width="65" xmlns="http://www.w3.org/2000/svg"><path d="m55.1255 27.5629c-2.239.0127-4.1777.5504-5.8038 1.3511-.6004-1.1883-1.2008-2.2266-1.3007-3.002-.1126-.9006-.2502-1.4511-.1126-2.5267.1375-1.0758.7629-2.6018.7629-2.7269-.0127-.1125-.1377-.6629-1.426-.6754-1.2882-.0125-2.4015.2502-2.5266.5879s-.3752 1.1132-.5379 1.9137c-.2251 1.1758-2.5766 5.341-3.915 7.53-.4378-.8506-.813-1.6011-.8882-2.2016-.1125-.9005-.2502-1.451-.1125-2.5265.1376-1.0759.763-2.6017.763-2.7268-.0125-.1126-.1376-.663-1.4258-.6755-1.2884-.0125-2.4015.2502-2.5266.5879s-.2627 1.1383-.5379 1.9138c-.2628.7755-3.3898 7.73-4.2029 9.5437-.4127.9256-.7753 1.6636-1.0381 2.1639-.2627.5004-.0125.0376-.0376.0876-.2251.4253-.3502.6629-.3502.6629v.0127c-.1751.3127-.3627.6127-.4504.6127-.0625 0-.1876-.838.025-1.9886.4628-2.4142 1.5885-6.1791 1.5762-6.3167 0-.0625.2125-.7256-.7256-1.0632-.9131-.3377-1.2382.2252-1.3134.2252-.075 0-.1376.2001-.1376.2001s1.0132-4.2401-1.9388-4.2401c-1.8512 0-4.4028 2.0138-5.6662 3.8525-.8005.4378-2.5016 1.3632-4.3028 2.3515-.6879.3753-1.4009.7755-2.0763 1.1383l-.1375-.1504c-3.5773-3.815-10.19416-6.5168-9.91898-11.6451.10007-1.8637.7505-6.7794 12.70848-12.73333 9.7939-4.87819 17.6365-3.53982 18.9998-.56287 1.9387 4.2528-4.1903 12.1579-14.3718 13.2962-3.8776.4378-5.9165-1.0632-6.4292-1.6261-.5379-.5879-.6129-.6129-.8131-.5003-.3252.1751-.125.7005 0 1.0132.3002.788 1.5511 2.1889 3.6775 2.8894 1.8635.6129 6.4166.9506 11.9202-1.1758 6.1666-2.3891 10.9822-9.0184 9.5688-14.55953-1.4384-5.641194-10.7946-7.4924-19.6378-4.35285-5.2661 1.87623-10.96983 4.80314-15.07252 8.64318-4.878185 4.5529-5.653692 8.5305-5.3284798 10.1816 1.1383698 5.8914 9.2560498 9.7314 12.5081998 12.5708-.1626.0874-.3127.1749-.4503.2501-1.6261.8004-7.81763 4.0402-9.36864 7.4673-1.75115 3.8775.27518 6.667 1.62606 7.0422 4.17773 1.1633 8.45548-.9256 10.76958-4.3653 2.3013-3.4398 2.0263-7.9052.9631-9.9441l-.0377-.075 1.2759-.7505c.8256-.4878 1.6387-.9381 2.3515-1.326-.4001 1.0882-.6879 2.3766-.8379 4.2528-.1751 2.2016.7255 5.0533 1.9137 6.179.5254.4877 1.1508.5004 1.5385.5004 1.3759 0 2.0014-1.1384 2.6893-2.5017.8506-1.6636 1.6011-3.5898 1.6011-3.5898s-.9382 5.2159 1.626 5.2159c.9381 0 1.8762-1.2133 2.3015-1.8387v.0125s.025-.0375.0751-.1251c.0525-.0776.1025-.1568.1501-.2375v-.025c.3752-.6505 1.2133-2.1389 2.4641-4.603 1.6134-3.1771 3.1645-7.1547 3.1645-7.1547s.1501.9756.6129 2.5767c.2751.9507.8755 1.9888 1.3383 3.0019-.3752.5254-.6004.8257-.6004.8257l.0125.0125c-.3001.4003-.6379.8257-.988 1.2508-1.2758 1.526-2.8018 3.2648-3.002 3.7651-.2376.5878-.1876 1.0256.2752 1.3759.3377.2502.9381.3001 1.576.2502 1.1508-.0752 1.9513-.3628 2.3516-.538.6254-.2252 1.3384-.5629 2.0263-1.0632 1.2508-.9255 2.0138-2.2388 1.9388-3.99-.0376-.9631-.3503-1.9137-.738-2.8143.1126-.1626.2253-.3254.3377-.5004 1.9763-2.8895 3.5023-6.0664 3.5023-6.0664s.1501.9756.6129 2.5767c.2375.813.713 1.7012 1.1382 2.5768-1.8512 1.5135-3.0144 3.2646-3.4147 4.4154-.738 2.1264-.1626 3.0895.9256 3.3146.4877.1001 1.1883-.1251 1.7135-.3502.6504-.2126 1.4385-.5755 2.1641-1.1132 1.2508-.9256 2.4516-2.214 2.389-3.9526-.0375-.8005-.2501-1.5886-.5378-2.339 1.576-.6505 3.6147-1.0257 6.204-.713 5.5662.6504 6.6669 4.1277 6.4544 5.5786-.2127 1.4511-1.3759 2.2515-1.7638 2.5017-.3878.2376-.5129.3253-.4753.5003.05.2628.2251.2502.5628.2003.4628-.0752 2.927-1.1883 3.027-3.8649.1501-3.4403-3.1145-7.1928-8.9058-7.1554zm-42.9281 14.472c-1.8387 2.0138-4.42786 2.7768-5.52858 2.1264-1.18828-.6879-.7256-3.6524 1.5385-5.7913 1.3759-1.3008 3.16458-2.5016 4.34038-3.2396.2626-.1626.6629-.4001 1.1382-.6879.0751-.05.1251-.0751.1251-.0751.0875-.05.1876-.1126.2877-.1751.838 3.052.0375 5.7287-1.9013 7.8426zm13.4463-9.1435c-.6379 1.5636-1.9888 5.5787-2.8018 5.3535-.7006-.1876-1.1257-3.2271-.1377-6.229.5003-1.5137 1.5635-3.3147 2.1889-4.0153 1.0133-1.1257 2.1139-1.501 2.3892-1.0382.3252.6005-1.2383 4.9534-1.6386 5.929zm11.0948 5.3035c-.2752.1377-.5254.2377-.6379.1627-.0876-.05.1124-.2376.1124-.2376s1.3884-1.4885 1.9388-2.1764c.3127-.4002.6879-.863 1.0882-1.3885v.1501c.0001 1.8011-1.726 3.0019-2.5015 3.4897zm8.5554-1.9513c-.2001-.1501-.1749-.6129.5004-2.0638.2628-.5754.863-1.5385 1.9012-2.4516.1251.3752.2003.7378.1876 1.0757-.0123 2.2515-1.6134 3.0895-2.5892 3.4397z" fill="#adb5bd"/></svg>