<svg height="24" viewBox="0 0 24 24" width="24" xmlns="http://www.w3.org/2000/svg"><g fill="none" fill-rule="evenodd"><path d="m0 0h24v24h-24z" opacity="0"/><g fill="#000"><path d="m9.61764706 5-.88235294 2h-5.73529412c-.55228475 0-1-.44771525-1-1s.44771525-1 1-1zm4.76470584 0h6.6176471c.5522847 0 1 .44771525 1 1s-.4477153 1-1 1h-5.7352941zm-8.29411761 8-.88235294 2h-2.20588235c-.55228475 0-1-.4477153-1-1s.44771525-1 1-1zm11.82352941 0h3.0882353c.5522847 0 1 .4477153 1 1s-.4477153 1-1 1h-2.2058824zm-10.05882352-4-.88235294 2h-3.97058824c-.55228475 0-1-.4477153-1-1 0-.55228475.44771525-1 1-1zm8.29411762 0h4.8529412c.5522847 0 1 .44771525 1 1 0 .5522847-.4477153 1-1 1h-3.9705882zm-11.82352939 8-.88235294 2h-.44117647c-.55228475 0-1-.4477153-1-1s.44771525-1 1-1zm15.35294119 0h1.3235294c.5522847 0 1 .4477153 1 1s-.4477153 1-1 1h-.4411765z" opacity=".3"/><path d="m11.044 5.256h1.962l5.494 13.744h-2.5l-1.284-3.916h-5.526l-1.69 3.916h-2.5zm2.88 7.884-1.962-5.184-1.998 5.184z"/></g></g></svg>