<svg height="24" viewBox="0 0 24 24" width="24" xmlns="http://www.w3.org/2000/svg"><g fill="none" fill-rule="evenodd"><path d="m0 0h24v24h-24z" opacity="0"/><g fill="#000"><path d="m5 5h14c.5522847 0 1 .44771525 1 1s-.4477153 1-1 1h-14c-.55228475 0-1-.44771525-1-1s.44771525-1 1-1zm0 8h14c.5522847 0 1 .4477153 1 1s-.4477153 1-1 1h-14c-.55228475 0-1-.4477153-1-1s.44771525-1 1-1z" opacity=".3"/><path d="m8 9h8c.5522847 0 1 .44771525 1 1 0 .5522847-.4477153 1-1 1h-8c-.55228475 0-1-.4477153-1-1 0-.55228475.44771525-1 1-1zm0 8h8c.5522847 0 1 .4477153 1 1s-.4477153 1-1 1h-8c-.55228475 0-1-.4477153-1-1s.44771525-1 1-1z"/></g></g></svg>