<svg height="24" viewBox="0 0 24 24" width="24" xmlns="http://www.w3.org/2000/svg"><g fill="none" fill-rule="evenodd"><path d="m0 0h24v24h-24z" opacity="0"/><g fill="#000"><rect height="3" rx="1.5" width="16" x="4" y="5"/><path d="m5.5 15h13c.8284271 0 1.5.6715729 1.5 1.5s-.6715729 1.5-1.5 1.5h-13c-.82842712 0-1.5-.6715729-1.5-1.5s.67157288-1.5 1.5-1.5zm0-5h7c.8284271 0 1.5.6715729 1.5 1.5s-.6715729 1.5-1.5 1.5h-7c-.82842712 0-1.5-.6715729-1.5-1.5s.67157288-1.5 1.5-1.5z" opacity=".3"/></g></g></svg>