<svg height="24" viewBox="0 0 24 24" width="24" xmlns="http://www.w3.org/2000/svg"><g fill="none" fill-rule="evenodd"><path d="m0 0h24v24h-24z" opacity="0"/><g fill="#000"><path d="m1.634 19v-13.49h1.729v5.757h7.448v-5.757h1.729v13.49h-1.729v-6.061h-7.448v6.061z"/><path d="m14.649 19 5.225-5.681c-.228.038-.399.057-.627.057-2.299-.057-3.914-1.824-3.914-3.971 0-2.28 1.786-4.047 4.085-4.047s4.104 1.767 4.104 4.047c0 1.596-.703 2.85-2.337 4.617l-3.116 3.458h5.453v1.52zm4.769-7.049c1.444 0 2.489-1.083 2.489-2.546 0-1.444-1.045-2.546-2.489-2.546-1.463 0-2.47 1.102-2.47 2.546 0 1.463 1.007 2.546 2.47 2.546z" opacity=".3"/></g></g></svg>