<svg height="24" viewBox="0 0 24 24" width="24" xmlns="http://www.w3.org/2000/svg"><g fill="none" fill-rule="evenodd"><path d="m0 0h24v24h-24z" opacity="0"/><g fill="#000"><rect height="2" opacity=".3" rx="1" width="17" x="4" y="11"/><path d="m12.06 19.16c-2.06 0-3.78-1-4.62-2.2l1.38-1.2c.68.88 1.84 1.66 3.22 1.66 1.64 0 2.68-.76 2.68-2 0-1.3-.8-1.98-2.32-2.64l-1.3-.56c-2.16-.92-3.1-2.24-3.1-4.02 0-2.16 2.04-3.56 4.14-3.56 1.66 0 3.02.66 3.98 1.82l-1.28 1.28c-.74-.88-1.52-1.36-2.76-1.36-1.2 0-2.26.68-2.26 1.86 0 1.04.6 1.74 2.1 2.4l1.3.56c1.92.84 3.34 2.02 3.34 4.02 0 2.32-1.72 3.94-4.5 3.94z"/></g></g></svg>