<svg height="24" viewBox="0 0 24 24" width="24" xmlns="http://www.w3.org/2000/svg"><g fill="none" fill-rule="evenodd"><path d="m0 0h24v24h-24z" opacity="0"/><g fill="#000"><path d="m13.5 4v10c0 .5522847-.4477153 1-1 1h-1c-.5522847 0-1-.4477153-1-1v-10h-3.5c-.55228475 0-1-.44771525-1-1v-1c0-.55228475.44771525-1 1-1h10c.5522847 0 1 .44771525 1 1v1c0 .55228475-.4477153 1-1 1z" opacity=".3"/><path d="m6.41421356 20 1.29289322 1.2928932c.39052429.3905243.39052429 1.0236893 0 1.4142136s-1.02368927.3905243-1.41421356 0l-3-3c-.39052429-.3905243-.39052429-1.0236893 0-1.4142136l3-3c.39052429-.3905243 1.02368927-.3905243 1.41421356 0s.39052429 1.0236893 0 1.4142136l-1.29289322 1.2928932h11.17157284l-1.2928932-1.2928932c-.3905243-.3905243-.3905243-1.0236893 0-1.4142136s1.0236893-.3905243 1.4142136 0l3 3c.3905243.3905243.3905243 1.0236893 0 1.4142136l-3 3c-.3905243.3905243-1.0236893.3905243-1.4142136 0s-.3905243-1.0236893 0-1.4142136l1.2928932-1.2928932z"/></g></g></svg>