<svg height="24" viewBox="0 0 24 24" width="24" xmlns="http://www.w3.org/2000/svg"><g fill="none" fill-rule="evenodd"><path d="m0 0h24v24h-24z" opacity="0"/><path d="m21.4451171 17.7910156c0-.8203125.1757813-4.0576172-2.3779297-6.6259765-1.71875-1.72851566-4.2910156-2.02832035-7.3671875-2.1650391v-4.30692452c0-.41421357-.3357864-.75-.75-.75-.1863102 0-.3659509.06934487-.5039373.19452978l-7.14006582 6.47765734c-.30677773.2783169-.32984978.7526298-.05153288 1.0594076.01460809.0161019.02990941.031561.04586062.0463335l7.14006578 6.6124633c.3039063.2814496.7784309.263245 1.0598805-.0406613.1283982-.1386429.1997291-.3206441.1997291-.5096096v-4.2831961c1.953125.0537109 3.3443704.1779456 4.6083985.5800781 1.8200288.5790163 3.2265763 2.2217674 4.2196427 4.9282533l-.0000164.000006c.1083656.2953375.3895249.4916626.7041157.4916626h.2178595c0-.4931641-.0048828-1.2744141-.0048828-1.7089844z" fill="#000" fill-rule="nonzero"/></g></svg>