<svg enable-background="new 0 0 512.001 512.001" viewBox="0 0 512.001 512.001" xmlns="http://www.w3.org/2000/svg"><path d="m503.172 423.725h-494.344c-4.875 0-8.828-3.953-8.828-8.828v-317.793c0-4.875 3.953-8.828 8.828-8.828h494.345c4.875 0 8.828 3.953 8.828 8.828v317.793c-.001 4.876-3.954 8.828-8.829 8.828z" fill="#41479b"/><g fill="#ffe15a"><path d="m259.59 126.686 3.54 10.613 11.187.087c1.449.011 2.049 1.859.884 2.72l-9 6.646 3.374 10.666c.437 1.38-1.135 2.524-2.314 1.681l-9.101-6.506-9.101 6.506c-1.178.842-2.751-.3-2.314-1.681l3.374-10.666-9-6.646c-1.165-.861-.565-2.709.884-2.72l11.187-.087 3.54-10.613c.457-1.374 2.402-1.374 2.86 0z"/><path d="m259.59 354.548 3.54 10.613 11.187.087c1.449.011 2.049 1.859.884 2.72l-9 6.646 3.374 10.666c.437 1.38-1.135 2.524-2.314 1.681l-9.101-6.506-9.101 6.506c-1.178.842-2.751-.3-2.314-1.681l3.374-10.666-9-6.646c-1.165-.861-.565-2.709.884-2.72l11.187-.087 3.54-10.613c.457-1.374 2.402-1.374 2.86 0z"/><path d="m373.521 240.617 3.54 10.613 11.187.087c1.449.011 2.049 1.859.884 2.72l-9 6.646 3.374 10.666c.437 1.38-1.135 2.524-2.314 1.681l-9.101-6.506-9.101 6.506c-1.178.842-2.751-.3-2.314-1.681l3.374-10.666-9-6.646c-1.165-.861-.565-2.709.884-2.72l11.187-.087 3.54-10.613c.457-1.374 2.402-1.374 2.86 0z"/><path d="m145.658 240.617 3.54 10.613 11.187.087c1.449.011 2.049 1.859.884 2.72l-9 6.646 3.374 10.666c.437 1.38-1.135 2.524-2.314 1.681l-9.101-6.506-9.101 6.506c-1.178.842-2.751-.3-2.314-1.681l3.374-10.666-9-6.646c-1.165-.861-.565-2.709.884-2.72l11.187-.087 3.54-10.613c.458-1.374 2.403-1.374 2.86 0z"/><path d="m162.762 181.121 3.54 10.613 11.187.087c1.449.011 2.049 1.859.884 2.72l-9 6.646 3.374 10.666c.437 1.38-1.135 2.524-2.314 1.681l-9.101-6.506-9.101 6.506c-1.178.842-2.751-.3-2.314-1.681l3.374-10.666-9-6.646c-1.165-.861-.565-2.709.884-2.72l11.187-.087 3.54-10.613c.458-1.374 2.401-1.374 2.86 0z"/><path d="m360.096 295.052 3.54 10.613 11.187.087c1.449.011 2.049 1.859.884 2.72l-9 6.646 3.374 10.666c.437 1.38-1.135 2.524-2.314 1.681l-9.101-6.506-9.101 6.506c-1.178.842-2.751-.3-2.314-1.681l3.374-10.666-9-6.646c-1.165-.861-.565-2.709.884-2.72l11.187-.087 3.54-10.613c.458-1.374 2.402-1.374 2.86 0z"/><path d="m318.395 139.419 3.54 10.613 11.187.087c1.449.011 2.049 1.859.884 2.72l-9 6.646 3.374 10.666c.437 1.38-1.135 2.524-2.314 1.681l-9.101-6.506-9.101 6.506c-1.178.842-2.751-.3-2.314-1.681l3.374-10.666-9-6.646c-1.165-.861-.565-2.709.884-2.72l11.187-.087 3.54-10.613c.457-1.374 2.4-1.374 2.86 0z"/><path d="m204.463 336.754 3.54 10.613 11.187.087c1.449.011 2.049 1.859.884 2.72l-9 6.646 3.374 10.666c.437 1.38-1.135 2.524-2.314 1.681l-9.101-6.506-9.101 6.506c-1.178.842-2.751-.3-2.314-1.681l3.374-10.666-9-6.646c-1.165-.861-.565-2.709.884-2.72l11.187-.087 3.54-10.613c.458-1.374 2.401-1.374 2.86 0z"/><path d="m357.236 181.121-3.54 10.613-11.187.087c-1.449.011-2.049 1.859-.884 2.72l9 6.646-3.374 10.666c-.437 1.38 1.135 2.524 2.314 1.681l9.101-6.506 9.101 6.506c1.178.842 2.751-.3 2.314-1.681l-3.374-10.666 9-6.646c1.165-.861.565-2.709-.884-2.72l-11.187-.087-3.54-10.613c-.458-1.374-2.402-1.374-2.86 0z"/><path d="m159.902 295.052-3.54 10.613-11.187.087c-1.449.011-2.049 1.859-.884 2.72l9 6.646-3.374 10.666c-.437 1.38 1.135 2.524 2.314 1.681l9.101-6.506 9.101 6.506c1.178.842 2.751-.3 2.314-1.681l-3.374-10.666 9-6.646c1.165-.861.565-2.709-.884-2.72l-11.187-.087-3.54-10.613c-.459-1.374-2.402-1.374-2.86 0z"/><path d="m201.603 139.419-3.54 10.613-11.187.087c-1.449.011-2.049 1.859-.884 2.72l9 6.646-3.374 10.666c-.437 1.38 1.135 2.524 2.314 1.681l9.101-6.506 9.101 6.506c1.178.842 2.751-.3 2.314-1.681l-3.374-10.666 9-6.646c1.165-.861.565-2.709-.884-2.72l-11.187-.087-3.54-10.613c-.459-1.374-2.402-1.374-2.86 0z"/><path d="m315.534 336.754-3.54 10.613-11.187.087c-1.449.011-2.049 1.859-.884 2.72l9 6.646-3.374 10.666c-.437 1.38 1.135 2.524 2.314 1.681l9.101-6.506 9.101 6.506c1.178.842 2.751-.3 2.314-1.681l-3.374-10.666 9-6.646c1.165-.861.565-2.709-.884-2.72l-11.187-.087-3.54-10.613c-.459-1.374-2.402-1.374-2.86 0z"/></g></svg>