<svg height="24" viewBox="0 0 24 24" width="24" xmlns="http://www.w3.org/2000/svg"><g fill="none" fill-rule="evenodd"><path d="m0 0h24v24h-24z" opacity="0"/><g fill="#000"><path d="m22 7v2h-3c-.5522847 0-1 .44771525-1 1v3c0 .5522847.4477153 1 1 1h3v2h-3c-1.6568542 0-3-1.3431458-3-3v-3c0-1.65685425 1.3431458-3 3-3z" fill-rule="nonzero" opacity=".3" transform="matrix(-1 0 0 1 38 0)"/><path d="m4.75777452 5c.80726134-1.20598574 2.18201743-2 3.74222548-2 1.5602081 0 2.9349641.79401426 3.7422255 2z" opacity=".3"/><path d="m7 5c0-2.209139 1.790861-4 4-4s4 1.790861 4 4z" opacity=".3"/><path d="m12.0500091 5c.2316351-1.14112016 1.2405119-2 2.4499909-2s2.2183558.85887984 2.4499909 2z" opacity=".3"/><path d="m8 8c.55228475 0 1 .44771525 1 1v9c0 .5522847-.44771525 1-1 1-.55228475 0-1-.4477153-1-1v-9c0-.55228475.44771525-1 1-1zm5 0c.5522847 0 1 .44771525 1 1v9c0 .5522847-.4477153 1-1 1-.5522847 0-1-.4477153-1-1v-9c0-.55228475.4477153-1 1-1zm-8.93944786-3h12.87889576c.5522847 0 1 .44771525 1 1 0 .01958668-.0005755.03916914-.0017257.05872202l-.8269836 14.05872198c-.0621839 1.0571253-.9375961 1.882556-1.9965488 1.882556h-9.22837964c-1.05895262 0-1.93436491-.8254307-1.99654875-1.882556l-.82698364-14.05872198c-.03243128-.55133171.38822063-1.02456512.93955235-1.05699639.01955288-.00115017.03913534-.00172563.05872202-.00172563z"/></g></g></svg>