<svg height="24" viewBox="0 0 24 24" width="24" xmlns="http://www.w3.org/2000/svg"><g fill="none" fill-rule="evenodd"><path d="m0 0h24v24h-24z" opacity="0"/><g fill="#000"><path d="m8 18v4c0 .5522847.44771525 1 1 1h6c.5522847 0 1-.4477153 1-1v-11.5857864c0-.2652165-.1053568-.51957044-.2928932-.70710682l-1.4142136-1.41421356c-.1875364-.18753638-.2928932-.44189029-.2928932-.70710678v-2.58578644c0-.55228475-.4477153-1-1-1h-2c-.5522847 0-1 .44771525-1 1v2.58578644c0 .26521649-.10535684.5195704-.29289322.70710678l-1.41421356 1.41421356c-.18753638.18753638-.29289322.44189032-.29289322.70710682v2.5857864h4v5z"/><rect height="2" opacity=".3" rx="1" width="4" x="10" y="1"/></g></g></svg>