<svg height="24" viewBox="0 0 24 24" width="24" xmlns="http://www.w3.org/2000/svg"><g fill="none" fill-rule="evenodd"><path d="m0 0h24v24h-24z" opacity="0"/><g fill="#000"><path d="m6.2 9.73333333 2.5-3.33333333c.18885438-.25180584.4852427-.4.8-.4h5c.3147573 0 .6111456.14819416.8.4l2.5 3.33333333c.1298221.17309617.2.38362977.2.59999997v10.6666667c0 1.1045695-.8954305 2-2 2h-8c-1.1045695 0-2-.8954305-2-2v-10.6666667c0-.2163702.07017787-.4269038.2-.59999997zm2.8 2.26666667c-.55228475 0-1 .4477153-1 1v7c0 .5522847.44771525 1 1 1h1c.5522847 0 1-.4477153 1-1v-7c0-.5522847-.4477153-1-1-1z"/><rect height="3" opacity=".3" rx="1" width="6" x="9" y="1"/></g></g></svg>