<svg height="24" viewBox="0 0 24 24" width="24" xmlns="http://www.w3.org/2000/svg"><g fill="none" fill-rule="evenodd"><path d="m0 0h24v24h-24z" opacity="0"/><g fill="#000"><path d="m21 10.6631844v8.3368156c0 1.1045695-.8954305 2-2 2h-10c-1.1045695 0-2-.8954305-2-2v-8.3368156c-1.18247367-.5617319-2-1.76698642-2-3.1631844 0-1.93299662 1.56700338-3.5 3.5-3.5h11c1.9329966 0 3.5 1.56700338 3.5 3.5 0 1.39619798-.8175263 2.6014525-2 3.1631844z" opacity=".3"/><path d="m17 10.6631844v8.3368156c0 1.1045695-.8954305 2-2 2h-10c-1.1045695 0-2-.8954305-2-2v-8.3368156c-1.18247367-.5617319-2-1.76698642-2-3.1631844 0-1.93299662 1.56700338-3.5 3.5-3.5h11c1.9329966 0 3.5 1.56700338 3.5 3.5 0 1.39619798-.8175263 2.6014525-2 3.1631844z"/></g></g></svg>