<svg height="24" viewBox="0 0 24 24" width="24" xmlns="http://www.w3.org/2000/svg"><g fill="none" fill-rule="evenodd"><path d="m0 0h24v24h-24z" opacity="0"/><g fill="#000"><rect height="3" opacity=".3" rx="1" width="10" x="7" y="1"/><path d="m9.32225611 6h5.35548779c2.7614237 0 5 2.23857625 5 5 0 .1040398-.0032473.2080542-.0097371.3118914l-.5508041 8.8128652c-.0658794 1.0540698-.9399786 1.8752434-1.9961051 1.8752434h-10.24219516c-1.05612656 0-1.93022579-.8211736-1.99610515-1.8752434l-.55080408-8.8128652c-.17225288-2.75604606 1.92232537-5.12990141 4.67837147-5.30215429.10383718-.00648983.20785163-.00973711.31189143-.00973711zm-.32225611 3c-1.1045695 0-2 .8954305-2 2v1c0 1.1045695.8954305 2 2 2h6c1.1045695 0 2-.8954305 2-2v-1c0-1.1045695-.8954305-2-2-2z"/></g></g></svg>