<svg height="24" viewBox="0 0 24 24" width="24" xmlns="http://www.w3.org/2000/svg"><g fill="none" fill-rule="evenodd"><path d="m0 0h24v24h-24z" opacity="0"/><g fill="#000"><path d="m15 15 .9974233 1.1399123c.3636821.4156367.9954447.4577542 1.4110813.0940721.0334108-.0292344.0648377-.0606613.0940721-.0940721l.9974233-1.1399123h2.5c-.5814574 2.9072868-3.134157 5-6.0990195 5h-5.80196099c-2.96486247 0-5.51756214-2.0927132-6.09901951-5z"/><path d="m21 9h-18c.58145737-2.90728684 3.13415704-5 6.09901951-5h5.80196099c2.9648625 0 5.5175621 2.09271316 6.0990195 5z"/><rect height="2" opacity=".3" rx="1" width="20" x="2" y="11"/></g></g></svg>