<svg height="24" viewBox="0 0 24 24" width="24" xmlns="http://www.w3.org/2000/svg"><g fill="none" fill-rule="evenodd"><path d="m0 0h24v24h-24z" opacity="0"/><g fill="#000"><path d="m13 11h4c2.0758626 0 3.7823939 1.5812954 3.980747 3.6050394l-.6878538.6878538c-1.1601164 1.1601164-2.2540971 1.7071068-3.2928932 1.7071068-.4779704 0-.8119336-.1481786-1.4351402-.598012-.0604738-.0436502-.1396238-.1014835-.2891881-.2107241-1.1394836-.8287153-1.9703241-1.1912639-3.2756717-1.1912639-1.2822269 0-2.12105508.3373247-3.41994169 1.1531954-.15272976.0961665-.22928209.1443225-.29868103.1875272-.78219606.4869602-1.21607471.6592774-1.78137728.6592774-.6727915 0-1.31853159-.2828503-1.91460893-.7726326-.37413305-.307416-.63816733-.6138239-.76002213-.7919612-.24013789-.3030172-.32765244-.4134471-.78743323-.988551.26937449-1.9473596 1.94060641-3.4468552 3.96206429-3.4468552h4v-2h2z"/><path d="m12 7c1.1045695 0 2-.8954305 2-2 0-.73637967-.6666667-1.73637967-2-3-1.3333333 1.26362033-2 2.26362033-2 3 0 1.1045695.8954305 2 2 2z" opacity=".3"/><path d="m21 17.3570374v3.6429626c0 .5522847-.4477153 1-1 1h-16c-.55228475 0-1-.4477153-1-1v-3.5023254c.098145.0905958.2035241.1827988.31568417.274958.92520401.7602177 1.99169511 1.2273674 3.18431583 1.2273674 1.02608715 0 1.76628185-.2939723 2.83838848-.9614178.07404186-.0460951.1553847-.0972646.30547797-.1917776 1.00727495-.6327004 1.53968965-.8468046 2.35613355-.8468046.7988191 0 1.2700619.2056332 2.0993283.8087361.1438031.1050451.2289104.1672313.2949956.2149318.9329937.6734391 1.6156502.9763321 2.6056761.9763321 1.3748985 0 2.7104312-.5609363 4-1.6429626z" opacity=".3"/></g></g></svg>