<svg height="24" viewBox="0 0 24 24" width="24" xmlns="http://www.w3.org/2000/svg"><g fill="none" fill-rule="evenodd"><path d="m0 0h24v24h-24z" opacity="0"/><g fill="#000"><path d="m14.3724866.19082253c-3.0572917 5.22238163-3.0572917 9.04591104 0 11.47058827 2.9322916-2.42467723 2.9322916-6.24820664 0-11.47058827z" opacity=".3" transform="matrix(.96592583 .25881905 .25881905 -.96592583 -1.045659 7.942565)"/><path d="m17.5544671 3.37280304c-3.0572917 5.22238164-3.0572917 9.04591106 0 11.47058826 2.9322917-2.4246772 2.9322917-6.24820662 0-11.47058826z" opacity=".3" transform="matrix(.25881905 .96592583 -.96592583 .25881905 21.77404 -10.160287)"/><path d="m15.9634768 1.78181278c-3.0572916 5.22238164-3.0572916 9.04591102 0 11.47058822 2.9322917-2.4246772 2.9322917-6.24820658 0-11.47058822z" opacity=".3" transform="matrix(.70710678 .70710678 -.70710678 .70710678 9.977262 -9.053028)"/><path d="m2.57844233 17.5134712.28982969.2898297c.39052429.3905243 1.02368927.3905243 1.41421356 0s.39052429-1.0236893 0-1.4142136l-.69116262-.6911626 1.01288063-1.8155465 1.09249555 1.0924955c.39052429.3905243 1.02368927.3905243 1.41421356 0 .3905243-.3905243.3905243-1.0236892 0-1.4142135l-1.41421356-1.4142136c-.02649754-.0264975-.05411215-.0511972-.08269224-.0740989l1.01595795-1.8210625 1.89516142 1.8951614c.39052429.3905243 1.02368927.3905243 1.41421356 0 .39052427-.3905243.39052427-1.0236893 0-1.4142136l-2.12132035-2.1213203c-.05838291-.05838291-.12218882-.10803765-.18979625-.14896421l.24454111-.4383298c.53814845-.96460875 1.75637385-1.31032313 2.72098256-.77217469.1612422.08995587.309251.20180648.4398096.33236508l4.8826951 4.88269502c.7810485.7810486.7810485 2.0473785 0 2.8284271-.1305586.1305586-.2785675.2424092-.4398096.3323651l-12.00769113 6.6990065c-.65870226.3674853-1.48130754.2530236-2.0146621-.2803309-.53335455-.5333546-.64781627-1.3559599-.28033091-2.0146621z"/></g></g></svg>