<svg height="24" viewBox="0 0 24 24" width="24" xmlns="http://www.w3.org/2000/svg"><g fill="none" fill-rule="evenodd"><path d="m0 0h24v24h-24z" opacity="0"/><g fill="#000"><path d="m22 13.9146471v5.0853529c0 1.1045695-.8954305 2-2 2h-6c0-1.1045695-.8954305-2-2-2s-2 .8954305-2 2h-6c-1.1045695 0-2-.8954305-2-2v-12h20v4.0853529c-.1563895-.0552758-.3246823-.0853529-.5-.0853529-.8284271 0-1.5.6715729-1.5 1.5s.6715729 1.5 1.5 1.5c.1753177 0 .3436105-.0300771.5-.0853529zm-13 3.0853529c2.209139 0 4-1.790861 4-4s-1.790861-4-4-4-4 1.790861-4 4 1.790861 4 4 4zm9 1c.5522847 0 1-.4477153 1-1s-.4477153-1-1-1-1 .4477153-1 1 .4477153 1 1 1zm-13 3c.55228475 0 1-.4477153 1-1s-.44771525-1-1-1-1 .4477153-1 1 .44771525 1 1 1z"/><path d="m19.5954729 5.83476152-14.98663372-1.76313338c-.37358657-.04395136-.74023382.12546383-.94889154.43845041l-1.65994764 2.48992145h20c-.647706-.64770604-1.4948064-1.05821252-2.4045271-1.16523848z" opacity=".3"/></g></g></svg>