<svg height="24" viewBox="0 0 24 24" width="24" xmlns="http://www.w3.org/2000/svg"><g fill="none" fill-rule="evenodd"><path d="m0 0h24v24h-24z" opacity="0"/><g fill="#000" transform="matrix(.70710678 .70710678 -.70710678 .70710678 15.181981 -.581475)"><path d="m7 0c3.2482778 0 5.8815273 2.63324947 5.8815273 5.88152731 0 .59494605-.0902697 1.18644841-.2677272 1.75431251l-1.7189751 5.50072028c-.5323556 1.7035379-2.11004381 2.8634399-3.894825 2.8634399-1.78478119 0-3.36246938-1.159902-3.89482498-2.8634399l-1.71897507-5.50072028c-.96888005-3.10041615.75907137-6.39923252 3.85948753-7.36811257.5678641-.17745753 1.15936646-.26772725 1.75431252-.26772725z"/><path d="m5.5 20.0853529v-2.0853529h3v2.0853529c.58259619.2059182 1 .7615377 1 1.4146471 0 .8284271-.67157288 1.5-1.5 1.5-.38417722 0-.73462175-.1444268-1-.3819467-.26537825.2375199-.61582278.3819467-1 .3819467-.82842712 0-1.5-.6715729-1.5-1.5 0-.6531094.41740381-1.2087289 1-1.4146471z" opacity=".3"/></g></g></svg>