<svg height="24" viewBox="0 0 24 24" width="24" xmlns="http://www.w3.org/2000/svg"><g fill="none" fill-rule="evenodd"><path d="m0 0h24v24h-24z" opacity="0"/><g fill="#000"><path d="m8 4h13c.5522847 0 1 .44771525 1 1v11c0 2.209139-1.790861 4-4 4h-7c-2.209139 0-4-1.790861-4-4v-11c0-.55228475.44771525-1 1-1z" opacity=".3"/><path d="m7 7v2h-2c-.55228475 0-1 .44771525-1 1v2c0 .5522847.44771525 1 1 1h2v2h-2c-1.65685425 0-3-1.3431458-3-3v-2c0-1.65685425 1.34314575-3 3-3z" fill-rule="nonzero"/><rect height="8" opacity=".3" rx="1" width="2" x="18" y="7"/></g></g></svg>