<svg height="24" viewBox="0 0 24 24" width="24" xmlns="http://www.w3.org/2000/svg"><g fill="none" fill-rule="evenodd"><path d="m0 0h24v24h-24z" opacity="0"/><g fill="#000"><path d="m12 20.6599888-2.53559301-.024552-2.14635044-1.3501906-2.11980272-1.3914996-1.07565676-2.2962572-1.03099005-2.3166559.33655034-2.5132784.38515468-2.50629022 1.64190508-1.93235153 1.67901552-1.90019515 2.42596656-.73791664 2.4398008-.69080156 2.4398008.69080156 2.4259666.73791664 1.6790155 1.90019515 1.6419051 1.93235153.3851546 2.50629022.3365504 2.5132784-1.0309901 2.3166559-1.0756567 2.2962572-2.1198028 1.3914996-2.1463504 1.3501906z" opacity=".3"/><circle cx="8.5" cy="13.5" opacity=".3" r="1.5"/><circle cx="13.5" cy="7.5" opacity=".3" r="1.5"/><circle cx="14.5" cy="15.5" opacity=".3" r="1.5"/></g></g></svg>