<svg height="24" viewBox="0 0 24 24" width="24" xmlns="http://www.w3.org/2000/svg"><g fill="none" fill-rule="evenodd"><path d="m0 0h24v24h-24z" opacity="0"/><g fill="#000"><path d="m7.22298453 10.4937704c.22349501-.0013466.44705339.0102241.66945921.0347123.06163967.5598217.04143603 1.1269459-.06061089 1.6819805.10204692.5550347.12225056 1.1221588.06061089 1.6819805-.22240582.0244882-.4459642.036059-.66945921.0347123-.25743662.4707613-.58544948.9132008-.98403859 1.3117899-1.28717838 1.2871784-3.03165628 1.8383444-4.71046323 1.6534978-.18348663-1.6664562.35824958-3.3976207 1.62520864-4.6819805-1.26695906-1.2843598-1.80869527-3.01552424-1.62520864-4.68198049 1.67880695-.18484651 3.42328485.36631942 4.71046323 1.65349781.39858911.3985891.72660197.84102868.98403859 1.31178988z" opacity=".3"/><path d="m14 6c3.8133397 0 7.2112391 3.14927651 9.4092875 6.5952475-2.1980484 3.255476-5.5959478 6.4047525-9.4092875 6.4047525s-7.2112391-3.1492765-9.40928749-6.4047525c2.19804839-3.44597099 5.59594779-6.5952475 9.40928749-6.5952475zm6 7c.5522847 0 1-.4477153 1-1s-.4477153-1-1-1-1 .4477153-1 1 .4477153 1 1 1z"/></g></g></svg>