<svg height="24" viewBox="0 0 24 24" width="24" xmlns="http://www.w3.org/2000/svg"><g fill="none" fill-rule="evenodd"><path d="m0 0h24v24h-24z" opacity="0"/><path d="m11.19545 6.19223206c.0987009.07360764.2127461.13009674.3389247.16390619l3.2686684.87583707c.5334661.14294181 1.0818031-.17364068 1.2247449-.70710678s-.1736407-1.08180306-.7071068-1.22474487l-2.0931279-.56085194c3.2678888-2.07744534 6.2603371-2.72194413 7.6112815-1.37099971 1.9526214 1.95262146-.263456 7.33452378-4.9497475 12.02081528s-10.06819382 6.9023689-12.02081528 4.9497475c-1.24278477-1.2427848-.79685495-3.8747504.89986897-6.8323757.02162431.0074035.04364926.0141228.06605685.0201269l2.89777748.7764571c.5334661.1429418 1.08180306-.1736406 1.22474487-.7071067.14294181-.5334662-.17364067-1.0818031-.70710678-1.2247449l-2.34626551-.62868c.47165494-.6619859.99840528-1.3295397 1.57574829-1.99172614.01777806.00583994.03582107.01121988.05411925.01612286l3.73429376 1.00060098c.5334661.1429418 1.0818031-.1736407 1.2247449-.7071068.1429418-.53346606-.1736407-1.08180301-.7071068-1.22474483l-2.74651946-.73592767c.70931627-.6944676 1.43296196-1.33223757 2.15682216-1.90749784z" fill="#000"/></g></svg>