<svg height="24" viewBox="0 0 24 24" width="24" xmlns="http://www.w3.org/2000/svg"><g fill="none" fill-rule="evenodd"><path d="m0 0h24v24h-24z" opacity="0"/><g fill="#000"><path d="m13 19.4 3.6856953 1.4742781c.1898292.0759317.3143047.2597861.3143047.4642384v.1614835c0 .2761424-.2238576.5-.5.5h-9c-.27614237 0-.5-.2238576-.5-.5v-.1614835c0-.2044523.12447547-.3883067.31430466-.4642384l3.68569534-1.4742781v-5.9h2z" opacity=".3"/><path d="m13.2493901 13.9609566c-.8625239.6900191-2.1211086.5501763-2.8111277-.3123476l-6.56925319-8.21156643c-.21277566-.26596957-.32869679-.59643533-.32869679-.93704257 0-.82842712.67157288-1.5 1.5-1.5h13.91937518c.3406072 0 .671073.11592113.9370425.32869679.646893.51751432.751775 1.46145288.2342607 2.10834578l-6.5692532 8.21156643c-.0922635.1153294-.1970181.220084-.3123475.3123476zm-7.16876525-8.9609566 2.41937515 3.01229084h7l2.4193752-3.01229084z" fill-rule="nonzero"/></g></g></svg>