<svg height="24" viewBox="0 0 24 24" width="24" xmlns="http://www.w3.org/2000/svg"><g fill="none" fill-rule="evenodd"><path d="m0 0h24v24h-24z" opacity="0"/><g fill="#000"><path d="m12.2016388 22.0491816 4.2983612-9.0491816h-9.5l4.2983612 9.0491816c.1184808.2494332.416734.3555911.6661672.2371103.1039736-.0493875.1877229-.1331367.2371104-.2371103z" opacity=".3"/><path d="m17 6h.5c1.3807119 0 2.5 1.11928813 2.5 2.5s-1.1192881 2.5-2.5 2.5h-11c-1.38071187 0-2.5-1.11928813-2.5-2.5s1.11928813-2.5 2.5-2.5h.5c0-2.76142375 2.23857625-5 5-5 2.7614237 0 5 2.23857625 5 5z"/></g></g></svg>