<svg height="24" viewBox="0 0 24 24" width="24" xmlns="http://www.w3.org/2000/svg"><g fill="none" fill-rule="evenodd"><path d="m0 0h24v24h-24z" opacity="0"/><g fill="#000"><path d="m2 14h20c0 4.9705627-4.0294373 9-9 9h-2c-4.97056275 0-9-4.0294373-9-9z"/><path d="m16.7233675 1.41763641c.4612381.26629597.61927.85607888.352974 1.31731702-.0058345.01010562-.0118519.0201045-.0180493.02999171l-6.5203363 10.40243066c-.148193.2364246-.4569159.3131694-.69856301.1736544-.2416471-.139515-.3295456-.4452493-.19889243-.6918005l5.74860104-10.84799225c.2493812-.47059878.8330402-.64993111 1.303639-.40054997.0103107.00546388.0205214.01111445.030627.01694893zm5.1534923 2.79901917c.3563735.39579293.3244178 1.00554435-.0713751 1.3619179-.0086717.00780806-.0174845.01545808-.0264339.02294628l-9.4157361 7.87840474c-.2139992.179059-.5313276.156647-.7180351-.0507127-.1867076-.2073598-.1758269-.5252925.0246202-.7194026l8.8194584-8.54063822c.3825986-.37050302.9931081-.36069764 1.3636111.02190094.0081176.00838264.0160824.01691193.0238905.02558366z" opacity=".3"/></g></g></svg>