<svg height="24" viewBox="0 0 24 24" width="24" xmlns="http://www.w3.org/2000/svg"><g fill="none" fill-rule="evenodd"><path d="m0 0h24v24h-24z" opacity="0"/><g fill="#000"><path d="m12 19c3.8659932 0 7-3.1340068 7-7 0-3.86599325-3.1340068-7-7-7-3.86599325 0-7 3.13400675-7 7 0 3.8659932 3.13400675 7 7 7zm0 2c-4.97056275 0-9-4.0294373-9-9 0-4.97056275 4.02943725-9 9-9 4.9705627 0 9 4.02943725 9 9 0 4.9705627-4.0294373 9-9 9z" fill-rule="nonzero"/><path d="m12 9.66666667c-.6666667-1.02151676-1-1.78540565-1-2.29166667 0-.75939153.4477153-1.375 1-1.375s1 .61560847 1 1.375c0 .50626102-.3333333 1.27014991-1 2.29166667zm0 4.33333333c.6666667 1.0215168 1 1.7854056 1 2.2916667 0 .7593915-.4477153 1.375-1 1.375s-1-.6156085-1-1.375c0-.5062611.3333333-1.2701499 1-2.2916667zm2.3333333-2c1.0215168-.6666667 1.7854057-1 2.2916667-1 .7593915 0 1.375.4477153 1.375 1s-.6156085 1-1.375 1c-.506261 0-1.2701499-.3333333-2.2916667-1zm-4.3333333 0c-1.02151676.6666667-1.78540565 1-2.29166667 1-.75939153 0-1.375-.4477153-1.375-1s.61560847-1 1.375-1c.50626102 0 1.27014991.3333333 2.29166667 1zm3.6499158-1.6499158c.2509169-1.19372597.5553657-1.96957924.9133463-2.32755984.5369709-.53697091 1.2888543-.65568934 1.6793786-.26516505s.2718058 1.14240771-.2651651 1.67937861c-.3579806.3579806-1.1338338.66242938-2.3275598.91334628zm-3.0641294 3.0641294c-.2509169 1.1937259-.5553656 1.9695792-.91334622 2.3275598-.5369709.5369709-1.28885431.6556893-1.67937861.265165-.39052429-.3905243-.27180585-1.1424077.26516505-1.6793786.3579806-.3579806 1.13383387-.6624293 2.32755978-.9133462zm3.0641294.2357022c1.193726.2509169 1.9695792.5553657 2.3275598.9133463.5369709.5369709.6556894 1.2888543.2651651 1.6793786s-1.1424077.2718058-1.6793786-.2651651c-.3579806-.3579806-.6624294-1.1338338-.9133463-2.3275598zm-3.0641294-3.0641294c-1.19372591-.2509169-1.96957918-.5553656-2.32755978-.91334622-.5369709-.5369709-.65568934-1.28885431-.26516505-1.67937861.3905243-.39052429 1.14240771-.27180585 1.67937861.26516505.35798062.3579806.66242932 1.13383387.91334622 2.32755978z" opacity=".3"/></g></g></svg>