<svg height="24" viewBox="0 0 24 24" width="24" xmlns="http://www.w3.org/2000/svg"><g fill="none" fill-rule="evenodd"><path d="m0 0h24v24h-24z" opacity="0"/><g fill="#000"><path d="m7 17c2.28100068 0 4-1.0313996 4-2s-1.71899932-2-4-2-4 1.0313996-4 2 1.71899932 2 4 2zm4.5 4.3092376c-.8103604 1.0008517-2.52089914 1.6907624-4.5 1.6907624-2.76142375 0-5-1.3431458-5-3 0-2.7357859 0-4.4024526 0-5 0-1.6568542 2.23857625-3 5-3 1.97910086 0 3.6896396.6899107 4.5 1.6907624.8103604-1.0008517 2.5208991-1.6907624 4.5-1.6907624 2.7614237 0 5 1.3431458 5 3v5c0 1.6568542-2.2385763 3-5 3-1.9791009 0-3.6896396-.6899107-4.5-1.6907624zm4.5-4.3092376c2.2810007 0 4-1.0313996 4-2s-1.7189993-2-4-2-4 1.0313996-4 2 1.7189993 2 4 2z" fill-rule="nonzero"/><path d="m19.6608485 2.02106698c.1751369.50863428-.0952162 1.0629403-.6038505 1.23807713-.0080769.00278109-.01619.00545581-.0243373.00802347l-16.69700304 5.26216261c-.2653777.0836354-.54907439-.05938258-.63966206-.32246828-.09058767-.26308569.04491771-.55044653.30552929-.64792376l16.39712881-6.13306081c.5038509-.1884567 1.0650772.06722089 1.2535339.57107188.0029926.00800093.0058798.01604087.0086609.02411776zm1.3106621 4.53057771c.0934127.52976959-.2603245 1.03495863-.7900941 1.1283713-.0084125.00148335-.0168442.00285597-.0252928.0041175l-17.31461881 2.58538991c-.27519393.0410915-.53302489-.1445456-.58134161-.41856334-.04831671-.27401771.1304735-.53664294.40312532-.59215143l17.154675-3.49247659c.5271289-.10731683 1.0414487.23300808 1.1487655.76013695.0017042.00837057.0032981.01676319.0047815.0251757zm-4.9715106 9.44835531c-.8284271 0-1.5-.4477153-1.5-1s.6715729-1 1.5-1 1.5.4477153 1.5 1-.6715729 1-1.5 1zm-9 0c-.82842712 0-1.5-.4477153-1.5-1s.67157288-1 1.5-1 1.5.4477153 1.5 1-.67157288 1-1.5 1z" opacity=".3"/></g></g></svg>