<svg height="24" viewBox="0 0 24 24" width="24" xmlns="http://www.w3.org/2000/svg"><g fill="none" fill-rule="evenodd"><path d="m0 0h24v24h-24z" opacity="0"/><g fill="#000"><path d="m11 12h-9v-1c0-1.65685425 1.34314575-3 3-3h3c1.65685425 0 3 1.34314575 3 3zm0 2v6c0 .5522847-.4477153 1-1 1h-7c-.55228475 0-1-.4477153-1-1v-6z"/><path d="m22 12h-9v-1c0-1.65685425 1.3431458-3 3-3h3c1.6568542 0 3 1.34314575 3 3zm0 2v6c0 .5522847-.4477153 1-1 1h-7c-.5522847 0-1-.4477153-1-1v-6zm-17-11h3c.55228475 0 1 .44771525 1 1v1c0 .55228475-.44771525 1-1 1h-3c-.55228475 0-1-.44771525-1-1v-1c0-.55228475.44771525-1 1-1zm11 0h3c.5522847 0 1 .44771525 1 1v1c0 .55228475-.4477153 1-1 1h-3c-.5522847 0-1-.44771525-1-1v-1c0-.55228475.4477153-1 1-1z" opacity=".3"/></g></g></svg>