<svg height="24" viewBox="0 0 24 24" width="24" xmlns="http://www.w3.org/2000/svg"><g fill="none" fill-rule="evenodd"><path d="m0 0h24v24h-24z" opacity="0"/><g fill="#000"><path d="m12.9999711 21.0076775c1.2768703.0832139 2.4225397.8373441 3.0000289 1.9923225h-8c.57748919-1.1549784 1.72315858-1.9091086 3.0000289-1.9923225-.0000193-.0025569-.0000289-.0051161-.0000289-.0076775v-5.5h2v5.5c0 .0025614-.0000096.0051206-.0000289.0076775z" opacity=".3"/><path d="m8 4-.5 4h9c-.0624406-.79385086-.2291073-2.12718419-.5-4zm.28594472-2h7.42806248c1.233008 0 2.2581422.92839923 2.3527096 2.13070039l.4747964 6.03641801c.2748658 3.4945603-2.3990072 6.5453766-5.9722626 6.8141889-.1655905.0124572-.3316089.0186927-.4976886.0186927h-.1431721c-3.58381151 0-6.48906479-2.8412699-6.48906479-6.3461538 0-.1624221.00637591-.3247842.01911364-.4867278l.47479645-6.03641801c.0945674-1.20230116 1.11970153-2.13070039 2.35270952-2.13070039z" fill-rule="nonzero"/></g></g></svg>