<svg height="24" viewBox="0 0 24 24" width="24" xmlns="http://www.w3.org/2000/svg"><g fill="none" fill-rule="evenodd"><path d="m0 0h24v24h-24z" opacity="0"/><g fill="#000"><path d="m14.8890873 14.1109127c-3.0375661 0-5.5-2.4624339-5.5-5.5 0-3.03756612 2.4624339-5.5 5.5-5.5s5.5 2.46243388 5.5 5.5c0 3.0375661-2.4624339 5.5-5.5 5.5zm0-3.5c1.1045695 0 2-.8954305 2-2s-.8954305-2-2-2-2 .8954305-2 2 .8954305 2 2 2zm0-1c.5522847 0 1-.44771525 1-1s-.4477153-1-1-1c-.5522848 0-1 .44771525-1 1s.4477152 1 1 1z" opacity=".3" transform="matrix(.70710678 -.70710678 .70710678 .70710678 -1.727922 13.050252)"/><rect height="6" opacity=".3" rx="3" transform="matrix(.70710678 -.70710678 .70710678 .70710678 -7.884777 10.914214)" width="16" x="1.232233" y="11.974874"/><path d="m16.267767 18.0822059c-3.9939206-.6949055-7.00000005-3.721536-7.00000005-7.3499729 0-3.62843682 3.00607945-6.65506728 7.00000005-7.34997278z" transform="matrix(.70710678 -.70710678 .70710678 .70710678 -3.849242 12.171573)"/></g></g></svg>