<svg height="24" viewBox="0 0 24 24" width="24" xmlns="http://www.w3.org/2000/svg"><g fill="none" fill-rule="evenodd"><path d="m0 0h24v24h-24z" opacity="0"/><g fill="#000"><path d="m15.2426407 15.8284271 6.363961-6.36396101 1.4142136 1.41421361-6.3639611 6.363961zm-13.43502886.7071068 9.89949496-9.89949493c.3905243-.39052429 1.0236893-.39052429 1.4142135 0l1.4142136 1.41421356c.3905243.39052429.3905243 1.02368927 0 1.41421356l-9.89949493 9.89949491c-.39052429.3905243-1.02368927.3905243-1.41421356 0l-1.41421357-1.4142135c-.39052429-.3905243-.39052429-1.0236893 0-1.4142136zm14.14213566-12.72792206 1.4142135 1.41421357c.3905243.39052429.3905243 1.02368927 0 1.41421356l-.7071068.70710678c-.3905242.39052429-1.0236892.39052429-1.4142135 0l-1.4142136-1.41421356c-.3905243-.39052429-.3905243-1.02368927 0-1.41421356l.7071068-.70710679c.3905243-.39052429 1.0236893-.39052429 1.4142136 0z" opacity=".3"/><path d="m19.3284271 3.55025253c-2.3333333 1.33333334-4 2-5 2s-3 0-5.99999998 0v4.99999997h5.99999998c1.3333334 0 3 .6666667 5 2z" transform="matrix(.70710678 .70710678 -.70710678 .70710678 9.742641 -7.42031)"/></g></g></svg>