<svg height="24" viewBox="0 0 24 24" width="24" xmlns="http://www.w3.org/2000/svg"><g fill="none" fill-rule="evenodd"><path d="m0 0h24v24h-24z" opacity="0"/><g fill="#000"><path d="m16.0576695 5.11553395 2.1213204 2.12132034-2.4748738 4.59619411 4.5961941-2.47487376 1.767767 1.76776696c.1952621.1952621.1952621.5118446 0 .7071068l-5.3033009 5.3033008-9.89949493-9.89949491 5.30330083-5.30330086c.1952622-.19526214.5118447-.19526214.7071068 0l1.767767 1.76776696-.7071068 2.12132034z" opacity=".3"/><path d="m10.1599151 16.1883423-3.29155781 4.7021933c-.63343193.9048966-1.88049356 1.1249622-2.78539011.4915302-.09545674-.0668201-.18489148-.1418544-.26728361-.2242466l-.9579721-.9579721c-.78104858-.7810485-.78104858-2.0473785 0-2.8284271.08622036-.0862203.18014493-.1643752.28060036-.2334882l4.72228014-3.2489127-3.11663094-3.1166309c-.3905243-.3905243-.3905243-1.02368927 0-1.41421356l1.41421356-1.41421357 9.89949491 9.89949493-1.4142135 1.4142136c-.3905243.3905243-1.0236893.3905243-1.4142136 0zm-5.41595407 3.0693273c.39052429.3905243 1.02368927.3905243 1.41421356 0s.39052429-1.0236893 0-1.4142136-1.02368927-.3905243-1.41421356 0c-.3905243.3905243-.3905243 1.0236893 0 1.4142136z"/></g></g></svg>