<svg height="24" viewBox="0 0 24 24" width="24" xmlns="http://www.w3.org/2000/svg"><g fill="none" fill-rule="evenodd"><path d="m0 0h24v24h-24z" opacity="0"/><g fill="#000"><path d="m7.07744993 12.3040451c.64699578.7675643 1.46299572 1.3880023 2.39063601 1.8039502l-4.46808594 8.8920047-.5-5zm7.50910117 1.9557413c.945405-.3578848 1.7888649-.9231743 2.4748515-1.6403405l2.4385974 5.3805541-.5 5zm-2.5865511-14.2597864c.8284271 0 1.5.67157288 1.5 1.5v2.5h-3v-2.5c0-.82842712.6715729-1.5 1.5-1.5z" opacity=".3"/><path d="m12 10c1.1045695 0 2-.8954305 2-2s-.8954305-2-2-2-2 .8954305-2 2 .8954305 2 2 2zm0 3c-2.76142375 0-5-2.2385763-5-5 0-2.76142375 2.23857625-5 5-5 2.7614237 0 5 2.23857625 5 5 0 2.7614237-2.2385763 5-5 5z" fill-rule="nonzero"/></g></g></svg>