<svg height="24" viewBox="0 0 24 24" width="24" xmlns="http://www.w3.org/2000/svg"><g fill="none" fill-rule="evenodd"><path d="m0 0h24v24h-24z" opacity="0"/><g fill="#000"><path d="m18.4246212 12.6464466 2.8284271-2.82842712c.1952622-.19526214.5118447-.19526214.7071068 0l.7071068.70710682c.1952621.1952621.1952621.5118446 0 .7071067l-2.8284271 2.8284272c-.1952622.1952621-.5118447.1952621-.7071068 0l-.7071068-.7071068c-.1952621-.1952622-.1952621-.5118446 0-.7071068zm-15.20279579 5.3033009 9.89949489-9.89949497c.3905243-.39052429 1.0236893-.39052429 1.4142136 0l1.4142136 1.41421356c.3905243.3905243.3905243 1.02368931 0 1.41421361l-9.89949497 9.8994949c-.39052429.3905243-1.02368927.3905243-1.41421356 0l-1.41421356-1.4142136c-.39052429-.3905243-.39052429-1.0236892 0-1.4142135z" opacity=".3"/><path d="m12.3890873 1.28248558c2.7614237 0 5 2.23857625 5 5v4.50000002c0 .2761424-.2238576.5-.5.5h-4c-.2761424 0-.5-.2238576-.5-.5z" transform="matrix(.70710678 -.70710678 .70710678 .70710678 -.081476 12.368272)"/></g></g></svg>