<svg height="24" viewBox="0 0 24 24" width="24" xmlns="http://www.w3.org/2000/svg"><g fill="none" fill-rule="evenodd"><path d="m0 0h24v24h-24z" opacity="0"/><g fill="#000"><path d="m3.51471863 18.6568542 9.89949497-9.89949489c.3905243-.39052429 1.0236892-.39052429 1.4142135 0l1.4142136 1.41421359c.3905243.3905243.3905243 1.0236892 0 1.4142135l-9.89949495 9.899495c-.39052429.3905243-1.02368927.3905243-1.41421356 0l-1.41421356-1.4142136c-.3905243-.3905243-.3905243-1.0236893 0-1.4142136z" opacity=".3"/><path d="m9.87867966 6.63603897 3.53553394-3.53553391c.3905243-.39052429 1.0236892-.39052429 1.4142135 0l7.0710678 7.07106784c.3905243.3905243.3905243 1.0236892 0 1.4142135l-3.5355339 3.5355339c-.3905243.3905243-1.0236892.3905243-1.4142135 0l-7.07106784-7.07106777c-.3905243-.39052429-.3905243-1.02368927 0-1.41421356z"/><path d="m17.3033009 4.86827202.7071067-.70710678c.1952622-.19526215.5118447-.19526215.7071068 0l2.1213204 2.12132034c.1952621.19526214.1952621.51184463 0 .70710678l-.7071068.70710678c-.1952622.19526215-.5118447.19526215-.7071068 0l-2.1213203-2.12132034c-.1952622-.19526215-.1952622-.51184464 0-.70710678z" opacity=".3"/></g></g></svg>