<svg height="24" viewBox="0 0 24 24" width="24" xmlns="http://www.w3.org/2000/svg"><g fill="none" fill-rule="evenodd"><path d="m0 0h24v24h-24z" opacity="0"/><g fill="#000"><path d="m22 15v4c0 1.1045695-.8954305 2-2 2h-12c-2.209139 0-4-1.790861-4-4s1.790861-4 4-4h12c1.1045695 0 2 .8954305 2 2zm-15 4c1.1045695 0 2-.8954305 2-2s-.8954305-2-2-2-2 .8954305-2 2 .8954305 2 2 2z" opacity=".3"/><path d="m15.5421357 5.69999981 2.8284271 2.82842712c.7810486.78104859.7810486 2.04737857 0 2.82842717l-8.48528133 8.4852813c-1.56209717 1.5620972-4.09475708 1.5620972-5.65685425 0-1.56209717-1.5620971-1.56209717-4.094757 0-5.6568542l8.48528138-8.48528139c.7810486-.78104858 2.0473785-.78104858 2.8284271 0zm-8.5421357 13.30000019c1.1045695 0 2-.8954305 2-2s-.8954305-2-2-2-2 .8954305-2 2 .8954305 2 2 2z" opacity=".3"/><path d="m5 3h4c1.1045695 0 2 .8954305 2 2v12c0 2.209139-1.790861 4-4 4s-4-1.790861-4-4v-12c0-1.1045695.8954305-2 2-2zm2 16c1.1045695 0 2-.8954305 2-2s-.8954305-2-2-2-2 .8954305-2 2 .8954305 2 2 2z"/></g></g></svg>