<svg height="24" viewBox="0 0 24 24" width="24" xmlns="http://www.w3.org/2000/svg"><g fill="none" fill-rule="evenodd"><path d="m0 0h24v24h-24z" opacity="0"/><g fill="#000"><path d="m22 8c0 .55228475-.4477153 1-1 1h-2v6c0 3.3137085-2.6862915 6-6 6h-8c-1.1045695 0-2-.8954305-2-2v-8c0-3.3137085 2.6862915-6 6-6h8c1.1045695 0 2 .8954305 2 2h2v-1h1zm-11 9c2.209139 0 4-1.790861 4-4s-1.790861-4-4-4-4 1.790861-4 4 1.790861 4 4 4z"/><path d="m12 3h3c.5522847 0 1 .44771525 1 1v1h-5v-1c0-.55228475.4477153-1 1-1z" opacity=".3"/></g></g></svg>