<svg height="24" viewBox="0 0 24 24" width="24" xmlns="http://www.w3.org/2000/svg"><g fill="none" fill-rule="evenodd"><path d="m0 0h24v24h-24z" opacity="0"/><g fill="#000"><path d="m8.46446609 11.2928932-1.06066017-1.0606602c-.19526214-.1952621-.19526214-.51184459 0-.70710673l.70710678-.70710679c.19526215-.19526214.51184464-.19526214.70710678 0l6.36396102 6.36396102c.1952622.1952622.1952622.5118447 0 .7071068l-.7071068.7071068c-.1952621.1952621-.5118446.1952621-.7071067 0l-1.0606602-1.0606602-5.65685427 5.6568543c-.78104858.7810485-2.04737854.7810485-2.82842712 0l-1.41421357-1.4142136c-.78104858-.7810486-.78104858-2.0473785 0-2.8284271zm-3.88908729 6.7175144c-.19526215.1952622-.19526215.5118447 0 .7071068.19526214.1952622.51184463.1952622.70710678 0l4.24264069-4.2426407c.19526214-.1952621.19526214-.5118446 0-.7071067-.19526215-.1952622-.51184464-.1952622-.70710679 0z" opacity=".3"/><path d="m16.9497475 5.63603897-.1709293-.17092927c-.1952621-.19526215-.1952621-.51184464 0-.70710678.0478806-.0478806.1049877-.08553684.1678581-.11068496l2.5253813-1.01015254c.1857084-.07428336.3978174-.03074634.5392487.11068495l.2408433.24084329c.1414313.14143129.1849683.35354034.110685.53924873l-1.0101526 2.52538136c-.1025567.25639176-.3935419.38109971-.6499336.27854301-.0628703-.02514812-.1199775-.06280436-.1678581-.11068496l-.1709293-.17092927-5.6568542 5.65685427-1.4142136-1.4142136z"/></g></g></svg>