<svg height="24" viewBox="0 0 24 24" width="24" xmlns="http://www.w3.org/2000/svg"><g fill="none" fill-rule="evenodd"><path d="m0 0h24v24h-24z" opacity="0"/><g fill="#000"><path d="m4.6109127 7.1109127h10v2h-10l-2.14644661 2.1464466c-.09376819.0937682-.22094514.1464466-.35355339.1464466-.27614237 0-.5-.2238576-.5-.5v-5.58578642c0-.13260824.05267842-.2597852.14644661-.35355339.19526215-.19526214.51184464-.19526214.70710678 0z" opacity=".3" transform="matrix(.70710678 .70710678 -.70710678 .70710678 8.110913 -3.35965)"/><path d="m16.9497475 9.87867966 2.8251548 3.25979404c1.1171984 1.289075 1.5752494 3.022456 1.2407092 4.6951572l-.399586 1.99793c-.0791723.3958613-.3886033.7052923-.7844646.7844646l-1.99793.399586c-1.6727012.3345402-3.4060822-.1235108-4.6951572-1.2407092l-3.25979404-2.8251548zm-3.4046306 6.14497474c-.7633863-.6459423-1.7322997.4991372-.9689134 1.1450794l2.298097 1.9445436c.7633863.6459423 1.7322997-.4991371.9689134-1.1450794z"/></g></g></svg>