<svg height="24" viewBox="0 0 24 24" width="24" xmlns="http://www.w3.org/2000/svg"><g fill="none" fill-rule="evenodd"><path d="m0 0h24v24h-24z" opacity="0"/><g fill="#000"><path d="m8.79188247 3.31801948h10.78019613c.2761423 0 .5.22385763.5.5 0 .032926-.0032524.06577148-.0097097.09805807l-1.5743703 7.87185155c-.4105194 2.052597-2.2127716 3.5300904-4.3060181 3.5300904-2.0932465 0-3.8954987-1.4774934-4.30601807-3.5300904l-1.5743703-7.87185155c-.05415598-.27077987.12145239-.53419243.39223227-.5883484.03228659-.00645732.06513207-.00970967.09805807-.00970967z" opacity=".3" transform="matrix(.70710678 .70710678 -.70710678 .70710678 10.74264 -7.29899)"/><path d="m4.96174059 13.0963957h2.88370623l1.41688628 3.9307368c.56911318 1.5788382-.24943065 3.3200968-1.82826882 3.88921-.33049975.119133-.67915482.1800532-1.03047058.1800532-1.67827881 0-3.03879261-1.3605138-3.03879261-3.0387926 0-.3513158.0609202-.6999709.18005322-1.0304706zm1.44185311 6.5714285c.79631349 0 1.44185312-.6395932 1.44185312-1.4285714s-.64553963-1.4285714-1.44185312-1.4285714c-.79631348 0-1.44185311.6395932-1.44185311 1.4285714s.64553963 1.4285714 1.44185311 1.4285714z" transform="matrix(.70710678 .70710678 -.70710678 .70710678 13.964668 .479101)"/></g></g></svg>