<svg height="24" viewBox="0 0 24 24" width="24" xmlns="http://www.w3.org/2000/svg"><g fill="none" fill-rule="evenodd"><path d="m0 0h24v24h-24z" opacity="0"/><g fill="#000"><path d="m15.7842712 14-2.8063491 2.8063492-5.14949498-5.149495c-1.56209716-1.5620971-1.56209716-4.09475703 0-5.6568542l6.17157288 6.1715729v-4.1715729c0-3.3137085 2.6862915-6 6-6v12z" opacity=".3"/><path d="m5.5 12h13c2.4852814 0 4.5 2.0147186 4.5 4.5s-2.0147186 4.5-4.5 4.5h-13c-2.48528137 0-4.5-2.0147186-4.5-4.5s2.01471863-4.5 4.5-4.5zm14 6c.8284271 0 1.5-.6715729 1.5-1.5s-.6715729-1.5-1.5-1.5-1.5.6715729-1.5 1.5.6715729 1.5 1.5 1.5z"/></g></g></svg>