<svg height="24" viewBox="0 0 24 24" width="24" xmlns="http://www.w3.org/2000/svg"><g fill="none" fill-rule="evenodd"><path d="m0 0h24v24h-24z" opacity="0"/><g fill="#000"><path d="m15.9497475 3.80761184-2.925135 2.92513497c-.7810486.78104858-.7810486 2.04737854 0 2.82842713l1.4142136 1.41421356c.7810485.7810486 2.0473785.7810486 2.8284271 0l2.925135-2.92513497c.5417219 1.99453457.0372059 4.20543477-1.5178292 5.76046977-1.8292264 1.8292265-4.5659998 2.2048073-6.7905656 1.1337114l-5.12663409 5.1266341c-.78104858.7810486-2.04737854.7810486-2.82842712 0-.78104859-.7810486-.78104859-2.0473785 0-2.8284271l5.1266341-5.1266341c-1.07109591-2.22456582-.69551505-4.96133921 1.13371141-6.79056565 1.555035-1.55503507 3.7659352-2.059551 5.7604698-1.51782911z"/><path d="m16.6568542 5.92893219 1.4142136 1.41421356c.3905243.39052429.3905243 1.02368927 0 1.41421356l-1.379675 1.37967509c-.3905243.3905243-1.0236893.3905243-1.4142136 0l-1.4142136-1.4142136c-.3905243-.39052429-.3905243-1.02368927 0-1.41421356l1.3796751-1.37967505c.3905243-.39052429 1.0236893-.39052429 1.4142135 0z" opacity=".3"/></g></g></svg>