<svg height="24" viewBox="0 0 24 24" width="24" xmlns="http://www.w3.org/2000/svg"><g fill="none" fill-rule="evenodd"><path d="m0 0h24v24h-24z" opacity="0"/><g fill="#000"><rect height="4" rx="1" width="19" x="2" y="4"/><path d="m3 10h3c.55228475 0 1 .4477153 1 1v8c0 .5522847-.44771525 1-1 1h-3c-.55228475 0-1-.4477153-1-1v-8c0-.5522847.44771525-1 1-1zm7 0h3c.5522847 0 1 .4477153 1 1v8c0 .5522847-.4477153 1-1 1h-3c-.55228475 0-1-.4477153-1-1v-8c0-.5522847.44771525-1 1-1zm7 0h3c.5522847 0 1 .4477153 1 1v8c0 .5522847-.4477153 1-1 1h-3c-.5522847 0-1-.4477153-1-1v-8c0-.5522847.4477153-1 1-1z" opacity=".3"/></g></g></svg>