<svg height="24" viewBox="0 0 24 24" width="24" xmlns="http://www.w3.org/2000/svg"><g fill="none" fill-rule="evenodd"><path d="m0 0h24v24h-24z" opacity="0"/><g fill="#000"><path d="m3 4h17c.5522847 0 1 .44771525 1 1v2c0 .55228475-.4477153 1-1 1h-17c-.55228475 0-1-.44771525-1-1v-2c0-.55228475.44771525-1 1-1zm0 6h10c.5522847 0 1 .4477153 1 1v2c0 .5522847-.4477153 1-1 1h-10c-.55228475 0-1-.4477153-1-1v-2c0-.5522847.44771525-1 1-1zm0 6h10c.5522847 0 1 .4477153 1 1v2c0 .5522847-.4477153 1-1 1h-10c-.55228475 0-1-.4477153-1-1v-2c0-.5522847.44771525-1 1-1z"/><rect height="10" opacity=".3" rx="1" width="5" x="16" y="10"/></g></g></svg>