<svg height="24" viewBox="0 0 24 24" width="24" xmlns="http://www.w3.org/2000/svg"><g fill="none" fill-rule="evenodd"><path d="m0 0h24v24h-24z" opacity="0"/><g fill="#000"><path d="m5.5 4h4c.8284271 0 1.5.67157288 1.5 1.5v1c0 .82842712-.6715729 1.5-1.5 1.5h-4c-.82842712 0-1.5-.67157288-1.5-1.5v-1c0-.82842712.67157288-1.5 1.5-1.5zm9 12h4c.8284271 0 1.5.6715729 1.5 1.5v1c0 .8284271-.6715729 1.5-1.5 1.5h-4c-.8284271 0-1.5-.6715729-1.5-1.5v-1c0-.8284271.6715729-1.5 1.5-1.5z"/><path d="m5.5 10h4c.8284271 0 1.5.6715729 1.5 1.5v7c0 .8284271-.6715729 1.5-1.5 1.5h-4c-.82842712 0-1.5-.6715729-1.5-1.5v-7c0-.8284271.67157288-1.5 1.5-1.5zm9-6h4c.8284271 0 1.5.67157288 1.5 1.5v7c0 .8284271-.6715729 1.5-1.5 1.5h-4c-.8284271 0-1.5-.6715729-1.5-1.5v-7c0-.82842712.6715729-1.5 1.5-1.5z" opacity=".3"/></g></g></svg>