<svg height="24" viewBox="0 0 24 24" width="24" xmlns="http://www.w3.org/2000/svg"><g fill="none" fill-rule="evenodd"><path d="m0 0h24v24h-24z" opacity="0"/><g fill="#000"><path d="m1.5 5h3c.82842712 0 1.5.67157288 1.5 1.5v11c0 .8284271-.67157288 1.5-1.5 1.5h-3c-.82842712 0-1.5-.6715729-1.5-1.5v-11c0-.82842712.67157288-1.5 1.5-1.5zm17 0h4c.8284271 0 1.5.67157288 1.5 1.5v11c0 .8284271-.6715729 1.5-1.5 1.5h-4c-.8284271 0-1.5-.6715729-1.5-1.5v-11c0-.82842712.6715729-1.5 1.5-1.5z"/><rect height="14" opacity=".3" rx="1.5" width="7" x="8" y="5"/></g></g></svg>