<svg fill="none" height="48" viewBox="0 0 48 48" width="48" xmlns="http://www.w3.org/2000/svg"><path d="m30.2369 5.58619c-.6384-1.96526-2.7492-3.04069-4.7142-2.40196-1.9652.6384-3.0407 2.74923-2.4019 4.71416l9.674 29.76441c.6643 1.836 2.6475 2.8676 4.5512 2.3198 1.9858-.5716 3.1961-2.6807 2.5625-4.6308z" fill="#dfa22f"/><path d="m15.2471 10.4567c-.6388-1.96505-2.7494-3.04049-4.7144-2.40208-1.96541.63856-3.04102 2.74918-2.40212 4.71448l9.67422 29.7646c.6641 1.8358 2.6475 2.8676 4.5512 2.3193 1.9856-.5713 3.1959-2.6803 2.5623-4.6308z" fill="#3cb187"/><path d="m42.4139 30.2372c1.9653-.6384 3.0404-2.7489 2.402-4.7143-.6384-1.965-2.7493-3.0406-4.7142-2.402l-29.7645 9.6743c-1.83596.664-2.86758 2.6472-2.31977 4.5509.57161 1.9856 2.68067 3.1961 4.63077 2.5625l29.7657-9.6712" fill="#ce1e5b"/><path d="m16.5407 38.6439 7.1139-2.3114-2.3117-7.1146-7.1144 2.3123 2.3122 7.1138" fill="#392538"/><path d="m31.5306 33.7732c2.6895-.8736 5.1893-1.6859 7.114-2.3114l-2.312-7.1159-7.1143 2.3123z" fill="#bb242a"/><path d="m37.5434 15.2472c1.965-.6384 3.0405-2.749 2.4021-4.7144-.6384-1.96498-2.7492-3.04041-4.7145-2.40201l-29.7647 9.67451c-1.83578.6637-2.86757 2.647-2.31926 4.5507.57128 1.9854 2.68031 3.1959 4.6308 2.5623l29.76556-9.6712" fill="#72c5cd"/><path d="m11.6688 23.6543c1.9374-.6296 4.4352-1.4413 7.115-2.3117-.8736-2.6899-1.6859-5.1896-2.3114-7.1147l-7.11595 2.3127z" fill="#248c73"/><path d="m26.6586 18.7839 7.1153-2.3121c-.7707-2.372-1.5414-4.744-2.3122-7.11593l-7.1155 2.31273z" fill="#62803a"/></svg>