<svg fill="none" height="48" viewBox="0 0 48 48" width="48" xmlns="http://www.w3.org/2000/svg"><path d="m43.3125 0h-38.625c-2.58883 0-4.6875 2.09867-4.6875 4.6875v38.625c0 2.5888 2.09867 4.6875 4.6875 4.6875h38.625c2.5888 0 4.6875-2.0987 4.6875-4.6875v-38.625c0-2.58883-2.0987-4.6875-4.6875-4.6875z" fill="#0091e6"/><g fill="#fff"><path d="m39.51 6.24002h-10.14c-1.2426 0-2.25 1.00736-2.25 2.25v16.49998c0 1.2427 1.0074 2.25 2.25 2.25h10.14c1.2426 0 2.25-1.0073 2.25-2.25v-16.49998c0-1.24264-1.0074-2.25-2.25-2.25z"/><path d="m18.63 6.24002h-10.14001c-1.24264 0-2.25 1.00736-2.25 2.25v28.49998c0 1.2427 1.00736 2.25 2.25 2.25h10.14001c1.2426 0 2.25-1.0073 2.25-2.25v-28.49998c0-1.24264-1.0074-2.25-2.25-2.25z"/></g></svg>