<svg height="24" viewBox="0 0 24 24" width="24" xmlns="http://www.w3.org/2000/svg"><g fill="none" fill-rule="evenodd"><path d="m0 0h24v24h-24z" opacity="0"/><g fill="#000"><path d="m8 17h8v2c0 .5522847-.4477153 1-1 1h-6c-.55228475 0-1-.4477153-1-1z" opacity=".3"/><path d="m2 7h20v1c0 5.5228475-4.4771525 10-10 10s-10-4.4771525-10-10zm15.580855 2.6060807c-.9098494 2.1229818-2.2474142 3.6091649-4.0280686 4.4994921-.4939785.2469893-.6942028.8476623-.4472136 1.3416408.2469893.4939785.8476623.6942028 1.3416408.4472136 2.2193456-1.1096728 3.8817808-2.956823 4.9719314-5.5005079.2175557-.50762978-.0175959-1.09550871-.5252257-1.31306433s-1.0955087.01759595-1.3130643.52522573z"/></g></g></svg>