<svg height="24" viewBox="0 0 24 24" width="24" xmlns="http://www.w3.org/2000/svg"><g fill="none" fill-rule="evenodd"><path d="m0 0h24v24h-24z" opacity="0"/><g fill="#000"><rect height="2" opacity=".3" rx="1" width="14" x="5" y="20"/><path d="m5 12.8739825c-1.72522721-.4440428-3-2.0101431-3-3.8739825 0-2.209139 1.790861-4 4-4 .11332888 0 .22555698.00471299.33649899.01395368.81972009-2.33767076 3.04585212-4.01395368 5.66350101-4.01395368 2.6176489 0 4.8437809 1.67628292 5.663501 4.01395368.110942-.00924069.2231701-.01395368.336499-.01395368 2.209139 0 4 1.790861 4 4 0 1.8638394-1.2747728 3.4299397-3 3.8739825v4.1260175c0 .5522847-.4477153 1-1 1h-12c-.55228475 0-1-.4477153-1-1z"/></g></g></svg>