<svg height="24" viewBox="0 0 24 24" width="24" xmlns="http://www.w3.org/2000/svg"><g fill="none" fill-rule="evenodd"><path d="m0 0h24v24h-24z" opacity="0"/><g fill="#000"><path d="m10 6v-1c0-.55228475.4477153-1 1-1h2c.5522847 0 1 .44771525 1 1v1h.383822c1.8234474 0 3.6309945.33909803 5.3304559 1l.0874226.03399769c.257366.10008681.3848659.38985955.2847791.64722551-.0747389.19218569-.2597955.3187768-.4660023.3187768h-15.24096301c-.27614237 0-.5-.22385763-.5-.5 0-.2062068.12659111-.39126339.3187768-.46600231l.0874226-.03399769c1.6994614-.66090197 3.50700853-1 5.33045595-1zm10 5h2c.5522847 0 1 .4477153 1 1s-.4477153 1-1 1h-2c-.5522847 0-1-.4477153-1-1s.4477153-1 1-1zm-18 0h2c.55228475 0 1 .4477153 1 1s-.44771525 1-1 1h-2c-.55228475 0-1-.4477153-1-1s.44771525-1 1-1z" opacity=".3"/><path d="m5 9h14c.5522847 0 1 .44771525 1 1v7c0 2.209139-1.790861 4-4 4h-8c-2.209139 0-4-1.790861-4-4v-7c0-.55228475.44771525-1 1-1z"/></g></g></svg>