<svg height="24" viewBox="0 0 24 24" width="24" xmlns="http://www.w3.org/2000/svg"><g fill="none" fill-rule="evenodd"><path d="m0 0h24v24h-24z" opacity="0"/><path d="m9.35 11.5877565c-.77635225-.2089613-1.35-.9459497-1.35-1.82305062 0-1.03959482.80588745-1.88235294 1.8-1.88235294.05099799 0 .10150064.00221788.15142455.00656644.36887405-1.10008036 1.37063345-1.88891938 2.54857545-1.88891938s2.1797014.78883902 2.5485755 1.88891938c.0499239-.00434856.1004265-.00656644.1514245-.00656644.9941125 0 1.8.84275812 1.8 1.88235294 0 .87710092-.5736478 1.61408932-1.35 1.82305062v1.9416553c0 .2598987-.2014719.4705882-.45.4705882h-5.4c-.24852814 0-.45-.2106895-.45-.4705882z" fill="#000" opacity=".3"/></g></svg>