<svg height="24" viewBox="0 0 24 24" width="24" xmlns="http://www.w3.org/2000/svg"><g fill="none" fill-rule="evenodd"><path d="m0 0h24v24h-24z" opacity="0"/><g fill="#000"><path d="m12.5 19c-3.58985087 0-6.5-2.9101491-6.5-6.5 0-3.58985087 2.91014913-6.5 6.5-6.5 3.5898509 0 6.5 2.91014913 6.5 6.5 0 3.5898509-2.9101491 6.5-6.5 6.5zm0-2.6c2.1539105 0 3.9-1.7460895 3.9-3.9s-1.7460895-3.9-3.9-3.9-3.9 1.7460895-3.9 3.9 1.7460895 3.9 3.9 3.9zm0-1.3c-1.4359403 0-2.6-1.1640597-2.6-2.6s1.1640597-2.6 2.6-2.6 2.6 1.1640597 2.6 2.6-1.1640597 2.6-2.6 2.6z" opacity=".3"/><path d="m22 13.5c.2864451 0 .5288541.2115967.5675566.4954151l.530441 3.889901c.073278.5373717-.3029443 1.0324011-.8403161 1.1056791-.0439729.0059963-.0883017.0090048-.1326815.0090048-.5673988 0-1.0273665-.4599676-1.0273665-1.0273665 0-.0310523.0014079-.0620886.0042192-.0930134l.3528794-3.8816735c.0256377-.2820143.2620907-.4979466.5452679-.4979466z" opacity=".3"/><path d="m24 5v7h-3v-4c0-1.65685425 1.3431458-3 3-3z" transform="matrix(-1 0 0 1 45 0)"/><path d="m.71428571 5 .3226834 3.32873399c.01954682.20164091.18901621.35547654.39160232.35547654s.37205549-.15383563.39160232-.35547654l.32268339-3.32873399h.71428572l.32268339 3.32873399c.01954683.20164091.18901621.35547654.39160232.35547654s.3720555-.15383563.39160232-.35547654l.3226834-3.32873399h.71428571v3.39473684c0 1.38071188-1.11928813 2.49999996-2.5 2.49999996s-2.5-1.11928808-2.5-2.49999996v-3.39473684z"/><path d="m2.5 12.3684211c.40055463 0 .73115721.3132771.75269782.7132521l.2611126 4.8484486c.03015399.559912-.39929976 1.0382551-.95921179 1.0684091-.01818307.0009792-.0363892.0014691-.05459863.0014691-.56072341 0-1.01527955-.4545561-1.01527955-1.0152796 0-.0182094.00048989-.0364155.00146913-.0545986l.2611126-4.8484486c.02154061-.399975.35214319-.7132521.75269782-.7132521z" opacity=".3"/></g></g></svg>