<svg height="24" viewBox="0 0 24 24" width="24" xmlns="http://www.w3.org/2000/svg"><g fill="none" fill-rule="evenodd"><path d="m0 0h24v24h-24z" opacity="0"/><g fill="#000"><path d="m9.37867966 13.9142136.70710674.7071067c.3905243.3905243.3905243 1.0236893 0 1.4142136l-4.94974743 4.9497475c-.39052429.3905243-1.02368927.3905243-1.41421356 0l-.70710678-.7071068c-.3905243-.3905243-.3905243-1.0236893 0-1.4142136l4.94974746-4.9497474c.3905243-.3905243 1.02368927-.3905243 1.41421357 0z" opacity=".3"/><path d="m15.5606602 2.98959236-3.3133838 4.18861724c-.2475843.31298394-.2214926.76178777.0606926 1.04397294.2821851.28218517.730989.30827691 1.0439729.0606926l4.1886173-3.31338379.9899495.98994949-3.3133838 4.18861726c-.2475843.3129839-.2214926.7617878.0606926 1.0439729.2821851.2821852.730989.3082769 1.0439729.0606926l4.1886172-3.31338377.7071068.70710678-4.2426407 4.24264069c-1.5620971 1.5620972-4.094757 1.5620972-5.6568542 0l-.7071068-.7071068c-1.56209716-1.5620972-1.56209716-4.09475707 0-5.65685423l4.2426407-4.24264069z"/></g></g></svg>