<svg height="24" viewBox="0 0 24 24" width="24" xmlns="http://www.w3.org/2000/svg"><g fill="none" fill-rule="evenodd"><path d="m0 0h24v24h-24z" opacity="0"/><g fill="#000"><path d="m11 3 .4502481 4.5024814c.0282436.28243582.2659074.4975186.5497519.4975186s.5215083-.21508278.5497519-.4975186l.4502481-4.5024814h1l.4502481 4.5024814c.0282436.28243582.2659074.4975186.5497519.4975186s.5215083-.21508278.5497519-.4975186l.4502481-4.5024814h1v4.5c0 1.93299662-1.5670034 3.5-3.5 3.5s-3.5-1.56700338-3.5-3.5v-4.5z"/><path d="m13.5 13c.5610373 0 1.0243493.4382868 1.05547.9984604l.361325 6.5038491c.0434708.7824742-.5556099 1.452035-1.3380842 1.4955058-.0262117.0014562-.0524587.0021847-.0787108.0021847-.7836808 0-1.4189797-.6352989-1.4189797-1.4189797 0-.0262521.0007285-.0524991.0021847-.0787108l.361325-6.5038491c.0311207-.5601736.4944327-.9984604 1.05547-.9984604z" opacity=".3"/><path d="m21.5 15c.5634495 0 1.0311029.4354411 1.071247.9974587l.3218824 4.5063533c.0549575.7694041-.524216 1.4376812-1.2936202 1.4926386-.033117.0023655-.0663078.0035494-.0995092.0035494-.7713644 0-1.3966788-.6253144-1.3966788-1.3966788 0-.0332014.0011839-.0663922.0035494-.0995092l.3218824-4.5063533c.0401441-.5620176.5077975-.9974587 1.071247-.9974587z" opacity=".3"/><path d="m24 3v10h-4v-6c0-2.209139 1.790861-4 4-4z" transform="matrix(-1 0 0 1 44 0)"/><path d="m4.5 14c.56209761 0 1.0273156.4370496 1.06237829.9980526l.34405428 5.5048685c.04854695.7767513-.54177927 1.4457877-1.31853053 1.4943346-.029265.0018291-.05857995.0027443-.08790204.0027443-.77826687 0-1.40917683-.63091-1.40917683-1.4091768 0-.0293221.0009152-.0586371.00274426-.0879021l.34405428-5.5048685c.03506269-.561003.50028068-.9980526 1.06237829-.9980526z" opacity=".3"/><path d="m4.5 12c-1.93299662 0-3.5-2.56700338-3.5-4.5s1.56700338-4.5 3.5-4.5 3.5 2.56700338 3.5 4.5-1.56700338 4.5-3.5 4.5zm.0095372-7.39896756.05115285 5.34655c1.0582249-.08972414 1.89786907-.96777022 1.91680609-2.05267154.01979195-1.13388004-.84474167-3.19020099-1.96795894-3.29387846z"/></g></g></svg>