<svg height="24" viewBox="0 0 24 24" width="24" xmlns="http://www.w3.org/2000/svg"><g fill="none" fill-rule="evenodd"><path d="m0 0h24v24h-24z" opacity="0"/><g fill="#000"><path d="m7.0365148 2.21226948.70699908-.01234071 2.32117032 5.88947732c.5962999 1.51298463-.14681985 3.22289761-1.65980448 3.81919761-.34383921.1355144-.7101163.205089-1.07969656.205089-1.60587268 0-2.90768969-1.301817-2.90768969-2.90768971 0-.37639746.07308003-.74921455.21518351-1.09775672zm.28866836 8.47285182c.79631348 0 1.44185311-.6395933 1.44185311-1.42857147 0-.78897822-.64553963-1.42857143-1.44185311-1.42857143-.79631349 0-1.44185312.63959321-1.44185312 1.42857143 0 .78897817.64553963 1.42857147 1.44185312 1.42857147z" opacity=".3" transform="matrix(-.7193398 .69465837 -.69465837 -.7193398 17.598417 7.2034)"/><path d="m9.93933983 19.9246212c-2.73367004-2.73367-2.73367004-7.1658249 0-9.8994949 2.73367007-2.73367008 7.16582487-2.73367008 9.89949497 0 2.73367 2.73367 2.73367 7.1658249 0 9.8994949-2.7336701 2.73367-7.1658249 2.73367-9.89949497 0zm5.06066017.5753788c3.0375661 0 5.5-2.4624339 5.5-5.5s-2.4624339-5.5-5.5-5.5-5.5 2.4624339-5.5 5.5 2.4624339 5.5 5.5 5.5zm0-1c-2.4852814 0-4.5-2.0147186-4.5-4.5s2.0147186-4.5 4.5-4.5 4.5 2.0147186 4.5 4.5-2.0147186 4.5-4.5 4.5z"/></g></g></svg>