<svg height="24" viewBox="0 0 24 24" width="24" xmlns="http://www.w3.org/2000/svg"><g fill="none" fill-rule="evenodd"><path d="m0 0h24v24h-24z" opacity="0"/><g fill="#000"><path d="m7.92847669 8.37139068-1.85695338-.74278136.88582797-2.21456992c.82478488-2.0619622 2.82184746-3.4140394 5.04264872-3.4140394 2.2208013 0 4.2178638 1.3520772 5.0426487 3.4140394l.885828 2.21456992-1.8569534.74278136-.885828-2.21456993c-.5210581-1.30264544-1.7827032-2.15682075-3.1856953-2.15682075s-2.66463716.85417531-3.18569534 2.15682075z" fill-rule="nonzero" opacity=".3"/><path d="m7.61683158 7h8.76633682c.9430756 0 1.7580031.65880026 1.9556048 1.58094182l2.1428572 9.99999998c.2314394 1.0800507-.4564959 2.1432236-1.5365467 2.374663-.1377329.0295142-.2781985.0443952-.4190581.0443952h-13.05205116c-1.1045695 0-2-.8954305-2-2 0-.1408597.01488097-.2813252.04439517-.4190582l2.14285714-9.99999998c.19760177-.92214156 1.01252926-1.58094182 1.95560483-1.58094182zm-1.61683158 12c.55228475 0 1-.4477153 1-1s-.44771525-1-1-1-1 .4477153-1 1 .44771525 1 1 1zm2-4c.55228475 0 1-.4477153 1-1s-.44771525-1-1-1-1 .4477153-1 1 .44771525 1 1 1zm2-4c.5522847 0 1-.4477153 1-1 0-.55228475-.4477153-1-1-1-.55228475 0-1 .44771525-1 1 0 .5522847.44771525 1 1 1zm4 0c.5522847 0 1-.4477153 1-1 0-.55228475-.4477153-1-1-1s-1 .44771525-1 1c0 .5522847.4477153 1 1 1zm-2 4c.5522847 0 1-.4477153 1-1s-.4477153-1-1-1-1 .4477153-1 1 .4477153 1 1 1zm4 0c.5522847 0 1-.4477153 1-1s-.4477153-1-1-1-1 .4477153-1 1 .4477153 1 1 1zm-6 4c.5522847 0 1-.4477153 1-1s-.4477153-1-1-1c-.55228475 0-1 .4477153-1 1s.44771525 1 1 1zm4 0c.5522847 0 1-.4477153 1-1s-.4477153-1-1-1-1 .4477153-1 1 .4477153 1 1 1zm4 0c.5522847 0 1-.4477153 1-1s-.4477153-1-1-1-1 .4477153-1 1 .4477153 1 1 1z"/></g></g></svg>