<svg height="24" viewBox="0 0 24 24" width="24" xmlns="http://www.w3.org/2000/svg"><g fill="none" fill-rule="evenodd"><path d="m0 0h24v24h-24z" opacity="0"/><g fill="#000"><path d="m5 8h14c1.1045695 0 2 .8954305 2 2v10c0 1.1045695-.8954305 2-2 2h-14c-1.1045695 0-2-.8954305-2-2v-10c0-1.1045695.8954305-2 2-2zm7 12c2.7614237 0 5-2.2385763 5-5s-2.2385763-5-5-5c-2.76142375 0-5 2.2385763-5 5s2.23857625 5 5 5zm-.4269387-6.4383681.4269387-2.5616319.4269387 2.5616319c.6204436.1838803 1.0730613.7582669 1.0730613 1.4383681 0 .8284271-.6715729 1.5-1.5 1.5s-1.5-.6715729-1.5-1.5c0-.6801012.4526177-1.2544878 1.0730613-1.4383681z"/><path d="m14 6v2h-4v-2h-2.19722436c-1.12627443 0-2.17803099-.56288303-2.80277564-1.5l-.4817666-.7226499c-.15317623-.22976435-.0910893-.54019902.13867505-.69337525.08213376-.05475584.1786376-.08397485.2773501-.08397485h14.13148295c.2761423 0 .5.22385763.5.5 0 .09871249-.0292191.19521634-.0839749.2773501l-.4817666.7226499c-.6247446.93711697-1.6765012 1.5-2.8027756 1.5z" opacity=".3"/></g></g></svg>