<svg height="24" viewBox="0 0 24 24" width="24" xmlns="http://www.w3.org/2000/svg"><g fill="none" fill-rule="evenodd"><path d="m0 0h24v24h-24z" opacity="0"/><g fill="#000"><path d="m5.78248558 14.6464466.70710678.7071068c.39052429.3905243.39052429 1.0236893 0 1.4142136l-2.82842712 2.8284271c-.3905243.3905243-1.02368928.3905243-1.41421357 0l-.70710678-.7071068c-.39052429-.3905243-.39052429-1.0236893 0-1.4142136l2.82842713-2.8284271c.39052429-.3905243 1.02368927-.3905243 1.41421356 0z" opacity=".3"/><path d="m6.48959236 12.5251263 10.60660174-10.60660175 4.9497474 4.94974747c1.1715729 1.17157287 1.1715729 3.07106781 0 4.24264068l-6.363961 6.363961c-1.1715729 1.1715729-3.0710678 1.1715729-4.2426407 0zm10.66726184-5.01040767c.5857865-.58578644.5857865-1.53553391 0-2.12132035-.5857864-.58578644-1.5355339-.58578644-2.1213203 0s-.5857864 1.53553391 0 2.12132035c.5857864.58578643 1.5355339.58578643 2.1213203 0z"/></g></g></svg>