<svg height="24" viewBox="0 0 24 24" width="24" xmlns="http://www.w3.org/2000/svg"><g fill="none" fill-rule="evenodd"><path d="m0 0h24v24h-24z" opacity="0"/><g fill="#000"><path d="m3.98842709 3.05999994 7.07106781 7.07106786-2.82842712 2.8284271-4.24264069-4.24264071c-1.56209717-1.56209716-1.56209717-4.09475708 0-5.65685425z"/><path d="m17.7539614 3.90710683-2.8653616 3.50210865c-.1797411.2196835-.1637739.53982368.0369344.74053204.2007084.20070835.5208486.21667554.7405321.03693449l3.5021086-2.86536162.7071068.70710678-2.8653616 3.50210865c-.1797411.21968351-.1637739.53982368.0369345.74053208.2007083.2007083.5208485.2166755.740532.0369345l3.5021087-2.86536167.7071068.70710679-3.1819806 3.18198048c-1.366835 1.3668351-3.5829124 1.3668351-4.9497474 0-1.366835-1.36683499-1.366835-3.58291242 0-4.94974744l3.1819805-3.18198051z"/><path d="m11.0753788 13.9246212c.3961649.3961649.4122457 1.0333377.036569 1.4489822l-4.97010219 5.4988649c-.52814319.5843316-1.42998223.6298814-2.01431388.1017382-.01779862-.0160871-.03518846-.0326208-.05215293-.0495853-.55694646-.5569465-.55694646-1.4599351 0-2.0168815.01696447-.0169645.03435431-.0334982.05215293-.0495853l5.49886489-4.9701022c.41564448-.3756767 1.05281728-.3595959 1.44898218.036569z" opacity=".3"/><path d="m13.0754022 13.9246212c.3961649-.3961649 1.0333377-.4122457 1.4489822-.036569l5.4988649 4.9701022c.0177986.0160871.0351884.0326208.0521529.0495853.5569465.5569464.5569465 1.459935 0 2.0168815-.0169645.0169645-.0343543.0334982-.0521529.0495853-.5843317.5281432-1.4861707.4825934-2.0143139-.1017382l-4.9701022-5.4988649c-.3756767-.4156445-.3595959-1.0528173.036569-1.4489822z" opacity=".3"/></g></g></svg>