<svg height="24" viewBox="0 0 24 24" width="24" xmlns="http://www.w3.org/2000/svg"><g fill="none" fill-rule="evenodd"><path d="m0 0h24v24h-24z" opacity="0"/><g fill="#000"><path d="m6 3 .45024814 4.5024814c.02824358.28243582.26590738.4975186.54975186.4975186s.52150828-.21508278.54975186-.4975186l.45024814-4.5024814h1l.45024814 4.5024814c.02824358.28243582.26590738.4975186.54975186.4975186.2838445 0 .5215083-.21508278.5497519-.4975186l.4502481-4.5024814h1v4.5c0 1.93299662-1.5670034 3.5-3.5 3.5-1.93299662 0-3.5-1.56700338-3.5-3.5v-4.5z"/><path d="m8.5 13c.56103732 0 1.02434927.4382868 1.05547002.9984604l.36132495 6.5038491c.04347079.7824742-.55560988 1.452035-1.33808414 1.4955058-.02621168.0014562-.05245873.0021847-.07871083.0021847-.78368085 0-1.4189797-.6352989-1.4189797-1.4189797 0-.0262521.00072852-.0524991.00218473-.0787108l.36132495-6.5038491c.03112075-.5601736.4944327-.9984604 1.05547002-.9984604z" opacity=".3"/><path d="m17.5 15c.5634495 0 1.0311029.4354411 1.071247.9974587l.3218824 4.5063533c.0549575.7694041-.524216 1.4376812-1.2936202 1.4926386-.033117.0023655-.0663078.0035494-.0995092.0035494-.7713644 0-1.3966788-.6253144-1.3966788-1.3966788 0-.0332014.0011839-.0663922.0035494-.0995092l.3218824-4.5063533c.0401441-.5620176.5077975-.9974587 1.071247-.9974587z" opacity=".3"/><path d="m19 3v10h-4v-6c0-2.209139 1.790861-4 4-4z"/></g></g></svg>