<svg height="24" viewBox="0 0 24 24" width="24" xmlns="http://www.w3.org/2000/svg"><g fill="none" fill-rule="evenodd"><path d="m0 0h24v24h-24z" opacity="0"/><g fill="#000"><path d="m23.3743687 7.6109127c.3905243.3905243.3905243 1.02368927 0 1.41421357l-6.3639611 6.36396103c-.3905243.3905243-1.0236892.3905243-1.4142135 0l-1.4142136-1.4142136c-.3905243-.3905243-.3905243-1.0236892 0-1.4142135l6.363961-6.36396106c.3905243-.39052429 1.0236893-.39052429 1.4142136 0z" opacity=".3"/><path d="m9.23223305 18.9246212 3.53553395-3.5355339 1.4142135 1.4142136-3.5355339 3.5355339-.018737-.0187371c-2.19329978 1.7710945-5.71543123 1.3556366-8.11299097-1.0419231-2.39755975-2.3975598-2.49761075-5.6042844-.69151452-7.7625823z"/></g></g></svg>