<svg height="24" viewBox="0 0 24 24" width="24" xmlns="http://www.w3.org/2000/svg"><g fill="none" fill-rule="evenodd"><path d="m0 0h24v24h-24z" opacity="0"/><g fill="#000"><path d="m5.28248558 14.4748737 9.19238812-9.19238812c.5857865-.58578644 1.5355339-.58578644 2.1213204 0l2.1213203 2.12132034c.5857865.58578644.5857865 1.53553391 0 2.12132035l-9.19238813 9.19238813c-.58578644.5857865-1.53553391.5857865-2.12132035 0l-2.12132034-2.1213203c-.58578644-.5857865-.58578644-1.5355339 0-2.1213204z"/><path d="m3.51471863 18.363961.70710678-.7071068c.19526214-.1952621.51184463-.1952621.70710678 0l1.41421356 1.4142136c.19526215.1952622.19526215.5118446 0 .7071068l-.70710678.7071068c-.58578644.5857864-1.53553391.5857864-2.12132034 0-.58578644-.5857865-.58578644-1.5355339 0-2.1213204zm14.84924237-14.84924237c.5857865-.58578644 1.5355339-.58578644 2.1213204 0 .5857864.58578643.5857864 1.5355339 0 2.12132034l-.7071068.70710678c-.1952622.19526215-.5118446.19526215-.7071068 0l-1.4142136-1.41421356c-.1952621-.19526215-.1952621-.51184464 0-.70710678z" opacity=".3"/></g></g></svg>