<svg height="24" viewBox="0 0 24 24" width="24" xmlns="http://www.w3.org/2000/svg"><g fill="none" fill-rule="evenodd"><path d="m0 0h24v24h-24z" opacity="0"/><g fill="#000"><path d="m2 9h10c.5522847 0 1 .44771525 1 1v3c0 2.209139-1.790861 4-4 4h-4c-2.209139 0-4-1.790861-4-4v-3c0-.55228475.44771525-1 1-1z"/><path d="m14.9984604 9.44452998 6.5038491-.36132495c.7824742-.04347079 1.452035.55560988 1.4955058 1.33808417.0014562.0262117.0021847.0524587.0021847.0787108 0 .7836808-.6352989 1.4189797-1.4189797 1.4189797-.0262521 0-.0524991-.0007285-.0787108-.0021847l-6.5038491-.361325c-.5601736-.0311207-.9984604-.4944327-.9984604-1.05547 0-.56103732.4382868-1.02434927.9984604-1.05547002z" opacity=".3"/></g></g></svg>