<svg height="24" viewBox="0 0 24 24" width="24" xmlns="http://www.w3.org/2000/svg"><g fill="none" fill-rule="evenodd"><path d="m0 0h24v24h-24z" opacity="0"/><g fill="#000"><path d="m8.52512627 14.5606602 1.41421356 1.4142135c.39052427.3905243.39052427 1.0236893 0 1.4142136l-4.94974747 4.9497475c-.39052429.3905243-1.02368927.3905243-1.41421356 0l-1.41421356-1.4142136c-.3905243-.3905243-.3905243-1.0236893 0-1.4142136l4.94974746-4.9497474c.3905243-.3905243 1.02368927-.3905243 1.41421357 0z" opacity=".3"/><path d="m11.3535534 11.732233-2.12132035-2.1213203c-.78104859-.78104858-.78104859-2.04737854 0-2.82842712l4.24264065-4.24264069c.7810486-.78104858 2.0473786-.78104858 2.8284272 0l5.6568542 5.65685425c.7810486.78104858.7810486 2.04737856 0 2.82842716l-4.2426407 4.2426407c-.7810486.7810485-2.0473785.7810485-2.8284271 0l-2.1213203-2.1213204-2.1213204 2.1213204-1.41421355-1.4142136zm3.8890873-7.42462116-4.2426407 4.24264069.7071068.70710678 4.2426407-4.24264068zm2.1213203 2.12132035-4.2426407 4.24264071.7071068.7071068 4.2426407-4.24264073zm2.1213204 2.12132034-4.2426407 4.24264067.7071068.7071068 4.2426407-4.24264069z"/></g></g></svg>