<svg height="24" viewBox="0 0 24 24" width="24" xmlns="http://www.w3.org/2000/svg"><g fill="none" fill-rule="evenodd"><path d="m0 0h24v24h-24z" opacity="0"/><g fill="#000"><path d="m8.61257411 18h5.99999999l.5612574 1.6837722c.1746478.5239434-.1085122 1.0902633-.6324555 1.2649111-.1019665.0339888-.2087457.0513167-.3162278.0513167h-5.2251482c-.55228475 0-1-.4477153-1-1 0-.1074821.01732788-.2142613.0513167-.3162278z" opacity=".3"/><path d="m21 9v1c0 4.9705627-4.0294373 9-9 9-4.97056275 0-9-4.0294373-9-9v-1h-1c-.55228475 0-1-.44771525-1-1s.44771525-1 1-1h20c.5522847 0 1 .44771525 1 1s-.4477153 1-1 1zm-15 2c.55228475 0 1-.4477153 1-1 0-.55228475-.44771525-1-1-1s-1 .44771525-1 1c0 .5522847.44771525 1 1 1zm2 3c.55228475 0 1-.4477153 1-1s-.44771525-1-1-1-1 .4477153-1 1 .44771525 1 1 1zm2 3c.5522847 0 1-.4477153 1-1s-.4477153-1-1-1c-.55228475 0-1 .4477153-1 1s.44771525 1 1 1zm4 0c.5522847 0 1-.4477153 1-1s-.4477153-1-1-1-1 .4477153-1 1 .4477153 1 1 1zm-2-3c.5522847 0 1-.4477153 1-1s-.4477153-1-1-1-1 .4477153-1 1 .4477153 1 1 1zm4 0c.5522847 0 1-.4477153 1-1s-.4477153-1-1-1-1 .4477153-1 1 .4477153 1 1 1zm-6-3c.5522847 0 1-.4477153 1-1 0-.55228475-.4477153-1-1-1-.55228475 0-1 .44771525-1 1 0 .5522847.44771525 1 1 1zm4 0c.5522847 0 1-.4477153 1-1 0-.55228475-.4477153-1-1-1s-1 .44771525-1 1c0 .5522847.4477153 1 1 1zm4 0c.5522847 0 1-.4477153 1-1 0-.55228475-.4477153-1-1-1s-1 .44771525-1 1c0 .5522847.4477153 1 1 1z"/></g></g></svg>