<svg height="24" viewBox="0 0 24 24" width="24" xmlns="http://www.w3.org/2000/svg"><g fill="none" fill-rule="evenodd"><path d="m0 0h24v24h-24z" opacity="0"/><path d="m9.37867966 12.9142136.70710674.7071067c.3905243.3905243.3905243 1.0236893 0 1.4142136l-4.94974743 4.9497475c-.39052429.3905243-1.02368927.3905243-1.41421356 0l-.70710678-.7071068c-.3905243-.3905243-.3905243-1.0236893 0-1.4142136l4.94974746-4.9497474c.3905243-.3905243 1.02368927-.3905243 1.41421357 0z" fill="#000" opacity=".3"/><path d="m11.1464466 11.8535534c1.7573593 1.7573593 4.6066017 1.7573593 6.363961 0 1.7573594-1.7573593 3.5251263-6.37436868 1.767767-8.13172799-1.7573593-1.75735932-6.3743687.01040764-8.131728 1.76776695s-1.7573593 4.60660174 0 6.36396104z" fill="#000"/><path d="m17.6252814 5.50664746c.9579496 1.11268523-.0918864 3.81977514-1.135669 4.86355764-.9986956.9986956-2.5788006 1.061627-3.6507695.1887941z" fill="#fff"/></g></svg>