<svg height="24" viewBox="0 0 24 24" width="24" xmlns="http://www.w3.org/2000/svg"><g fill="none" fill-rule="evenodd"><path d="m0 0h24v24h-24z" opacity="0"/><g fill="#000"><path d="m3 3h18c.5522847 0 1 .44771525 1 1v7c0 .5522847-.4477153 1-1 1h-18c-.55228475 0-1-.4477153-1-1v-7c0-.55228475.44771525-1 1-1zm2 5c-.55228475 0-1 .44771525-1 1s.44771525 1 1 1h14c.5522847 0 1-.44771525 1-1s-.4477153-1-1-1z"/><path d="m17.2914283 14.2943612 1.4171434 1.4112776c-1.0473786 1.0517318-1.0438496 2.753397.0078822 3.8007756.0900625.0896897.1863741.1728774.2882097.2489366l.5937368.4434518-1.1968008 1.6023944-.5937368-.4434518c-.1776185-.1326602-.3456023-.2777536-.5026866-.4341877-1.8343985-1.8268057-1.8405536-4.7947981-.0137479-6.6291965zm-6 1 1.4171434 1.4112776c-1.0473786 1.0517318-1.0438496 2.753397.0078822 3.8007756.0900625.0896897.1863741.1728774.2882097.2489366l.5937368.4434518-1.1968008 1.6023944-.5937368-.4434518c-.1776185-.1326602-.3456023-.2777536-.5026866-.4341877-1.83439845-1.8268057-1.8405536-4.7947981-.0137479-6.6291965zm-5.99999998-1 1.41714336 1.4112776c-1.04737857 1.0517318-1.04384959 2.753397.00788221 3.8007756.09006249.0896897.18637415.1728774.28820974.2489366l.59373676.4434518-1.19680078 1.6023944-.59373677-.4434518c-.17761853-.1326602-.34560237-.2777536-.50268662-.4341877-1.83439847-1.8268057-1.84055362-4.7947981-.0137479-6.6291965z" fill-rule="nonzero" opacity=".3"/></g></g></svg>