<svg height="24" viewBox="0 0 24 24" width="24" xmlns="http://www.w3.org/2000/svg"><g fill="#000" fill-rule="evenodd"><path d="m17.2024293 13h-2.2024293c-.5522847 0-1 .4477153-1 1s.4477153 1 1 1h1.6419082l-.6407536 2.2862783c-.120994.4317183-.514546.7301368-.9628987.7301368l-7.06956024.0000006c-.64579711 0-1.31246277-1.4376532-1.999997-4.3129595-1.14695618-.7550321-2.96869866-2.7923049-2.96869866-5.1870411 0-3.03756613 1.32212298-5.5 2.95304434-5.5.02396215 0 .04785764.00053155.07168326.00158868.07584129-.02283743 4.2958021-.02394825 12.6598824-.00333245.0903991.00022281.1803505.01270249.2673959.03709795.5317893.14903995.8420689.70096106.6930289 1.23275029l-.2005209.71548043h-4.4445139c-.5522847 0-1 .44771525-1 1s.4477153 1 1 1h3.8839927l-.5605211 2h-3.3234716c-.5522847 0-1 .44771525-1 1 0 .5522847.4477153 1 1 1h2.7629505zm-10.75721091-1.9835849v-6c-.98434811.5-1.47652216 1.13211866-1.47652216 3 0 2.0798043 1.25470148 3 1.47652216 3z"/><path d="m6 19h10c1.1045695 0 2 .8954305 2 2v1.5c0 .2761424-.2238576.5-.5.5h-13c-.27614237 0-.5-.2238576-.5-.5v-1.5c0-1.1045695.8954305-2 2-2zm5 3c.5522847 0 1-.4477153 1-1s-.4477153-1-1-1-1 .4477153-1 1 .4477153 1 1 1z" opacity=".3"/></g></svg>