<svg height="24" viewBox="0 0 24 24" width="24" xmlns="http://www.w3.org/2000/svg"><g fill="none" fill-rule="evenodd"><path d="m0 0h24v24h-24z" opacity="0"/><g fill="#000"><path d="m23.3743557 18.8971143c-1.2426407 2.1523168-4.9641295 2.330111-8.3121779.3971143-3.3480483-1.9329966-5.0548185-5.2447975-3.8121778-7.3971143 1.2426407-2.15231679 4.9641295-2.33011092 8.3121778-.3971143 3.3480484 1.9329966 5.0548185 5.2447975 3.8121779 7.3971143z" opacity=".3"/><ellipse cx="12.5" cy="9" opacity=".3" rx="4.5" ry="7" transform="matrix(-1 0 0 -1 25 18)"/><path d="m1.25 18.8971143c-1.24264069-2.1523168.46412946-5.4641177 3.81217783-7.3971143 3.34804836-1.93299662 7.06953717-1.75520249 8.31217787.3971143 1.2426406 2.1523168-.4641295 5.4641177-3.81217787 7.3971143-3.34804837 1.9329967-7.06953714 1.7552025-8.31217783-.3971143z" opacity=".3"/></g></g></svg>