<svg height="24" viewBox="0 0 24 24" width="24" xmlns="http://www.w3.org/2000/svg"><g fill="none" fill-rule="evenodd"><path d="m0 0h24v24h-24z" opacity="0"/><g fill="#000"><path d="m21 10h-18v-5c0-.55228475.44771525-1 1-1h16c.5522847 0 1 .44771525 1 1zm-5-4c-.5522847 0-1 .44771525-1 1s.4477153 1 1 1 1-.44771525 1-1-.4477153-1-1-1zm-8 0c.55228475 0 1 .44771525 1 1s-.44771525 1-1 1-1-.44771525-1-1 .44771525-1 1-1zm13 5v10c0 .5522847-.4477153 1-1 1h-16c-.55228475 0-1-.4477153-1-1v-10zm-13 2c-.55228475 0-1 .5223345-1 1.1666667v4.6666666c0 .6443322.44771525 1.1666667 1 1.1666667h8c.5522847 0 1-.5223345 1-1.1666667v-4.6666666c0-.6443322-.4477153-1.1666667-1-1.1666667z"/><path d="m6 3h4c.5522847 0 1 .44771525 1 1h-6c0-.55228475.44771525-1 1-1zm10 0h2c.5522847 0 1 .44771525 1 1h-4c0-.55228475.4477153-1 1-1z" opacity=".3"/></g></g></svg>