<svg height="24" viewBox="0 0 24 24" width="24" xmlns="http://www.w3.org/2000/svg"><g fill="none" fill-rule="evenodd"><path d="m0 0h24v24h-24z" opacity="0"/><g fill="#000"><path d="m4.58533569 12.781583 4.82962913-1.2940953 1.92335448 7.1780567c.3573545 1.3336653-.4341017 2.7045077-1.76776694 3.0618622-1.33366526.3573545-2.70450765-.4341017-3.06186218-1.7677669zm7.79728131 1.6299893c.6668327-.1786773 1.3522539.2170508 1.5309311.8838835l.1294096.4829629c.1786772.6668326-.2170509 1.3522538-.8838835 1.5309311-.6668327.1786772-1.3522539-.2170509-1.5309311-.8838835l-.1294095-.4829629c-.1786773-.6668326.2170508-1.3522538.8838834-1.5309311zm5.617383-8.4115723 3-1v7l-3-1z" opacity=".3"/><path d="m8.44472222 4.77781746 8.55527778 1.22218254v5l-8.71161829 2.4890338c-2.20308253.6294521-4.49930558-.6462273-5.12875774-2.8493099-.10589919-.3706471-.15962397-.75424503-.15962397-1.1397239 0-2.63446713 2.13565758-4.77012471 4.77012471-4.77012471.22571691 0 .45114917.01602098.67459751.04794217zm-1.44472222 6.22218254c1.1045695 0 2-.8954305 2-2s-.8954305-2-2-2-2 .8954305-2 2 .8954305 2 2 2z"/></g></g></svg>