<svg height="24" viewBox="0 0 24 24" width="24" xmlns="http://www.w3.org/2000/svg"><g fill="none" fill-rule="evenodd"><path d="m0 0h24v24h-24z" opacity="0"/><g fill="#000"><path d="m20.1428571 18-1.1428571 2h-17c0-.6790427.04834392-1.346794.14177772-2zm-3.1428571-11h6v2h-6z" opacity=".3"/><path d="m21.2857143 16h-18.70595694c1.72109838-5.7829779 7.07820137-11 13.42024264-11h1.5l5.5 8zm-10.2957648-7.14142136c-.5680288.08114697-.9899495.56762565-.9899495 1.14142136 0 .5522847.4477153 1 1 1h4.5c.8284271 0 1.5-.6715729 1.5-1.5 0-.06155916-.0043694-.12304068-.0130751-.18398114-.10161-.71126984-.7605793-1.2054968-1.4718491-1.10388683zm-3.9899495 5.14142136c.55228475 0 1-.4477153 1-1s-.44771525-1-1-1-1 .4477153-1 1 .44771525 1 1 1z"/></g></g></svg>