<svg height="24" viewBox="0 0 24 24" width="24" xmlns="http://www.w3.org/2000/svg"><g fill="none" fill-rule="evenodd"><path d="m0 0h24v24h-24z" opacity="0"/><g fill="#000"><path d="m18 2c1.6568542 0 3 2.46243388 3 5.5 0 2.39473621-.8348088 4.432009-2.0000025 5.1870411l.0000025 6.3129589h-13v-9.79289322c0-.13260824-.05267842-.2597852-.14644661-.35355339l-1.48041507-1.48041507c-.20362356-.22774262-.18505765-.54381744.02134248-.72731537 2.53219934-2.25114743 4.56735941-3.63310302 6.1055192-4.14582295 1.4160658-.47202194 7.3056973-.53441888 7.4271769-.49841131.0242045-.00105713.0484799-.00158869.0728231-.00158869zm-.5 9c.2253478 0 1.5-1.92019569 1.5-4 0-1.86788133-.5-2.5-1.5-3 0 0 0 8 0 7zm-6.5 4h1c.5522847 0 1-.4477153 1-1s-.4477153-1-1-1h-1v-1h1c.5522847 0 1-.4477153 1-1s-.4477153-1-1-1h-1v-1h1c.5522847 0 1-.44771525 1-1s-.4477153-1-1-1h-1c0-1.1045695.8954305-2 2-2s2 .8954305 2 2v8c0 1.1045695-.8954305 2-2 2s-2-.8954305-2-2z"/><path d="m6 20h13c.5522847 0 1 .4477153 1 1v1h-15v-1c0-.5522847.44771525-1 1-1z" opacity=".3"/></g></g></svg>