<svg height="24" viewBox="0 0 24 24" width="24" xmlns="http://www.w3.org/2000/svg"><g fill="none" fill-rule="evenodd"><path d="m0 0h24v24h-24z" opacity="0"/><g fill="#000"><path d="m8.42265796 7.19586566c-.12990897-.12684331-.1808476-.31414147-.13307489-.48930806l.55323932-2.02854421c.16697296-.61223415.70114919-1.05314977 1.33393401-1.10104549l7.6227385-.5769679 1.0606602 1.06066017c1.0715382 1.07153815 2.5106642 2.69978407 4.3173782 4.88473776.4910678.59387396.5972615 1.41705047.2729878 2.11610727l-2.5585333 5.5155816c-.0715246.1541898-.1687354.2951017-.2874797.416716-.5787509.5927385-1.5284306.6040778-2.1211692.025327zm12.11947764 2.02494962-2.7426407-3.65685425c-.4310946-.57479283-1.2465275-.69128324-1.8213203-.26018862-.0492473.03693549-.0958109.0773199-.1393398.12084879-.5857865.58578644-.5857865 1.53553391 0 2.12132035l3.1819805 3.18198055c.3905243.3905243 1.0236893.3905243 1.4142135 0 .4057349-.4057349.4513842-1.04807026.1071068-1.50710682z"/><path d="m10.3766771 14.2317944 1.6634647 1.6634648c.6124709.6124708.6124709 1.6054822 0 2.2179531l-3.32692952 3.3269295c-.61247083.6124708-1.60548223.6124708-2.21795305 0l-4.43590609-4.4359061c-.61247082-.6124708-.61247082-1.6054822 0-2.217953l3.32692957-3.3269296c.61247082-.6124708 1.60548222-.6124708 2.21795304 0l1.66346479 1.6634648 1.66346476-1.6634648 1.1089765 1.1089765zm-3.04968548 5.8221268 3.32692958-3.3269296-.5544883-.5544883-3.32692954 3.3269296zm-1.66346478-1.6634648 3.32692957-3.3269296-.55448826-.5544882-3.32692957 3.3269295zm-1.66346479-1.6634648 3.32692957-3.3269296-.55448826-.5544882-3.32692957 3.3269295z" opacity=".3"/></g></g></svg>