<svg height="24" viewBox="0 0 24 24" width="24" xmlns="http://www.w3.org/2000/svg"><g fill="none" fill-rule="evenodd"><path d="m0 0h24v24h-24z" opacity="0"/><g fill="#000"><path d="m9 13h6l5.4472136 2.7236068c.338784.169392.5527864.5156551.5527864.8944272v3.381966c0 .5522847-.4477153 1-1 1h-16c-.55228475 0-1-.4477153-1-1v-3.381966c0-.3787721.21400238-.7250352.5527864-.8944272zm1-11h4zm8 17c.5522847 0 1-.4477153 1-1s-.4477153-1-1-1-1 .4477153-1 1 .4477153 1 1 1zm-3 0c.5522847 0 1-.4477153 1-1s-.4477153-1-1-1-1 .4477153-1 1 .4477153 1 1 1zm-3 0c.5522847 0 1-.4477153 1-1s-.4477153-1-1-1-1 .4477153-1 1 .4477153 1 1 1z"/><path d="m9 13v-10c0-.55228475.44771525-1 1-1h4c.5522847 0 1 .44771525 1 1v10z" opacity=".3"/></g></g></svg>