<svg height="24" viewBox="0 0 24 24" width="24" xmlns="http://www.w3.org/2000/svg"><g fill="none" fill-rule="evenodd"><path d="m0 0h24v24h-24z" opacity="0"/><g fill="#000"><path d="m7.62302337 5.30262097c.46206465-.30251397 1.08187809-.17317259 1.38439206.28889206.30251397.46206466.17317258 1.08187809-.28889207 1.38439206-1.68383444 1.1024073-2.71852336 2.9743973-2.71852336 5.02409491 0 3.3137085 2.6862915 6 6 6s6-2.6862915 6-6c0-2.00450771-.9891725-3.84030998-2.6124296-4.95301403-.4555357-.31225891-.5716846-.93467946-.2594256-1.39021521.3122589-.45553575.9346794-.57168458 1.3902152-.25942568 2.1616581 1.48176515 3.48164 3.93151563 3.48164 6.60265492 0 4.418278-3.581722 8-8 8s-8-3.581722-8-8c0-2.73147668 1.38056879-5.22924284 3.62302337-6.69737903z" fill-rule="nonzero"/><rect height="10" opacity=".3" rx="1" width="2" x="11" y="3"/></g></g></svg>