<svg height="24" viewBox="0 0 24 24" width="24" xmlns="http://www.w3.org/2000/svg"><g fill="none" fill-rule="evenodd"><path d="m0 0h24v24h-24z" opacity="0"/><path d="m11 3.05492878v1.94507122c0 .55228475.4477153 1 1 1s1-.44771525 1-1v-1.94507122c4.4999505.49744429 8 4.31251757 8 8.94507122 0 4.6325537-3.5000495 8.4476269-8 8.9450712v-1.9450712c0-.5522847-.4477153-1-1-1s-1 .4477153-1 1v1.9450712c-4.49995046-.4974443-8-4.3125175-8-8.9450712 0-4.63255365 3.50004954-8.44762693 8-8.94507122zm-2.5 9.94507122c.82842712 0 1.5-.6715729 1.5-1.5s-.67157288-1.5-1.5-1.5-1.5.6715729-1.5 1.5.67157288 1.5 1.5 1.5zm7 0c.8284271 0 1.5-.6715729 1.5-1.5s-.6715729-1.5-1.5-1.5-1.5.6715729-1.5 1.5.6715729 1.5 1.5 1.5z" fill="#000"/></g></svg>