<svg height="24" viewBox="0 0 24 24" width="24" xmlns="http://www.w3.org/2000/svg"><g fill="none" fill-rule="evenodd"><path d="m0 0h24v24h-24z" opacity="0"/><path d="m5 4h14c.5522847 0 1 .44771525 1 1v14c0 .5522847-.4477153 1-1 1h-14c-.55228475 0-1-.4477153-1-1v-14c0-.55228475.44771525-1 1-1zm4 3c-.55228475 0-1 .44771525-1 1v3c0 .5522847.44771525 1 1 1s1-.4477153 1-1v-3c0-.55228475-.44771525-1-1-1zm3 8c-.8284271 0-1.5.6715729-1.5 1.5v1.5h3v-1.5c0-.8284271-.6715729-1.5-1.5-1.5zm3-8c-.5522847 0-1 .44771525-1 1v3c0 .5522847.4477153 1 1 1s1-.4477153 1-1v-3c0-.55228475-.4477153-1-1-1z" fill="#000"/></g></svg>