<svg height="24" viewBox="0 0 24 24" width="24" xmlns="http://www.w3.org/2000/svg"><g fill="none" fill-rule="evenodd"><path d="m0 0h24v24h-24z" opacity="0"/><g fill="#000"><path d="m6 4c-.55228475 0-1 .44771525-1 1v3h14v-3c0-.55228475-.4477153-1-1-1zm0-2h12c1.6568542 0 3 1.34314575 3 3v15c0 1.6568542-1.3431458 3-3 3h-12c-1.65685425 0-3-1.3431458-3-3v-15c0-1.65685425 1.34314575-3 3-3zm6 19.5c3.3137085 0 6-2.6862915 6-6s-2.6862915-6-6-6-6 2.6862915-6 6 2.6862915 6 6 6zm-5-14.5c.55228475 0 1-.44771525 1-1s-.44771525-1-1-1-1 .44771525-1 1 .44771525 1 1 1zm3 0c.5522847 0 1-.44771525 1-1s-.4477153-1-1-1c-.55228475 0-1 .44771525-1 1s.44771525 1 1 1z" fill-rule="nonzero"/><path d="m12 19.5c2.209139 0 4-1.790861 4-4s-1.790861-4-4-4-4 1.790861-4 4 1.790861 4 4 4z" opacity=".3"/></g></g></svg>