<svg height="96" preserveAspectRatio="none" viewBox="0 0 100 100" xmlns="http://www.w3.org/2000/svg"><g fill="#fff"><path d="m0 0c16.6666667 66.6666667 33.3333333 100 50 100s33.3333333-33.3333333 50-100v100h-100z"/><g fill-opacity=".1"><path d="m0 0c11.1107835 33.3333333 19.4438711 50 24.9992629 50 8.333579 0 16.6671581-50 25.0007371-50s16.6671581 50 25.0007371 50c5.5553918 0 13.8884794-16.6666667 24.9992629-50v100h-100z"/><path d="m0 0c44.4442806 66.6666667 69.4442806 100 75 100 5.5553918 0 13.8887251-33.3333333 25-100v100h-100z"/><path d="m0 0c44.4442806 66.6666667 69.4442806 100 75 100 5.5553918 0 13.8887251-33.3333333 25-100v100h-100z" transform="matrix(-1 0 0 1 100 0)"/></g></g></svg>