<svg fill="none" height="36" viewBox="0 0 180 36" width="180" xmlns="http://www.w3.org/2000/svg"><path d="m20.7942 6.65628-10.3971 6.64012 10.3971 6.6401-10.3971 6.6401-10.3971-6.6954 10.3971-6.6401-10.3971-6.58482 10.3971-6.6401057zm-10.4524 22.02302 10.3971-6.6401 10.3972 6.6401-10.3972 6.6401zm10.4524-8.7981 10.3972-6.6401-10.3972-6.58482 10.3419-6.6401057 10.3971 6.6401057-10.3971 6.64012 10.3971 6.6401-10.3971 6.6401z" fill="#0069fb"/><path d="m49.6628 6.6568h8.4062c5.3645 0 9.7888 3.09872 9.7888 10.1815v1.494c0 7.1381-4.1478 10.3475-9.6229 10.3475h-8.5721zm4.7009 3.9841v13.9995h3.5947c3.0417 0 5.088-1.992 5.088-6.4187v-1.1621c0-4.4267-2.1569-6.4187-5.2539-6.4187zm15.9828.2213h3.7606l.6084 4.1501c.7189-2.8221 2.544-4.3161 5.8622-4.3161h1.1614v4.7587h-1.9357c-3.8159 0-4.7561 1.3281-4.7561 5.0908v8.1895h-4.6455v-17.873zm12.3327 9.2962v-.4981c0-5.9761 3.816-9.2408 9.0146-9.2408 5.3091 0 9.0142 3.2647 9.0142 9.2408v.4981c0 5.8654-3.5945 9.0194-9.0142 9.0194-5.7516-.0553-9.0146-3.154-9.0146-9.0194zm13.273-.0554v-.4427c0-3.32-1.6592-5.312-4.3137-5.312-2.5993 0-4.3137 1.826-4.3137 5.312v.4427c0 3.2094 1.6591 5.0354 4.3137 5.0354 2.6545-.0553 4.3137-1.826 4.3137-5.0354zm7.1898-9.2408h3.871l.442 3.3754c.941-2.2687 2.931-3.8181 5.863-3.8181 4.534 0 7.521 3.2647 7.521 9.2962v.498c0 5.8654-3.318 8.9641-7.521 8.9641-2.821 0-4.757-1.2727-5.697-3.32v9.0195h-4.535zm12.996 9.2408v-.3873c0-3.5414-1.825-5.3121-4.258-5.3121-2.6 0-4.314 1.992-4.314 5.3121v.332c0 3.154 1.659 5.1461 4.258 5.1461 2.655-.0554 4.314-1.7707 4.314-5.0908zm11.559 5.3121-.388 3.2647h-3.981v-23.79369h4.534v9.13019c.996-2.3241 2.987-3.5968 5.807-3.5968 4.259.0554 7.411 2.9881 7.411 8.9088v.5534c0 5.9207-2.986 9.2961-7.521 9.2961-2.987-.0553-4.922-1.4387-5.862-3.7627zm8.627-5.5334v-.4427c0-3.2647-1.77-5.0907-4.258-5.0907-2.544 0-4.314 2.0473-4.314 5.146v.3874c0 3.32 1.714 5.2567 4.258 5.2567 2.71 0 4.314-1.7153 4.314-5.2567zm6.747.2767v-.4981c0-5.9761 3.816-9.2408 9.015-9.2408 5.309 0 9.014 3.2647 9.014 9.2408v.4981c0 5.8654-3.65 9.0194-9.014 9.0194-5.752-.0553-9.015-3.154-9.015-9.0194zm13.328-.0554v-.4427c0-3.32-1.659-5.312-4.313-5.312-2.6 0-4.314 1.826-4.314 5.312v.4427c0 3.2094 1.659 5.0354 4.314 5.0354 2.654-.0553 4.313-1.826 4.313-5.0354zm10.785-.664-6.25-8.5768h5.365l3.594 5.3674 3.65-5.3674h5.31l-6.36 8.5215 6.691 9.2961h-5.253l-4.093-5.9207-3.982 5.9207h-5.475z" fill="#000"/></svg>