<svg fill="none" height="48" viewBox="0 0 48 48" width="48" xmlns="http://www.w3.org/2000/svg"><path d="m44.2704 43.5953c-.1535.1523-.3453.2284-.5754.2284-.2302 0-.422-.0761-.5754-.2284-.1535-.1522-.2302-.3424-.2302-.5707 0-.2284.0767-.4377.2493-.5899.1535-.1522.3453-.2093.5563-.2093.2301 0 .4219.0761.5754.2284.1534.1522.2301.3424.2301.5708.0192.2283-.0575.4185-.2301.5707zm-1.0358-1.0464c-.1342.1332-.1918.2854-.1918.4566 0 .1903.0576.3425.1918.4757.1343.1332.2877.1903.4795.1903s.3453-.0571.4795-.1903c.1343-.1332.1919-.2854.1919-.4757 0-.1712-.0576-.3425-.1919-.4566-.1342-.1332-.2877-.2093-.4795-.2093-.1918.019-.3452.0761-.4795.2093zm.7289.8752c-.0767.0571-.1535.0761-.2302.0761-.1151 0-.2301-.038-.326-.1332-.0959-.0951-.1343-.2093-.1343-.3424 0-.1332.0384-.2474.1151-.3425.0767-.0952.1918-.1332.326-.1332.0768 0 .1535.019.2302.0571.0959.057.1726.1522.1918.3044h-.211c-.0192-.0571-.0383-.1142-.0767-.1332s-.0767-.038-.1151-.038c-.0575 0-.1151.019-.1534.0761-.0384.057-.0576.1331-.0576.2283 0 .0951.0192.1712.0576.2093.0383.038.0959.0761.1534.0761.0576 0 .0959-.0191.1343-.0381l.0575-.1141h.1918c-.0192.1141-.0767.1902-.1534.2473zm2.0331-8.4477c0-.0762-.0192-.1523-.0192-.2284 0-.057-.0192-.0951-.0192-.1332-.0191-.1141-.0383-.2092-.0767-.3234-.0767-.2093-.1918-.4186-.3452-.5898-.1535-.1713-.3261-.3044-.4987-.3996-.1918-.0951-.3836-.1522-.5371-.1902-.0575 0-.0959-.0191-.1342-.0191.211-.9132-.0576-1.6172-.2302-1.9407l.0384-.038c.2301-.2283.4219-.4376.5946-.6469l.0383-.0381c.1343-.1902.211-.3805.2685-.5517.0384-.1523.0768-.2854.0768-.4186v-.1142-.0761-.1712c-.0192-.2854-.0576-.6469-.2494-1.0465-.0959-.1902-.2301-.3995-.4028-.5898-.1726-.1903-.3836-.3615-.6329-.4947-.0192-.019-.0384-.019-.0576-.038-.5178-.7421-1.0932-1.3319-1.6111-1.7695-.2685-.2283-.5179-.4186-.7289-.5708-.2109-.1522-.3836-.2664-.4795-.3425-.2301-.1712-.4028-.2663-.4795-.3044-.1918-.1142-.326-.2093-.4028-.2664-.0575-.0571-.0959-.0761-.115-.0951 0 0 0-.019-.0192-.0571-.0192-.0571-.0192-.1332-.0192-.2664 0-.1902 0-.4756.0192-.8561.0383-.6089.0959-1.427.1726-2.5496.0192-.3615.0192-.704.0192-1.0084-.0192-.5137-.0959-.9703-.1918-1.3889-.0192-.0952-.0576-.1903-.0767-.2854-.0192-.0761-.0384-.1142-.0576-.1522-.0192-.0571-.0383-.1142-.0767-.1903-.0192-.0381-.0192-.0761-.0575-.1142-.0384-.0951-.0768-.1902-.1343-.2854l-.0192-.019-.0192-.0571-.0192-.038c-.0959-.1713-.2109-.3235-.326-.4567-.0576-.2663-.1535-.6469-.3261-1.0845-.1534-.3805-.3452-.7991-.6329-1.2177-.0959-.1522-.211-.2854-.3261-.4185l.0384-.0381c.0575-.0571 1.4001-1.465 2.4742-3.29157 1.9756-3.40574 1.3235-5.47963.422-6.62122l-.0192-.03805-.0192-.03805c-.8631-.95133-2.0523-1.52212-3.4908-1.71238-3.0113-.38053-6.4254 1.10353-7.3269 1.52211l-1.6495-1.78848c-.1534-.152217-.3069-.304429-.4795-.418587-.1726-.114159-.3644-.228318-.5562-.32345-.3836-.171239-.8056-.285398-1.2659-.3424769-.9015-.1141589-1.9372 0-3.0497.2853969-1.6687.418583-3.5292 1.255747-5.4856 2.416367-1.9564 1.16061-3.9895 2.6637-5.9651 4.45219-2.41668 2.16902-4.41143 4.4712-5.86914 6.6783-.72885 1.0845-1.32344 2.15-1.76459 3.1774-.44114 1.0084-.72885 1.9788-.84393 2.854-.07672.6469-.07672 1.2557.05754 1.8075.05754.2473.13426.4757.24934.704.13427.2854.30689.5517.51787.7801l1.70705 1.7694.19181.1903-.01918.019-.05755.1142c-.03836.0571-.05754.1141-.0959.1522l-.05754.1141c-.01918.0571-.05754.1142-.07672.1713l-.05754.1141c-.01918.0571-.05754.1142-.07672.1713-.01918.038-.03836.0761-.03836.1141l-.05754.1713c-.01918.038-.01918.0761-.03836.1141-.01918.0571-.03837.1142-.05755.1903 0 .019-.01918.0381-.01918.0571s-.01918.038-.01918.0571c-.01918.057-.03836.1331-.05754.1902 0 .0381-.01918.0761-.01918.1142 0 .019-.01918.0571-.01918.0761 0 .038-.01918.0761-.01918.1142 0 .038-.01918.0761-.01918.1141-.01918.0761-.01918.1522-.03836.2474 0 .019 0 .038-.01918.0761v.019c0 .0571-.01918.1141-.01918.1522 0 .0761-.01918.1712-.01918.2473v.9514c0 .038 0 .0761.01918.1141 0 .0381 0 .0952.01918.1522v.0571c0 .0381.01918.0951.01918.1332s.01918.0761.01918.1332c0 .019 0 .038.01918.0571 0 .019.01918.057.01918.0761v.038c0 .0381.01918.0761.03836.1522 0 .0191 0 .0191.01918.0381.01918.038.01918.0761.01918.0951l.01918.0381c0 .019 0 .019.01918.038l.01918.0381v.0571c0 .019 0 .019.01918.038l.01918.0381c0 .038.01919.057.01919.0951.01918.038.01918.0761.03836.1522v-.019.019c0 .019 0 .019.01918.0381.01918.057.03836.0951.03836.1141.01918.0381.03836.0761.05754.1522l.01918.0191c.01918.038.01918.0761.03836.0951l.01918.038c0 .0191.01918.0381.01918.0571s.01918.0571.03836.0761l.01918.0381c.01918.019.01918.0571.03836.0761s.01918.038.01918.0571c.01918.038.03836.0761.05754.1332l.01918.019c.01918.019.01918.038.03836.0571.01918.019.01918.057.03836.0761.01918.019.03836.057.05755.1141l.01918.019c.01918.0191.01918.0381.03836.0571.01918.0381.03836.0571.03836.0761.01918.0191.03836.0571.05754.0952v.019c.01918.019.01918.038.03836.0571.01918.038.03836.0571.05754.0761s.03836.0571.07672.1141c.01918.0191.03836.0381.03836.0571.01918.0381.03836.0571.05754.0761.01918.0191.03836.0571.05754.0952.01918.019.03836.057.05754.0761.01918.038.03837.057.07673.0761l.05754.057.01918.0191c.03836.038.05754.0761.0959.1141l.03836.0381.05754.0571.11508.1141.03836.0381.05754.0571.01918.019c.03837.038.09591.0761.13427.1332l.01918.019c.01918.019.03836.019.05754.0571.05754.0571.11508.0951.17262.1522l.03836.019.01918.019.03836.0191c.05754.038.0959.0761.15345.1141l.01918.0191c.01918.019.03836.019.03836.019l.03836.038c.03836.0381.07672.0571.11508.0952l.03836.019.03836.038.01918.0191c.03836.019.0959.057.13426.0761.01918.019.03836.038.07672.038l.03837.0191.01918.019h.01918c.07672.038.13426.0761.1918.1141l.03836.0191.23016.1141h.01918l.03836.0191.11509.057c.01918 0 .03836.0191.05754.0191.01918.019.03836.019.07672.038h.01918c.03836.019.07672.0381.11508.0381h.01918c.03836.019.07672.038.13426.057h.01918l.03836.0191c.01918 0 .03837.019.05755.019h.01918c.05754.019.11508.038.1918.0571h.01918c.0959.038.1918.0571.2877.0761h.01919c.07672.019.17262.038.24938.0571h.0767c.0767.019.1534.038.2301.038h.0768c.0575 0 .0959.019.1534.019 0 .0191.0192.0381.0192.0571.1343.3615.2685.723.422 1.0655 2.2632 6.2217 8.5352 11.0544 15.6895 11.9486 7.1542.8752 14.8072-3.8433 17.9144-10.2172.1343-.2473.2493-.4757.3644-.723.3069-.3234.5563-.6469.7097-.9894.2493-.2093.3069-.6278.2877-.9893zm-39.72247-2.4735h.01918z" fill="#664f44"/><path d="m39.8781 3.84904c-.3453-.38053-.748-.66593-1.1892-.87522-.0767-.03805-.1534-.05708-.2493-.07611-.0384-.01902-.0768-.05708-.1151-.0761-.3836-.15221-.7864-.24735-1.2084-.30443-2.0715-.26637-4.4498.49469-5.7924 1.02743-.0768.03806-.1535.05708-.2302.09514-.1151.05708-.2302.09513-.3452.15221-.1919.0761-.3837.17124-.5946.26637-.0384.01903-.0576.01903-.0959.03805l-.3645-.41858-.1726-.19027-.1534-.17123-.0576-.07611-1.4001-1.59822-.1151-.13319-.1535-.17124h-.0191l-.4028.09514-.4604.09513c-.2493-.11416-.5562-.19027-.9014-.24735-.6905-.09513-1.5728 0-2.5702.24735-.9974.24734-2.129.68495-3.3182 1.27477-2.3975 1.17964-5.0444 2.98716-7.6146 5.30839-.9015.79911-1.7262 1.63627-2.49343 2.45443-.74803.7991-1.41934 1.6172-2.03311 2.3973-1.24672 1.6173-2.18656 3.1774-2.80033 4.5854-.40279.9323-.65213 1.7885-.74803 2.5305-.07673.5328-.05754 1.0084.03836 1.389.03836.1331.07672.2283.11508.3424.0959.2283.21098.4186.36443.5898l1.5536 1.6173.17262.1712.01919-.019c.03836-.0571.0959-.1141.15344-.1522l.01918-.019.05754-.0571c.03836-.0571.0959-.0951.13426-.1522.03836-.0381.05754-.0571.0959-.0761.03836-.0191.05754-.0571.0959-.0761l.03837-.0381c.03836-.019.05754-.0571.0959-.0761.03836-.038.0959-.0761.13426-.1141.01918-.0191.05754-.0381.07672-.0571h.01918c.05754-.0381.0959-.0761.15344-.1142.03836-.019.05754-.038.09591-.0761.05754-.038.0959-.0761.15344-.1142.03836-.019.05754-.038.0959-.057.05754-.0381.11508-.0761.17262-.0952.03836-.019.05754-.038.0959-.057.05755-.0381.11509-.0571.17263-.0952.03836-.019.05754-.038.0959-.0571l.03836-.019c.05754-.019.0959-.0571.15344-.0761.01918-.019.05754-.019.07672-.038.03836-.0191.07673-.0381.13427-.0571l.11508-.0571.03836-.019.2877-.1142c.03836-.019.05754-.019.09591-.038.03836-.0191.05754-.0191.0959-.0381l.03836-.019c.01918 0 .03836-.019.05754-.019.03836-.0191.07672-.0191.13426-.0381h.03836c.05754-.019.0959-.019.15344-.038.03836-.0191.09593-.0191.13423-.0381.0576-.019.1151-.019.1727-.0381.0191 0 .0383-.019.0767-.019.0192 0 .0575 0 .0767-.019.0575-.019.1151-.019.1726-.019.0576 0 .0959-.0191.1535-.0191.0383 0 .0767-.019.115-.019h.1535c.1918 0 .422 0 .6521.019h.0384c.2301.0191.4987.0571.7672.1142.0575.019.1343.019.1918.0381.0192-.0191.0192-.0571.0384-.0762.1534-.2473.2877-.5137.4411-.761.8631-1.427 1.7838-2.6827 2.7236-3.7863.3261-.3805.6521-.723.9782-1.0655 1.3618-1.4079 2.7236-2.4924 3.9512-3.3296.2685-.1903.5562-.3615.8055-.5327.3645-.2284.7097-.4186 1.0358-.6089.2685-.1522.5178-.2854.7672-.3995.4028-.2093.7672-.3806 1.0933-.5138l.2877-.1141c.1342-.0571.2685-.1142.3836-.1522-.0959-.0191-.211-.0191-.3069-.0191h-.3836c-.0959 0-.211 0-.3069.0191-.1918.019-.4028.038-.6138.0571-.0767.019-.1342.019-.211.038.5179-.2664 1.0358-.4566 1.5153-.6088.3261-.0952.6521-.1713.959-.2284.422-.07606.8248-.13314 1.1892-.15217.2493-.01903.4795-.01903.6905-.01903s.4219.01903.5946.01903c.6329.03805 1.0165.13317 1.0165.13317-.0959-.13317-.211-.2283-.326-.32344-.2302-.17123-.4795-.28539-.7097-.38052-.0959-.03806-.1726-.05708-.2494-.09514-.0575-.01902-.115-.03805-.1534-.03805.1151-.01903.211-.03805.3069-.03805.1151-.01903.211-.01903.3261-.03806.9014-.0761 1.707 0 2.3016.09514.7097.13318 1.1508.30442 1.1508.30442-.0959-.19026-.2493-.3615-.422-.51371-.115-.09514-.2493-.19027-.3644-.26638.2494.05708.4603.11416.6905.19027.5754.17124 1.0549.38053 1.4385.55177l.3453.17124c.0383.01902.0575.03805.0767.03805.3453.19026.5371.32345.5371.32345-.0576-.20929-.1727-.39956-.3261-.5708-.0384-.03805-.0767-.09513-.1151-.13318h.0192c.0192 0 .0383.01903.0767.01903.0192 0 .0575.01902.0959.03805.1535.05708.3836.15221.6521.2854.0192 0 .0192.01902.0384.01902l.1151.05708c.0959.05708.1918.09513.2877.17124l.2877.17127c.0575.038.0959.057.1534.0951.0959.0761.211.1522.3069.2473.1151.0952.211.1903.3069.2854l.0575.0571c.0768.0761.1535.1522.211.2283.1343.1523.2494.3235.3645.4947.1342.2093.2301.4567.326.704 0 .019 0 .0381.0192.0381.0575-.0571.1726-.1713.3069-.3235 1.1124-1.2938 4.4498-5.47962 2.4359-8.02916z" fill="#132134"/><path d="m44.8458 35.1095s.0383-.2854-.1151-.5517c0-.0191-.0192-.0381-.0192-.0381l-.0192-.019-.0575-.0571c-.0384-.038-.0767-.0761-.1343-.1141-.0191-.0191-.0575-.0381-.0959-.0571-.0959-.0381-.1918-.0761-.326-.0952-.0959-.019-.1918-.019-.3069-.019h-.1535v.0381c0 .019.0192.038.0192.0761 0 .019 0 .038.0192.038.0192.0571.0384.1522.0575.2283 0 0 0 .0191-.0191.0571v.0191c-.0576.1331-.211.4376-.5563.8181-.0575.0761-.115.1332-.1918.2093-.959.9894-3.0305 2.3783-7.4036 3.1584-1.4769.2093-2.8578.2283-4.0087.0761-1.7262-.2093-3.0113-.7611-3.625-1.5031-.0576-.0571-.0959-.1332-.1535-.1903-.0383-.0571-.0575-.0951-.0959-.1522-.0192-.019-.0192-.038-.0383-.0571-.2494-.4566-.3645-.9513-.3645-1.427 0-.5898.1918-1.1415.4987-1.5601.2494-.3425.5754-.6089.9782-.723.1918-.0571.4028-.0952.6138-.0761.0383 0 .0959 0 .1726.019.1343.019.3452.038.5946.0761.0192 0 .0575 0 .0767.019.8248.0952 2.129.2283 3.7018.1332 2.8771-.1712 6.6556-1.0655 10.0889-4.1478v-.019c.0192-.2664-.0192-.723-.3453-1.0845-.0575-.0571-.1151-.1142-.1918-.1712-.0383-.0381-.0959-.0571-.1342-.0952-.0576-.019-.0959-.057-.1343-.0761l-.1726-.1141v-.0191c-.0192-.038-.0384-.0761-.0767-.1141-.8823-1.3319-2.1099-2.112-2.6086-2.4735-.2301-.1712-.3836-.2473-.3836-.2473-1.0549-.6469-1.2083-.8562-1.1124-2.5876.0383-.6279.0959-1.446.1726-2.5686 0-.1522.0192-.2854.0192-.4186v-.0951-.4566c0-.0952-.0192-.1903-.0192-.2664 0-.0381 0-.0761-.0192-.1142-.0192-.0951-.0192-.1902-.0384-.2854 0-.038-.0191-.0951-.0191-.1331 0-.0571-.0192-.0952-.0384-.1523-.0192-.038-.0192-.0951-.0384-.1331-.0191-.0571-.0383-.1142-.0383-.1713 0-.019-.0192-.038-.0192-.0571 0-.019-.0192-.038-.0192-.057v-.0191l-.0192-.057c-.0191-.0381-.0383-.0761-.0383-.1142v-.019l-.0192-.0381-.0192-.038c-.0383-.0761-.0575-.1522-.0959-.2093l-.0192-.0571c-.0383-.0571-.0767-.1332-.115-.1903l-.0192-.019-.0192-.019c-.0384-.0381-.0575-.0761-.0959-.1142l-.0384-.0571c-.0383-.057-.0767-.0951-.115-.1331v-.1523c-.0192-.0761-.0384-.1712-.0576-.2663 0-.0191-.0192-.0571-.0192-.0761v-.0191c0-.038-.0191-.057-.0191-.0951-.0192-.0761-.0384-.1522-.0768-.2283 0-.019-.0192-.0571-.0192-.0761l-.0575-.1713c-.0192-.038-.0192-.0761-.0384-.0951-.0191-.0571-.0383-.1141-.0767-.1712l-.0575-.1142c-.0192-.0571-.0576-.1141-.0767-.1712l-.0576-.1142c-.0383-.0571-.0575-.1141-.0959-.1712l-.0575-.1142c-.0384-.0571-.0767-.1141-.1151-.1902-.0192-.0381-.0384-.0571-.0575-.0952-.0192-.019-.0384-.0571-.0576-.0761-.0575-.0571-.0959-.1141-.1534-.1712l-.0384-.019c-.0767-.0762-.1343-.1523-.211-.2093l-.0192-.0191c-.0383-.019-.0767-.057-.0959-.0761h-.0191c-.0384-.019-.0576-.038-.0959-.057l-.0192-.0191c-.0384-.019-.0959-.0571-.1726-.0951-.0192-.019-.0576-.019-.0959-.0381-.1727-.057-.3836-.1331-.6522-.2092-.0192 0-.0383-.0001-.0575-.0191-.211-.0571-.4603-.1141-.7289-.1522-.0959-.019-.1726-.019-.2685-.038-.0384 0-.0767 0-.1343-.0191h-.0575c-.211-.019-.4028-.038-.6138-.038h-.0191c-.2686 0-.5371.019-.7864.0761.0575-.0951.2301-.2093.3836-.3044.211-.1142.4028-.1903.4028-.1903-.1151 0-.2302.019-.3453.0381-.0384 0-.0767.019-.1151.019-.0192 0-.0575 0-.0767.019h-.0192c-.0192 0-.0383 0-.0575.019-.5946.1332-1.17.3425-1.4961.4757l-.1151.0571h-.0191c-.0384 0-.0576 0-.0959.019.2301-.4376.5754-.6659.8439-.7801.0383-.019.0959-.038.1343-.0571.0191 0 .0191 0 .0383-.019.0384-.019.0767-.019.0959-.038.0576-.0191.0959-.0191.0959-.0191h-.3069c-.6521.0761-1.2467.2854-1.7454.5708-.3452.1903-.6521.3996-.9206.6089-.0768.019-.1343.038-.211.038-.7289.1522-1.5536.3425-2.4167.6089-.3261.0951-.6522.2093-.9782.3234-.2494.0951-.5179.1903-.7673.2854-.1918.0761-.3644.1522-.5562.2283-1.3234.5899-2.6469 1.3699-3.7401 2.4164l-.1151.1142-.2877.2854-.1151.1141c-.0384.0571-.0959.1142-.1343.1522-.211.2283-.4028.4757-.5946.7421-.1342.1902-.2685.3995-.3836.6088l-.0192.019c-.2493.4376-.4795.8943-.6521 1.408-.0959.2473-.1726.5137-.2493.7801-.0192.0761-.0384.1332-.0576.2093l-.0192.038c-.0767.2854-.1342.5898-.1726.8943 0 .057-.0192.1141-.0192.1902-.0191.1522-.0383.3044-.0383.4757-.0192.1522-.0192.2854-.0192.4376v.5898c0 .1713 0 .3425.0192.5137v.0191c0 .1712.0192.3424.0383.5327 0 .0761.0192.1522.0192.2283v.0571c0 .038 0 .0761.0192.1332.0192.1902.0575.3995.0767.6088 0 .0571.0192.1142.0192.1713.0384.1712.0575.3615.0959.5327 0 0-.0384-.2283-.0192-.5708 0-.0761.0192-.1712.0192-.2473.0192-.1903.0576-.4186.1343-.6279l.0575-.1712c0-.0191.0192-.0381.0384-.0761.0383-.0952.0959-.2093.1534-.3045.0192.0761.0192.1522.0384.2093v1.0084c.0192.6469.0767 1.427.211 2.0929 0 0 .0191-1.1986.2301-1.3508 0 0 .3645 2.2451.6905 3.0822.0384.1142.0959.1903.1343.2474v-.2283l-.0384-1.2368v-.1331c.2494.5137.5371 1.0274.8631 1.5792.0959.1522.1727.3044.2686.4566-.6138.5327-1.1892 1.3128-1.6112 2.2261-.0575.1522-.1343.3044-.1918.4566-.0384.0952-.0575.1713-.0959.2664 0 .019-.0192.0571-.0192.0761-.0192.0571-.0383.1332-.0575.1903 0 .038-.0192.0571-.0192.0951-.0192.0571-.0384.1332-.0575.1903 0 .038-.0192.057-.0192.0951l-.0576.2854c-.0191.0951-.0383.1903-.0383.2854 0 .038 0 .0571-.0192.0951 0 .0761-.0192.1332-.0192.2093 0 .0381 0 .0761-.0192.1142 0 .0761-.0191.1332-.0191.2093v.6659c0 .0761 0 .1522.0191.2473v.0571c0 .0952.0192.1903.0384.3044 0 .0381 0 .0571.0192.0952 0 .0761.0192.1332.0383.2093 0 .038.0192.0761.0192.1141.0192.0571.0192.1332.0384.1903 0 .038.0192.0761.0192.1142.0191.057.0383.1141.0383.1902.0192.0381.0192.0761.0384.1332s.0383.1332.0575.1903c.0192.038.0192.0761.0384.1141.0192.0571.0383.1332.0575.1903.0192.038.0192.0761.0384.1141.0192.0762.0575.1523.0767.2093.0192.0381.0192.0571.0384.0952l.2877.6278c.0192.0381.0383.0571.0575.0952l.1151.2283c.0192.038.0384.0761.0767.1142.0384.057.0767.1331.1151.1902.0192.0381.0575.0761.0767.1142.0384.0571.0767.1332.1343.1902.0383.0381.0575.0761.0959.1332.0383.0571.0959.1332.1342.1903.0384.038.0576.0761.0959.1332.0576.0571.096.1332.1535.1902.0384.0381.0575.0761.0959.1142.0575.0761.1151.1332.1918.2093l.0959.0951c.0959.0952.1918.2093.2877.3044 0 0-.0575-.0761-.1343-.2283-.0191-.019-.0383-.0571-.0383-.0951l-.0576-.1142c-.0191-.038-.0383-.0761-.0575-.1331-.1534-.3425-.2877-.8372-.2685-1.37l.1726.2284c.0575.1331.1534.3044.2493.4947.0384.057.0768.1331.0959.1902.1535.2664.3069.5708.4987.8562.2302.3615.4604.704.7097 1.0274 0 0-.2877-.6088-.3836-1.0084-.0192-.1141-.0384-.2093-.0192-.2663.0192.019.0384.057.0767.0761.0192.019.0384.0571.0768.0761.0383.0571.0959.1332.1726.2283l.0383.038c.0384.0381.0576.0952.0959.1332.0384.0571.0768.1142.1343.1713.4028.5137.959 1.1986 1.3426 1.5601.1343.1142.2494.2093.3261.2474l-.5562-.9894c1.2659 1.0274 6.5213 2.3403 11.6808.8752.6329-.1712 1.2467-.3995 1.8605-.6659.3644-.1522.7288-.3425 1.0933-.5327l.0575-.0381c.2493-.1332.4987-.2854.748-.4376.1918-.1142.3836-.2473.5563-.3615.3068-.2093.6137-.4376.9206-.685.0192-.019.0384-.038.0576-.038.2877-.2474.5754-.5137.8247-.7801.3453-.3615.6521-.723.9207-1.0845l.0192-.019c.0767-.0952.1342-.1713.1918-.2664l.0191-.019c.0192-.0381.0384-.0571.0576-.0952.0959-.1331.1726-.2473.2685-.3805.0192-.038.0384-.0571.0575-.0951.0384-.0761.0768-.1332.1343-.2093.0384-.0571.0575-.0951.0959-.1522s.0767-.1142.0959-.1713c.0575-.0951.1151-.2093.1726-.3044l.0576-.1141.1151-.2284.0575-.1141.0192-.0381c.0383-.0951.0959-.1902.1342-.2854v-.019c.1727-.1522.2877-.3044.4028-.4376.0192-.019.0384-.0381.0384-.0571.1151-.3615.1918-.6469.1918-.9133zm-30.8612-3.6911c0-.019 0-.038-.0191-.0761-.0576-.3235-.1151-.6659-.1343-1.0084v-.0761c-.0575.019-.1151.0951-.1918.1903-.0192.038-.0576.0761-.0767.1331-.1727.3235-.3261.7801-.3261.7801.0192-.1522.0384-.3044.0384-.4566v-.0571c.0191-.1522.0383-.3234.0575-.4757v-.057c.0192-.1903.0575-.3615.0959-.5328 0-.019 0-.038.0192-.0761v-.019c0-.019 0-.0381.0192-.0571 0-.038.0191-.0571.0191-.0951.0192-.1332.0576-.2664.0768-.3996.0191-.1141.0383-.2283.0575-.3234v-.0381c0-.019 0-.038.0192-.038v-.0381c0-.019.0192-.0571.0192-.0761s0-.038.0191-.0571c0-.038.0192-.0761.0192-.0951s.0192-.0571.0192-.0761c0-.0381.0192-.0761.0192-.0951 0-.0191 0-.0381.0192-.0571 0-.019 0-.0381.0191-.0381 0-.038.0192-.0571.0192-.0761v-.0571l-.0383.0381c-.0384.019-.0576.0571-.0959.0761l-.0384.0381c-.0384.038-.0767.0761-.0959.1141l-.0192.019-.1151.1713-.0191.019c0 .019-.0192.019-.0192.0381l-.0576.1141v.0381c-.0191.0571-.0575.1141-.0767.1712-.0575.1522-.1151.3044-.1534.4376-.0192.0381-.0192.0951-.0384.1142-.0192.0761-.0383.1522-.0383.1712v.019-.019c0-.0571 0-.0951.0191-.1522 0-.0951.0192-.2093.0192-.3044 0-.0761.0192-.1713.0384-.2474 0-.019 0-.057.0192-.0761 0-.038.0191-.0761.0191-.1141 0-.0381.0192-.0761.0192-.1142v-.0571c0-.038.0192-.0951.0192-.1332v-.0951-.038c0-.0191 0-.0381.0192-.0571.0192-.0571.0383-.1332.0383-.1903v-.019c.0192-.0381.0192-.0951.0384-.1332v-.019c.0192-.0952.0575-.1903.0767-.2854v-.0381c0-.019 0-.038.0192-.057.0384-.1523.0959-.3045.1343-.4377v-.019c.0383-.1141.0959-.2473.1342-.3615v-.019c.0192-.0571.0384-.0951.0576-.1522.0383-.0761.0575-.1522.0959-.2283 0-.0191.0191-.0571.0575-.1332.0192-.0191.0192-.0571.0384-.0761.0192-.0381.0383-.0761.0575-.1332l.0192-.0381.3261-.5898c.0191-.019.0191-.0571.0383-.0761v-.019l.0192-.0381c.0384-.0571.0767-.1332.1151-.1902.0575-.0952.0959-.1903.1534-.2664.0959-.1713.1726-.3235.2302-.3996.0192-.057.0383-.0761.0575-.0951-.0192 0-.1151-.0761-.2685-.1712-.1918-.1142-.4603-.2664-.7864-.4186-.1151-.0571-.211-.0952-.3261-.1522-.1342-.0571-.2877-.1142-.4411-.1713-.0384-.019-.0767-.019-.1151-.038-.1342-.0381-.2493-.0761-.3836-.1142-.0959-.019-.1918-.038-.2685-.0571-.0767-.019-.1535-.019-.2302-.038-.0383 0-.0767 0-.1151-.019-.0383 0-.0767 0-.115-.0191-.0959 0-.211-.019-.3069-.019h-.1535c-.2301 0-.4411.019-.6521.0571h-.0384c-.3836.0571-.748.1522-1.11242.2854-.11509.038-.23017.0951-.36443.1522-.03836.019-.05754.038-.0959.038l-.11508.0571c-.34525.1713-.67131.3996-.9782.6469h-.01918c-.26853.2093-.49869.4567-.70967.704l-.17263.2283c-.07672.0952-.13426.1903-.1918.2854-.11508.1713-.23016.3615-.32606.5518-.03837.0761-.07673.1332-.09591.2093 0 .019-.01918.019-.01918.038-.1918.4567-.34524.9323-.40278 1.446-.01918.0952-.01918.1903-.03836.3045v.038c0 .0761-.01918.1522-.01918.2474v.3424c0 .0761 0 .1522.01918.2284v.0951c0 .0571.01918.1141.01918.1712v.0191c0 .038 0 .057.01918.0951 0 .0571.01918.1141.01918.1522s.01918.0761.01918.1142c.01918.057.01918.0951.03836.1522 0 .038.01918.0761.03836.1141v.0191l.01918.038v.0381l.01918.038c.01918.0381.01918.0761.03836.1142.01918.038.01918.0951.03836.1332.01918.038.03836.0761.03836.1331l.01918.0381c.01918.038.01918.0571.03836.0951.01918.0381.03836.0761.05754.1332l.05754.1142c.01918.019.01918.038.03836.0571.01918.019.01918.038.03837.057l.05754.1142c.01918.038.03836.0951.07672.1332.01918.038.03836.0761.05754.0951.01918.0381.05754.0951.07672.1332.01918.038.03836.0571.05754.0951.01918.0381.05754.0952.0959.1332.01918.0381.03836.0571.05754.0761.03836.0381.05754.0951.09591.1332.01918.019.03836.0571.05754.0761.03836.0381.07672.0951.11508.1332.01918.019.03836.038.05754.0761.03836.0381.07672.0951.11508.1332l.05754.0571c.03836.038.07672.0951.13426.1331l.05755.0571.13426.1332c.01918.019.03836.0381.05754.0381.03836.038.0959.0761.15344.1332.01918.019.03836.019.05754.038.05754.0381.0959.0761.15345.1142.01918.019.03836.019.03836.038l.17262.1142.03836.019.17262.1142.03836.019c.05754.038.13427.0761.19181.1141l.03836.0191c.05754.038.13426.0761.1918.0951l.03836.019c.07672.0381.13426.0571.21098.0952l.01918.019c.07673.038.15345.0571.21099.0951h.01918c.07672.019.15344.0571.23016.0761h.01918c.03836.0191.07672.0191.11512.0381.0383.019.0767.019.1342.038h.0192c.0767.0191.1726.0381.2494.0571.0767.019.1726.0381.2493.0381.2685.038.537.057.8056.0761h.1918c.0959 0 .1726 0 .2685-.0191.1151-.019.2493-.019.3836-.038.1151-.019.2302-.0381.3261-.0571.1726-.038.3452-.0761.4987-.1332.4986-.1332.9206-.3234 1.1891-.5327 0 0-.1726-.7611-.3068-1.5221-.0384-.0381-.0576-.1142-.0768-.1903z" fill="#90694c"/><path d="m26.2984 3.14507-.0575-.76106.3836-.83716.1534-.03805c-.2493-.11416-.5562-.19027-.9015-.24735-.6905-.09513-1.5728 0-2.5701.24735-.9974.24734-2.129.68495-3.3182 1.27477-2.3976 1.17964-5.0445 2.98716-7.6146 5.30839-.9015.79911-1.7262 1.63627-2.49346 2.45444-.74804.7991-1.41935 1.6172-2.03312 2.3973-1.24672 1.6173-2.18656 3.1774-2.80033 4.5854-.40278.9323-.65213 1.7885-.74803 2.5305-.07672.5327-.05754 1.0084.03836 1.3889.03836.1332.07672.2284.11508.3425.09591.2283.21099.4186.36443.5898l1.55361 1.6173.17262.1712.01918-.019c.03836-.0571.0959-.1142.15344-.1522l.01918-.019.05754-.0571c.03837-.0571.09591-.0952.13427-.1522.03836-.0381.05754-.0571.0959-.0761.03836-.0191.05754-.0571.0959-.0761l.03836-.0381c.03836-.019.05754-.0571.0959-.0761.03836-.0381.0959-.0761.13426-.1142.01918-.019.05755-.038.07673-.057h.01918c.05754-.0381.0959-.0761.15344-.1142.03836-.019.05754-.0381.0959-.0761.05754-.0381.0959-.0761.15344-.1142.03836-.019.05754-.038.0959-.057.05755-.0381.11509-.0761.17263-.0952.03836-.019.05754-.038.0959-.0571.05754-.038.11508-.057.17262-.0951.03836-.019.05754-.038.0959-.0571l.03836-.019c.36443-1.0084.92066-2.131 1.64951-3.2725.8823-1.408 2.0139-2.8921 3.3566-4.3761.8439-.9323 1.7646-1.8646 2.7619-2.7589 1.2851-1.1606 2.6086-2.207 3.9128-3.12032.8823-.60884 1.7454-1.16061 2.5894-1.63627.0767-.03805.1534-.09513.2493-.13319.2302-.13318.4412-.24734.6713-.3615.4795-.24734.959-.47566 1.4194-.66593l-.2302-.26637-.0384-.03805-.2877-.32345-1.5919-1.90265.0191-1.3699-.0191-.01903 1.1316-.34248z" fill="#2f83c1"/><path d="m44.8458 35.1095s.0384-.2854-.1151-.5517c0-.0191-.0192-.0381-.0192-.0381l-.0192-.019-.0575-.0571c-.0384-.038-.0767-.0761-.1343-.1141-.0191-.0191-.0575-.0381-.0959-.0571-.0959-.0381-.1918-.0761-.326-.0952-.0959-.019-.1918-.019-.3069-.019h-.1535v.0381c0 .019.0192.038.0192.0761 0 .019 0 .038.0192.038.0192.0571.0384.1522.0575.2284 0 0 .0001.019-.0191.057v.0191c-.0576.1331-.211.4376-.5563.8181-.0575.0761-.115.1332-.1918.2093-.959.9894-3.0305 2.3783-7.4036 3.1584-1.4769.2093-2.8578.2283-4.0087.0761-1.7262-.2093-3.0113-.7611-3.625-1.5031-.0576-.0571-.0959-.1332-.1535-.1903-.0383-.057-.0575-.0951-.0959-.1522-.0192-.019-.0192-.038-.0383-.0571-.2494-.4566-.3645-.9513-.3645-1.4269 0-.5899.1918-1.1416.4987-1.5602.2494-.3425.5754-.6089.9782-.723.1918-.0571.4028-.0952.6138-.0761.0383 0 .0959 0 .1726.019.1343.019.3453.0381.5946.0761.0192 0 .0575 0 .0767.019.8248.0952 2.129.2283 3.7018.1332 2.8771-.1712 6.6556-1.0655 10.0889-4.1478v-.019c.0192-.2664-.0192-.723-.3453-1.0845-.0575-.0571-.1151-.1142-.1918-.1712-.0383-.0381-.0959-.0571-.1342-.0952-.0576-.019-.0959-.057-.1343-.0761l-.1726-.1141v-.0191c-.0192-.038-.0384-.0761-.0767-.1141-.8823-1.3319-2.1099-2.1119-2.6086-2.4735-.2301-.1712-.3836-.2473-.3836-.2473-1.0549-.6469-1.2083-.8562-1.1124-2.5876.0383-.6279.0959-1.446.1726-2.5686 0-.1522.0192-.2854.0192-.4186v-.0951-.4566c0-.0952-.0192-.1903-.0192-.2664 0-.038 0-.0761-.0192-.1142-.0192-.0951-.0192-.1902-.0384-.2853 0-.0381-.0191-.0952-.0191-.1332 0-.0571-.0192-.0952-.0384-.1522-.0192-.0381-.0192-.0952-.0384-.1332-.0191-.0571-.0383-.1142-.0383-.1713 0-.019-.0192-.038-.0192-.0571 0-.019-.0192-.038-.0192-.057v-.0191l-.0192-.057c-.0191-.0381-.0383-.0761-.0383-.1142v-.019l-.0192-.0381-.0192-.038c-.0383-.0761-.0575-.1522-.0959-.2093l-.0192-.0571c-.0383-.0571-.0767-.1332-.115-.1903l-.0192-.019-.0192-.019c-.0384-.0381-.0575-.0761-.0959-.1142l-.0384-.0571c-.0383-.057-.0767-.0951-.115-.1331l-.1535-.1522c-.0575-.0381-.1151-.0762-.1726-.0952-.0192-.019-.0384-.019-.0576-.019l-.115-.0571c-.0192 0-.0384-.019-.0576-.019-.0383-.019-.0767-.019-.0959-.0381-.0192 0-.0383-.019-.0767-.019s-.0575-.019-.0959-.019h-.422c-.0191 0-.0383 0-.0575.019-.0192 0-.0384 0-.0575.019-.0384 0-.0768.0191-.1343.0381h-.0384c-.1151.038-.211.0761-.326.1141l-.0384.0191c-.0384.019-.0767.038-.1343.0571l-.0575.019-.1151.0571-.0575.038-.1151.0571-.0575.038c-.0384.0191-.0768.0571-.1151.0761l-.0384.0191c-.0384.038-.0959.0571-.1343.0951l-.0191.019c-.0576.0381-.0959.0761-.1535.0952-.0959.057-.1918.1331-.2877.1902-.0767.0571-.1534.1142-.2493.1713l-.0384.019c-.0767.0571-.1726.1142-.2493.1522l-.0384.019c-.0767.0571-.1726.0952-.2493.1522l-.0384.0191c-.0767.0571-.1726.0951-.2685.1332l-.0384.019c-.0959.038-.1726.0761-.2685.1141l-.0384.0191c-.0959.038-.1918.057-.2877.0951h-.0192c-.0959.019-.2109.0381-.3068.0571-.1727.019-.3645.038-.5371.038-.2877 0-.5754-.019-.8823-.057l-.2877-.0571c-.0383 0-.0767-.0191-.0959-.0191-.2493-.057-.5179-.1141-.7672-.1712-.1151-.019-.211-.0571-.3261-.0761-.1726-.038-.3452-.0761-.537-.1142-.0384 0-.0767-.019-.0959-.019s-.0576-.019-.0767-.019c-.0384 0-.0768-.019-.1151-.019-.0384 0-.0767-.0191-.1151-.0191h-.0384c-.0383 0-.0767-.019-.0959-.019-.0767-.019-.1534-.038-.2493-.038-.0192 0-.0576 0-.0767-.0191-.0576 0-.1151-.019-.1727-.019-.0383 0-.0575 0-.0959-.019-.0575 0-.0959-.019-.1534-.019h-.8823c-.0959 0-.1726.019-.2685.019h-.0767c-.0576 0-.1151.019-.1727.019h-.0191c-.0384 0-.0576.019-.0959.019-.0576.0191-.1151.0191-.1727.0381-.0383 0-.0767.019-.0959.019-.0575.019-.1151.0381-.1726.0381-.0384 0-.0575.019-.0959.038-.0575.019-.1343.0381-.1918.0571-.0384.019-.0575.019-.0767.038-.0959.0381-.1918.0762-.2685.1142-.7289.4186-1.3618.9894-1.8414 1.6363-.1726.2283-.326.4566-.4603.6849-.1534.2474-.2685.5138-.3836.7801-.0384.0761-.0575.1522-.0959.2283-.0384.1332-.0959.2664-.1343.3996 0 .019 0 .0381-.0191.0381-.0384.1522-.0768.3044-.1151.4756-.0384.1713-.0576.3235-.0767.4947-.0192.0951-.0192.1712-.0192.2664-.0192.2473-.0192.4756 0 .723v.0571c0 .057 0 .1141.0192.1902.0191.1713.0383.3425.0767.5137.0192.0571.0383.1142.0383.1903.0192.0571.0192.1142.0384.1712.1151.4376.2877.8372.4987 1.1797.7864 1.3509 2.0906 2.169 3.0497 2.6066.3644.1522.748.3044 1.1508.4376l-.0384.0381c-.0767.019-.1534.038-.2493.0571-.1343.038-.3069.0951-.4795.1522-.1918.057-.422.1522-.6522.2473-.6137.2474-1.3042.6089-1.918 1.1035-.0767.0571-.1534.1332-.2302.1903-.1342.1142-.2493.2283-.3644.3615l-.0383.0381-.0576.057c-.0383.0571-.0959.0952-.1342.1523l-.0576.057c-.0575.0761-.1151.1522-.1534.2284-.0576.0761-.0959.1522-.1535.2283-.3644.6278-.5754 1.3889-.5178 2.3022v-.0381c0-.019 0-.038.0191-.0571v-.019c0-.019.0192-.038.0192-.0761v-.019c0-.019.0192-.0571.0192-.0952 0-.038.0192-.057.0384-.0951v-.019c.0191-.0381.0191-.0761.0383-.1142v-.019c.0192-.038.0192-.0761.0384-.1142v-.019c.0192-.038.0383-.0761.0575-.1332l.0192-.019c.0192-.038.0384-.0951.0767-.1332.0384-.0761.0767-.1332.1151-.2093.0192-.019.0384-.057.0575-.0761l.0192-.019.1151-.1712c.0384-.0381.0767-.0952.1151-.1332l.0384-.0381c.0383-.038.0575-.0761.0959-.0951l.0383-.0381c.0384-.038.0959-.0761.1343-.1331 0 0-.8248 1.8645-.4603 3.3296v-.019-.0381-.0571-.0761-.0951c0-.0381-.0001-.0761.0191-.1142 0-.038 0-.0761.0192-.1141v-.0191c0-.038.0192-.0951.0192-.1331v-.0381c.0192-.0571.0192-.0951.0384-.1522v-.019c.0191-.0571.0383-.1142.0383-.1522 0-.0191.0192-.0381.0192-.0571l.0192-.0381c.0192-.038.0383-.0951.0575-.1332.0192-.057.0576-.1141.0959-.1712 0-.019.0192-.0381.0192-.0381l.1151-.1712s-.0384.4566-.0384 1.0084c0 .0951 0 .1713.0192.2664 0 .0571 0 .1141.0192.1712.0383-.5898.1534-1.1416.3069-1.6553-.1535.5137-.2686 1.0655-.3069 1.6553-.0192.3805-.0192.7611.0192 1.1606.0575.666.2301 1.389.5178 2.131 0 0-.2685-.8562.1151-1.7124l.1151.2283c.0384.2474.0767.6089.1534 1.0084.0768.666.3836 2.6637 1.7646 4.0527 0 0-.5178-.666-.4411-1.5221.0575.1141.1151.2092.1534.3044.2302.4376.6905 1.2367 1.2084 1.8075 0 0-.4028-.7801-.3069-.9513 0 0 1.3426 1.6553 1.7646 1.8075l-.5562-.9133-.0192-.019c1.9372 1.408 4.6224 1.9217 7.9215 1.0084.5754-.1522 1.1508-.3615 1.7645-.6089.3645-.1522.7289-.3424 1.0933-.5327l.0576-.038c.2493-.1332.4987-.2854.748-.4377.1918-.1141.3836-.2473.5562-.3615.3069-.2093.6138-.4376.9207-.6849.0192-.019.0383-.0381.0575-.0381.2877-.2473.5754-.5137.8248-.7801.3452-.3615.6521-.723.9206-1.0845l.0192-.019c.0767-.0951.1343-.1712.1918-.2664l.0192-.019c.0192-.038.0384-.0571.0575-.0951.0959-.1332.1727-.2474.2686-.3805.0191-.0381.0383-.0571.0575-.0952.0384-.0761.0767-.1332.1343-.2093.0383-.057.0575-.0951.0959-.1522.0383-.0571.0767-.1141.0959-.1712.0575-.0952.115-.2093.1726-.3044l.0575-.1142.1151-.2283.0576-.1142.0191-.038c.0384-.0952.0959-.1903.1343-.2854v-.0191c.1726-.1522.2877-.3044.4028-.4376.0192-.019.0383-.038.0383-.057.1727-.2474.2494-.5328.2494-.7992zm-31.0146-4.8517c-.0575.019-.1151.0951-.1918.1903-.0192.038-.0575.0761-.0767.1331-.1727.3235-.3261.7801-.3261.7801.0192-.1522.0384-.3044.0384-.4566v-.0571c.0191-.1522.0383-.3234.0575-.4756v-.0571c.0192-.1903.0575-.3615.0959-.5328 0-.019 0-.038.0192-.0761v-.019c0-.019 0-.0381.0192-.0571 0-.038.0191-.0571.0191-.0951.0192-.1332.0576-.2664.0768-.3996.0192-.1141.0383-.2283.0575-.3234v-.0381c0-.019 0-.038.0192-.038v-.0381c0-.019.0192-.0571.0192-.0761s0-.038.0192-.0571c0-.038.0191-.0761.0191-.0951s.0192-.0571.0192-.0761c0-.0381.0192-.0761.0192-.0951 0-.0191 0-.0381.0192-.0571 0-.019 0-.0381.0192-.0381 0-.038.0191-.057.0191-.0761v-.057l-.0383.038c-.0384.019-.0576.0571-.0959.0761l-.0384.0381c-.0383.038-.0767.0761-.0959.1141l-.0192.019-.1151.1713-.0191.019c0 .019-.0192.019-.0192.0381l-.0576.1141v.0381c-.0191.0571-.0575.1141-.0767.1712-.0575.1522-.1151.3044-.1534.4376-.0192.0381-.0192.0952-.0384.1142-.0192.0761-.0383.1522-.0383.1712v.019-.019c0-.0571 0-.0951.0191-.1522 0-.0951.0192-.2093.0192-.3044 0-.0761.0192-.1713.0384-.2474 0-.019 0-.057.0192-.0761 0-.038.0191-.0761.0191-.1141 0-.0381.0192-.0761.0192-.1142v-.0571c0-.038.0192-.0951.0192-.1331v-.0952-.038c0-.0191 0-.0381.0192-.0571.0192-.0571.0383-.1332.0383-.1903v-.019c.0192-.0381.0192-.0951.0384-.1332v-.019c.0192-.0951.0575-.1903.0767-.2854v-.0381c0-.019 0-.038.0192-.057.0384-.1523.0959-.3045.1343-.4377v-.019c.0383-.1141.0959-.2473.1342-.3615v-.019c.0192-.0571.0384-.0951.0576-.1522.0383-.0761.0575-.1522.0959-.2283 0-.0191.0192-.0571.0575-.1332.0192-.0191.0192-.0571.0384-.0761.0192-.0381.0383-.0761.0575-.1332l.0192-.0381c-.0192-.019-.0575-.019-.0767-.038h-.0192l-.0384-.019c-.1726-.0762-.3644-.1523-.5562-.2093h-.0384c-.1342-.0381-.2493-.0571-.3836-.0761-.0767 0-.1534-.0191-.2301-.0191h-.1918c-.0959 0-.1918.0191-.2877.0191-.0384 0-.0576 0-.0959.019-.0384 0-.0959.019-.1343.019-.0192 0-.0384 0-.0575.019-.0384 0-.0576.0191-.0959.0191-.0576.019-.1343.038-.1918.057-.0192 0-.0576.0191-.0768.0191-.0767.038-.1726.057-.2493.0951-.0384.019-.0576.0381-.0959.0381l-.1151.057-.0384.0191c-.0383.019-.0767.038-.115.0761-.0384.019-.0768.038-.1151.0761-.0384.019-.0767.057-.1151.0761-.0192.019-.0575.038-.0767.0571-.0576.057-.1343.1141-.1918.1712l-.0959.0951c-.0576.0571-.0959.1142-.1535.1713l-.0192.019c-.0191.038-.0575.0571-.07667.0951l-.05754.0571c-.0959.1332-.19181.2854-.26853.4376-.01918.019-.01918.0381-.03836.0571-.03836.0761-.05754.1522-.0959.2283-.01918.0381-.01918.0571-.03836.0951-.01918.0761-.05754.1523-.07672.2474v.0761c-.01918.0571-.01918.1141-.03836.1712 0 .0381 0 .0571-.01918.0952 0 .038 0 .057-.01918.0951v.0761c0 .0951-.01918.1903 0 .2854 0 .0761 0 .1522.01918.2283v.0381c0 .038.01918.0761.01918.1141.01918.1522.05754.2854.0959.4376.03836.1142.07672.2093.11508.3045.07672.1902.17262.3615.28771.5327.23015.3425.53705.6469.90145.8752.1918.1332.422.2283.6522.3044.2109.0761.4411.1332.6904.1523.0576 0 .1151.019.1535.019h.2493c.0768 0 .1535-.019.2302-.019.0384 0 .0959 0 .1343-.0191.115-.019.2109-.038.326-.0571h.0192c.0384-.019.0767-.019.1343-.038.1342-.0381.2685-.0951.3836-.1522l.0192-.019c.0383-.0191.0767-.0381.0959-.0381-.0576-.3234-.1151-.6659-.1343-1.0084.0959-.0381.0959-.0571.0959-.0761z" fill="#fce9cd"/><path d="m26.778 3.37338.0575.03806z" fill="#4d9ed7"/><path d="m43.6758 34.3294c0-.019 0-.038-.0192-.038-.0192-.0381-.0192-.0571-.0192-.0761-.0959-.3044-.211-.5328-.326-.704-.1343-.2093-.2494-.3235-.2494-.3235l.0575-.2283c.0192-.0951.0384-.1902.0384-.2854.0767-.6849-.0959-1.2177-.2493-1.5221-.0192-.0571-.0384-.0951-.0576-.1332-.1151.0761-.211.1522-.326.2283-2.0715 1.389-4.3923 2.2832-6.905 2.6638-1.7262.2663-3.5483.2854-5.4472.057l.0384.0191s-1.1508.1522-1.4577 1.2367l.0192.019-.0959.723c.0383.9894.4795 1.5982.9973 1.9217.5371.2093 1.1892.3615 1.9181.4566 1.2467.1522 2.7044.1142 4.1621-.1141 1.9564-.2664 4.7184-1.2938 6.6939-2.6257.4412-.3044.8631-.6279 1.2084-.9513l.0192-.019.0192-.0191c0-.1332-.0192-.2093-.0192-.2854z" fill="#fff"/><path d="m39.9355 24.9303c-1.0549-.6469-1.2083-.8562-1.1124-2.5876.0383-.6278.0959-1.446.1726-2.5685 0-.1523.0192-.2854.0192-.4186v-.0952-.4566c0-.0951-.0192-.1903-.0192-.2664 0-.038 0-.0761-.0192-.1141-.0192-.0952-.0192-.1903-.0383-.2854 0-.0381-.0192-.0951-.0192-.1332 0-.0571-.0192-.0951-.0384-.1522-.0192-.0381-.0192-.0951-.0383-.1332-.1535-.2283-.3261-.4186-.5371-.5898l-.0383-.0381-.0384-.019h-.0192c-.0383-.019-.0575-.0381-.0959-.0571-.0383-.019-.0767-.038-.0959-.0571-.3069-.1902-.6713-.3044-1.0357-.3615-.211-.038-.422-.038-.633-.038-.0959 0-.211.019-.3069.019-.2685.0381-.537.0951-.8247.1713-.0959.057-.1918.1331-.2877.1902-.0767.0571-.1535.1142-.2494.1713l-.0383.019c-.0768.0571-.1727.1141-.2494.1522l-.0383.019c-.0768.0571-.1727.0952-.2494.1522l-.0383.0191c-.0768.057-.1727.0951-.2686.1331l-.0383.0191c-.0959.038-.1726.0761-.2685.1141l-.0384.0191c-.0959.038-.1918.057-.2877.0951h-.0192c-.0959.019-.211.038-.3069.0571-.1726.019-.3644.038-.537.038-.2877 0-.5754-.019-.8823-.0571l-.2877-.057c-.0384 0-.0767-.0191-.0959-.0191-.2494-.057-.5179-.1141-.7672-.1712-.1151-.019-.211-.0571-.3261-.0761-.1726-.0381-.3453-.0761-.5371-.1142-.0383 0-.0767-.019-.0959-.019-.1534 0-.3068.019-.4411.0381h-.0384c-.4411.057-.8631.1522-1.3042.3044-.0192 0-.0384.019-.0768.019-.0767.019-.1342.0571-.2109.0761-.0959.0381-.1727.0761-.2686.1142-.6329.2663-1.2275.6469-1.8029 1.1225-.2302.1903-.4412.3996-.6521.6089-.3069.3234-.5755.6659-.8248 1.0274-.0192.019-.0192.0381-.0384.0571-.1342.1903-.2493.3995-.3452.5898-.0384.0761-.0767.1522-.1151.2093v.019c-.1151.2474-.211.4757-.2877.723 0 .0191 0 .0381-.0192.0381-.0192.038-.0192.0761-.0383.1141-.0384.1142-.0768.2284-.0959.3425-.0384.1142-.0576.2283-.0768.3615 0 .0191-.0191.0571-.0191.0761-.0192.0761-.0192.1522-.0384.2093-.0384.2664-.0575.5328-.0767.7991v.1903c.1151.4376.2877.8372.4987 1.1796.7864 1.3509 2.0906 2.1691 3.0496 2.6067.3645.1522.7481.3044 1.1509.4376l.0191.019.0192-.019c.0576-.0381.0959-.0761.1535-.1142.0191-.019.0383-.019.0575-.038l.1726-.1142c.0192-.019.0384-.019.0576-.038l.1726-.1142c.0192-.019.0384-.019.0575-.0381.0576-.038.1151-.0761.1918-.1141.0192-.019.0384-.019.0576-.0381.0575-.038.1342-.0761.1918-.1141.0192-.0191.0383-.0191.0575-.0381.0576-.038.1343-.0761.1918-.1141.0192-.0191.0576-.0191.0767-.0381.0576-.038.1343-.0761.1919-.1142.0191-.019.0575-.038.0767-.038.0575-.0381.1342-.0761.211-.1142.0383-.019.0575-.038.0959-.038.0767-.0381.1342-.0761.2109-.0952.0384-.019.0576-.038.0959-.038.0768-.0381.1343-.0571.211-.0951l.1151-.0571c.0767-.0381.1343-.0571.211-.0951.0384-.0191.0767-.0381.1343-.0571.0767-.0191.1342-.0571.2109-.0761.0384-.0191.0959-.0381.1343-.0571.0767-.019.1343-.0571.211-.0761.0575-.019.0959-.0381.1534-.0571.0767-.019.1343-.0571.211-.0761l.1726-.0571c.0576-.019.1343-.038.1918-.0761.0576-.019.1343-.038.1918-.0571.0576-.019.1343-.038.1918-.057.0768-.0191.1535-.0381.211-.0571.0576-.0191.1151-.0381.1918-.0571.0768-.019.1535-.0381.2494-.0761.0383-.019.0767-.019.1151-.0381.3068-.7801 1.2467-2.7208 2.8386-2.93.1727-.0191.3261-.0381.4796-.0381h.115c-.0191-.1142-.0383-.2283-.0383-.3615-.0576-.8372.211-1.5411.5754-1.5602.2877-.019.5179.3996.5562.5328.1151.2473.1918.5708.211.9323.0192.3234-.0192.6278-.0767.8942.0383.0381.0575.0761.0959.0951.3644.4567.4219 1.0655.4028 1.5222.1342-.0191.2877-.0191.4411-.0381.0384 0 .0767 0 .1151-.019h.0767c.1726-.019.3644-.0381.5562-.0381.422-.038.844-.057 1.2851-.0761-.2493-.1332-.4028-.2093-.4028-.2093zm4.0087 11.7203c-.6905.6089-1.4193 1.1036-2.1482 1.5031-.3644.1903-.7288.3615-1.0741.5137-.7864.3425-1.5344.5708-2.2057.7421-1.4769.3615-2.4934.3615-2.4934.3615.8055.4376 1.8221.4376 2.5126.3805.4795-.038.8056-.1332.8056-.1332-.0192.2854-.0576.5518-.0959.8182-.0576.2854-.1343.5327-.2302.761v.0191c-.1151.2854-.2685.5327-.422.761-.0192.019-.0383.0571-.0575.0761l.0575-.038c.2494-.1332.4987-.2854.7481-.4376.1918-.1142.3836-.2474.5562-.3615.3069-.2093.6138-.4377.9206-.685.0192-.019.0384-.0381.0576-.0381.2877-.2473.5754-.5137.8247-.78.3453-.3615.6522-.723.9207-1.0845l.0192-.0191c.0767-.0951.1342-.1712.1918-.2663l.0192-.0191c.0191-.038.0383-.0571.0575-.0951.0959-.1332.1726-.2473.2685-.3805.0192-.0381.0384-.0571.0576-.0952.0383-.0761.0767-.1332.1342-.2093.0384-.057.0576-.0951.0959-.1522.0384-.057.0767-.1141.0959-.1712.0576-.0951.1151-.2093.1726-.3044l.0576-.1142.1151-.2283.0575-.1142.0192-.038c.0384-.0952.0959-.1903.1343-.2854-.0768.019-.1151.0571-.1727.1141zm-17.4924-7.6676c-.1918.0571-.422.1522-.6522.2473-.6137.2474-1.3042.6089-1.918 1.1036-.0767.057-.1534.1331-.2302.1902-.1342.1142-.2493.2283-.3644.3615l-.0383.0381-.0576.0571c-.0383.057-.0959.0951-.1342.1522l-.0576.057c-.0575.0762-.1151.1523-.1534.2284-.0576.0761-.0959.1522-.1535.2283-.3644.6279-.5754 1.3889-.5178 2.3022v-.0381c0-.019 0-.038.0191-.057v-.0191c0-.019.0192-.038.0192-.0761v-.019c0-.019.0192-.0571.0192-.0951 0-.0381.0192-.0571.0384-.0952v-.019c.0191-.0381.0191-.0761.0383-.1142v-.019c.0192-.038.0192-.0761.0384-.1141v-.0191c.0192-.038.0383-.0761.0575-.1332l.0192-.019c.0192-.038.0384-.0951.0767-.1332.0384-.0761.0767-.1332.1151-.2093.0192-.019.0384-.057.0575-.0761l.0192-.019.1151-.1712c.0384-.0381.0767-.0952.1151-.1332l.0383-.0381c.0384-.038.0576-.0761.096-.0951l.0383-.0381c.0384-.038.0959-.0761.1343-.1331 0 0-.8248 1.8646-.4604 3.3296v-.019-.0381-.0571-.0761-.0951c0-.0381 0-.0761.0192-.1142 0-.038 0-.0761.0192-.1141v-.019c0-.0381.0192-.0952.0192-.1332v-.0381c.0192-.0571.0192-.0951.0383-.1522v-.019c.0192-.0571.0384-.1142.0384-.1522 0-.0191.0192-.0381.0192-.0571l.0192-.0381c.0191-.038.0383-.0951.0575-.1332.0192-.057.0575-.1141.0959-.1712 0-.019.0192-.038.0192-.038l.1151-.1713s-.0384.4567-.0384 1.0084c0 .0952 0 .1713.0192.2664 0 .0571 0 .1142.0192.1712.0383-.5898.1534-1.1416.3069-1.6553.0383-.1332.0959-.2854.1342-.4186 0-.019.0192-.038.0192-.057.0575-.1332.0959-.2474.1534-.3806.0192-.019.0192-.038.0384-.0761.0575-.1141.1151-.2473.1726-.3615.0192-.019.0192-.038.0192-.0571.1343-.2473.2685-.4756.4028-.6849.0192-.019.0192-.0381.0384-.0571.0575-.0761.115-.1522.1726-.2473.0192-.0191.0192-.0381.0383-.0571.0192-.019.0192-.0381.0384-.0571.0767-.0951.1343-.1903.211-.2854.0192-.019.0192-.038.0383-.038.0768-.0952.1535-.1903.2302-.2664.0959-.1142.1918-.2093.2877-.3235.0767-.0761.1343-.1522.211-.2092l.0767-.0762c.1535-.1522.3069-.3044.4603-.4376.422-.3805.7673-.6278.8823-.7039-.0767.019-.1534.038-.2493.057-.1151.0571-.2685.1142-.4603.1713z" fill="#f2d2ac"/><path d="m37.4996 24.8542s0-.038-.0192-.1141c-.0767-.2664-.3452-.9133-1.4001-.8182-1.1125.1142-1.4961 1.0084-1.592 1.3129-.0192.057-.0192.0951-.0192.0951l.0384.019c.1342-.1141.4028-.1141.6521.0571.1151.0761.1918.1522.2685.2473.0959.1523.1151.3045.0576.4186l-.0576.0571s.0384.019.1151.0381c.3069.0951 1.17.2663 1.6303-.3235.0192-.038.0384-.0571.0576-.0951-.0959-.0381-.1343-.1713-.1343-.3425 0-.0761.0192-.1522.0384-.2473.0575-.2284.2301-.3615.3644-.3045zm-5.5431 8.1434c-.7289.1522-1.3618.2663-1.8413.3424.0192 0 .0575 0 .0767.0191.8248.0951 2.129.2283 3.7018.1332 2.8771-.1713 6.6556-1.0655 10.0889-4.1478v-.019c.0191-.2664-.0192-.723-.3453-1.0845-.0575-.0571-.1151-.1142-.1918-.1713-.0192 0-.0192-.019-.0383-.019-.096-.0571-.1727-.0951-.2494-.1522l-.1726-.1142v-.019c-.211.3044-.4603.5898-.7289.8562-.0959.0951-.1918.1902-.3069.2854-.9398.8371-2.1673 1.5601-3.4908 2.1309-2.1865.9514-4.6416 1.5792-6.5021 1.9598zm-18.183-4.9659c-.0383.019-.0575.057-.0959.0761l-.0383.038c-.0384.0381-.0767.0761-.0959.1142l-.0192.019-.1151.1712-.0192.0191c0 .019-.0192.019-.0192.038l-.0575.1142v.038c-.0192.0571-.0575.1142-.0767.1713-.0576.1522-.1151.3044-.1535.4376-.0191.038-.0191.0951-.0383.1141-.0192.0761-.0384.1523-.0384.1713v.019-.019c0-.0571 0-.0952.0192-.1522 0-.0952.0192-.2093.0192-.3045 0-.0761.0192-.1712.0383-.2473 0-.019 0-.0571.0192-.0761 0-.0381.0192-.0761.0192-.1142 0-.038.0192-.0761.0192-.1141v-.0571c0-.0381.0192-.0951.0192-.1332v-.0951-.0381c0-.019 0-.038.0191-.0571.0192-.057.0384-.1331.0384-.1902v-.019c.0192-.0381.0192-.0952.0384-.1332v-.0191c.0191-.0951.0575-.1902.0767-.2854v-.038c0-.019 0-.0381.0192-.0571.0383-.1522.0959-.3044.1342-.4376v-.019c.0384-.1142.0959-.2474.1343-.3615v-.0191c.0192-.057.0384-.0951.0575-.1522.0384-.0761.0576-.1522.0959-.2283 0-.019.0192-.0571.0576-.1332.0192-.019.0192-.057.0383-.0761.0192-.038.0384-.0761.0576-.1332l.0192-.038c-.0192-.019-.0576-.019-.0768-.0381h-.0191l-.0384-.019c-.1726-.0761-.3644-.1522-.5562-.2093h-.0384c-.1343-.038-.2493-.0571-.3836-.0761-.0767 0-.1534-.019-.2302-.019h-.1918c-.0959 0-.1918.019-.2877.019-.0383 0-.0575 0-.0959.019-.0383 0-.0959.0191-.1342.0191-.0192 0-.0384 0-.0576.019-.0383 0-.0575.019-.0959.019-.0575.019-.1342.0381-.1918.0571-.0192 0-.0575.019-.0767.019-.0767.0381-.1726.0571-.2493.0952-.0384.019-.0576.038-.0959.038l-.1151.0571-.0384.019c-.0384.019-.0767.0381-.1151.0761-.0383.019-.0767.0381-.1151.0761-.0383.0191-.0767.0571-.115.0761-.0192.0191-.0576.0381-.0768.0571-.0575.0571-.1342.1142-.1918.1713l-.0959.0951c-.0575.0571-.0959.1141-.1534.1712l-.0192.019c-.0192.0381-.0575.0571-.0767.0952l-.05755.0571c-.0959.1331-.1918.2854-.26852.4376-.01918.019-.01919.038-.03837.057-.03836.0762-.05754.1523-.0959.2284-.01918.038-.01918.057-.03836.0951 0 .019.01918.0381.01918.0571.01918.0761.03836.1332.05754.2093v.038c.01918.0571.05755.1332.07673.1903.07672.1903.15344.3615.24934.5137.01918.019.01918.0381.03836.0571v.019l.01918.019c.05757.1142.11507.2093.17267.2854.0959.1332.1726.2283.2301.3045l.0384.038c0 .019.0192.019.0192.019l.0383.0381c0-.0381-.0192-.0761-.0192-.0951-.0575-.2474-.0767-.4757-.0767-.7231v-.038c0-.1522 0-.3044.0192-.4376l.0575.1712c.0192.0761.0576.1522.0768.2283v.0381c.115.3234.2493.5898.3836.7991.1534.2664.2877.4376.3836.5518.0192.019.0383.038.0383.0571l.0384.038c-.0575-.2664-.0959-.5137-.0959-.7611v-.2473c0-.1142 0-.2093.0192-.3044.0383.1712.0959.3425.1534.4947v.019c.211.5518.4603.9513.633 1.1987l.0191.019c.0384.038.0576.0761.0768.1141.0191.0191.0383.0381.0383.0571l.0384.0381.0192.019v-.038c0-.0381-.0192-.0762-.0192-.1142-.0192-.1332-.0384-.2664-.0576-.3805 0-.0761-.0191-.1713-.0191-.2474v-.2283-.038-.1523c0-.0951.0191-.2093.0191-.3044.0192.0571.0384.1332.0576.1903.0192.038.0384.0951.0575.1332v.019l.0192.019c.0192.0571.0384.1142.0576.1522.0383.0952.0767.1903.1342.2664.0576.1142.0959.2093.1535.2854.0383.0571.0575.0951.0767.1332.0383.0571.0767.1141.0959.1522.0383.038.0575.0761.0767.1142l.0192.019c.0192.038.0575.0571.0767.0951.0192.019.0384.0381.0384.0571.0383.038.0575.0761.0767.0761l.0192.019v-.0571c.0191-.1522.0383-.3234.0575-.4756v-.0571c.0192-.1903.0575-.3615.0959-.5327 0-.0191 0-.0381.0192-.0761v-.0191c0-.019 0-.038.0192-.057 0-.0381.0191-.0571.0191-.0952.0192-.1332.0576-.2664.0768-.3995.0192-.1142.0383-.2284.0575-.3235v-.038c0-.0191 0-.0381.0192-.0381v-.038c0-.0191.0192-.0571.0192-.0762 0-.019 0-.038.0192-.057 0-.0381.0191-.0761.0191-.0952 0-.019.0192-.057.0192-.0761 0-.038.0192-.0761.0192-.0951s0-.0381.0192-.0571c0-.019 0-.038.0192-.038 0-.0381.0191-.0571.0191-.0761v-.0571zm23.2466 7.953c.2685-.0951.4987-.1712.6905-.2473.3644-.1522.5562-.2664.5562-.3044-.0192-.0381-.2301-.0191-.6137.0761-.1919.038-.422.0761-.7097.1522-.1343.038-.2877.0571-.4412.0761-.1534.019-.326.0571-.4987.0761-.3452.0571-.7288.0951-1.1508.1332l-.6329.0571c-.211.019-.4412.019-.6713.038-.9207.019-1.9373-.019-2.973-.2093-.537-.0951-1.2851-.3425-1.8029-.6279l-.0192-.019c.3069-1.0845 1.4577-1.2367 1.4577-1.2367l-.0384-.019h-.0575c-.1726-.0191-.3069-.0381-.4412-.0571-.0959-.019-.1726-.019-.2301-.0381-.0576 0-.1151-.019-.1343-.019-.6905-.038-1.0741.5327-1.1892.7801l-.0575.1142c-.0959.2283-.1726.4756-.1918.761-.0384.5137.0959 1.0655.4987 1.5412.2685.3234.7288.6088 1.3234.8371-.5179-.3234-.9782-.9513-.9974-1.9217.5946.2474 1.2659.3996 1.7838.4947 1.0933.2093 2.1674.2284 3.1072.1713.2302-.0191.4795-.0381.6905-.0571.2302-.0381.4412-.0571.6521-.0761.422-.0761.7864-.1332 1.1509-.2093.1726-.0381.3452-.0761.4987-.1332.1726-.038.3068-.0761.4411-.1332z" fill="#f2d2ac"/><path d="m36.1188 23.2751c.5754.019.959.1902 1.2275.4566.0575-.2473.0959-.5518.0767-.8942-.0192-.3615-.0959-.685-.211-.9323-.0383-.1522-.2685-.5518-.5562-.5328-.3644.019-.6329.723-.5754 1.5602 0 .1142.0192.2283.0384.3425zm.959 2.15c0 .1522.0575.2854.1342.3424.1343.0761.3069-.0761.3836-.3234 0-.019.0192-.0381.0192-.0571.0576-.2283 0-.4566-.1342-.5137-.1343-.0761-.3069.0761-.3836.3234 0 .0761-.0192.1523-.0192.2284zm-2.6085.4185c.0575.0952.1534.1903.2685.2664.2493.1522.5178.1713.6713.0381l.0575-.0571c.0576-.1142.0384-.2664-.0575-.4186-.0576-.0951-.1535-.1903-.2685-.2473-.2494-.1523-.5179-.1713-.6522-.0571-.0191.019-.0383.038-.0575.0761-.0576.0951-.0384.2473.0384.3995zm9.5326 3.4819c-.0192 0-.0192 0 0 0zm-.3069 5.2703c-.3644.3425-.7672.6659-1.2276.9704-1.9755 1.3318-4.7375 2.3783-6.6939 2.6256-1.4769.2283-2.9154.2664-4.1621.1142-.7289-.0952-1.3618-.2474-1.9181-.4567-.5945-.2283-1.0549-.5137-1.3234-.8371-.4028-.4757-.5179-1.0465-.4987-1.5412.0192-.2663.0767-.5327.1918-.761l.0576-.1142c.1342-.2473.4987-.8371 1.1891-.7801.0192 0 .0768 0 .1343.0191.0575 0 .1534.019.2302.038.1342.019.2685.0381.4411.0571h.0576c1.8988.2283 3.7209.2093 5.4472-.0571 2.5126-.3805 4.8334-1.2748 6.9049-2.6637.1151-.0761.211-.1522.3261-.2283l1.1316-1.6743c-3.4333 3.1013-7.2118 3.9955-10.0889 4.1668-1.5727.0951-2.877-.0191-3.7018-.1332-.0383 0-.0575 0-.0767-.0191-.2493-.038-.4411-.057-.5946-.0761-.0767 0-.1342-.019-.1726-.019-.211-.019-.422.019-.6138.0761-.3836.1142-.7288.3805-.9782.723-.3069.4186-.4987.9894-.4987 1.5602 0 .4757.1151.9703.3645 1.427.0192.019.0192.038.0383.0571.0384.057.0576.0951.0959.1522.0384.0571.0959.1332.1535.1902.5946.7421 1.8988 1.2748 3.6251 1.5031 1.17.1522 2.5318.1332 4.0087-.0761 4.3731-.7801 6.4445-2.188 7.4036-3.1584.0767-.0761.1342-.1332.1918-.2093.3452-.3995.4987-.7039.5562-.8181v-.019c.0192-.0381.0192-.0571.0192-.0571z" fill="#664f44"/><path d="m29.7892 19.5649c-.1342-.0761-.2877-.1332-.4411-.1712-.0959-.0191-.1918-.0381-.3069-.0571-.0384 0-.0767 0-.1151-.019-.5178-.0381-.959.038-.959.038-.0959.0191-.1918.0381-.2685.0761-.6905.2093-1.17.5708-1.5153.9894-.2685.3425-.4603.704-.5562 1.0655-.0192.038-.0192.0571-.0192.0951-.0192.0952-.0575.1903-.0767.2664-.0575.3044-.0959.5708-.0959.7991 0 .3044.0192.4947.0192.4947.1151-.2664.2493-.4947.3836-.723.3261-.5518.6713-1.0084 1.0357-1.3699.6905-.704 1.4002-1.0845 1.9372-1.2748.5755-.1903.9782-.2093.9782-.2093zm8.3051-.9703-.0192-.0381c-.0767-.0951-.1726-.1903-.2877-.2664-.2685-.1712-.6329-.2663-1.1316-.1712 0 0-.5946.1332-.9398.5327 0 0 1.0357-.4376 2.1482.3425.0959.0761.2109.1522.3068.2474.0959.0951.211.1902.3069.3234 0 0-.0383-.4756-.326-.8942-.0192-.0381-.0384-.0571-.0576-.0761z" fill="#e9b784"/><path d="m29.9234 26.1671c.4028-.1142.8248-.2283 1.3043-.3425.0767-.3615.0959-.7991.0384-1.2748-.1343-1.1035-.633-1.9597-1.1317-1.9026s-.7864 1.0084-.6521 2.1119c.0767.5708.2301 1.0655.4411 1.408z" fill="#664f44"/><path d="m27.6411 1.2995-1.0358.22832.211 1.86459-2.7428-1.38893-1.1316.34248.0192.01902 3.3374 3.76724.0383-.01902.0384-.01903c.0959-.05708.211-.13318.3069-.19026.0383-.01903.0767-.03806.115-.07611.1535-.09513.3069-.19026.4604-.26637l-1.4194-1.61725 2.2825 1.10353c.0767-.03805.1342-.0761.211-.11415l-.211-1.61725 1.0357 1.19866h.0192c.0959-.03805.1726-.09513.2685-.13318l.0384-.01903.0383-.01902c.0192 0 .0384-.01903.0384-.01903l.1151-.05708s.0192 0 .0192-.01903c.1151-.05708.2493-.11416.3644-.17124z" fill="#ffd250"/><path d="m26.6244 1.58492v-.05708zm0-.05708.1535-.03806c-.2494-.11416-.5563-.19026-.9015-.24734-.6905-.09513-1.5728 0-2.5702.24734-.9973.24735-2.129.68496-3.3182 1.27478-2.3975 1.17964-5.0444 2.98715-7.6146 5.30838-.9014.79912-1.7262 1.63628-2.4934 2.45446l3.1072 3.8053c.844-.9133 1.7454-1.8266 2.7428-2.7208 1.3234-1.1987 2.6661-2.26418 3.9895-3.17745 1.2851-.89425 2.5702-1.65531 3.7785-2.26415l-.537-2.43539.0192-1.36991-.0192-.01903 1.1316-.34247 2.2058 1.12256-.0576-.76106z" fill="#4d9ed7"/><path d="m26.6244 1.5278-.3836.83717.0575.78008.5371.26637zm-.7864 2.41636 2.3017 1.12257-.8823.49468zm2.3017-.62787.2109 1.61725.8248-.41858z" fill="#132134"/><path d="m36.8091 2.72649h.422c.3836 0 .748.05708 1.0933.13319.0191 0 .0383-.00001.0575.01902h.0192l.0384.01903h.0383c-.0384-.01903-.0767-.05708-.1151-.07611-.3836-.15221-.7864-.24734-1.2083-.30442-2.0715-.26637-4.4499.49469-5.7925 1.02743-.0767.03805-.1534.05708-.2302.09513-.115.05708-.2301.09513-.3452.15221-.1918.07611-.3836.17124-.5946.26637-.0384.01903-.0575.01903-.0959.03806-.1151.05708-.2493.11415-.3644.17123 0 0-.0192 0-.0192.01903l-.1151.05708c-.0192 0-.0383.01903-.0383.01903h-.0768l-.0191.01902c-.0959.03806-.1727.07611-.2686.13319h-.0192c-.0191.01902-.0383.01902-.0575.03805h-.0192c-.0192 0-.0383.01903-.0383.01903-.1343.0761-.2686.13318-.4028.20929-.0959.05708-.1918.09513-.2877.15221h-.0192c-.0767.03805-.1343.07611-.211.11416-.2302.11416-.4411.24734-.6713.38053-.0192.01903-.0384.01903-.0767.03805-.0192.01903-.0384.01903-.0576.03805-.0191.01903-.0383.01903-.0575.03806l-.0192.01902c-.1534.09514-.3069.17124-.4603.26638-.0384.01902-.0767.03805-.1151.0761-.0959.05708-.211.13319-.3069.19027l-.0383.01902-.0384.01903-.8631.57079c-.4795.32345-.9399.6469-1.4002.98938-.0575.03805-.1151.09513-.1726.13318-1.2084.89425-2.3592 1.8646-3.4716 2.85402-1.17 1.0654-2.3017 2.1499-3.3566 3.2535-.5754.5708-1.0741 1.0845-1.4577 1.5031-.8056.8562-1.2467 1.3889-1.2275 1.4079 0 0 .0767-.057.2109-.1902-.0959.1141-.2109.2473-.3068.3615 1.7645-1.8646 3.7018-3.7673 5.7924-5.5558 1.2659-1.0845 2.5894-2.13092 3.9512-3.10127.5946-.41859 1.2083-.83717 1.8221-1.23673.1918-.13318.4028-.24734.5946-.38052.0959-.05708.1918-.11416.3069-.17124.0575-.03806.1151-.07611.1726-.09514.1151-.05707.211-.13318.3261-.19026.0959-.05708.2109-.11416.3068-.19026.0576-.03806.1151-.05708.1727-.09514l.4028-.22831c.0767-.03806.1534-.09514.2301-.13319.2494-.13319.4987-.26637.7672-.39956.0192-.01902.0384-.01902.0576-.03805l.1151-.05708c.0575-.01902.0959-.05708.1534-.0761.0192-.01903.0384-.01903.0575-.03806l.1151-.05708s.0192 0 .0192-.01902h.0192c.1151-.05708.2301-.11416.326-.15221.0192 0 .0384-.01903.0576-.03806l.1151-.05708c.1342-.05708.2493-.11416.3836-.17124.0383-.01902.0767-.03805.0959-.05707.0192 0 .0383-.01903.0575-.01903.0384-.01903.0767-.03805.1151-.03805.1534-.05708.2877-.13319.4411-.19027.1343-.05708.2494-.11416.3837-.17124.7288-.30442 1.4001-.55176 2.0331-.76106 1.1891-.32345 2.2441-.53274 3.1647-.57079z" fill="#fff"/></svg>