<svg fill="none" height="36" viewBox="0 0 121 36" width="121" xmlns="http://www.w3.org/2000/svg"><path d="m42.7079 14.1233c0-3.5743 2.6069-6.07012 7.3444-6.07012 2.8906 0 5.2559.92264 6.5374 1.82646.1834.12906.5106.44216.3144 1.02446-.2514.6271-.7125 1.5703-1.0433 2.1829-.1925.357-.6843.31-.9362.1824-.9128-.4624-2.41-1.2447-3.7853-1.3889-.3483-.0379-.6987-.0531-1.0489-.0454-1.2113.0271-2.2232.4475-2.5796 1.3713-.0699.1748-.1088.3604-.1151.5486-.0333 1.2173 1.6615 1.6576 3.7146 2.0102 3.817.6537 6.7047 1.7724 6.7047 5.6999 0 3.3352-2.6515 6.3494-7.8467 6.257-3.4248-.0692-5.8546-1.2261-7.1566-2.3487-.0444-.0381-.54-.5427-.2743-1.1496.304-.7813.8172-1.6767 1.2199-2.1521.2239-.3054.8148-.3539 1.122-.1635 1.0732.6667 2.8395 1.7357 4.8755 1.8066.1607.0056.3199.0065.4763.0024 1.8313-.0443 2.9393-.7385 2.9162-1.9079-.0198-1.0303-1.4719-1.6321-3.7841-2.0677-3.6879-.6945-6.6548-1.9097-6.6548-5.6183zm33.5036 5.0893c-2.6006.034-4.985.7446-5.0538 2.7764-.0007 1.6122 1.3076 2.4041 3.1438 2.3004 1.7614-.1696 3.1046-.9332 3.6965-1.9466.2189-.3755.2522-1.7808.2389-2.3815-.0034-.1278-.2563-.3697-.367-.4163-.5526-.2328-.9615-.3046-1.6586-.3329zm-8.6533-8.1867c1.2161-1.08788 3.6273-2.78119 7.47-2.69194 5.0712.10541 7.7502 2.48204 7.9997 8.16744.1028 2.3446-.0675 8.8843-.1081 10.5137-.006.2337-.0852.3953-.4003.4014-.8351.0335-2.7644.0202-3.6509.0087-.4474-.0218-.4992-.2437-.505-.476-.0039-.1519-.0169-.6025-.0263-.9699-.0051-.1949-.1882-.1893-.235-.1394-1.1896 1.2698-3.1377 1.8829-5.2094 1.8829-3.1489 0-6.288-1.8518-6.2784-5.5189.0097-3.7557 2.6735-5.6082 5.5998-6.045 1.8739-.2789 3.9861-.0309 5.5856.6044.1023.0411.3113-.0183.313-.1633.0065-.4785-.0167-1.3905-.1086-1.8228-.2348-1.1014-1.1538-1.9876-3.0846-2.2264-.3977-.0489-.798-.0651-1.1988-.0333-1.5348.1206-3.3818 1.3171-4.1467 1.765-.18.1052-.4619.0282-.5531-.0893-.4463-.5765-1.5683-2.2625-1.6566-2.532-.0884-.2687.0361-.4949.1932-.6363zm17.1418 6.9913c-.0301-5.238 3.6206-9.65671 9.5485-9.69555 3.699-.02412 6.3865 1.65231 6.8605 2.44295.096.1858.046.3409-.02.5278-.313.6609-1.1043 1.9379-1.668 2.6616-.24.3082-.5006.0441-.8035-.1573-.8404-.5596-2.4372-1.2439-4.0087-1.2439-2.8511.0004-4.9742 1.9547-4.9505 5.5502.0222 3.4503 2.0557 5.3465 4.9604 5.4152 1.5184.0382 2.9895-.8343 3.781-1.549.2485-.2169.5057-.1083.7897.1136.5574.5695 1.3566 1.4487 1.7996 2.0539.291.3363.074.6653-.031.7975-1.2025 1.5213-3.5252 2.8016-6.599 2.819-6.4361.0451-9.6288-4.4788-9.6585-9.7353zm30.723 9.4999c.302-.0227 3.525-.4675 4.515-.694.246-.056.333-.2624.196-.467-.553-.8283-2.006-3.1806-3.527-5.2864-1.4-1.9362-2.875-3.6392-3.352-4.2943-.116-.1592-.11-.316.017-.4395.907-.8876 4.703-4.6083 6.131-6.1449.552-.59768.22-.85481-.249-.99447-.906-.27016-2.373-.60689-3.207-.78273-.351-.0743-.775-.04825-1.082.26774-1.427 1.33026-5.782 5.69986-7.082 7.00596-.234.2357-.371.1834-.372-.1534-.01-2.5182-.06-13.29991-.15-15.073302-.006-.234458-.288-.4124727-.447-.4209151-.818-.04269449-2.883-.0549965-3.697-.0072365-.228.0258097-.446.2580966-.466.4544436-.187 2.83569.08 23.65181.191 26.56371.008.2106.165.3739.365.3857.812.047 2.821.0439 3.758.0263.461 0 .518-.3242.518-.3242l.069-5.5857s.048-.2485.125-.3305c.331-.3558 1.245-1.3356 1.635-1.7143.094-.0909.241-.0844.337.0441.463.6248 1.784 2.6558 3.009 4.4697 1.125 1.6663 2.175 3.1452 2.248 3.2496.17.2412.368.2509.517.2463zm-54.8291-.0193c.2835.0094 2.4346.007 3.3877.0057.3209.0063.4876-.2366.4983-.451.2024-4.0828.1158-23.52107-.0121-26.590496-.0106-.265333-.1243-.3649536-.3055-.3890748-.8179-.1095102-3.1425-.083942-3.8876.1109568-.1458.037871-.2317.148587-.2362.290902-.1825 7.911752-.0594 26.152212-.0208 26.497612.0384.3459.2193.5133.5767.5254z" fill="#443642"/><path d="m3.02431 19.3801c-1.32564.0101-2.4486-.7796-2.862651-2.0122-.015361-.0466-.029681-.0934-.04295-.1406-.451209-1.5785.423703-3.2299 1.991841-3.7586l25.15195-8.42384c.2986-.08637.6077-.13149.9185-.13411 1.3609-.01062 2.5148.79648 2.9389 2.05512l.0377.12158c.4705 1.6441-.6986 3.11165-2.0992 3.58195-.001.0008-.2558.0869-25.01248 8.5368-.32906.1121-.67397.1708-1.02161.1739z" fill="#70cadb"/><path d="m7.21673 31.7457c-1.33601.0097-2.46283-.769-2.87205-1.984-.01554-.0462-.03002-.0927-.04344-.1396-.45748-1.5973.41647-3.266 1.98991-3.7955l25.15285-8.501c.325-.1086.6607-.164.9982-.1672 1.3397-.0101 2.5167.8081 2.9319 2.0368l.0386.1279c.243.8493.0995 1.8037-.3836 2.557-.36.5601-1.4955 1.0532-1.4955 1.0532l-25.24844 8.6303c-.34435.1165-.70491.1781-1.06843.1826z" fill="#e01765"/><path d="m28.1546 31.7994c-.652.0063-1.2892-.1939-1.8204-.5719-.5311-.3779-.929-.9143-1.1366-1.5322l-8.3944-24.92681-.042-.1399c-.4548-1.58959.4199-3.24768 1.9875-3.775932.3137-.10541.638-.160406.9644-.163301.485-.003618.9543.10565 1.3964.323943.3641.18002.689.43022.9561.73622.267.306.4709.66176.5999 1.04682l8.3937 24.92466.0244.0801c.4715 1.6504-.4013 3.3094-1.9689 3.8377-.3097.1034-.6336.1576-.9601.1606z" fill="#e8a723"/><path d="m15.6769 35.998c-.6524.0062-1.2899-.1942-1.8213-.5725-.5314-.3782-.9294-.915-1.1369-1.5333l-8.39227-24.92585c-.13003-.38455-.18292-.79095-.15563-1.19596.02728-.405.13421-.80065.31465-1.16429.18045-.36364.43086-.68813.73692-.95489.30605-.26677.66173-.47057 1.04668-.59973.31011-.10364.63456-.15801.96153-.16113.65207-.00644 1.28943.19368 1.82072.57167.53128.37798.92922.91442 1.1368 1.53242l8.3924 24.92686c.1301.3847.183.7913.1556 1.1965-.0273.4052-.1344.801-.3151 1.1648-.1807.3637-.4313.6882-.7377.9549-.3063.2668-.6623.4704-1.0475.5994-.3096.1037-.6335.158-.9599.1609h.001z" fill="#3eb890"/><path d="m24.0161 26.1859 5.8532-2.0006-1.9134-5.6805-5.86 1.9796z" fill="#cc2027"/><path d="m11.5577 30.4444 5.8527-2.0004-1.9279-5.724-5.85848 1.9804z" fill="#361238"/><path d="m19.8493 13.8129 5.8537-1.998-1.891-5.61416-5.8645 1.96419z" fill="#65863a"/><path d="m7.38935 18.0655 5.85365-1.998-1.9141-5.6858-5.86454 1.9639z" fill="#1a937d"/></svg>