<svg height="24" viewBox="0 0 24 24" width="24" xmlns="http://www.w3.org/2000/svg"><g fill="none" fill-rule="evenodd"><path d="m0 0h24v24h-24z" opacity="0"/><g fill="#000"><path d="m13.0799676 14.7839934 2.2040258-2.2040258c.6087205-.6087205.7596295-1.5386634.3746408-2.3086407l-.1248803-.2497606c-.3849886-.76997729-.2340797-1.6999202.3746409-2.30864072l2.7328041-2.73280409c.1952621-.19526215.5118446-.19526215.7071067 0 .0380007.03800066.0696265.08187913.0936602.12994659l1.1039757 2.2079514c.8445547 1.68910922.5135037 3.72913702-.8218544 5.06449512l-5.9988255 5.9988255c-1.4535395 1.4535395-3.6035608 1.9610907-5.55368872 1.3110481l-2.41447961-.8048266c-.26197166-.0873239-.40355165-.3704839-.31622777-.6324555.02454641-.0736392.06590083-.1405521.12078826-.1954395l2.65127182-2.6512718c.60872052-.6087206 1.53866343-.7596295 2.30864072-.3746409l.2497606.1248803c.7699773.3849887 1.6999202.2340797 2.3086407-.3746408z"/><path d="m14.1480759 6.00715131-.1913771 1.99082265c-1.4785599-.14213346-2.9469781.37098496-4.01735897 1.44136587-1.06687673 1.06687677-1.58022395 2.52922037-1.44269788 4.00329537l-1.99135217.1857863c-.19224419-2.0605719.52754956-4.11100831 2.01983649-5.60329523 1.49719863-1.49719861 3.55611633-2.21665894 5.62294963-2.01797496zm.3500179-3.98484829-.1850448 1.99142122c-2.6512191-.24635378-5.28304162.67809379-7.2021363 2.59718846-1.91644158 1.91644159-2.84105555 4.5436745-2.59817118 7.1914923l-1.99163833.182693c-.29659341-3.2333299.83452262-6.44732553 3.17559595-8.78839886 2.34431825-2.34431825 5.56391466-3.47522581 8.80139466-3.17439612z" fill-rule="nonzero" opacity=".3"/></g></g></svg>