<svg height="24" viewBox="0 0 24 24" width="24" xmlns="http://www.w3.org/2000/svg"><g fill="none" fill-rule="evenodd"><path d="m0 0h24v24h-24z" opacity="0"/><g fill="#000"><path d="m17 2h2c1.6568542 0 3 1.34314575 3 3v14c0 1.6568542-1.3431458 3-3 3h-2z" opacity=".3"/><path d="m4 2h12c1.6568542 0 3 1.34314575 3 3v14c0 1.6568542-1.3431458 3-3 3h-12c-.55228475 0-1-.4477153-1-1v-18c0-.55228475.44771525-1 1-1zm7.1176481 11.709585c-.4451194.4451193-1.12512863.5554697-1.68816503.2739515-.56303641-.2815182-1.24304568-.1711679-1.68816504.2739514l-1.51100973 1.5110098c-.05488743.0548874-.09624185.1218002-.12078826.1954395-.08732388.2619716.05425611.5451316.31622777.6324555l1.35381943.4512731c1.30008525.4333618 2.73343286.0949943 3.70245916-.874032l3.999217-3.999217c.8902387-.8902387 1.1109394-2.25025726.547903-3.37633007l-.6325712-1.26514237c-.0240338-.04806745-.0556596-.09194593-.0936602-.12994659-.1952622-.19526215-.5118447-.19526215-.7071068 0l-1.592542 1.59254201c-.4451194.44511936-.5554697 1.12512862-.2739515 1.68816502s.1711679 1.2430457-.2739515 1.688165z"/></g></g></svg>