<svg height="24" viewBox="0 0 24 24" width="24" xmlns="http://www.w3.org/2000/svg"><g fill="none" fill-rule="evenodd"><path d="m0 0h24v24h-24z" opacity="0"/><g fill="#000"><path d="m18 2h2c1.6568542 0 3 1.34314575 3 3v14c0 1.6568542-1.3431458 3-3 3h-2z" opacity=".3"/><path d="m5 2h12c1.6568542 0 3 1.34314575 3 3v14c0 1.6568542-1.3431458 3-3 3h-12c-.55228475 0-1-.4477153-1-1v-18c0-.55228475.44771525-1 1-1zm7 9c1.1045695 0 2-.8954305 2-2s-.8954305-2-2-2-2 .8954305-2 2 .8954305 2 2 2zm-4.99963795 5.4995035c-.01172969.162484.26447804.5004965.40380585.5004965h9.1773321c.4173413 0 .4238266-.3778287.4173413-.5-.1627948-3.0667545-2.3481655-4.5-5.0080961-4.5-2.62301612 0-4.77504602 1.5165724-4.99038315 4.4995035z"/></g></g></svg>