<svg height="24" viewBox="0 0 24 24" width="24" xmlns="http://www.w3.org/2000/svg"><g fill="none" fill-rule="evenodd"><path d="m0 0h24v24h-24z" opacity="0"/><path d="m12 22c-5.5228475 0-10-4.4771525-10-10s4.4771525-10 10-10 10 4.4771525 10 10-4.4771525 10-10 10zm-.386078-8.7869659c-.4451194.4451193-1.1251286.5554696-1.68816505.2739514-.56303641-.2815182-1.24304567-.1711679-1.68816504.2739515l-1.51100973 1.5110097c-.05488743.0548875-.09624185.1218003-.12078825.1954395-.08732389.2619717.0542561.5451317.31622776.6324556l1.35381944.4512731c1.30008525.4333618 2.73343287.0949943 3.70245917-.874032l3.999217-3.999217c.8902387-.8902388 1.1109393-2.25025729.5479029-3.3763301l-.6325711-1.26514237c-.0240338-.04806745-.0556596-.09194593-.0936602-.12994659-.1952622-.19526215-.5118447-.19526215-.7071068 0l-1.592542 1.592542c-.4451194.44511937-.5554697 1.12512863-.2739515 1.68816506.2815182.5630364.1711679 1.2430457-.2739515 1.688165z" fill="#000"/></g></svg>