<svg height="24" viewBox="0 0 24 24" width="24" xmlns="http://www.w3.org/2000/svg"><g fill="none" fill-rule="evenodd"><path d="m0 0h24v24h-24z" opacity="0"/><path d="m11.914857 14.1427403 2.2040257-2.2040258c.6087205-.6087205.7596295-1.5386634.3746408-2.30864072l-.1248802-.24976055c-.3849887-.76997732-.2340797-1.69992023.3746408-2.30864075l2.7328041-2.73280409c.1952621-.19526215.5118446-.19526215.7071068 0 .0380006.03800065.0696264.08187913.0936602.12994659l1.1039757 2.2079514c.8445546 1.68910922.5135036 3.72913702-.8218544 5.06449512l-5.9988255 5.9988255c-1.4535395 1.4535395-3.60356092 1.9610907-5.55368879 1.3110481l-2.41447961-.8048266c-.26197166-.0873239-.40355165-.3704839-.31622776-.6324555.0245464-.0736392.06590082-.1405521.12078825-.1954395l2.65127182-2.6512718c.60872053-.6087206 1.53866344-.7596295 2.30864076-.3746409l.24976054.1248803c.76997729.3849887 1.69992019.2340797 2.30864079-.3746408z" fill="#000"/></g></svg>