<svg height="24" viewBox="0 0 24 24" width="24" xmlns="http://www.w3.org/2000/svg"><g fill="none" fill-rule="evenodd"><path d="m0 0h24v24h-24z" opacity="0"/><g fill="#000"><path d="m5 15-2 6.5 6.5-2z" opacity=".3"/><path d="m13 2c5.5228475 0 10 4.4771525 10 10s-4.4771525 10-10 10-10-4.4771525-10-10 4.4771525-10 10-10zm-5.83205029 11.5547002c1.50963156 2.2644473 3.47771899 3.4452998 5.83205029 3.4452998s4.3224187-1.1808525 5.8320503-3.4452998c.3063525-.4595287.1821786-1.080398-.2773501-1.3867505s-1.080398-.1821786-1.3867505.2773501c-1.1570351 1.7355527-2.522281 2.5547002-4.1679497 2.5547002s-3.0109146-.8191475-4.16794971-2.5547002c-.30635245-.4595287-.9272218-.5837026-1.38675049-.2773501-.45952868.3063525-.58370255.9272218-.27735009 1.3867505z"/></g></g></svg>