<svg height="24" viewBox="0 0 24 24" width="24" xmlns="http://www.w3.org/2000/svg"><g fill="none" fill-rule="evenodd"><path d="m0 0h24v24h-24z" opacity="0"/><g fill="#000"><path d="m21.9999843 15.009808.0249535-.009808v4.5857864c0 .5522848-.4477152 1-1 1-.2652165 0-.5195704-.1053568-.7071068-.2928932l-2.2928932-2.2928932h-12.0249378c-1.65685425 0-3-1.3431458-3-3v-9c0-1.65685425 1.34314575-3 3-3h13c1.6568542 0 3 1.34314575 3 3v9c0 .0032706-.0000052.0065399-.0000157.009808z" opacity=".3"/><path d="m7.5 12c-.82842712 0-1.5-.6715729-1.5-1.5 0-.82842712.67157288-1.5 1.5-1.5s1.5.67157288 1.5 1.5c0 .8284271-.67157288 1.5-1.5 1.5zm5 0c-.8284271 0-1.5-.6715729-1.5-1.5 0-.82842712.6715729-1.5 1.5-1.5s1.5.67157288 1.5 1.5c0 .8284271-.6715729 1.5-1.5 1.5zm5 0c-.8284271 0-1.5-.6715729-1.5-1.5 0-.82842712.6715729-1.5 1.5-1.5s1.5.67157288 1.5 1.5c0 .8284271-.6715729 1.5-1.5 1.5z" opacity=".3"/></g></g></svg>