<svg height="24" viewBox="0 0 24 24" width="24" xmlns="http://www.w3.org/2000/svg"><g fill="none" fill-rule="evenodd"><path d="m0 0h24v24h-24z" opacity="0"/><path d="m21.9999843 15.009808.0249535-.009808v4.5857864c0 .5522848-.4477152 1-1 1-.2652165 0-.5195704-.1053568-.7071068-.2928932l-2.2928932-2.2928932h-13.0249378c-1.65685425 0-3-1.3431458-3-3v-9c0-1.65685425 1.34314575-3 3-3h14c1.6568542 0 3 1.34314575 3 3v9c0 .0032706-.0000052.0065399-.0000157.009808zm-15.83203459-4.4551078c1.50963156 2.2644473 3.477719 3.4452998 5.83205029 3.4452998 2.3543313 0 4.3224187-1.1808525 5.8320503-3.4452998.3063525-.4595287.1821786-1.08039804-.2773501-1.38675049-.4595287-.30635246-1.080398-.18217859-1.3867505.27735009-1.1570351 1.7355527-2.522281 2.5547002-4.1679497 2.5547002s-3.0109146-.8191475-4.16794971-2.5547002c-.30635245-.45952868-.9272218-.58370255-1.38675049-.27735009-.45952868.30635245-.58370255.92722179-.27735009 1.38675049z" fill="#000"/></g></svg>