<svg height="24" viewBox="0 0 24 24" width="24" xmlns="http://www.w3.org/2000/svg"><g fill="none" fill-rule="evenodd"><path d="m0 0h24v24h-24z" opacity="0"/><g fill="#000"><path d="m4.875 20.75c-.23958333 0-.47916667-.0958333-.67083333-.2875l-1.91666667-1.9166667c-.38333333-.3833333-.38333333-.9583333 0-1.3416666.38333333-.3833334 1.00625-.3833334 1.34166667 0l1.24583333 1.2458333 3.1625-3.1625c.38333333-.3833333.95833333-.3833333 1.34166667 0 .38333333.3833333.38333333.9583333 0 1.3416667l-3.83333334 3.8333333c-.19166666.1916667-.43125.2875-.67083333.2875z" fill-rule="nonzero" opacity=".3"/><path d="m2 11.8650466v-5.8650466c0-1.65685425 1.34314575-3 3-3h14c1.6568542 0 3 1.34314575 3 3v9c0 .0032706-.0000052.0065399-.0000157.009808l.0249535-.009808v4.5857864c0 .5522848-.4477152 1-1 1-.2652165 0-.5195704-.1053568-.7071068-.2928932l-2.2928932-2.2928932h-5.0413401c-.257293-3.9090159-3.50947635-7-7.4835977-7-1.26409171 0-2.45514106.3127315-3.5.8650466zm4-4.8650466c-.55228475 0-1 .44771525-1 1s.44771525 1 1 1h9c.5522847 0 1-.44771525 1-1s-.4477153-1-1-1z"/></g></g></svg>