<svg height="24" viewBox="0 0 24 24" width="24" xmlns="http://www.w3.org/2000/svg"><g fill="none" fill-rule="evenodd"><path d="m0 0h24v24h-24z" opacity="0"/><path d="m14.486222 18-1.6887266 3.0565532c-.2670814.4834107-.8754756.6587803-1.3588863.3916989-.1408964-.0778444-.2609184-.1885516-.3498672-.3227142l-2.07220832-3.1255379h-4.01653358c-1.65685425 0-3-1.3431458-3-3v-9c0-1.65685425 1.34314575-3 3-3h14c1.6568542 0 3 1.34314575 3 3v9c0 1.6568542-1.3431458 3-3 3z" fill="#fff"/><path d="m6 7h9c.5522847 0 1 .44771525 1 1s-.4477153 1-1 1h-9c-.55228475 0-1-.44771525-1-1s.44771525-1 1-1zm0 4h5c.5522847 0 1 .4477153 1 1s-.4477153 1-1 1h-5c-.55228475 0-1-.4477153-1-1s.44771525-1 1-1z" fill="#000" stroke="#000"/></g></svg>