<svg height="24" viewBox="0 0 24 24" width="24" xmlns="http://www.w3.org/2000/svg"><g fill="none" fill-rule="evenodd"><path d="m0 0h24v24h-24z" opacity="0"/><g fill="#000"><path d="m5 15-2 6.5 6.5-2z" opacity=".3"/><path d="m16 10v-.5c0-1.38071187-1.1192881-2.5-2.5-2.5s-2.5 1.11928813-2.5 2.5v.5c-.5522847 0-1 .4477153-1 1v3c0 .5522847.4477153 1 1 1h5c.5522847 0 1-.4477153 1-1v-3c0-.5522847-.4477153-1-1-1zm-2.5 11c-5.24670512 0-9.5-4.2532949-9.5-9.5 0-5.24670512 4.25329488-9.5 9.5-9.5 5.2467051 0 9.5 4.25329488 9.5 9.5 0 5.2467051-4.2532949 9.5-9.5 9.5zm0-13c.8284271 0 1.5.67157288 1.5 1.5v.5h-3v-.5c0-.82842712.6715729-1.5 1.5-1.5z"/></g></g></svg>