<svg height="24" viewBox="0 0 24 24" width="24" xmlns="http://www.w3.org/2000/svg"><g fill="none" fill-rule="evenodd"><path d="m0 0h24v24h-24z" opacity="0"/><g fill="#000"><path d="m8 3v.5c0 .82842712.67157288 1.5 1.5 1.5h5c.8284271 0 1.5-.67157288 1.5-1.5v-.5h2c1.1045695 0 2 .8954305 2 2v16c0 1.1045695-.8954305 2-2 2h-12c-1.1045695 0-2-.8954305-2-2v-16c0-1.1045695.8954305-2 2-2z" opacity=".3"/><path d="m10.875 15.75c-.2395833 0-.4791667-.0958333-.6708333-.2875l-1.9166667-1.9166667c-.38333333-.3833333-.38333333-.9583333 0-1.3416666.38333333-.3833334 1.00625-.3833334 1.34166667 0l1.24583333 1.2458333 3.1625-3.1625c.3833333-.38333333.9583333-.38333333 1.3416667 0 .3833333.3833333.3833333.9583333 0 1.3416667l-3.8333334 3.8333333c-.1916666.1916667-.43125.2875-.6708333.2875z"/><path d="m11 2c0-.55228475.4477153-1 1-1s1 .44771525 1 1h1.5c.2761424 0 .5.22385763.5.5v1c0 .27614237-.2238576.5-.5.5h-5c-.27614237 0-.5-.22385763-.5-.5v-1c0-.27614237.22385763-.5.5-.5z"/></g></g></svg>