<svg height="24" viewBox="0 0 24 24" width="24" xmlns="http://www.w3.org/2000/svg"><g fill="none" fill-rule="evenodd"><path d="m0 0h24v24h-24z" opacity="0"/><g fill="#000" fill-rule="nonzero"><path d="m9 11c-2.209139 0-4-1.790861-4-4s1.790861-4 4-4 4 1.790861 4 4-1.790861 4-4 4zm12-3h-4c-.5522847 0-1-.44771525-1-1s.4477153-1 1-1h4c.5522847 0 1 .44771525 1 1s-.4477153 1-1 1z" opacity=".3"/><path d="m.00065168 20.1992055c.38760685-4.7726896 4.26126067-7.1992055 8.98268966-7.1992055 4.78787506 0 8.72154236 2.2931929 9.01457296 7.2.0116736.1954741 0 .8-.7512144.8-3.7055759 0-9.21197518 0-16.51919767 0-.25079007 0-.74796398-.54082-.72685055-.8007945z"/></g></g></svg>