<svg height="24" viewBox="0 0 24 24" width="24" xmlns="http://www.w3.org/2000/svg"><g fill="none" fill-rule="evenodd"><path d="m0 0h24v24h-24z" opacity="0"/><g fill="#000"><path d="m3.5 3h1.5v16.5c0 .8284271-.67157288 1.5-1.5 1.5-.82842712 0-1.5-.6715729-1.5-1.5v-15c0-.82842712.67157288-1.5 1.5-1.5z"/><path d="m6.99987583 2.99995344 12.75477117.00003959c.5522847.00000171.9999986.44771835.9999969 1.0000031-.0000008.24704071-.0914444.48533772-.2567059.66896163l-2.997938 3.33104224 2.9979317 3.3310353c.3694591.41051.3361806 1.0427998-.0743294 1.4122588-.1836247.1652623-.4219229.2567059-.6689647.2567059h-12.75476177z" opacity=".3"/></g></g></svg>