<svg height="24" viewBox="0 0 24 24" width="24" xmlns="http://www.w3.org/2000/svg"><g fill="none" fill-rule="evenodd"><path d="m0 0h24v24h-24z" opacity="0"/><path d="m12.6571817 10v-4.32986712c0-.41421356-.3357864-.75-.75-.75-.1836856 0-.3609845.06740893-.4982729.18944301l-7.15722719 6.36197971c-.30958707.2751885-.33747262.7492428-.06228411 1.0588299.00975951.0109795.0198395.0216698.03022691.0320572l7.15722719 7.1572272c.2928932.2928932.767767.2928932 1.0606602 0 .1406523-.1406523.2196699-.3314177.2196699-.5303301v-4.1893398c1.3471873-.0811711 4.1776283-.0842022 8.4913229-.0090931l.0000005-.0000275c.2760853.0048072.5037937-.2151073.5086008-.4911926.0000505-.0029011.0000758-.0058026.0000758-.0087041l.0000535-3.9859642c0-.276172-.2238816-.5000536-.5000535-.5000536-.0016168 0-.0032336.0000079-.0048503.0000235-5.1307775.049769-7.9624941.0481062-8.4951497-.0049884z" fill="#000" fill-rule="nonzero" transform="matrix(-1 0 0 1 25.657182 0)"/></g></svg>