<svg height="24" viewBox="0 0 24 24" width="24" xmlns="http://www.w3.org/2000/svg"><g fill="none" fill-rule="evenodd"><path d="m0 0h24v24h-24z" opacity="0"/><g fill="#000" fill-rule="nonzero"><path d="m18 14c-1.6568542 0-3-1.3431458-3-3 0-1.65685425 1.3431458-3 3-3s3 1.34314575 3 3c0 1.6568542-1.3431458 3-3 3zm-9-3c-2.209139 0-4-1.790861-4-4s1.790861-4 4-4 4 1.790861 4 4-1.790861 4-4 4z" opacity=".3"/><path d="m17.6011961 15.0006174c3.4065082.037236 6.1879788 1.7595244 6.3972976 5.3993826.0084309.1466056 0 .6-.5425438.6h-3.8559499c0-2.2509346-.7437065-4.3281673-1.9988039-5.9993826zm-17.60054442 5.1985881c.38760685-4.7726896 4.26126067-7.1992055 8.98268966-7.1992055 4.78787506 0 8.72154236 2.2931929 9.01457296 7.2.0116736.1954741 0 .8-.7512144.8-3.7055759 0-9.21197518 0-16.51919767 0-.25079007 0-.74796398-.54082-.72685055-.8007945z"/></g></g></svg>