<svg height="24" viewBox="0 0 24 24" width="24" xmlns="http://www.w3.org/2000/svg"><g fill="none" fill-rule="evenodd"><path d="m0 0h24v24h-24z" opacity="0"/><g fill="#000"><path d="m16 15.6315789v-3.6315789c0-1.6568542-1.3431458-3-3-3h-6.83816771v-3.47368421c0-1.39524568 1.1310701-2.52631579 2.52631579-2.52631579h11.78947372c1.3952456 0 2.5263157 1.13107011 2.5263157 2.52631579v7.57894741l.0166782 4.6815298c.0009838.2761406-.2220749.5007944-.4982156.5017781-.1332247.0004746-.2611299-.0522387-.3553346-.1464434l-2.5105487-2.5105488z"/><path d="m1.98505595 18v-5c0-1.1045695.8954305-2 2-2h7.99999995c1.1045695 0 2 .8954305 2 2v5c0 1.1045695-.8954305 2-2 2h-7.88426976l-1.24385187 1.1905292c-.19949132.1909393-.51599789.1840066-.70693721-.0154848-.08907141-.0930608-.13878902-.2169084-.13878902-.3457262v-2.5050582c-.01720629-.1055404-.02615209-.2138555-.02615209-.32426zm4.51494405-4c-.27614237 0-.5.2238576-.5.5s.22385763.5.5.5h5c.2761424 0 .5-.2238576.5-.5s-.2238576-.5-.5-.5zm3 2c-.27614237 0-.5.2238576-.5.5s.22385763.5.5.5h2c.2761424 0 .5-.2238576.5-.5s-.2238576-.5-.5-.5z" opacity=".3"/></g></g></svg>