<svg height="24" viewBox="0 0 24 24" width="24" xmlns="http://www.w3.org/2000/svg"><g fill="none" fill-rule="evenodd"><path d="m0 0h24v24h-24z" opacity="0"/><g fill="#000"><path d="m5 9h14c1.1045695 0 2 .8954305 2 2v9c0 1.1045695-.8954305 2-2 2h-14c-1.1045695 0-2-.8954305-2-2v-9c0-1.1045695.8954305-2 2-2zm13.1444251 1.8396467-6.1444251 3.3085366-6.14442513-3.3085366c-.36470307-.1963786-.81954962-.0599246-1.01592819.3047784-.19637858.3647031-.05992462.8195496.30477845 1.0159282l6.49999997 3.5c.2219823.1195289.4891675.1195289.7111498 0l6.5-3.5c.364703-.1963786.501157-.6512251.3047784-1.0159282-.1963786-.364703-.6512251-.501157-1.0159282-.3047784z"/><path d="m11.1288761.73369771v1.9564735h-2.00767129c-.27614237 0-.5.22385763-.5.5v1.0232987c0 .27614238.22385763.5.5.5h2.00767129v1.9564735c0 .27614238.2238576.5.5.5.1183116 0 .2327903-.04195377.3230849-.11840318l3.5056612-2.96812285c.2107501-.17843487.2369467-.49393163.0585119-.70468174-.0178538-.02108716-.0374248-.04065813-.0585119-.0585119l-3.5056612-2.96812285c-.2107501-.17843487-.5262468-.1522382-.7046817.0585119-.0764494.09029468-.1184032.2047733-.1184032.32308492z" fill-rule="nonzero" opacity=".3" transform="matrix(0 1 -1 0 15.621205 -8.298189)"/></g></g></svg>