<svg height="24" viewBox="0 0 24 24" width="24" xmlns="http://www.w3.org/2000/svg"><g fill="none" fill-rule="evenodd"><path d="m0 0h24v24h-24z" opacity="0"/><g fill="#000"><path d="m6 2h12c.5522847 0 1 .44771525 1 1v9c0 .5522847-.4477153 1-1 1h-12c-.55228475 0-1-.4477153-1-1v-9c0-.55228475.44771525-1 1-1zm1.5 3c-.27614237 0-.5.22385763-.5.5s.22385763.5.5.5h6c.2761424 0 .5-.22385763.5-.5s-.2238576-.5-.5-.5zm0 2c-.27614237 0-.5.22385763-.5.5s.22385763.5.5.5h3c.2761424 0 .5-.22385763.5-.5s-.2238576-.5-.5-.5z" opacity=".3"/><path d="m3.79274528 6.57253826 8.20725472 5.92746174 8.2072547-5.92746174c.2238629-.16167876.5364062-.11126855.6980849.11259433.0615383.08520692.0946604.18763969.0946604.29274528v10.02212213c0 1.1045695-.8954305 2-2 2h-14c-1.1045695 0-2-.8954305-2-2v-10.02212213c0-.27614238.22385763-.5.5-.5.10510559 0 .20753836.03312206.29274528.09466039z"/></g></g></svg>