<svg height="24" viewBox="0 0 24 24" width="24" xmlns="http://www.w3.org/2000/svg"><g fill="none" fill-rule="evenodd"><path d="m0 0h24v24h-24z" opacity="0"/><g fill="#000"><path d="m3 17v-1c0-.5522847-.44771525-1-1-1s-1 .4477153-1 1h-1c0-1.1045695.8954305-2 2-2s2 .8954305 2 2v1h4c.55228475 0 1 .4477153 1 1v3c0 .5522847-.44771525 1-1 1h-5c-.55228475 0-1-.4477153-1-1v-3c0-.5522847.44771525-1 1-1z" opacity=".3"/><path d="m12.9835977 18c-.257293-3.9090159-3.50947635-7-7.4835977-7-.51369876 0-1.01533509.0516454-1.5.1500272v-4.1500272c0-1.1045695.8954305-2 2-2h14c1.1045695 0 2 .8954305 2 2v9c0 1.1045695-.8954305 2-2 2zm6.1608274-11.16035332-6.1444251 3.30853662-6.14442513-3.30853662c-.36470307-.19637858-.81954962-.05992462-1.01592819.30477845-.19637858.36470307-.05992462.81954962.30477845 1.01592819l6.49999997 3.49999998c.2219823.1195289.4891675.1195289.7111498 0l6.5-3.49999998c.364703-.19637857.501157-.65122512.3047784-1.01592819s-.6512251-.50115703-1.0159282-.30477845z"/></g></g></svg>