<svg height="24" viewBox="0 0 24 24" width="24" xmlns="http://www.w3.org/2000/svg"><g fill="none" fill-rule="evenodd"><path d="m0 0h24v24h-24z" opacity="0"/><g fill="#000"><path d="m14.8571499 13c.0927623-.2776703.1428501-.5736941.1428501-.8809524v-5.23809522c0-1.59110606-1.3431458-2.88095238-3-2.88095238h-.2727273c-1.5062311 0-2.7272727 1.17258756-2.7272727 2.61904762h1.0909091c0-.86787604.7326249-1.57142857 1.6363636-1.57142857h.2727273c1.0543618 0 1.9090909.82081129 1.9090909 1.83333333v5.23809522c0 .3192903-.0849945.6195168-.2344412.8809524h-3.3492994c-.1494467-.2614356-.2344412-.5616621-.2344412-.8809524v-2.6190476c0-.43393802.3663125-.78571429.8181818-.78571429s.8181818.35177627.8181818.78571429v1.8333333h1.0909091v-1.8333333c0-1.01252204-.8547291-1.83333333-1.9090909-1.83333333-1.05436179 0-1.9090909.82081129-1.9090909 1.83333333v2.6190476c0 .3072583.0500878.6032821.14285008.8809524h-3.14285008c-.55228475 0-1-.4477153-1-1v-9c0-.55228475.44771525-1 1-1h12c.5522847 0 1 .44771525 1 1v9c0 .5522847-.4477153 1-1 1z" opacity=".3"/><path d="m9 10.3333333v1.7857143c0 1.5911061 1.3431458 2.8809524 3 2.8809524s3-1.2898463 3-2.8809524v-1.7857143l5.2072547-3.76079504c.2238629-.16167876.5364062-.11126855.6980849.11259433.0615383.08520692.0946604.18763969.0946604.29274528v10.02212213c0 1.1045695-.8954305 2-2 2h-14c-1.1045695 0-2-.8954305-2-2v-10.02212213c0-.27614238.22385763-.5.5-.5.10510559 0 .20753836.03312206.29274528.09466039zm1.0909091.7878788 1.9090909 1.3787879 1.9090909-1.3787879v.9978355c0 1.0125221-.8547291 1.8333334-1.9090909 1.8333334s-1.9090909-.8208113-1.9090909-1.8333334z"/></g></g></svg>