<svg height="24" viewBox="0 0 24 24" width="24" xmlns="http://www.w3.org/2000/svg"><g fill="none" fill-rule="evenodd"><path d="m0 0h24v24h-24z" opacity="0"/><g fill="#000"><path d="m21 12.0829584c-.3252085-.0545596-.6592878-.0829584-1-.0829584-3.3137085 0-6 2.6862915-6 6 0 .3407122.0283988.6747915.0829584 1h-9.0829584c-1.1045695 0-2-.8954305-2-2v-9c0-1.1045695.8954305-2 2-2h14c1.1045695 0 2 .8954305 2 2zm-2.8555749-4.24331172-6.1444251 3.30853662-6.14442513-3.30853662c-.36470307-.19637858-.81954962-.05992462-1.01592819.30477845-.19637858.36470307-.05992462.81954962.30477845 1.01592819l6.49999997 3.49999998c.2219823.1195289.4891675.1195289.7111498 0l6.5-3.49999998c.364703-.19637857.501157-.65122512.3047784-1.01592819s-.6512251-.50115703-1.0159282-.30477845z"/><circle cx="19.5" cy="17.5" opacity=".3" r="2.5"/></g></g></svg>