<svg height="24" viewBox="0 0 24 24" width="24" xmlns="http://www.w3.org/2000/svg"><g fill="none" fill-rule="evenodd"><path d="m0 0h24v24h-24z" opacity="0"/><g fill="#000"><path d="m22 15v4c0 1.1045695-.8954305 2-2 2h-16c-1.1045695 0-2-.8954305-2-2v-4h4.27924078l.54415184 1.6324555c.2722281.8166843 1.03650578 1.3675445 1.8973666 1.3675445h6.66120678c.7575441 0 1.4500704-.4280048 1.7888544-1.1055728l.9472136-1.8944272z"/><path d="m2.5625 13 3.36404389-5.98052248c.35423661-.62975396 1.02060445-1.01947752 1.74315108-1.01947752h8.66061003c.7225467 0 1.3889145.38972356 1.7431511 1.01947752l3.3640439 5.98052248h-3.319466c-.7575441 0-1.4500704.4280048-1.7888544 1.1055728l-.9472136 1.8944272h-6.66120678l-.54415184-1.6324555c-.2722281-.8166843-1.03650578-1.3675445-1.8973666-1.3675445z" opacity=".3"/></g></g></svg>