<svg height="24" viewBox="0 0 24 24" width="24" xmlns="http://www.w3.org/2000/svg"><g fill="none" fill-rule="evenodd"><path d="m0 0h24v24h-24z" opacity="0"/><g fill="#000"><path d="m6.58578644 8-1.41421356-1.41421356c-.3905243-.39052429-.3905243-1.02368927 0-1.41421356.39052429-.3905243 1.02368927-.3905243 1.41421356 0l1.41421356 1.41421356 1.41421356-1.41421356c.39052429-.3905243 1.02368924-.3905243 1.41421354 0 .3905243.39052429.3905243 1.02368927 0 1.41421356l-1.41421354 1.41421356 1.41421354 1.41421356c.3905243.39052429.3905243 1.02368924 0 1.41421354s-1.02368925.3905243-1.41421354 0l-1.41421356-1.41421354-1.41421356 1.41421354c-.39052429.3905243-1.02368927.3905243-1.41421356 0-.3905243-.3905243-.3905243-1.02368925 0-1.41421354z" opacity=".3"/><path d="m13.0799676 14.7839934 2.2040258-2.2040258c.6087205-.6087205.7596295-1.5386634.3746408-2.3086407l-.1248803-.2497606c-.3849886-.76997729-.2340797-1.6999202.3746409-2.30864072l2.7328041-2.73280409c.1952621-.19526215.5118446-.19526215.7071067 0 .0380007.03800066.0696265.08187913.0936602.12994659l1.1039757 2.2079514c.8445547 1.68910922.5135037 3.72913702-.8218544 5.06449512l-5.9988255 5.9988255c-1.4535395 1.4535395-3.6035608 1.9610907-5.55368872 1.3110481l-2.41447961-.8048266c-.26197166-.0873239-.40355165-.3704839-.31622777-.6324555.02454641-.0736392.06590083-.1405521.12078826-.1954395l2.65127182-2.6512718c.60872052-.6087206 1.53866343-.7596295 2.30864072-.3746409l.2497606.1248803c.7699773.3849887 1.6999202.2340797 2.3086407-.3746408z"/></g></g></svg>