<svg height="24" viewBox="0 0 24 24" width="24" xmlns="http://www.w3.org/2000/svg"><g fill="none" fill-rule="evenodd"><path d="m0 0h24v24h-24z" opacity="0"/><g fill="#000"><path d="m7.14296018 11.6653622c-.0802819.0802819-.1854963.1308506-.29833763.1433885-.27445341.0304948-.52166281-.1672727-.55215763-.4417261l-.52320379-4.70883413c-.00407751-.03669759-.00407751-.07373393 0-.11043152.03049482-.27445342.27770422-.47222093.55215763-.44172611l4.70883414.52320379c.1128413.01253793.2180557.06310658.2983376.14338848.1952621.19526215.1952621.51184463 0 .70710678l-1.38570839 1.38570837 1.50146219 1.50146214c.1952621.1952622.1952621.5118447 0 .7071068l-.7071068.7071068c-.1952621.1952622-.5118446.1952622-.7071068 0l-1.50146215-1.5014622z" fill-rule="nonzero" opacity=".3"/><path d="m12.0799676 14.7839934 2.2040258-2.2040258c.6087205-.6087205.7596295-1.5386634.3746408-2.3086407l-.1248803-.2497606c-.3849886-.76997729-.2340797-1.6999202.3746409-2.30864072l2.7328041-2.73280409c.1952621-.19526215.5118446-.19526215.7071067 0 .0380007.03800066.0696265.08187913.0936602.12994659l1.1039757 2.2079514c.8445547 1.68910922.5135037 3.72913702-.8218544 5.06449512l-5.9988255 5.9988255c-1.4535395 1.4535395-3.60356085 1.9610907-5.55368872 1.3110481l-2.41447961-.8048266c-.26197166-.0873239-.40355165-.3704839-.31622777-.6324555.02454641-.0736392.06590083-.1405521.12078826-.1954395l2.65127182-2.6512718c.60872052-.6087206 1.53866343-.7596295 2.30864076-.3746409l.24976054.1248803c.76997732.3849887 1.69992022.2340797 2.30864072-.3746408z"/></g></g></svg>