<svg height="24" viewBox="0 0 24 24" width="24" xmlns="http://www.w3.org/2000/svg"><g fill="none" fill-rule="evenodd"><path d="m0 0h24v24h-24z" opacity="0"/><g fill="#000"><path d="m22 17v4c0 1.1045695-.8954305 2-2 2h-16c-1.1045695 0-2-.8954305-2-2v-4h4.27924078l.54415184 1.6324555c.2722281.8166843 1.03650578 1.3675445 1.8973666 1.3675445h6.66120678c.7575441 0 1.4500704-.4280048 1.7888544-1.1055728l.9472136-1.8944272z"/><path d="m2.5625 15 3.36404389-5.98052248c.35423661-.62975396 1.02060445-1.01947752 1.74315108-1.01947752h8.66061003c.7225467 0 1.3889145.38972356 1.7431511 1.01947752l3.3640439 5.98052248h-3.319466c-.7575441 0-1.4500704.4280048-1.7888544 1.1055728l-.9472136 1.8944272h-6.66120678l-.54415184-1.6324555c-.2722281-.8166843-1.03650578-1.3675445-1.8973666-1.3675445z" opacity=".3"/><path d="m11.1288761.73369771v1.9564735h-2.00767129c-.27614237 0-.5.22385763-.5.5v1.0232987c0 .27614238.22385763.5.5.5h2.00767129v1.9564735c0 .27614238.2238576.5.5.5.1183116 0 .2327903-.04195377.3230849-.11840318l3.5056612-2.96812285c.2107501-.17843487.2369467-.49393163.0585119-.70468174-.0178538-.02108716-.0374248-.04065813-.0585119-.0585119l-3.5056612-2.96812285c-.2107501-.17843487-.5262468-.1522382-.7046817.0585119-.0764494.09029468-.1184032.2047733-.1184032.32308492z" fill-rule="nonzero" transform="matrix(0 -1 1 0 8.298189 15.621205)"/></g></g></svg>