<svg height="24" viewBox="0 0 24 24" width="24" xmlns="http://www.w3.org/2000/svg"><g fill="none" fill-rule="evenodd"><path d="m0 0h24v24h-24z" opacity="0"/><g fill="#000" fill-rule="nonzero"><path d="m8.29606274 4.13760526-7.14006581 6.47765734c-.30677773.2783169-.32984979.7526298-.05153289 1.0594076.01460809.0161019.02990942.031561.04586062.0463335l7.14006581 6.6124633c.30390622.2814496.77843088.263245 1.05988049-.0406613.12839813-.1386429.19972911-.3206441.19972911-.5096096v-13.09012062c0-.41421357-.33578644-.75-.75-.75-.18631023 0-.36595096.06934487-.50393733.19452978z" opacity=".3"/><path d="m23.2951173 17.7910156c0-.8203125.1757812-4.0576172-2.3779297-6.6259765-1.71875-1.72851566-4.2910157-2.02832035-7.3671875-2.1650391v-4.30692452c0-.41421357-.3357865-.75-.75-.75-.1863103 0-.365951.06934487-.5039374.19452978l-7.14006577 6.47765734c-.30677773.2783169-.32984979.7526298-.05153289 1.0594076.01460809.0161019.02990942.031561.04586062.0463335l7.14006584 6.6124633c.3039062.2814496.7784309.263245 1.0598805-.0406613.1283981-.1386429.1997291-.3206441.1997291-.5096096v-4.2831961c1.953125.0537109 3.3443704.1779456 4.6083984.5800781 1.8200288.5790163 3.2265764 2.2217674 4.2196427 4.9282533l-.0000163.000006c.1083655.2953375.3895249.4916626.7041157.4916626h.2178595c0-.4931641-.0048828-1.2744141-.0048828-1.7089844z"/></g></g></svg>