<svg height="24" viewBox="0 0 24 24" width="24" xmlns="http://www.w3.org/2000/svg"><g fill="none" fill-rule="evenodd"><path d="m0 0h24v24h-24z" opacity="0"/><g fill="#000"><path d="m8 17c.55228475 0 1 .4477153 1 1v3c0 .5522847-.44771525 1-1 1h-5c-.55228475 0-1-.4477153-1-1v-3c0-.5522847.44771525-1 1-1v-.5c0-1.3807119 1.11928813-2.5 2.5-2.5s2.5 1.1192881 2.5 2.5zm-2.5-2c-.82842712 0-1.5.6715729-1.5 1.5v.5h3v-.5c0-.8284271-.67157288-1.5-1.5-1.5z" opacity=".3"/><path d="m2 11.8650466v-5.8650466c0-1.65685425 1.34314575-3 3-3h14c1.6568542 0 3 1.34314575 3 3v9c0 .0032706-.0000052.0065399-.0000157.009808l.0249535-.009808v4.5857864c0 .5522848-.4477152 1-1 1-.2652165 0-.5195704-.1053568-.7071068-.2928932l-2.2928932-2.2928932h-5.0413401c-.257293-3.9090159-3.50947635-7-7.4835977-7-1.26409171 0-2.45514106.3127315-3.5.8650466zm4-4.8650466c-.55228475 0-1 .44771525-1 1s.44771525 1 1 1h9c.5522847 0 1-.44771525 1-1s-.4477153-1-1-1z"/></g></g></svg>