<svg height="24" viewBox="0 0 24 24" width="24" xmlns="http://www.w3.org/2000/svg"><g fill="none" fill-rule="evenodd"><path d="m0 0h24v24h-24z" opacity="0"/><g fill="#000"><path d="m4 16h1c.55228475 0 1 .4477153 1 1s-.44771525 1-1 1h-1c-.55228475 0-1-.4477153-1-1s.44771525-1 1-1zm-3-5h4c.55228475 0 1 .4477153 1 1s-.44771525 1-1 1h-4c-.55228475 0-1-.4477153-1-1s.44771525-1 1-1zm2-5h2c.55228475 0 1 .44771525 1 1s-.44771525 1-1 1h-2c-.55228475 0-1-.44771525-1-1s.44771525-1 1-1z" opacity=".3"/><path d="m10 6h12c1.1045695 0 2 .8954305 2 2v8c0 1.1045695-.8954305 2-2 2h-12c-1.1045695 0-2-.8954305-2-2v-8c0-1.1045695.8954305-2 2-2zm11.0849395 2.0718316-5.0849395 2.6467523-5.0849395-2.6467523c-.3018172-.15709829-.6782343-.04793829-.8407513.24381568-.16251692.29175397-.0495918.65562062.2522254.81271891l5.3792024 2.79991851c.1837058.0956204.4048202.0956204.588526 0l5.3792024-2.79991851c.3018172-.15709829.4147423-.52096494.2522254-.81271891-.162517-.29175397-.5389341-.40091397-.8407513-.24381568z"/></g></g></svg>