<svg height="24" viewBox="0 0 24 24" width="24" xmlns="http://www.w3.org/2000/svg"><g fill="none" fill-rule="evenodd"><path d="m0 0h24v24h-24z" opacity="0"/><g fill="#000"><path d="m8 13.1668961 12.4470385-1.1669098-12.4470385-1.1669099v-5.06125645c0-.07073937.01501031-.1406736.04403925-.20518234.11331907-.25182017.40932292-.36409749.66114309-.25077842l13.84036966 6.22816631c.1114271.0501422.2006362.1393513.2507784.2507785.1133191.2518201.0010418.547824-.2507784.661143l-13.84036966 6.2281664c-.06450875.0290289-.13444298.0440392-.20518234.0440392-.27614237 0-.5-.2238576-.5-.5z"/><path d="m4 16h1c.55228475 0 1 .4477153 1 1s-.44771525 1-1 1h-1c-.55228475 0-1-.4477153-1-1s.44771525-1 1-1zm-3-5h4c.55228475 0 1 .4477153 1 1s-.44771525 1-1 1h-4c-.55228475 0-1-.4477153-1-1s.44771525-1 1-1zm3-5h1c.55228475 0 1 .44771525 1 1s-.44771525 1-1 1h-1c-.55228475 0-1-.44771525-1-1s.44771525-1 1-1z" opacity=".3"/></g></g></svg>