<svg height="24" viewBox="0 0 24 24" width="24" xmlns="http://www.w3.org/2000/svg"><g fill="none" fill-rule="evenodd"><path d="m0 0h24v24h-24z" opacity="0"/><path d="m4.5 3h15c.8284271 0 1.5.67157288 1.5 1.5v15c0 .8284271-.6715729 1.5-1.5 1.5h-15c-.82842712 0-1.5-.6715729-1.5-1.5v-15c0-.82842712.67157288-1.5 1.5-1.5zm3.5 2c-.55228475 0-1 .44771525-1 1s.44771525 1 1 1h8c.5522847 0 1-.44771525 1-1s-.4477153-1-1-1zm2.5857864 9-1.41421352 1.4142136c-.3905243.3905243-.3905243 1.0236892 0 1.4142135.39052429.3905243 1.02368922.3905243 1.41421352 0l1.4142136-1.4142135 1.4142136 1.4142135c.3905243.3905243 1.0236892.3905243 1.4142135 0s.3905243-1.0236892 0-1.4142135l-1.4142135-1.4142136 1.4142135-1.4142136c.3905243-.3905243.3905243-1.0236892 0-1.4142135s-1.0236892-.3905243-1.4142135 0l-1.4142136 1.4142135-1.4142136-1.4142135c-.3905243-.3905243-1.02368923-.3905243-1.41421352 0-.3905243.3905243-.3905243 1.0236892 0 1.4142135z" fill="#000"/></g></svg>