<svg height="24" viewBox="0 0 24 24" width="24" xmlns="http://www.w3.org/2000/svg"><g fill="none" fill-rule="evenodd"><path d="m0 0h24v24h-24z" opacity="0"/><g fill="#000"><path d="m11.6734943 8.3307728 3.3258131-2.23097788-.8779819-.87798189c-.3905243-.39052429-.3905243-1.02368927 0-1.41421356l1.4142135-1.41421356c.3905243-.3905243 1.0236893-.3905243 1.4142136 0l5.6568542 5.65685425c.3905243.39052429.3905243 1.02368927 0 1.41421356l-1.4142135 1.41421358c-.3905243.3905243-1.0236893.3905243-1.4142136 0l-.8779464-.8779465-2.230996 3.32584c.2571772.9257656.329257 1.9054628.1971999 2.8826858l-.4319674 3.1965583c-.0739608.54731-.5776003.9310354-1.1249103.8570746-.2169904-.0293231-.4183589-.1290557-.5731889-.2838857l-9.71537166-9.7153717c-.39052429-.39052426-.39052429-1.02368924 0-1.41421353.15483003-.15483003.35619849-.25456263.57318889-.28388565l3.19655834-.43196735c.97724496-.13206013 1.95696423-.05997407 2.88274813.19721723z"/><path d="m5.55025253 13.9497475v5.7142857l1.5 2.2857143 1.5-2.2857143v-5.7142857z" opacity=".3" transform="matrix(.70710678 .70710678 -.70710678 .70710678 14.757359 .272077)"/></g></g></svg>