<svg height="24" viewBox="0 0 24 24" width="24" xmlns="http://www.w3.org/2000/svg"><g fill="none" fill-rule="evenodd"><path d="m0 0h24v24h-24z" opacity="0"/><g fill="#000" fill-rule="nonzero"><path d="m12.2674799 18.2323597-.2589927-12.77383519c-.0080569-.39737659.1419282-.78170621.4170165-1.06858502l2.577513-2.68798645 2.5880585 2.69898391c.2688319.28035415.4184315.65405908.4173186 1.04247612l-.0365676 12.76283773c-.0023687.8267458-.6732446 1.4957022-1.4999938 1.4957022h-2.7046607c-.8165765 0-1.4831389-.6531846-1.4996918-1.4695933z" transform="matrix(-.70710678 -.70710678 .70710678 -.70710678 17.53038 28.665227)"/><path d="m12.9 2c.5522847 0 1 .44771525 1 1s-.4477153 1-1 1h-6.9c-1.1045695 0-2 .8954305-2 2v12c0 1.1045695.8954305 2 2 2h12c1.1045695 0 2-.8954305 2-2v-5c0-.5522847.4477153-1 1-1s1 .4477153 1 1v5c0 2.209139-1.790861 4-4 4h-12c-2.209139 0-4-1.790861-4-4v-12c0-2.209139 1.790861-4 4-4z" opacity=".3"/></g></g></svg>