<svg height="24" viewBox="0 0 24 24" width="24" xmlns="http://www.w3.org/2000/svg"><g fill="none" fill-rule="evenodd"><path d="m0 0h24v24h-24z" opacity="0"/><g fill="#000"><path d="m8.97852058 18.8007059c-.17822727 1.2389269-1.44379046 2.1992941-2.97852058 2.1992941-1.65685425 0-3-1.1192881-3-2.5s1.34314575-2.5 3-2.5c.35063542 0 .68722107.0501285 1 .1422548v-10.21054387c0-.51277151.31978104-.96604476.78944063-1.11899168l5.74999997-1.75853614c.724422-.2359115 1.4605594.3280722 1.4605594 1.11899169v1.75853613c0 .58617872-.5488366.96054513-1 1.06828907-.6491332.15502181-2.3157999.48835515-5 1v10.5512168c0 .0897788-.0072807.1729019-.02147942.2494891z" fill-rule="nonzero"/><path d="m16 13v-2c0-.5522847.4477153-1 1-1s1 .4477153 1 1v2h2c.5522847 0 1 .4477153 1 1s-.4477153 1-1 1h-2v2c0 .5522847-.4477153 1-1 1s-1-.4477153-1-1v-2h-2c-.5522847 0-1-.4477153-1-1s.4477153-1 1-1z" opacity=".3"/></g></g></svg>