<svg height="24" viewBox="0 0 24 24" width="24" xmlns="http://www.w3.org/2000/svg"><g fill="none" fill-rule="evenodd"><path d="m0 0h24v24h-24z" opacity="0"/><g fill="#000"><path d="m7 15c.55228475 0 1 .4477153 1 1s-.44771525 1-1 1h-1c-1.65685425 0-3-1.3431458-3-3v-7c0-1.65685425 1.34314575-3 3-3h12c1.6568542 0 3 1.34314575 3 3v7c0 1.6568542-1.3431458 3-3 3h-1c-.5522847 0-1-.4477153-1-1s.4477153-1 1-1h1c.5522847 0 1-.4477153 1-1v-7c0-.55228475-.4477153-1-1-1h-12c-.55228475 0-1 .44771525-1 1v7c0 .5522847.44771525 1 1 1z" fill-rule="nonzero"/><path d="m8 20h8l-4-5z" opacity=".3"/></g></g></svg>