<svg height="24" viewBox="0 0 24 24" width="24" xmlns="http://www.w3.org/2000/svg"><g fill="none" fill-rule="evenodd"><path d="m0 0h24v24h-24z" opacity="0"/><g fill="#000"><path d="m8 21h8l-4-5z" opacity=".3"/><path d="m17.4029496 14.5491021-1.5430482 1.2724001c-.9449962-1.1460032-2.3461542-1.8215022-3.8599014-1.8215022-1.5087915 0-2.90581596.6710418-3.85089879 1.8106159l-1.53946933-1.2767279c1.32110717-1.5929816 3.27995571-2.533888 5.39036812-2.533888 2.1173586 0 4.0819686.9471394 5.4029496 2.5491021zm3.0652132-2.5702133-1.5389938 1.277301c-1.7004965-2.0488934-4.2151593-3.2561898-6.929169-3.2561898-2.71025768 0-5.22179268 1.2039334-6.92233744 3.2479685l-1.53748444-1.2791175c2.07658631-2.49603271 5.14904422-3.968851 8.45982188-3.968851 3.3153667 0 6.3916375 1.47692603 8.4681628 3.9788888zm2.8222799-2.25839996-1.6119357 1.18391856c-2.2482242-3.06101541-5.8086639-4.9044074-9.678507-4.9044074-3.9233088 0-7.52717378 1.89509192-9.7674113 5.0270624l-1.6267012-1.16354764c2.61183639-3.65148539 6.81841608-5.86351476 11.3941125-5.86351476 4.5132783 0 8.6693179 2.15175957 11.2904427 5.72048884z" fill-rule="nonzero"/></g></g></svg>