<svg height="24" viewBox="0 0 24 24" width="24" xmlns="http://www.w3.org/2000/svg"><g fill="none" fill-rule="evenodd"><path d="m0 0h24v24h-24z" opacity="0"/><g fill="#000"><path d="m11.0879549 18.2771971 6.7407029-5.8795768c.2081017-.1815167.2296531-.4973648.0481365-.7054664-.0145916-.0167287-.0302811-.0324672-.0469642-.0471108l-6.740703-5.91665331c-.2075352-.18216407-.5234489-.1615967-.705613.04593851-.0800708.09122286-.1242242.20845782-.1242242.32983722v11.79623018c0 .2761424.2238576.5.5.5.120843 0 .2375973-.0437648.328665-.1231986z" opacity=".3" transform="matrix(-1 0 0 1 28.25929 0)"/><path d="m5.08795487 18.2771971 6.74070293-5.8795768c.2081017-.1815167.2296531-.4973648.0481365-.7054664-.0145916-.0167287-.0302811-.0324672-.0469642-.0471108l-6.74070299-5.91665331c-.20753521-.18216407-.5234489-.1615967-.70561297.04593851-.08007089.09122286-.12422426.20845782-.12422426.32983722v11.79623018c0 .2761424.22385763.5.5.5.12084305 0 .23759731-.0437648.32866499-.1231986z" transform="matrix(-1 0 0 1 16.25929 0)"/></g></g></svg>