<svg height="24" viewBox="0 0 24 24" width="24" xmlns="http://www.w3.org/2000/svg"><g fill="none" fill-rule="evenodd"><path d="m0 0h24v24h-24z" opacity="0"/><g fill="#000"><path d="m9.35321926 16.3736278 7.00121184-6.0029676c.2096343-.1797444.233865-.49539823.0541206-.70503261-.0162933-.01900274-.0339906-.03675512-.0529426-.05310739l-7.00121179-6.04082222c-.20907477-.18039499-.52480239-.15714543-.70519738.05192934-.07833833.09079281-.12143664.20671643-.12143664.32663402v12.04378986c0 .2761424.22385763.5.5.5.11938295 0 .23482601-.0427156.32545597-.1204234z" transform="matrix(0 -1 1 0 2.527763 22.268473)"/><rect height="13" opacity=".3" rx=".5" transform="matrix(0 1 1 0 -5 5)" width="3" x="11" y="11"/></g></g></svg>