<svg height="24" viewBox="0 0 24 24" width="24" xmlns="http://www.w3.org/2000/svg"><g fill="none" fill-rule="evenodd"><path d="m0 0h24v24h-24z" opacity="0"/><g fill="#000"><path d="m6.82866499 18.2771971 6.74070291-5.8795768c.2081017-.1815167.2296532-.4973648.0481365-.7054664-.0145916-.0167287-.0302811-.0324672-.0469642-.0471108l-6.74070297-5.91665331c-.20753521-.18216407-.5234489-.1615967-.70561297.04593851-.08007089.09122286-.12422426.20845782-.12422426.32983722v11.79623018c0 .2761424.22385763.5.5.5.12084305 0 .23759731-.0437648.32866499-.1231986z" opacity=".3"/><path d="m12.828665 18.2771971 6.7407029-5.8795768c.2081017-.1815167.2296532-.4973648.0481365-.7054664-.0145916-.0167287-.0302811-.0324672-.0469642-.0471108l-6.740703-5.91665331c-.2075352-.18216407-.5234489-.1615967-.7056129.04593851-.0800709.09122286-.1242243.20845782-.1242243.32983722v11.79623018c0 .2761424.2238576.5.5.5.1208431 0 .2375973-.0437648.328665-.1231986z"/></g></g></svg>