<svg height="24" viewBox="0 0 24 24" width="24" xmlns="http://www.w3.org/2000/svg"><g fill="none" fill-rule="evenodd"><path d="m0 0h24v24h-24z" opacity="0"/><g fill="#000"><path d="m3.5 22h17c.8284271 0 1.5-.6715729 1.5-1.5v-11c0-.82842712-.6715729-1.5-1.5-1.5h-10.5l-2.56066017-2.56066017c-.28130457-.28130457-.66283544-.43933983-1.06066017-.43933983h-2.87867966c-.82842712 0-1.5.67157288-1.5 1.5v14c0 .8284271.67157288 1.5 1.5 1.5z" opacity=".3"/><path d="m10.8333333 20c-1.01252201 0-1.8333333-.6840094-1.8333333-1.5277778 0-.8437683.82081129-1.5277778 1.8333333-1.5277778.2142772 0 .4199685.0306341.6111111.0869335v-4.2397768c0-.3133603.1954218-.5903607.482436-.6838282l3.5138889-1.074661c.4427023-.1441681.892564.2004886.892564.6838283v1.0746609c0 .3582204-.3354001.5869998-.6111111.6528433-.3966925.0947356-1.415211.2984393-3.0555555.6111112v4.4479658c0 .0548648-.0044493.1056623-.0131263.1524655-.1089167.757122-.8823164 1.3440131-1.8202071 1.3440131z"/></g></g></svg>