<svg height="24" viewBox="0 0 24 24" width="24" xmlns="http://www.w3.org/2000/svg"><g fill="none" fill-rule="evenodd"><path d="m0 0h24v24h-24z" opacity="0"/><g fill="#000"><path d="m12 21c-4.97056275 0-9-4.0294373-9-9 0-4.97056275 4.02943725-9 9-9 4.9705627 0 9 4.02943725 9 9 0 4.9705627-4.0294373 9-9 9zm-.2247449-7.7071068c.5522848 0 1-.4477152 1-1 0-.5522847-.4477152-1-1-1-.5522847 0-1 .4477153-1 1 0 .5522848.4477153 1 1 1zm-.5517122-4.19067068c1.0669322-.28588362 1.7000972-1.38255754 1.4142135-2.44948974-.2858836-1.06693221-1.3825575-1.70009719-2.4494897-1.41421356-1.06693222.28588362-1.7000972 1.38255753-1.41421358 2.44948974.28588363 1.06693221 1.38255758 1.70009718 2.44948978 1.41421356zm2.5881904 9.65925828c1.0669322-.2858836 1.7000972-1.3825576 1.4142136-2.4494898s-1.3825576-1.7000971-2.4494898-1.4142135-1.7000972 1.3825575-1.4142135 2.4494897c.2858836 1.0669322 1.3825575 1.7000972 2.4494897 1.4142136zm-6.12372434-3.5355339c1.06693221-.2858836 1.70009718-1.3825576 1.41421356-2.4494898s-1.38255754-1.7000972-2.44948974-1.4142135c-1.06693221.2858836-1.70009719 1.3825575-1.41421356 2.4494897.28588362 1.0669322 1.38255753 1.7000972 2.44948974 1.4142136zm9.65925824-2.5881905c1.0669322-.2858836 1.7000972-1.3825575 1.4142136-2.4494897-.2858836-1.06693222-1.3825576-1.7000972-2.4494898-1.41421358-1.0669322.28588363-1.7000971 1.38255758-1.4142135 2.44948978s1.3825575 1.7000972 2.4494897 1.4142135z" opacity=".3"/><path d="m17.6573343 19h3.3426657c.5522847 0 1 .4477153 1 1s-.4477153 1-1 1h-9c2.1432966 0 4.1116082-.7492001 5.6573343-2z"/></g></g></svg>