<svg height="24" viewBox="0 0 24 24" width="24" xmlns="http://www.w3.org/2000/svg"><g fill="none" fill-rule="evenodd"><path d="m0 0h24v24h-24z" opacity="0"/><g fill="#000"><path d="m6 3h12c1.1045695 0 2 .8954305 2 2v14c0 1.1045695-.8954305 2-2 2h-12c-1.1045695 0-2-.8954305-2-2v-14c0-1.1045695.8954305-2 2-2zm-.5 2c-.27614237 0-.5.22385763-.5.5v1c0 .27614237.22385763.5.5.5h1c.27614237 0 .5-.22385763.5-.5v-1c0-.27614237-.22385763-.5-.5-.5zm12 0c-.2761424 0-.5.22385763-.5.5v1c0 .27614237.2238576.5.5.5h1c.2761424 0 .5-.22385763.5-.5v-1c0-.27614237-.2238576-.5-.5-.5zm-12 4c-.27614237 0-.5.22385763-.5.5v1c0 .2761424.22385763.5.5.5h1c.27614237 0 .5-.2238576.5-.5v-1c0-.27614237-.22385763-.5-.5-.5zm12 0c-.2761424 0-.5.22385763-.5.5v1c0 .2761424.2238576.5.5.5h1c.2761424 0 .5-.2238576.5-.5v-1c0-.27614237-.2238576-.5-.5-.5zm-12 4c-.27614237 0-.5.2238576-.5.5v1c0 .2761424.22385763.5.5.5h1c.27614237 0 .5-.2238576.5-.5v-1c0-.2761424-.22385763-.5-.5-.5zm12 0c-.2761424 0-.5.2238576-.5.5v1c0 .2761424.2238576.5.5.5h1c.2761424 0 .5-.2238576.5-.5v-1c0-.2761424-.2238576-.5-.5-.5zm0 4c-.2761424 0-.5.2238576-.5.5v1c0 .2761424.2238576.5.5.5h1c.2761424 0 .5-.2238576.5-.5v-1c0-.2761424-.2238576-.5-.5-.5zm-12 0c-.27614237 0-.5.2238576-.5.5v1c0 .2761424.22385763.5.5.5h1c.27614237 0 .5-.2238576.5-.5v-1c0-.2761424-.22385763-.5-.5-.5z" opacity=".3"/><path d="m11.3521577 14.5722612 2.6046865-1.7804499c.2279717-.1558316.286453-.4669657.1306214-.6949374-.0347715-.0508686-.078646-.0948719-.1294124-.1297925l-2.6046865-1.7916773c-.2275139-.1564993-.5388181-.0989306-.6953174.1285834-.0573474.0833699-.0880496.1821777-.0880496.283367v3.5721273c0 .2761423.2238576.5.5.5.1006894 0 .199033-.0304.282158-.0872206z"/></g></g></svg>