<svg height="24" viewBox="0 0 24 24" width="24" xmlns="http://www.w3.org/2000/svg"><g fill="none" fill-rule="evenodd"><path d="m0 0h24v24h-24z" opacity="0"/><g fill="#000"><path d="m14.9297424 9h3.0702576c3.3137085 0 6 2.6862915 6 6s-2.6862915 6-6 6h-9c-.15612284 0-.31085298-.0059629-.46397508-.0176734-.17716054.0117203-.35589751.0176734-.53602492.0176734-4.418278 0-8-3.581722-8-8s3.581722-8 8-8c2.9611294 0 5.5465048 1.60879452 6.9297424 4z" opacity=".3"/><path d="m10.5833333 18.5c-.87445082 0-1.5833333-.6080084-1.5833333-1.3580247s.70888248-1.3580247 1.5833333-1.3580247c.1850576 0 .3627.0272303.5277778.0772742v-3.7686905c0-.2785425.1687733-.524765.4166492-.6078473l3.0347223-.9552542c.3823337-.1281495.7708507.1782121.7708507.6078473v.9552542c0 .3184181-.2896637.5217776-.5277777.5803052-.3425981.0842094-1.2222278.2652793-2.6388889.5432099v3.9537474c0 .0487687-.0038426.093922-.0113364.1355249-.0940644.6729974-.7620005 1.1946783-1.571997 1.1946783z"/></g></g></svg>