<svg height="24" viewBox="0 0 24 24" width="24" xmlns="http://www.w3.org/2000/svg"><g fill="none" fill-rule="evenodd"><path d="m0 0h24v24h-24z" opacity="0"/><path d="m8 17.0400072v-9.0400072c0-.43738497.28424981-.82401898.70172501-.95447998l8.99999999-2.5c.6439306-.20122831 1.298275.27983974 1.298275.95447998v11.5c0 .0001911-.0000001.0003822-.0000002.0005733-.0003871 1.104306-1.1195268 1.9994267-2.4999998 1.9994267-1.3807119 0-2.5-.8954305-2.5-2s1.1192881-2 2.5-2c.1712329 0 .338445.0137721.5.0400072v-7.0400072l-7 1.875v9.125c0 .0001911-.00000005.0003822-.00000016.0005733-.00038712 1.104306-1.11952683 1.9994267-2.49999984 1.9994267-1.38071187 0-2.5-.8954305-2.5-2s1.11928813-2 2.5-2c.17123292 0 .33844503.0137721.5.0400072z" fill="#000" fill-rule="nonzero"/></g></svg>