<svg height="24" viewBox="0 0 24 24" width="24" xmlns="http://www.w3.org/2000/svg"><g fill="none" fill-rule="evenodd"><path d="m0 0h24v24h-24z" opacity="0"/><path d="m11.9785206 18.8007059c-.1782273 1.2389269-1.4437905 2.1992941-2.9785206 2.1992941-1.65685425 0-3-1.1192881-3-2.5s1.34314575-2.5 3-2.5c.35063542 0 .68722107.0501285 1 .1422548v-10.21054387c0-.51277151.319781-.96604476.7894406-1.11899168l5.75-1.75853614c.724422-.2359115 1.4605594.3280722 1.4605594 1.11899169v1.75853613c0 .58617872-.5488366.96054513-1 1.06828907-.6491332.15502181-2.3157999.48835515-5 1v10.5512168c0 .0897788-.0072807.1729019-.0214794.2494891z" fill="#000" fill-rule="nonzero"/></g></svg>