<svg height="24" viewBox="0 0 24 24" width="24" xmlns="http://www.w3.org/2000/svg"><g fill="none" fill-rule="evenodd"><path d="m0 0h24v24h-24z" opacity="0"/><g fill="#000"><path d="m18 11v-2c0-.55228475.4477153-1 1-1s1 .44771525 1 1v2h2c.5522847 0 1 .4477153 1 1s-.4477153 1-1 1h-2v2c0 .5522847-.4477153 1-1 1s-1-.4477153-1-1v-2h-2c-.5522847 0-1-.4477153-1-1s.4477153-1 1-1z" opacity=".3" transform="matrix(.70710678 -.70710678 .70710678 .70710678 -2.92031 16.949747)"/><path d="m7 16-3.39223227-.6784465c-.93484839-.1869696-1.60776773-1.0077993-1.60776773-1.9611613v-2.7207844c0-.95336203.67291934-1.77419167 1.60776773-1.96116135l3.39223227-.67844645 3.2928932-3.29289322c.3905243-.39052429 1.0236893-.39052429 1.4142136 0 .1875364.18753638.2928932.44189029.2928932.70710678v13.17157284c0 .5522848-.4477153 1-1 1-.2652165 0-.5195704-.1053568-.7071068-.2928932z"/></g></g></svg>