<svg height="24" viewBox="0 0 24 24" width="24" xmlns="http://www.w3.org/2000/svg"><g fill="none" fill-rule="evenodd"><path d="m0 0h24v24h-24z" opacity="0"/><g fill="#000"><path d="m11.5 5h7c.8284271 0 1.5.67157288 1.5 1.5s-.6715729 1.5-1.5 1.5h-7c-.8284271 0-1.5-.67157288-1.5-1.5s.6715729-1.5 1.5-1.5zm-6 12h13c.8284271 0 1.5.6715729 1.5 1.5s-.6715729 1.5-1.5 1.5h-13c-.82842712 0-1.5-.6715729-1.5-1.5s.67157288-1.5 1.5-1.5zm0-6h13c.8284271 0 1.5.6715729 1.5 1.5s-.6715729 1.5-1.5 1.5h-13c-.82842712 0-1.5-.6715729-1.5-1.5s.67157288-1.5 1.5-1.5z" opacity=".3"/><path d="m4.82866499 9.40751652 2.87469059-2.50744831c.20810169-.18151666.22965312-.49736474.04813646-.70546643-.01459161-.0167287-.03028106-.03246711-.04696422-.04711075l-2.87469059-2.52326023c-.20753521-.18216407-.5234489-.1615967-.70561297.04593851-.08007089.09122287-.12422426.20845783-.12422426.32983723v5.03070854c0 .27614237.22385763.5.5.5.12084305 0 .23759731-.0437648.32866499-.12319856z"/></g></g></svg>