<svg height="24" viewBox="0 0 24 24" width="24" xmlns="http://www.w3.org/2000/svg"><g fill="none" fill-rule="evenodd"><path d="m0 0h24v24h-24z" opacity="0"/><g fill="#000"><path d="m12 8h-4c-2.209139 0-4 1.790861-4 4v1c0 1.6568542 1.34314575 3 3 3v2c-2.76142375 0-5-2.2385763-5-5v-1c0-3.3137085 2.6862915-6 6-6h4v-1.27200258c0-.10784694.0348702-.21280326.0994077-.29920857.1652483-.22124105.4785598-.26663211.6998009-.10138378l2.8570334 2.13396209c.0388939.02905042.0733497.06361021.1022829.10259138.1645814.22173763.1182471.53491107-.1034905.69949246l-2.8570334 2.1205897c-.0861858.06397009-.190669.09850851-.298001.09850851-.2761424 0-.5-.22385763-.5-.5z"/><path d="m12.0583175 16h3.9416825c2.209139 0 4-1.790861 4-4v-1c0-1.65685425-1.3431458-3-3-3v-2c2.7614237 0 5 2.23857625 5 5v1c0 3.3137085-2.6862915 6-6 6h-3.9416825v.9825492c0 .2761424-.2238576.5-.5.5-.107332 0-.2118152-.0345384-.298001-.0985085l-2.85703339-2.1205897c-.22173763-.1645814-.26807192-.4777548-.10349053-.6994925.02893318-.0389811.06338906-.0735409.10228293-.1025913l2.85703339-2.1339621c.2212411-.1652484.5345526-.1198573.699801.1013837.0645374.0864054.0994076.1913617.0994076.2992086z" opacity=".3"/></g></g></svg>