<svg height="24" viewBox="0 0 24 24" width="24" xmlns="http://www.w3.org/2000/svg"><g fill="none" fill-rule="evenodd"><path d="m0 0h24v24h-24z" opacity="0"/><g fill="#000"><path d="m21.9969433 12.1933592c-.1020776 3.2242204-2.7479322 5.8066408-5.9969433 5.8066408h-3.9416825v.9825492c0 .2761424-.2238576.5-.5.5-.107332 0-.2118152-.0345384-.298001-.0985085l-2.85703339-2.1205897c-.22173763-.1645814-.26807192-.4777548-.10349053-.6994925.02893318-.0389811.06338906-.0735409.10228293-.1025913l2.85703339-2.1339621c.2212411-.1652484.5345526-.1198573.699801.1013837.0645374.0864054.0994076.1913617.0994076.2992086v1.2720026h3.9416825c1.6264832 0 3.0262317-.9707669 3.6514501-2.3645055.8849593-.3103006 1.6824286-.8066506 2.3454932-1.4421353z" opacity=".3"/><path d="m12.1000181 6c.4632703-2.28224032 2.481024-4 4.8999819-4 2.7614237 0 5 2.23857625 5 5s-2.2385763 5-5 5c-2.4189579 0-4.4367116-1.7177597-4.8999819-4h-4.1000181c-2.209139 0-4 1.790861-4 4v1c0 1.6568542 1.34314575 3 3 3v2c-2.76142375 0-5-2.2385763-5-5v-1c0-3.3137085 2.6862915-6 6-6zm4.6299821-.332v3.832h.96v-5h-.872l-1.768 1.424.56.664z" fill-rule="nonzero"/></g></g></svg>