<svg height="24" viewBox="0 0 24 24" width="24" xmlns="http://www.w3.org/2000/svg"><g fill="none" fill-rule="evenodd"><path d="m0 0h24v24h-24z" opacity="0"/><g fill="#000" fill-rule="nonzero"><path d="m18 15v-1.5225848c0-.1213794.0441534-.2386143.1242243-.3298372.182164-.2075352.4980777-.2281026.7056129-.0459385l2.9349616 2.5761631c.0166831.0146436.0323726.030382.0469642.0471107.1815167.2081017.1599652.5239498-.0481365.7054664l-2.9349615 2.5600197c-.0910677.0794337-.2078219.1231985-.328665.1231985-.2761424 0-.5-.2238576-.5-.5v-1.6135979h-1.554581c-1.8515426 0-3.5993761-.8548371-4.7361133-2.3163563l-3.99731586-5.13940615c-.7578248-.97434617-1.92304714-1.54423755-3.15740887-1.54423755h-2.55458097v-2h2.55458097c1.8515426 0 3.59937611.85483706 4.73611331 2.31635632l3.99731592 5.13940618c.7578248.9743461 1.9230471 1.5442375 3.1574088 1.5442375z" opacity=".3"/><path d="m18 6v-1.5225843c0-.1213794.0441534-.23861436.1242243-.32983722.182164-.20753521.4980777-.22810258.7056129-.04593851l2.9349616 2.57616307c.0166831.01464364.0323726.03038205.0469642.04711075.1815167.20810169.1599652.52394977-.0481365.70546642l-2.9349615 2.56001965c-.0910677.07943374-.2078219.12319854-.328665.12319854-.2761424 0-.5-.22385761-.5-.49999998v-1.61359842h-1.554581c-1.2343617 0-2.399584.56989138-3.1574088 1.54423755l-3.99731592 5.13940615c-1.1367372 1.4615192-2.88457071 2.3163563-4.73611331 2.3163563h-2.55458097v-2h2.55458097c1.23436173 0 2.39958407-.5698914 3.15740887-1.5442375l3.99731586-5.13940618c1.1367372-1.46151926 2.8845707-2.31635632 4.7361133-2.31635632z"/></g></g></svg>