<svg height="24" viewBox="0 0 24 24" width="24" xmlns="http://www.w3.org/2000/svg"><g fill="none" fill-rule="evenodd"><path d="m0 0h24v24h-24z" opacity="0"/><g fill="#000"><path d="m16.3155516 16.1481997c-.3615248.2021699-.8184897.0729871-1.0206596-.2885377-.2021698-.3615249-.0729871-.8184897.2885378-1.0206596 1.0211081-.5710183 1.6665702-1.6480695 1.6665702-2.8390024 0-1.1821584-.635904-2.25243141-1.6451225-2.82690139-.3599796-.20490856-.4856896-.66284094-.280781-1.0228206.2049085-.35997966.6628409-.48568963 1.0228206-.28078107 1.4731763.83856527 2.4030829 2.40366626 2.4030829 4.13050306 0 1.7396897-.9438406 3.3146305-2.4344484 4.1481997zm.4732264 3.7410308c-.3732706.1795605-.8214287.0225276-1.0009893-.3507429-.1795605-.3732706-.0225276-.8214287.350743-1.0009893 2.492701-1.1991055 4.1114683-3.7222593 4.1114683-6.5374983 0-2.78828182-1.5877637-5.29137698-4.0438923-6.50455656-.3713798-.18343923-.5237357-.63320889-.3402964-1.00458865.1834392-.37137975.6332088-.52373565 1.0045886-.34029642 2.9631315 1.46360847 4.8796001 4.48490392 4.8796001 7.84944163 0 3.3971108-1.9538409 6.4425397-4.961222 7.8892305z" fill-rule="nonzero" opacity=".3"/><path d="m7 16-3.39223227-.6784465c-.93484839-.1869696-1.60776773-1.0077993-1.60776773-1.9611613v-2.7207844c0-.95336203.67291934-1.77419167 1.60776773-1.96116135l3.39223227-.67844645 3.2928932-3.29289322c.3905243-.39052429 1.0236893-.39052429 1.4142136 0 .1875364.18753638.2928932.44189029.2928932.70710678v13.17157284c0 .5522848-.4477153 1-1 1-.2652165 0-.5195704-.1053568-.7071068-.2928932z"/></g></g></svg>