<svg height="24" viewBox="0 0 24 24" width="24" xmlns="http://www.w3.org/2000/svg"><g fill="none" fill-rule="evenodd"><path d="m0 0h24v24h-24z" opacity="0"/><g fill="#000"><path d="m4.22266882 4 15.61410398.00001353c1.5505457 0 2.8456169 1.18158737 2.9874153 2.72563572.117214 1.27634728.175821 2.67548984.175821 4.19742765 0 1.781883-.0803367 3.5639773-.2410101 5.3462831l-.0000047-.0000005c-.139389 1.5462042-1.4354044 2.7306405-2.9878788 2.7306405l-15.54844459.0000022c-1.54831841 0-2.84230059-1.1782913-2.98689209-2.7198435-.15718588-1.6758264-.23577882-3.2692126-.23577882-4.7801587 0-1.51094641.07859298-3.10433301.23577893-4.7801598l.00000129.00000012c.14459135-1.54155038 1.43857202-2.71984032 2.9868886-2.71984032z" opacity=".3"/><path d="m11.1821576 14.8052934 4.4034508-3.0100066c.2279718-.1558316.286453-.4669657.1306215-.6949374-.0347716-.0508686-.0786461-.0948719-.1294125-.1297924l-4.4034508-3.02898771c-.2275139-.15649928-.5388181-.09893054-.6953174.12858339-.0573474.0833699-.0880496.18217777-.0880496.28336701v6.03899431c0 .2761424.2238576.5.5.5.1006894 0 .199033-.0303999.282158-.0872206z"/></g></g></svg>